%TF.GenerationSoftware,KiCad,Pcbnew,7.0.7*%
%TF.CreationDate,2024-10-25T09:45:07+02:00*%
%TF.ProjectId,Benhui_Tongue,42656e68-7569-45f5-946f-6e6775652e6b,rev?*%
%TF.SameCoordinates,Original*%
%TF.FileFunction,Drillmap*%
%TF.FilePolarity,Positive*%
%FSLAX45Y45*%
G04 Gerber Fmt 4.5, Leading zero omitted, Abs format (unit mm)*
G04 Created by KiCad (PCBNEW 7.0.7) date 2024-10-25 09:45:07*
%MOMM*%
%LPD*%
G01*
G04 APERTURE LIST*
%ADD10C,0.200000*%
%ADD11C,0.040000*%
%ADD12C,0.320000*%
G04 APERTURE END LIST*
D10*
X10220000Y-8960000D02*
G75*
G03*
X10570000Y-9310000I350000J0D01*
G01*
X13620000Y-4910000D02*
X13620000Y-8960000D01*
X13270000Y-9310000D02*
X10570000Y-9310000D01*
X13270000Y-9310000D02*
G75*
G03*
X13620000Y-8960000I0J350000D01*
G01*
X9420000Y-17910000D02*
X14420000Y-17910000D01*
X14420000Y-17910000D02*
X14420000Y-4910000D01*
X13620000Y-4910000D02*
G75*
G03*
X10220000Y-4910000I-1700000J0D01*
G01*
X14420000Y-4910000D02*
G75*
G03*
X9420000Y-4910000I-2500000J0D01*
G01*
X9420000Y-4910000D02*
X9420000Y-17910000D01*
X10220000Y-8960000D02*
X10220000Y-4910000D01*
D11*
X11518500Y-15090000D02*
X11558500Y-15130000D01*
X11558500Y-15090000D02*
X11518500Y-15130000D01*
X11519500Y-15750000D02*
X11559500Y-15790000D01*
X11559500Y-15750000D02*
X11519500Y-15790000D01*
X11772500Y-15090000D02*
X11812500Y-15130000D01*
X11812500Y-15090000D02*
X11772500Y-15130000D01*
X12027000Y-15090000D02*
X12067000Y-15130000D01*
X12067000Y-15090000D02*
X12027000Y-15130000D01*
X12040000Y-15730000D02*
X12080000Y-15770000D01*
X12080000Y-15730000D02*
X12040000Y-15770000D01*
X12280000Y-15850000D02*
X12320000Y-15890000D01*
X12320000Y-15850000D02*
X12280000Y-15890000D01*
X12280500Y-15090000D02*
X12320500Y-15130000D01*
X12320500Y-15090000D02*
X12280500Y-15130000D01*
D12*
X11080000Y-11660000D02*
G75*
G03*
X11080000Y-11660000I-160000J0D01*
G01*
X13080000Y-11660000D02*
G75*
G03*
X13080000Y-11660000I-160000J0D01*
G01*
D10*
X9670777Y-18231484D02*
X9670777Y-18031484D01*
X9670777Y-18031484D02*
X9718396Y-18031484D01*
X9718396Y-18031484D02*
X9746967Y-18041008D01*
X9746967Y-18041008D02*
X9766015Y-18060055D01*
X9766015Y-18060055D02*
X9775539Y-18079103D01*
X9775539Y-18079103D02*
X9785063Y-18117198D01*
X9785063Y-18117198D02*
X9785063Y-18145770D01*
X9785063Y-18145770D02*
X9775539Y-18183865D01*
X9775539Y-18183865D02*
X9766015Y-18202912D01*
X9766015Y-18202912D02*
X9746967Y-18221960D01*
X9746967Y-18221960D02*
X9718396Y-18231484D01*
X9718396Y-18231484D02*
X9670777Y-18231484D01*
X9870777Y-18231484D02*
X9870777Y-18098150D01*
X9870777Y-18136246D02*
X9880301Y-18117198D01*
X9880301Y-18117198D02*
X9889824Y-18107674D01*
X9889824Y-18107674D02*
X9908872Y-18098150D01*
X9908872Y-18098150D02*
X9927920Y-18098150D01*
X9994586Y-18231484D02*
X9994586Y-18098150D01*
X9994586Y-18031484D02*
X9985063Y-18041008D01*
X9985063Y-18041008D02*
X9994586Y-18050531D01*
X9994586Y-18050531D02*
X10004110Y-18041008D01*
X10004110Y-18041008D02*
X9994586Y-18031484D01*
X9994586Y-18031484D02*
X9994586Y-18050531D01*
X10118396Y-18231484D02*
X10099348Y-18221960D01*
X10099348Y-18221960D02*
X10089824Y-18202912D01*
X10089824Y-18202912D02*
X10089824Y-18031484D01*
X10223158Y-18231484D02*
X10204110Y-18221960D01*
X10204110Y-18221960D02*
X10194586Y-18202912D01*
X10194586Y-18202912D02*
X10194586Y-18031484D01*
X10451729Y-18231484D02*
X10451729Y-18031484D01*
X10451729Y-18031484D02*
X10518396Y-18174341D01*
X10518396Y-18174341D02*
X10585063Y-18031484D01*
X10585063Y-18031484D02*
X10585063Y-18231484D01*
X10766015Y-18231484D02*
X10766015Y-18126722D01*
X10766015Y-18126722D02*
X10756491Y-18107674D01*
X10756491Y-18107674D02*
X10737444Y-18098150D01*
X10737444Y-18098150D02*
X10699348Y-18098150D01*
X10699348Y-18098150D02*
X10680301Y-18107674D01*
X10766015Y-18221960D02*
X10746967Y-18231484D01*
X10746967Y-18231484D02*
X10699348Y-18231484D01*
X10699348Y-18231484D02*
X10680301Y-18221960D01*
X10680301Y-18221960D02*
X10670777Y-18202912D01*
X10670777Y-18202912D02*
X10670777Y-18183865D01*
X10670777Y-18183865D02*
X10680301Y-18164817D01*
X10680301Y-18164817D02*
X10699348Y-18155293D01*
X10699348Y-18155293D02*
X10746967Y-18155293D01*
X10746967Y-18155293D02*
X10766015Y-18145770D01*
X10861253Y-18098150D02*
X10861253Y-18298150D01*
X10861253Y-18107674D02*
X10880301Y-18098150D01*
X10880301Y-18098150D02*
X10918396Y-18098150D01*
X10918396Y-18098150D02*
X10937444Y-18107674D01*
X10937444Y-18107674D02*
X10946967Y-18117198D01*
X10946967Y-18117198D02*
X10956491Y-18136246D01*
X10956491Y-18136246D02*
X10956491Y-18193389D01*
X10956491Y-18193389D02*
X10946967Y-18212436D01*
X10946967Y-18212436D02*
X10937444Y-18221960D01*
X10937444Y-18221960D02*
X10918396Y-18231484D01*
X10918396Y-18231484D02*
X10880301Y-18231484D01*
X10880301Y-18231484D02*
X10861253Y-18221960D01*
X11042205Y-18212436D02*
X11051729Y-18221960D01*
X11051729Y-18221960D02*
X11042205Y-18231484D01*
X11042205Y-18231484D02*
X11032682Y-18221960D01*
X11032682Y-18221960D02*
X11042205Y-18212436D01*
X11042205Y-18212436D02*
X11042205Y-18231484D01*
X11042205Y-18107674D02*
X11051729Y-18117198D01*
X11051729Y-18117198D02*
X11042205Y-18126722D01*
X11042205Y-18126722D02*
X11032682Y-18117198D01*
X11032682Y-18117198D02*
X11042205Y-18107674D01*
X11042205Y-18107674D02*
X11042205Y-18126722D01*
D11*
X9370000Y-18540000D02*
X9410000Y-18580000D01*
X9410000Y-18540000D02*
X9370000Y-18580000D01*
D10*
X9708872Y-18451484D02*
X9727920Y-18451484D01*
X9727920Y-18451484D02*
X9746967Y-18461008D01*
X9746967Y-18461008D02*
X9756491Y-18470531D01*
X9756491Y-18470531D02*
X9766015Y-18489579D01*
X9766015Y-18489579D02*
X9775539Y-18527674D01*
X9775539Y-18527674D02*
X9775539Y-18575293D01*
X9775539Y-18575293D02*
X9766015Y-18613389D01*
X9766015Y-18613389D02*
X9756491Y-18632436D01*
X9756491Y-18632436D02*
X9746967Y-18641960D01*
X9746967Y-18641960D02*
X9727920Y-18651484D01*
X9727920Y-18651484D02*
X9708872Y-18651484D01*
X9708872Y-18651484D02*
X9689824Y-18641960D01*
X9689824Y-18641960D02*
X9680301Y-18632436D01*
X9680301Y-18632436D02*
X9670777Y-18613389D01*
X9670777Y-18613389D02*
X9661253Y-18575293D01*
X9661253Y-18575293D02*
X9661253Y-18527674D01*
X9661253Y-18527674D02*
X9670777Y-18489579D01*
X9670777Y-18489579D02*
X9680301Y-18470531D01*
X9680301Y-18470531D02*
X9689824Y-18461008D01*
X9689824Y-18461008D02*
X9708872Y-18451484D01*
X9861253Y-18632436D02*
X9870777Y-18641960D01*
X9870777Y-18641960D02*
X9861253Y-18651484D01*
X9861253Y-18651484D02*
X9851729Y-18641960D01*
X9851729Y-18641960D02*
X9861253Y-18632436D01*
X9861253Y-18632436D02*
X9861253Y-18651484D01*
X10042205Y-18518150D02*
X10042205Y-18651484D01*
X9994586Y-18441960D02*
X9946967Y-18584817D01*
X9946967Y-18584817D02*
X10070777Y-18584817D01*
X10185063Y-18451484D02*
X10204110Y-18451484D01*
X10204110Y-18451484D02*
X10223158Y-18461008D01*
X10223158Y-18461008D02*
X10232682Y-18470531D01*
X10232682Y-18470531D02*
X10242205Y-18489579D01*
X10242205Y-18489579D02*
X10251729Y-18527674D01*
X10251729Y-18527674D02*
X10251729Y-18575293D01*
X10251729Y-18575293D02*
X10242205Y-18613389D01*
X10242205Y-18613389D02*
X10232682Y-18632436D01*
X10232682Y-18632436D02*
X10223158Y-18641960D01*
X10223158Y-18641960D02*
X10204110Y-18651484D01*
X10204110Y-18651484D02*
X10185063Y-18651484D01*
X10185063Y-18651484D02*
X10166015Y-18641960D01*
X10166015Y-18641960D02*
X10156491Y-18632436D01*
X10156491Y-18632436D02*
X10146967Y-18613389D01*
X10146967Y-18613389D02*
X10137444Y-18575293D01*
X10137444Y-18575293D02*
X10137444Y-18527674D01*
X10137444Y-18527674D02*
X10146967Y-18489579D01*
X10146967Y-18489579D02*
X10156491Y-18470531D01*
X10156491Y-18470531D02*
X10166015Y-18461008D01*
X10166015Y-18461008D02*
X10185063Y-18451484D01*
X10375539Y-18451484D02*
X10394586Y-18451484D01*
X10394586Y-18451484D02*
X10413634Y-18461008D01*
X10413634Y-18461008D02*
X10423158Y-18470531D01*
X10423158Y-18470531D02*
X10432682Y-18489579D01*
X10432682Y-18489579D02*
X10442205Y-18527674D01*
X10442205Y-18527674D02*
X10442205Y-18575293D01*
X10442205Y-18575293D02*
X10432682Y-18613389D01*
X10432682Y-18613389D02*
X10423158Y-18632436D01*
X10423158Y-18632436D02*
X10413634Y-18641960D01*
X10413634Y-18641960D02*
X10394586Y-18651484D01*
X10394586Y-18651484D02*
X10375539Y-18651484D01*
X10375539Y-18651484D02*
X10356491Y-18641960D01*
X10356491Y-18641960D02*
X10346967Y-18632436D01*
X10346967Y-18632436D02*
X10337444Y-18613389D01*
X10337444Y-18613389D02*
X10327920Y-18575293D01*
X10327920Y-18575293D02*
X10327920Y-18527674D01*
X10327920Y-18527674D02*
X10337444Y-18489579D01*
X10337444Y-18489579D02*
X10346967Y-18470531D01*
X10346967Y-18470531D02*
X10356491Y-18461008D01*
X10356491Y-18461008D02*
X10375539Y-18451484D01*
X10527920Y-18651484D02*
X10527920Y-18518150D01*
X10527920Y-18537198D02*
X10537444Y-18527674D01*
X10537444Y-18527674D02*
X10556491Y-18518150D01*
X10556491Y-18518150D02*
X10585063Y-18518150D01*
X10585063Y-18518150D02*
X10604110Y-18527674D01*
X10604110Y-18527674D02*
X10613634Y-18546722D01*
X10613634Y-18546722D02*
X10613634Y-18651484D01*
X10613634Y-18546722D02*
X10623158Y-18527674D01*
X10623158Y-18527674D02*
X10642205Y-18518150D01*
X10642205Y-18518150D02*
X10670777Y-18518150D01*
X10670777Y-18518150D02*
X10689825Y-18527674D01*
X10689825Y-18527674D02*
X10699348Y-18546722D01*
X10699348Y-18546722D02*
X10699348Y-18651484D01*
X10794586Y-18651484D02*
X10794586Y-18518150D01*
X10794586Y-18537198D02*
X10804110Y-18527674D01*
X10804110Y-18527674D02*
X10823158Y-18518150D01*
X10823158Y-18518150D02*
X10851729Y-18518150D01*
X10851729Y-18518150D02*
X10870777Y-18527674D01*
X10870777Y-18527674D02*
X10880301Y-18546722D01*
X10880301Y-18546722D02*
X10880301Y-18651484D01*
X10880301Y-18546722D02*
X10889825Y-18527674D01*
X10889825Y-18527674D02*
X10908872Y-18518150D01*
X10908872Y-18518150D02*
X10937444Y-18518150D01*
X10937444Y-18518150D02*
X10956491Y-18527674D01*
X10956491Y-18527674D02*
X10966015Y-18546722D01*
X10966015Y-18546722D02*
X10966015Y-18651484D01*
X11356491Y-18441960D02*
X11185063Y-18699103D01*
X11613634Y-18451484D02*
X11632682Y-18451484D01*
X11632682Y-18451484D02*
X11651729Y-18461008D01*
X11651729Y-18461008D02*
X11661253Y-18470531D01*
X11661253Y-18470531D02*
X11670777Y-18489579D01*
X11670777Y-18489579D02*
X11680301Y-18527674D01*
X11680301Y-18527674D02*
X11680301Y-18575293D01*
X11680301Y-18575293D02*
X11670777Y-18613389D01*
X11670777Y-18613389D02*
X11661253Y-18632436D01*
X11661253Y-18632436D02*
X11651729Y-18641960D01*
X11651729Y-18641960D02*
X11632682Y-18651484D01*
X11632682Y-18651484D02*
X11613634Y-18651484D01*
X11613634Y-18651484D02*
X11594586Y-18641960D01*
X11594586Y-18641960D02*
X11585063Y-18632436D01*
X11585063Y-18632436D02*
X11575539Y-18613389D01*
X11575539Y-18613389D02*
X11566015Y-18575293D01*
X11566015Y-18575293D02*
X11566015Y-18527674D01*
X11566015Y-18527674D02*
X11575539Y-18489579D01*
X11575539Y-18489579D02*
X11585063Y-18470531D01*
X11585063Y-18470531D02*
X11594586Y-18461008D01*
X11594586Y-18461008D02*
X11613634Y-18451484D01*
X11766015Y-18632436D02*
X11775539Y-18641960D01*
X11775539Y-18641960D02*
X11766015Y-18651484D01*
X11766015Y-18651484D02*
X11756491Y-18641960D01*
X11756491Y-18641960D02*
X11766015Y-18632436D01*
X11766015Y-18632436D02*
X11766015Y-18651484D01*
X11899348Y-18451484D02*
X11918396Y-18451484D01*
X11918396Y-18451484D02*
X11937444Y-18461008D01*
X11937444Y-18461008D02*
X11946967Y-18470531D01*
X11946967Y-18470531D02*
X11956491Y-18489579D01*
X11956491Y-18489579D02*
X11966015Y-18527674D01*
X11966015Y-18527674D02*
X11966015Y-18575293D01*
X11966015Y-18575293D02*
X11956491Y-18613389D01*
X11956491Y-18613389D02*
X11946967Y-18632436D01*
X11946967Y-18632436D02*
X11937444Y-18641960D01*
X11937444Y-18641960D02*
X11918396Y-18651484D01*
X11918396Y-18651484D02*
X11899348Y-18651484D01*
X11899348Y-18651484D02*
X11880301Y-18641960D01*
X11880301Y-18641960D02*
X11870777Y-18632436D01*
X11870777Y-18632436D02*
X11861253Y-18613389D01*
X11861253Y-18613389D02*
X11851729Y-18575293D01*
X11851729Y-18575293D02*
X11851729Y-18527674D01*
X11851729Y-18527674D02*
X11861253Y-18489579D01*
X11861253Y-18489579D02*
X11870777Y-18470531D01*
X11870777Y-18470531D02*
X11880301Y-18461008D01*
X11880301Y-18461008D02*
X11899348Y-18451484D01*
X12156491Y-18651484D02*
X12042206Y-18651484D01*
X12099348Y-18651484D02*
X12099348Y-18451484D01*
X12099348Y-18451484D02*
X12080301Y-18480055D01*
X12080301Y-18480055D02*
X12061253Y-18499103D01*
X12061253Y-18499103D02*
X12042206Y-18508627D01*
X12337444Y-18451484D02*
X12242206Y-18451484D01*
X12242206Y-18451484D02*
X12232682Y-18546722D01*
X12232682Y-18546722D02*
X12242206Y-18537198D01*
X12242206Y-18537198D02*
X12261253Y-18527674D01*
X12261253Y-18527674D02*
X12308872Y-18527674D01*
X12308872Y-18527674D02*
X12327920Y-18537198D01*
X12327920Y-18537198D02*
X12337444Y-18546722D01*
X12337444Y-18546722D02*
X12346967Y-18565770D01*
X12346967Y-18565770D02*
X12346967Y-18613389D01*
X12346967Y-18613389D02*
X12337444Y-18632436D01*
X12337444Y-18632436D02*
X12327920Y-18641960D01*
X12327920Y-18641960D02*
X12308872Y-18651484D01*
X12308872Y-18651484D02*
X12261253Y-18651484D01*
X12261253Y-18651484D02*
X12242206Y-18641960D01*
X12242206Y-18641960D02*
X12232682Y-18632436D01*
X12413634Y-18451484D02*
X12546967Y-18451484D01*
X12546967Y-18451484D02*
X12461253Y-18651484D01*
X12613634Y-18451484D02*
X12613634Y-18489579D01*
X12689825Y-18451484D02*
X12689825Y-18489579D01*
X12985063Y-18727674D02*
X12975539Y-18718150D01*
X12975539Y-18718150D02*
X12956491Y-18689579D01*
X12956491Y-18689579D02*
X12946968Y-18670531D01*
X12946968Y-18670531D02*
X12937444Y-18641960D01*
X12937444Y-18641960D02*
X12927920Y-18594341D01*
X12927920Y-18594341D02*
X12927920Y-18556246D01*
X12927920Y-18556246D02*
X12937444Y-18508627D01*
X12937444Y-18508627D02*
X12946968Y-18480055D01*
X12946968Y-18480055D02*
X12956491Y-18461008D01*
X12956491Y-18461008D02*
X12975539Y-18432436D01*
X12975539Y-18432436D02*
X12985063Y-18422912D01*
X13042206Y-18451484D02*
X13175539Y-18451484D01*
X13175539Y-18451484D02*
X13089825Y-18651484D01*
X13404110Y-18651484D02*
X13404110Y-18451484D01*
X13489825Y-18651484D02*
X13489825Y-18546722D01*
X13489825Y-18546722D02*
X13480301Y-18527674D01*
X13480301Y-18527674D02*
X13461253Y-18518150D01*
X13461253Y-18518150D02*
X13432682Y-18518150D01*
X13432682Y-18518150D02*
X13413634Y-18527674D01*
X13413634Y-18527674D02*
X13404110Y-18537198D01*
X13613634Y-18651484D02*
X13594587Y-18641960D01*
X13594587Y-18641960D02*
X13585063Y-18632436D01*
X13585063Y-18632436D02*
X13575539Y-18613389D01*
X13575539Y-18613389D02*
X13575539Y-18556246D01*
X13575539Y-18556246D02*
X13585063Y-18537198D01*
X13585063Y-18537198D02*
X13594587Y-18527674D01*
X13594587Y-18527674D02*
X13613634Y-18518150D01*
X13613634Y-18518150D02*
X13642206Y-18518150D01*
X13642206Y-18518150D02*
X13661253Y-18527674D01*
X13661253Y-18527674D02*
X13670777Y-18537198D01*
X13670777Y-18537198D02*
X13680301Y-18556246D01*
X13680301Y-18556246D02*
X13680301Y-18613389D01*
X13680301Y-18613389D02*
X13670777Y-18632436D01*
X13670777Y-18632436D02*
X13661253Y-18641960D01*
X13661253Y-18641960D02*
X13642206Y-18651484D01*
X13642206Y-18651484D02*
X13613634Y-18651484D01*
X13794587Y-18651484D02*
X13775539Y-18641960D01*
X13775539Y-18641960D02*
X13766015Y-18622912D01*
X13766015Y-18622912D02*
X13766015Y-18451484D01*
X13946968Y-18641960D02*
X13927920Y-18651484D01*
X13927920Y-18651484D02*
X13889825Y-18651484D01*
X13889825Y-18651484D02*
X13870777Y-18641960D01*
X13870777Y-18641960D02*
X13861253Y-18622912D01*
X13861253Y-18622912D02*
X13861253Y-18546722D01*
X13861253Y-18546722D02*
X13870777Y-18527674D01*
X13870777Y-18527674D02*
X13889825Y-18518150D01*
X13889825Y-18518150D02*
X13927920Y-18518150D01*
X13927920Y-18518150D02*
X13946968Y-18527674D01*
X13946968Y-18527674D02*
X13956491Y-18546722D01*
X13956491Y-18546722D02*
X13956491Y-18565770D01*
X13956491Y-18565770D02*
X13861253Y-18584817D01*
X14032682Y-18641960D02*
X14051730Y-18651484D01*
X14051730Y-18651484D02*
X14089825Y-18651484D01*
X14089825Y-18651484D02*
X14108872Y-18641960D01*
X14108872Y-18641960D02*
X14118396Y-18622912D01*
X14118396Y-18622912D02*
X14118396Y-18613389D01*
X14118396Y-18613389D02*
X14108872Y-18594341D01*
X14108872Y-18594341D02*
X14089825Y-18584817D01*
X14089825Y-18584817D02*
X14061253Y-18584817D01*
X14061253Y-18584817D02*
X14042206Y-18575293D01*
X14042206Y-18575293D02*
X14032682Y-18556246D01*
X14032682Y-18556246D02*
X14032682Y-18546722D01*
X14032682Y-18546722D02*
X14042206Y-18527674D01*
X14042206Y-18527674D02*
X14061253Y-18518150D01*
X14061253Y-18518150D02*
X14089825Y-18518150D01*
X14089825Y-18518150D02*
X14108872Y-18527674D01*
X14185063Y-18727674D02*
X14194587Y-18718150D01*
X14194587Y-18718150D02*
X14213634Y-18689579D01*
X14213634Y-18689579D02*
X14223158Y-18670531D01*
X14223158Y-18670531D02*
X14232682Y-18641960D01*
X14232682Y-18641960D02*
X14242206Y-18594341D01*
X14242206Y-18594341D02*
X14242206Y-18556246D01*
X14242206Y-18556246D02*
X14232682Y-18508627D01*
X14232682Y-18508627D02*
X14223158Y-18480055D01*
X14223158Y-18480055D02*
X14213634Y-18461008D01*
X14213634Y-18461008D02*
X14194587Y-18432436D01*
X14194587Y-18432436D02*
X14185063Y-18422912D01*
X9410000Y-18824000D02*
G75*
G03*
X9410000Y-18824000I-100000J0D01*
G01*
X9651729Y-18715484D02*
X9775539Y-18715484D01*
X9775539Y-18715484D02*
X9708872Y-18791674D01*
X9708872Y-18791674D02*
X9737444Y-18791674D01*
X9737444Y-18791674D02*
X9756491Y-18801198D01*
X9756491Y-18801198D02*
X9766015Y-18810722D01*
X9766015Y-18810722D02*
X9775539Y-18829770D01*
X9775539Y-18829770D02*
X9775539Y-18877389D01*
X9775539Y-18877389D02*
X9766015Y-18896436D01*
X9766015Y-18896436D02*
X9756491Y-18905960D01*
X9756491Y-18905960D02*
X9737444Y-18915484D01*
X9737444Y-18915484D02*
X9680301Y-18915484D01*
X9680301Y-18915484D02*
X9661253Y-18905960D01*
X9661253Y-18905960D02*
X9651729Y-18896436D01*
X9861253Y-18896436D02*
X9870777Y-18905960D01*
X9870777Y-18905960D02*
X9861253Y-18915484D01*
X9861253Y-18915484D02*
X9851729Y-18905960D01*
X9851729Y-18905960D02*
X9861253Y-18896436D01*
X9861253Y-18896436D02*
X9861253Y-18915484D01*
X9946967Y-18734531D02*
X9956491Y-18725008D01*
X9956491Y-18725008D02*
X9975539Y-18715484D01*
X9975539Y-18715484D02*
X10023158Y-18715484D01*
X10023158Y-18715484D02*
X10042205Y-18725008D01*
X10042205Y-18725008D02*
X10051729Y-18734531D01*
X10051729Y-18734531D02*
X10061253Y-18753579D01*
X10061253Y-18753579D02*
X10061253Y-18772627D01*
X10061253Y-18772627D02*
X10051729Y-18801198D01*
X10051729Y-18801198D02*
X9937444Y-18915484D01*
X9937444Y-18915484D02*
X10061253Y-18915484D01*
X10185063Y-18715484D02*
X10204110Y-18715484D01*
X10204110Y-18715484D02*
X10223158Y-18725008D01*
X10223158Y-18725008D02*
X10232682Y-18734531D01*
X10232682Y-18734531D02*
X10242205Y-18753579D01*
X10242205Y-18753579D02*
X10251729Y-18791674D01*
X10251729Y-18791674D02*
X10251729Y-18839293D01*
X10251729Y-18839293D02*
X10242205Y-18877389D01*
X10242205Y-18877389D02*
X10232682Y-18896436D01*
X10232682Y-18896436D02*
X10223158Y-18905960D01*
X10223158Y-18905960D02*
X10204110Y-18915484D01*
X10204110Y-18915484D02*
X10185063Y-18915484D01*
X10185063Y-18915484D02*
X10166015Y-18905960D01*
X10166015Y-18905960D02*
X10156491Y-18896436D01*
X10156491Y-18896436D02*
X10146967Y-18877389D01*
X10146967Y-18877389D02*
X10137444Y-18839293D01*
X10137444Y-18839293D02*
X10137444Y-18791674D01*
X10137444Y-18791674D02*
X10146967Y-18753579D01*
X10146967Y-18753579D02*
X10156491Y-18734531D01*
X10156491Y-18734531D02*
X10166015Y-18725008D01*
X10166015Y-18725008D02*
X10185063Y-18715484D01*
X10375539Y-18715484D02*
X10394586Y-18715484D01*
X10394586Y-18715484D02*
X10413634Y-18725008D01*
X10413634Y-18725008D02*
X10423158Y-18734531D01*
X10423158Y-18734531D02*
X10432682Y-18753579D01*
X10432682Y-18753579D02*
X10442205Y-18791674D01*
X10442205Y-18791674D02*
X10442205Y-18839293D01*
X10442205Y-18839293D02*
X10432682Y-18877389D01*
X10432682Y-18877389D02*
X10423158Y-18896436D01*
X10423158Y-18896436D02*
X10413634Y-18905960D01*
X10413634Y-18905960D02*
X10394586Y-18915484D01*
X10394586Y-18915484D02*
X10375539Y-18915484D01*
X10375539Y-18915484D02*
X10356491Y-18905960D01*
X10356491Y-18905960D02*
X10346967Y-18896436D01*
X10346967Y-18896436D02*
X10337444Y-18877389D01*
X10337444Y-18877389D02*
X10327920Y-18839293D01*
X10327920Y-18839293D02*
X10327920Y-18791674D01*
X10327920Y-18791674D02*
X10337444Y-18753579D01*
X10337444Y-18753579D02*
X10346967Y-18734531D01*
X10346967Y-18734531D02*
X10356491Y-18725008D01*
X10356491Y-18725008D02*
X10375539Y-18715484D01*
X10527920Y-18915484D02*
X10527920Y-18782150D01*
X10527920Y-18801198D02*
X10537444Y-18791674D01*
X10537444Y-18791674D02*
X10556491Y-18782150D01*
X10556491Y-18782150D02*
X10585063Y-18782150D01*
X10585063Y-18782150D02*
X10604110Y-18791674D01*
X10604110Y-18791674D02*
X10613634Y-18810722D01*
X10613634Y-18810722D02*
X10613634Y-18915484D01*
X10613634Y-18810722D02*
X10623158Y-18791674D01*
X10623158Y-18791674D02*
X10642205Y-18782150D01*
X10642205Y-18782150D02*
X10670777Y-18782150D01*
X10670777Y-18782150D02*
X10689825Y-18791674D01*
X10689825Y-18791674D02*
X10699348Y-18810722D01*
X10699348Y-18810722D02*
X10699348Y-18915484D01*
X10794586Y-18915484D02*
X10794586Y-18782150D01*
X10794586Y-18801198D02*
X10804110Y-18791674D01*
X10804110Y-18791674D02*
X10823158Y-18782150D01*
X10823158Y-18782150D02*
X10851729Y-18782150D01*
X10851729Y-18782150D02*
X10870777Y-18791674D01*
X10870777Y-18791674D02*
X10880301Y-18810722D01*
X10880301Y-18810722D02*
X10880301Y-18915484D01*
X10880301Y-18810722D02*
X10889825Y-18791674D01*
X10889825Y-18791674D02*
X10908872Y-18782150D01*
X10908872Y-18782150D02*
X10937444Y-18782150D01*
X10937444Y-18782150D02*
X10956491Y-18791674D01*
X10956491Y-18791674D02*
X10966015Y-18810722D01*
X10966015Y-18810722D02*
X10966015Y-18915484D01*
X11356491Y-18705960D02*
X11185063Y-18963103D01*
X11613634Y-18715484D02*
X11632682Y-18715484D01*
X11632682Y-18715484D02*
X11651729Y-18725008D01*
X11651729Y-18725008D02*
X11661253Y-18734531D01*
X11661253Y-18734531D02*
X11670777Y-18753579D01*
X11670777Y-18753579D02*
X11680301Y-18791674D01*
X11680301Y-18791674D02*
X11680301Y-18839293D01*
X11680301Y-18839293D02*
X11670777Y-18877389D01*
X11670777Y-18877389D02*
X11661253Y-18896436D01*
X11661253Y-18896436D02*
X11651729Y-18905960D01*
X11651729Y-18905960D02*
X11632682Y-18915484D01*
X11632682Y-18915484D02*
X11613634Y-18915484D01*
X11613634Y-18915484D02*
X11594586Y-18905960D01*
X11594586Y-18905960D02*
X11585063Y-18896436D01*
X11585063Y-18896436D02*
X11575539Y-18877389D01*
X11575539Y-18877389D02*
X11566015Y-18839293D01*
X11566015Y-18839293D02*
X11566015Y-18791674D01*
X11566015Y-18791674D02*
X11575539Y-18753579D01*
X11575539Y-18753579D02*
X11585063Y-18734531D01*
X11585063Y-18734531D02*
X11594586Y-18725008D01*
X11594586Y-18725008D02*
X11613634Y-18715484D01*
X11766015Y-18896436D02*
X11775539Y-18905960D01*
X11775539Y-18905960D02*
X11766015Y-18915484D01*
X11766015Y-18915484D02*
X11756491Y-18905960D01*
X11756491Y-18905960D02*
X11766015Y-18896436D01*
X11766015Y-18896436D02*
X11766015Y-18915484D01*
X11966015Y-18915484D02*
X11851729Y-18915484D01*
X11908872Y-18915484D02*
X11908872Y-18715484D01*
X11908872Y-18715484D02*
X11889825Y-18744055D01*
X11889825Y-18744055D02*
X11870777Y-18763103D01*
X11870777Y-18763103D02*
X11851729Y-18772627D01*
X12042206Y-18734531D02*
X12051729Y-18725008D01*
X12051729Y-18725008D02*
X12070777Y-18715484D01*
X12070777Y-18715484D02*
X12118396Y-18715484D01*
X12118396Y-18715484D02*
X12137444Y-18725008D01*
X12137444Y-18725008D02*
X12146967Y-18734531D01*
X12146967Y-18734531D02*
X12156491Y-18753579D01*
X12156491Y-18753579D02*
X12156491Y-18772627D01*
X12156491Y-18772627D02*
X12146967Y-18801198D01*
X12146967Y-18801198D02*
X12032682Y-18915484D01*
X12032682Y-18915484D02*
X12156491Y-18915484D01*
X12327920Y-18715484D02*
X12289825Y-18715484D01*
X12289825Y-18715484D02*
X12270777Y-18725008D01*
X12270777Y-18725008D02*
X12261253Y-18734531D01*
X12261253Y-18734531D02*
X12242206Y-18763103D01*
X12242206Y-18763103D02*
X12232682Y-18801198D01*
X12232682Y-18801198D02*
X12232682Y-18877389D01*
X12232682Y-18877389D02*
X12242206Y-18896436D01*
X12242206Y-18896436D02*
X12251729Y-18905960D01*
X12251729Y-18905960D02*
X12270777Y-18915484D01*
X12270777Y-18915484D02*
X12308872Y-18915484D01*
X12308872Y-18915484D02*
X12327920Y-18905960D01*
X12327920Y-18905960D02*
X12337444Y-18896436D01*
X12337444Y-18896436D02*
X12346967Y-18877389D01*
X12346967Y-18877389D02*
X12346967Y-18829770D01*
X12346967Y-18829770D02*
X12337444Y-18810722D01*
X12337444Y-18810722D02*
X12327920Y-18801198D01*
X12327920Y-18801198D02*
X12308872Y-18791674D01*
X12308872Y-18791674D02*
X12270777Y-18791674D01*
X12270777Y-18791674D02*
X12251729Y-18801198D01*
X12251729Y-18801198D02*
X12242206Y-18810722D01*
X12242206Y-18810722D02*
X12232682Y-18829770D01*
X12470777Y-18715484D02*
X12489825Y-18715484D01*
X12489825Y-18715484D02*
X12508872Y-18725008D01*
X12508872Y-18725008D02*
X12518396Y-18734531D01*
X12518396Y-18734531D02*
X12527920Y-18753579D01*
X12527920Y-18753579D02*
X12537444Y-18791674D01*
X12537444Y-18791674D02*
X12537444Y-18839293D01*
X12537444Y-18839293D02*
X12527920Y-18877389D01*
X12527920Y-18877389D02*
X12518396Y-18896436D01*
X12518396Y-18896436D02*
X12508872Y-18905960D01*
X12508872Y-18905960D02*
X12489825Y-18915484D01*
X12489825Y-18915484D02*
X12470777Y-18915484D01*
X12470777Y-18915484D02*
X12451729Y-18905960D01*
X12451729Y-18905960D02*
X12442206Y-18896436D01*
X12442206Y-18896436D02*
X12432682Y-18877389D01*
X12432682Y-18877389D02*
X12423158Y-18839293D01*
X12423158Y-18839293D02*
X12423158Y-18791674D01*
X12423158Y-18791674D02*
X12432682Y-18753579D01*
X12432682Y-18753579D02*
X12442206Y-18734531D01*
X12442206Y-18734531D02*
X12451729Y-18725008D01*
X12451729Y-18725008D02*
X12470777Y-18715484D01*
X12613634Y-18715484D02*
X12613634Y-18753579D01*
X12689825Y-18715484D02*
X12689825Y-18753579D01*
X12985063Y-18991674D02*
X12975539Y-18982150D01*
X12975539Y-18982150D02*
X12956491Y-18953579D01*
X12956491Y-18953579D02*
X12946968Y-18934531D01*
X12946968Y-18934531D02*
X12937444Y-18905960D01*
X12937444Y-18905960D02*
X12927920Y-18858341D01*
X12927920Y-18858341D02*
X12927920Y-18820246D01*
X12927920Y-18820246D02*
X12937444Y-18772627D01*
X12937444Y-18772627D02*
X12946968Y-18744055D01*
X12946968Y-18744055D02*
X12956491Y-18725008D01*
X12956491Y-18725008D02*
X12975539Y-18696436D01*
X12975539Y-18696436D02*
X12985063Y-18686912D01*
X13051729Y-18734531D02*
X13061253Y-18725008D01*
X13061253Y-18725008D02*
X13080301Y-18715484D01*
X13080301Y-18715484D02*
X13127920Y-18715484D01*
X13127920Y-18715484D02*
X13146968Y-18725008D01*
X13146968Y-18725008D02*
X13156491Y-18734531D01*
X13156491Y-18734531D02*
X13166015Y-18753579D01*
X13166015Y-18753579D02*
X13166015Y-18772627D01*
X13166015Y-18772627D02*
X13156491Y-18801198D01*
X13156491Y-18801198D02*
X13042206Y-18915484D01*
X13042206Y-18915484D02*
X13166015Y-18915484D01*
X13404110Y-18915484D02*
X13404110Y-18715484D01*
X13489825Y-18915484D02*
X13489825Y-18810722D01*
X13489825Y-18810722D02*
X13480301Y-18791674D01*
X13480301Y-18791674D02*
X13461253Y-18782150D01*
X13461253Y-18782150D02*
X13432682Y-18782150D01*
X13432682Y-18782150D02*
X13413634Y-18791674D01*
X13413634Y-18791674D02*
X13404110Y-18801198D01*
X13613634Y-18915484D02*
X13594587Y-18905960D01*
X13594587Y-18905960D02*
X13585063Y-18896436D01*
X13585063Y-18896436D02*
X13575539Y-18877389D01*
X13575539Y-18877389D02*
X13575539Y-18820246D01*
X13575539Y-18820246D02*
X13585063Y-18801198D01*
X13585063Y-18801198D02*
X13594587Y-18791674D01*
X13594587Y-18791674D02*
X13613634Y-18782150D01*
X13613634Y-18782150D02*
X13642206Y-18782150D01*
X13642206Y-18782150D02*
X13661253Y-18791674D01*
X13661253Y-18791674D02*
X13670777Y-18801198D01*
X13670777Y-18801198D02*
X13680301Y-18820246D01*
X13680301Y-18820246D02*
X13680301Y-18877389D01*
X13680301Y-18877389D02*
X13670777Y-18896436D01*
X13670777Y-18896436D02*
X13661253Y-18905960D01*
X13661253Y-18905960D02*
X13642206Y-18915484D01*
X13642206Y-18915484D02*
X13613634Y-18915484D01*
X13794587Y-18915484D02*
X13775539Y-18905960D01*
X13775539Y-18905960D02*
X13766015Y-18886912D01*
X13766015Y-18886912D02*
X13766015Y-18715484D01*
X13946968Y-18905960D02*
X13927920Y-18915484D01*
X13927920Y-18915484D02*
X13889825Y-18915484D01*
X13889825Y-18915484D02*
X13870777Y-18905960D01*
X13870777Y-18905960D02*
X13861253Y-18886912D01*
X13861253Y-18886912D02*
X13861253Y-18810722D01*
X13861253Y-18810722D02*
X13870777Y-18791674D01*
X13870777Y-18791674D02*
X13889825Y-18782150D01*
X13889825Y-18782150D02*
X13927920Y-18782150D01*
X13927920Y-18782150D02*
X13946968Y-18791674D01*
X13946968Y-18791674D02*
X13956491Y-18810722D01*
X13956491Y-18810722D02*
X13956491Y-18829770D01*
X13956491Y-18829770D02*
X13861253Y-18848817D01*
X14032682Y-18905960D02*
X14051730Y-18915484D01*
X14051730Y-18915484D02*
X14089825Y-18915484D01*
X14089825Y-18915484D02*
X14108872Y-18905960D01*
X14108872Y-18905960D02*
X14118396Y-18886912D01*
X14118396Y-18886912D02*
X14118396Y-18877389D01*
X14118396Y-18877389D02*
X14108872Y-18858341D01*
X14108872Y-18858341D02*
X14089825Y-18848817D01*
X14089825Y-18848817D02*
X14061253Y-18848817D01*
X14061253Y-18848817D02*
X14042206Y-18839293D01*
X14042206Y-18839293D02*
X14032682Y-18820246D01*
X14032682Y-18820246D02*
X14032682Y-18810722D01*
X14032682Y-18810722D02*
X14042206Y-18791674D01*
X14042206Y-18791674D02*
X14061253Y-18782150D01*
X14061253Y-18782150D02*
X14089825Y-18782150D01*
X14089825Y-18782150D02*
X14108872Y-18791674D01*
X14185063Y-18991674D02*
X14194587Y-18982150D01*
X14194587Y-18982150D02*
X14213634Y-18953579D01*
X14213634Y-18953579D02*
X14223158Y-18934531D01*
X14223158Y-18934531D02*
X14232682Y-18905960D01*
X14232682Y-18905960D02*
X14242206Y-18858341D01*
X14242206Y-18858341D02*
X14242206Y-18820246D01*
X14242206Y-18820246D02*
X14232682Y-18772627D01*
X14232682Y-18772627D02*
X14223158Y-18744055D01*
X14223158Y-18744055D02*
X14213634Y-18725008D01*
X14213634Y-18725008D02*
X14194587Y-18696436D01*
X14194587Y-18696436D02*
X14185063Y-18686912D01*
M02*
