G04 #@! TF.GenerationSoftware,KiCad,Pcbnew,7.0.7*
G04 #@! TF.CreationDate,2024-10-25T09:44:25+02:00*
G04 #@! TF.ProjectId,Benhui_Tongue,42656e68-7569-45f5-946f-6e6775652e6b,rev?*
G04 #@! TF.SameCoordinates,Original*
G04 #@! TF.FileFunction,Copper,L1,Top*
G04 #@! TF.FilePolarity,Positive*
%FSLAX46Y46*%
G04 Gerber Fmt 4.6, Leading zero omitted, Abs format (unit mm)*
G04 Created by KiCad (PCBNEW 7.0.7) date 2024-10-25 09:44:25*
%MOMM*%
%LPD*%
G01*
G04 APERTURE LIST*
G04 #@! TA.AperFunction,SMDPad,CuDef*
%ADD10C,3.000000*%
G04 #@! TD*
G04 #@! TA.AperFunction,ComponentPad*
%ADD11C,5.600000*%
G04 #@! TD*
G04 #@! TA.AperFunction,SMDPad,CuDef*
%ADD12R,1.300000X3.755000*%
G04 #@! TD*
G04 #@! TA.AperFunction,SMDPad,CuDef*
%ADD13R,1.010000X2.200000*%
G04 #@! TD*
G04 #@! TA.AperFunction,SMDPad,CuDef*
%ADD14R,1.000000X2.200000*%
G04 #@! TD*
G04 #@! TA.AperFunction,ViaPad*
%ADD15C,0.800000*%
G04 #@! TD*
G04 #@! TA.AperFunction,Conductor*
%ADD16C,0.250000*%
G04 #@! TD*
G04 APERTURE END LIST*
D10*
X99200000Y-59100000D03*
D11*
X109200000Y-116600000D03*
D10*
X123650000Y-29601000D03*
X139200000Y-49100000D03*
D12*
X137962500Y-174502500D03*
X137962500Y-168097500D03*
X135422500Y-174502500D03*
X135422500Y-168097500D03*
X132882500Y-174502500D03*
X132882500Y-168097500D03*
X130342500Y-174502500D03*
X130342500Y-168097500D03*
X127802500Y-174502500D03*
X127802500Y-168097500D03*
X125262500Y-174502500D03*
X125262500Y-168097500D03*
X122722500Y-174502500D03*
X122722500Y-168097500D03*
X120182500Y-174502500D03*
X120182500Y-168097500D03*
X117642500Y-174502500D03*
X117642500Y-168097500D03*
X115102500Y-174502500D03*
X115102500Y-168097500D03*
X112562500Y-174502500D03*
X112562500Y-168097500D03*
X110022500Y-174502500D03*
X110022500Y-168097500D03*
X107482500Y-174502500D03*
X107482500Y-168097500D03*
X104942500Y-174502500D03*
X104942500Y-168097500D03*
X102402500Y-174502500D03*
X102402500Y-168097500D03*
X99862500Y-174502500D03*
X99862500Y-168097500D03*
D10*
X131620000Y-33463000D03*
X114750000Y-29601000D03*
D11*
X129200000Y-116600000D03*
D10*
X139200000Y-59100000D03*
X99200000Y-99100000D03*
X99200000Y-49100000D03*
X139200000Y-84100000D03*
X99200000Y-84100000D03*
X106730000Y-33463000D03*
D13*
X115395000Y-157700000D03*
D14*
X115390000Y-152100000D03*
X117930000Y-157700000D03*
X117930000Y-152100000D03*
X120470000Y-157700000D03*
X120470000Y-152100000D03*
X123010000Y-157700000D03*
X123010000Y-152100000D03*
D10*
X99200000Y-69100000D03*
X137219000Y-40422000D03*
X139200000Y-99100000D03*
X101181000Y-40422000D03*
X139200000Y-69100000D03*
D15*
X120600000Y-157500000D03*
X120470000Y-151100000D03*
X117925001Y-151100000D03*
X115384999Y-151099999D03*
X123005000Y-151099998D03*
X115395000Y-157700000D03*
X123000000Y-158699998D03*
D16*
X99200000Y-99100000D02*
X99200000Y-146300000D01*
X117642500Y-164742500D02*
X117642500Y-168097500D01*
X99200000Y-146300000D02*
X117642500Y-164742500D01*
X97375000Y-147208750D02*
X115102500Y-164936250D01*
X115102500Y-164936250D02*
X115102500Y-168097500D01*
X97375000Y-85925000D02*
X97375000Y-147208750D01*
X99200000Y-84100000D02*
X97375000Y-85925000D01*
X96916665Y-149116665D02*
X112562500Y-164762500D01*
X112562500Y-164762500D02*
X112562500Y-168097500D01*
X99200000Y-69100000D02*
X96998000Y-71302000D01*
X96916665Y-71302000D02*
X96916665Y-149116665D01*
X96458332Y-61841668D02*
X96458332Y-151158332D01*
X96458332Y-151158332D02*
X110022500Y-164722500D01*
X110022500Y-164722500D02*
X110022500Y-168097500D01*
X99200000Y-59100000D02*
X96458332Y-61841668D01*
X95999999Y-52300001D02*
X99200000Y-49100000D01*
X107482500Y-168097500D02*
X107482500Y-164782500D01*
X107482500Y-164782500D02*
X95999999Y-153299999D01*
X95999999Y-52600000D02*
X95999999Y-52300001D01*
X95999999Y-153299999D02*
X95999999Y-52500000D01*
X101181000Y-40422000D02*
X101181000Y-41049716D01*
X104942500Y-164742500D02*
X104942500Y-168097500D01*
X101181000Y-41049716D02*
X95500000Y-46730716D01*
X95500000Y-46730716D02*
X95500000Y-155300000D01*
X95500000Y-155300000D02*
X104942500Y-164742500D01*
X95238670Y-45743251D02*
X95391065Y-44793287D01*
X95046000Y-47700853D02*
X95047721Y-47657593D01*
X96523302Y-40676698D02*
X103737000Y-33463000D01*
X102402500Y-164702500D02*
X95046000Y-157346000D01*
X95124161Y-46698519D02*
X95238670Y-45743251D01*
X102402500Y-168097500D02*
X102402500Y-164702500D01*
X96373819Y-41076374D02*
X96523302Y-40676698D01*
X95581111Y-43850126D02*
X95808500Y-42915269D01*
X103737000Y-33463000D02*
X106730000Y-33463000D01*
X96072873Y-41990211D02*
X96373819Y-41076374D01*
X95046000Y-157346000D02*
X95046000Y-47700853D01*
X95808500Y-42915269D02*
X96072873Y-41990211D01*
X95391065Y-44793287D02*
X95581111Y-43850126D01*
X95047721Y-47657593D02*
X95124161Y-46698519D01*
X103074960Y-30558552D02*
X102350583Y-31214270D01*
X103824857Y-29932132D02*
X103074960Y-30558552D01*
X97152699Y-38250174D02*
X96738783Y-39135268D01*
X114749000Y-29600000D02*
X104256218Y-29600000D01*
X94629110Y-49280246D02*
X94625000Y-49284315D01*
X97601475Y-37382240D02*
X97152699Y-38250174D01*
X94625000Y-49284315D02*
X94625000Y-159425000D01*
X99730232Y-34108993D02*
X99149636Y-34894893D01*
X94748948Y-46661100D02*
X94671317Y-47635124D01*
X95443953Y-42818884D02*
X95213019Y-43768313D01*
X100982819Y-32609503D02*
X100341608Y-33346802D01*
X94865245Y-45690916D02*
X94748948Y-46661100D01*
X96360374Y-40036136D02*
X96018090Y-40951305D01*
X96018090Y-40951305D02*
X95712445Y-41879410D01*
X95213019Y-43768313D02*
X95020010Y-44726182D01*
X95020010Y-44726182D02*
X94865245Y-45690916D01*
X98084419Y-36532804D02*
X97601475Y-37382240D01*
X95712445Y-41879410D02*
X95443953Y-42818884D01*
X98600729Y-35703277D02*
X98084419Y-36532804D01*
X94632429Y-48612526D02*
X94629110Y-49280246D01*
X100341608Y-33346802D02*
X99730232Y-34108993D01*
X104256218Y-29600000D02*
X103824857Y-29932132D01*
X96738783Y-39135268D02*
X96360374Y-40036136D01*
X102350583Y-31214270D02*
X101652812Y-31898303D01*
X99149636Y-34894893D02*
X98600729Y-35703277D01*
X101652812Y-31898303D02*
X100982819Y-32609503D01*
X94671317Y-47635124D02*
X94632429Y-48612526D01*
X94625000Y-159425000D02*
X99862500Y-164662500D01*
X99862500Y-164662500D02*
X99862500Y-168097500D01*
X114750000Y-29601000D02*
X114749000Y-29600000D01*
X143767571Y-48612526D02*
X143728683Y-47635124D01*
X137962500Y-164737500D02*
X143775000Y-158925000D01*
X140315581Y-36532804D02*
X139799271Y-35703277D01*
X143775000Y-49284315D02*
X143770890Y-49280246D01*
X143775000Y-158925000D02*
X143775000Y-49284315D01*
X141247301Y-38250174D02*
X140798525Y-37382240D01*
X137962500Y-168097500D02*
X137962500Y-164737500D01*
X138058392Y-33346802D02*
X137417181Y-32609503D01*
X143728683Y-47635124D02*
X143651052Y-46661100D01*
X138669768Y-34108993D02*
X138058392Y-33346802D01*
X143770890Y-49280246D02*
X143767571Y-48612526D01*
X143379990Y-44726182D02*
X143186981Y-43768313D01*
X141661217Y-39135268D02*
X141247301Y-38250174D01*
X137417181Y-32609503D02*
X136747188Y-31898303D01*
X142956047Y-42818884D02*
X142687555Y-41879410D01*
X134575143Y-29932132D02*
X134143782Y-29600000D01*
X136747188Y-31898303D02*
X136049417Y-31214270D01*
X140798525Y-37382240D02*
X140315581Y-36532804D01*
X142381910Y-40951305D02*
X142039626Y-40036136D01*
X135325040Y-30558552D02*
X134575143Y-29932132D01*
X142039626Y-40036136D02*
X141661217Y-39135268D01*
X139799271Y-35703277D02*
X139250364Y-34894893D01*
X139250364Y-34894893D02*
X138669768Y-34108993D01*
X143186981Y-43768313D02*
X142956047Y-42818884D01*
X143651052Y-46661100D02*
X143534755Y-45690916D01*
X136049417Y-31214270D02*
X135325040Y-30558552D01*
X123651000Y-29600000D02*
X123650000Y-29601000D01*
X134143782Y-29600000D02*
X123651000Y-29600000D01*
X142687555Y-41879410D02*
X142381910Y-40951305D01*
X143534755Y-45690916D02*
X143379990Y-44726182D01*
X143275839Y-46698519D02*
X143352279Y-47657593D01*
X143354000Y-47700853D02*
X143354000Y-156746000D01*
X134663000Y-33463000D02*
X141876698Y-40676698D01*
X131670000Y-33463000D02*
X134663000Y-33463000D01*
X141876698Y-40676698D02*
X142026181Y-41076374D01*
X142591500Y-42915269D02*
X142818889Y-43850126D01*
X142026181Y-41076374D02*
X142327127Y-41990211D01*
X143352279Y-47657593D02*
X143354000Y-47700853D01*
X135422500Y-164677500D02*
X135422500Y-168097500D01*
X143161330Y-45743251D02*
X143275839Y-46698519D01*
X142818889Y-43850126D02*
X143008935Y-44793287D01*
X142327127Y-41990211D02*
X142591500Y-42915269D01*
X143354000Y-156746000D02*
X135422500Y-164677500D01*
X143008935Y-44793287D02*
X143161330Y-45743251D01*
X137219000Y-41049716D02*
X142900000Y-46730716D01*
X137219000Y-40422000D02*
X137219000Y-41049716D01*
X142900000Y-46730716D02*
X142900000Y-154800000D01*
X142900000Y-154800000D02*
X132882500Y-164817500D01*
X132882500Y-164817500D02*
X132882500Y-168097500D01*
X130342500Y-164757500D02*
X142400001Y-152699999D01*
X142400001Y-152699999D02*
X142400001Y-52500000D01*
X130342500Y-168097500D02*
X130342500Y-164757500D01*
X142400001Y-52600000D02*
X142400001Y-52300001D01*
X142400001Y-52300001D02*
X139200000Y-49100000D01*
X127802500Y-164697500D02*
X141941668Y-150558332D01*
X127802500Y-168097500D02*
X127802500Y-164697500D01*
X141941668Y-61841668D02*
X139200000Y-59100000D01*
X141941668Y-150558332D02*
X141941668Y-61841668D01*
X141483335Y-148416665D02*
X125262500Y-164637500D01*
X125262500Y-164637500D02*
X125262500Y-168097500D01*
X139200000Y-69100000D02*
X141483335Y-71383335D01*
X141483335Y-71383335D02*
X141483335Y-148416665D01*
X141025000Y-146475000D02*
X122722500Y-164777500D01*
X141025000Y-85925000D02*
X141025000Y-146475000D01*
X122722500Y-164777500D02*
X122722500Y-168097500D01*
X139200000Y-84100000D02*
X141025000Y-85925000D01*
X139200000Y-99100000D02*
X139200000Y-145700000D01*
X139200000Y-145700000D02*
X120182500Y-164717500D01*
X120182500Y-164717500D02*
X120182500Y-168097500D01*
X120470001Y-173529999D02*
X120470001Y-173635001D01*
X117929999Y-173529999D02*
X117929999Y-173635001D01*
X115390000Y-173635000D02*
X115390000Y-173260000D01*
X112849999Y-173260000D02*
X112849999Y-173383158D01*
X110310000Y-173259999D02*
X110259999Y-173259999D01*
X100150000Y-173250000D02*
X100150000Y-173260000D01*
M02*
