%TF.GenerationSoftware,KiCad,Pcbnew,7.0.7*%
%TF.CreationDate,2024-10-25T09:45:07+02:00*%
%TF.ProjectId,Benhui_Tongue,42656e68-7569-45f5-946f-6e6775652e6b,rev?*%
%TF.SameCoordinates,Original*%
%TF.FileFunction,Drillmap*%
%TF.FilePolarity,Positive*%
%FSLAX45Y45*%
G04 Gerber Fmt 4.5, Leading zero omitted, Abs format (unit mm)*
G04 Created by KiCad (PCBNEW 7.0.7) date 2024-10-25 09:45:07*
%MOMM*%
%LPD*%
G01*
G04 APERTURE LIST*
%ADD10C,0.200000*%
G04 APERTURE END LIST*
D10*
X10220000Y-8960000D02*
G75*
G03*
X10570000Y-9310000I350000J0D01*
G01*
X13620000Y-4910000D02*
X13620000Y-8960000D01*
X13270000Y-9310000D02*
X10570000Y-9310000D01*
X13270000Y-9310000D02*
G75*
G03*
X13620000Y-8960000I0J350000D01*
G01*
X9420000Y-17910000D02*
X14420000Y-17910000D01*
X14420000Y-17910000D02*
X14420000Y-4910000D01*
X13620000Y-4910000D02*
G75*
G03*
X10220000Y-4910000I-1700000J0D01*
G01*
X14420000Y-4910000D02*
G75*
G03*
X9420000Y-4910000I-2500000J0D01*
G01*
X9420000Y-4910000D02*
X9420000Y-17910000D01*
X10220000Y-8960000D02*
X10220000Y-4910000D01*
X9670777Y-18231484D02*
X9670777Y-18031484D01*
X9670777Y-18031484D02*
X9718396Y-18031484D01*
X9718396Y-18031484D02*
X9746967Y-18041008D01*
X9746967Y-18041008D02*
X9766015Y-18060055D01*
X9766015Y-18060055D02*
X9775539Y-18079103D01*
X9775539Y-18079103D02*
X9785063Y-18117198D01*
X9785063Y-18117198D02*
X9785063Y-18145770D01*
X9785063Y-18145770D02*
X9775539Y-18183865D01*
X9775539Y-18183865D02*
X9766015Y-18202912D01*
X9766015Y-18202912D02*
X9746967Y-18221960D01*
X9746967Y-18221960D02*
X9718396Y-18231484D01*
X9718396Y-18231484D02*
X9670777Y-18231484D01*
X9870777Y-18231484D02*
X9870777Y-18098150D01*
X9870777Y-18136246D02*
X9880301Y-18117198D01*
X9880301Y-18117198D02*
X9889824Y-18107674D01*
X9889824Y-18107674D02*
X9908872Y-18098150D01*
X9908872Y-18098150D02*
X9927920Y-18098150D01*
X9994586Y-18231484D02*
X9994586Y-18098150D01*
X9994586Y-18031484D02*
X9985063Y-18041008D01*
X9985063Y-18041008D02*
X9994586Y-18050531D01*
X9994586Y-18050531D02*
X10004110Y-18041008D01*
X10004110Y-18041008D02*
X9994586Y-18031484D01*
X9994586Y-18031484D02*
X9994586Y-18050531D01*
X10118396Y-18231484D02*
X10099348Y-18221960D01*
X10099348Y-18221960D02*
X10089824Y-18202912D01*
X10089824Y-18202912D02*
X10089824Y-18031484D01*
X10223158Y-18231484D02*
X10204110Y-18221960D01*
X10204110Y-18221960D02*
X10194586Y-18202912D01*
X10194586Y-18202912D02*
X10194586Y-18031484D01*
X10451729Y-18231484D02*
X10451729Y-18031484D01*
X10451729Y-18031484D02*
X10518396Y-18174341D01*
X10518396Y-18174341D02*
X10585063Y-18031484D01*
X10585063Y-18031484D02*
X10585063Y-18231484D01*
X10766015Y-18231484D02*
X10766015Y-18126722D01*
X10766015Y-18126722D02*
X10756491Y-18107674D01*
X10756491Y-18107674D02*
X10737444Y-18098150D01*
X10737444Y-18098150D02*
X10699348Y-18098150D01*
X10699348Y-18098150D02*
X10680301Y-18107674D01*
X10766015Y-18221960D02*
X10746967Y-18231484D01*
X10746967Y-18231484D02*
X10699348Y-18231484D01*
X10699348Y-18231484D02*
X10680301Y-18221960D01*
X10680301Y-18221960D02*
X10670777Y-18202912D01*
X10670777Y-18202912D02*
X10670777Y-18183865D01*
X10670777Y-18183865D02*
X10680301Y-18164817D01*
X10680301Y-18164817D02*
X10699348Y-18155293D01*
X10699348Y-18155293D02*
X10746967Y-18155293D01*
X10746967Y-18155293D02*
X10766015Y-18145770D01*
X10861253Y-18098150D02*
X10861253Y-18298150D01*
X10861253Y-18107674D02*
X10880301Y-18098150D01*
X10880301Y-18098150D02*
X10918396Y-18098150D01*
X10918396Y-18098150D02*
X10937444Y-18107674D01*
X10937444Y-18107674D02*
X10946967Y-18117198D01*
X10946967Y-18117198D02*
X10956491Y-18136246D01*
X10956491Y-18136246D02*
X10956491Y-18193389D01*
X10956491Y-18193389D02*
X10946967Y-18212436D01*
X10946967Y-18212436D02*
X10937444Y-18221960D01*
X10937444Y-18221960D02*
X10918396Y-18231484D01*
X10918396Y-18231484D02*
X10880301Y-18231484D01*
X10880301Y-18231484D02*
X10861253Y-18221960D01*
X11042205Y-18212436D02*
X11051729Y-18221960D01*
X11051729Y-18221960D02*
X11042205Y-18231484D01*
X11042205Y-18231484D02*
X11032682Y-18221960D01*
X11032682Y-18221960D02*
X11042205Y-18212436D01*
X11042205Y-18212436D02*
X11042205Y-18231484D01*
X11042205Y-18107674D02*
X11051729Y-18117198D01*
X11051729Y-18117198D02*
X11042205Y-18126722D01*
X11042205Y-18126722D02*
X11032682Y-18117198D01*
X11032682Y-18117198D02*
X11042205Y-18107674D01*
X11042205Y-18107674D02*
X11042205Y-18126722D01*
M02*
