G04 #@! TF.GenerationSoftware,KiCad,Pcbnew,7.0.7*
G04 #@! TF.CreationDate,2024-05-14T22:47:59+02:00*
G04 #@! TF.ProjectId,Pinky_V1,50696e6b-795f-4563-912e-6b696361645f,rev?*
G04 #@! TF.SameCoordinates,Original*
G04 #@! TF.FileFunction,Other,User*
%FSLAX46Y46*%
G04 Gerber Fmt 4.6, Leading zero omitted, Abs format (unit mm)*
G04 Created by KiCad (PCBNEW 7.0.7) date 2024-05-14 22:47:59*
%MOMM*%
%LPD*%
G01*
G04 APERTURE LIST*
%ADD10C,0.150000*%
G04 APERTURE END LIST*
D10*
X205124999Y-105004000D02*
X211435000Y-105004000D01*
X211435000Y-109418749D01*
X205124999Y-109418749D01*
X205124999Y-105004000D01*
X70130001Y-120264000D02*
X62130000Y-120264000D01*
X62130001Y-116264000D01*
X70130000Y-116264000D01*
X70130001Y-120264000D01*
X205140000Y-126959249D02*
X211430000Y-126959249D01*
X211430000Y-131484000D01*
X205140000Y-131484000D01*
X205140000Y-126959249D01*
X137129999Y-127113999D02*
X145130000Y-127113999D01*
X145130000Y-131464000D01*
X137129999Y-131464000D01*
X137129999Y-127113999D01*
X214834600Y-115344000D02*
X219409999Y-115344000D01*
X219409999Y-121144000D01*
X214834600Y-121144000D01*
X214834600Y-115344000D01*
X137150000Y-105024001D02*
X145130000Y-105024001D01*
X145130000Y-109424000D01*
X137150000Y-109424000D01*
X137150000Y-105024001D01*
X67580179Y-123757922D02*
X67580179Y-124329350D01*
X66580179Y-124043636D02*
X67580179Y-124043636D01*
X66580179Y-124662684D02*
X67580179Y-124662684D01*
X66580179Y-125091255D02*
X67103989Y-125091255D01*
X67103989Y-125091255D02*
X67199227Y-125043636D01*
X67199227Y-125043636D02*
X67246846Y-124948398D01*
X67246846Y-124948398D02*
X67246846Y-124805541D01*
X67246846Y-124805541D02*
X67199227Y-124710303D01*
X67199227Y-124710303D02*
X67151608Y-124662684D01*
X66580179Y-125567446D02*
X67246846Y-125567446D01*
X67580179Y-125567446D02*
X67532560Y-125519827D01*
X67532560Y-125519827D02*
X67484941Y-125567446D01*
X67484941Y-125567446D02*
X67532560Y-125615065D01*
X67532560Y-125615065D02*
X67580179Y-125567446D01*
X67580179Y-125567446D02*
X67484941Y-125567446D01*
X66627799Y-126472207D02*
X66580179Y-126376969D01*
X66580179Y-126376969D02*
X66580179Y-126186493D01*
X66580179Y-126186493D02*
X66627799Y-126091255D01*
X66627799Y-126091255D02*
X66675418Y-126043636D01*
X66675418Y-126043636D02*
X66770656Y-125996017D01*
X66770656Y-125996017D02*
X67056370Y-125996017D01*
X67056370Y-125996017D02*
X67151608Y-126043636D01*
X67151608Y-126043636D02*
X67199227Y-126091255D01*
X67199227Y-126091255D02*
X67246846Y-126186493D01*
X67246846Y-126186493D02*
X67246846Y-126376969D01*
X67246846Y-126376969D02*
X67199227Y-126472207D01*
X66580179Y-126900779D02*
X67580179Y-126900779D01*
X66961132Y-126996017D02*
X66580179Y-127281731D01*
X67246846Y-127281731D02*
X66865894Y-126900779D01*
X67246846Y-127710303D02*
X66580179Y-127710303D01*
X67151608Y-127710303D02*
X67199227Y-127757922D01*
X67199227Y-127757922D02*
X67246846Y-127853160D01*
X67246846Y-127853160D02*
X67246846Y-127996017D01*
X67246846Y-127996017D02*
X67199227Y-128091255D01*
X67199227Y-128091255D02*
X67103989Y-128138874D01*
X67103989Y-128138874D02*
X66580179Y-128138874D01*
X66627799Y-128996017D02*
X66580179Y-128900779D01*
X66580179Y-128900779D02*
X66580179Y-128710303D01*
X66580179Y-128710303D02*
X66627799Y-128615065D01*
X66627799Y-128615065D02*
X66723037Y-128567446D01*
X66723037Y-128567446D02*
X67103989Y-128567446D01*
X67103989Y-128567446D02*
X67199227Y-128615065D01*
X67199227Y-128615065D02*
X67246846Y-128710303D01*
X67246846Y-128710303D02*
X67246846Y-128900779D01*
X67246846Y-128900779D02*
X67199227Y-128996017D01*
X67199227Y-128996017D02*
X67103989Y-129043636D01*
X67103989Y-129043636D02*
X67008751Y-129043636D01*
X67008751Y-129043636D02*
X66913513Y-128567446D01*
X66627799Y-129424589D02*
X66580179Y-129519827D01*
X66580179Y-129519827D02*
X66580179Y-129710303D01*
X66580179Y-129710303D02*
X66627799Y-129805541D01*
X66627799Y-129805541D02*
X66723037Y-129853160D01*
X66723037Y-129853160D02*
X66770656Y-129853160D01*
X66770656Y-129853160D02*
X66865894Y-129805541D01*
X66865894Y-129805541D02*
X66913513Y-129710303D01*
X66913513Y-129710303D02*
X66913513Y-129567446D01*
X66913513Y-129567446D02*
X66961132Y-129472208D01*
X66961132Y-129472208D02*
X67056370Y-129424589D01*
X67056370Y-129424589D02*
X67103989Y-129424589D01*
X67103989Y-129424589D02*
X67199227Y-129472208D01*
X67199227Y-129472208D02*
X67246846Y-129567446D01*
X67246846Y-129567446D02*
X67246846Y-129710303D01*
X67246846Y-129710303D02*
X67199227Y-129805541D01*
X66627799Y-130234113D02*
X66580179Y-130329351D01*
X66580179Y-130329351D02*
X66580179Y-130519827D01*
X66580179Y-130519827D02*
X66627799Y-130615065D01*
X66627799Y-130615065D02*
X66723037Y-130662684D01*
X66723037Y-130662684D02*
X66770656Y-130662684D01*
X66770656Y-130662684D02*
X66865894Y-130615065D01*
X66865894Y-130615065D02*
X66913513Y-130519827D01*
X66913513Y-130519827D02*
X66913513Y-130376970D01*
X66913513Y-130376970D02*
X66961132Y-130281732D01*
X66961132Y-130281732D02*
X67056370Y-130234113D01*
X67056370Y-130234113D02*
X67103989Y-130234113D01*
X67103989Y-130234113D02*
X67199227Y-130281732D01*
X67199227Y-130281732D02*
X67246846Y-130376970D01*
X67246846Y-130376970D02*
X67246846Y-130519827D01*
X67246846Y-130519827D02*
X67199227Y-130615065D01*
X67103989Y-131853161D02*
X67103989Y-132615066D01*
X66818275Y-132615066D02*
X66818275Y-131853161D01*
X67580179Y-134043637D02*
X67580179Y-134138875D01*
X67580179Y-134138875D02*
X67532560Y-134234113D01*
X67532560Y-134234113D02*
X67484941Y-134281732D01*
X67484941Y-134281732D02*
X67389703Y-134329351D01*
X67389703Y-134329351D02*
X67199227Y-134376970D01*
X67199227Y-134376970D02*
X66961132Y-134376970D01*
X66961132Y-134376970D02*
X66770656Y-134329351D01*
X66770656Y-134329351D02*
X66675418Y-134281732D01*
X66675418Y-134281732D02*
X66627799Y-134234113D01*
X66627799Y-134234113D02*
X66580179Y-134138875D01*
X66580179Y-134138875D02*
X66580179Y-134043637D01*
X66580179Y-134043637D02*
X66627799Y-133948399D01*
X66627799Y-133948399D02*
X66675418Y-133900780D01*
X66675418Y-133900780D02*
X66770656Y-133853161D01*
X66770656Y-133853161D02*
X66961132Y-133805542D01*
X66961132Y-133805542D02*
X67199227Y-133805542D01*
X67199227Y-133805542D02*
X67389703Y-133853161D01*
X67389703Y-133853161D02*
X67484941Y-133900780D01*
X67484941Y-133900780D02*
X67532560Y-133948399D01*
X67532560Y-133948399D02*
X67580179Y-134043637D01*
X66675418Y-134805542D02*
X66627799Y-134853161D01*
X66627799Y-134853161D02*
X66580179Y-134805542D01*
X66580179Y-134805542D02*
X66627799Y-134757923D01*
X66627799Y-134757923D02*
X66675418Y-134805542D01*
X66675418Y-134805542D02*
X66580179Y-134805542D01*
X67484941Y-135234113D02*
X67532560Y-135281732D01*
X67532560Y-135281732D02*
X67580179Y-135376970D01*
X67580179Y-135376970D02*
X67580179Y-135615065D01*
X67580179Y-135615065D02*
X67532560Y-135710303D01*
X67532560Y-135710303D02*
X67484941Y-135757922D01*
X67484941Y-135757922D02*
X67389703Y-135805541D01*
X67389703Y-135805541D02*
X67294465Y-135805541D01*
X67294465Y-135805541D02*
X67151608Y-135757922D01*
X67151608Y-135757922D02*
X66580179Y-135186494D01*
X66580179Y-135186494D02*
X66580179Y-135805541D01*
X67484941Y-136186494D02*
X67532560Y-136234113D01*
X67532560Y-136234113D02*
X67580179Y-136329351D01*
X67580179Y-136329351D02*
X67580179Y-136567446D01*
X67580179Y-136567446D02*
X67532560Y-136662684D01*
X67532560Y-136662684D02*
X67484941Y-136710303D01*
X67484941Y-136710303D02*
X67389703Y-136757922D01*
X67389703Y-136757922D02*
X67294465Y-136757922D01*
X67294465Y-136757922D02*
X67151608Y-136710303D01*
X67151608Y-136710303D02*
X66580179Y-136138875D01*
X66580179Y-136138875D02*
X66580179Y-136757922D01*
X67580179Y-137662684D02*
X67580179Y-137186494D01*
X67580179Y-137186494D02*
X67103989Y-137138875D01*
X67103989Y-137138875D02*
X67151608Y-137186494D01*
X67151608Y-137186494D02*
X67199227Y-137281732D01*
X67199227Y-137281732D02*
X67199227Y-137519827D01*
X67199227Y-137519827D02*
X67151608Y-137615065D01*
X67151608Y-137615065D02*
X67103989Y-137662684D01*
X67103989Y-137662684D02*
X67008751Y-137710303D01*
X67008751Y-137710303D02*
X66770656Y-137710303D01*
X66770656Y-137710303D02*
X66675418Y-137662684D01*
X66675418Y-137662684D02*
X66627799Y-137615065D01*
X66627799Y-137615065D02*
X66580179Y-137519827D01*
X66580179Y-137519827D02*
X66580179Y-137281732D01*
X66580179Y-137281732D02*
X66627799Y-137186494D01*
X66627799Y-137186494D02*
X66675418Y-137138875D01*
X66580179Y-138138875D02*
X67246846Y-138138875D01*
X67151608Y-138138875D02*
X67199227Y-138186494D01*
X67199227Y-138186494D02*
X67246846Y-138281732D01*
X67246846Y-138281732D02*
X67246846Y-138424589D01*
X67246846Y-138424589D02*
X67199227Y-138519827D01*
X67199227Y-138519827D02*
X67103989Y-138567446D01*
X67103989Y-138567446D02*
X66580179Y-138567446D01*
X67103989Y-138567446D02*
X67199227Y-138615065D01*
X67199227Y-138615065D02*
X67246846Y-138710303D01*
X67246846Y-138710303D02*
X67246846Y-138853160D01*
X67246846Y-138853160D02*
X67199227Y-138948399D01*
X67199227Y-138948399D02*
X67103989Y-138996018D01*
X67103989Y-138996018D02*
X66580179Y-138996018D01*
X66580179Y-139472208D02*
X67246846Y-139472208D01*
X67151608Y-139472208D02*
X67199227Y-139519827D01*
X67199227Y-139519827D02*
X67246846Y-139615065D01*
X67246846Y-139615065D02*
X67246846Y-139757922D01*
X67246846Y-139757922D02*
X67199227Y-139853160D01*
X67199227Y-139853160D02*
X67103989Y-139900779D01*
X67103989Y-139900779D02*
X66580179Y-139900779D01*
X67103989Y-139900779D02*
X67199227Y-139948398D01*
X67199227Y-139948398D02*
X67246846Y-140043636D01*
X67246846Y-140043636D02*
X67246846Y-140186493D01*
X67246846Y-140186493D02*
X67199227Y-140281732D01*
X67199227Y-140281732D02*
X67103989Y-140329351D01*
X67103989Y-140329351D02*
X66580179Y-140329351D01*
X64970179Y-123900779D02*
X65970179Y-123900779D01*
X65970179Y-123900779D02*
X65970179Y-124281731D01*
X65970179Y-124281731D02*
X65922560Y-124376969D01*
X65922560Y-124376969D02*
X65874941Y-124424588D01*
X65874941Y-124424588D02*
X65779703Y-124472207D01*
X65779703Y-124472207D02*
X65636846Y-124472207D01*
X65636846Y-124472207D02*
X65541608Y-124424588D01*
X65541608Y-124424588D02*
X65493989Y-124376969D01*
X65493989Y-124376969D02*
X65446370Y-124281731D01*
X65446370Y-124281731D02*
X65446370Y-123900779D01*
X64970179Y-125043636D02*
X65017799Y-124948398D01*
X65017799Y-124948398D02*
X65065418Y-124900779D01*
X65065418Y-124900779D02*
X65160656Y-124853160D01*
X65160656Y-124853160D02*
X65446370Y-124853160D01*
X65446370Y-124853160D02*
X65541608Y-124900779D01*
X65541608Y-124900779D02*
X65589227Y-124948398D01*
X65589227Y-124948398D02*
X65636846Y-125043636D01*
X65636846Y-125043636D02*
X65636846Y-125186493D01*
X65636846Y-125186493D02*
X65589227Y-125281731D01*
X65589227Y-125281731D02*
X65541608Y-125329350D01*
X65541608Y-125329350D02*
X65446370Y-125376969D01*
X65446370Y-125376969D02*
X65160656Y-125376969D01*
X65160656Y-125376969D02*
X65065418Y-125329350D01*
X65065418Y-125329350D02*
X65017799Y-125281731D01*
X65017799Y-125281731D02*
X64970179Y-125186493D01*
X64970179Y-125186493D02*
X64970179Y-125043636D01*
X64970179Y-125948398D02*
X65017799Y-125853160D01*
X65017799Y-125853160D02*
X65113037Y-125805541D01*
X65113037Y-125805541D02*
X65970179Y-125805541D01*
X65636846Y-126234113D02*
X64970179Y-126472208D01*
X65636846Y-126710303D02*
X64970179Y-126472208D01*
X64970179Y-126472208D02*
X64732084Y-126376970D01*
X64732084Y-126376970D02*
X64684465Y-126329351D01*
X64684465Y-126329351D02*
X64636846Y-126234113D01*
X64970179Y-127091256D02*
X65636846Y-127091256D01*
X65970179Y-127091256D02*
X65922560Y-127043637D01*
X65922560Y-127043637D02*
X65874941Y-127091256D01*
X65874941Y-127091256D02*
X65922560Y-127138875D01*
X65922560Y-127138875D02*
X65970179Y-127091256D01*
X65970179Y-127091256D02*
X65874941Y-127091256D01*
X64970179Y-127567446D02*
X65636846Y-127567446D01*
X65541608Y-127567446D02*
X65589227Y-127615065D01*
X65589227Y-127615065D02*
X65636846Y-127710303D01*
X65636846Y-127710303D02*
X65636846Y-127853160D01*
X65636846Y-127853160D02*
X65589227Y-127948398D01*
X65589227Y-127948398D02*
X65493989Y-127996017D01*
X65493989Y-127996017D02*
X64970179Y-127996017D01*
X65493989Y-127996017D02*
X65589227Y-128043636D01*
X65589227Y-128043636D02*
X65636846Y-128138874D01*
X65636846Y-128138874D02*
X65636846Y-128281731D01*
X65636846Y-128281731D02*
X65589227Y-128376970D01*
X65589227Y-128376970D02*
X65493989Y-128424589D01*
X65493989Y-128424589D02*
X64970179Y-128424589D01*
X64970179Y-128900779D02*
X65636846Y-128900779D01*
X65970179Y-128900779D02*
X65922560Y-128853160D01*
X65922560Y-128853160D02*
X65874941Y-128900779D01*
X65874941Y-128900779D02*
X65922560Y-128948398D01*
X65922560Y-128948398D02*
X65970179Y-128900779D01*
X65970179Y-128900779D02*
X65874941Y-128900779D01*
X64970179Y-129805540D02*
X65970179Y-129805540D01*
X65017799Y-129805540D02*
X64970179Y-129710302D01*
X64970179Y-129710302D02*
X64970179Y-129519826D01*
X64970179Y-129519826D02*
X65017799Y-129424588D01*
X65017799Y-129424588D02*
X65065418Y-129376969D01*
X65065418Y-129376969D02*
X65160656Y-129329350D01*
X65160656Y-129329350D02*
X65446370Y-129329350D01*
X65446370Y-129329350D02*
X65541608Y-129376969D01*
X65541608Y-129376969D02*
X65589227Y-129424588D01*
X65589227Y-129424588D02*
X65636846Y-129519826D01*
X65636846Y-129519826D02*
X65636846Y-129710302D01*
X65636846Y-129710302D02*
X65589227Y-129805540D01*
X65017799Y-130662683D02*
X64970179Y-130567445D01*
X64970179Y-130567445D02*
X64970179Y-130376969D01*
X64970179Y-130376969D02*
X65017799Y-130281731D01*
X65017799Y-130281731D02*
X65113037Y-130234112D01*
X65113037Y-130234112D02*
X65493989Y-130234112D01*
X65493989Y-130234112D02*
X65589227Y-130281731D01*
X65589227Y-130281731D02*
X65636846Y-130376969D01*
X65636846Y-130376969D02*
X65636846Y-130567445D01*
X65636846Y-130567445D02*
X65589227Y-130662683D01*
X65589227Y-130662683D02*
X65493989Y-130710302D01*
X65493989Y-130710302D02*
X65398751Y-130710302D01*
X65398751Y-130710302D02*
X65303513Y-130234112D01*
X65017799Y-131853160D02*
X64970179Y-131948398D01*
X64970179Y-131948398D02*
X64970179Y-132138874D01*
X64970179Y-132138874D02*
X65017799Y-132234112D01*
X65017799Y-132234112D02*
X65113037Y-132281731D01*
X65113037Y-132281731D02*
X65160656Y-132281731D01*
X65160656Y-132281731D02*
X65255894Y-132234112D01*
X65255894Y-132234112D02*
X65303513Y-132138874D01*
X65303513Y-132138874D02*
X65303513Y-131996017D01*
X65303513Y-131996017D02*
X65351132Y-131900779D01*
X65351132Y-131900779D02*
X65446370Y-131853160D01*
X65446370Y-131853160D02*
X65493989Y-131853160D01*
X65493989Y-131853160D02*
X65589227Y-131900779D01*
X65589227Y-131900779D02*
X65636846Y-131996017D01*
X65636846Y-131996017D02*
X65636846Y-132138874D01*
X65636846Y-132138874D02*
X65589227Y-132234112D01*
X65636846Y-132567446D02*
X65636846Y-132948398D01*
X65970179Y-132710303D02*
X65113037Y-132710303D01*
X65113037Y-132710303D02*
X65017799Y-132757922D01*
X65017799Y-132757922D02*
X64970179Y-132853160D01*
X64970179Y-132853160D02*
X64970179Y-132948398D01*
X64970179Y-133281732D02*
X65636846Y-133281732D01*
X65970179Y-133281732D02*
X65922560Y-133234113D01*
X65922560Y-133234113D02*
X65874941Y-133281732D01*
X65874941Y-133281732D02*
X65922560Y-133329351D01*
X65922560Y-133329351D02*
X65970179Y-133281732D01*
X65970179Y-133281732D02*
X65874941Y-133281732D01*
X65636846Y-133615065D02*
X65636846Y-133996017D01*
X64970179Y-133757922D02*
X65827322Y-133757922D01*
X65827322Y-133757922D02*
X65922560Y-133805541D01*
X65922560Y-133805541D02*
X65970179Y-133900779D01*
X65970179Y-133900779D02*
X65970179Y-133996017D01*
X65636846Y-134186494D02*
X65636846Y-134567446D01*
X64970179Y-134329351D02*
X65827322Y-134329351D01*
X65827322Y-134329351D02*
X65922560Y-134376970D01*
X65922560Y-134376970D02*
X65970179Y-134472208D01*
X65970179Y-134472208D02*
X65970179Y-134567446D01*
X65017799Y-135281732D02*
X64970179Y-135186494D01*
X64970179Y-135186494D02*
X64970179Y-134996018D01*
X64970179Y-134996018D02*
X65017799Y-134900780D01*
X65017799Y-134900780D02*
X65113037Y-134853161D01*
X65113037Y-134853161D02*
X65493989Y-134853161D01*
X65493989Y-134853161D02*
X65589227Y-134900780D01*
X65589227Y-134900780D02*
X65636846Y-134996018D01*
X65636846Y-134996018D02*
X65636846Y-135186494D01*
X65636846Y-135186494D02*
X65589227Y-135281732D01*
X65589227Y-135281732D02*
X65493989Y-135329351D01*
X65493989Y-135329351D02*
X65398751Y-135329351D01*
X65398751Y-135329351D02*
X65303513Y-134853161D01*
X65636846Y-135757923D02*
X64970179Y-135757923D01*
X65541608Y-135757923D02*
X65589227Y-135805542D01*
X65589227Y-135805542D02*
X65636846Y-135900780D01*
X65636846Y-135900780D02*
X65636846Y-136043637D01*
X65636846Y-136043637D02*
X65589227Y-136138875D01*
X65589227Y-136138875D02*
X65493989Y-136186494D01*
X65493989Y-136186494D02*
X64970179Y-136186494D01*
X65017799Y-137043637D02*
X64970179Y-136948399D01*
X64970179Y-136948399D02*
X64970179Y-136757923D01*
X64970179Y-136757923D02*
X65017799Y-136662685D01*
X65017799Y-136662685D02*
X65113037Y-136615066D01*
X65113037Y-136615066D02*
X65493989Y-136615066D01*
X65493989Y-136615066D02*
X65589227Y-136662685D01*
X65589227Y-136662685D02*
X65636846Y-136757923D01*
X65636846Y-136757923D02*
X65636846Y-136948399D01*
X65636846Y-136948399D02*
X65589227Y-137043637D01*
X65589227Y-137043637D02*
X65493989Y-137091256D01*
X65493989Y-137091256D02*
X65398751Y-137091256D01*
X65398751Y-137091256D02*
X65303513Y-136615066D01*
X64970179Y-137519828D02*
X65636846Y-137519828D01*
X65446370Y-137519828D02*
X65541608Y-137567447D01*
X65541608Y-137567447D02*
X65589227Y-137615066D01*
X65589227Y-137615066D02*
X65636846Y-137710304D01*
X65636846Y-137710304D02*
X65636846Y-137805542D01*
M02*
