G04 #@! TF.GenerationSoftware,KiCad,Pcbnew,7.0.7*
G04 #@! TF.CreationDate,2024-05-14T22:47:58+02:00*
G04 #@! TF.ProjectId,Pinky_V1,50696e6b-795f-4563-912e-6b696361645f,rev?*
G04 #@! TF.SameCoordinates,Original*
G04 #@! TF.FileFunction,Legend,Top*
G04 #@! TF.FilePolarity,Positive*
%FSLAX46Y46*%
G04 Gerber Fmt 4.6, Leading zero omitted, Abs format (unit mm)*
G04 Created by KiCad (PCBNEW 7.0.7) date 2024-05-14 22:47:58*
%MOMM*%
%LPD*%
G01*
G04 APERTURE LIST*
G04 Aperture macros list*
%AMRoundRect*
0 Rectangle with rounded corners*
0 $1 Rounding radius*
0 $2 $3 $4 $5 $6 $7 $8 $9 X,Y pos of 4 corners*
0 Add a 4 corners polygon primitive as box body*
4,1,4,$2,$3,$4,$5,$6,$7,$8,$9,$2,$3,0*
0 Add four circle primitives for the rounded corners*
1,1,$1+$1,$2,$3*
1,1,$1+$1,$4,$5*
1,1,$1+$1,$6,$7*
1,1,$1+$1,$8,$9*
0 Add four rect primitives between the rounded corners*
20,1,$1+$1,$2,$3,$4,$5,0*
20,1,$1+$1,$4,$5,$6,$7,0*
20,1,$1+$1,$6,$7,$8,$9,0*
20,1,$1+$1,$8,$9,$2,$3,0*%
G04 Aperture macros list end*
%ADD10C,0.100000*%
%ADD11C,0.075000*%
%ADD12C,0.150000*%
%ADD13C,0.152400*%
%ADD14R,0.558800X0.977900*%
%ADD15RoundRect,0.155000X0.155000X-0.212500X0.155000X0.212500X-0.155000X0.212500X-0.155000X-0.212500X0*%
%ADD16RoundRect,0.155000X-0.212500X-0.155000X0.212500X-0.155000X0.212500X0.155000X-0.212500X0.155000X0*%
%ADD17R,0.977900X0.558800*%
%ADD18R,4.000000X0.300000*%
G04 APERTURE END LIST*
D10*
X211075104Y-128504476D02*
X210427485Y-128504476D01*
X210427485Y-128504476D02*
X210351295Y-128542571D01*
X210351295Y-128542571D02*
X210313200Y-128580666D01*
X210313200Y-128580666D02*
X210275104Y-128656857D01*
X210275104Y-128656857D02*
X210275104Y-128809238D01*
X210275104Y-128809238D02*
X210313200Y-128885428D01*
X210313200Y-128885428D02*
X210351295Y-128923523D01*
X210351295Y-128923523D02*
X210427485Y-128961619D01*
X210427485Y-128961619D02*
X211075104Y-128961619D01*
X210808438Y-129685428D02*
X210275104Y-129685428D01*
X211113200Y-129494952D02*
X210541771Y-129304475D01*
X210541771Y-129304475D02*
X210541771Y-129799714D01*
D11*
X73118304Y-116070515D02*
X73189732Y-116094324D01*
X73189732Y-116094324D02*
X73308780Y-116094324D01*
X73308780Y-116094324D02*
X73356399Y-116070515D01*
X73356399Y-116070515D02*
X73380208Y-116046705D01*
X73380208Y-116046705D02*
X73404018Y-115999086D01*
X73404018Y-115999086D02*
X73404018Y-115951467D01*
X73404018Y-115951467D02*
X73380208Y-115903848D01*
X73380208Y-115903848D02*
X73356399Y-115880038D01*
X73356399Y-115880038D02*
X73308780Y-115856229D01*
X73308780Y-115856229D02*
X73213542Y-115832419D01*
X73213542Y-115832419D02*
X73165923Y-115808610D01*
X73165923Y-115808610D02*
X73142113Y-115784800D01*
X73142113Y-115784800D02*
X73118304Y-115737181D01*
X73118304Y-115737181D02*
X73118304Y-115689562D01*
X73118304Y-115689562D02*
X73142113Y-115641943D01*
X73142113Y-115641943D02*
X73165923Y-115618134D01*
X73165923Y-115618134D02*
X73213542Y-115594324D01*
X73213542Y-115594324D02*
X73332589Y-115594324D01*
X73332589Y-115594324D02*
X73404018Y-115618134D01*
X73618303Y-116094324D02*
X73618303Y-115594324D01*
X73618303Y-115594324D02*
X73737351Y-115594324D01*
X73737351Y-115594324D02*
X73808779Y-115618134D01*
X73808779Y-115618134D02*
X73856398Y-115665753D01*
X73856398Y-115665753D02*
X73880208Y-115713372D01*
X73880208Y-115713372D02*
X73904017Y-115808610D01*
X73904017Y-115808610D02*
X73904017Y-115880038D01*
X73904017Y-115880038D02*
X73880208Y-115975276D01*
X73880208Y-115975276D02*
X73856398Y-116022895D01*
X73856398Y-116022895D02*
X73808779Y-116070515D01*
X73808779Y-116070515D02*
X73737351Y-116094324D01*
X73737351Y-116094324D02*
X73618303Y-116094324D01*
X74094494Y-115951467D02*
X74332589Y-115951467D01*
X74046875Y-116094324D02*
X74213541Y-115594324D01*
X74213541Y-115594324D02*
X74380208Y-116094324D01*
X74642112Y-115594324D02*
X74689731Y-115594324D01*
X74689731Y-115594324D02*
X74737350Y-115618134D01*
X74737350Y-115618134D02*
X74761160Y-115641943D01*
X74761160Y-115641943D02*
X74784969Y-115689562D01*
X74784969Y-115689562D02*
X74808779Y-115784800D01*
X74808779Y-115784800D02*
X74808779Y-115903848D01*
X74808779Y-115903848D02*
X74784969Y-115999086D01*
X74784969Y-115999086D02*
X74761160Y-116046705D01*
X74761160Y-116046705D02*
X74737350Y-116070515D01*
X74737350Y-116070515D02*
X74689731Y-116094324D01*
X74689731Y-116094324D02*
X74642112Y-116094324D01*
X74642112Y-116094324D02*
X74594493Y-116070515D01*
X74594493Y-116070515D02*
X74570684Y-116046705D01*
X74570684Y-116046705D02*
X74546874Y-115999086D01*
X74546874Y-115999086D02*
X74523065Y-115903848D01*
X74523065Y-115903848D02*
X74523065Y-115784800D01*
X74523065Y-115784800D02*
X74546874Y-115689562D01*
X74546874Y-115689562D02*
X74570684Y-115641943D01*
X74570684Y-115641943D02*
X74594493Y-115618134D01*
X74594493Y-115618134D02*
X74642112Y-115594324D01*
X73118304Y-116875515D02*
X73189732Y-116899324D01*
X73189732Y-116899324D02*
X73308780Y-116899324D01*
X73308780Y-116899324D02*
X73356399Y-116875515D01*
X73356399Y-116875515D02*
X73380208Y-116851705D01*
X73380208Y-116851705D02*
X73404018Y-116804086D01*
X73404018Y-116804086D02*
X73404018Y-116756467D01*
X73404018Y-116756467D02*
X73380208Y-116708848D01*
X73380208Y-116708848D02*
X73356399Y-116685038D01*
X73356399Y-116685038D02*
X73308780Y-116661229D01*
X73308780Y-116661229D02*
X73213542Y-116637419D01*
X73213542Y-116637419D02*
X73165923Y-116613610D01*
X73165923Y-116613610D02*
X73142113Y-116589800D01*
X73142113Y-116589800D02*
X73118304Y-116542181D01*
X73118304Y-116542181D02*
X73118304Y-116494562D01*
X73118304Y-116494562D02*
X73142113Y-116446943D01*
X73142113Y-116446943D02*
X73165923Y-116423134D01*
X73165923Y-116423134D02*
X73213542Y-116399324D01*
X73213542Y-116399324D02*
X73332589Y-116399324D01*
X73332589Y-116399324D02*
X73404018Y-116423134D01*
X73904017Y-116851705D02*
X73880208Y-116875515D01*
X73880208Y-116875515D02*
X73808779Y-116899324D01*
X73808779Y-116899324D02*
X73761160Y-116899324D01*
X73761160Y-116899324D02*
X73689732Y-116875515D01*
X73689732Y-116875515D02*
X73642113Y-116827895D01*
X73642113Y-116827895D02*
X73618303Y-116780276D01*
X73618303Y-116780276D02*
X73594494Y-116685038D01*
X73594494Y-116685038D02*
X73594494Y-116613610D01*
X73594494Y-116613610D02*
X73618303Y-116518372D01*
X73618303Y-116518372D02*
X73642113Y-116470753D01*
X73642113Y-116470753D02*
X73689732Y-116423134D01*
X73689732Y-116423134D02*
X73761160Y-116399324D01*
X73761160Y-116399324D02*
X73808779Y-116399324D01*
X73808779Y-116399324D02*
X73880208Y-116423134D01*
X73880208Y-116423134D02*
X73904017Y-116446943D01*
X74356398Y-116899324D02*
X74118303Y-116899324D01*
X74118303Y-116899324D02*
X74118303Y-116399324D01*
X74618303Y-116399324D02*
X74665922Y-116399324D01*
X74665922Y-116399324D02*
X74713541Y-116423134D01*
X74713541Y-116423134D02*
X74737351Y-116446943D01*
X74737351Y-116446943D02*
X74761160Y-116494562D01*
X74761160Y-116494562D02*
X74784970Y-116589800D01*
X74784970Y-116589800D02*
X74784970Y-116708848D01*
X74784970Y-116708848D02*
X74761160Y-116804086D01*
X74761160Y-116804086D02*
X74737351Y-116851705D01*
X74737351Y-116851705D02*
X74713541Y-116875515D01*
X74713541Y-116875515D02*
X74665922Y-116899324D01*
X74665922Y-116899324D02*
X74618303Y-116899324D01*
X74618303Y-116899324D02*
X74570684Y-116875515D01*
X74570684Y-116875515D02*
X74546875Y-116851705D01*
X74546875Y-116851705D02*
X74523065Y-116804086D01*
X74523065Y-116804086D02*
X74499256Y-116708848D01*
X74499256Y-116708848D02*
X74499256Y-116589800D01*
X74499256Y-116589800D02*
X74523065Y-116494562D01*
X74523065Y-116494562D02*
X74546875Y-116446943D01*
X74546875Y-116446943D02*
X74570684Y-116423134D01*
X74570684Y-116423134D02*
X74618303Y-116399324D01*
X73094494Y-117204324D02*
X73404018Y-117204324D01*
X73404018Y-117204324D02*
X73237351Y-117394800D01*
X73237351Y-117394800D02*
X73308780Y-117394800D01*
X73308780Y-117394800D02*
X73356399Y-117418610D01*
X73356399Y-117418610D02*
X73380208Y-117442419D01*
X73380208Y-117442419D02*
X73404018Y-117490038D01*
X73404018Y-117490038D02*
X73404018Y-117609086D01*
X73404018Y-117609086D02*
X73380208Y-117656705D01*
X73380208Y-117656705D02*
X73356399Y-117680515D01*
X73356399Y-117680515D02*
X73308780Y-117704324D01*
X73308780Y-117704324D02*
X73165923Y-117704324D01*
X73165923Y-117704324D02*
X73118304Y-117680515D01*
X73118304Y-117680515D02*
X73094494Y-117656705D01*
X73618303Y-117656705D02*
X73642113Y-117680515D01*
X73642113Y-117680515D02*
X73618303Y-117704324D01*
X73618303Y-117704324D02*
X73594494Y-117680515D01*
X73594494Y-117680515D02*
X73618303Y-117656705D01*
X73618303Y-117656705D02*
X73618303Y-117704324D01*
X73808779Y-117204324D02*
X74118303Y-117204324D01*
X74118303Y-117204324D02*
X73951636Y-117394800D01*
X73951636Y-117394800D02*
X74023065Y-117394800D01*
X74023065Y-117394800D02*
X74070684Y-117418610D01*
X74070684Y-117418610D02*
X74094493Y-117442419D01*
X74094493Y-117442419D02*
X74118303Y-117490038D01*
X74118303Y-117490038D02*
X74118303Y-117609086D01*
X74118303Y-117609086D02*
X74094493Y-117656705D01*
X74094493Y-117656705D02*
X74070684Y-117680515D01*
X74070684Y-117680515D02*
X74023065Y-117704324D01*
X74023065Y-117704324D02*
X73880208Y-117704324D01*
X73880208Y-117704324D02*
X73832589Y-117680515D01*
X73832589Y-117680515D02*
X73808779Y-117656705D01*
X74261160Y-117204324D02*
X74427826Y-117704324D01*
X74427826Y-117704324D02*
X74594493Y-117204324D01*
X73404018Y-118033134D02*
X73356399Y-118009324D01*
X73356399Y-118009324D02*
X73284970Y-118009324D01*
X73284970Y-118009324D02*
X73213542Y-118033134D01*
X73213542Y-118033134D02*
X73165923Y-118080753D01*
X73165923Y-118080753D02*
X73142113Y-118128372D01*
X73142113Y-118128372D02*
X73118304Y-118223610D01*
X73118304Y-118223610D02*
X73118304Y-118295038D01*
X73118304Y-118295038D02*
X73142113Y-118390276D01*
X73142113Y-118390276D02*
X73165923Y-118437895D01*
X73165923Y-118437895D02*
X73213542Y-118485515D01*
X73213542Y-118485515D02*
X73284970Y-118509324D01*
X73284970Y-118509324D02*
X73332589Y-118509324D01*
X73332589Y-118509324D02*
X73404018Y-118485515D01*
X73404018Y-118485515D02*
X73427827Y-118461705D01*
X73427827Y-118461705D02*
X73427827Y-118295038D01*
X73427827Y-118295038D02*
X73332589Y-118295038D01*
X73642113Y-118509324D02*
X73642113Y-118009324D01*
X73642113Y-118009324D02*
X73927827Y-118509324D01*
X73927827Y-118509324D02*
X73927827Y-118009324D01*
X74165923Y-118509324D02*
X74165923Y-118009324D01*
X74165923Y-118009324D02*
X74284971Y-118009324D01*
X74284971Y-118009324D02*
X74356399Y-118033134D01*
X74356399Y-118033134D02*
X74404018Y-118080753D01*
X74404018Y-118080753D02*
X74427828Y-118128372D01*
X74427828Y-118128372D02*
X74451637Y-118223610D01*
X74451637Y-118223610D02*
X74451637Y-118295038D01*
X74451637Y-118295038D02*
X74427828Y-118390276D01*
X74427828Y-118390276D02*
X74404018Y-118437895D01*
X74404018Y-118437895D02*
X74356399Y-118485515D01*
X74356399Y-118485515D02*
X74284971Y-118509324D01*
X74284971Y-118509324D02*
X74165923Y-118509324D01*
X73142113Y-119314324D02*
X73142113Y-118814324D01*
X73142113Y-118814324D02*
X73427827Y-119314324D01*
X73427827Y-119314324D02*
X73427827Y-118814324D01*
X73951637Y-119266705D02*
X73927828Y-119290515D01*
X73927828Y-119290515D02*
X73856399Y-119314324D01*
X73856399Y-119314324D02*
X73808780Y-119314324D01*
X73808780Y-119314324D02*
X73737352Y-119290515D01*
X73737352Y-119290515D02*
X73689733Y-119242895D01*
X73689733Y-119242895D02*
X73665923Y-119195276D01*
X73665923Y-119195276D02*
X73642114Y-119100038D01*
X73642114Y-119100038D02*
X73642114Y-119028610D01*
X73642114Y-119028610D02*
X73665923Y-118933372D01*
X73665923Y-118933372D02*
X73689733Y-118885753D01*
X73689733Y-118885753D02*
X73737352Y-118838134D01*
X73737352Y-118838134D02*
X73808780Y-118814324D01*
X73808780Y-118814324D02*
X73856399Y-118814324D01*
X73856399Y-118814324D02*
X73927828Y-118838134D01*
X73927828Y-118838134D02*
X73951637Y-118861943D01*
X73118304Y-120095515D02*
X73189732Y-120119324D01*
X73189732Y-120119324D02*
X73308780Y-120119324D01*
X73308780Y-120119324D02*
X73356399Y-120095515D01*
X73356399Y-120095515D02*
X73380208Y-120071705D01*
X73380208Y-120071705D02*
X73404018Y-120024086D01*
X73404018Y-120024086D02*
X73404018Y-119976467D01*
X73404018Y-119976467D02*
X73380208Y-119928848D01*
X73380208Y-119928848D02*
X73356399Y-119905038D01*
X73356399Y-119905038D02*
X73308780Y-119881229D01*
X73308780Y-119881229D02*
X73213542Y-119857419D01*
X73213542Y-119857419D02*
X73165923Y-119833610D01*
X73165923Y-119833610D02*
X73142113Y-119809800D01*
X73142113Y-119809800D02*
X73118304Y-119762181D01*
X73118304Y-119762181D02*
X73118304Y-119714562D01*
X73118304Y-119714562D02*
X73142113Y-119666943D01*
X73142113Y-119666943D02*
X73165923Y-119643134D01*
X73165923Y-119643134D02*
X73213542Y-119619324D01*
X73213542Y-119619324D02*
X73332589Y-119619324D01*
X73332589Y-119619324D02*
X73404018Y-119643134D01*
X73618303Y-120119324D02*
X73618303Y-119619324D01*
X73618303Y-119619324D02*
X73737351Y-119619324D01*
X73737351Y-119619324D02*
X73808779Y-119643134D01*
X73808779Y-119643134D02*
X73856398Y-119690753D01*
X73856398Y-119690753D02*
X73880208Y-119738372D01*
X73880208Y-119738372D02*
X73904017Y-119833610D01*
X73904017Y-119833610D02*
X73904017Y-119905038D01*
X73904017Y-119905038D02*
X73880208Y-120000276D01*
X73880208Y-120000276D02*
X73856398Y-120047895D01*
X73856398Y-120047895D02*
X73808779Y-120095515D01*
X73808779Y-120095515D02*
X73737351Y-120119324D01*
X73737351Y-120119324D02*
X73618303Y-120119324D01*
X74094494Y-119976467D02*
X74332589Y-119976467D01*
X74046875Y-120119324D02*
X74213541Y-119619324D01*
X74213541Y-119619324D02*
X74380208Y-120119324D01*
X74808779Y-120119324D02*
X74523065Y-120119324D01*
X74665922Y-120119324D02*
X74665922Y-119619324D01*
X74665922Y-119619324D02*
X74618303Y-119690753D01*
X74618303Y-119690753D02*
X74570684Y-119738372D01*
X74570684Y-119738372D02*
X74523065Y-119762181D01*
X73118304Y-120900515D02*
X73189732Y-120924324D01*
X73189732Y-120924324D02*
X73308780Y-120924324D01*
X73308780Y-120924324D02*
X73356399Y-120900515D01*
X73356399Y-120900515D02*
X73380208Y-120876705D01*
X73380208Y-120876705D02*
X73404018Y-120829086D01*
X73404018Y-120829086D02*
X73404018Y-120781467D01*
X73404018Y-120781467D02*
X73380208Y-120733848D01*
X73380208Y-120733848D02*
X73356399Y-120710038D01*
X73356399Y-120710038D02*
X73308780Y-120686229D01*
X73308780Y-120686229D02*
X73213542Y-120662419D01*
X73213542Y-120662419D02*
X73165923Y-120638610D01*
X73165923Y-120638610D02*
X73142113Y-120614800D01*
X73142113Y-120614800D02*
X73118304Y-120567181D01*
X73118304Y-120567181D02*
X73118304Y-120519562D01*
X73118304Y-120519562D02*
X73142113Y-120471943D01*
X73142113Y-120471943D02*
X73165923Y-120448134D01*
X73165923Y-120448134D02*
X73213542Y-120424324D01*
X73213542Y-120424324D02*
X73332589Y-120424324D01*
X73332589Y-120424324D02*
X73404018Y-120448134D01*
X73904017Y-120876705D02*
X73880208Y-120900515D01*
X73880208Y-120900515D02*
X73808779Y-120924324D01*
X73808779Y-120924324D02*
X73761160Y-120924324D01*
X73761160Y-120924324D02*
X73689732Y-120900515D01*
X73689732Y-120900515D02*
X73642113Y-120852895D01*
X73642113Y-120852895D02*
X73618303Y-120805276D01*
X73618303Y-120805276D02*
X73594494Y-120710038D01*
X73594494Y-120710038D02*
X73594494Y-120638610D01*
X73594494Y-120638610D02*
X73618303Y-120543372D01*
X73618303Y-120543372D02*
X73642113Y-120495753D01*
X73642113Y-120495753D02*
X73689732Y-120448134D01*
X73689732Y-120448134D02*
X73761160Y-120424324D01*
X73761160Y-120424324D02*
X73808779Y-120424324D01*
X73808779Y-120424324D02*
X73880208Y-120448134D01*
X73880208Y-120448134D02*
X73904017Y-120471943D01*
X74356398Y-120924324D02*
X74118303Y-120924324D01*
X74118303Y-120924324D02*
X74118303Y-120424324D01*
X74784970Y-120924324D02*
X74499256Y-120924324D01*
X74642113Y-120924324D02*
X74642113Y-120424324D01*
X74642113Y-120424324D02*
X74594494Y-120495753D01*
X74594494Y-120495753D02*
X74546875Y-120543372D01*
X74546875Y-120543372D02*
X74499256Y-120567181D01*
D10*
X143965103Y-128554476D02*
X143317484Y-128554476D01*
X143317484Y-128554476D02*
X143241294Y-128592571D01*
X143241294Y-128592571D02*
X143203199Y-128630666D01*
X143203199Y-128630666D02*
X143165103Y-128706857D01*
X143165103Y-128706857D02*
X143165103Y-128859238D01*
X143165103Y-128859238D02*
X143203199Y-128935428D01*
X143203199Y-128935428D02*
X143241294Y-128973523D01*
X143241294Y-128973523D02*
X143317484Y-129011619D01*
X143317484Y-129011619D02*
X143965103Y-129011619D01*
X143965103Y-129773523D02*
X143965103Y-129392571D01*
X143965103Y-129392571D02*
X143584151Y-129354475D01*
X143584151Y-129354475D02*
X143622246Y-129392571D01*
X143622246Y-129392571D02*
X143660341Y-129468761D01*
X143660341Y-129468761D02*
X143660341Y-129659237D01*
X143660341Y-129659237D02*
X143622246Y-129735428D01*
X143622246Y-129735428D02*
X143584151Y-129773523D01*
X143584151Y-129773523D02*
X143507960Y-129811618D01*
X143507960Y-129811618D02*
X143317484Y-129811618D01*
X143317484Y-129811618D02*
X143241294Y-129773523D01*
X143241294Y-129773523D02*
X143203199Y-129735428D01*
X143203199Y-129735428D02*
X143165103Y-129659237D01*
X143165103Y-129659237D02*
X143165103Y-129468761D01*
X143165103Y-129468761D02*
X143203199Y-129392571D01*
X143203199Y-129392571D02*
X143241294Y-129354475D01*
D12*
X142864818Y-127898750D02*
X143102913Y-127898750D01*
X143007675Y-128136845D02*
X143102913Y-127898750D01*
X143102913Y-127898750D02*
X143007675Y-127660655D01*
X143293389Y-128041607D02*
X143102913Y-127898750D01*
X143102913Y-127898750D02*
X143293389Y-127755893D01*
X138273332Y-109593580D02*
X138225713Y-109641200D01*
X138225713Y-109641200D02*
X138082856Y-109688819D01*
X138082856Y-109688819D02*
X137987618Y-109688819D01*
X137987618Y-109688819D02*
X137844761Y-109641200D01*
X137844761Y-109641200D02*
X137749523Y-109545961D01*
X137749523Y-109545961D02*
X137701904Y-109450723D01*
X137701904Y-109450723D02*
X137654285Y-109260247D01*
X137654285Y-109260247D02*
X137654285Y-109117390D01*
X137654285Y-109117390D02*
X137701904Y-108926914D01*
X137701904Y-108926914D02*
X137749523Y-108831676D01*
X137749523Y-108831676D02*
X137844761Y-108736438D01*
X137844761Y-108736438D02*
X137987618Y-108688819D01*
X137987618Y-108688819D02*
X138082856Y-108688819D01*
X138082856Y-108688819D02*
X138225713Y-108736438D01*
X138225713Y-108736438D02*
X138273332Y-108784057D01*
X139225713Y-109688819D02*
X138654285Y-109688819D01*
X138939999Y-109688819D02*
X138939999Y-108688819D01*
X138939999Y-108688819D02*
X138844761Y-108831676D01*
X138844761Y-108831676D02*
X138749523Y-108926914D01*
X138749523Y-108926914D02*
X138654285Y-108974533D01*
D10*
X215263333Y-116315966D02*
X215230000Y-116349300D01*
X215230000Y-116349300D02*
X215130000Y-116382633D01*
X215130000Y-116382633D02*
X215063333Y-116382633D01*
X215063333Y-116382633D02*
X214963333Y-116349300D01*
X214963333Y-116349300D02*
X214896667Y-116282633D01*
X214896667Y-116282633D02*
X214863333Y-116215966D01*
X214863333Y-116215966D02*
X214830000Y-116082633D01*
X214830000Y-116082633D02*
X214830000Y-115982633D01*
X214830000Y-115982633D02*
X214863333Y-115849300D01*
X214863333Y-115849300D02*
X214896667Y-115782633D01*
X214896667Y-115782633D02*
X214963333Y-115715966D01*
X214963333Y-115715966D02*
X215063333Y-115682633D01*
X215063333Y-115682633D02*
X215130000Y-115682633D01*
X215130000Y-115682633D02*
X215230000Y-115715966D01*
X215230000Y-115715966D02*
X215263333Y-115749300D01*
X215863333Y-115915966D02*
X215863333Y-116382633D01*
X215696667Y-115649300D02*
X215530000Y-116149300D01*
X215530000Y-116149300D02*
X215963333Y-116149300D01*
X215859523Y-120809104D02*
X215859523Y-120161485D01*
X215859523Y-120161485D02*
X215821428Y-120085295D01*
X215821428Y-120085295D02*
X215783333Y-120047200D01*
X215783333Y-120047200D02*
X215707142Y-120009104D01*
X215707142Y-120009104D02*
X215554761Y-120009104D01*
X215554761Y-120009104D02*
X215478571Y-120047200D01*
X215478571Y-120047200D02*
X215440476Y-120085295D01*
X215440476Y-120085295D02*
X215402380Y-120161485D01*
X215402380Y-120161485D02*
X215402380Y-120809104D01*
X215097619Y-120809104D02*
X214602381Y-120809104D01*
X214602381Y-120809104D02*
X214869047Y-120504342D01*
X214869047Y-120504342D02*
X214754762Y-120504342D01*
X214754762Y-120504342D02*
X214678571Y-120466247D01*
X214678571Y-120466247D02*
X214640476Y-120428152D01*
X214640476Y-120428152D02*
X214602381Y-120351961D01*
X214602381Y-120351961D02*
X214602381Y-120161485D01*
X214602381Y-120161485D02*
X214640476Y-120085295D01*
X214640476Y-120085295D02*
X214678571Y-120047200D01*
X214678571Y-120047200D02*
X214754762Y-120009104D01*
X214754762Y-120009104D02*
X214983333Y-120009104D01*
X214983333Y-120009104D02*
X215059524Y-120047200D01*
X215059524Y-120047200D02*
X215097619Y-120085295D01*
D12*
X218545249Y-120148819D02*
X218545249Y-120386914D01*
X218307154Y-120291676D02*
X218545249Y-120386914D01*
X218545249Y-120386914D02*
X218783344Y-120291676D01*
X218402392Y-120577390D02*
X218545249Y-120386914D01*
X218545249Y-120386914D02*
X218688106Y-120577390D01*
X138043332Y-127843580D02*
X137995713Y-127891200D01*
X137995713Y-127891200D02*
X137852856Y-127938819D01*
X137852856Y-127938819D02*
X137757618Y-127938819D01*
X137757618Y-127938819D02*
X137614761Y-127891200D01*
X137614761Y-127891200D02*
X137519523Y-127795961D01*
X137519523Y-127795961D02*
X137471904Y-127700723D01*
X137471904Y-127700723D02*
X137424285Y-127510247D01*
X137424285Y-127510247D02*
X137424285Y-127367390D01*
X137424285Y-127367390D02*
X137471904Y-127176914D01*
X137471904Y-127176914D02*
X137519523Y-127081676D01*
X137519523Y-127081676D02*
X137614761Y-126986438D01*
X137614761Y-126986438D02*
X137757618Y-126938819D01*
X137757618Y-126938819D02*
X137852856Y-126938819D01*
X137852856Y-126938819D02*
X137995713Y-126986438D01*
X137995713Y-126986438D02*
X138043332Y-127034057D01*
X138424285Y-127034057D02*
X138471904Y-126986438D01*
X138471904Y-126986438D02*
X138567142Y-126938819D01*
X138567142Y-126938819D02*
X138805237Y-126938819D01*
X138805237Y-126938819D02*
X138900475Y-126986438D01*
X138900475Y-126986438D02*
X138948094Y-127034057D01*
X138948094Y-127034057D02*
X138995713Y-127129295D01*
X138995713Y-127129295D02*
X138995713Y-127224533D01*
X138995713Y-127224533D02*
X138948094Y-127367390D01*
X138948094Y-127367390D02*
X138376666Y-127938819D01*
X138376666Y-127938819D02*
X138995713Y-127938819D01*
X210204819Y-127898749D02*
X210442914Y-127898749D01*
X210347676Y-128136844D02*
X210442914Y-127898749D01*
X210442914Y-127898749D02*
X210347676Y-127660654D01*
X210633390Y-128041606D02*
X210442914Y-127898749D01*
X210442914Y-127898749D02*
X210633390Y-127755892D01*
D10*
X71522580Y-117502095D02*
X70713057Y-117502095D01*
X70713057Y-117502095D02*
X70617819Y-117549714D01*
X70617819Y-117549714D02*
X70570200Y-117597333D01*
X70570200Y-117597333D02*
X70522580Y-117692571D01*
X70522580Y-117692571D02*
X70522580Y-117883047D01*
X70522580Y-117883047D02*
X70570200Y-117978285D01*
X70570200Y-117978285D02*
X70617819Y-118025904D01*
X70617819Y-118025904D02*
X70713057Y-118073523D01*
X70713057Y-118073523D02*
X71522580Y-118073523D01*
X71094009Y-118692571D02*
X71141628Y-118597333D01*
X71141628Y-118597333D02*
X71189247Y-118549714D01*
X71189247Y-118549714D02*
X71284485Y-118502095D01*
X71284485Y-118502095D02*
X71332104Y-118502095D01*
X71332104Y-118502095D02*
X71427342Y-118549714D01*
X71427342Y-118549714D02*
X71474961Y-118597333D01*
X71474961Y-118597333D02*
X71522580Y-118692571D01*
X71522580Y-118692571D02*
X71522580Y-118883047D01*
X71522580Y-118883047D02*
X71474961Y-118978285D01*
X71474961Y-118978285D02*
X71427342Y-119025904D01*
X71427342Y-119025904D02*
X71332104Y-119073523D01*
X71332104Y-119073523D02*
X71284485Y-119073523D01*
X71284485Y-119073523D02*
X71189247Y-119025904D01*
X71189247Y-119025904D02*
X71141628Y-118978285D01*
X71141628Y-118978285D02*
X71094009Y-118883047D01*
X71094009Y-118883047D02*
X71094009Y-118692571D01*
X71094009Y-118692571D02*
X71046390Y-118597333D01*
X71046390Y-118597333D02*
X70998771Y-118549714D01*
X70998771Y-118549714D02*
X70903533Y-118502095D01*
X70903533Y-118502095D02*
X70713057Y-118502095D01*
X70713057Y-118502095D02*
X70617819Y-118549714D01*
X70617819Y-118549714D02*
X70570200Y-118597333D01*
X70570200Y-118597333D02*
X70522580Y-118692571D01*
X70522580Y-118692571D02*
X70522580Y-118883047D01*
X70522580Y-118883047D02*
X70570200Y-118978285D01*
X70570200Y-118978285D02*
X70617819Y-119025904D01*
X70617819Y-119025904D02*
X70713057Y-119073523D01*
X70713057Y-119073523D02*
X70903533Y-119073523D01*
X70903533Y-119073523D02*
X70998771Y-119025904D01*
X70998771Y-119025904D02*
X71046390Y-118978285D01*
X71046390Y-118978285D02*
X71094009Y-118883047D01*
D12*
X70154819Y-116743999D02*
X70392914Y-116743999D01*
X70297676Y-116982094D02*
X70392914Y-116743999D01*
X70392914Y-116743999D02*
X70297676Y-116505904D01*
X70583390Y-116886856D02*
X70392914Y-116743999D01*
X70392914Y-116743999D02*
X70583390Y-116601142D01*
D10*
X205913334Y-109175966D02*
X205880001Y-109209300D01*
X205880001Y-109209300D02*
X205780001Y-109242633D01*
X205780001Y-109242633D02*
X205713334Y-109242633D01*
X205713334Y-109242633D02*
X205613334Y-109209300D01*
X205613334Y-109209300D02*
X205546668Y-109142633D01*
X205546668Y-109142633D02*
X205513334Y-109075966D01*
X205513334Y-109075966D02*
X205480001Y-108942633D01*
X205480001Y-108942633D02*
X205480001Y-108842633D01*
X205480001Y-108842633D02*
X205513334Y-108709300D01*
X205513334Y-108709300D02*
X205546668Y-108642633D01*
X205546668Y-108642633D02*
X205613334Y-108575966D01*
X205613334Y-108575966D02*
X205713334Y-108542633D01*
X205713334Y-108542633D02*
X205780001Y-108542633D01*
X205780001Y-108542633D02*
X205880001Y-108575966D01*
X205880001Y-108575966D02*
X205913334Y-108609300D01*
X206146668Y-108542633D02*
X206580001Y-108542633D01*
X206580001Y-108542633D02*
X206346668Y-108809300D01*
X206346668Y-108809300D02*
X206446668Y-108809300D01*
X206446668Y-108809300D02*
X206513334Y-108842633D01*
X206513334Y-108842633D02*
X206546668Y-108875966D01*
X206546668Y-108875966D02*
X206580001Y-108942633D01*
X206580001Y-108942633D02*
X206580001Y-109109300D01*
X206580001Y-109109300D02*
X206546668Y-109175966D01*
X206546668Y-109175966D02*
X206513334Y-109209300D01*
X206513334Y-109209300D02*
X206446668Y-109242633D01*
X206446668Y-109242633D02*
X206246668Y-109242633D01*
X206246668Y-109242633D02*
X206180001Y-109209300D01*
X206180001Y-109209300D02*
X206146668Y-109175966D01*
D12*
X144325179Y-106502095D02*
X143515656Y-106502095D01*
X143515656Y-106502095D02*
X143420418Y-106549714D01*
X143420418Y-106549714D02*
X143372799Y-106597333D01*
X143372799Y-106597333D02*
X143325179Y-106692571D01*
X143325179Y-106692571D02*
X143325179Y-106883047D01*
X143325179Y-106883047D02*
X143372799Y-106978285D01*
X143372799Y-106978285D02*
X143420418Y-107025904D01*
X143420418Y-107025904D02*
X143515656Y-107073523D01*
X143515656Y-107073523D02*
X144325179Y-107073523D01*
X143325179Y-108073523D02*
X143325179Y-107502095D01*
X143325179Y-107787809D02*
X144325179Y-107787809D01*
X144325179Y-107787809D02*
X144182322Y-107692571D01*
X144182322Y-107692571D02*
X144087084Y-107597333D01*
X144087084Y-107597333D02*
X144039465Y-107502095D01*
X143164819Y-105613999D02*
X143402914Y-105613999D01*
X143307676Y-105852094D02*
X143402914Y-105613999D01*
X143402914Y-105613999D02*
X143307676Y-105375904D01*
X143593390Y-105756856D02*
X143402914Y-105613999D01*
X143402914Y-105613999D02*
X143593390Y-105471142D01*
D10*
X211105105Y-106664476D02*
X210457486Y-106664476D01*
X210457486Y-106664476D02*
X210381296Y-106702571D01*
X210381296Y-106702571D02*
X210343201Y-106740666D01*
X210343201Y-106740666D02*
X210305105Y-106816857D01*
X210305105Y-106816857D02*
X210305105Y-106969238D01*
X210305105Y-106969238D02*
X210343201Y-107045428D01*
X210343201Y-107045428D02*
X210381296Y-107083523D01*
X210381296Y-107083523D02*
X210457486Y-107121619D01*
X210457486Y-107121619D02*
X211105105Y-107121619D01*
X211028915Y-107464475D02*
X211067010Y-107502571D01*
X211067010Y-107502571D02*
X211105105Y-107578761D01*
X211105105Y-107578761D02*
X211105105Y-107769237D01*
X211105105Y-107769237D02*
X211067010Y-107845428D01*
X211067010Y-107845428D02*
X211028915Y-107883523D01*
X211028915Y-107883523D02*
X210952724Y-107921618D01*
X210952724Y-107921618D02*
X210876534Y-107921618D01*
X210876534Y-107921618D02*
X210762248Y-107883523D01*
X210762248Y-107883523D02*
X210305105Y-107426380D01*
X210305105Y-107426380D02*
X210305105Y-107921618D01*
D12*
X210154820Y-105853999D02*
X210392915Y-105853999D01*
X210297677Y-106092094D02*
X210392915Y-105853999D01*
X210392915Y-105853999D02*
X210297677Y-105615904D01*
X210583391Y-105996856D02*
X210392915Y-105853999D01*
X210392915Y-105853999D02*
X210583391Y-105711142D01*
D10*
X206218705Y-127247332D02*
X206256801Y-127285428D01*
X206256801Y-127285428D02*
X206294896Y-127399713D01*
X206294896Y-127399713D02*
X206294896Y-127475904D01*
X206294896Y-127475904D02*
X206256801Y-127590190D01*
X206256801Y-127590190D02*
X206180610Y-127666380D01*
X206180610Y-127666380D02*
X206104420Y-127704475D01*
X206104420Y-127704475D02*
X205952039Y-127742571D01*
X205952039Y-127742571D02*
X205837753Y-127742571D01*
X205837753Y-127742571D02*
X205685372Y-127704475D01*
X205685372Y-127704475D02*
X205609181Y-127666380D01*
X205609181Y-127666380D02*
X205532991Y-127590190D01*
X205532991Y-127590190D02*
X205494896Y-127475904D01*
X205494896Y-127475904D02*
X205494896Y-127399713D01*
X205494896Y-127399713D02*
X205532991Y-127285428D01*
X205532991Y-127285428D02*
X205571086Y-127247332D01*
X205494896Y-126523523D02*
X205494896Y-126904475D01*
X205494896Y-126904475D02*
X205875848Y-126942571D01*
X205875848Y-126942571D02*
X205837753Y-126904475D01*
X205837753Y-126904475D02*
X205799658Y-126828285D01*
X205799658Y-126828285D02*
X205799658Y-126637809D01*
X205799658Y-126637809D02*
X205837753Y-126561618D01*
X205837753Y-126561618D02*
X205875848Y-126523523D01*
X205875848Y-126523523D02*
X205952039Y-126485428D01*
X205952039Y-126485428D02*
X206142515Y-126485428D01*
X206142515Y-126485428D02*
X206218705Y-126523523D01*
X206218705Y-126523523D02*
X206256801Y-126561618D01*
X206256801Y-126561618D02*
X206294896Y-126637809D01*
X206294896Y-126637809D02*
X206294896Y-126828285D01*
X206294896Y-126828285D02*
X206256801Y-126904475D01*
X206256801Y-126904475D02*
X206218705Y-126942571D01*
D13*
X139428999Y-128260700D02*
X139428999Y-130267300D01*
X142730999Y-130267300D02*
X142730999Y-128260700D01*
X218183300Y-116713000D02*
X216176700Y-116713000D01*
X216176700Y-120015000D02*
X218183300Y-120015000D01*
X206629000Y-128260700D02*
X206629000Y-130267300D01*
X209931000Y-130267300D02*
X209931000Y-128260700D01*
X139428999Y-106260700D02*
X139428999Y-108267300D01*
X142730999Y-108267300D02*
X142730999Y-106260700D01*
X206629000Y-106260700D02*
X206629000Y-108267300D01*
X209931000Y-108267300D02*
X209931000Y-106260700D01*
%LPC*%
D14*
X142030000Y-127898750D03*
X141079999Y-127898750D03*
X140129998Y-127898750D03*
X140129998Y-130629250D03*
X141079999Y-130629250D03*
X142030000Y-130629250D03*
D15*
X138129999Y-107831500D03*
X138129999Y-106696500D03*
D16*
X216612500Y-116004000D03*
X217747500Y-116004000D03*
D17*
X218545250Y-119314001D03*
X218545250Y-118364000D03*
X218545250Y-117413999D03*
X215814750Y-117413999D03*
X215814750Y-118364000D03*
X215814750Y-119314001D03*
D15*
X138129999Y-129831500D03*
X138129999Y-128696500D03*
D14*
X209230001Y-127898750D03*
X208280000Y-127898750D03*
X207329999Y-127898750D03*
X207329999Y-130629250D03*
X208280000Y-130629250D03*
X209230001Y-130629250D03*
D18*
X64430000Y-116764000D03*
X64430000Y-117264000D03*
X64430000Y-117764000D03*
X64430000Y-118264000D03*
X64430000Y-118764000D03*
X64430000Y-119264000D03*
X64430000Y-119764000D03*
D15*
X205884999Y-107781500D03*
X205884999Y-106646500D03*
D14*
X142030000Y-105898750D03*
X141079999Y-105898750D03*
X140129998Y-105898750D03*
X140129998Y-108629250D03*
X141079999Y-108629250D03*
X142030000Y-108629250D03*
X209230001Y-105898750D03*
X208280000Y-105898750D03*
X207329999Y-105898750D03*
X207329999Y-108629250D03*
X208280000Y-108629250D03*
X209230001Y-108629250D03*
D15*
X205930001Y-129781500D03*
X205930001Y-128646500D03*
%LPD*%
M02*
