%TF.GenerationSoftware,KiCad,Pcbnew,7.0.7*%
%TF.CreationDate,2024-12-02T13:55:25+01:00*%
%TF.ProjectId,Finger_FSR_V1_height,46696e67-6572-45f4-9653-525f56315f68,rev?*%
%TF.SameCoordinates,Original*%
%TF.FileFunction,Drillmap*%
%TF.FilePolarity,Positive*%
%FSLAX45Y45*%
G04 Gerber Fmt 4.5, Leading zero omitted, Abs format (unit mm)*
G04 Created by KiCad (PCBNEW 7.0.7) date 2024-12-02 13:55:25*
%MOMM*%
%LPD*%
G01*
G04 APERTURE LIST*
%ADD10C,0.200000*%
%ADD11C,0.040000*%
%ADD12C,0.220000*%
G04 APERTURE END LIST*
D10*
X13115000Y-13765000D02*
G75*
G03*
X12965000Y-13615000I-150000J0D01*
G01*
X12065000Y-8115000D02*
G75*
G03*
X11915000Y-8265000I0J-150000D01*
G01*
X10265000Y-13615000D02*
G75*
G03*
X10115000Y-13765000I0J-150000D01*
G01*
X10115000Y-14965000D02*
G75*
G03*
X10265000Y-15115000I150000J0D01*
G01*
X10265000Y-15115000D02*
X12965000Y-15115000D01*
X13115000Y-14965000D02*
X13115000Y-13765000D01*
X11165000Y-13615000D02*
G75*
G03*
X11315000Y-13465000I0J150000D01*
G01*
X15645000Y-7035000D02*
G75*
G03*
X15495000Y-6885000I-150000J0D01*
G01*
X11165000Y-13615000D02*
X10265000Y-13615000D01*
X11315000Y-7035000D02*
X11315000Y-13465000D01*
X10115000Y-13765000D02*
X10115000Y-14965000D01*
X11465000Y-6885000D02*
G75*
G03*
X11315000Y-7035000I0J-150000D01*
G01*
X15645000Y-7965000D02*
X15645000Y-7035000D01*
X15495000Y-8115000D02*
G75*
G03*
X15645000Y-7965000I0J150000D01*
G01*
X12065000Y-8115000D02*
X15495000Y-8115000D01*
X12965000Y-13615000D02*
X12065000Y-13615000D01*
X11915000Y-13465000D02*
X11915000Y-8265000D01*
X15495000Y-6885000D02*
X11465000Y-6885000D01*
X12965000Y-15115000D02*
G75*
G03*
X13115000Y-14965000I0J150000D01*
G01*
X11915000Y-13465000D02*
G75*
G03*
X12065000Y-13615000I150000J0D01*
G01*
D11*
X10290833Y-13974000D02*
X10330833Y-14014000D01*
X10330833Y-13974000D02*
X10290833Y-14014000D01*
X10551667Y-13974000D02*
X10591667Y-14014000D01*
X10591667Y-13974000D02*
X10551667Y-14014000D01*
X10812500Y-13974000D02*
X10852500Y-14014000D01*
X10852500Y-13974000D02*
X10812500Y-14014000D01*
X11073333Y-13974000D02*
X11113333Y-14014000D01*
X11113333Y-13974000D02*
X11073333Y-14014000D01*
X11334166Y-13974000D02*
X11374166Y-14014000D01*
X11374166Y-13974000D02*
X11334166Y-14014000D01*
X11595000Y-13974000D02*
X11635000Y-14014000D01*
X11635000Y-13974000D02*
X11595000Y-14014000D01*
X12223000Y-7103500D02*
X12263000Y-7143500D01*
X12263000Y-7103500D02*
X12223000Y-7143500D01*
X12223000Y-7262000D02*
X12263000Y-7302000D01*
X12263000Y-7262000D02*
X12223000Y-7302000D01*
X12223000Y-7409000D02*
X12263000Y-7449000D01*
X12263000Y-7409000D02*
X12223000Y-7449000D01*
X12223000Y-7624000D02*
X12263000Y-7664000D01*
X12263000Y-7624000D02*
X12223000Y-7664000D01*
X12305000Y-7720000D02*
X12345000Y-7760000D01*
X12345000Y-7720000D02*
X12305000Y-7760000D01*
X12460000Y-6970000D02*
X12500000Y-7010000D01*
X12500000Y-6970000D02*
X12460000Y-7010000D01*
X12660000Y-6970000D02*
X12700000Y-7010000D01*
X12700000Y-6970000D02*
X12660000Y-7010000D01*
X12860000Y-6970000D02*
X12900000Y-7010000D01*
X12900000Y-6970000D02*
X12860000Y-7010000D01*
X13060000Y-6970000D02*
X13100000Y-7010000D01*
X13100000Y-6970000D02*
X13060000Y-7010000D01*
X13260000Y-6970000D02*
X13300000Y-7010000D01*
X13300000Y-6970000D02*
X13260000Y-7010000D01*
X13460000Y-6970000D02*
X13500000Y-7010000D01*
X13500000Y-6970000D02*
X13460000Y-7010000D01*
X13660000Y-6970000D02*
X13700000Y-7010000D01*
X13700000Y-6970000D02*
X13660000Y-7010000D01*
X13860000Y-6970000D02*
X13900000Y-7010000D01*
X13900000Y-6970000D02*
X13860000Y-7010000D01*
X14060000Y-6970000D02*
X14100000Y-7010000D01*
X14100000Y-6970000D02*
X14060000Y-7010000D01*
X14260000Y-6970000D02*
X14300000Y-7010000D01*
X14300000Y-6970000D02*
X14260000Y-7010000D01*
X14460000Y-6970000D02*
X14500000Y-7010000D01*
X14500000Y-6970000D02*
X14460000Y-7010000D01*
D12*
X11725000Y-7365000D02*
G75*
G03*
X11725000Y-7365000I-110000J0D01*
G01*
X11725000Y-7865000D02*
G75*
G03*
X11725000Y-7865000I-110000J0D01*
G01*
X15455000Y-7365000D02*
G75*
G03*
X15455000Y-7365000I-110000J0D01*
G01*
X15455000Y-7865000D02*
G75*
G03*
X15455000Y-7865000I-110000J0D01*
G01*
D10*
X10365777Y-15436484D02*
X10365777Y-15236484D01*
X10365777Y-15236484D02*
X10413396Y-15236484D01*
X10413396Y-15236484D02*
X10441967Y-15246008D01*
X10441967Y-15246008D02*
X10461015Y-15265055D01*
X10461015Y-15265055D02*
X10470539Y-15284103D01*
X10470539Y-15284103D02*
X10480063Y-15322198D01*
X10480063Y-15322198D02*
X10480063Y-15350769D01*
X10480063Y-15350769D02*
X10470539Y-15388865D01*
X10470539Y-15388865D02*
X10461015Y-15407912D01*
X10461015Y-15407912D02*
X10441967Y-15426960D01*
X10441967Y-15426960D02*
X10413396Y-15436484D01*
X10413396Y-15436484D02*
X10365777Y-15436484D01*
X10565777Y-15436484D02*
X10565777Y-15303150D01*
X10565777Y-15341246D02*
X10575301Y-15322198D01*
X10575301Y-15322198D02*
X10584824Y-15312674D01*
X10584824Y-15312674D02*
X10603872Y-15303150D01*
X10603872Y-15303150D02*
X10622920Y-15303150D01*
X10689586Y-15436484D02*
X10689586Y-15303150D01*
X10689586Y-15236484D02*
X10680063Y-15246008D01*
X10680063Y-15246008D02*
X10689586Y-15255531D01*
X10689586Y-15255531D02*
X10699110Y-15246008D01*
X10699110Y-15246008D02*
X10689586Y-15236484D01*
X10689586Y-15236484D02*
X10689586Y-15255531D01*
X10813396Y-15436484D02*
X10794348Y-15426960D01*
X10794348Y-15426960D02*
X10784824Y-15407912D01*
X10784824Y-15407912D02*
X10784824Y-15236484D01*
X10918158Y-15436484D02*
X10899110Y-15426960D01*
X10899110Y-15426960D02*
X10889586Y-15407912D01*
X10889586Y-15407912D02*
X10889586Y-15236484D01*
X11146729Y-15436484D02*
X11146729Y-15236484D01*
X11146729Y-15236484D02*
X11213396Y-15379341D01*
X11213396Y-15379341D02*
X11280062Y-15236484D01*
X11280062Y-15236484D02*
X11280062Y-15436484D01*
X11461015Y-15436484D02*
X11461015Y-15331722D01*
X11461015Y-15331722D02*
X11451491Y-15312674D01*
X11451491Y-15312674D02*
X11432443Y-15303150D01*
X11432443Y-15303150D02*
X11394348Y-15303150D01*
X11394348Y-15303150D02*
X11375301Y-15312674D01*
X11461015Y-15426960D02*
X11441967Y-15436484D01*
X11441967Y-15436484D02*
X11394348Y-15436484D01*
X11394348Y-15436484D02*
X11375301Y-15426960D01*
X11375301Y-15426960D02*
X11365777Y-15407912D01*
X11365777Y-15407912D02*
X11365777Y-15388865D01*
X11365777Y-15388865D02*
X11375301Y-15369817D01*
X11375301Y-15369817D02*
X11394348Y-15360293D01*
X11394348Y-15360293D02*
X11441967Y-15360293D01*
X11441967Y-15360293D02*
X11461015Y-15350769D01*
X11556253Y-15303150D02*
X11556253Y-15503150D01*
X11556253Y-15312674D02*
X11575301Y-15303150D01*
X11575301Y-15303150D02*
X11613396Y-15303150D01*
X11613396Y-15303150D02*
X11632443Y-15312674D01*
X11632443Y-15312674D02*
X11641967Y-15322198D01*
X11641967Y-15322198D02*
X11651491Y-15341246D01*
X11651491Y-15341246D02*
X11651491Y-15398388D01*
X11651491Y-15398388D02*
X11641967Y-15417436D01*
X11641967Y-15417436D02*
X11632443Y-15426960D01*
X11632443Y-15426960D02*
X11613396Y-15436484D01*
X11613396Y-15436484D02*
X11575301Y-15436484D01*
X11575301Y-15436484D02*
X11556253Y-15426960D01*
X11737205Y-15417436D02*
X11746729Y-15426960D01*
X11746729Y-15426960D02*
X11737205Y-15436484D01*
X11737205Y-15436484D02*
X11727682Y-15426960D01*
X11727682Y-15426960D02*
X11737205Y-15417436D01*
X11737205Y-15417436D02*
X11737205Y-15436484D01*
X11737205Y-15312674D02*
X11746729Y-15322198D01*
X11746729Y-15322198D02*
X11737205Y-15331722D01*
X11737205Y-15331722D02*
X11727682Y-15322198D01*
X11727682Y-15322198D02*
X11737205Y-15312674D01*
X11737205Y-15312674D02*
X11737205Y-15331722D01*
D11*
X10065000Y-15745000D02*
X10105000Y-15785000D01*
X10105000Y-15745000D02*
X10065000Y-15785000D01*
D10*
X10403872Y-15656484D02*
X10422920Y-15656484D01*
X10422920Y-15656484D02*
X10441967Y-15666008D01*
X10441967Y-15666008D02*
X10451491Y-15675531D01*
X10451491Y-15675531D02*
X10461015Y-15694579D01*
X10461015Y-15694579D02*
X10470539Y-15732674D01*
X10470539Y-15732674D02*
X10470539Y-15780293D01*
X10470539Y-15780293D02*
X10461015Y-15818388D01*
X10461015Y-15818388D02*
X10451491Y-15837436D01*
X10451491Y-15837436D02*
X10441967Y-15846960D01*
X10441967Y-15846960D02*
X10422920Y-15856484D01*
X10422920Y-15856484D02*
X10403872Y-15856484D01*
X10403872Y-15856484D02*
X10384824Y-15846960D01*
X10384824Y-15846960D02*
X10375301Y-15837436D01*
X10375301Y-15837436D02*
X10365777Y-15818388D01*
X10365777Y-15818388D02*
X10356253Y-15780293D01*
X10356253Y-15780293D02*
X10356253Y-15732674D01*
X10356253Y-15732674D02*
X10365777Y-15694579D01*
X10365777Y-15694579D02*
X10375301Y-15675531D01*
X10375301Y-15675531D02*
X10384824Y-15666008D01*
X10384824Y-15666008D02*
X10403872Y-15656484D01*
X10556253Y-15837436D02*
X10565777Y-15846960D01*
X10565777Y-15846960D02*
X10556253Y-15856484D01*
X10556253Y-15856484D02*
X10546729Y-15846960D01*
X10546729Y-15846960D02*
X10556253Y-15837436D01*
X10556253Y-15837436D02*
X10556253Y-15856484D01*
X10737205Y-15723150D02*
X10737205Y-15856484D01*
X10689586Y-15646960D02*
X10641967Y-15789817D01*
X10641967Y-15789817D02*
X10765777Y-15789817D01*
X10880063Y-15656484D02*
X10899110Y-15656484D01*
X10899110Y-15656484D02*
X10918158Y-15666008D01*
X10918158Y-15666008D02*
X10927682Y-15675531D01*
X10927682Y-15675531D02*
X10937205Y-15694579D01*
X10937205Y-15694579D02*
X10946729Y-15732674D01*
X10946729Y-15732674D02*
X10946729Y-15780293D01*
X10946729Y-15780293D02*
X10937205Y-15818388D01*
X10937205Y-15818388D02*
X10927682Y-15837436D01*
X10927682Y-15837436D02*
X10918158Y-15846960D01*
X10918158Y-15846960D02*
X10899110Y-15856484D01*
X10899110Y-15856484D02*
X10880063Y-15856484D01*
X10880063Y-15856484D02*
X10861015Y-15846960D01*
X10861015Y-15846960D02*
X10851491Y-15837436D01*
X10851491Y-15837436D02*
X10841967Y-15818388D01*
X10841967Y-15818388D02*
X10832444Y-15780293D01*
X10832444Y-15780293D02*
X10832444Y-15732674D01*
X10832444Y-15732674D02*
X10841967Y-15694579D01*
X10841967Y-15694579D02*
X10851491Y-15675531D01*
X10851491Y-15675531D02*
X10861015Y-15666008D01*
X10861015Y-15666008D02*
X10880063Y-15656484D01*
X11070539Y-15656484D02*
X11089586Y-15656484D01*
X11089586Y-15656484D02*
X11108634Y-15666008D01*
X11108634Y-15666008D02*
X11118158Y-15675531D01*
X11118158Y-15675531D02*
X11127682Y-15694579D01*
X11127682Y-15694579D02*
X11137205Y-15732674D01*
X11137205Y-15732674D02*
X11137205Y-15780293D01*
X11137205Y-15780293D02*
X11127682Y-15818388D01*
X11127682Y-15818388D02*
X11118158Y-15837436D01*
X11118158Y-15837436D02*
X11108634Y-15846960D01*
X11108634Y-15846960D02*
X11089586Y-15856484D01*
X11089586Y-15856484D02*
X11070539Y-15856484D01*
X11070539Y-15856484D02*
X11051491Y-15846960D01*
X11051491Y-15846960D02*
X11041967Y-15837436D01*
X11041967Y-15837436D02*
X11032444Y-15818388D01*
X11032444Y-15818388D02*
X11022920Y-15780293D01*
X11022920Y-15780293D02*
X11022920Y-15732674D01*
X11022920Y-15732674D02*
X11032444Y-15694579D01*
X11032444Y-15694579D02*
X11041967Y-15675531D01*
X11041967Y-15675531D02*
X11051491Y-15666008D01*
X11051491Y-15666008D02*
X11070539Y-15656484D01*
X11222920Y-15856484D02*
X11222920Y-15723150D01*
X11222920Y-15742198D02*
X11232443Y-15732674D01*
X11232443Y-15732674D02*
X11251491Y-15723150D01*
X11251491Y-15723150D02*
X11280063Y-15723150D01*
X11280063Y-15723150D02*
X11299110Y-15732674D01*
X11299110Y-15732674D02*
X11308634Y-15751722D01*
X11308634Y-15751722D02*
X11308634Y-15856484D01*
X11308634Y-15751722D02*
X11318158Y-15732674D01*
X11318158Y-15732674D02*
X11337205Y-15723150D01*
X11337205Y-15723150D02*
X11365777Y-15723150D01*
X11365777Y-15723150D02*
X11384824Y-15732674D01*
X11384824Y-15732674D02*
X11394348Y-15751722D01*
X11394348Y-15751722D02*
X11394348Y-15856484D01*
X11489586Y-15856484D02*
X11489586Y-15723150D01*
X11489586Y-15742198D02*
X11499110Y-15732674D01*
X11499110Y-15732674D02*
X11518158Y-15723150D01*
X11518158Y-15723150D02*
X11546729Y-15723150D01*
X11546729Y-15723150D02*
X11565777Y-15732674D01*
X11565777Y-15732674D02*
X11575301Y-15751722D01*
X11575301Y-15751722D02*
X11575301Y-15856484D01*
X11575301Y-15751722D02*
X11584824Y-15732674D01*
X11584824Y-15732674D02*
X11603872Y-15723150D01*
X11603872Y-15723150D02*
X11632443Y-15723150D01*
X11632443Y-15723150D02*
X11651491Y-15732674D01*
X11651491Y-15732674D02*
X11661015Y-15751722D01*
X11661015Y-15751722D02*
X11661015Y-15856484D01*
X12051491Y-15646960D02*
X11880063Y-15904103D01*
X12308634Y-15656484D02*
X12327682Y-15656484D01*
X12327682Y-15656484D02*
X12346729Y-15666008D01*
X12346729Y-15666008D02*
X12356253Y-15675531D01*
X12356253Y-15675531D02*
X12365777Y-15694579D01*
X12365777Y-15694579D02*
X12375301Y-15732674D01*
X12375301Y-15732674D02*
X12375301Y-15780293D01*
X12375301Y-15780293D02*
X12365777Y-15818388D01*
X12365777Y-15818388D02*
X12356253Y-15837436D01*
X12356253Y-15837436D02*
X12346729Y-15846960D01*
X12346729Y-15846960D02*
X12327682Y-15856484D01*
X12327682Y-15856484D02*
X12308634Y-15856484D01*
X12308634Y-15856484D02*
X12289586Y-15846960D01*
X12289586Y-15846960D02*
X12280063Y-15837436D01*
X12280063Y-15837436D02*
X12270539Y-15818388D01*
X12270539Y-15818388D02*
X12261015Y-15780293D01*
X12261015Y-15780293D02*
X12261015Y-15732674D01*
X12261015Y-15732674D02*
X12270539Y-15694579D01*
X12270539Y-15694579D02*
X12280063Y-15675531D01*
X12280063Y-15675531D02*
X12289586Y-15666008D01*
X12289586Y-15666008D02*
X12308634Y-15656484D01*
X12461015Y-15837436D02*
X12470539Y-15846960D01*
X12470539Y-15846960D02*
X12461015Y-15856484D01*
X12461015Y-15856484D02*
X12451491Y-15846960D01*
X12451491Y-15846960D02*
X12461015Y-15837436D01*
X12461015Y-15837436D02*
X12461015Y-15856484D01*
X12594348Y-15656484D02*
X12613396Y-15656484D01*
X12613396Y-15656484D02*
X12632444Y-15666008D01*
X12632444Y-15666008D02*
X12641967Y-15675531D01*
X12641967Y-15675531D02*
X12651491Y-15694579D01*
X12651491Y-15694579D02*
X12661015Y-15732674D01*
X12661015Y-15732674D02*
X12661015Y-15780293D01*
X12661015Y-15780293D02*
X12651491Y-15818388D01*
X12651491Y-15818388D02*
X12641967Y-15837436D01*
X12641967Y-15837436D02*
X12632444Y-15846960D01*
X12632444Y-15846960D02*
X12613396Y-15856484D01*
X12613396Y-15856484D02*
X12594348Y-15856484D01*
X12594348Y-15856484D02*
X12575301Y-15846960D01*
X12575301Y-15846960D02*
X12565777Y-15837436D01*
X12565777Y-15837436D02*
X12556253Y-15818388D01*
X12556253Y-15818388D02*
X12546729Y-15780293D01*
X12546729Y-15780293D02*
X12546729Y-15732674D01*
X12546729Y-15732674D02*
X12556253Y-15694579D01*
X12556253Y-15694579D02*
X12565777Y-15675531D01*
X12565777Y-15675531D02*
X12575301Y-15666008D01*
X12575301Y-15666008D02*
X12594348Y-15656484D01*
X12851491Y-15856484D02*
X12737206Y-15856484D01*
X12794348Y-15856484D02*
X12794348Y-15656484D01*
X12794348Y-15656484D02*
X12775301Y-15685055D01*
X12775301Y-15685055D02*
X12756253Y-15704103D01*
X12756253Y-15704103D02*
X12737206Y-15713627D01*
X13032444Y-15656484D02*
X12937206Y-15656484D01*
X12937206Y-15656484D02*
X12927682Y-15751722D01*
X12927682Y-15751722D02*
X12937206Y-15742198D01*
X12937206Y-15742198D02*
X12956253Y-15732674D01*
X12956253Y-15732674D02*
X13003872Y-15732674D01*
X13003872Y-15732674D02*
X13022920Y-15742198D01*
X13022920Y-15742198D02*
X13032444Y-15751722D01*
X13032444Y-15751722D02*
X13041967Y-15770769D01*
X13041967Y-15770769D02*
X13041967Y-15818388D01*
X13041967Y-15818388D02*
X13032444Y-15837436D01*
X13032444Y-15837436D02*
X13022920Y-15846960D01*
X13022920Y-15846960D02*
X13003872Y-15856484D01*
X13003872Y-15856484D02*
X12956253Y-15856484D01*
X12956253Y-15856484D02*
X12937206Y-15846960D01*
X12937206Y-15846960D02*
X12927682Y-15837436D01*
X13108634Y-15656484D02*
X13241967Y-15656484D01*
X13241967Y-15656484D02*
X13156253Y-15856484D01*
X13308634Y-15656484D02*
X13308634Y-15694579D01*
X13384825Y-15656484D02*
X13384825Y-15694579D01*
X13680063Y-15932674D02*
X13670539Y-15923150D01*
X13670539Y-15923150D02*
X13651491Y-15894579D01*
X13651491Y-15894579D02*
X13641968Y-15875531D01*
X13641968Y-15875531D02*
X13632444Y-15846960D01*
X13632444Y-15846960D02*
X13622920Y-15799341D01*
X13622920Y-15799341D02*
X13622920Y-15761246D01*
X13622920Y-15761246D02*
X13632444Y-15713627D01*
X13632444Y-15713627D02*
X13641968Y-15685055D01*
X13641968Y-15685055D02*
X13651491Y-15666008D01*
X13651491Y-15666008D02*
X13670539Y-15637436D01*
X13670539Y-15637436D02*
X13680063Y-15627912D01*
X13746729Y-15675531D02*
X13756253Y-15666008D01*
X13756253Y-15666008D02*
X13775301Y-15656484D01*
X13775301Y-15656484D02*
X13822920Y-15656484D01*
X13822920Y-15656484D02*
X13841968Y-15666008D01*
X13841968Y-15666008D02*
X13851491Y-15675531D01*
X13851491Y-15675531D02*
X13861015Y-15694579D01*
X13861015Y-15694579D02*
X13861015Y-15713627D01*
X13861015Y-15713627D02*
X13851491Y-15742198D01*
X13851491Y-15742198D02*
X13737206Y-15856484D01*
X13737206Y-15856484D02*
X13861015Y-15856484D01*
X13937206Y-15675531D02*
X13946729Y-15666008D01*
X13946729Y-15666008D02*
X13965777Y-15656484D01*
X13965777Y-15656484D02*
X14013396Y-15656484D01*
X14013396Y-15656484D02*
X14032444Y-15666008D01*
X14032444Y-15666008D02*
X14041968Y-15675531D01*
X14041968Y-15675531D02*
X14051491Y-15694579D01*
X14051491Y-15694579D02*
X14051491Y-15713627D01*
X14051491Y-15713627D02*
X14041968Y-15742198D01*
X14041968Y-15742198D02*
X13927682Y-15856484D01*
X13927682Y-15856484D02*
X14051491Y-15856484D01*
X14289587Y-15856484D02*
X14289587Y-15656484D01*
X14375301Y-15856484D02*
X14375301Y-15751722D01*
X14375301Y-15751722D02*
X14365777Y-15732674D01*
X14365777Y-15732674D02*
X14346730Y-15723150D01*
X14346730Y-15723150D02*
X14318158Y-15723150D01*
X14318158Y-15723150D02*
X14299110Y-15732674D01*
X14299110Y-15732674D02*
X14289587Y-15742198D01*
X14499110Y-15856484D02*
X14480063Y-15846960D01*
X14480063Y-15846960D02*
X14470539Y-15837436D01*
X14470539Y-15837436D02*
X14461015Y-15818388D01*
X14461015Y-15818388D02*
X14461015Y-15761246D01*
X14461015Y-15761246D02*
X14470539Y-15742198D01*
X14470539Y-15742198D02*
X14480063Y-15732674D01*
X14480063Y-15732674D02*
X14499110Y-15723150D01*
X14499110Y-15723150D02*
X14527682Y-15723150D01*
X14527682Y-15723150D02*
X14546730Y-15732674D01*
X14546730Y-15732674D02*
X14556253Y-15742198D01*
X14556253Y-15742198D02*
X14565777Y-15761246D01*
X14565777Y-15761246D02*
X14565777Y-15818388D01*
X14565777Y-15818388D02*
X14556253Y-15837436D01*
X14556253Y-15837436D02*
X14546730Y-15846960D01*
X14546730Y-15846960D02*
X14527682Y-15856484D01*
X14527682Y-15856484D02*
X14499110Y-15856484D01*
X14680063Y-15856484D02*
X14661015Y-15846960D01*
X14661015Y-15846960D02*
X14651491Y-15827912D01*
X14651491Y-15827912D02*
X14651491Y-15656484D01*
X14832444Y-15846960D02*
X14813396Y-15856484D01*
X14813396Y-15856484D02*
X14775301Y-15856484D01*
X14775301Y-15856484D02*
X14756253Y-15846960D01*
X14756253Y-15846960D02*
X14746730Y-15827912D01*
X14746730Y-15827912D02*
X14746730Y-15751722D01*
X14746730Y-15751722D02*
X14756253Y-15732674D01*
X14756253Y-15732674D02*
X14775301Y-15723150D01*
X14775301Y-15723150D02*
X14813396Y-15723150D01*
X14813396Y-15723150D02*
X14832444Y-15732674D01*
X14832444Y-15732674D02*
X14841968Y-15751722D01*
X14841968Y-15751722D02*
X14841968Y-15770769D01*
X14841968Y-15770769D02*
X14746730Y-15789817D01*
X14918158Y-15846960D02*
X14937206Y-15856484D01*
X14937206Y-15856484D02*
X14975301Y-15856484D01*
X14975301Y-15856484D02*
X14994349Y-15846960D01*
X14994349Y-15846960D02*
X15003872Y-15827912D01*
X15003872Y-15827912D02*
X15003872Y-15818388D01*
X15003872Y-15818388D02*
X14994349Y-15799341D01*
X14994349Y-15799341D02*
X14975301Y-15789817D01*
X14975301Y-15789817D02*
X14946730Y-15789817D01*
X14946730Y-15789817D02*
X14927682Y-15780293D01*
X14927682Y-15780293D02*
X14918158Y-15761246D01*
X14918158Y-15761246D02*
X14918158Y-15751722D01*
X14918158Y-15751722D02*
X14927682Y-15732674D01*
X14927682Y-15732674D02*
X14946730Y-15723150D01*
X14946730Y-15723150D02*
X14975301Y-15723150D01*
X14975301Y-15723150D02*
X14994349Y-15732674D01*
X15070539Y-15932674D02*
X15080063Y-15923150D01*
X15080063Y-15923150D02*
X15099111Y-15894579D01*
X15099111Y-15894579D02*
X15108634Y-15875531D01*
X15108634Y-15875531D02*
X15118158Y-15846960D01*
X15118158Y-15846960D02*
X15127682Y-15799341D01*
X15127682Y-15799341D02*
X15127682Y-15761246D01*
X15127682Y-15761246D02*
X15118158Y-15713627D01*
X15118158Y-15713627D02*
X15108634Y-15685055D01*
X15108634Y-15685055D02*
X15099111Y-15666008D01*
X15099111Y-15666008D02*
X15080063Y-15637436D01*
X15080063Y-15637436D02*
X15070539Y-15627912D01*
X10105000Y-16029000D02*
G75*
G03*
X10105000Y-16029000I-100000J0D01*
G01*
X10356253Y-15939531D02*
X10365777Y-15930008D01*
X10365777Y-15930008D02*
X10384824Y-15920484D01*
X10384824Y-15920484D02*
X10432444Y-15920484D01*
X10432444Y-15920484D02*
X10451491Y-15930008D01*
X10451491Y-15930008D02*
X10461015Y-15939531D01*
X10461015Y-15939531D02*
X10470539Y-15958579D01*
X10470539Y-15958579D02*
X10470539Y-15977627D01*
X10470539Y-15977627D02*
X10461015Y-16006198D01*
X10461015Y-16006198D02*
X10346729Y-16120484D01*
X10346729Y-16120484D02*
X10470539Y-16120484D01*
X10556253Y-16101436D02*
X10565777Y-16110960D01*
X10565777Y-16110960D02*
X10556253Y-16120484D01*
X10556253Y-16120484D02*
X10546729Y-16110960D01*
X10546729Y-16110960D02*
X10556253Y-16101436D01*
X10556253Y-16101436D02*
X10556253Y-16120484D01*
X10641967Y-15939531D02*
X10651491Y-15930008D01*
X10651491Y-15930008D02*
X10670539Y-15920484D01*
X10670539Y-15920484D02*
X10718158Y-15920484D01*
X10718158Y-15920484D02*
X10737205Y-15930008D01*
X10737205Y-15930008D02*
X10746729Y-15939531D01*
X10746729Y-15939531D02*
X10756253Y-15958579D01*
X10756253Y-15958579D02*
X10756253Y-15977627D01*
X10756253Y-15977627D02*
X10746729Y-16006198D01*
X10746729Y-16006198D02*
X10632444Y-16120484D01*
X10632444Y-16120484D02*
X10756253Y-16120484D01*
X10880063Y-15920484D02*
X10899110Y-15920484D01*
X10899110Y-15920484D02*
X10918158Y-15930008D01*
X10918158Y-15930008D02*
X10927682Y-15939531D01*
X10927682Y-15939531D02*
X10937205Y-15958579D01*
X10937205Y-15958579D02*
X10946729Y-15996674D01*
X10946729Y-15996674D02*
X10946729Y-16044293D01*
X10946729Y-16044293D02*
X10937205Y-16082388D01*
X10937205Y-16082388D02*
X10927682Y-16101436D01*
X10927682Y-16101436D02*
X10918158Y-16110960D01*
X10918158Y-16110960D02*
X10899110Y-16120484D01*
X10899110Y-16120484D02*
X10880063Y-16120484D01*
X10880063Y-16120484D02*
X10861015Y-16110960D01*
X10861015Y-16110960D02*
X10851491Y-16101436D01*
X10851491Y-16101436D02*
X10841967Y-16082388D01*
X10841967Y-16082388D02*
X10832444Y-16044293D01*
X10832444Y-16044293D02*
X10832444Y-15996674D01*
X10832444Y-15996674D02*
X10841967Y-15958579D01*
X10841967Y-15958579D02*
X10851491Y-15939531D01*
X10851491Y-15939531D02*
X10861015Y-15930008D01*
X10861015Y-15930008D02*
X10880063Y-15920484D01*
X11070539Y-15920484D02*
X11089586Y-15920484D01*
X11089586Y-15920484D02*
X11108634Y-15930008D01*
X11108634Y-15930008D02*
X11118158Y-15939531D01*
X11118158Y-15939531D02*
X11127682Y-15958579D01*
X11127682Y-15958579D02*
X11137205Y-15996674D01*
X11137205Y-15996674D02*
X11137205Y-16044293D01*
X11137205Y-16044293D02*
X11127682Y-16082388D01*
X11127682Y-16082388D02*
X11118158Y-16101436D01*
X11118158Y-16101436D02*
X11108634Y-16110960D01*
X11108634Y-16110960D02*
X11089586Y-16120484D01*
X11089586Y-16120484D02*
X11070539Y-16120484D01*
X11070539Y-16120484D02*
X11051491Y-16110960D01*
X11051491Y-16110960D02*
X11041967Y-16101436D01*
X11041967Y-16101436D02*
X11032444Y-16082388D01*
X11032444Y-16082388D02*
X11022920Y-16044293D01*
X11022920Y-16044293D02*
X11022920Y-15996674D01*
X11022920Y-15996674D02*
X11032444Y-15958579D01*
X11032444Y-15958579D02*
X11041967Y-15939531D01*
X11041967Y-15939531D02*
X11051491Y-15930008D01*
X11051491Y-15930008D02*
X11070539Y-15920484D01*
X11222920Y-16120484D02*
X11222920Y-15987150D01*
X11222920Y-16006198D02*
X11232443Y-15996674D01*
X11232443Y-15996674D02*
X11251491Y-15987150D01*
X11251491Y-15987150D02*
X11280063Y-15987150D01*
X11280063Y-15987150D02*
X11299110Y-15996674D01*
X11299110Y-15996674D02*
X11308634Y-16015722D01*
X11308634Y-16015722D02*
X11308634Y-16120484D01*
X11308634Y-16015722D02*
X11318158Y-15996674D01*
X11318158Y-15996674D02*
X11337205Y-15987150D01*
X11337205Y-15987150D02*
X11365777Y-15987150D01*
X11365777Y-15987150D02*
X11384824Y-15996674D01*
X11384824Y-15996674D02*
X11394348Y-16015722D01*
X11394348Y-16015722D02*
X11394348Y-16120484D01*
X11489586Y-16120484D02*
X11489586Y-15987150D01*
X11489586Y-16006198D02*
X11499110Y-15996674D01*
X11499110Y-15996674D02*
X11518158Y-15987150D01*
X11518158Y-15987150D02*
X11546729Y-15987150D01*
X11546729Y-15987150D02*
X11565777Y-15996674D01*
X11565777Y-15996674D02*
X11575301Y-16015722D01*
X11575301Y-16015722D02*
X11575301Y-16120484D01*
X11575301Y-16015722D02*
X11584824Y-15996674D01*
X11584824Y-15996674D02*
X11603872Y-15987150D01*
X11603872Y-15987150D02*
X11632443Y-15987150D01*
X11632443Y-15987150D02*
X11651491Y-15996674D01*
X11651491Y-15996674D02*
X11661015Y-16015722D01*
X11661015Y-16015722D02*
X11661015Y-16120484D01*
X12051491Y-15910960D02*
X11880063Y-16168103D01*
X12308634Y-15920484D02*
X12327682Y-15920484D01*
X12327682Y-15920484D02*
X12346729Y-15930008D01*
X12346729Y-15930008D02*
X12356253Y-15939531D01*
X12356253Y-15939531D02*
X12365777Y-15958579D01*
X12365777Y-15958579D02*
X12375301Y-15996674D01*
X12375301Y-15996674D02*
X12375301Y-16044293D01*
X12375301Y-16044293D02*
X12365777Y-16082388D01*
X12365777Y-16082388D02*
X12356253Y-16101436D01*
X12356253Y-16101436D02*
X12346729Y-16110960D01*
X12346729Y-16110960D02*
X12327682Y-16120484D01*
X12327682Y-16120484D02*
X12308634Y-16120484D01*
X12308634Y-16120484D02*
X12289586Y-16110960D01*
X12289586Y-16110960D02*
X12280063Y-16101436D01*
X12280063Y-16101436D02*
X12270539Y-16082388D01*
X12270539Y-16082388D02*
X12261015Y-16044293D01*
X12261015Y-16044293D02*
X12261015Y-15996674D01*
X12261015Y-15996674D02*
X12270539Y-15958579D01*
X12270539Y-15958579D02*
X12280063Y-15939531D01*
X12280063Y-15939531D02*
X12289586Y-15930008D01*
X12289586Y-15930008D02*
X12308634Y-15920484D01*
X12461015Y-16101436D02*
X12470539Y-16110960D01*
X12470539Y-16110960D02*
X12461015Y-16120484D01*
X12461015Y-16120484D02*
X12451491Y-16110960D01*
X12451491Y-16110960D02*
X12461015Y-16101436D01*
X12461015Y-16101436D02*
X12461015Y-16120484D01*
X12594348Y-15920484D02*
X12613396Y-15920484D01*
X12613396Y-15920484D02*
X12632444Y-15930008D01*
X12632444Y-15930008D02*
X12641967Y-15939531D01*
X12641967Y-15939531D02*
X12651491Y-15958579D01*
X12651491Y-15958579D02*
X12661015Y-15996674D01*
X12661015Y-15996674D02*
X12661015Y-16044293D01*
X12661015Y-16044293D02*
X12651491Y-16082388D01*
X12651491Y-16082388D02*
X12641967Y-16101436D01*
X12641967Y-16101436D02*
X12632444Y-16110960D01*
X12632444Y-16110960D02*
X12613396Y-16120484D01*
X12613396Y-16120484D02*
X12594348Y-16120484D01*
X12594348Y-16120484D02*
X12575301Y-16110960D01*
X12575301Y-16110960D02*
X12565777Y-16101436D01*
X12565777Y-16101436D02*
X12556253Y-16082388D01*
X12556253Y-16082388D02*
X12546729Y-16044293D01*
X12546729Y-16044293D02*
X12546729Y-15996674D01*
X12546729Y-15996674D02*
X12556253Y-15958579D01*
X12556253Y-15958579D02*
X12565777Y-15939531D01*
X12565777Y-15939531D02*
X12575301Y-15930008D01*
X12575301Y-15930008D02*
X12594348Y-15920484D01*
X12775301Y-16006198D02*
X12756253Y-15996674D01*
X12756253Y-15996674D02*
X12746729Y-15987150D01*
X12746729Y-15987150D02*
X12737206Y-15968103D01*
X12737206Y-15968103D02*
X12737206Y-15958579D01*
X12737206Y-15958579D02*
X12746729Y-15939531D01*
X12746729Y-15939531D02*
X12756253Y-15930008D01*
X12756253Y-15930008D02*
X12775301Y-15920484D01*
X12775301Y-15920484D02*
X12813396Y-15920484D01*
X12813396Y-15920484D02*
X12832444Y-15930008D01*
X12832444Y-15930008D02*
X12841967Y-15939531D01*
X12841967Y-15939531D02*
X12851491Y-15958579D01*
X12851491Y-15958579D02*
X12851491Y-15968103D01*
X12851491Y-15968103D02*
X12841967Y-15987150D01*
X12841967Y-15987150D02*
X12832444Y-15996674D01*
X12832444Y-15996674D02*
X12813396Y-16006198D01*
X12813396Y-16006198D02*
X12775301Y-16006198D01*
X12775301Y-16006198D02*
X12756253Y-16015722D01*
X12756253Y-16015722D02*
X12746729Y-16025246D01*
X12746729Y-16025246D02*
X12737206Y-16044293D01*
X12737206Y-16044293D02*
X12737206Y-16082388D01*
X12737206Y-16082388D02*
X12746729Y-16101436D01*
X12746729Y-16101436D02*
X12756253Y-16110960D01*
X12756253Y-16110960D02*
X12775301Y-16120484D01*
X12775301Y-16120484D02*
X12813396Y-16120484D01*
X12813396Y-16120484D02*
X12832444Y-16110960D01*
X12832444Y-16110960D02*
X12841967Y-16101436D01*
X12841967Y-16101436D02*
X12851491Y-16082388D01*
X12851491Y-16082388D02*
X12851491Y-16044293D01*
X12851491Y-16044293D02*
X12841967Y-16025246D01*
X12841967Y-16025246D02*
X12832444Y-16015722D01*
X12832444Y-16015722D02*
X12813396Y-16006198D01*
X13022920Y-15920484D02*
X12984825Y-15920484D01*
X12984825Y-15920484D02*
X12965777Y-15930008D01*
X12965777Y-15930008D02*
X12956253Y-15939531D01*
X12956253Y-15939531D02*
X12937206Y-15968103D01*
X12937206Y-15968103D02*
X12927682Y-16006198D01*
X12927682Y-16006198D02*
X12927682Y-16082388D01*
X12927682Y-16082388D02*
X12937206Y-16101436D01*
X12937206Y-16101436D02*
X12946729Y-16110960D01*
X12946729Y-16110960D02*
X12965777Y-16120484D01*
X12965777Y-16120484D02*
X13003872Y-16120484D01*
X13003872Y-16120484D02*
X13022920Y-16110960D01*
X13022920Y-16110960D02*
X13032444Y-16101436D01*
X13032444Y-16101436D02*
X13041967Y-16082388D01*
X13041967Y-16082388D02*
X13041967Y-16034769D01*
X13041967Y-16034769D02*
X13032444Y-16015722D01*
X13032444Y-16015722D02*
X13022920Y-16006198D01*
X13022920Y-16006198D02*
X13003872Y-15996674D01*
X13003872Y-15996674D02*
X12965777Y-15996674D01*
X12965777Y-15996674D02*
X12946729Y-16006198D01*
X12946729Y-16006198D02*
X12937206Y-16015722D01*
X12937206Y-16015722D02*
X12927682Y-16034769D01*
X13213396Y-15920484D02*
X13175301Y-15920484D01*
X13175301Y-15920484D02*
X13156253Y-15930008D01*
X13156253Y-15930008D02*
X13146729Y-15939531D01*
X13146729Y-15939531D02*
X13127682Y-15968103D01*
X13127682Y-15968103D02*
X13118158Y-16006198D01*
X13118158Y-16006198D02*
X13118158Y-16082388D01*
X13118158Y-16082388D02*
X13127682Y-16101436D01*
X13127682Y-16101436D02*
X13137206Y-16110960D01*
X13137206Y-16110960D02*
X13156253Y-16120484D01*
X13156253Y-16120484D02*
X13194348Y-16120484D01*
X13194348Y-16120484D02*
X13213396Y-16110960D01*
X13213396Y-16110960D02*
X13222920Y-16101436D01*
X13222920Y-16101436D02*
X13232444Y-16082388D01*
X13232444Y-16082388D02*
X13232444Y-16034769D01*
X13232444Y-16034769D02*
X13222920Y-16015722D01*
X13222920Y-16015722D02*
X13213396Y-16006198D01*
X13213396Y-16006198D02*
X13194348Y-15996674D01*
X13194348Y-15996674D02*
X13156253Y-15996674D01*
X13156253Y-15996674D02*
X13137206Y-16006198D01*
X13137206Y-16006198D02*
X13127682Y-16015722D01*
X13127682Y-16015722D02*
X13118158Y-16034769D01*
X13308634Y-15920484D02*
X13308634Y-15958579D01*
X13384825Y-15920484D02*
X13384825Y-15958579D01*
X13680063Y-16196674D02*
X13670539Y-16187150D01*
X13670539Y-16187150D02*
X13651491Y-16158579D01*
X13651491Y-16158579D02*
X13641968Y-16139531D01*
X13641968Y-16139531D02*
X13632444Y-16110960D01*
X13632444Y-16110960D02*
X13622920Y-16063341D01*
X13622920Y-16063341D02*
X13622920Y-16025246D01*
X13622920Y-16025246D02*
X13632444Y-15977627D01*
X13632444Y-15977627D02*
X13641968Y-15949055D01*
X13641968Y-15949055D02*
X13651491Y-15930008D01*
X13651491Y-15930008D02*
X13670539Y-15901436D01*
X13670539Y-15901436D02*
X13680063Y-15891912D01*
X13841968Y-15987150D02*
X13841968Y-16120484D01*
X13794348Y-15910960D02*
X13746729Y-16053817D01*
X13746729Y-16053817D02*
X13870539Y-16053817D01*
X14099110Y-16120484D02*
X14099110Y-15920484D01*
X14184825Y-16120484D02*
X14184825Y-16015722D01*
X14184825Y-16015722D02*
X14175301Y-15996674D01*
X14175301Y-15996674D02*
X14156253Y-15987150D01*
X14156253Y-15987150D02*
X14127682Y-15987150D01*
X14127682Y-15987150D02*
X14108634Y-15996674D01*
X14108634Y-15996674D02*
X14099110Y-16006198D01*
X14308634Y-16120484D02*
X14289587Y-16110960D01*
X14289587Y-16110960D02*
X14280063Y-16101436D01*
X14280063Y-16101436D02*
X14270539Y-16082388D01*
X14270539Y-16082388D02*
X14270539Y-16025246D01*
X14270539Y-16025246D02*
X14280063Y-16006198D01*
X14280063Y-16006198D02*
X14289587Y-15996674D01*
X14289587Y-15996674D02*
X14308634Y-15987150D01*
X14308634Y-15987150D02*
X14337206Y-15987150D01*
X14337206Y-15987150D02*
X14356253Y-15996674D01*
X14356253Y-15996674D02*
X14365777Y-16006198D01*
X14365777Y-16006198D02*
X14375301Y-16025246D01*
X14375301Y-16025246D02*
X14375301Y-16082388D01*
X14375301Y-16082388D02*
X14365777Y-16101436D01*
X14365777Y-16101436D02*
X14356253Y-16110960D01*
X14356253Y-16110960D02*
X14337206Y-16120484D01*
X14337206Y-16120484D02*
X14308634Y-16120484D01*
X14489587Y-16120484D02*
X14470539Y-16110960D01*
X14470539Y-16110960D02*
X14461015Y-16091912D01*
X14461015Y-16091912D02*
X14461015Y-15920484D01*
X14641968Y-16110960D02*
X14622920Y-16120484D01*
X14622920Y-16120484D02*
X14584825Y-16120484D01*
X14584825Y-16120484D02*
X14565777Y-16110960D01*
X14565777Y-16110960D02*
X14556253Y-16091912D01*
X14556253Y-16091912D02*
X14556253Y-16015722D01*
X14556253Y-16015722D02*
X14565777Y-15996674D01*
X14565777Y-15996674D02*
X14584825Y-15987150D01*
X14584825Y-15987150D02*
X14622920Y-15987150D01*
X14622920Y-15987150D02*
X14641968Y-15996674D01*
X14641968Y-15996674D02*
X14651491Y-16015722D01*
X14651491Y-16015722D02*
X14651491Y-16034769D01*
X14651491Y-16034769D02*
X14556253Y-16053817D01*
X14727682Y-16110960D02*
X14746730Y-16120484D01*
X14746730Y-16120484D02*
X14784825Y-16120484D01*
X14784825Y-16120484D02*
X14803872Y-16110960D01*
X14803872Y-16110960D02*
X14813396Y-16091912D01*
X14813396Y-16091912D02*
X14813396Y-16082388D01*
X14813396Y-16082388D02*
X14803872Y-16063341D01*
X14803872Y-16063341D02*
X14784825Y-16053817D01*
X14784825Y-16053817D02*
X14756253Y-16053817D01*
X14756253Y-16053817D02*
X14737206Y-16044293D01*
X14737206Y-16044293D02*
X14727682Y-16025246D01*
X14727682Y-16025246D02*
X14727682Y-16015722D01*
X14727682Y-16015722D02*
X14737206Y-15996674D01*
X14737206Y-15996674D02*
X14756253Y-15987150D01*
X14756253Y-15987150D02*
X14784825Y-15987150D01*
X14784825Y-15987150D02*
X14803872Y-15996674D01*
X14880063Y-16196674D02*
X14889587Y-16187150D01*
X14889587Y-16187150D02*
X14908634Y-16158579D01*
X14908634Y-16158579D02*
X14918158Y-16139531D01*
X14918158Y-16139531D02*
X14927682Y-16110960D01*
X14927682Y-16110960D02*
X14937206Y-16063341D01*
X14937206Y-16063341D02*
X14937206Y-16025246D01*
X14937206Y-16025246D02*
X14927682Y-15977627D01*
X14927682Y-15977627D02*
X14918158Y-15949055D01*
X14918158Y-15949055D02*
X14908634Y-15930008D01*
X14908634Y-15930008D02*
X14889587Y-15901436D01*
X14889587Y-15901436D02*
X14880063Y-15891912D01*
M02*
