G04 #@! TF.GenerationSoftware,KiCad,Pcbnew,7.0.7*
G04 #@! TF.CreationDate,2024-12-02T13:55:21+01:00*
G04 #@! TF.ProjectId,Finger_FSR_V1_height,46696e67-6572-45f4-9653-525f56315f68,rev?*
G04 #@! TF.SameCoordinates,Original*
G04 #@! TF.FileFunction,Copper,L1,Top*
G04 #@! TF.FilePolarity,Positive*
%FSLAX46Y46*%
G04 Gerber Fmt 4.6, Leading zero omitted, Abs format (unit mm)*
G04 Created by KiCad (PCBNEW 7.0.7) date 2024-12-02 13:55:21*
%MOMM*%
%LPD*%
G01*
G04 APERTURE LIST*
G04 Aperture macros list*
%AMRoundRect*
0 Rectangle with rounded corners*
0 $1 Rounding radius*
0 $2 $3 $4 $5 $6 $7 $8 $9 X,Y pos of 4 corners*
0 Add a 4 corners polygon primitive as box body*
4,1,4,$2,$3,$4,$5,$6,$7,$8,$9,$2,$3,0*
0 Add four circle primitives for the rounded corners*
1,1,$1+$1,$2,$3*
1,1,$1+$1,$4,$5*
1,1,$1+$1,$6,$7*
1,1,$1+$1,$8,$9*
0 Add four rect primitives between the rounded corners*
20,1,$1+$1,$2,$3,$4,$5,0*
20,1,$1+$1,$4,$5,$6,$7,0*
20,1,$1+$1,$6,$7,$8,$9,0*
20,1,$1+$1,$8,$9,$2,$3,0*%
G04 Aperture macros list end*
G04 #@! TA.AperFunction,SMDPad,CuDef*
%ADD10RoundRect,0.250000X-0.250000X-5.250000X0.250000X-5.250000X0.250000X5.250000X-0.250000X5.250000X0*%
G04 #@! TD*
G04 #@! TA.AperFunction,ComponentPad*
%ADD11C,3.000000*%
G04 #@! TD*
G04 #@! TA.AperFunction,ComponentPad*
%ADD12C,3.800000*%
G04 #@! TD*
G04 #@! TA.AperFunction,ViaPad*
%ADD13C,0.800000*%
G04 #@! TD*
G04 #@! TA.AperFunction,Conductor*
%ADD14C,0.250000*%
G04 #@! TD*
G04 APERTURE END LIST*
D10*
X140800000Y-75000000D03*
D11*
X116150000Y-78650000D03*
D12*
X116150000Y-73650000D03*
D10*
X144800000Y-75000000D03*
X130800000Y-75000000D03*
X142800000Y-75000000D03*
X128800000Y-75000000D03*
X126800000Y-75000000D03*
X138800000Y-75000000D03*
X132800000Y-75000000D03*
D12*
X153450000Y-78650000D03*
D10*
X136800000Y-75000000D03*
X124800000Y-75000000D03*
D12*
X153450000Y-73650000D03*
D10*
X134800000Y-75000000D03*
D13*
X124800000Y-69900000D03*
X103108333Y-139940000D03*
X105716666Y-139940000D03*
X122430000Y-71235000D03*
X126800000Y-69900000D03*
X128800000Y-69900000D03*
X122430000Y-72820000D03*
X108324999Y-139940000D03*
X110933330Y-139940000D03*
X130800000Y-69900000D03*
X122430000Y-74290000D03*
X132800000Y-69900000D03*
X122430000Y-76440000D03*
X113541663Y-139940000D03*
X134800000Y-69900000D03*
X123250000Y-77400000D03*
X116149996Y-139940000D03*
X136800000Y-69900000D03*
X138800000Y-69900000D03*
X140800000Y-69900000D03*
X142800000Y-69900000D03*
X144800000Y-69900000D03*
D14*
X113610000Y-71680000D02*
X115390000Y-69900000D01*
X113610000Y-135416162D02*
X113610000Y-71680000D01*
X115390000Y-69900000D02*
X124800000Y-69900000D01*
X106470000Y-136620000D02*
X112406162Y-136620000D01*
X112406162Y-136620000D02*
X113610000Y-135416162D01*
X103108333Y-139981667D02*
X106470000Y-136620000D01*
X122365000Y-71235000D02*
X122430000Y-71235000D01*
X107340000Y-137530000D02*
X112170000Y-137530000D01*
X105730000Y-139140000D02*
X107340000Y-137530000D01*
X114100000Y-77370000D02*
X115240000Y-76230000D01*
X114100000Y-135600000D02*
X114100000Y-77370000D01*
X115240000Y-76230000D02*
X117370000Y-76230000D01*
X117370000Y-76230000D02*
X122365000Y-71235000D01*
X105730000Y-139850000D02*
X105730000Y-139140000D01*
X112170000Y-137530000D02*
X114100000Y-135600000D01*
X114610000Y-136210000D02*
X114610000Y-83610000D01*
X122410000Y-72840000D02*
X122410000Y-72820000D01*
X112230000Y-138590000D02*
X114610000Y-136210000D01*
X108324999Y-140014999D02*
X108324999Y-139225001D01*
X108960000Y-138590000D02*
X112230000Y-138590000D01*
X114610000Y-83610000D02*
X119300000Y-78920000D01*
X119300000Y-78920000D02*
X119300000Y-75950000D01*
X108324999Y-139225001D02*
X108960000Y-138590000D01*
X119300000Y-75950000D02*
X122410000Y-72840000D01*
X120300000Y-76360000D02*
X122370000Y-74290000D01*
X110960000Y-139980000D02*
X110960000Y-139590000D01*
X110960000Y-139590000D02*
X111330000Y-139220000D01*
X111330000Y-139220000D02*
X112680000Y-139220000D01*
X115130000Y-83930000D02*
X120300000Y-78760000D01*
X115130000Y-136770000D02*
X115130000Y-83930000D01*
X122370000Y-74290000D02*
X122430000Y-74290000D01*
X120300000Y-78760000D02*
X120300000Y-76360000D01*
X112680000Y-139220000D02*
X115130000Y-136770000D01*
X113541665Y-139348335D02*
X115620000Y-137270000D01*
X115620000Y-137270000D02*
X115620000Y-84210000D01*
X115620000Y-84210000D02*
X121705000Y-78125000D01*
X121705000Y-78125000D02*
X121705000Y-77165000D01*
X113541665Y-139878335D02*
X113541665Y-139348335D01*
X121705000Y-77165000D02*
X122430000Y-76440000D01*
X116150000Y-139930000D02*
X116150000Y-84400000D01*
X116160000Y-139940000D02*
X116150000Y-139930000D01*
X123150000Y-77400000D02*
X123250000Y-77400000D01*
X116150000Y-84400000D02*
X123150000Y-77400000D01*
M02*
