G04 #@! TF.GenerationSoftware,KiCad,Pcbnew,7.0.7*
G04 #@! TF.CreationDate,2024-12-02T13:55:21+01:00*
G04 #@! TF.ProjectId,Finger_FSR_V1_height,46696e67-6572-45f4-9653-525f56315f68,rev?*
G04 #@! TF.SameCoordinates,Original*
G04 #@! TF.FileFunction,Profile,NP*
%FSLAX46Y46*%
G04 Gerber Fmt 4.6, Leading zero omitted, Abs format (unit mm)*
G04 Created by KiCad (PCBNEW 7.0.7) date 2024-12-02 13:55:21*
%MOMM*%
%LPD*%
G01*
G04 APERTURE LIST*
G04 #@! TA.AperFunction,Profile*
%ADD10C,0.200000*%
G04 #@! TD*
G04 APERTURE END LIST*
D10*
X131150000Y-137650000D02*
G75*
G03*
X129650000Y-136150000I-1500000J0D01*
G01*
X120650000Y-81150000D02*
G75*
G03*
X119150000Y-82650000I0J-1500000D01*
G01*
X102650000Y-136150000D02*
G75*
G03*
X101150000Y-137650000I0J-1500000D01*
G01*
X101150000Y-149650000D02*
G75*
G03*
X102650000Y-151150000I1500000J0D01*
G01*
X102650000Y-151150000D02*
X129650000Y-151150000D01*
X131150000Y-149650000D02*
X131150000Y-137650000D01*
X111650000Y-136150000D02*
G75*
G03*
X113150000Y-134650000I0J1500000D01*
G01*
X156450000Y-70350000D02*
G75*
G03*
X154950000Y-68850000I-1500000J0D01*
G01*
X111650000Y-136150000D02*
X102650000Y-136150000D01*
X113150000Y-70350000D02*
X113150000Y-134650000D01*
X101150000Y-137650000D02*
X101150000Y-149650000D01*
X114650000Y-68850000D02*
G75*
G03*
X113150000Y-70350000I0J-1500000D01*
G01*
X156450000Y-79650000D02*
X156450000Y-70350000D01*
X154950000Y-81150000D02*
G75*
G03*
X156450000Y-79650000I0J1500000D01*
G01*
X120650000Y-81150000D02*
X154950000Y-81150000D01*
X129650000Y-136150000D02*
X120650000Y-136150000D01*
X119150000Y-134650000D02*
X119150000Y-82650000D01*
X154950000Y-68850000D02*
X114650000Y-68850000D01*
X129650000Y-151150000D02*
G75*
G03*
X131150000Y-149650000I0J1500000D01*
G01*
X119150000Y-134650000D02*
G75*
G03*
X120650000Y-136150000I1500000J0D01*
G01*
M02*
