G04 #@! TF.GenerationSoftware,KiCad,Pcbnew,7.0.7*
G04 #@! TF.CreationDate,2024-12-02T13:55:21+01:00*
G04 #@! TF.ProjectId,Finger_FSR_V1_height,46696e67-6572-45f4-9653-525f56315f68,rev?*
G04 #@! TF.SameCoordinates,Original*
G04 #@! TF.FileFunction,Legend,Bot*
G04 #@! TF.FilePolarity,Positive*
%FSLAX46Y46*%
G04 Gerber Fmt 4.6, Leading zero omitted, Abs format (unit mm)*
G04 Created by KiCad (PCBNEW 7.0.7) date 2024-12-02 13:55:21*
%MOMM*%
%LPD*%
G01*
G04 APERTURE LIST*
G04 Aperture macros list*
%AMRoundRect*
0 Rectangle with rounded corners*
0 $1 Rounding radius*
0 $2 $3 $4 $5 $6 $7 $8 $9 X,Y pos of 4 corners*
0 Add a 4 corners polygon primitive as box body*
4,1,4,$2,$3,$4,$5,$6,$7,$8,$9,$2,$3,0*
0 Add four circle primitives for the rounded corners*
1,1,$1+$1,$2,$3*
1,1,$1+$1,$4,$5*
1,1,$1+$1,$6,$7*
1,1,$1+$1,$8,$9*
0 Add four rect primitives between the rounded corners*
20,1,$1+$1,$2,$3,$4,$5,0*
20,1,$1+$1,$4,$5,$6,$7,0*
20,1,$1+$1,$6,$7,$8,$9,0*
20,1,$1+$1,$8,$9,$2,$3,0*%
G04 Aperture macros list end*
%ADD10C,0.150000*%
%ADD11C,3.000000*%
%ADD12C,3.800000*%
%ADD13RoundRect,0.375000X0.375000X-2.125000X0.375000X2.125000X-0.375000X2.125000X-0.375000X-2.125000X0*%
G04 APERTURE END LIST*
D10*
X129408453Y-147869819D02*
X129979881Y-147869819D01*
X129694167Y-147869819D02*
X129694167Y-146869819D01*
X129694167Y-146869819D02*
X129789405Y-147012676D01*
X129789405Y-147012676D02*
X129884643Y-147107914D01*
X129884643Y-147107914D02*
X129979881Y-147155533D01*
X128456072Y-147869819D02*
X129027500Y-147869819D01*
X128741786Y-147869819D02*
X128741786Y-146869819D01*
X128741786Y-146869819D02*
X128837024Y-147012676D01*
X128837024Y-147012676D02*
X128932262Y-147107914D01*
X128932262Y-147107914D02*
X129027500Y-147155533D01*
X122629887Y-69846009D02*
X122963220Y-69846009D01*
X122963220Y-70369819D02*
X122963220Y-69369819D01*
X122963220Y-69369819D02*
X122487030Y-69369819D01*
X122153696Y-70322200D02*
X122010839Y-70369819D01*
X122010839Y-70369819D02*
X121772744Y-70369819D01*
X121772744Y-70369819D02*
X121677506Y-70322200D01*
X121677506Y-70322200D02*
X121629887Y-70274580D01*
X121629887Y-70274580D02*
X121582268Y-70179342D01*
X121582268Y-70179342D02*
X121582268Y-70084104D01*
X121582268Y-70084104D02*
X121629887Y-69988866D01*
X121629887Y-69988866D02*
X121677506Y-69941247D01*
X121677506Y-69941247D02*
X121772744Y-69893628D01*
X121772744Y-69893628D02*
X121963220Y-69846009D01*
X121963220Y-69846009D02*
X122058458Y-69798390D01*
X122058458Y-69798390D02*
X122106077Y-69750771D01*
X122106077Y-69750771D02*
X122153696Y-69655533D01*
X122153696Y-69655533D02*
X122153696Y-69560295D01*
X122153696Y-69560295D02*
X122106077Y-69465057D01*
X122106077Y-69465057D02*
X122058458Y-69417438D01*
X122058458Y-69417438D02*
X121963220Y-69369819D01*
X121963220Y-69369819D02*
X121725125Y-69369819D01*
X121725125Y-69369819D02*
X121582268Y-69417438D01*
X120582268Y-70369819D02*
X120915601Y-69893628D01*
X121153696Y-70369819D02*
X121153696Y-69369819D01*
X121153696Y-69369819D02*
X120772744Y-69369819D01*
X120772744Y-69369819D02*
X120677506Y-69417438D01*
X120677506Y-69417438D02*
X120629887Y-69465057D01*
X120629887Y-69465057D02*
X120582268Y-69560295D01*
X120582268Y-69560295D02*
X120582268Y-69703152D01*
X120582268Y-69703152D02*
X120629887Y-69798390D01*
X120629887Y-69798390D02*
X120677506Y-69846009D01*
X120677506Y-69846009D02*
X120772744Y-69893628D01*
X120772744Y-69893628D02*
X121153696Y-69893628D01*
X118867982Y-70369819D02*
X119439410Y-70369819D01*
X119153696Y-70369819D02*
X119153696Y-69369819D01*
X119153696Y-69369819D02*
X119248934Y-69512676D01*
X119248934Y-69512676D02*
X119344172Y-69607914D01*
X119344172Y-69607914D02*
X119439410Y-69655533D01*
X102848935Y-147869819D02*
X103420363Y-147869819D01*
X103134649Y-147869819D02*
X103134649Y-146869819D01*
X103134649Y-146869819D02*
X103229887Y-147012676D01*
X103229887Y-147012676D02*
X103325125Y-147107914D01*
X103325125Y-147107914D02*
X103420363Y-147155533D01*
X123048925Y-147869819D02*
X122858449Y-147869819D01*
X122858449Y-147869819D02*
X122763211Y-147822200D01*
X122763211Y-147822200D02*
X122715592Y-147774580D01*
X122715592Y-147774580D02*
X122620354Y-147631723D01*
X122620354Y-147631723D02*
X122572735Y-147441247D01*
X122572735Y-147441247D02*
X122572735Y-147060295D01*
X122572735Y-147060295D02*
X122620354Y-146965057D01*
X122620354Y-146965057D02*
X122667973Y-146917438D01*
X122667973Y-146917438D02*
X122763211Y-146869819D01*
X122763211Y-146869819D02*
X122953687Y-146869819D01*
X122953687Y-146869819D02*
X123048925Y-146917438D01*
X123048925Y-146917438D02*
X123096544Y-146965057D01*
X123096544Y-146965057D02*
X123144163Y-147060295D01*
X123144163Y-147060295D02*
X123144163Y-147298390D01*
X123144163Y-147298390D02*
X123096544Y-147393628D01*
X123096544Y-147393628D02*
X123048925Y-147441247D01*
X123048925Y-147441247D02*
X122953687Y-147488866D01*
X122953687Y-147488866D02*
X122763211Y-147488866D01*
X122763211Y-147488866D02*
X122667973Y-147441247D01*
X122667973Y-147441247D02*
X122620354Y-147393628D01*
X122620354Y-147393628D02*
X122572735Y-147298390D01*
X110340598Y-147203152D02*
X110340598Y-147869819D01*
X110578693Y-146822200D02*
X110816788Y-147536485D01*
X110816788Y-147536485D02*
X110197741Y-147536485D01*
X130652508Y-138339819D02*
X130652508Y-137339819D01*
X130652508Y-137339819D02*
X130271556Y-137339819D01*
X130271556Y-137339819D02*
X130176318Y-137387438D01*
X130176318Y-137387438D02*
X130128699Y-137435057D01*
X130128699Y-137435057D02*
X130081080Y-137530295D01*
X130081080Y-137530295D02*
X130081080Y-137673152D01*
X130081080Y-137673152D02*
X130128699Y-137768390D01*
X130128699Y-137768390D02*
X130176318Y-137816009D01*
X130176318Y-137816009D02*
X130271556Y-137863628D01*
X130271556Y-137863628D02*
X130652508Y-137863628D01*
X129509651Y-138339819D02*
X129604889Y-138292200D01*
X129604889Y-138292200D02*
X129652508Y-138196961D01*
X129652508Y-138196961D02*
X129652508Y-137339819D01*
X128700127Y-138339819D02*
X128700127Y-137816009D01*
X128700127Y-137816009D02*
X128747746Y-137720771D01*
X128747746Y-137720771D02*
X128842984Y-137673152D01*
X128842984Y-137673152D02*
X129033460Y-137673152D01*
X129033460Y-137673152D02*
X129128698Y-137720771D01*
X128700127Y-138292200D02*
X128795365Y-138339819D01*
X128795365Y-138339819D02*
X129033460Y-138339819D01*
X129033460Y-138339819D02*
X129128698Y-138292200D01*
X129128698Y-138292200D02*
X129176317Y-138196961D01*
X129176317Y-138196961D02*
X129176317Y-138101723D01*
X129176317Y-138101723D02*
X129128698Y-138006485D01*
X129128698Y-138006485D02*
X129033460Y-137958866D01*
X129033460Y-137958866D02*
X128795365Y-137958866D01*
X128795365Y-137958866D02*
X128700127Y-137911247D01*
X127795365Y-138292200D02*
X127890603Y-138339819D01*
X127890603Y-138339819D02*
X128081079Y-138339819D01*
X128081079Y-138339819D02*
X128176317Y-138292200D01*
X128176317Y-138292200D02*
X128223936Y-138244580D01*
X128223936Y-138244580D02*
X128271555Y-138149342D01*
X128271555Y-138149342D02*
X128271555Y-137863628D01*
X128271555Y-137863628D02*
X128223936Y-137768390D01*
X128223936Y-137768390D02*
X128176317Y-137720771D01*
X128176317Y-137720771D02*
X128081079Y-137673152D01*
X128081079Y-137673152D02*
X127890603Y-137673152D01*
X127890603Y-137673152D02*
X127795365Y-137720771D01*
X126985841Y-138292200D02*
X127081079Y-138339819D01*
X127081079Y-138339819D02*
X127271555Y-138339819D01*
X127271555Y-138339819D02*
X127366793Y-138292200D01*
X127366793Y-138292200D02*
X127414412Y-138196961D01*
X127414412Y-138196961D02*
X127414412Y-137816009D01*
X127414412Y-137816009D02*
X127366793Y-137720771D01*
X127366793Y-137720771D02*
X127271555Y-137673152D01*
X127271555Y-137673152D02*
X127081079Y-137673152D01*
X127081079Y-137673152D02*
X126985841Y-137720771D01*
X126985841Y-137720771D02*
X126938222Y-137816009D01*
X126938222Y-137816009D02*
X126938222Y-137911247D01*
X126938222Y-137911247D02*
X127414412Y-138006485D01*
X125890602Y-137673152D02*
X125509650Y-137673152D01*
X125747745Y-137339819D02*
X125747745Y-138196961D01*
X125747745Y-138196961D02*
X125700126Y-138292200D01*
X125700126Y-138292200D02*
X125604888Y-138339819D01*
X125604888Y-138339819D02*
X125509650Y-138339819D01*
X125176316Y-138339819D02*
X125176316Y-137339819D01*
X124747745Y-138339819D02*
X124747745Y-137816009D01*
X124747745Y-137816009D02*
X124795364Y-137720771D01*
X124795364Y-137720771D02*
X124890602Y-137673152D01*
X124890602Y-137673152D02*
X125033459Y-137673152D01*
X125033459Y-137673152D02*
X125128697Y-137720771D01*
X125128697Y-137720771D02*
X125176316Y-137768390D01*
X124271554Y-138339819D02*
X124271554Y-137673152D01*
X124271554Y-137339819D02*
X124319173Y-137387438D01*
X124319173Y-137387438D02*
X124271554Y-137435057D01*
X124271554Y-137435057D02*
X124223935Y-137387438D01*
X124223935Y-137387438D02*
X124271554Y-137339819D01*
X124271554Y-137339819D02*
X124271554Y-137435057D01*
X123842983Y-138292200D02*
X123747745Y-138339819D01*
X123747745Y-138339819D02*
X123557269Y-138339819D01*
X123557269Y-138339819D02*
X123462031Y-138292200D01*
X123462031Y-138292200D02*
X123414412Y-138196961D01*
X123414412Y-138196961D02*
X123414412Y-138149342D01*
X123414412Y-138149342D02*
X123462031Y-138054104D01*
X123462031Y-138054104D02*
X123557269Y-138006485D01*
X123557269Y-138006485D02*
X123700126Y-138006485D01*
X123700126Y-138006485D02*
X123795364Y-137958866D01*
X123795364Y-137958866D02*
X123842983Y-137863628D01*
X123842983Y-137863628D02*
X123842983Y-137816009D01*
X123842983Y-137816009D02*
X123795364Y-137720771D01*
X123795364Y-137720771D02*
X123700126Y-137673152D01*
X123700126Y-137673152D02*
X123557269Y-137673152D01*
X123557269Y-137673152D02*
X123462031Y-137720771D01*
X122366792Y-137673152D02*
X121985840Y-137673152D01*
X122223935Y-138339819D02*
X122223935Y-137482676D01*
X122223935Y-137482676D02*
X122176316Y-137387438D01*
X122176316Y-137387438D02*
X122081078Y-137339819D01*
X122081078Y-137339819D02*
X121985840Y-137339819D01*
X121223935Y-138339819D02*
X121223935Y-137816009D01*
X121223935Y-137816009D02*
X121271554Y-137720771D01*
X121271554Y-137720771D02*
X121366792Y-137673152D01*
X121366792Y-137673152D02*
X121557268Y-137673152D01*
X121557268Y-137673152D02*
X121652506Y-137720771D01*
X121223935Y-138292200D02*
X121319173Y-138339819D01*
X121319173Y-138339819D02*
X121557268Y-138339819D01*
X121557268Y-138339819D02*
X121652506Y-138292200D01*
X121652506Y-138292200D02*
X121700125Y-138196961D01*
X121700125Y-138196961D02*
X121700125Y-138101723D01*
X121700125Y-138101723D02*
X121652506Y-138006485D01*
X121652506Y-138006485D02*
X121557268Y-137958866D01*
X121557268Y-137958866D02*
X121319173Y-137958866D01*
X121319173Y-137958866D02*
X121223935Y-137911247D01*
X120319173Y-138292200D02*
X120414411Y-138339819D01*
X120414411Y-138339819D02*
X120604887Y-138339819D01*
X120604887Y-138339819D02*
X120700125Y-138292200D01*
X120700125Y-138292200D02*
X120747744Y-138244580D01*
X120747744Y-138244580D02*
X120795363Y-138149342D01*
X120795363Y-138149342D02*
X120795363Y-137863628D01*
X120795363Y-137863628D02*
X120747744Y-137768390D01*
X120747744Y-137768390D02*
X120700125Y-137720771D01*
X120700125Y-137720771D02*
X120604887Y-137673152D01*
X120604887Y-137673152D02*
X120414411Y-137673152D01*
X120414411Y-137673152D02*
X120319173Y-137720771D01*
X119509649Y-138292200D02*
X119604887Y-138339819D01*
X119604887Y-138339819D02*
X119795363Y-138339819D01*
X119795363Y-138339819D02*
X119890601Y-138292200D01*
X119890601Y-138292200D02*
X119938220Y-138196961D01*
X119938220Y-138196961D02*
X119938220Y-137816009D01*
X119938220Y-137816009D02*
X119890601Y-137720771D01*
X119890601Y-137720771D02*
X119795363Y-137673152D01*
X119795363Y-137673152D02*
X119604887Y-137673152D01*
X119604887Y-137673152D02*
X119509649Y-137720771D01*
X119509649Y-137720771D02*
X119462030Y-137816009D01*
X119462030Y-137816009D02*
X119462030Y-137911247D01*
X119462030Y-137911247D02*
X119938220Y-138006485D01*
X118271553Y-138339819D02*
X118271553Y-137673152D01*
X118271553Y-137339819D02*
X118319172Y-137387438D01*
X118319172Y-137387438D02*
X118271553Y-137435057D01*
X118271553Y-137435057D02*
X118223934Y-137387438D01*
X118223934Y-137387438D02*
X118271553Y-137339819D01*
X118271553Y-137339819D02*
X118271553Y-137435057D01*
X117795363Y-137673152D02*
X117795363Y-138339819D01*
X117795363Y-137768390D02*
X117747744Y-137720771D01*
X117747744Y-137720771D02*
X117652506Y-137673152D01*
X117652506Y-137673152D02*
X117509649Y-137673152D01*
X117509649Y-137673152D02*
X117414411Y-137720771D01*
X117414411Y-137720771D02*
X117366792Y-137816009D01*
X117366792Y-137816009D02*
X117366792Y-138339819D01*
X115700125Y-138292200D02*
X115795363Y-138339819D01*
X115795363Y-138339819D02*
X115985839Y-138339819D01*
X115985839Y-138339819D02*
X116081077Y-138292200D01*
X116081077Y-138292200D02*
X116128696Y-138244580D01*
X116128696Y-138244580D02*
X116176315Y-138149342D01*
X116176315Y-138149342D02*
X116176315Y-137863628D01*
X116176315Y-137863628D02*
X116128696Y-137768390D01*
X116128696Y-137768390D02*
X116081077Y-137720771D01*
X116081077Y-137720771D02*
X115985839Y-137673152D01*
X115985839Y-137673152D02*
X115795363Y-137673152D01*
X115795363Y-137673152D02*
X115700125Y-137720771D01*
X115128696Y-138339819D02*
X115223934Y-138292200D01*
X115223934Y-138292200D02*
X115271553Y-138244580D01*
X115271553Y-138244580D02*
X115319172Y-138149342D01*
X115319172Y-138149342D02*
X115319172Y-137863628D01*
X115319172Y-137863628D02*
X115271553Y-137768390D01*
X115271553Y-137768390D02*
X115223934Y-137720771D01*
X115223934Y-137720771D02*
X115128696Y-137673152D01*
X115128696Y-137673152D02*
X114985839Y-137673152D01*
X114985839Y-137673152D02*
X114890601Y-137720771D01*
X114890601Y-137720771D02*
X114842982Y-137768390D01*
X114842982Y-137768390D02*
X114795363Y-137863628D01*
X114795363Y-137863628D02*
X114795363Y-138149342D01*
X114795363Y-138149342D02*
X114842982Y-138244580D01*
X114842982Y-138244580D02*
X114890601Y-138292200D01*
X114890601Y-138292200D02*
X114985839Y-138339819D01*
X114985839Y-138339819D02*
X115128696Y-138339819D01*
X114366791Y-137673152D02*
X114366791Y-138339819D01*
X114366791Y-137768390D02*
X114319172Y-137720771D01*
X114319172Y-137720771D02*
X114223934Y-137673152D01*
X114223934Y-137673152D02*
X114081077Y-137673152D01*
X114081077Y-137673152D02*
X113985839Y-137720771D01*
X113985839Y-137720771D02*
X113938220Y-137816009D01*
X113938220Y-137816009D02*
X113938220Y-138339819D01*
X113604886Y-137673152D02*
X113223934Y-137673152D01*
X113462029Y-137339819D02*
X113462029Y-138196961D01*
X113462029Y-138196961D02*
X113414410Y-138292200D01*
X113414410Y-138292200D02*
X113319172Y-138339819D01*
X113319172Y-138339819D02*
X113223934Y-138339819D01*
X112462029Y-138339819D02*
X112462029Y-137816009D01*
X112462029Y-137816009D02*
X112509648Y-137720771D01*
X112509648Y-137720771D02*
X112604886Y-137673152D01*
X112604886Y-137673152D02*
X112795362Y-137673152D01*
X112795362Y-137673152D02*
X112890600Y-137720771D01*
X112462029Y-138292200D02*
X112557267Y-138339819D01*
X112557267Y-138339819D02*
X112795362Y-138339819D01*
X112795362Y-138339819D02*
X112890600Y-138292200D01*
X112890600Y-138292200D02*
X112938219Y-138196961D01*
X112938219Y-138196961D02*
X112938219Y-138101723D01*
X112938219Y-138101723D02*
X112890600Y-138006485D01*
X112890600Y-138006485D02*
X112795362Y-137958866D01*
X112795362Y-137958866D02*
X112557267Y-137958866D01*
X112557267Y-137958866D02*
X112462029Y-137911247D01*
X111557267Y-138292200D02*
X111652505Y-138339819D01*
X111652505Y-138339819D02*
X111842981Y-138339819D01*
X111842981Y-138339819D02*
X111938219Y-138292200D01*
X111938219Y-138292200D02*
X111985838Y-138244580D01*
X111985838Y-138244580D02*
X112033457Y-138149342D01*
X112033457Y-138149342D02*
X112033457Y-137863628D01*
X112033457Y-137863628D02*
X111985838Y-137768390D01*
X111985838Y-137768390D02*
X111938219Y-137720771D01*
X111938219Y-137720771D02*
X111842981Y-137673152D01*
X111842981Y-137673152D02*
X111652505Y-137673152D01*
X111652505Y-137673152D02*
X111557267Y-137720771D01*
X111271552Y-137673152D02*
X110890600Y-137673152D01*
X111128695Y-137339819D02*
X111128695Y-138196961D01*
X111128695Y-138196961D02*
X111081076Y-138292200D01*
X111081076Y-138292200D02*
X110985838Y-138339819D01*
X110985838Y-138339819D02*
X110890600Y-138339819D01*
X109890599Y-137673152D02*
X109700123Y-138339819D01*
X109700123Y-138339819D02*
X109509647Y-137863628D01*
X109509647Y-137863628D02*
X109319171Y-138339819D01*
X109319171Y-138339819D02*
X109128695Y-137673152D01*
X108747742Y-138339819D02*
X108747742Y-137673152D01*
X108747742Y-137339819D02*
X108795361Y-137387438D01*
X108795361Y-137387438D02*
X108747742Y-137435057D01*
X108747742Y-137435057D02*
X108700123Y-137387438D01*
X108700123Y-137387438D02*
X108747742Y-137339819D01*
X108747742Y-137339819D02*
X108747742Y-137435057D01*
X108414409Y-137673152D02*
X108033457Y-137673152D01*
X108271552Y-137339819D02*
X108271552Y-138196961D01*
X108271552Y-138196961D02*
X108223933Y-138292200D01*
X108223933Y-138292200D02*
X108128695Y-138339819D01*
X108128695Y-138339819D02*
X108033457Y-138339819D01*
X107700123Y-138339819D02*
X107700123Y-137339819D01*
X107271552Y-138339819D02*
X107271552Y-137816009D01*
X107271552Y-137816009D02*
X107319171Y-137720771D01*
X107319171Y-137720771D02*
X107414409Y-137673152D01*
X107414409Y-137673152D02*
X107557266Y-137673152D01*
X107557266Y-137673152D02*
X107652504Y-137720771D01*
X107652504Y-137720771D02*
X107700123Y-137768390D01*
X106176313Y-137673152D02*
X105795361Y-137673152D01*
X106033456Y-138339819D02*
X106033456Y-137482676D01*
X106033456Y-137482676D02*
X105985837Y-137387438D01*
X105985837Y-137387438D02*
X105890599Y-137339819D01*
X105890599Y-137339819D02*
X105795361Y-137339819D01*
X105462027Y-138339819D02*
X105462027Y-137673152D01*
X105462027Y-137339819D02*
X105509646Y-137387438D01*
X105509646Y-137387438D02*
X105462027Y-137435057D01*
X105462027Y-137435057D02*
X105414408Y-137387438D01*
X105414408Y-137387438D02*
X105462027Y-137339819D01*
X105462027Y-137339819D02*
X105462027Y-137435057D01*
X104985837Y-137673152D02*
X104985837Y-138339819D01*
X104985837Y-137768390D02*
X104938218Y-137720771D01*
X104938218Y-137720771D02*
X104842980Y-137673152D01*
X104842980Y-137673152D02*
X104700123Y-137673152D01*
X104700123Y-137673152D02*
X104604885Y-137720771D01*
X104604885Y-137720771D02*
X104557266Y-137816009D01*
X104557266Y-137816009D02*
X104557266Y-138339819D01*
X103652504Y-137673152D02*
X103652504Y-138482676D01*
X103652504Y-138482676D02*
X103700123Y-138577914D01*
X103700123Y-138577914D02*
X103747742Y-138625533D01*
X103747742Y-138625533D02*
X103842980Y-138673152D01*
X103842980Y-138673152D02*
X103985837Y-138673152D01*
X103985837Y-138673152D02*
X104081075Y-138625533D01*
X103652504Y-138292200D02*
X103747742Y-138339819D01*
X103747742Y-138339819D02*
X103938218Y-138339819D01*
X103938218Y-138339819D02*
X104033456Y-138292200D01*
X104033456Y-138292200D02*
X104081075Y-138244580D01*
X104081075Y-138244580D02*
X104128694Y-138149342D01*
X104128694Y-138149342D02*
X104128694Y-137863628D01*
X104128694Y-137863628D02*
X104081075Y-137768390D01*
X104081075Y-137768390D02*
X104033456Y-137720771D01*
X104033456Y-137720771D02*
X103938218Y-137673152D01*
X103938218Y-137673152D02*
X103747742Y-137673152D01*
X103747742Y-137673152D02*
X103652504Y-137720771D01*
X102795361Y-138292200D02*
X102890599Y-138339819D01*
X102890599Y-138339819D02*
X103081075Y-138339819D01*
X103081075Y-138339819D02*
X103176313Y-138292200D01*
X103176313Y-138292200D02*
X103223932Y-138196961D01*
X103223932Y-138196961D02*
X103223932Y-137816009D01*
X103223932Y-137816009D02*
X103176313Y-137720771D01*
X103176313Y-137720771D02*
X103081075Y-137673152D01*
X103081075Y-137673152D02*
X102890599Y-137673152D01*
X102890599Y-137673152D02*
X102795361Y-137720771D01*
X102795361Y-137720771D02*
X102747742Y-137816009D01*
X102747742Y-137816009D02*
X102747742Y-137911247D01*
X102747742Y-137911247D02*
X103223932Y-138006485D01*
X102319170Y-138339819D02*
X102319170Y-137673152D01*
X102319170Y-137863628D02*
X102271551Y-137768390D01*
X102271551Y-137768390D02*
X102223932Y-137720771D01*
X102223932Y-137720771D02*
X102128694Y-137673152D01*
X102128694Y-137673152D02*
X102033456Y-137673152D01*
X101700122Y-138244580D02*
X101652503Y-138292200D01*
X101652503Y-138292200D02*
X101700122Y-138339819D01*
X101700122Y-138339819D02*
X101747741Y-138292200D01*
X101747741Y-138292200D02*
X101700122Y-138244580D01*
X101700122Y-138244580D02*
X101700122Y-138339819D01*
X118260832Y-146869819D02*
X117594166Y-146869819D01*
X117594166Y-146869819D02*
X118022737Y-147869819D01*
X105885838Y-146965057D02*
X105838219Y-146917438D01*
X105838219Y-146917438D02*
X105742981Y-146869819D01*
X105742981Y-146869819D02*
X105504886Y-146869819D01*
X105504886Y-146869819D02*
X105409648Y-146917438D01*
X105409648Y-146917438D02*
X105362029Y-146965057D01*
X105362029Y-146965057D02*
X105314410Y-147060295D01*
X105314410Y-147060295D02*
X105314410Y-147155533D01*
X105314410Y-147155533D02*
X105362029Y-147298390D01*
X105362029Y-147298390D02*
X105933457Y-147869819D01*
X105933457Y-147869819D02*
X105314410Y-147869819D01*
X112758454Y-146869819D02*
X113234644Y-146869819D01*
X113234644Y-146869819D02*
X113282263Y-147346009D01*
X113282263Y-147346009D02*
X113234644Y-147298390D01*
X113234644Y-147298390D02*
X113139406Y-147250771D01*
X113139406Y-147250771D02*
X112901311Y-147250771D01*
X112901311Y-147250771D02*
X112806073Y-147298390D01*
X112806073Y-147298390D02*
X112758454Y-147346009D01*
X112758454Y-147346009D02*
X112710835Y-147441247D01*
X112710835Y-147441247D02*
X112710835Y-147679342D01*
X112710835Y-147679342D02*
X112758454Y-147774580D01*
X112758454Y-147774580D02*
X112806073Y-147822200D01*
X112806073Y-147822200D02*
X112901311Y-147869819D01*
X112901311Y-147869819D02*
X113139406Y-147869819D01*
X113139406Y-147869819D02*
X113234644Y-147822200D01*
X113234644Y-147822200D02*
X113282263Y-147774580D01*
X108398932Y-146869819D02*
X107779885Y-146869819D01*
X107779885Y-146869819D02*
X108113218Y-147250771D01*
X108113218Y-147250771D02*
X107970361Y-147250771D01*
X107970361Y-147250771D02*
X107875123Y-147298390D01*
X107875123Y-147298390D02*
X107827504Y-147346009D01*
X107827504Y-147346009D02*
X107779885Y-147441247D01*
X107779885Y-147441247D02*
X107779885Y-147679342D01*
X107779885Y-147679342D02*
X107827504Y-147774580D01*
X107827504Y-147774580D02*
X107875123Y-147822200D01*
X107875123Y-147822200D02*
X107970361Y-147869819D01*
X107970361Y-147869819D02*
X108256075Y-147869819D01*
X108256075Y-147869819D02*
X108351313Y-147822200D01*
X108351313Y-147822200D02*
X108398932Y-147774580D01*
X125990591Y-147869819D02*
X126562019Y-147869819D01*
X126276305Y-147869819D02*
X126276305Y-146869819D01*
X126276305Y-146869819D02*
X126371543Y-147012676D01*
X126371543Y-147012676D02*
X126466781Y-147107914D01*
X126466781Y-147107914D02*
X126562019Y-147155533D01*
X125371543Y-146869819D02*
X125276305Y-146869819D01*
X125276305Y-146869819D02*
X125181067Y-146917438D01*
X125181067Y-146917438D02*
X125133448Y-146965057D01*
X125133448Y-146965057D02*
X125085829Y-147060295D01*
X125085829Y-147060295D02*
X125038210Y-147250771D01*
X125038210Y-147250771D02*
X125038210Y-147488866D01*
X125038210Y-147488866D02*
X125085829Y-147679342D01*
X125085829Y-147679342D02*
X125133448Y-147774580D01*
X125133448Y-147774580D02*
X125181067Y-147822200D01*
X125181067Y-147822200D02*
X125276305Y-147869819D01*
X125276305Y-147869819D02*
X125371543Y-147869819D01*
X125371543Y-147869819D02*
X125466781Y-147822200D01*
X125466781Y-147822200D02*
X125514400Y-147774580D01*
X125514400Y-147774580D02*
X125562019Y-147679342D01*
X125562019Y-147679342D02*
X125609638Y-147488866D01*
X125609638Y-147488866D02*
X125609638Y-147250771D01*
X125609638Y-147250771D02*
X125562019Y-147060295D01*
X125562019Y-147060295D02*
X125514400Y-146965057D01*
X125514400Y-146965057D02*
X125466781Y-146917438D01*
X125466781Y-146917438D02*
X125371543Y-146869819D01*
X115271548Y-146869819D02*
X115462024Y-146869819D01*
X115462024Y-146869819D02*
X115557262Y-146917438D01*
X115557262Y-146917438D02*
X115604881Y-146965057D01*
X115604881Y-146965057D02*
X115700119Y-147107914D01*
X115700119Y-147107914D02*
X115747738Y-147298390D01*
X115747738Y-147298390D02*
X115747738Y-147679342D01*
X115747738Y-147679342D02*
X115700119Y-147774580D01*
X115700119Y-147774580D02*
X115652500Y-147822200D01*
X115652500Y-147822200D02*
X115557262Y-147869819D01*
X115557262Y-147869819D02*
X115366786Y-147869819D01*
X115366786Y-147869819D02*
X115271548Y-147822200D01*
X115271548Y-147822200D02*
X115223929Y-147774580D01*
X115223929Y-147774580D02*
X115176310Y-147679342D01*
X115176310Y-147679342D02*
X115176310Y-147441247D01*
X115176310Y-147441247D02*
X115223929Y-147346009D01*
X115223929Y-147346009D02*
X115271548Y-147298390D01*
X115271548Y-147298390D02*
X115366786Y-147250771D01*
X115366786Y-147250771D02*
X115557262Y-147250771D01*
X115557262Y-147250771D02*
X115652500Y-147298390D01*
X115652500Y-147298390D02*
X115700119Y-147346009D01*
X115700119Y-147346009D02*
X115747738Y-147441247D01*
X151129887Y-69846009D02*
X151463220Y-69846009D01*
X151463220Y-70369819D02*
X151463220Y-69369819D01*
X151463220Y-69369819D02*
X150987030Y-69369819D01*
X150653696Y-70322200D02*
X150510839Y-70369819D01*
X150510839Y-70369819D02*
X150272744Y-70369819D01*
X150272744Y-70369819D02*
X150177506Y-70322200D01*
X150177506Y-70322200D02*
X150129887Y-70274580D01*
X150129887Y-70274580D02*
X150082268Y-70179342D01*
X150082268Y-70179342D02*
X150082268Y-70084104D01*
X150082268Y-70084104D02*
X150129887Y-69988866D01*
X150129887Y-69988866D02*
X150177506Y-69941247D01*
X150177506Y-69941247D02*
X150272744Y-69893628D01*
X150272744Y-69893628D02*
X150463220Y-69846009D01*
X150463220Y-69846009D02*
X150558458Y-69798390D01*
X150558458Y-69798390D02*
X150606077Y-69750771D01*
X150606077Y-69750771D02*
X150653696Y-69655533D01*
X150653696Y-69655533D02*
X150653696Y-69560295D01*
X150653696Y-69560295D02*
X150606077Y-69465057D01*
X150606077Y-69465057D02*
X150558458Y-69417438D01*
X150558458Y-69417438D02*
X150463220Y-69369819D01*
X150463220Y-69369819D02*
X150225125Y-69369819D01*
X150225125Y-69369819D02*
X150082268Y-69417438D01*
X149082268Y-70369819D02*
X149415601Y-69893628D01*
X149653696Y-70369819D02*
X149653696Y-69369819D01*
X149653696Y-69369819D02*
X149272744Y-69369819D01*
X149272744Y-69369819D02*
X149177506Y-69417438D01*
X149177506Y-69417438D02*
X149129887Y-69465057D01*
X149129887Y-69465057D02*
X149082268Y-69560295D01*
X149082268Y-69560295D02*
X149082268Y-69703152D01*
X149082268Y-69703152D02*
X149129887Y-69798390D01*
X149129887Y-69798390D02*
X149177506Y-69846009D01*
X149177506Y-69846009D02*
X149272744Y-69893628D01*
X149272744Y-69893628D02*
X149653696Y-69893628D01*
X147367982Y-70369819D02*
X147939410Y-70369819D01*
X147653696Y-70369819D02*
X147653696Y-69369819D01*
X147653696Y-69369819D02*
X147748934Y-69512676D01*
X147748934Y-69512676D02*
X147844172Y-69607914D01*
X147844172Y-69607914D02*
X147939410Y-69655533D01*
X146415601Y-70369819D02*
X146987029Y-70369819D01*
X146701315Y-70369819D02*
X146701315Y-69369819D01*
X146701315Y-69369819D02*
X146796553Y-69512676D01*
X146796553Y-69512676D02*
X146891791Y-69607914D01*
X146891791Y-69607914D02*
X146987029Y-69655533D01*
X120488212Y-147298390D02*
X120583450Y-147250771D01*
X120583450Y-147250771D02*
X120631069Y-147203152D01*
X120631069Y-147203152D02*
X120678688Y-147107914D01*
X120678688Y-147107914D02*
X120678688Y-147060295D01*
X120678688Y-147060295D02*
X120631069Y-146965057D01*
X120631069Y-146965057D02*
X120583450Y-146917438D01*
X120583450Y-146917438D02*
X120488212Y-146869819D01*
X120488212Y-146869819D02*
X120297736Y-146869819D01*
X120297736Y-146869819D02*
X120202498Y-146917438D01*
X120202498Y-146917438D02*
X120154879Y-146965057D01*
X120154879Y-146965057D02*
X120107260Y-147060295D01*
X120107260Y-147060295D02*
X120107260Y-147107914D01*
X120107260Y-147107914D02*
X120154879Y-147203152D01*
X120154879Y-147203152D02*
X120202498Y-147250771D01*
X120202498Y-147250771D02*
X120297736Y-147298390D01*
X120297736Y-147298390D02*
X120488212Y-147298390D01*
X120488212Y-147298390D02*
X120583450Y-147346009D01*
X120583450Y-147346009D02*
X120631069Y-147393628D01*
X120631069Y-147393628D02*
X120678688Y-147488866D01*
X120678688Y-147488866D02*
X120678688Y-147679342D01*
X120678688Y-147679342D02*
X120631069Y-147774580D01*
X120631069Y-147774580D02*
X120583450Y-147822200D01*
X120583450Y-147822200D02*
X120488212Y-147869819D01*
X120488212Y-147869819D02*
X120297736Y-147869819D01*
X120297736Y-147869819D02*
X120202498Y-147822200D01*
X120202498Y-147822200D02*
X120154879Y-147774580D01*
X120154879Y-147774580D02*
X120107260Y-147679342D01*
X120107260Y-147679342D02*
X120107260Y-147488866D01*
X120107260Y-147488866D02*
X120154879Y-147393628D01*
X120154879Y-147393628D02*
X120202498Y-147346009D01*
X120202498Y-147346009D02*
X120297736Y-147298390D01*
%LPC*%
D11*
X116150000Y-78650000D03*
D12*
X116150000Y-73650000D03*
X153450000Y-78650000D03*
X153450000Y-73650000D03*
D13*
X116149996Y-143650000D03*
X108324999Y-143650000D03*
X123974995Y-143650000D03*
X121366662Y-143650000D03*
X113541663Y-143650000D03*
X110933330Y-143650000D03*
X129191661Y-143650000D03*
X105716666Y-143650000D03*
X126583328Y-143650000D03*
X118758329Y-143650000D03*
X103108333Y-143650000D03*
%LPD*%
M02*
