G04 #@! TF.GenerationSoftware,KiCad,Pcbnew,7.0.7*
G04 #@! TF.CreationDate,2024-10-25T09:44:25+02:00*
G04 #@! TF.ProjectId,Benhui_Tongue,42656e68-7569-45f5-946f-6e6775652e6b,rev?*
G04 #@! TF.SameCoordinates,Original*
G04 #@! TF.FileFunction,Other,User*
%FSLAX46Y46*%
G04 Gerber Fmt 4.6, Leading zero omitted, Abs format (unit mm)*
G04 Created by KiCad (PCBNEW 7.0.7) date 2024-10-25 09:44:25*
%MOMM*%
%LPD*%
G01*
G04 APERTURE LIST*
%ADD10C,0.150000*%
G04 APERTURE END LIST*
D10*
X94200000Y-111100000D02*
X144200000Y-111100000D01*
X144200000Y-179100000D01*
X94200000Y-179100000D01*
X94200000Y-111100000D01*
X154893922Y-158359819D02*
X155465350Y-158359819D01*
X155179636Y-159359819D02*
X155179636Y-158359819D01*
X155798684Y-159359819D02*
X155798684Y-158359819D01*
X156227255Y-159359819D02*
X156227255Y-158836009D01*
X156227255Y-158836009D02*
X156179636Y-158740771D01*
X156179636Y-158740771D02*
X156084398Y-158693152D01*
X156084398Y-158693152D02*
X155941541Y-158693152D01*
X155941541Y-158693152D02*
X155846303Y-158740771D01*
X155846303Y-158740771D02*
X155798684Y-158788390D01*
X156703446Y-159359819D02*
X156703446Y-158693152D01*
X156703446Y-158359819D02*
X156655827Y-158407438D01*
X156655827Y-158407438D02*
X156703446Y-158455057D01*
X156703446Y-158455057D02*
X156751065Y-158407438D01*
X156751065Y-158407438D02*
X156703446Y-158359819D01*
X156703446Y-158359819D02*
X156703446Y-158455057D01*
X157608207Y-159312200D02*
X157512969Y-159359819D01*
X157512969Y-159359819D02*
X157322493Y-159359819D01*
X157322493Y-159359819D02*
X157227255Y-159312200D01*
X157227255Y-159312200D02*
X157179636Y-159264580D01*
X157179636Y-159264580D02*
X157132017Y-159169342D01*
X157132017Y-159169342D02*
X157132017Y-158883628D01*
X157132017Y-158883628D02*
X157179636Y-158788390D01*
X157179636Y-158788390D02*
X157227255Y-158740771D01*
X157227255Y-158740771D02*
X157322493Y-158693152D01*
X157322493Y-158693152D02*
X157512969Y-158693152D01*
X157512969Y-158693152D02*
X157608207Y-158740771D01*
X158036779Y-159359819D02*
X158036779Y-158359819D01*
X158132017Y-158978866D02*
X158417731Y-159359819D01*
X158417731Y-158693152D02*
X158036779Y-159074104D01*
X158846303Y-158693152D02*
X158846303Y-159359819D01*
X158846303Y-158788390D02*
X158893922Y-158740771D01*
X158893922Y-158740771D02*
X158989160Y-158693152D01*
X158989160Y-158693152D02*
X159132017Y-158693152D01*
X159132017Y-158693152D02*
X159227255Y-158740771D01*
X159227255Y-158740771D02*
X159274874Y-158836009D01*
X159274874Y-158836009D02*
X159274874Y-159359819D01*
X160132017Y-159312200D02*
X160036779Y-159359819D01*
X160036779Y-159359819D02*
X159846303Y-159359819D01*
X159846303Y-159359819D02*
X159751065Y-159312200D01*
X159751065Y-159312200D02*
X159703446Y-159216961D01*
X159703446Y-159216961D02*
X159703446Y-158836009D01*
X159703446Y-158836009D02*
X159751065Y-158740771D01*
X159751065Y-158740771D02*
X159846303Y-158693152D01*
X159846303Y-158693152D02*
X160036779Y-158693152D01*
X160036779Y-158693152D02*
X160132017Y-158740771D01*
X160132017Y-158740771D02*
X160179636Y-158836009D01*
X160179636Y-158836009D02*
X160179636Y-158931247D01*
X160179636Y-158931247D02*
X159703446Y-159026485D01*
X160560589Y-159312200D02*
X160655827Y-159359819D01*
X160655827Y-159359819D02*
X160846303Y-159359819D01*
X160846303Y-159359819D02*
X160941541Y-159312200D01*
X160941541Y-159312200D02*
X160989160Y-159216961D01*
X160989160Y-159216961D02*
X160989160Y-159169342D01*
X160989160Y-159169342D02*
X160941541Y-159074104D01*
X160941541Y-159074104D02*
X160846303Y-159026485D01*
X160846303Y-159026485D02*
X160703446Y-159026485D01*
X160703446Y-159026485D02*
X160608208Y-158978866D01*
X160608208Y-158978866D02*
X160560589Y-158883628D01*
X160560589Y-158883628D02*
X160560589Y-158836009D01*
X160560589Y-158836009D02*
X160608208Y-158740771D01*
X160608208Y-158740771D02*
X160703446Y-158693152D01*
X160703446Y-158693152D02*
X160846303Y-158693152D01*
X160846303Y-158693152D02*
X160941541Y-158740771D01*
X161370113Y-159312200D02*
X161465351Y-159359819D01*
X161465351Y-159359819D02*
X161655827Y-159359819D01*
X161655827Y-159359819D02*
X161751065Y-159312200D01*
X161751065Y-159312200D02*
X161798684Y-159216961D01*
X161798684Y-159216961D02*
X161798684Y-159169342D01*
X161798684Y-159169342D02*
X161751065Y-159074104D01*
X161751065Y-159074104D02*
X161655827Y-159026485D01*
X161655827Y-159026485D02*
X161512970Y-159026485D01*
X161512970Y-159026485D02*
X161417732Y-158978866D01*
X161417732Y-158978866D02*
X161370113Y-158883628D01*
X161370113Y-158883628D02*
X161370113Y-158836009D01*
X161370113Y-158836009D02*
X161417732Y-158740771D01*
X161417732Y-158740771D02*
X161512970Y-158693152D01*
X161512970Y-158693152D02*
X161655827Y-158693152D01*
X161655827Y-158693152D02*
X161751065Y-158740771D01*
X162989161Y-158836009D02*
X163751066Y-158836009D01*
X163751066Y-159121723D02*
X162989161Y-159121723D01*
X165179637Y-158359819D02*
X165274875Y-158359819D01*
X165274875Y-158359819D02*
X165370113Y-158407438D01*
X165370113Y-158407438D02*
X165417732Y-158455057D01*
X165417732Y-158455057D02*
X165465351Y-158550295D01*
X165465351Y-158550295D02*
X165512970Y-158740771D01*
X165512970Y-158740771D02*
X165512970Y-158978866D01*
X165512970Y-158978866D02*
X165465351Y-159169342D01*
X165465351Y-159169342D02*
X165417732Y-159264580D01*
X165417732Y-159264580D02*
X165370113Y-159312200D01*
X165370113Y-159312200D02*
X165274875Y-159359819D01*
X165274875Y-159359819D02*
X165179637Y-159359819D01*
X165179637Y-159359819D02*
X165084399Y-159312200D01*
X165084399Y-159312200D02*
X165036780Y-159264580D01*
X165036780Y-159264580D02*
X164989161Y-159169342D01*
X164989161Y-159169342D02*
X164941542Y-158978866D01*
X164941542Y-158978866D02*
X164941542Y-158740771D01*
X164941542Y-158740771D02*
X164989161Y-158550295D01*
X164989161Y-158550295D02*
X165036780Y-158455057D01*
X165036780Y-158455057D02*
X165084399Y-158407438D01*
X165084399Y-158407438D02*
X165179637Y-158359819D01*
X165941542Y-159264580D02*
X165989161Y-159312200D01*
X165989161Y-159312200D02*
X165941542Y-159359819D01*
X165941542Y-159359819D02*
X165893923Y-159312200D01*
X165893923Y-159312200D02*
X165941542Y-159264580D01*
X165941542Y-159264580D02*
X165941542Y-159359819D01*
X166370113Y-158455057D02*
X166417732Y-158407438D01*
X166417732Y-158407438D02*
X166512970Y-158359819D01*
X166512970Y-158359819D02*
X166751065Y-158359819D01*
X166751065Y-158359819D02*
X166846303Y-158407438D01*
X166846303Y-158407438D02*
X166893922Y-158455057D01*
X166893922Y-158455057D02*
X166941541Y-158550295D01*
X166941541Y-158550295D02*
X166941541Y-158645533D01*
X166941541Y-158645533D02*
X166893922Y-158788390D01*
X166893922Y-158788390D02*
X166322494Y-159359819D01*
X166322494Y-159359819D02*
X166941541Y-159359819D01*
X167322494Y-158455057D02*
X167370113Y-158407438D01*
X167370113Y-158407438D02*
X167465351Y-158359819D01*
X167465351Y-158359819D02*
X167703446Y-158359819D01*
X167703446Y-158359819D02*
X167798684Y-158407438D01*
X167798684Y-158407438D02*
X167846303Y-158455057D01*
X167846303Y-158455057D02*
X167893922Y-158550295D01*
X167893922Y-158550295D02*
X167893922Y-158645533D01*
X167893922Y-158645533D02*
X167846303Y-158788390D01*
X167846303Y-158788390D02*
X167274875Y-159359819D01*
X167274875Y-159359819D02*
X167893922Y-159359819D01*
X168798684Y-158359819D02*
X168322494Y-158359819D01*
X168322494Y-158359819D02*
X168274875Y-158836009D01*
X168274875Y-158836009D02*
X168322494Y-158788390D01*
X168322494Y-158788390D02*
X168417732Y-158740771D01*
X168417732Y-158740771D02*
X168655827Y-158740771D01*
X168655827Y-158740771D02*
X168751065Y-158788390D01*
X168751065Y-158788390D02*
X168798684Y-158836009D01*
X168798684Y-158836009D02*
X168846303Y-158931247D01*
X168846303Y-158931247D02*
X168846303Y-159169342D01*
X168846303Y-159169342D02*
X168798684Y-159264580D01*
X168798684Y-159264580D02*
X168751065Y-159312200D01*
X168751065Y-159312200D02*
X168655827Y-159359819D01*
X168655827Y-159359819D02*
X168417732Y-159359819D01*
X168417732Y-159359819D02*
X168322494Y-159312200D01*
X168322494Y-159312200D02*
X168274875Y-159264580D01*
X169274875Y-159359819D02*
X169274875Y-158693152D01*
X169274875Y-158788390D02*
X169322494Y-158740771D01*
X169322494Y-158740771D02*
X169417732Y-158693152D01*
X169417732Y-158693152D02*
X169560589Y-158693152D01*
X169560589Y-158693152D02*
X169655827Y-158740771D01*
X169655827Y-158740771D02*
X169703446Y-158836009D01*
X169703446Y-158836009D02*
X169703446Y-159359819D01*
X169703446Y-158836009D02*
X169751065Y-158740771D01*
X169751065Y-158740771D02*
X169846303Y-158693152D01*
X169846303Y-158693152D02*
X169989160Y-158693152D01*
X169989160Y-158693152D02*
X170084399Y-158740771D01*
X170084399Y-158740771D02*
X170132018Y-158836009D01*
X170132018Y-158836009D02*
X170132018Y-159359819D01*
X170608208Y-159359819D02*
X170608208Y-158693152D01*
X170608208Y-158788390D02*
X170655827Y-158740771D01*
X170655827Y-158740771D02*
X170751065Y-158693152D01*
X170751065Y-158693152D02*
X170893922Y-158693152D01*
X170893922Y-158693152D02*
X170989160Y-158740771D01*
X170989160Y-158740771D02*
X171036779Y-158836009D01*
X171036779Y-158836009D02*
X171036779Y-159359819D01*
X171036779Y-158836009D02*
X171084398Y-158740771D01*
X171084398Y-158740771D02*
X171179636Y-158693152D01*
X171179636Y-158693152D02*
X171322493Y-158693152D01*
X171322493Y-158693152D02*
X171417732Y-158740771D01*
X171417732Y-158740771D02*
X171465351Y-158836009D01*
X171465351Y-158836009D02*
X171465351Y-159359819D01*
X155036779Y-160969819D02*
X155036779Y-159969819D01*
X155036779Y-159969819D02*
X155417731Y-159969819D01*
X155417731Y-159969819D02*
X155512969Y-160017438D01*
X155512969Y-160017438D02*
X155560588Y-160065057D01*
X155560588Y-160065057D02*
X155608207Y-160160295D01*
X155608207Y-160160295D02*
X155608207Y-160303152D01*
X155608207Y-160303152D02*
X155560588Y-160398390D01*
X155560588Y-160398390D02*
X155512969Y-160446009D01*
X155512969Y-160446009D02*
X155417731Y-160493628D01*
X155417731Y-160493628D02*
X155036779Y-160493628D01*
X156179636Y-160969819D02*
X156084398Y-160922200D01*
X156084398Y-160922200D02*
X156036779Y-160874580D01*
X156036779Y-160874580D02*
X155989160Y-160779342D01*
X155989160Y-160779342D02*
X155989160Y-160493628D01*
X155989160Y-160493628D02*
X156036779Y-160398390D01*
X156036779Y-160398390D02*
X156084398Y-160350771D01*
X156084398Y-160350771D02*
X156179636Y-160303152D01*
X156179636Y-160303152D02*
X156322493Y-160303152D01*
X156322493Y-160303152D02*
X156417731Y-160350771D01*
X156417731Y-160350771D02*
X156465350Y-160398390D01*
X156465350Y-160398390D02*
X156512969Y-160493628D01*
X156512969Y-160493628D02*
X156512969Y-160779342D01*
X156512969Y-160779342D02*
X156465350Y-160874580D01*
X156465350Y-160874580D02*
X156417731Y-160922200D01*
X156417731Y-160922200D02*
X156322493Y-160969819D01*
X156322493Y-160969819D02*
X156179636Y-160969819D01*
X157084398Y-160969819D02*
X156989160Y-160922200D01*
X156989160Y-160922200D02*
X156941541Y-160826961D01*
X156941541Y-160826961D02*
X156941541Y-159969819D01*
X157370113Y-160303152D02*
X157608208Y-160969819D01*
X157846303Y-160303152D02*
X157608208Y-160969819D01*
X157608208Y-160969819D02*
X157512970Y-161207914D01*
X157512970Y-161207914D02*
X157465351Y-161255533D01*
X157465351Y-161255533D02*
X157370113Y-161303152D01*
X158227256Y-160969819D02*
X158227256Y-160303152D01*
X158227256Y-159969819D02*
X158179637Y-160017438D01*
X158179637Y-160017438D02*
X158227256Y-160065057D01*
X158227256Y-160065057D02*
X158274875Y-160017438D01*
X158274875Y-160017438D02*
X158227256Y-159969819D01*
X158227256Y-159969819D02*
X158227256Y-160065057D01*
X158703446Y-160969819D02*
X158703446Y-160303152D01*
X158703446Y-160398390D02*
X158751065Y-160350771D01*
X158751065Y-160350771D02*
X158846303Y-160303152D01*
X158846303Y-160303152D02*
X158989160Y-160303152D01*
X158989160Y-160303152D02*
X159084398Y-160350771D01*
X159084398Y-160350771D02*
X159132017Y-160446009D01*
X159132017Y-160446009D02*
X159132017Y-160969819D01*
X159132017Y-160446009D02*
X159179636Y-160350771D01*
X159179636Y-160350771D02*
X159274874Y-160303152D01*
X159274874Y-160303152D02*
X159417731Y-160303152D01*
X159417731Y-160303152D02*
X159512970Y-160350771D01*
X159512970Y-160350771D02*
X159560589Y-160446009D01*
X159560589Y-160446009D02*
X159560589Y-160969819D01*
X160036779Y-160969819D02*
X160036779Y-160303152D01*
X160036779Y-159969819D02*
X159989160Y-160017438D01*
X159989160Y-160017438D02*
X160036779Y-160065057D01*
X160036779Y-160065057D02*
X160084398Y-160017438D01*
X160084398Y-160017438D02*
X160036779Y-159969819D01*
X160036779Y-159969819D02*
X160036779Y-160065057D01*
X160941540Y-160969819D02*
X160941540Y-159969819D01*
X160941540Y-160922200D02*
X160846302Y-160969819D01*
X160846302Y-160969819D02*
X160655826Y-160969819D01*
X160655826Y-160969819D02*
X160560588Y-160922200D01*
X160560588Y-160922200D02*
X160512969Y-160874580D01*
X160512969Y-160874580D02*
X160465350Y-160779342D01*
X160465350Y-160779342D02*
X160465350Y-160493628D01*
X160465350Y-160493628D02*
X160512969Y-160398390D01*
X160512969Y-160398390D02*
X160560588Y-160350771D01*
X160560588Y-160350771D02*
X160655826Y-160303152D01*
X160655826Y-160303152D02*
X160846302Y-160303152D01*
X160846302Y-160303152D02*
X160941540Y-160350771D01*
X161798683Y-160922200D02*
X161703445Y-160969819D01*
X161703445Y-160969819D02*
X161512969Y-160969819D01*
X161512969Y-160969819D02*
X161417731Y-160922200D01*
X161417731Y-160922200D02*
X161370112Y-160826961D01*
X161370112Y-160826961D02*
X161370112Y-160446009D01*
X161370112Y-160446009D02*
X161417731Y-160350771D01*
X161417731Y-160350771D02*
X161512969Y-160303152D01*
X161512969Y-160303152D02*
X161703445Y-160303152D01*
X161703445Y-160303152D02*
X161798683Y-160350771D01*
X161798683Y-160350771D02*
X161846302Y-160446009D01*
X161846302Y-160446009D02*
X161846302Y-160541247D01*
X161846302Y-160541247D02*
X161370112Y-160636485D01*
X162989160Y-160922200D02*
X163084398Y-160969819D01*
X163084398Y-160969819D02*
X163274874Y-160969819D01*
X163274874Y-160969819D02*
X163370112Y-160922200D01*
X163370112Y-160922200D02*
X163417731Y-160826961D01*
X163417731Y-160826961D02*
X163417731Y-160779342D01*
X163417731Y-160779342D02*
X163370112Y-160684104D01*
X163370112Y-160684104D02*
X163274874Y-160636485D01*
X163274874Y-160636485D02*
X163132017Y-160636485D01*
X163132017Y-160636485D02*
X163036779Y-160588866D01*
X163036779Y-160588866D02*
X162989160Y-160493628D01*
X162989160Y-160493628D02*
X162989160Y-160446009D01*
X162989160Y-160446009D02*
X163036779Y-160350771D01*
X163036779Y-160350771D02*
X163132017Y-160303152D01*
X163132017Y-160303152D02*
X163274874Y-160303152D01*
X163274874Y-160303152D02*
X163370112Y-160350771D01*
X163703446Y-160303152D02*
X164084398Y-160303152D01*
X163846303Y-159969819D02*
X163846303Y-160826961D01*
X163846303Y-160826961D02*
X163893922Y-160922200D01*
X163893922Y-160922200D02*
X163989160Y-160969819D01*
X163989160Y-160969819D02*
X164084398Y-160969819D01*
X164417732Y-160969819D02*
X164417732Y-160303152D01*
X164417732Y-159969819D02*
X164370113Y-160017438D01*
X164370113Y-160017438D02*
X164417732Y-160065057D01*
X164417732Y-160065057D02*
X164465351Y-160017438D01*
X164465351Y-160017438D02*
X164417732Y-159969819D01*
X164417732Y-159969819D02*
X164417732Y-160065057D01*
X164751065Y-160303152D02*
X165132017Y-160303152D01*
X164893922Y-160969819D02*
X164893922Y-160112676D01*
X164893922Y-160112676D02*
X164941541Y-160017438D01*
X164941541Y-160017438D02*
X165036779Y-159969819D01*
X165036779Y-159969819D02*
X165132017Y-159969819D01*
X165322494Y-160303152D02*
X165703446Y-160303152D01*
X165465351Y-160969819D02*
X165465351Y-160112676D01*
X165465351Y-160112676D02*
X165512970Y-160017438D01*
X165512970Y-160017438D02*
X165608208Y-159969819D01*
X165608208Y-159969819D02*
X165703446Y-159969819D01*
X166417732Y-160922200D02*
X166322494Y-160969819D01*
X166322494Y-160969819D02*
X166132018Y-160969819D01*
X166132018Y-160969819D02*
X166036780Y-160922200D01*
X166036780Y-160922200D02*
X165989161Y-160826961D01*
X165989161Y-160826961D02*
X165989161Y-160446009D01*
X165989161Y-160446009D02*
X166036780Y-160350771D01*
X166036780Y-160350771D02*
X166132018Y-160303152D01*
X166132018Y-160303152D02*
X166322494Y-160303152D01*
X166322494Y-160303152D02*
X166417732Y-160350771D01*
X166417732Y-160350771D02*
X166465351Y-160446009D01*
X166465351Y-160446009D02*
X166465351Y-160541247D01*
X166465351Y-160541247D02*
X165989161Y-160636485D01*
X166893923Y-160303152D02*
X166893923Y-160969819D01*
X166893923Y-160398390D02*
X166941542Y-160350771D01*
X166941542Y-160350771D02*
X167036780Y-160303152D01*
X167036780Y-160303152D02*
X167179637Y-160303152D01*
X167179637Y-160303152D02*
X167274875Y-160350771D01*
X167274875Y-160350771D02*
X167322494Y-160446009D01*
X167322494Y-160446009D02*
X167322494Y-160969819D01*
X168179637Y-160922200D02*
X168084399Y-160969819D01*
X168084399Y-160969819D02*
X167893923Y-160969819D01*
X167893923Y-160969819D02*
X167798685Y-160922200D01*
X167798685Y-160922200D02*
X167751066Y-160826961D01*
X167751066Y-160826961D02*
X167751066Y-160446009D01*
X167751066Y-160446009D02*
X167798685Y-160350771D01*
X167798685Y-160350771D02*
X167893923Y-160303152D01*
X167893923Y-160303152D02*
X168084399Y-160303152D01*
X168084399Y-160303152D02*
X168179637Y-160350771D01*
X168179637Y-160350771D02*
X168227256Y-160446009D01*
X168227256Y-160446009D02*
X168227256Y-160541247D01*
X168227256Y-160541247D02*
X167751066Y-160636485D01*
X168655828Y-160969819D02*
X168655828Y-160303152D01*
X168655828Y-160493628D02*
X168703447Y-160398390D01*
X168703447Y-160398390D02*
X168751066Y-160350771D01*
X168751066Y-160350771D02*
X168846304Y-160303152D01*
X168846304Y-160303152D02*
X168941542Y-160303152D01*
M02*
