G04 #@! TF.GenerationSoftware,KiCad,Pcbnew,7.0.7*
G04 #@! TF.CreationDate,2024-10-25T09:44:25+02:00*
G04 #@! TF.ProjectId,Benhui_Tongue,42656e68-7569-45f5-946f-6e6775652e6b,rev?*
G04 #@! TF.SameCoordinates,Original*
G04 #@! TF.FileFunction,Copper,L2,Bot*
G04 #@! TF.FilePolarity,Positive*
%FSLAX46Y46*%
G04 Gerber Fmt 4.6, Leading zero omitted, Abs format (unit mm)*
G04 Created by KiCad (PCBNEW 7.0.7) date 2024-10-25 09:44:25*
%MOMM*%
%LPD*%
G01*
G04 APERTURE LIST*
G04 Aperture macros list*
%AMRoundRect*
0 Rectangle with rounded corners*
0 $1 Rounding radius*
0 $2 $3 $4 $5 $6 $7 $8 $9 X,Y pos of 4 corners*
0 Add a 4 corners polygon primitive as box body*
4,1,4,$2,$3,$4,$5,$6,$7,$8,$9,$2,$3,0*
0 Add four circle primitives for the rounded corners*
1,1,$1+$1,$2,$3*
1,1,$1+$1,$4,$5*
1,1,$1+$1,$6,$7*
1,1,$1+$1,$8,$9*
0 Add four rect primitives between the rounded corners*
20,1,$1+$1,$2,$3,$4,$5,0*
20,1,$1+$1,$4,$5,$6,$7,0*
20,1,$1+$1,$6,$7,$8,$9,0*
20,1,$1+$1,$8,$9,$2,$3,0*%
G04 Aperture macros list end*
G04 #@! TA.AperFunction,ComponentPad*
%ADD10C,5.600000*%
G04 #@! TD*
G04 #@! TA.AperFunction,SMDPad,CuDef*
%ADD11R,1.270000X0.508000*%
G04 #@! TD*
G04 #@! TA.AperFunction,SMDPad,CuDef*
%ADD12RoundRect,0.155000X0.155000X-0.212500X0.155000X0.212500X-0.155000X0.212500X-0.155000X-0.212500X0*%
G04 #@! TD*
G04 #@! TA.AperFunction,SMDPad,CuDef*
%ADD13RoundRect,0.155000X0.212500X0.155000X-0.212500X0.155000X-0.212500X-0.155000X0.212500X-0.155000X0*%
G04 #@! TD*
G04 #@! TA.AperFunction,ViaPad*
%ADD14C,0.800000*%
G04 #@! TD*
G04 #@! TA.AperFunction,Conductor*
%ADD15C,0.250000*%
G04 #@! TD*
G04 APERTURE END LIST*
D10*
X109200000Y-116600000D03*
X129200000Y-116600000D03*
D11*
X110419200Y-98149999D03*
X110419200Y-99100000D03*
X110419200Y-100050001D03*
X107980800Y-100050001D03*
X107980800Y-98149999D03*
D12*
X126000000Y-99667500D03*
X126000000Y-98532500D03*
D11*
X120419200Y-28149999D03*
X120419200Y-29100000D03*
X120419200Y-30050001D03*
X117980800Y-30050001D03*
X117980800Y-28149999D03*
X100419200Y-63149999D03*
X100419200Y-64100000D03*
X100419200Y-65050001D03*
X97980800Y-65050001D03*
X97980800Y-63149999D03*
D12*
X116000000Y-29667500D03*
X116000000Y-28532500D03*
D11*
X130419200Y-98149999D03*
X130419200Y-99100000D03*
X130419200Y-100050001D03*
X127980800Y-100050001D03*
X127980800Y-98149999D03*
X140419200Y-63149999D03*
X140419200Y-64100000D03*
X140419200Y-65050001D03*
X137980800Y-65050001D03*
X137980800Y-63149999D03*
D13*
X139167500Y-61700000D03*
X138032500Y-61700000D03*
D12*
X96200000Y-64667500D03*
X96200000Y-63532500D03*
X106200000Y-99667500D03*
X106200000Y-98532500D03*
D14*
X120600000Y-157500000D03*
X120470000Y-151100000D03*
X117925001Y-151100000D03*
X115384999Y-151099999D03*
X123005000Y-151099998D03*
X115395000Y-157700000D03*
X123000000Y-158699998D03*
D15*
X102777000Y-96477000D02*
X108177000Y-96477000D01*
X106582501Y-100050001D02*
X106200000Y-99667500D01*
X134800000Y-109500000D02*
X126000000Y-100700000D01*
X143200000Y-63300000D02*
X141600000Y-61700000D01*
X98930801Y-41769199D02*
X98940800Y-41779198D01*
X128940800Y-98159200D02*
X130000000Y-97100000D01*
X117980800Y-30050001D02*
X118930801Y-29100000D01*
X108930801Y-99100000D02*
X109200000Y-99100000D01*
X126000000Y-100700000D02*
X126000000Y-99667500D01*
X143200000Y-89900000D02*
X143200000Y-63300000D01*
X116382501Y-30050001D02*
X116000000Y-29667500D01*
X139404199Y-64100000D02*
X140419200Y-64100000D01*
X107980800Y-100050001D02*
X106582501Y-100050001D01*
X117980800Y-30050001D02*
X116382501Y-30050001D01*
X104167500Y-150467500D02*
X113600000Y-159900000D01*
X128865401Y-99165401D02*
X128930801Y-99100000D01*
X127980800Y-100050001D02*
X128865401Y-99165401D01*
X98940800Y-41779198D02*
X98940800Y-64090001D01*
X108177000Y-96477000D02*
X109200000Y-97500000D01*
X130000000Y-97100000D02*
X136000000Y-97100000D01*
X120600000Y-157500000D02*
X134800000Y-143300000D01*
X141600000Y-61700000D02*
X139167500Y-61700000D01*
X98930801Y-64100000D02*
X100419200Y-64100000D01*
X97980800Y-65050001D02*
X98930801Y-64100000D01*
X134800000Y-143300000D02*
X134800000Y-109500000D01*
X137980800Y-65050001D02*
X139167500Y-63863301D01*
X136000000Y-97100000D02*
X143200000Y-89900000D01*
X107980800Y-100050001D02*
X108930801Y-99100000D01*
X104167500Y-121132500D02*
X104167500Y-101700000D01*
X111032500Y-29667500D02*
X98930801Y-41769199D01*
X116000000Y-29667500D02*
X111032500Y-29667500D01*
X118200000Y-159900000D02*
X120600000Y-157500000D01*
X113600000Y-159900000D02*
X118200000Y-159900000D01*
X118930801Y-29100000D02*
X120419200Y-29100000D01*
X126382501Y-100050001D02*
X126316250Y-99983750D01*
X96200000Y-89900000D02*
X102777000Y-96477000D01*
X127980800Y-100050001D02*
X126382501Y-100050001D01*
X128940800Y-99090002D02*
X128940800Y-98159200D01*
X96582501Y-65050001D02*
X96200000Y-64667500D01*
X109200000Y-99100000D02*
X110419200Y-99100000D01*
X128930801Y-99100000D02*
X130419200Y-99100000D01*
X104167500Y-101700000D02*
X106200000Y-99667500D01*
X128865401Y-99165401D02*
X128940800Y-99090002D01*
X97980800Y-65050001D02*
X96582501Y-65050001D01*
X139167500Y-63863301D02*
X139404199Y-64100000D01*
X139167500Y-63700000D02*
X139167500Y-61700000D01*
X139167500Y-63863301D02*
X139167500Y-63700000D01*
X96200000Y-64667500D02*
X96200000Y-89900000D01*
X109200000Y-97500000D02*
X109200000Y-99100000D01*
X126316250Y-99983750D02*
X126000000Y-99667500D01*
X98940800Y-64090001D02*
X98930801Y-64100000D01*
X104167500Y-119900000D02*
X104167500Y-150467500D01*
X106582501Y-98149999D02*
X106200000Y-98532500D01*
X117980800Y-28149999D02*
X116382501Y-28149999D01*
X97980800Y-63149999D02*
X96582501Y-63149999D01*
X127980800Y-98149999D02*
X126382501Y-98149999D01*
X116382501Y-28149999D02*
X116000000Y-28532500D01*
X126382501Y-98149999D02*
X126000000Y-98532500D01*
X138032500Y-63098299D02*
X137980800Y-63149999D01*
X138032500Y-61700000D02*
X138032500Y-63098299D01*
X96582501Y-63149999D02*
X96200000Y-63532500D01*
X107980800Y-98149999D02*
X106582501Y-98149999D01*
X110632588Y-31667412D02*
X101775000Y-40525000D01*
X104200000Y-93900000D02*
X112400000Y-93900000D01*
X122032588Y-31667412D02*
X110632588Y-31667412D01*
X123200000Y-30500000D02*
X122032588Y-31667412D01*
X120419200Y-28149999D02*
X121849999Y-28149999D01*
X101775000Y-40525000D02*
X101775000Y-91475000D01*
X112400000Y-93900000D02*
X117925001Y-99425001D01*
X123200000Y-29500000D02*
X123200000Y-30500000D01*
X101775000Y-91475000D02*
X104200000Y-93900000D01*
X121849999Y-28149999D02*
X123200000Y-29500000D01*
X117925001Y-99425001D02*
X117925001Y-151100000D01*
X100419200Y-63149999D02*
X101304200Y-63149999D01*
X101390707Y-63236506D02*
X101390707Y-92090707D01*
X104000000Y-94700000D02*
X112400000Y-94700000D01*
X101304200Y-63149999D02*
X101390707Y-63236506D01*
X101390707Y-92090707D02*
X104000000Y-94700000D01*
X112400000Y-94700000D02*
X115384999Y-97684999D01*
X115384999Y-97684999D02*
X115384999Y-151099999D01*
X123000000Y-99500000D02*
X123000000Y-151094998D01*
X141304200Y-63149999D02*
X142200000Y-64045799D01*
X140419200Y-63149999D02*
X141304200Y-63149999D01*
X142200000Y-64045799D02*
X142200000Y-89700000D01*
X123000000Y-151094998D02*
X123005000Y-151099998D01*
X135800000Y-96100000D02*
X126400000Y-96100000D01*
X142200000Y-89700000D02*
X135800000Y-96100000D01*
X126400000Y-96100000D02*
X123000000Y-99500000D01*
X113600000Y-100500000D02*
X111249999Y-98149999D01*
X111249999Y-98149999D02*
X110419200Y-98149999D01*
X115395000Y-157700000D02*
X115395000Y-155895000D01*
X113600000Y-154100000D02*
X113600000Y-100500000D01*
X115395000Y-155895000D02*
X113600000Y-154100000D01*
X123000000Y-158699998D02*
X137600000Y-144099998D01*
X133249999Y-98149999D02*
X130419200Y-98149999D01*
X137600000Y-102500000D02*
X133249999Y-98149999D01*
X137600000Y-144099998D02*
X137600000Y-102500000D01*
G04 #@! TA.AperFunction,Conductor*
G36*
X120672464Y-24444430D02*
G01*
X121651519Y-24522462D01*
X122626698Y-24639357D01*
X123596459Y-24794930D01*
X124559268Y-24988933D01*
X125513603Y-25221061D01*
X126457955Y-25490947D01*
X127390830Y-25798163D01*
X128310755Y-26142225D01*
X129216273Y-26522587D01*
X130105953Y-26938649D01*
X130978389Y-27389752D01*
X131832201Y-27875184D01*
X132666038Y-28394177D01*
X133478583Y-28945910D01*
X134176469Y-29461483D01*
X134268551Y-29529510D01*
X135034692Y-30144056D01*
X135775796Y-30788575D01*
X136490689Y-31462048D01*
X137178243Y-32163410D01*
X137837369Y-32891552D01*
X138467025Y-33645323D01*
X139066217Y-34423532D01*
X139633996Y-35224946D01*
X140169465Y-36048301D01*
X140671776Y-36892292D01*
X141140136Y-37755587D01*
X141573805Y-38636819D01*
X141972096Y-39534596D01*
X142334379Y-40447497D01*
X142660082Y-41374080D01*
X142948690Y-42312879D01*
X143199747Y-43262411D01*
X143412855Y-44221172D01*
X143587677Y-45187648D01*
X143723938Y-46160310D01*
X143821421Y-47137621D01*
X143879973Y-48118034D01*
X143899500Y-49100000D01*
X143899500Y-62815547D01*
X143879815Y-62882586D01*
X143827011Y-62928341D01*
X143757853Y-62938285D01*
X143694297Y-62909260D01*
X143687819Y-62903228D01*
X143684006Y-62899415D01*
X143671368Y-62884619D01*
X143669891Y-62882586D01*
X143659594Y-62868413D01*
X143623688Y-62838709D01*
X143619376Y-62834786D01*
X142100803Y-61316212D01*
X142090980Y-61303950D01*
X142090759Y-61304134D01*
X142085786Y-61298123D01*
X142069256Y-61282600D01*
X142035364Y-61250773D01*
X142024919Y-61240328D01*
X142014475Y-61229883D01*
X142008986Y-61225625D01*
X142004561Y-61221847D01*
X141970582Y-61189938D01*
X141970580Y-61189936D01*
X141970577Y-61189935D01*
X141953029Y-61180288D01*
X141936763Y-61169604D01*
X141920933Y-61157325D01*
X141878168Y-61138818D01*
X141872922Y-61136248D01*
X141832093Y-61113803D01*
X141832092Y-61113802D01*
X141812693Y-61108822D01*
X141794281Y-61102518D01*
X141775898Y-61094562D01*
X141775892Y-61094560D01*
X141729874Y-61087272D01*
X141724152Y-61086087D01*
X141679021Y-61074500D01*
X141679019Y-61074500D01*
X141658984Y-61074500D01*
X141639586Y-61072973D01*
X141632162Y-61071797D01*
X141619805Y-61069840D01*
X141619804Y-61069840D01*
X141573416Y-61074225D01*
X141567578Y-61074500D01*
X139887880Y-61074500D01*
X139820841Y-61054815D01*
X139800199Y-61038181D01*
X139784959Y-61022941D01*
X139784950Y-61022934D01*
X139643181Y-60939092D01*
X139642400Y-60938630D01*
X139642399Y-60938629D01*
X139642398Y-60938629D01*
X139642395Y-60938628D01*
X139483362Y-60892424D01*
X139483356Y-60892423D01*
X139446205Y-60889500D01*
X139446203Y-60889500D01*
X138889216Y-60889501D01*
X138888798Y-60889501D01*
X138851641Y-60892424D01*
X138692604Y-60938628D01*
X138692596Y-60938631D01*
X138662627Y-60956355D01*
X138594903Y-60973536D01*
X138536389Y-60956355D01*
X138507199Y-60939093D01*
X138507194Y-60939091D01*
X138348283Y-60892922D01*
X138348277Y-60892921D01*
X138311152Y-60890000D01*
X138282500Y-60890000D01*
X138282500Y-62446937D01*
X138262815Y-62513976D01*
X138246182Y-62534617D01*
X138230800Y-62549999D01*
X138230800Y-63864047D01*
X138211115Y-63931086D01*
X138194481Y-63951728D01*
X137887026Y-64259182D01*
X137825703Y-64292667D01*
X137799345Y-64295501D01*
X137297929Y-64295501D01*
X137297923Y-64295502D01*
X137238316Y-64301909D01*
X137103471Y-64352203D01*
X137103464Y-64352207D01*
X136988255Y-64438453D01*
X136988252Y-64438456D01*
X136902006Y-64553665D01*
X136902002Y-64553672D01*
X136851710Y-64688514D01*
X136851709Y-64688518D01*
X136845300Y-64748128D01*
X136845300Y-64748135D01*
X136845300Y-64748136D01*
X136845300Y-65351871D01*
X136845301Y-65351877D01*
X136851708Y-65411484D01*
X136902002Y-65546329D01*
X136902006Y-65546336D01*
X136988252Y-65661545D01*
X136988255Y-65661548D01*
X137103464Y-65747794D01*
X137103471Y-65747798D01*
X137238317Y-65798092D01*
X137238316Y-65798092D01*
X137245244Y-65798836D01*
X137297927Y-65804501D01*
X138663672Y-65804500D01*
X138723283Y-65798092D01*
X138858131Y-65747797D01*
X138973346Y-65661547D01*
X139059596Y-65546332D01*
X139083817Y-65481390D01*
X139125689Y-65425456D01*
X139191153Y-65401039D01*
X139259426Y-65415890D01*
X139308832Y-65465295D01*
X139316182Y-65481390D01*
X139340402Y-65546329D01*
X139340406Y-65546336D01*
X139426652Y-65661545D01*
X139426655Y-65661548D01*
X139541864Y-65747794D01*
X139541871Y-65747798D01*
X139676717Y-65798092D01*
X139676716Y-65798092D01*
X139683644Y-65798836D01*
X139736327Y-65804501D01*
X141102072Y-65804500D01*
X141161683Y-65798092D01*
X141296531Y-65747797D01*
X141376189Y-65688164D01*
X141441652Y-65663747D01*
X141509925Y-65678598D01*
X141559331Y-65728003D01*
X141574500Y-65787431D01*
X141574500Y-89389547D01*
X141554815Y-89456586D01*
X141538181Y-89477228D01*
X135577228Y-95438181D01*
X135515905Y-95471666D01*
X135489547Y-95474500D01*
X126482738Y-95474500D01*
X126467121Y-95472776D01*
X126467094Y-95473062D01*
X126459332Y-95472327D01*
X126390204Y-95474500D01*
X126360650Y-95474500D01*
X126359929Y-95474590D01*
X126353757Y-95475369D01*
X126347945Y-95475826D01*
X126301373Y-95477290D01*
X126301372Y-95477290D01*
X126282129Y-95482881D01*
X126263079Y-95486825D01*
X126243211Y-95489334D01*
X126243209Y-95489335D01*
X126199884Y-95506488D01*
X126194357Y-95508380D01*
X126149610Y-95521381D01*
X126149609Y-95521382D01*
X126132367Y-95531579D01*
X126114899Y-95540137D01*
X126096269Y-95547513D01*
X126096267Y-95547514D01*
X126058576Y-95574898D01*
X126053694Y-95578105D01*
X126013579Y-95601830D01*
X125999408Y-95616000D01*
X125984623Y-95628628D01*
X125968412Y-95640407D01*
X125938709Y-95676310D01*
X125934777Y-95680631D01*
X122616208Y-98999199D01*
X122603951Y-99009020D01*
X122604134Y-99009241D01*
X122598123Y-99014213D01*
X122550772Y-99064636D01*
X122529889Y-99085519D01*
X122529877Y-99085532D01*
X122525621Y-99091017D01*
X122521837Y-99095447D01*
X122489937Y-99129418D01*
X122489936Y-99129420D01*
X122480284Y-99146976D01*
X122469610Y-99163226D01*
X122457329Y-99179061D01*
X122457324Y-99179068D01*
X122438815Y-99221838D01*
X122436245Y-99227084D01*
X122413803Y-99267906D01*
X122408822Y-99287307D01*
X122402521Y-99305710D01*
X122394562Y-99324102D01*
X122394561Y-99324105D01*
X122387271Y-99370127D01*
X122386087Y-99375846D01*
X122374501Y-99420972D01*
X122374500Y-99420982D01*
X122374500Y-99441016D01*
X122372973Y-99460415D01*
X122369840Y-99480194D01*
X122369839Y-99480197D01*
X122374224Y-99526585D01*
X122374499Y-99532421D01*
X122374499Y-150406864D01*
X122354814Y-150473903D01*
X122342649Y-150489836D01*
X122272468Y-150567780D01*
X122272464Y-150567785D01*
X122177821Y-150731713D01*
X122177818Y-150731720D01*
X122131269Y-150874984D01*
X122119326Y-150911742D01*
X122099540Y-151099998D01*
X122119326Y-151288254D01*
X122119327Y-151288256D01*
X122119327Y-151288257D01*
X122177818Y-151468275D01*
X122177819Y-151468277D01*
X122177821Y-151468282D01*
X122272467Y-151632214D01*
X122399128Y-151772885D01*
X122399129Y-151772886D01*
X122552265Y-151884146D01*
X122552270Y-151884149D01*
X122725192Y-151961140D01*
X122725195Y-151961141D01*
X122725197Y-151961142D01*
X122910354Y-152000498D01*
X122910355Y-152000498D01*
X123099644Y-152000498D01*
X123099646Y-152000498D01*
X123284803Y-151961142D01*
X123457730Y-151884149D01*
X123610871Y-151772886D01*
X123737533Y-151632214D01*
X123832179Y-151468282D01*
X123890674Y-151288254D01*
X123910460Y-151099998D01*
X123890674Y-150911742D01*
X123832179Y-150731714D01*
X123737533Y-150567782D01*
X123694105Y-150519550D01*
X123657350Y-150478729D01*
X123627120Y-150415737D01*
X123625500Y-150395757D01*
X123625500Y-116600002D01*
X125894652Y-116600002D01*
X125914028Y-116957368D01*
X125914029Y-116957385D01*
X125971926Y-117310539D01*
X125971932Y-117310565D01*
X126067672Y-117655392D01*
X126067674Y-117655399D01*
X126200142Y-117987870D01*
X126200151Y-117987888D01*
X126367784Y-118304077D01*
X126367790Y-118304086D01*
X126568634Y-118600309D01*
X126568641Y-118600319D01*
X126800331Y-118873085D01*
X126800332Y-118873086D01*
X127060163Y-119119211D01*
X127345081Y-119335800D01*
X127651747Y-119520315D01*
X127651749Y-119520316D01*
X127651751Y-119520317D01*
X127651755Y-119520319D01*
X127976552Y-119670585D01*
X127976565Y-119670591D01*
X128315726Y-119784868D01*
X128665254Y-119861805D01*
X129021052Y-119900500D01*
X129021058Y-119900500D01*
X129378942Y-119900500D01*
X129378948Y-119900500D01*
X129734746Y-119861805D01*
X130084274Y-119784868D01*
X130423435Y-119670591D01*
X130748253Y-119520315D01*
X131054919Y-119335800D01*
X131339837Y-119119211D01*
X131599668Y-118873086D01*
X131831365Y-118600311D01*
X132032211Y-118304085D01*
X132199853Y-117987880D01*
X132332324Y-117655403D01*
X132428071Y-117310552D01*
X132485972Y-116957371D01*
X132505348Y-116600000D01*
X132485972Y-116242629D01*
X132428071Y-115889448D01*
X132332324Y-115544597D01*
X132199853Y-115212120D01*
X132032211Y-114895915D01*
X131831365Y-114599689D01*
X131831361Y-114599684D01*
X131831358Y-114599680D01*
X131599668Y-114326914D01*
X131339837Y-114080789D01*
X131339830Y-114080783D01*
X131339827Y-114080781D01*
X131272245Y-114029407D01*
X131054919Y-113864200D01*
X130748253Y-113679685D01*
X130748252Y-113679684D01*
X130748248Y-113679682D01*
X130748244Y-113679680D01*
X130423447Y-113529414D01*
X130423441Y-113529411D01*
X130423435Y-113529409D01*
X130253854Y-113472270D01*
X130084273Y-113415131D01*
X129734744Y-113338194D01*
X129378949Y-113299500D01*
X129378948Y-113299500D01*
X129021052Y-113299500D01*
X129021050Y-113299500D01*
X128665255Y-113338194D01*
X128315726Y-113415131D01*
X128059970Y-113501306D01*
X127976565Y-113529409D01*
X127976562Y-113529410D01*
X127976563Y-113529410D01*
X127976552Y-113529414D01*
X127651755Y-113679680D01*
X127651751Y-113679682D01*
X127423367Y-113817096D01*
X127345081Y-113864200D01*
X127256768Y-113931333D01*
X127060172Y-114080781D01*
X127060163Y-114080789D01*
X126800331Y-114326914D01*
X126568641Y-114599680D01*
X126568634Y-114599690D01*
X126367790Y-114895913D01*
X126367784Y-114895922D01*
X126200151Y-115212111D01*
X126200142Y-115212129D01*
X126067674Y-115544600D01*
X126067672Y-115544607D01*
X125971932Y-115889434D01*
X125971926Y-115889460D01*
X125914029Y-116242614D01*
X125914028Y-116242631D01*
X125894652Y-116599997D01*
X125894652Y-116600002D01*
X123625500Y-116600002D01*
X123625500Y-99810452D01*
X123645185Y-99743413D01*
X123661819Y-99722771D01*
X125065771Y-98318819D01*
X125127094Y-98285334D01*
X125153452Y-98282500D01*
X125749999Y-98282500D01*
X125749999Y-97685951D01*
X125769683Y-97618912D01*
X125786306Y-97598283D01*
X126622771Y-96761819D01*
X126684095Y-96728334D01*
X126710453Y-96725500D01*
X129190547Y-96725500D01*
X129257586Y-96745185D01*
X129303341Y-96797989D01*
X129313285Y-96867147D01*
X129284260Y-96930703D01*
X129278228Y-96937181D01*
X128844735Y-97370672D01*
X128783412Y-97404157D01*
X128728546Y-97403669D01*
X128723179Y-97402401D01*
X128663644Y-97395999D01*
X128230800Y-97395999D01*
X128230800Y-98864048D01*
X128211115Y-98931087D01*
X128194481Y-98951729D01*
X127887028Y-99259182D01*
X127825705Y-99292667D01*
X127799347Y-99295501D01*
X127297929Y-99295501D01*
X127297923Y-99295502D01*
X127238316Y-99301909D01*
X127103471Y-99352203D01*
X127103469Y-99352205D01*
X127039933Y-99399768D01*
X126974469Y-99424185D01*
X126965622Y-99424501D01*
X126921845Y-99424501D01*
X126854806Y-99404816D01*
X126809051Y-99352012D01*
X126802772Y-99335107D01*
X126761370Y-99192600D01*
X126743644Y-99162627D01*
X126726462Y-99094905D01*
X126743646Y-99036386D01*
X126760905Y-99007202D01*
X126760908Y-99007194D01*
X126808846Y-98842195D01*
X126810208Y-98842590D01*
X126838331Y-98786703D01*
X126898495Y-98751178D01*
X126968315Y-98753818D01*
X127003219Y-98772124D01*
X127103706Y-98847349D01*
X127103713Y-98847353D01*
X127238420Y-98897595D01*
X127238427Y-98897597D01*
X127297955Y-98903998D01*
X127297972Y-98903999D01*
X127730800Y-98903999D01*
X127730800Y-97395999D01*
X127297955Y-97395999D01*
X127238427Y-97402400D01*
X127238420Y-97402402D01*
X127103713Y-97452644D01*
X127103706Y-97452648D01*
X126988612Y-97538808D01*
X126988609Y-97538811D01*
X126902449Y-97653905D01*
X126902445Y-97653912D01*
X126852203Y-97788619D01*
X126852201Y-97788624D01*
X126850563Y-97803862D01*
X126823822Y-97868412D01*
X126766427Y-97908257D01*
X126696602Y-97910748D01*
X126639593Y-97878282D01*
X126559650Y-97798339D01*
X126559642Y-97798333D01*
X126417197Y-97714092D01*
X126417194Y-97714090D01*
X126258288Y-97667924D01*
X126258273Y-97667921D01*
X126250000Y-97667269D01*
X126249999Y-97667270D01*
X126250000Y-98658500D01*
X126230316Y-98725539D01*
X126177512Y-98771294D01*
X126126000Y-98782500D01*
X125190000Y-98782500D01*
X125190000Y-98811152D01*
X125192921Y-98848277D01*
X125192922Y-98848283D01*
X125239091Y-99007194D01*
X125239093Y-99007199D01*
X125256355Y-99036389D01*
X125273536Y-99104113D01*
X125256355Y-99162627D01*
X125238631Y-99192596D01*
X125238628Y-99192604D01*
X125192424Y-99351637D01*
X125192423Y-99351643D01*
X125189500Y-99388795D01*
X125189501Y-99946202D01*
X125192423Y-99983354D01*
X125230256Y-100113579D01*
X125238630Y-100142400D01*
X125322937Y-100284954D01*
X125322941Y-100284958D01*
X125322942Y-100284959D01*
X125338179Y-100300196D01*
X125371666Y-100361518D01*
X125374500Y-100387879D01*
X125374500Y-100617255D01*
X125372775Y-100632872D01*
X125373061Y-100632899D01*
X125372326Y-100640665D01*
X125374500Y-100709814D01*
X125374500Y-100739343D01*
X125374501Y-100739360D01*
X125375368Y-100746231D01*
X125375826Y-100752050D01*
X125377290Y-100798624D01*
X125377291Y-100798627D01*
X125382880Y-100817867D01*
X125386824Y-100836911D01*
X125389336Y-100856791D01*
X125406490Y-100900119D01*
X125408382Y-100905647D01*
X125421382Y-100950390D01*
X125423818Y-100954510D01*
X125431580Y-100967634D01*
X125440138Y-100985103D01*
X125447514Y-101003732D01*
X125474898Y-101041423D01*
X125478106Y-101046307D01*
X125501827Y-101086416D01*
X125501833Y-101086424D01*
X125515990Y-101100580D01*
X125528628Y-101115376D01*
X125540405Y-101131586D01*
X125540406Y-101131587D01*
X125576309Y-101161288D01*
X125580620Y-101165210D01*
X133450190Y-109034780D01*
X134138181Y-109722771D01*
X134171666Y-109784094D01*
X134174500Y-109810452D01*
X134174500Y-142989547D01*
X134154815Y-143056586D01*
X134138181Y-143077228D01*
X120652228Y-156563181D01*
X120590905Y-156596666D01*
X120564547Y-156599500D01*
X120505354Y-156599500D01*
X120472897Y-156606398D01*
X120320197Y-156638855D01*
X120320192Y-156638857D01*
X120147270Y-156715848D01*
X120147265Y-156715851D01*
X119994129Y-156827111D01*
X119867466Y-156967785D01*
X119772821Y-157131715D01*
X119772818Y-157131722D01*
X119714327Y-157311740D01*
X119714326Y-157311744D01*
X119700255Y-157445627D01*
X119696679Y-157479649D01*
X119670094Y-157544263D01*
X119661039Y-157554368D01*
X117977228Y-159238181D01*
X117915905Y-159271666D01*
X117889547Y-159274500D01*
X113910453Y-159274500D01*
X113843414Y-159254815D01*
X113822772Y-159238181D01*
X104829319Y-150244728D01*
X104795834Y-150183405D01*
X104793000Y-150157047D01*
X104793000Y-116600002D01*
X105894652Y-116600002D01*
X105914028Y-116957368D01*
X105914029Y-116957385D01*
X105971926Y-117310539D01*
X105971932Y-117310565D01*
X106067672Y-117655392D01*
X106067674Y-117655399D01*
X106200142Y-117987870D01*
X106200151Y-117987888D01*
X106367784Y-118304077D01*
X106367790Y-118304086D01*
X106568634Y-118600309D01*
X106568641Y-118600319D01*
X106800331Y-118873085D01*
X106800332Y-118873086D01*
X107060163Y-119119211D01*
X107345081Y-119335800D01*
X107651747Y-119520315D01*
X107651749Y-119520316D01*
X107651751Y-119520317D01*
X107651755Y-119520319D01*
X107976552Y-119670585D01*
X107976565Y-119670591D01*
X108315726Y-119784868D01*
X108665254Y-119861805D01*
X109021052Y-119900500D01*
X109021058Y-119900500D01*
X109378942Y-119900500D01*
X109378948Y-119900500D01*
X109734746Y-119861805D01*
X110084274Y-119784868D01*
X110423435Y-119670591D01*
X110748253Y-119520315D01*
X111054919Y-119335800D01*
X111339837Y-119119211D01*
X111599668Y-118873086D01*
X111831365Y-118600311D01*
X112032211Y-118304085D01*
X112199853Y-117987880D01*
X112332324Y-117655403D01*
X112428071Y-117310552D01*
X112485972Y-116957371D01*
X112505348Y-116600000D01*
X112485972Y-116242629D01*
X112428071Y-115889448D01*
X112332324Y-115544597D01*
X112199853Y-115212120D01*
X112032211Y-114895915D01*
X111831365Y-114599689D01*
X111831361Y-114599684D01*
X111831358Y-114599680D01*
X111599668Y-114326914D01*
X111599668Y-114326913D01*
X111339837Y-114080789D01*
X111339830Y-114080783D01*
X111339827Y-114080781D01*
X111272245Y-114029407D01*
X111054919Y-113864200D01*
X110748253Y-113679685D01*
X110748252Y-113679684D01*
X110748248Y-113679682D01*
X110748244Y-113679680D01*
X110423447Y-113529414D01*
X110423441Y-113529411D01*
X110423435Y-113529409D01*
X110253854Y-113472270D01*
X110084273Y-113415131D01*
X109734744Y-113338194D01*
X109378949Y-113299500D01*
X109378948Y-113299500D01*
X109021052Y-113299500D01*
X109021050Y-113299500D01*
X108665255Y-113338194D01*
X108315726Y-113415131D01*
X108059970Y-113501306D01*
X107976565Y-113529409D01*
X107976562Y-113529410D01*
X107976563Y-113529410D01*
X107976552Y-113529414D01*
X107651755Y-113679680D01*
X107651751Y-113679682D01*
X107423367Y-113817096D01*
X107345081Y-113864200D01*
X107256768Y-113931333D01*
X107060172Y-114080781D01*
X107060163Y-114080789D01*
X106800331Y-114326914D01*
X106568641Y-114599680D01*
X106568634Y-114599690D01*
X106367790Y-114895913D01*
X106367784Y-114895922D01*
X106200151Y-115212111D01*
X106200142Y-115212129D01*
X106067674Y-115544600D01*
X106067672Y-115544607D01*
X105971932Y-115889434D01*
X105971926Y-115889460D01*
X105914029Y-116242614D01*
X105914028Y-116242631D01*
X105894652Y-116599997D01*
X105894652Y-116600002D01*
X104793000Y-116600002D01*
X104793000Y-102010451D01*
X104812685Y-101943412D01*
X104829314Y-101922775D01*
X106130681Y-100621407D01*
X106192002Y-100587924D01*
X106261694Y-100592908D01*
X106267590Y-100595281D01*
X106304330Y-100611179D01*
X106309557Y-100613739D01*
X106350409Y-100636198D01*
X106369817Y-100641181D01*
X106388218Y-100647481D01*
X106406605Y-100655438D01*
X106445183Y-100661548D01*
X106452620Y-100662726D01*
X106458340Y-100663910D01*
X106503482Y-100675501D01*
X106523517Y-100675501D01*
X106542915Y-100677027D01*
X106562695Y-100680160D01*
X106562696Y-100680161D01*
X106562696Y-100680160D01*
X106562697Y-100680161D01*
X106609084Y-100675776D01*
X106614923Y-100675501D01*
X106965622Y-100675501D01*
X107032661Y-100695186D01*
X107039933Y-100700234D01*
X107103469Y-100747797D01*
X107103470Y-100747797D01*
X107103471Y-100747798D01*
X107238317Y-100798092D01*
X107238316Y-100798092D01*
X107243265Y-100798624D01*
X107297927Y-100804501D01*
X108663672Y-100804500D01*
X108723283Y-100798092D01*
X108858131Y-100747797D01*
X108973346Y-100661547D01*
X109059596Y-100546332D01*
X109083817Y-100481390D01*
X109125689Y-100425456D01*
X109191153Y-100401039D01*
X109259426Y-100415890D01*
X109308832Y-100465295D01*
X109316182Y-100481390D01*
X109340402Y-100546329D01*
X109340406Y-100546336D01*
X109426652Y-100661545D01*
X109426655Y-100661548D01*
X109541864Y-100747794D01*
X109541871Y-100747798D01*
X109676717Y-100798092D01*
X109676716Y-100798092D01*
X109681665Y-100798624D01*
X109736327Y-100804501D01*
X111102072Y-100804500D01*
X111161683Y-100798092D01*
X111296531Y-100747797D01*
X111411746Y-100661547D01*
X111497996Y-100546332D01*
X111548291Y-100411484D01*
X111554700Y-100351874D01*
X111554699Y-99748129D01*
X111548291Y-99688518D01*
X111535942Y-99655411D01*
X111530957Y-99585720D01*
X111564442Y-99524397D01*
X111625765Y-99490911D01*
X111695456Y-99495895D01*
X111739805Y-99524396D01*
X112938181Y-100722771D01*
X112971666Y-100784094D01*
X112974500Y-100810452D01*
X112974500Y-154017255D01*
X112972775Y-154032872D01*
X112973061Y-154032899D01*
X112972326Y-154040665D01*
X112974500Y-154109814D01*
X112974500Y-154139343D01*
X112974501Y-154139360D01*
X112975368Y-154146231D01*
X112975826Y-154152050D01*
X112977290Y-154198624D01*
X112977291Y-154198627D01*
X112982880Y-154217867D01*
X112986824Y-154236911D01*
X112989336Y-154256791D01*
X113006490Y-154300119D01*
X113008382Y-154305647D01*
X113021381Y-154350388D01*
X113031580Y-154367634D01*
X113040138Y-154385103D01*
X113047514Y-154403732D01*
X113074898Y-154441423D01*
X113078106Y-154446307D01*
X113101827Y-154486416D01*
X113101833Y-154486424D01*
X113115990Y-154500580D01*
X113128628Y-154515376D01*
X113140405Y-154531586D01*
X113140406Y-154531587D01*
X113176309Y-154561288D01*
X113180620Y-154565210D01*
X114045190Y-155429780D01*
X114733181Y-156117771D01*
X114766666Y-156179094D01*
X114769500Y-156205452D01*
X114769500Y-157001312D01*
X114749815Y-157068351D01*
X114737650Y-157084284D01*
X114662466Y-157167784D01*
X114567821Y-157331715D01*
X114567818Y-157331722D01*
X114519754Y-157479649D01*
X114509326Y-157511744D01*
X114489540Y-157700000D01*
X114509326Y-157888256D01*
X114509327Y-157888259D01*
X114567818Y-158068277D01*
X114567821Y-158068284D01*
X114662467Y-158232216D01*
X114709227Y-158284148D01*
X114789129Y-158372888D01*
X114942265Y-158484148D01*
X114942270Y-158484151D01*
X115115192Y-158561142D01*
X115115197Y-158561144D01*
X115300354Y-158600500D01*
X115300355Y-158600500D01*
X115489644Y-158600500D01*
X115489646Y-158600500D01*
X115674803Y-158561144D01*
X115847730Y-158484151D01*
X116000871Y-158372888D01*
X116127533Y-158232216D01*
X116222179Y-158068284D01*
X116280674Y-157888256D01*
X116300460Y-157700000D01*
X116280674Y-157511744D01*
X116222179Y-157331716D01*
X116127533Y-157167784D01*
X116095063Y-157131722D01*
X116052350Y-157084284D01*
X116022120Y-157021292D01*
X116020500Y-157001312D01*
X116020500Y-155977737D01*
X116022224Y-155962123D01*
X116021938Y-155962096D01*
X116022672Y-155954333D01*
X116020500Y-155885203D01*
X116020500Y-155855651D01*
X116020500Y-155855650D01*
X116019629Y-155848759D01*
X116019172Y-155842945D01*
X116017709Y-155796373D01*
X116012121Y-155777139D01*
X116008174Y-155758081D01*
X116005664Y-155738208D01*
X115988507Y-155694875D01*
X115986614Y-155689346D01*
X115973618Y-155644614D01*
X115973617Y-155644610D01*
X115963420Y-155627368D01*
X115954863Y-155609902D01*
X115947486Y-155591268D01*
X115920083Y-155553550D01*
X115916900Y-155548705D01*
X115893170Y-155508579D01*
X115893165Y-155508573D01*
X115879005Y-155494413D01*
X115866370Y-155479620D01*
X115854593Y-155463412D01*
X115818693Y-155433713D01*
X115814381Y-155429790D01*
X114261819Y-153877227D01*
X114228334Y-153815904D01*
X114225500Y-153789546D01*
X114225500Y-100582737D01*
X114227224Y-100567123D01*
X114226938Y-100567096D01*
X114227672Y-100559333D01*
X114225500Y-100490203D01*
X114225500Y-100460651D01*
X114225500Y-100460650D01*
X114224629Y-100453759D01*
X114224172Y-100447945D01*
X114222709Y-100401373D01*
X114217121Y-100382139D01*
X114213174Y-100363081D01*
X114212977Y-100361518D01*
X114210664Y-100343208D01*
X114193507Y-100299875D01*
X114191614Y-100294346D01*
X114178618Y-100249614D01*
X114178617Y-100249610D01*
X114168420Y-100232368D01*
X114159863Y-100214902D01*
X114152486Y-100196268D01*
X114125083Y-100158550D01*
X114121900Y-100153705D01*
X114098170Y-100113579D01*
X114098165Y-100113573D01*
X114084005Y-100099413D01*
X114071370Y-100084620D01*
X114059593Y-100068412D01*
X114023693Y-100038713D01*
X114019381Y-100034790D01*
X111750802Y-97766210D01*
X111740979Y-97753949D01*
X111740758Y-97754133D01*
X111735785Y-97748122D01*
X111713531Y-97727224D01*
X111685363Y-97700772D01*
X111670542Y-97685951D01*
X111664474Y-97679882D01*
X111658985Y-97675624D01*
X111654560Y-97671846D01*
X111620581Y-97639937D01*
X111620579Y-97639935D01*
X111620576Y-97639934D01*
X111603028Y-97630287D01*
X111586762Y-97619603D01*
X111570935Y-97607326D01*
X111570934Y-97607325D01*
X111570932Y-97607324D01*
X111528167Y-97588817D01*
X111522921Y-97586247D01*
X111482092Y-97563802D01*
X111482091Y-97563801D01*
X111462692Y-97558821D01*
X111444279Y-97552517D01*
X111439205Y-97550321D01*
X111425081Y-97544208D01*
X111400022Y-97529676D01*
X111296531Y-97452203D01*
X111296528Y-97452201D01*
X111161682Y-97401907D01*
X111161683Y-97401907D01*
X111102083Y-97395500D01*
X111102081Y-97395499D01*
X111102073Y-97395499D01*
X111102065Y-97395499D01*
X109915637Y-97395499D01*
X109848598Y-97375814D01*
X109802843Y-97323010D01*
X109800354Y-97317168D01*
X109793503Y-97299866D01*
X109791614Y-97294346D01*
X109778617Y-97249610D01*
X109778616Y-97249608D01*
X109768421Y-97232369D01*
X109759860Y-97214893D01*
X109752486Y-97196269D01*
X109752486Y-97196267D01*
X109742474Y-97182488D01*
X109725083Y-97158550D01*
X109721900Y-97153705D01*
X109698170Y-97113579D01*
X109698165Y-97113573D01*
X109684005Y-97099413D01*
X109671370Y-97084620D01*
X109661982Y-97071700D01*
X109659594Y-97068413D01*
X109626161Y-97040755D01*
X109623693Y-97038713D01*
X109619381Y-97034790D01*
X108677803Y-96093212D01*
X108667980Y-96080950D01*
X108667759Y-96081134D01*
X108662786Y-96075123D01*
X108612364Y-96027773D01*
X108601919Y-96017328D01*
X108591475Y-96006883D01*
X108585986Y-96002625D01*
X108581561Y-95998847D01*
X108547582Y-95966938D01*
X108547580Y-95966936D01*
X108547577Y-95966935D01*
X108530029Y-95957288D01*
X108513763Y-95946604D01*
X108497933Y-95934325D01*
X108455168Y-95915818D01*
X108449922Y-95913248D01*
X108409093Y-95890803D01*
X108409092Y-95890802D01*
X108389693Y-95885822D01*
X108371281Y-95879518D01*
X108352898Y-95871562D01*
X108352892Y-95871560D01*
X108306874Y-95864272D01*
X108301152Y-95863087D01*
X108256021Y-95851500D01*
X108256019Y-95851500D01*
X108235984Y-95851500D01*
X108216586Y-95849973D01*
X108209162Y-95848797D01*
X108196805Y-95846840D01*
X108196804Y-95846840D01*
X108150416Y-95851225D01*
X108144578Y-95851500D01*
X103087452Y-95851500D01*
X103020413Y-95831815D01*
X102999771Y-95815181D01*
X96861819Y-89677228D01*
X96828334Y-89615905D01*
X96825500Y-89589547D01*
X96825500Y-65799501D01*
X96845185Y-65732462D01*
X96897989Y-65686707D01*
X96949500Y-65675501D01*
X96965622Y-65675501D01*
X97032661Y-65695186D01*
X97039933Y-65700234D01*
X97103469Y-65747797D01*
X97103470Y-65747797D01*
X97103471Y-65747798D01*
X97238317Y-65798092D01*
X97238316Y-65798092D01*
X97245244Y-65798836D01*
X97297927Y-65804501D01*
X98663672Y-65804500D01*
X98723283Y-65798092D01*
X98858131Y-65747797D01*
X98973346Y-65661547D01*
X99059596Y-65546332D01*
X99083817Y-65481390D01*
X99125689Y-65425456D01*
X99191153Y-65401039D01*
X99259426Y-65415890D01*
X99308832Y-65465295D01*
X99316182Y-65481390D01*
X99340402Y-65546329D01*
X99340406Y-65546336D01*
X99426652Y-65661545D01*
X99426655Y-65661548D01*
X99541864Y-65747794D01*
X99541871Y-65747798D01*
X99676717Y-65798092D01*
X99676716Y-65798092D01*
X99683644Y-65798836D01*
X99736327Y-65804501D01*
X100641206Y-65804500D01*
X100708245Y-65824184D01*
X100754000Y-65876988D01*
X100765206Y-65928500D01*
X100765207Y-92007962D01*
X100763482Y-92023579D01*
X100763768Y-92023606D01*
X100763033Y-92031372D01*
X100765207Y-92100521D01*
X100765207Y-92130050D01*
X100765208Y-92130067D01*
X100766075Y-92136938D01*
X100766533Y-92142757D01*
X100767997Y-92189331D01*
X100767998Y-92189334D01*
X100773587Y-92208574D01*
X100777531Y-92227618D01*
X100780043Y-92247498D01*
X100797197Y-92290826D01*
X100799089Y-92296354D01*
X100812088Y-92341095D01*
X100822287Y-92358341D01*
X100830845Y-92375810D01*
X100838221Y-92394439D01*
X100865605Y-92432130D01*
X100868813Y-92437014D01*
X100892534Y-92477123D01*
X100892540Y-92477131D01*
X100906697Y-92491287D01*
X100919335Y-92506083D01*
X100931112Y-92522293D01*
X100931113Y-92522294D01*
X100967016Y-92551995D01*
X100971327Y-92555917D01*
X103499194Y-95083784D01*
X103509019Y-95096048D01*
X103509240Y-95095866D01*
X103514210Y-95101873D01*
X103514213Y-95101876D01*
X103514214Y-95101877D01*
X103564651Y-95149241D01*
X103585530Y-95170120D01*
X103591004Y-95174366D01*
X103595442Y-95178156D01*
X103629418Y-95210062D01*
X103629422Y-95210064D01*
X103646973Y-95219713D01*
X103663231Y-95230392D01*
X103679064Y-95242674D01*
X103701015Y-95252172D01*
X103721837Y-95261183D01*
X103727081Y-95263752D01*
X103767908Y-95286197D01*
X103787312Y-95291179D01*
X103805710Y-95297478D01*
X103824105Y-95305438D01*
X103870129Y-95312726D01*
X103875832Y-95313907D01*
X103920981Y-95325500D01*
X103941016Y-95325500D01*
X103960413Y-95327026D01*
X103980196Y-95330160D01*
X104026583Y-95325775D01*
X104032422Y-95325500D01*
X112089548Y-95325500D01*
X112156587Y-95345185D01*
X112177229Y-95361819D01*
X114723180Y-97907770D01*
X114756665Y-97969093D01*
X114759499Y-97995451D01*
X114759499Y-150401311D01*
X114739814Y-150468350D01*
X114727649Y-150484283D01*
X114652465Y-150567783D01*
X114557820Y-150731714D01*
X114557817Y-150731721D01*
X114499326Y-150911739D01*
X114499325Y-150911743D01*
X114479539Y-151099999D01*
X114499325Y-151288255D01*
X114499326Y-151288257D01*
X114499326Y-151288258D01*
X114557817Y-151468276D01*
X114557820Y-151468282D01*
X114557820Y-151468283D01*
X114652466Y-151632215D01*
X114779127Y-151772886D01*
X114779128Y-151772887D01*
X114932264Y-151884147D01*
X114932269Y-151884150D01*
X115105191Y-151961141D01*
X115105194Y-151961142D01*
X115105196Y-151961143D01*
X115290353Y-152000499D01*
X115290354Y-152000499D01*
X115479643Y-152000499D01*
X115479645Y-152000499D01*
X115664802Y-151961143D01*
X115837729Y-151884150D01*
X115990870Y-151772887D01*
X116117532Y-151632215D01*
X116212178Y-151468283D01*
X116270673Y-151288255D01*
X116290459Y-151099999D01*
X116270673Y-150911743D01*
X116212178Y-150731715D01*
X116117532Y-150567783D01*
X116042347Y-150484282D01*
X116012118Y-150421292D01*
X116010499Y-150401323D01*
X116010499Y-98694451D01*
X116030184Y-98627412D01*
X116082988Y-98581657D01*
X116152146Y-98571713D01*
X116215702Y-98600738D01*
X116222180Y-98606770D01*
X117263182Y-99647772D01*
X117296667Y-99709095D01*
X117299501Y-99735453D01*
X117299501Y-150401312D01*
X117279816Y-150468351D01*
X117267651Y-150484284D01*
X117192467Y-150567784D01*
X117097822Y-150731715D01*
X117097819Y-150731722D01*
X117039328Y-150911740D01*
X117039327Y-150911744D01*
X117019541Y-151100000D01*
X117039327Y-151288256D01*
X117039328Y-151288258D01*
X117039328Y-151288259D01*
X117097819Y-151468277D01*
X117097821Y-151468282D01*
X117097822Y-151468284D01*
X117192468Y-151632216D01*
X117319128Y-151772886D01*
X117319130Y-151772888D01*
X117472266Y-151884148D01*
X117472271Y-151884151D01*
X117645193Y-151961142D01*
X117645196Y-151961143D01*
X117645198Y-151961144D01*
X117830355Y-152000500D01*
X117830356Y-152000500D01*
X118019645Y-152000500D01*
X118019647Y-152000500D01*
X118204804Y-151961144D01*
X118377731Y-151884151D01*
X118530872Y-151772888D01*
X118657534Y-151632216D01*
X118752180Y-151468284D01*
X118810675Y-151288256D01*
X118830461Y-151100000D01*
X118810675Y-150911744D01*
X118752180Y-150731716D01*
X118657534Y-150567784D01*
X118611475Y-150516630D01*
X118582351Y-150484284D01*
X118552121Y-150421292D01*
X118550501Y-150401312D01*
X118550501Y-99507738D01*
X118552225Y-99492124D01*
X118551939Y-99492097D01*
X118552673Y-99484334D01*
X118551921Y-99460415D01*
X118550501Y-99415204D01*
X118550501Y-99385651D01*
X118549630Y-99378760D01*
X118549173Y-99372946D01*
X118547710Y-99326374D01*
X118542122Y-99307140D01*
X118538175Y-99288082D01*
X118535665Y-99268209D01*
X118518508Y-99224876D01*
X118516615Y-99219347D01*
X118503619Y-99174615D01*
X118503618Y-99174611D01*
X118493421Y-99157369D01*
X118484864Y-99139903D01*
X118477487Y-99121269D01*
X118450084Y-99083551D01*
X118446901Y-99078706D01*
X118423171Y-99038580D01*
X118423166Y-99038574D01*
X118409006Y-99024414D01*
X118396371Y-99009621D01*
X118384594Y-98993413D01*
X118348694Y-98963714D01*
X118344382Y-98959791D01*
X112996772Y-93612181D01*
X112963287Y-93550858D01*
X112968271Y-93481166D01*
X113010143Y-93425233D01*
X113075607Y-93400816D01*
X113084453Y-93400500D01*
X132886704Y-93400500D01*
X132886707Y-93400500D01*
X133258322Y-93363899D01*
X133624560Y-93291049D01*
X133981894Y-93182653D01*
X134326883Y-93039754D01*
X134656204Y-92863729D01*
X134966685Y-92656271D01*
X135255338Y-92419381D01*
X135519381Y-92155338D01*
X135756271Y-91866685D01*
X135963729Y-91556204D01*
X136139754Y-91226883D01*
X136282653Y-90881894D01*
X136391049Y-90524560D01*
X136463899Y-90158322D01*
X136500500Y-89786707D01*
X136500500Y-89600000D01*
X136500500Y-89552405D01*
X136500500Y-63399999D01*
X136845800Y-63399999D01*
X136845800Y-63451843D01*
X136852201Y-63511371D01*
X136852203Y-63511378D01*
X136902445Y-63646085D01*
X136902449Y-63646092D01*
X136988609Y-63761186D01*
X136988612Y-63761189D01*
X137103706Y-63847349D01*
X137103713Y-63847353D01*
X137238420Y-63897595D01*
X137238427Y-63897597D01*
X137297955Y-63903998D01*
X137297972Y-63903999D01*
X137730800Y-63903999D01*
X137730800Y-63399999D01*
X136845800Y-63399999D01*
X136500500Y-63399999D01*
X136500500Y-62899999D01*
X136845800Y-62899999D01*
X137730800Y-62899999D01*
X137730800Y-62459060D01*
X137750485Y-62392021D01*
X137767120Y-62371378D01*
X137782500Y-62355998D01*
X137782500Y-61950000D01*
X137167270Y-61950000D01*
X137167921Y-61958281D01*
X137214090Y-62117194D01*
X137214092Y-62117197D01*
X137281257Y-62230768D01*
X137298440Y-62298492D01*
X137276280Y-62364755D01*
X137221814Y-62408518D01*
X137217858Y-62410071D01*
X137103713Y-62452644D01*
X137103706Y-62452648D01*
X136988612Y-62538808D01*
X136988609Y-62538811D01*
X136902449Y-62653905D01*
X136902445Y-62653912D01*
X136852203Y-62788619D01*
X136852201Y-62788626D01*
X136845800Y-62848154D01*
X136845800Y-62899999D01*
X136500500Y-62899999D01*
X136500500Y-61450000D01*
X137167270Y-61450000D01*
X137782500Y-61450000D01*
X137782500Y-60890000D01*
X137753848Y-60890000D01*
X137716722Y-60892921D01*
X137716716Y-60892922D01*
X137557805Y-60939091D01*
X137557802Y-60939092D01*
X137415357Y-61023333D01*
X137415349Y-61023339D01*
X137298339Y-61140349D01*
X137298333Y-61140357D01*
X137214092Y-61282802D01*
X137214090Y-61282805D01*
X137167921Y-61441718D01*
X137167270Y-61450000D01*
X136500500Y-61450000D01*
X136500500Y-49072156D01*
X136500500Y-49072155D01*
X136500500Y-48688171D01*
X136461309Y-47865447D01*
X136383015Y-47045519D01*
X136265797Y-46230245D01*
X136109918Y-45421472D01*
X136109917Y-45421465D01*
X135915735Y-44621035D01*
X135915735Y-44621034D01*
X135779384Y-44156668D01*
X135683683Y-43830739D01*
X135414291Y-43052382D01*
X135108168Y-42287725D01*
X134766009Y-41538500D01*
X134388587Y-40806404D01*
X134243145Y-40554492D01*
X133976758Y-40093096D01*
X133531463Y-39400203D01*
X133531460Y-39400198D01*
X133531455Y-39400191D01*
X133053687Y-38729260D01*
X133053678Y-38729248D01*
X132544542Y-38081828D01*
X132544542Y-38081829D01*
X132544536Y-38081821D01*
X132261853Y-37755587D01*
X132005162Y-37459349D01*
X132005161Y-37459349D01*
X132005155Y-37459342D01*
X131436766Y-36863234D01*
X130840658Y-36294845D01*
X130840651Y-36294838D01*
X130529005Y-36024797D01*
X130218179Y-35755464D01*
X130218171Y-35755458D01*
X130218172Y-35755458D01*
X129570752Y-35246322D01*
X129570746Y-35246317D01*
X129570740Y-35246313D01*
X128899809Y-34768545D01*
X128685302Y-34630690D01*
X128206904Y-34323242D01*
X127493600Y-33911415D01*
X127258144Y-33790029D01*
X126761500Y-33533991D01*
X126012275Y-33191832D01*
X125247618Y-32885709D01*
X124469261Y-32616317D01*
X124057060Y-32495284D01*
X123678966Y-32384265D01*
X123678965Y-32384265D01*
X122878535Y-32190083D01*
X122702154Y-32156088D01*
X122640051Y-32124072D01*
X122605116Y-32063563D01*
X122608441Y-31993772D01*
X122637938Y-31946651D01*
X123583787Y-31000802D01*
X123596042Y-30990986D01*
X123595859Y-30990764D01*
X123601866Y-30985792D01*
X123601877Y-30985786D01*
X123632775Y-30952882D01*
X123649227Y-30935364D01*
X123659671Y-30924918D01*
X123670120Y-30914471D01*
X123674379Y-30908978D01*
X123678152Y-30904561D01*
X123710062Y-30870582D01*
X123719715Y-30853020D01*
X123730389Y-30836770D01*
X123742673Y-30820936D01*
X123761180Y-30778167D01*
X123763749Y-30772924D01*
X123777563Y-30747796D01*
X123786197Y-30732092D01*
X123791177Y-30712691D01*
X123797478Y-30694288D01*
X123805438Y-30675896D01*
X123812730Y-30629849D01*
X123813911Y-30624152D01*
X123825500Y-30579019D01*
X123825500Y-30558982D01*
X123827027Y-30539583D01*
X123828137Y-30532575D01*
X123830160Y-30519804D01*
X123825775Y-30473425D01*
X123825499Y-30467585D01*
X123825499Y-30144056D01*
X123825499Y-29582733D01*
X123827225Y-29567122D01*
X123826939Y-29567095D01*
X123827673Y-29559333D01*
X123825500Y-29490172D01*
X123825500Y-29460656D01*
X123825500Y-29460650D01*
X123824631Y-29453779D01*
X123824173Y-29447952D01*
X123822710Y-29401373D01*
X123817119Y-29382130D01*
X123813173Y-29363078D01*
X123810664Y-29343208D01*
X123793504Y-29299867D01*
X123791624Y-29294379D01*
X123778618Y-29249610D01*
X123777743Y-29248131D01*
X123768423Y-29232371D01*
X123759861Y-29214894D01*
X123752487Y-29196270D01*
X123752486Y-29196268D01*
X123725079Y-29158545D01*
X123721888Y-29153686D01*
X123717111Y-29145609D01*
X123698170Y-29113580D01*
X123698168Y-29113578D01*
X123698165Y-29113574D01*
X123684006Y-29099415D01*
X123671368Y-29084619D01*
X123665018Y-29075879D01*
X123659594Y-29068413D01*
X123645597Y-29056834D01*
X123623688Y-29038709D01*
X123619376Y-29034786D01*
X122350802Y-27766211D01*
X122340979Y-27753949D01*
X122340758Y-27754133D01*
X122335785Y-27748122D01*
X122322257Y-27735418D01*
X122285363Y-27700772D01*
X122274917Y-27690326D01*
X122264474Y-27679882D01*
X122258985Y-27675624D01*
X122254560Y-27671846D01*
X122220581Y-27639937D01*
X122220579Y-27639935D01*
X122220576Y-27639934D01*
X122203028Y-27630287D01*
X122186762Y-27619603D01*
X122170932Y-27607324D01*
X122128167Y-27588817D01*
X122122921Y-27586247D01*
X122082092Y-27563802D01*
X122082091Y-27563801D01*
X122062692Y-27558821D01*
X122044280Y-27552517D01*
X122025897Y-27544561D01*
X122025891Y-27544559D01*
X121979873Y-27537271D01*
X121974151Y-27536086D01*
X121929020Y-27524499D01*
X121929018Y-27524499D01*
X121908983Y-27524499D01*
X121889585Y-27522972D01*
X121882161Y-27521796D01*
X121869804Y-27519839D01*
X121869803Y-27519839D01*
X121823415Y-27524224D01*
X121817577Y-27524499D01*
X121434378Y-27524499D01*
X121367339Y-27504814D01*
X121360067Y-27499766D01*
X121358414Y-27498528D01*
X121296531Y-27452203D01*
X121296529Y-27452202D01*
X121296528Y-27452201D01*
X121161682Y-27401907D01*
X121161683Y-27401907D01*
X121102083Y-27395500D01*
X121102081Y-27395499D01*
X121102073Y-27395499D01*
X121102064Y-27395499D01*
X119736329Y-27395499D01*
X119736323Y-27395500D01*
X119676716Y-27401907D01*
X119541871Y-27452201D01*
X119541864Y-27452205D01*
X119426655Y-27538451D01*
X119426652Y-27538454D01*
X119340406Y-27653663D01*
X119340403Y-27653668D01*
X119315915Y-27719325D01*
X119274043Y-27775258D01*
X119208579Y-27799675D01*
X119140306Y-27784823D01*
X119090901Y-27735418D01*
X119083551Y-27719324D01*
X119059154Y-27653912D01*
X119059150Y-27653905D01*
X118972990Y-27538811D01*
X118972987Y-27538808D01*
X118857893Y-27452648D01*
X118857886Y-27452644D01*
X118723179Y-27402402D01*
X118723172Y-27402400D01*
X118663644Y-27395999D01*
X118230800Y-27395999D01*
X118230800Y-28864046D01*
X118211115Y-28931085D01*
X118194481Y-28951727D01*
X117887026Y-29259182D01*
X117825703Y-29292667D01*
X117799345Y-29295501D01*
X117297929Y-29295501D01*
X117297923Y-29295502D01*
X117238316Y-29301909D01*
X117103471Y-29352203D01*
X117103469Y-29352205D01*
X117039933Y-29399768D01*
X116974469Y-29424185D01*
X116965622Y-29424501D01*
X116921845Y-29424501D01*
X116854806Y-29404816D01*
X116809051Y-29352012D01*
X116802772Y-29335107D01*
X116761370Y-29192600D01*
X116743644Y-29162628D01*
X116726462Y-29094905D01*
X116743646Y-29036386D01*
X116760905Y-29007202D01*
X116760908Y-29007194D01*
X116808846Y-28842195D01*
X116810208Y-28842590D01*
X116838331Y-28786703D01*
X116898495Y-28751178D01*
X116968315Y-28753818D01*
X117003219Y-28772124D01*
X117103706Y-28847349D01*
X117103713Y-28847353D01*
X117238420Y-28897595D01*
X117238427Y-28897597D01*
X117297955Y-28903998D01*
X117297972Y-28903999D01*
X117730800Y-28903999D01*
X117730800Y-27395999D01*
X117297955Y-27395999D01*
X117238427Y-27402400D01*
X117238420Y-27402402D01*
X117103713Y-27452644D01*
X117103706Y-27452648D01*
X116988612Y-27538808D01*
X116988609Y-27538811D01*
X116902449Y-27653905D01*
X116902445Y-27653912D01*
X116852203Y-27788619D01*
X116852201Y-27788624D01*
X116850563Y-27803862D01*
X116823822Y-27868412D01*
X116766427Y-27908257D01*
X116696602Y-27910748D01*
X116639593Y-27878282D01*
X116559650Y-27798339D01*
X116559642Y-27798333D01*
X116417197Y-27714092D01*
X116417194Y-27714090D01*
X116258280Y-27667921D01*
X116258281Y-27667921D01*
X116250000Y-27667269D01*
X116250000Y-28658500D01*
X116230315Y-28725539D01*
X116177511Y-28771294D01*
X116126000Y-28782500D01*
X115190000Y-28782500D01*
X115190000Y-28811152D01*
X115192921Y-28848277D01*
X115192922Y-28848280D01*
X115203127Y-28883404D01*
X115202928Y-28953273D01*
X115164987Y-29011944D01*
X115101348Y-29040788D01*
X115084051Y-29042000D01*
X111115243Y-29042000D01*
X111099622Y-29040275D01*
X111099596Y-29040561D01*
X111091834Y-29039827D01*
X111091833Y-29039827D01*
X111022686Y-29042000D01*
X110993149Y-29042000D01*
X110986266Y-29042869D01*
X110980449Y-29043326D01*
X110933873Y-29044790D01*
X110914629Y-29050381D01*
X110895579Y-29054325D01*
X110875711Y-29056834D01*
X110832384Y-29073988D01*
X110826858Y-29075879D01*
X110782114Y-29088879D01*
X110782110Y-29088881D01*
X110764866Y-29099079D01*
X110747405Y-29107633D01*
X110728774Y-29115010D01*
X110728762Y-29115017D01*
X110691070Y-29142402D01*
X110686187Y-29145609D01*
X110646080Y-29169329D01*
X110631914Y-29183495D01*
X110617124Y-29196127D01*
X110600914Y-29207904D01*
X110600911Y-29207907D01*
X110571210Y-29243809D01*
X110567277Y-29248131D01*
X98538600Y-41276807D01*
X98520624Y-41291680D01*
X98513863Y-41296274D01*
X98513857Y-41296280D01*
X98475889Y-41339345D01*
X98473227Y-41342181D01*
X98460681Y-41354728D01*
X98460680Y-41354729D01*
X98460679Y-41354729D01*
X98449795Y-41368759D01*
X98447318Y-41371754D01*
X98409351Y-41414820D01*
X98409346Y-41414827D01*
X98405636Y-41422109D01*
X98393143Y-41441795D01*
X98388130Y-41448258D01*
X98365324Y-41500956D01*
X98363667Y-41504479D01*
X98337604Y-41555632D01*
X98337601Y-41555640D01*
X98335819Y-41563612D01*
X98328611Y-41585797D01*
X98325362Y-41593304D01*
X98316383Y-41650002D01*
X98315653Y-41653828D01*
X98303127Y-41709865D01*
X98303127Y-41709868D01*
X98303384Y-41718039D01*
X98301920Y-41741317D01*
X98300641Y-41749395D01*
X98300641Y-41749397D01*
X98306043Y-41806551D01*
X98306288Y-41810438D01*
X98308091Y-41867827D01*
X98310371Y-41875672D01*
X98314536Y-41896571D01*
X98314653Y-41897625D01*
X98314977Y-41901055D01*
X98315300Y-41906888D01*
X98315300Y-62271999D01*
X98295615Y-62339038D01*
X98242811Y-62384793D01*
X98241782Y-62385016D01*
X98230800Y-62395999D01*
X98230800Y-63864047D01*
X98211115Y-63931086D01*
X98194481Y-63951728D01*
X97887026Y-64259182D01*
X97825703Y-64292667D01*
X97799345Y-64295501D01*
X97297929Y-64295501D01*
X97297923Y-64295502D01*
X97238315Y-64301910D01*
X97142243Y-64337742D01*
X97072552Y-64342726D01*
X97011229Y-64309240D01*
X96979835Y-64256155D01*
X96961371Y-64192604D01*
X96961370Y-64192601D01*
X96961370Y-64192600D01*
X96943644Y-64162627D01*
X96926462Y-64094905D01*
X96943646Y-64036386D01*
X96960905Y-64007202D01*
X96960906Y-64007200D01*
X96979503Y-63943188D01*
X97017109Y-63884302D01*
X97080581Y-63855095D01*
X97141914Y-63861600D01*
X97238423Y-63897596D01*
X97238427Y-63897597D01*
X97297955Y-63903998D01*
X97297972Y-63903999D01*
X97730800Y-63903999D01*
X97730800Y-62395999D01*
X97297955Y-62395999D01*
X97238427Y-62402400D01*
X97238420Y-62402402D01*
X97103713Y-62452644D01*
X97103706Y-62452648D01*
X96988612Y-62538808D01*
X96988609Y-62538811D01*
X96902449Y-62653905D01*
X96902443Y-62653917D01*
X96884282Y-62702608D01*
X96842411Y-62758542D01*
X96776946Y-62782958D01*
X96708673Y-62768106D01*
X96704981Y-62766006D01*
X96617201Y-62714094D01*
X96617194Y-62714090D01*
X96458280Y-62667921D01*
X96458281Y-62667921D01*
X96450000Y-62667269D01*
X96450000Y-63658500D01*
X96430315Y-63725539D01*
X96377511Y-63771294D01*
X96326000Y-63782500D01*
X95390000Y-63782500D01*
X95390000Y-63811152D01*
X95392921Y-63848277D01*
X95392922Y-63848283D01*
X95439091Y-64007194D01*
X95439093Y-64007199D01*
X95456355Y-64036389D01*
X95473536Y-64104113D01*
X95456355Y-64162627D01*
X95438631Y-64192596D01*
X95438628Y-64192604D01*
X95392424Y-64351637D01*
X95392423Y-64351643D01*
X95389500Y-64388795D01*
X95389501Y-64946202D01*
X95392423Y-64983354D01*
X95438630Y-65142400D01*
X95522934Y-65284950D01*
X95522941Y-65284958D01*
X95538179Y-65300196D01*
X95571666Y-65361518D01*
X95574500Y-65387879D01*
X95574500Y-89817255D01*
X95572775Y-89832872D01*
X95573061Y-89832899D01*
X95572326Y-89840665D01*
X95574500Y-89909814D01*
X95574500Y-89939343D01*
X95574501Y-89939360D01*
X95575368Y-89946231D01*
X95575826Y-89952050D01*
X95577290Y-89998624D01*
X95577291Y-89998627D01*
X95582880Y-90017867D01*
X95586824Y-90036911D01*
X95589336Y-90056791D01*
X95606490Y-90100119D01*
X95608382Y-90105647D01*
X95616065Y-90132092D01*
X95621382Y-90150390D01*
X95626066Y-90158311D01*
X95631580Y-90167634D01*
X95640138Y-90185103D01*
X95647514Y-90203732D01*
X95674898Y-90241423D01*
X95678106Y-90246307D01*
X95701827Y-90286416D01*
X95701833Y-90286424D01*
X95715990Y-90300580D01*
X95728628Y-90315376D01*
X95740405Y-90331586D01*
X95740406Y-90331587D01*
X95776309Y-90361288D01*
X95780620Y-90365210D01*
X100499194Y-95083784D01*
X102276194Y-96860784D01*
X102286019Y-96873048D01*
X102286240Y-96872866D01*
X102291210Y-96878873D01*
X102291213Y-96878876D01*
X102291214Y-96878877D01*
X102341651Y-96926241D01*
X102362530Y-96947120D01*
X102368004Y-96951366D01*
X102372442Y-96955156D01*
X102406418Y-96987062D01*
X102406422Y-96987064D01*
X102423973Y-96996713D01*
X102440231Y-97007392D01*
X102456064Y-97019674D01*
X102478015Y-97029172D01*
X102498837Y-97038183D01*
X102504081Y-97040752D01*
X102544908Y-97063197D01*
X102564312Y-97068179D01*
X102582710Y-97074478D01*
X102601105Y-97082438D01*
X102647129Y-97089726D01*
X102652832Y-97090907D01*
X102697981Y-97102500D01*
X102718016Y-97102500D01*
X102737413Y-97104026D01*
X102757196Y-97107160D01*
X102803583Y-97102775D01*
X102809422Y-97102500D01*
X107866548Y-97102500D01*
X107933587Y-97122185D01*
X107954229Y-97138819D01*
X108194482Y-97379072D01*
X108227966Y-97440393D01*
X108230800Y-97466751D01*
X108230800Y-98864047D01*
X108211115Y-98931086D01*
X108194481Y-98951728D01*
X107887026Y-99259182D01*
X107825703Y-99292667D01*
X107799345Y-99295501D01*
X107297929Y-99295501D01*
X107297923Y-99295502D01*
X107238315Y-99301910D01*
X107142243Y-99337742D01*
X107072552Y-99342726D01*
X107011229Y-99309240D01*
X106979835Y-99256155D01*
X106961371Y-99192604D01*
X106961370Y-99192601D01*
X106961370Y-99192600D01*
X106943644Y-99162627D01*
X106926462Y-99094905D01*
X106943646Y-99036386D01*
X106960905Y-99007202D01*
X106960906Y-99007200D01*
X106979503Y-98943188D01*
X107017109Y-98884302D01*
X107080581Y-98855095D01*
X107141914Y-98861600D01*
X107238423Y-98897596D01*
X107238427Y-98897597D01*
X107297955Y-98903998D01*
X107297972Y-98903999D01*
X107730800Y-98903999D01*
X107730800Y-97395999D01*
X107297955Y-97395999D01*
X107238427Y-97402400D01*
X107238420Y-97402402D01*
X107103713Y-97452644D01*
X107103706Y-97452648D01*
X106988612Y-97538808D01*
X106988609Y-97538811D01*
X106902449Y-97653905D01*
X106902443Y-97653917D01*
X106884282Y-97702608D01*
X106842411Y-97758542D01*
X106776946Y-97782958D01*
X106708673Y-97768106D01*
X106704981Y-97766006D01*
X106617201Y-97714094D01*
X106617194Y-97714090D01*
X106458280Y-97667921D01*
X106458281Y-97667921D01*
X106450000Y-97667269D01*
X106450000Y-98658500D01*
X106430315Y-98725539D01*
X106377511Y-98771294D01*
X106326000Y-98782500D01*
X105390000Y-98782500D01*
X105390000Y-98811152D01*
X105392921Y-98848277D01*
X105392922Y-98848283D01*
X105439091Y-99007194D01*
X105439093Y-99007199D01*
X105456355Y-99036389D01*
X105473536Y-99104113D01*
X105456355Y-99162627D01*
X105438631Y-99192596D01*
X105438628Y-99192604D01*
X105392424Y-99351637D01*
X105392423Y-99351643D01*
X105389500Y-99388795D01*
X105389500Y-99542046D01*
X105369815Y-99609085D01*
X105353181Y-99629727D01*
X103783708Y-101199199D01*
X103771451Y-101209020D01*
X103771634Y-101209241D01*
X103765623Y-101214213D01*
X103718272Y-101264636D01*
X103697389Y-101285519D01*
X103697377Y-101285532D01*
X103693121Y-101291017D01*
X103689337Y-101295447D01*
X103657437Y-101329418D01*
X103657436Y-101329420D01*
X103647784Y-101346976D01*
X103637110Y-101363226D01*
X103624829Y-101379061D01*
X103624824Y-101379068D01*
X103606315Y-101421838D01*
X103603745Y-101427084D01*
X103581303Y-101467906D01*
X103576322Y-101487307D01*
X103570021Y-101505710D01*
X103562062Y-101524102D01*
X103562061Y-101524105D01*
X103554771Y-101570127D01*
X103553587Y-101575846D01*
X103542001Y-101620972D01*
X103542000Y-101620982D01*
X103542000Y-101641016D01*
X103540473Y-101660415D01*
X103537340Y-101680194D01*
X103537340Y-101680195D01*
X103541725Y-101726583D01*
X103542000Y-101732421D01*
X103542000Y-150384755D01*
X103540275Y-150400372D01*
X103540561Y-150400399D01*
X103539826Y-150408165D01*
X103542000Y-150477314D01*
X103542000Y-150506843D01*
X103542001Y-150506860D01*
X103542868Y-150513731D01*
X103543326Y-150519550D01*
X103544790Y-150566124D01*
X103544791Y-150566127D01*
X103550380Y-150585367D01*
X103554324Y-150604411D01*
X103556836Y-150624291D01*
X103573990Y-150667619D01*
X103575882Y-150673147D01*
X103588882Y-150717890D01*
X103597061Y-150731721D01*
X103599080Y-150735134D01*
X103607638Y-150752603D01*
X103615014Y-150771232D01*
X103642398Y-150808923D01*
X103645606Y-150813807D01*
X103669327Y-150853916D01*
X103669333Y-150853924D01*
X103683490Y-150868080D01*
X103696127Y-150882875D01*
X103707906Y-150899087D01*
X103723203Y-150911742D01*
X103743809Y-150928788D01*
X103748120Y-150932710D01*
X110842518Y-158027109D01*
X113099197Y-160283788D01*
X113109022Y-160296051D01*
X113109243Y-160295869D01*
X113114214Y-160301878D01*
X113135043Y-160321437D01*
X113164635Y-160349226D01*
X113185529Y-160370120D01*
X113191011Y-160374373D01*
X113195443Y-160378157D01*
X113229418Y-160410062D01*
X113246976Y-160419714D01*
X113263235Y-160430395D01*
X113279064Y-160442673D01*
X113321838Y-160461182D01*
X113327056Y-160463738D01*
X113367908Y-160486197D01*
X113387316Y-160491180D01*
X113405717Y-160497480D01*
X113424104Y-160505437D01*
X113467488Y-160512308D01*
X113470119Y-160512725D01*
X113475839Y-160513909D01*
X113520981Y-160525500D01*
X113541016Y-160525500D01*
X113560414Y-160527026D01*
X113580194Y-160530159D01*
X113580195Y-160530160D01*
X113580195Y-160530159D01*
X113580196Y-160530160D01*
X113626583Y-160525775D01*
X113632422Y-160525500D01*
X118117257Y-160525500D01*
X118132877Y-160527224D01*
X118132904Y-160526939D01*
X118140660Y-160527671D01*
X118140667Y-160527673D01*
X118209814Y-160525500D01*
X118239350Y-160525500D01*
X118246228Y-160524630D01*
X118252041Y-160524172D01*
X118298627Y-160522709D01*
X118317869Y-160517117D01*
X118336912Y-160513174D01*
X118356792Y-160510664D01*
X118400122Y-160493507D01*
X118405646Y-160491617D01*
X118409396Y-160490527D01*
X118450390Y-160478618D01*
X118467629Y-160468422D01*
X118485103Y-160459862D01*
X118503727Y-160452488D01*
X118503727Y-160452487D01*
X118503732Y-160452486D01*
X118541449Y-160425082D01*
X118546305Y-160421892D01*
X118586420Y-160398170D01*
X118600589Y-160383999D01*
X118615379Y-160371368D01*
X118631587Y-160359594D01*
X118661299Y-160323676D01*
X118665212Y-160319376D01*
X120547770Y-158436819D01*
X120609094Y-158403334D01*
X120635452Y-158400500D01*
X120694644Y-158400500D01*
X120694646Y-158400500D01*
X120879803Y-158361144D01*
X121052730Y-158284151D01*
X121205871Y-158172888D01*
X121332533Y-158032216D01*
X121427179Y-157868284D01*
X121485674Y-157688256D01*
X121503321Y-157520345D01*
X121529905Y-157455732D01*
X121538952Y-157445636D01*
X135183786Y-143800802D01*
X135196048Y-143790980D01*
X135195865Y-143790759D01*
X135201867Y-143785792D01*
X135201877Y-143785786D01*
X135249241Y-143735348D01*
X135270120Y-143714470D01*
X135274373Y-143708986D01*
X135278150Y-143704563D01*
X135310062Y-143670582D01*
X135319714Y-143653023D01*
X135330389Y-143636772D01*
X135342674Y-143620936D01*
X135361186Y-143578152D01*
X135363742Y-143572935D01*
X135386197Y-143532092D01*
X135391180Y-143512680D01*
X135397477Y-143494291D01*
X135405438Y-143475895D01*
X135412729Y-143429853D01*
X135413908Y-143424162D01*
X135425500Y-143379019D01*
X135425500Y-143358982D01*
X135427027Y-143339582D01*
X135430160Y-143319804D01*
X135425775Y-143273415D01*
X135425500Y-143267577D01*
X135425500Y-109582737D01*
X135427224Y-109567123D01*
X135426938Y-109567096D01*
X135427672Y-109559333D01*
X135425500Y-109490202D01*
X135425500Y-109460651D01*
X135425500Y-109460650D01*
X135424629Y-109453759D01*
X135424172Y-109447945D01*
X135422709Y-109401374D01*
X135422709Y-109401372D01*
X135417120Y-109382137D01*
X135413174Y-109363084D01*
X135410664Y-109343208D01*
X135393501Y-109299859D01*
X135391614Y-109294346D01*
X135378617Y-109249610D01*
X135378616Y-109249608D01*
X135368421Y-109232369D01*
X135359860Y-109214893D01*
X135352486Y-109196269D01*
X135352486Y-109196267D01*
X135342474Y-109182488D01*
X135325083Y-109158550D01*
X135321900Y-109153705D01*
X135298170Y-109113579D01*
X135298165Y-109113573D01*
X135284005Y-109099413D01*
X135271370Y-109084620D01*
X135259593Y-109068412D01*
X135223693Y-109038713D01*
X135219381Y-109034790D01*
X127200424Y-101015833D01*
X127166939Y-100954510D01*
X127171923Y-100884818D01*
X127213795Y-100828885D01*
X127279259Y-100804468D01*
X127294752Y-100804330D01*
X127297898Y-100804497D01*
X127297927Y-100804501D01*
X128663672Y-100804500D01*
X128723283Y-100798092D01*
X128858131Y-100747797D01*
X128973346Y-100661547D01*
X129059596Y-100546332D01*
X129083817Y-100481390D01*
X129125689Y-100425456D01*
X129191153Y-100401039D01*
X129259426Y-100415890D01*
X129308832Y-100465295D01*
X129316182Y-100481390D01*
X129340402Y-100546329D01*
X129340406Y-100546336D01*
X129426652Y-100661545D01*
X129426655Y-100661548D01*
X129541864Y-100747794D01*
X129541871Y-100747798D01*
X129676717Y-100798092D01*
X129676716Y-100798092D01*
X129681665Y-100798624D01*
X129736327Y-100804501D01*
X131102072Y-100804500D01*
X131161683Y-100798092D01*
X131296531Y-100747797D01*
X131411746Y-100661547D01*
X131497996Y-100546332D01*
X131548291Y-100411484D01*
X131554700Y-100351874D01*
X131554699Y-99748129D01*
X131548291Y-99688518D01*
X131522112Y-99618331D01*
X131517129Y-99548641D01*
X131522114Y-99531665D01*
X131548291Y-99461483D01*
X131554700Y-99401873D01*
X131554699Y-98899498D01*
X131574383Y-98832460D01*
X131627187Y-98786705D01*
X131678699Y-98775499D01*
X132939547Y-98775499D01*
X133006586Y-98795184D01*
X133027228Y-98811818D01*
X136938182Y-102722772D01*
X136971666Y-102784093D01*
X136974500Y-102810451D01*
X136974500Y-143789545D01*
X136954815Y-143856584D01*
X136938181Y-143877226D01*
X123052228Y-157763179D01*
X122990905Y-157796664D01*
X122964547Y-157799498D01*
X122905354Y-157799498D01*
X122872897Y-157806396D01*
X122720197Y-157838853D01*
X122720192Y-157838855D01*
X122547270Y-157915846D01*
X122547265Y-157915849D01*
X122394129Y-158027109D01*
X122267466Y-158167783D01*
X122172821Y-158331713D01*
X122172818Y-158331720D01*
X122114327Y-158511738D01*
X122114326Y-158511742D01*
X122094540Y-158699998D01*
X122114326Y-158888254D01*
X122114327Y-158888257D01*
X122172818Y-159068275D01*
X122172821Y-159068282D01*
X122267467Y-159232214D01*
X122302990Y-159271666D01*
X122394129Y-159372886D01*
X122547265Y-159484146D01*
X122547270Y-159484149D01*
X122720192Y-159561140D01*
X122720197Y-159561142D01*
X122905354Y-159600498D01*
X122905355Y-159600498D01*
X123094644Y-159600498D01*
X123094646Y-159600498D01*
X123279803Y-159561142D01*
X123452730Y-159484149D01*
X123605871Y-159372886D01*
X123732533Y-159232214D01*
X123827179Y-159068282D01*
X123885674Y-158888254D01*
X123903321Y-158720343D01*
X123929905Y-158655730D01*
X123938952Y-158645634D01*
X137983788Y-144600799D01*
X137996042Y-144590984D01*
X137995859Y-144590762D01*
X138001866Y-144585790D01*
X138001877Y-144585784D01*
X138032775Y-144552880D01*
X138049227Y-144535362D01*
X138059671Y-144524916D01*
X138070120Y-144514469D01*
X138074379Y-144508976D01*
X138078152Y-144504559D01*
X138110062Y-144470580D01*
X138119715Y-144453018D01*
X138130389Y-144436768D01*
X138142673Y-144420934D01*
X138161180Y-144378165D01*
X138163749Y-144372922D01*
X138186196Y-144332091D01*
X138186197Y-144332090D01*
X138191177Y-144312689D01*
X138197478Y-144294286D01*
X138205438Y-144275894D01*
X138212730Y-144229847D01*
X138213911Y-144224150D01*
X138225500Y-144179017D01*
X138225500Y-144158980D01*
X138227027Y-144139580D01*
X138230160Y-144119802D01*
X138225775Y-144073413D01*
X138225500Y-144067575D01*
X138225500Y-102582737D01*
X138227224Y-102567123D01*
X138226938Y-102567096D01*
X138227672Y-102559333D01*
X138225500Y-102490202D01*
X138225500Y-102460651D01*
X138225500Y-102460650D01*
X138224629Y-102453759D01*
X138224172Y-102447945D01*
X138222709Y-102401374D01*
X138222709Y-102401372D01*
X138217120Y-102382137D01*
X138213174Y-102363084D01*
X138210664Y-102343208D01*
X138193501Y-102299859D01*
X138191614Y-102294346D01*
X138178617Y-102249610D01*
X138178616Y-102249608D01*
X138168421Y-102232369D01*
X138159860Y-102214893D01*
X138152486Y-102196269D01*
X138152486Y-102196267D01*
X138142474Y-102182488D01*
X138125083Y-102158550D01*
X138121900Y-102153705D01*
X138098170Y-102113579D01*
X138098165Y-102113573D01*
X138084005Y-102099413D01*
X138071370Y-102084620D01*
X138059593Y-102068412D01*
X138023693Y-102038713D01*
X138019381Y-102034790D01*
X133921772Y-97937181D01*
X133888287Y-97875858D01*
X133893271Y-97806166D01*
X133935143Y-97750233D01*
X134000607Y-97725816D01*
X134009453Y-97725500D01*
X135917257Y-97725500D01*
X135932877Y-97727224D01*
X135932904Y-97726939D01*
X135940660Y-97727671D01*
X135940667Y-97727673D01*
X136009814Y-97725500D01*
X136039350Y-97725500D01*
X136046228Y-97724630D01*
X136052041Y-97724172D01*
X136098627Y-97722709D01*
X136117869Y-97717117D01*
X136136912Y-97713174D01*
X136156792Y-97710664D01*
X136200122Y-97693507D01*
X136205646Y-97691617D01*
X136209396Y-97690527D01*
X136250390Y-97678618D01*
X136267629Y-97668422D01*
X136285103Y-97659862D01*
X136303727Y-97652488D01*
X136303727Y-97652487D01*
X136303732Y-97652486D01*
X136341449Y-97625082D01*
X136346305Y-97621892D01*
X136386420Y-97598170D01*
X136400589Y-97583999D01*
X136415379Y-97571368D01*
X136431587Y-97559594D01*
X136461299Y-97523676D01*
X136465212Y-97519376D01*
X143583786Y-90400802D01*
X143596048Y-90390980D01*
X143595865Y-90390759D01*
X143601867Y-90385792D01*
X143601877Y-90385786D01*
X143649241Y-90335348D01*
X143670120Y-90314470D01*
X143674372Y-90308987D01*
X143678145Y-90304568D01*
X143685116Y-90297145D01*
X143745360Y-90261757D01*
X143815173Y-90264556D01*
X143872391Y-90304655D01*
X143898846Y-90369322D01*
X143899500Y-90382038D01*
X143899500Y-178675500D01*
X143879815Y-178742539D01*
X143827011Y-178788294D01*
X143775500Y-178799500D01*
X94624500Y-178799500D01*
X94557461Y-178779815D01*
X94511706Y-178727011D01*
X94500500Y-178675500D01*
X94500500Y-98282500D01*
X105390000Y-98282500D01*
X105949999Y-98282500D01*
X105950000Y-97667269D01*
X105941718Y-97667921D01*
X105782805Y-97714090D01*
X105782802Y-97714092D01*
X105640357Y-97798333D01*
X105640349Y-97798339D01*
X105523339Y-97915349D01*
X105523333Y-97915357D01*
X105439092Y-98057802D01*
X105439091Y-98057805D01*
X105392922Y-98216716D01*
X105392921Y-98216722D01*
X105390000Y-98253848D01*
X105390000Y-98282500D01*
X94500500Y-98282500D01*
X94500500Y-63282500D01*
X95390000Y-63282500D01*
X95950000Y-63282500D01*
X95950000Y-62667269D01*
X95941718Y-62667921D01*
X95782805Y-62714090D01*
X95782802Y-62714092D01*
X95640357Y-62798333D01*
X95640349Y-62798339D01*
X95523339Y-62915349D01*
X95523333Y-62915357D01*
X95439092Y-63057802D01*
X95439091Y-63057805D01*
X95392922Y-63216716D01*
X95392921Y-63216722D01*
X95390000Y-63253848D01*
X95390000Y-63282500D01*
X94500500Y-63282500D01*
X94500500Y-49100000D01*
X94520027Y-48118034D01*
X94578579Y-47137621D01*
X94676062Y-46160310D01*
X94812323Y-45187648D01*
X94987145Y-44221172D01*
X95200253Y-43262411D01*
X95451310Y-42312879D01*
X95739918Y-41374080D01*
X96065621Y-40447497D01*
X96427904Y-39534596D01*
X96826195Y-38636819D01*
X97259864Y-37755587D01*
X97728224Y-36892292D01*
X98230535Y-36048301D01*
X98766004Y-35224946D01*
X99333783Y-34423532D01*
X99932975Y-33645323D01*
X100562631Y-32891552D01*
X101221757Y-32163410D01*
X101909311Y-31462048D01*
X102624204Y-30788575D01*
X103365308Y-30144056D01*
X104131449Y-29529510D01*
X104223531Y-29461483D01*
X104921417Y-28945910D01*
X105733962Y-28394177D01*
X105913387Y-28282500D01*
X115190000Y-28282500D01*
X115750000Y-28282500D01*
X115749999Y-27667269D01*
X115741718Y-27667921D01*
X115582805Y-27714090D01*
X115582802Y-27714092D01*
X115440357Y-27798333D01*
X115440349Y-27798339D01*
X115323339Y-27915349D01*
X115323333Y-27915357D01*
X115239092Y-28057802D01*
X115239091Y-28057805D01*
X115192922Y-28216716D01*
X115192921Y-28216722D01*
X115190000Y-28253848D01*
X115190000Y-28282500D01*
X105913387Y-28282500D01*
X106567799Y-27875184D01*
X107421611Y-27389752D01*
X108294047Y-26938649D01*
X109183727Y-26522587D01*
X110089245Y-26142225D01*
X111009170Y-25798163D01*
X111942045Y-25490947D01*
X112886397Y-25221061D01*
X113840732Y-24988933D01*
X114803541Y-24794930D01*
X115773302Y-24639357D01*
X116748481Y-24522462D01*
X117727536Y-24444430D01*
X118708920Y-24405382D01*
X119691080Y-24405382D01*
X120672464Y-24444430D01*
G37*
G04 #@! TD.AperFunction*
M02*
