G04 #@! TF.GenerationSoftware,KiCad,Pcbnew,7.0.7*
G04 #@! TF.CreationDate,2024-10-25T09:44:25+02:00*
G04 #@! TF.ProjectId,Benhui_Tongue,42656e68-7569-45f5-946f-6e6775652e6b,rev?*
G04 #@! TF.SameCoordinates,Original*
G04 #@! TF.FileFunction,Soldermask,Top*
G04 #@! TF.FilePolarity,Negative*
%FSLAX46Y46*%
G04 Gerber Fmt 4.6, Leading zero omitted, Abs format (unit mm)*
G04 Created by KiCad (PCBNEW 7.0.7) date 2024-10-25 09:44:25*
%MOMM*%
%LPD*%
G01*
G04 APERTURE LIST*
G04 Aperture macros list*
%AMRoundRect*
0 Rectangle with rounded corners*
0 $1 Rounding radius*
0 $2 $3 $4 $5 $6 $7 $8 $9 X,Y pos of 4 corners*
0 Add a 4 corners polygon primitive as box body*
4,1,4,$2,$3,$4,$5,$6,$7,$8,$9,$2,$3,0*
0 Add four circle primitives for the rounded corners*
1,1,$1+$1,$2,$3*
1,1,$1+$1,$4,$5*
1,1,$1+$1,$6,$7*
1,1,$1+$1,$8,$9*
0 Add four rect primitives between the rounded corners*
20,1,$1+$1,$2,$3,$4,$5,0*
20,1,$1+$1,$4,$5,$6,$7,0*
20,1,$1+$1,$6,$7,$8,$9,0*
20,1,$1+$1,$8,$9,$2,$3,0*%
G04 Aperture macros list end*
%ADD10C,3.000000*%
%ADD11C,5.600000*%
%ADD12RoundRect,0.102000X-0.650000X-1.877500X0.650000X-1.877500X0.650000X1.877500X-0.650000X1.877500X0*%
%ADD13R,1.010000X2.200000*%
%ADD14R,1.000000X2.200000*%
G04 APERTURE END LIST*
D10*
X99200000Y-59100000D03*
D11*
X109200000Y-116600000D03*
D10*
X123650000Y-29601000D03*
X139200000Y-49100000D03*
D12*
X137962500Y-174502500D03*
X137962500Y-168097500D03*
X135422500Y-174502500D03*
X135422500Y-168097500D03*
X132882500Y-174502500D03*
X132882500Y-168097500D03*
X130342500Y-174502500D03*
X130342500Y-168097500D03*
X127802500Y-174502500D03*
X127802500Y-168097500D03*
X125262500Y-174502500D03*
X125262500Y-168097500D03*
X122722500Y-174502500D03*
X122722500Y-168097500D03*
X120182500Y-174502500D03*
X120182500Y-168097500D03*
X117642500Y-174502500D03*
X117642500Y-168097500D03*
X115102500Y-174502500D03*
X115102500Y-168097500D03*
X112562500Y-174502500D03*
X112562500Y-168097500D03*
X110022500Y-174502500D03*
X110022500Y-168097500D03*
X107482500Y-174502500D03*
X107482500Y-168097500D03*
X104942500Y-174502500D03*
X104942500Y-168097500D03*
X102402500Y-174502500D03*
X102402500Y-168097500D03*
X99862500Y-174502500D03*
X99862500Y-168097500D03*
D10*
X131620000Y-33463000D03*
X114750000Y-29601000D03*
D11*
X129200000Y-116600000D03*
D10*
X139200000Y-59100000D03*
X99200000Y-99100000D03*
X99200000Y-49100000D03*
X139200000Y-84100000D03*
X99200000Y-84100000D03*
X106730000Y-33463000D03*
D13*
X115395000Y-157700000D03*
D14*
X115390000Y-152100000D03*
X117930000Y-157700000D03*
X117930000Y-152100000D03*
X120470000Y-157700000D03*
X120470000Y-152100000D03*
X123010000Y-157700000D03*
X123010000Y-152100000D03*
D10*
X99200000Y-69100000D03*
X137219000Y-40422000D03*
X139200000Y-99100000D03*
X101181000Y-40422000D03*
X139200000Y-69100000D03*
M02*
