G04 #@! TF.GenerationSoftware,KiCad,Pcbnew,7.0.7*
G04 #@! TF.CreationDate,2024-10-25T09:44:25+02:00*
G04 #@! TF.ProjectId,Benhui_Tongue,42656e68-7569-45f5-946f-6e6775652e6b,rev?*
G04 #@! TF.SameCoordinates,Original*
G04 #@! TF.FileFunction,Legend,Top*
G04 #@! TF.FilePolarity,Positive*
%FSLAX46Y46*%
G04 Gerber Fmt 4.6, Leading zero omitted, Abs format (unit mm)*
G04 Created by KiCad (PCBNEW 7.0.7) date 2024-10-25 09:44:25*
%MOMM*%
%LPD*%
G01*
G04 APERTURE LIST*
G04 Aperture macros list*
%AMRoundRect*
0 Rectangle with rounded corners*
0 $1 Rounding radius*
0 $2 $3 $4 $5 $6 $7 $8 $9 X,Y pos of 4 corners*
0 Add a 4 corners polygon primitive as box body*
4,1,4,$2,$3,$4,$5,$6,$7,$8,$9,$2,$3,0*
0 Add four circle primitives for the rounded corners*
1,1,$1+$1,$2,$3*
1,1,$1+$1,$4,$5*
1,1,$1+$1,$6,$7*
1,1,$1+$1,$8,$9*
0 Add four rect primitives between the rounded corners*
20,1,$1+$1,$2,$3,$4,$5,0*
20,1,$1+$1,$4,$5,$6,$7,0*
20,1,$1+$1,$6,$7,$8,$9,0*
20,1,$1+$1,$8,$9,$2,$3,0*%
G04 Aperture macros list end*
%ADD10C,0.150000*%
%ADD11C,0.100000*%
%ADD12C,0.254000*%
%ADD13C,0.200000*%
%ADD14C,0.250000*%
%ADD15C,3.000000*%
%ADD16C,5.600000*%
%ADD17RoundRect,0.102000X-0.650000X-1.877500X0.650000X-1.877500X0.650000X1.877500X-0.650000X1.877500X0*%
%ADD18R,1.010000X2.200000*%
%ADD19R,1.000000X2.200000*%
G04 APERTURE END LIST*
D10*
G36*
X100240350Y-64787676D02*
G01*
X98377204Y-64787676D01*
X98377204Y-63556795D01*
X98520061Y-63556795D01*
X98528970Y-63607319D01*
X98568270Y-63640296D01*
X98593922Y-63644819D01*
X98804636Y-63644819D01*
X98804636Y-64569819D01*
X98822183Y-64618028D01*
X98866612Y-64643680D01*
X98917136Y-64634771D01*
X98950113Y-64595471D01*
X98954636Y-64569819D01*
X98954636Y-64563283D01*
X99328732Y-64563283D01*
X99334573Y-64585085D01*
X99338494Y-64607319D01*
X99341121Y-64609523D01*
X99342009Y-64612837D01*
X99360500Y-64625785D01*
X99377794Y-64640296D01*
X99382378Y-64641104D01*
X99384035Y-64642264D01*
X99387323Y-64641976D01*
X99403446Y-64644819D01*
X100022493Y-64644819D01*
X100070702Y-64627272D01*
X100096354Y-64582843D01*
X100087445Y-64532319D01*
X100048145Y-64499342D01*
X100022493Y-64494819D01*
X99584512Y-64494819D01*
X100027907Y-64051423D01*
X100029802Y-64047358D01*
X100033622Y-64045012D01*
X100046025Y-64022107D01*
X100093644Y-63879251D01*
X100093599Y-63877615D01*
X100097493Y-63855533D01*
X100097493Y-63760295D01*
X100095959Y-63756081D01*
X100097001Y-63751720D01*
X100089575Y-63726754D01*
X100041956Y-63631516D01*
X100040766Y-63630390D01*
X100027907Y-63612024D01*
X99980288Y-63564405D01*
X99978806Y-63563714D01*
X99960796Y-63550356D01*
X99865558Y-63502737D01*
X99861104Y-63502224D01*
X99857669Y-63499342D01*
X99832017Y-63494819D01*
X99593922Y-63494819D01*
X99589708Y-63496352D01*
X99585347Y-63495311D01*
X99560381Y-63502737D01*
X99465143Y-63550356D01*
X99464017Y-63551545D01*
X99445651Y-63564405D01*
X99398032Y-63612024D01*
X99376351Y-63658521D01*
X99389628Y-63708075D01*
X99431654Y-63737502D01*
X99482761Y-63733030D01*
X99504098Y-63718090D01*
X99543111Y-63679076D01*
X99611627Y-63644819D01*
X99814312Y-63644819D01*
X99882828Y-63679076D01*
X99913235Y-63709483D01*
X99947493Y-63777999D01*
X99947493Y-63843363D01*
X99909321Y-63957876D01*
X99350413Y-64516786D01*
X99340875Y-64537239D01*
X99329585Y-64556795D01*
X99330181Y-64560175D01*
X99328732Y-64563283D01*
X98954636Y-64563283D01*
X98954636Y-63644819D01*
X99165350Y-63644819D01*
X99213559Y-63627272D01*
X99239211Y-63582843D01*
X99230302Y-63532319D01*
X99191002Y-63499342D01*
X99165350Y-63494819D01*
X98593922Y-63494819D01*
X98545713Y-63512366D01*
X98520061Y-63556795D01*
X98377204Y-63556795D01*
X98377204Y-63351962D01*
X100240350Y-63351962D01*
X100240350Y-64787676D01*
G37*
G36*
X130240350Y-99787676D02*
G01*
X128377204Y-99787676D01*
X128377204Y-98556795D01*
X128520061Y-98556795D01*
X128528970Y-98607319D01*
X128568270Y-98640296D01*
X128593922Y-98644819D01*
X128804636Y-98644819D01*
X128804636Y-99569819D01*
X128822183Y-99618028D01*
X128866612Y-99643680D01*
X128917136Y-99634771D01*
X128950113Y-99595471D01*
X128954636Y-99569819D01*
X128954636Y-99039473D01*
X129376351Y-99039473D01*
X129382877Y-99063832D01*
X129389100Y-99088262D01*
X129389500Y-99088549D01*
X129389628Y-99089027D01*
X129410262Y-99103475D01*
X129430756Y-99118208D01*
X129431249Y-99118170D01*
X129431654Y-99118454D01*
X129456757Y-99116257D01*
X129481916Y-99114370D01*
X129482269Y-99114024D01*
X129482761Y-99113982D01*
X129504098Y-99099042D01*
X129543111Y-99060029D01*
X129611627Y-99025771D01*
X129814312Y-99025771D01*
X129882828Y-99060029D01*
X129913235Y-99090436D01*
X129947493Y-99158952D01*
X129947493Y-99361636D01*
X129913234Y-99430153D01*
X129882827Y-99460561D01*
X129814312Y-99494819D01*
X129611627Y-99494819D01*
X129543111Y-99460561D01*
X129504099Y-99421548D01*
X129457602Y-99399866D01*
X129408047Y-99413143D01*
X129378621Y-99455168D01*
X129383091Y-99506275D01*
X129398031Y-99527612D01*
X129445650Y-99575232D01*
X129447131Y-99575922D01*
X129465143Y-99589282D01*
X129560381Y-99636901D01*
X129564834Y-99637413D01*
X129568270Y-99640296D01*
X129593922Y-99644819D01*
X129832017Y-99644819D01*
X129836230Y-99643285D01*
X129840591Y-99644327D01*
X129865558Y-99636901D01*
X129960796Y-99589282D01*
X129961920Y-99588094D01*
X129980289Y-99575232D01*
X130027907Y-99527613D01*
X130028597Y-99526131D01*
X130041956Y-99508121D01*
X130089575Y-99412883D01*
X130090087Y-99408429D01*
X130092970Y-99404994D01*
X130097493Y-99379342D01*
X130097493Y-99141247D01*
X130095959Y-99137033D01*
X130097001Y-99132672D01*
X130089575Y-99107706D01*
X130041956Y-99012468D01*
X130040766Y-99011342D01*
X130027907Y-98992976D01*
X129980288Y-98945357D01*
X129978806Y-98944666D01*
X129960796Y-98931308D01*
X129865558Y-98883689D01*
X129861104Y-98883176D01*
X129857669Y-98880294D01*
X129832017Y-98875771D01*
X129593922Y-98875771D01*
X129589708Y-98877304D01*
X129585347Y-98876263D01*
X129560381Y-98883689D01*
X129541739Y-98893009D01*
X129566558Y-98644819D01*
X129974874Y-98644819D01*
X130023083Y-98627272D01*
X130048735Y-98582843D01*
X130039826Y-98532319D01*
X130000526Y-98499342D01*
X129974874Y-98494819D01*
X129498684Y-98494819D01*
X129483716Y-98500266D01*
X129467833Y-98501458D01*
X129460326Y-98508780D01*
X129450475Y-98512366D01*
X129442511Y-98526159D01*
X129431109Y-98537282D01*
X129426377Y-98554102D01*
X129424823Y-98556795D01*
X129425130Y-98558537D01*
X129424056Y-98562356D01*
X129376437Y-99038546D01*
X129376559Y-99039026D01*
X129376351Y-99039473D01*
X128954636Y-99039473D01*
X128954636Y-98644819D01*
X129165350Y-98644819D01*
X129213559Y-98627272D01*
X129239211Y-98582843D01*
X129230302Y-98532319D01*
X129191002Y-98499342D01*
X129165350Y-98494819D01*
X128593922Y-98494819D01*
X128545713Y-98512366D01*
X128520061Y-98556795D01*
X128377204Y-98556795D01*
X128377204Y-98351962D01*
X130240350Y-98351962D01*
X130240350Y-99787676D01*
G37*
X119670112Y-164646009D02*
X119910112Y-164646009D01*
X120012969Y-165169819D02*
X119670112Y-165169819D01*
X119670112Y-165169819D02*
X119670112Y-164169819D01*
X119670112Y-164169819D02*
X120012969Y-164169819D01*
X120355827Y-165169819D02*
X120492970Y-165169819D01*
X120492970Y-165169819D02*
X120561541Y-165122200D01*
X120561541Y-165122200D02*
X120595827Y-165074580D01*
X120595827Y-165074580D02*
X120664398Y-164931723D01*
X120664398Y-164931723D02*
X120698684Y-164741247D01*
X120698684Y-164741247D02*
X120698684Y-164360295D01*
X120698684Y-164360295D02*
X120664398Y-164265057D01*
X120664398Y-164265057D02*
X120630113Y-164217438D01*
X120630113Y-164217438D02*
X120561541Y-164169819D01*
X120561541Y-164169819D02*
X120424398Y-164169819D01*
X120424398Y-164169819D02*
X120355827Y-164217438D01*
X120355827Y-164217438D02*
X120321541Y-164265057D01*
X120321541Y-164265057D02*
X120287255Y-164360295D01*
X120287255Y-164360295D02*
X120287255Y-164598390D01*
X120287255Y-164598390D02*
X120321541Y-164693628D01*
X120321541Y-164693628D02*
X120355827Y-164741247D01*
X120355827Y-164741247D02*
X120424398Y-164788866D01*
X120424398Y-164788866D02*
X120561541Y-164788866D01*
X120561541Y-164788866D02*
X120630113Y-164741247D01*
X120630113Y-164741247D02*
X120664398Y-164693628D01*
X120664398Y-164693628D02*
X120698684Y-164598390D01*
X121555826Y-164646009D02*
X121795826Y-164646009D01*
X121898683Y-165169819D02*
X121555826Y-165169819D01*
X121555826Y-165169819D02*
X121555826Y-164169819D01*
X121555826Y-164169819D02*
X121898683Y-164169819D01*
X122584398Y-165169819D02*
X122172969Y-165169819D01*
X122378684Y-165169819D02*
X122378684Y-164169819D01*
X122378684Y-164169819D02*
X122310112Y-164312676D01*
X122310112Y-164312676D02*
X122241541Y-164407914D01*
X122241541Y-164407914D02*
X122172969Y-164455533D01*
X123030112Y-164169819D02*
X123098683Y-164169819D01*
X123098683Y-164169819D02*
X123167255Y-164217438D01*
X123167255Y-164217438D02*
X123201541Y-164265057D01*
X123201541Y-164265057D02*
X123235826Y-164360295D01*
X123235826Y-164360295D02*
X123270112Y-164550771D01*
X123270112Y-164550771D02*
X123270112Y-164788866D01*
X123270112Y-164788866D02*
X123235826Y-164979342D01*
X123235826Y-164979342D02*
X123201541Y-165074580D01*
X123201541Y-165074580D02*
X123167255Y-165122200D01*
X123167255Y-165122200D02*
X123098683Y-165169819D01*
X123098683Y-165169819D02*
X123030112Y-165169819D01*
X123030112Y-165169819D02*
X122961541Y-165122200D01*
X122961541Y-165122200D02*
X122927255Y-165074580D01*
X122927255Y-165074580D02*
X122892969Y-164979342D01*
X122892969Y-164979342D02*
X122858683Y-164788866D01*
X122858683Y-164788866D02*
X122858683Y-164550771D01*
X122858683Y-164550771D02*
X122892969Y-164360295D01*
X122892969Y-164360295D02*
X122927255Y-164265057D01*
X122927255Y-164265057D02*
X122961541Y-164217438D01*
X122961541Y-164217438D02*
X123030112Y-164169819D01*
X124127254Y-164646009D02*
X124367254Y-164646009D01*
X124470111Y-165169819D02*
X124127254Y-165169819D01*
X124127254Y-165169819D02*
X124127254Y-164169819D01*
X124127254Y-164169819D02*
X124470111Y-164169819D01*
X125155826Y-165169819D02*
X124744397Y-165169819D01*
X124950112Y-165169819D02*
X124950112Y-164169819D01*
X124950112Y-164169819D02*
X124881540Y-164312676D01*
X124881540Y-164312676D02*
X124812969Y-164407914D01*
X124812969Y-164407914D02*
X124744397Y-164455533D01*
X125841540Y-165169819D02*
X125430111Y-165169819D01*
X125635826Y-165169819D02*
X125635826Y-164169819D01*
X125635826Y-164169819D02*
X125567254Y-164312676D01*
X125567254Y-164312676D02*
X125498683Y-164407914D01*
X125498683Y-164407914D02*
X125430111Y-164455533D01*
X126698682Y-164646009D02*
X126938682Y-164646009D01*
X127041539Y-165169819D02*
X126698682Y-165169819D01*
X126698682Y-165169819D02*
X126698682Y-164169819D01*
X126698682Y-164169819D02*
X127041539Y-164169819D01*
X127727254Y-165169819D02*
X127315825Y-165169819D01*
X127521540Y-165169819D02*
X127521540Y-164169819D01*
X127521540Y-164169819D02*
X127452968Y-164312676D01*
X127452968Y-164312676D02*
X127384397Y-164407914D01*
X127384397Y-164407914D02*
X127315825Y-164455533D01*
X128001539Y-164265057D02*
X128035825Y-164217438D01*
X128035825Y-164217438D02*
X128104397Y-164169819D01*
X128104397Y-164169819D02*
X128275825Y-164169819D01*
X128275825Y-164169819D02*
X128344397Y-164217438D01*
X128344397Y-164217438D02*
X128378682Y-164265057D01*
X128378682Y-164265057D02*
X128412968Y-164360295D01*
X128412968Y-164360295D02*
X128412968Y-164455533D01*
X128412968Y-164455533D02*
X128378682Y-164598390D01*
X128378682Y-164598390D02*
X127967254Y-165169819D01*
X127967254Y-165169819D02*
X128412968Y-165169819D01*
X129270110Y-164646009D02*
X129510110Y-164646009D01*
X129612967Y-165169819D02*
X129270110Y-165169819D01*
X129270110Y-165169819D02*
X129270110Y-164169819D01*
X129270110Y-164169819D02*
X129612967Y-164169819D01*
X130298682Y-165169819D02*
X129887253Y-165169819D01*
X130092968Y-165169819D02*
X130092968Y-164169819D01*
X130092968Y-164169819D02*
X130024396Y-164312676D01*
X130024396Y-164312676D02*
X129955825Y-164407914D01*
X129955825Y-164407914D02*
X129887253Y-164455533D01*
X130538682Y-164169819D02*
X130984396Y-164169819D01*
X130984396Y-164169819D02*
X130744396Y-164550771D01*
X130744396Y-164550771D02*
X130847253Y-164550771D01*
X130847253Y-164550771D02*
X130915825Y-164598390D01*
X130915825Y-164598390D02*
X130950110Y-164646009D01*
X130950110Y-164646009D02*
X130984396Y-164741247D01*
X130984396Y-164741247D02*
X130984396Y-164979342D01*
X130984396Y-164979342D02*
X130950110Y-165074580D01*
X130950110Y-165074580D02*
X130915825Y-165122200D01*
X130915825Y-165122200D02*
X130847253Y-165169819D01*
X130847253Y-165169819D02*
X130641539Y-165169819D01*
X130641539Y-165169819D02*
X130572967Y-165122200D01*
X130572967Y-165122200D02*
X130538682Y-165074580D01*
X131841538Y-164646009D02*
X132081538Y-164646009D01*
X132184395Y-165169819D02*
X131841538Y-165169819D01*
X131841538Y-165169819D02*
X131841538Y-164169819D01*
X131841538Y-164169819D02*
X132184395Y-164169819D01*
X132870110Y-165169819D02*
X132458681Y-165169819D01*
X132664396Y-165169819D02*
X132664396Y-164169819D01*
X132664396Y-164169819D02*
X132595824Y-164312676D01*
X132595824Y-164312676D02*
X132527253Y-164407914D01*
X132527253Y-164407914D02*
X132458681Y-164455533D01*
X133487253Y-164503152D02*
X133487253Y-165169819D01*
X133315824Y-164122200D02*
X133144395Y-164836485D01*
X133144395Y-164836485D02*
X133590110Y-164836485D01*
X134412966Y-164646009D02*
X134652966Y-164646009D01*
X134755823Y-165169819D02*
X134412966Y-165169819D01*
X134412966Y-165169819D02*
X134412966Y-164169819D01*
X134412966Y-164169819D02*
X134755823Y-164169819D01*
X135441538Y-165169819D02*
X135030109Y-165169819D01*
X135235824Y-165169819D02*
X135235824Y-164169819D01*
X135235824Y-164169819D02*
X135167252Y-164312676D01*
X135167252Y-164312676D02*
X135098681Y-164407914D01*
X135098681Y-164407914D02*
X135030109Y-164455533D01*
X136092966Y-164169819D02*
X135750109Y-164169819D01*
X135750109Y-164169819D02*
X135715823Y-164646009D01*
X135715823Y-164646009D02*
X135750109Y-164598390D01*
X135750109Y-164598390D02*
X135818681Y-164550771D01*
X135818681Y-164550771D02*
X135990109Y-164550771D01*
X135990109Y-164550771D02*
X136058681Y-164598390D01*
X136058681Y-164598390D02*
X136092966Y-164646009D01*
X136092966Y-164646009D02*
X136127252Y-164741247D01*
X136127252Y-164741247D02*
X136127252Y-164979342D01*
X136127252Y-164979342D02*
X136092966Y-165074580D01*
X136092966Y-165074580D02*
X136058681Y-165122200D01*
X136058681Y-165122200D02*
X135990109Y-165169819D01*
X135990109Y-165169819D02*
X135818681Y-165169819D01*
X135818681Y-165169819D02*
X135750109Y-165122200D01*
X135750109Y-165122200D02*
X135715823Y-165074580D01*
X136984394Y-164646009D02*
X137224394Y-164646009D01*
X137327251Y-165169819D02*
X136984394Y-165169819D01*
X136984394Y-165169819D02*
X136984394Y-164169819D01*
X136984394Y-164169819D02*
X137327251Y-164169819D01*
X138012966Y-165169819D02*
X137601537Y-165169819D01*
X137807252Y-165169819D02*
X137807252Y-164169819D01*
X137807252Y-164169819D02*
X137738680Y-164312676D01*
X137738680Y-164312676D02*
X137670109Y-164407914D01*
X137670109Y-164407914D02*
X137601537Y-164455533D01*
X138630109Y-164169819D02*
X138492966Y-164169819D01*
X138492966Y-164169819D02*
X138424394Y-164217438D01*
X138424394Y-164217438D02*
X138390109Y-164265057D01*
X138390109Y-164265057D02*
X138321537Y-164407914D01*
X138321537Y-164407914D02*
X138287251Y-164598390D01*
X138287251Y-164598390D02*
X138287251Y-164979342D01*
X138287251Y-164979342D02*
X138321537Y-165074580D01*
X138321537Y-165074580D02*
X138355823Y-165122200D01*
X138355823Y-165122200D02*
X138424394Y-165169819D01*
X138424394Y-165169819D02*
X138561537Y-165169819D01*
X138561537Y-165169819D02*
X138630109Y-165122200D01*
X138630109Y-165122200D02*
X138664394Y-165074580D01*
X138664394Y-165074580D02*
X138698680Y-164979342D01*
X138698680Y-164979342D02*
X138698680Y-164741247D01*
X138698680Y-164741247D02*
X138664394Y-164646009D01*
X138664394Y-164646009D02*
X138630109Y-164598390D01*
X138630109Y-164598390D02*
X138561537Y-164550771D01*
X138561537Y-164550771D02*
X138424394Y-164550771D01*
X138424394Y-164550771D02*
X138355823Y-164598390D01*
X138355823Y-164598390D02*
X138321537Y-164646009D01*
X138321537Y-164646009D02*
X138287251Y-164741247D01*
X114784398Y-159569819D02*
X115298684Y-159569819D01*
X115041541Y-160569819D02*
X115041541Y-159569819D01*
X115984398Y-159903152D02*
X115984398Y-160569819D01*
X115770112Y-159522200D02*
X115555826Y-160236485D01*
X115555826Y-160236485D02*
X116112969Y-160236485D01*
X117741540Y-159569819D02*
X118341540Y-160569819D01*
X118341540Y-159569819D02*
X117741540Y-160569819D01*
X119284397Y-159569819D02*
X119841540Y-159569819D01*
X119841540Y-159569819D02*
X119541540Y-159950771D01*
X119541540Y-159950771D02*
X119670111Y-159950771D01*
X119670111Y-159950771D02*
X119755826Y-159998390D01*
X119755826Y-159998390D02*
X119798683Y-160046009D01*
X119798683Y-160046009D02*
X119841540Y-160141247D01*
X119841540Y-160141247D02*
X119841540Y-160379342D01*
X119841540Y-160379342D02*
X119798683Y-160474580D01*
X119798683Y-160474580D02*
X119755826Y-160522200D01*
X119755826Y-160522200D02*
X119670111Y-160569819D01*
X119670111Y-160569819D02*
X119412968Y-160569819D01*
X119412968Y-160569819D02*
X119327254Y-160522200D01*
X119327254Y-160522200D02*
X119284397Y-160474580D01*
X120227254Y-160474580D02*
X120270111Y-160522200D01*
X120270111Y-160522200D02*
X120227254Y-160569819D01*
X120227254Y-160569819D02*
X120184397Y-160522200D01*
X120184397Y-160522200D02*
X120227254Y-160474580D01*
X120227254Y-160474580D02*
X120227254Y-160569819D01*
X120570111Y-159569819D02*
X121127254Y-159569819D01*
X121127254Y-159569819D02*
X120827254Y-159950771D01*
X120827254Y-159950771D02*
X120955825Y-159950771D01*
X120955825Y-159950771D02*
X121041540Y-159998390D01*
X121041540Y-159998390D02*
X121084397Y-160046009D01*
X121084397Y-160046009D02*
X121127254Y-160141247D01*
X121127254Y-160141247D02*
X121127254Y-160379342D01*
X121127254Y-160379342D02*
X121084397Y-160474580D01*
X121084397Y-160474580D02*
X121041540Y-160522200D01*
X121041540Y-160522200D02*
X120955825Y-160569819D01*
X120955825Y-160569819D02*
X120698682Y-160569819D01*
X120698682Y-160569819D02*
X120612968Y-160522200D01*
X120612968Y-160522200D02*
X120570111Y-160474580D01*
X121384397Y-159569819D02*
X121684397Y-160569819D01*
X121684397Y-160569819D02*
X121984397Y-159569819D01*
X122841540Y-159569819D02*
X123355826Y-159569819D01*
X123098683Y-160569819D02*
X123098683Y-159569819D01*
X124084397Y-159569819D02*
X123655825Y-159569819D01*
X123655825Y-159569819D02*
X123612968Y-160046009D01*
X123612968Y-160046009D02*
X123655825Y-159998390D01*
X123655825Y-159998390D02*
X123741540Y-159950771D01*
X123741540Y-159950771D02*
X123955825Y-159950771D01*
X123955825Y-159950771D02*
X124041540Y-159998390D01*
X124041540Y-159998390D02*
X124084397Y-160046009D01*
X124084397Y-160046009D02*
X124127254Y-160141247D01*
X124127254Y-160141247D02*
X124127254Y-160379342D01*
X124127254Y-160379342D02*
X124084397Y-160474580D01*
X124084397Y-160474580D02*
X124041540Y-160522200D01*
X124041540Y-160522200D02*
X123955825Y-160569819D01*
X123955825Y-160569819D02*
X123741540Y-160569819D01*
X123741540Y-160569819D02*
X123655825Y-160522200D01*
X123655825Y-160522200D02*
X123612968Y-160474580D01*
G36*
X110286830Y-99786537D02*
G01*
X108377204Y-99786537D01*
X108377204Y-98556795D01*
X108520061Y-98556795D01*
X108528970Y-98607319D01*
X108568270Y-98640296D01*
X108593922Y-98644819D01*
X108804636Y-98644819D01*
X108804636Y-99569819D01*
X108822183Y-99618028D01*
X108866612Y-99643680D01*
X108917136Y-99634771D01*
X108950113Y-99595471D01*
X108954636Y-99569819D01*
X108954636Y-99223461D01*
X109377204Y-99223461D01*
X109380756Y-99243607D01*
X109381315Y-99264052D01*
X109385117Y-99268340D01*
X109386113Y-99273985D01*
X109401780Y-99287131D01*
X109415352Y-99302437D01*
X109421022Y-99303277D01*
X109425413Y-99306962D01*
X109451065Y-99311485D01*
X109852255Y-99311485D01*
X109852255Y-99569819D01*
X109869802Y-99618028D01*
X109914231Y-99643680D01*
X109964755Y-99634771D01*
X109997732Y-99595471D01*
X110002255Y-99569819D01*
X110002255Y-99311485D01*
X110070112Y-99311485D01*
X110118321Y-99293938D01*
X110143973Y-99249509D01*
X110135064Y-99198985D01*
X110095764Y-99166008D01*
X110070112Y-99161485D01*
X110002255Y-99161485D01*
X110002255Y-98903152D01*
X109984708Y-98854943D01*
X109940279Y-98829291D01*
X109889755Y-98838200D01*
X109856778Y-98877500D01*
X109852255Y-98903152D01*
X109852255Y-99161485D01*
X109555122Y-99161485D01*
X109760311Y-98545918D01*
X109758910Y-98494634D01*
X109724872Y-98456248D01*
X109674124Y-98448723D01*
X109630411Y-98475578D01*
X109618009Y-98498483D01*
X109379914Y-99212768D01*
X109380070Y-99218496D01*
X109377204Y-99223461D01*
X108954636Y-99223461D01*
X108954636Y-98644819D01*
X109165350Y-98644819D01*
X109213559Y-98627272D01*
X109239211Y-98582843D01*
X109230302Y-98532319D01*
X109191002Y-98499342D01*
X109165350Y-98494819D01*
X108593922Y-98494819D01*
X108545713Y-98512366D01*
X108520061Y-98556795D01*
X108377204Y-98556795D01*
X108377204Y-98305866D01*
X110286830Y-98305866D01*
X110286830Y-99786537D01*
G37*
X114784398Y-149169819D02*
X115298684Y-149169819D01*
X115041541Y-150169819D02*
X115041541Y-149169819D01*
X115555826Y-149265057D02*
X115598683Y-149217438D01*
X115598683Y-149217438D02*
X115684398Y-149169819D01*
X115684398Y-149169819D02*
X115898683Y-149169819D01*
X115898683Y-149169819D02*
X115984398Y-149217438D01*
X115984398Y-149217438D02*
X116027255Y-149265057D01*
X116027255Y-149265057D02*
X116070112Y-149360295D01*
X116070112Y-149360295D02*
X116070112Y-149455533D01*
X116070112Y-149455533D02*
X116027255Y-149598390D01*
X116027255Y-149598390D02*
X115512969Y-150169819D01*
X115512969Y-150169819D02*
X116070112Y-150169819D01*
X117012969Y-149169819D02*
X117527255Y-149169819D01*
X117270112Y-150169819D02*
X117270112Y-149169819D01*
X118298683Y-150169819D02*
X117784397Y-150169819D01*
X118041540Y-150169819D02*
X118041540Y-149169819D01*
X118041540Y-149169819D02*
X117955826Y-149312676D01*
X117955826Y-149312676D02*
X117870111Y-149407914D01*
X117870111Y-149407914D02*
X117784397Y-149455533D01*
X119841540Y-149217438D02*
X119755826Y-149169819D01*
X119755826Y-149169819D02*
X119627254Y-149169819D01*
X119627254Y-149169819D02*
X119498683Y-149217438D01*
X119498683Y-149217438D02*
X119412968Y-149312676D01*
X119412968Y-149312676D02*
X119370111Y-149407914D01*
X119370111Y-149407914D02*
X119327254Y-149598390D01*
X119327254Y-149598390D02*
X119327254Y-149741247D01*
X119327254Y-149741247D02*
X119370111Y-149931723D01*
X119370111Y-149931723D02*
X119412968Y-150026961D01*
X119412968Y-150026961D02*
X119498683Y-150122200D01*
X119498683Y-150122200D02*
X119627254Y-150169819D01*
X119627254Y-150169819D02*
X119712968Y-150169819D01*
X119712968Y-150169819D02*
X119841540Y-150122200D01*
X119841540Y-150122200D02*
X119884397Y-150074580D01*
X119884397Y-150074580D02*
X119884397Y-149741247D01*
X119884397Y-149741247D02*
X119712968Y-149741247D01*
X120270111Y-150169819D02*
X120270111Y-149169819D01*
X120270111Y-149169819D02*
X120784397Y-150169819D01*
X120784397Y-150169819D02*
X120784397Y-149169819D01*
X121212968Y-150169819D02*
X121212968Y-149169819D01*
X121212968Y-149169819D02*
X121427254Y-149169819D01*
X121427254Y-149169819D02*
X121555825Y-149217438D01*
X121555825Y-149217438D02*
X121641540Y-149312676D01*
X121641540Y-149312676D02*
X121684397Y-149407914D01*
X121684397Y-149407914D02*
X121727254Y-149598390D01*
X121727254Y-149598390D02*
X121727254Y-149741247D01*
X121727254Y-149741247D02*
X121684397Y-149931723D01*
X121684397Y-149931723D02*
X121641540Y-150026961D01*
X121641540Y-150026961D02*
X121555825Y-150122200D01*
X121555825Y-150122200D02*
X121427254Y-150169819D01*
X121427254Y-150169819D02*
X121212968Y-150169819D01*
X122670111Y-149169819D02*
X123184397Y-149169819D01*
X122927254Y-150169819D02*
X122927254Y-149169819D01*
X123398682Y-149169819D02*
X123955825Y-149169819D01*
X123955825Y-149169819D02*
X123655825Y-149550771D01*
X123655825Y-149550771D02*
X123784396Y-149550771D01*
X123784396Y-149550771D02*
X123870111Y-149598390D01*
X123870111Y-149598390D02*
X123912968Y-149646009D01*
X123912968Y-149646009D02*
X123955825Y-149741247D01*
X123955825Y-149741247D02*
X123955825Y-149979342D01*
X123955825Y-149979342D02*
X123912968Y-150074580D01*
X123912968Y-150074580D02*
X123870111Y-150122200D01*
X123870111Y-150122200D02*
X123784396Y-150169819D01*
X123784396Y-150169819D02*
X123527253Y-150169819D01*
X123527253Y-150169819D02*
X123441539Y-150122200D01*
X123441539Y-150122200D02*
X123398682Y-150074580D01*
X99132017Y-164646009D02*
X99458684Y-164646009D01*
X99598684Y-165169819D02*
X99132017Y-165169819D01*
X99132017Y-165169819D02*
X99132017Y-164169819D01*
X99132017Y-164169819D02*
X99598684Y-164169819D01*
X100532017Y-165169819D02*
X99972017Y-165169819D01*
X100252017Y-165169819D02*
X100252017Y-164169819D01*
X100252017Y-164169819D02*
X100158684Y-164312676D01*
X100158684Y-164312676D02*
X100065351Y-164407914D01*
X100065351Y-164407914D02*
X99972017Y-164455533D01*
X101698684Y-164646009D02*
X102025351Y-164646009D01*
X102165351Y-165169819D02*
X101698684Y-165169819D01*
X101698684Y-165169819D02*
X101698684Y-164169819D01*
X101698684Y-164169819D02*
X102165351Y-164169819D01*
X102538684Y-164265057D02*
X102585351Y-164217438D01*
X102585351Y-164217438D02*
X102678684Y-164169819D01*
X102678684Y-164169819D02*
X102912018Y-164169819D01*
X102912018Y-164169819D02*
X103005351Y-164217438D01*
X103005351Y-164217438D02*
X103052018Y-164265057D01*
X103052018Y-164265057D02*
X103098684Y-164360295D01*
X103098684Y-164360295D02*
X103098684Y-164455533D01*
X103098684Y-164455533D02*
X103052018Y-164598390D01*
X103052018Y-164598390D02*
X102492018Y-165169819D01*
X102492018Y-165169819D02*
X103098684Y-165169819D01*
X104265351Y-164646009D02*
X104592018Y-164646009D01*
X104732018Y-165169819D02*
X104265351Y-165169819D01*
X104265351Y-165169819D02*
X104265351Y-164169819D01*
X104265351Y-164169819D02*
X104732018Y-164169819D01*
X105058685Y-164169819D02*
X105665351Y-164169819D01*
X105665351Y-164169819D02*
X105338685Y-164550771D01*
X105338685Y-164550771D02*
X105478685Y-164550771D01*
X105478685Y-164550771D02*
X105572018Y-164598390D01*
X105572018Y-164598390D02*
X105618685Y-164646009D01*
X105618685Y-164646009D02*
X105665351Y-164741247D01*
X105665351Y-164741247D02*
X105665351Y-164979342D01*
X105665351Y-164979342D02*
X105618685Y-165074580D01*
X105618685Y-165074580D02*
X105572018Y-165122200D01*
X105572018Y-165122200D02*
X105478685Y-165169819D01*
X105478685Y-165169819D02*
X105198685Y-165169819D01*
X105198685Y-165169819D02*
X105105351Y-165122200D01*
X105105351Y-165122200D02*
X105058685Y-165074580D01*
X106832018Y-164646009D02*
X107158685Y-164646009D01*
X107298685Y-165169819D02*
X106832018Y-165169819D01*
X106832018Y-165169819D02*
X106832018Y-164169819D01*
X106832018Y-164169819D02*
X107298685Y-164169819D01*
X108138685Y-164503152D02*
X108138685Y-165169819D01*
X107905352Y-164122200D02*
X107672018Y-164836485D01*
X107672018Y-164836485D02*
X108278685Y-164836485D01*
X109398685Y-164646009D02*
X109725352Y-164646009D01*
X109865352Y-165169819D02*
X109398685Y-165169819D01*
X109398685Y-165169819D02*
X109398685Y-164169819D01*
X109398685Y-164169819D02*
X109865352Y-164169819D01*
X110752019Y-164169819D02*
X110285352Y-164169819D01*
X110285352Y-164169819D02*
X110238685Y-164646009D01*
X110238685Y-164646009D02*
X110285352Y-164598390D01*
X110285352Y-164598390D02*
X110378685Y-164550771D01*
X110378685Y-164550771D02*
X110612019Y-164550771D01*
X110612019Y-164550771D02*
X110705352Y-164598390D01*
X110705352Y-164598390D02*
X110752019Y-164646009D01*
X110752019Y-164646009D02*
X110798685Y-164741247D01*
X110798685Y-164741247D02*
X110798685Y-164979342D01*
X110798685Y-164979342D02*
X110752019Y-165074580D01*
X110752019Y-165074580D02*
X110705352Y-165122200D01*
X110705352Y-165122200D02*
X110612019Y-165169819D01*
X110612019Y-165169819D02*
X110378685Y-165169819D01*
X110378685Y-165169819D02*
X110285352Y-165122200D01*
X110285352Y-165122200D02*
X110238685Y-165074580D01*
X111965352Y-164646009D02*
X112292019Y-164646009D01*
X112432019Y-165169819D02*
X111965352Y-165169819D01*
X111965352Y-165169819D02*
X111965352Y-164169819D01*
X111965352Y-164169819D02*
X112432019Y-164169819D01*
X113272019Y-164169819D02*
X113085352Y-164169819D01*
X113085352Y-164169819D02*
X112992019Y-164217438D01*
X112992019Y-164217438D02*
X112945352Y-164265057D01*
X112945352Y-164265057D02*
X112852019Y-164407914D01*
X112852019Y-164407914D02*
X112805352Y-164598390D01*
X112805352Y-164598390D02*
X112805352Y-164979342D01*
X112805352Y-164979342D02*
X112852019Y-165074580D01*
X112852019Y-165074580D02*
X112898686Y-165122200D01*
X112898686Y-165122200D02*
X112992019Y-165169819D01*
X112992019Y-165169819D02*
X113178686Y-165169819D01*
X113178686Y-165169819D02*
X113272019Y-165122200D01*
X113272019Y-165122200D02*
X113318686Y-165074580D01*
X113318686Y-165074580D02*
X113365352Y-164979342D01*
X113365352Y-164979342D02*
X113365352Y-164741247D01*
X113365352Y-164741247D02*
X113318686Y-164646009D01*
X113318686Y-164646009D02*
X113272019Y-164598390D01*
X113272019Y-164598390D02*
X113178686Y-164550771D01*
X113178686Y-164550771D02*
X112992019Y-164550771D01*
X112992019Y-164550771D02*
X112898686Y-164598390D01*
X112898686Y-164598390D02*
X112852019Y-164646009D01*
X112852019Y-164646009D02*
X112805352Y-164741247D01*
X114532019Y-164646009D02*
X114858686Y-164646009D01*
X114998686Y-165169819D02*
X114532019Y-165169819D01*
X114532019Y-165169819D02*
X114532019Y-164169819D01*
X114532019Y-164169819D02*
X114998686Y-164169819D01*
X115325353Y-164169819D02*
X115978686Y-164169819D01*
X115978686Y-164169819D02*
X115558686Y-165169819D01*
X117098686Y-164646009D02*
X117425353Y-164646009D01*
X117565353Y-165169819D02*
X117098686Y-165169819D01*
X117098686Y-165169819D02*
X117098686Y-164169819D01*
X117098686Y-164169819D02*
X117565353Y-164169819D01*
X118125353Y-164598390D02*
X118032020Y-164550771D01*
X118032020Y-164550771D02*
X117985353Y-164503152D01*
X117985353Y-164503152D02*
X117938686Y-164407914D01*
X117938686Y-164407914D02*
X117938686Y-164360295D01*
X117938686Y-164360295D02*
X117985353Y-164265057D01*
X117985353Y-164265057D02*
X118032020Y-164217438D01*
X118032020Y-164217438D02*
X118125353Y-164169819D01*
X118125353Y-164169819D02*
X118312020Y-164169819D01*
X118312020Y-164169819D02*
X118405353Y-164217438D01*
X118405353Y-164217438D02*
X118452020Y-164265057D01*
X118452020Y-164265057D02*
X118498686Y-164360295D01*
X118498686Y-164360295D02*
X118498686Y-164407914D01*
X118498686Y-164407914D02*
X118452020Y-164503152D01*
X118452020Y-164503152D02*
X118405353Y-164550771D01*
X118405353Y-164550771D02*
X118312020Y-164598390D01*
X118312020Y-164598390D02*
X118125353Y-164598390D01*
X118125353Y-164598390D02*
X118032020Y-164646009D01*
X118032020Y-164646009D02*
X117985353Y-164693628D01*
X117985353Y-164693628D02*
X117938686Y-164788866D01*
X117938686Y-164788866D02*
X117938686Y-164979342D01*
X117938686Y-164979342D02*
X117985353Y-165074580D01*
X117985353Y-165074580D02*
X118032020Y-165122200D01*
X118032020Y-165122200D02*
X118125353Y-165169819D01*
X118125353Y-165169819D02*
X118312020Y-165169819D01*
X118312020Y-165169819D02*
X118405353Y-165122200D01*
X118405353Y-165122200D02*
X118452020Y-165074580D01*
X118452020Y-165074580D02*
X118498686Y-164979342D01*
X118498686Y-164979342D02*
X118498686Y-164788866D01*
X118498686Y-164788866D02*
X118452020Y-164693628D01*
X118452020Y-164693628D02*
X118405353Y-164646009D01*
X118405353Y-164646009D02*
X118312020Y-164598390D01*
G36*
X140040350Y-64787676D02*
G01*
X138177204Y-64787676D01*
X138177204Y-63556795D01*
X138320061Y-63556795D01*
X138328970Y-63607319D01*
X138368270Y-63640296D01*
X138393922Y-63644819D01*
X138604636Y-63644819D01*
X138604636Y-64569819D01*
X138622183Y-64618028D01*
X138666612Y-64643680D01*
X138717136Y-64634771D01*
X138750113Y-64595471D01*
X138754636Y-64569819D01*
X138754636Y-63644819D01*
X138965350Y-63644819D01*
X139013559Y-63627272D01*
X139039211Y-63582843D01*
X139034618Y-63556795D01*
X139129585Y-63556795D01*
X139138494Y-63607319D01*
X139177794Y-63640296D01*
X139203446Y-63644819D01*
X139657211Y-63644819D01*
X139432717Y-63901383D01*
X139425410Y-63920234D01*
X139415299Y-63937747D01*
X139416338Y-63943640D01*
X139414176Y-63949219D01*
X139420696Y-63968358D01*
X139424208Y-63988271D01*
X139428791Y-63992116D01*
X139430721Y-63997781D01*
X139448019Y-64008251D01*
X139463508Y-64021248D01*
X139471951Y-64022736D01*
X139474610Y-64024346D01*
X139478051Y-64023812D01*
X139489160Y-64025771D01*
X139614312Y-64025771D01*
X139682828Y-64060029D01*
X139713235Y-64090436D01*
X139747493Y-64158951D01*
X139747493Y-64361637D01*
X139713234Y-64430153D01*
X139682827Y-64460561D01*
X139614312Y-64494819D01*
X139364008Y-64494819D01*
X139295492Y-64460561D01*
X139256480Y-64421548D01*
X139209983Y-64399866D01*
X139160428Y-64413143D01*
X139131002Y-64455168D01*
X139135472Y-64506275D01*
X139150412Y-64527612D01*
X139198031Y-64575232D01*
X139199512Y-64575922D01*
X139217524Y-64589282D01*
X139312762Y-64636901D01*
X139317215Y-64637413D01*
X139320651Y-64640296D01*
X139346303Y-64644819D01*
X139632017Y-64644819D01*
X139636230Y-64643285D01*
X139640591Y-64644327D01*
X139665558Y-64636901D01*
X139760796Y-64589282D01*
X139761920Y-64588094D01*
X139780289Y-64575232D01*
X139827907Y-64527613D01*
X139828597Y-64526131D01*
X139841956Y-64508121D01*
X139889575Y-64412883D01*
X139890087Y-64408429D01*
X139892970Y-64404994D01*
X139897493Y-64379342D01*
X139897493Y-64141247D01*
X139895959Y-64137033D01*
X139897001Y-64132672D01*
X139889575Y-64107706D01*
X139841956Y-64012468D01*
X139840766Y-64011342D01*
X139827907Y-63992976D01*
X139780288Y-63945357D01*
X139778806Y-63944666D01*
X139760796Y-63931308D01*
X139665558Y-63883689D01*
X139661104Y-63883176D01*
X139657669Y-63880294D01*
X139651445Y-63879196D01*
X139878936Y-63619207D01*
X139886242Y-63600355D01*
X139896354Y-63582843D01*
X139895314Y-63576949D01*
X139897477Y-63571371D01*
X139890956Y-63552231D01*
X139887445Y-63532319D01*
X139882861Y-63528473D01*
X139880932Y-63522809D01*
X139863633Y-63512338D01*
X139848145Y-63499342D01*
X139839701Y-63497853D01*
X139837043Y-63496244D01*
X139833601Y-63496777D01*
X139822493Y-63494819D01*
X139203446Y-63494819D01*
X139155237Y-63512366D01*
X139129585Y-63556795D01*
X139034618Y-63556795D01*
X139030302Y-63532319D01*
X138991002Y-63499342D01*
X138965350Y-63494819D01*
X138393922Y-63494819D01*
X138345713Y-63512366D01*
X138320061Y-63556795D01*
X138177204Y-63556795D01*
X138177204Y-63351962D01*
X140040350Y-63351962D01*
X140040350Y-64787676D01*
G37*
G36*
X120039211Y-29587676D02*
G01*
X118177204Y-29587676D01*
X118177204Y-28356795D01*
X118320061Y-28356795D01*
X118328970Y-28407319D01*
X118368270Y-28440296D01*
X118393922Y-28444819D01*
X118604636Y-28444819D01*
X118604636Y-29369819D01*
X118622183Y-29418028D01*
X118666612Y-29443680D01*
X118717136Y-29434771D01*
X118750113Y-29395471D01*
X118754636Y-29369819D01*
X118754636Y-29356795D01*
X119177204Y-29356795D01*
X119186113Y-29407319D01*
X119225413Y-29440296D01*
X119251065Y-29444819D01*
X119822493Y-29444819D01*
X119870702Y-29427272D01*
X119896354Y-29382843D01*
X119887445Y-29332319D01*
X119848145Y-29299342D01*
X119822493Y-29294819D01*
X119611779Y-29294819D01*
X119611779Y-28369819D01*
X119610303Y-28365765D01*
X119611324Y-28361576D01*
X119601676Y-28342063D01*
X119594232Y-28321610D01*
X119590497Y-28319454D01*
X119588586Y-28315587D01*
X119568651Y-28306840D01*
X119549803Y-28295958D01*
X119545555Y-28296706D01*
X119541606Y-28294974D01*
X119520711Y-28301087D01*
X119499279Y-28304867D01*
X119496507Y-28308169D01*
X119492368Y-28309381D01*
X119474375Y-28328216D01*
X119383255Y-28464896D01*
X119301875Y-28546275D01*
X119217524Y-28588451D01*
X119182252Y-28625705D01*
X119179177Y-28676916D01*
X119209741Y-28718121D01*
X119259639Y-28730041D01*
X119284606Y-28722615D01*
X119379844Y-28674996D01*
X119380969Y-28673806D01*
X119399336Y-28660947D01*
X119461779Y-28598504D01*
X119461779Y-29294819D01*
X119251065Y-29294819D01*
X119202856Y-29312366D01*
X119177204Y-29356795D01*
X118754636Y-29356795D01*
X118754636Y-28444819D01*
X118965350Y-28444819D01*
X119013559Y-28427272D01*
X119039211Y-28382843D01*
X119030302Y-28332319D01*
X118991002Y-28299342D01*
X118965350Y-28294819D01*
X118393922Y-28294819D01*
X118345713Y-28312366D01*
X118320061Y-28356795D01*
X118177204Y-28356795D01*
X118177204Y-28151962D01*
X120039211Y-28151962D01*
X120039211Y-29587676D01*
G37*
D11*
X98509524Y-56833609D02*
X98842857Y-56833609D01*
X98985714Y-57357419D02*
X98509524Y-57357419D01*
X98509524Y-57357419D02*
X98509524Y-56357419D01*
X98509524Y-56357419D02*
X98985714Y-56357419D01*
X99890476Y-56357419D02*
X99414286Y-56357419D01*
X99414286Y-56357419D02*
X99366667Y-56833609D01*
X99366667Y-56833609D02*
X99414286Y-56785990D01*
X99414286Y-56785990D02*
X99509524Y-56738371D01*
X99509524Y-56738371D02*
X99747619Y-56738371D01*
X99747619Y-56738371D02*
X99842857Y-56785990D01*
X99842857Y-56785990D02*
X99890476Y-56833609D01*
X99890476Y-56833609D02*
X99938095Y-56928847D01*
X99938095Y-56928847D02*
X99938095Y-57166942D01*
X99938095Y-57166942D02*
X99890476Y-57262180D01*
X99890476Y-57262180D02*
X99842857Y-57309800D01*
X99842857Y-57309800D02*
X99747619Y-57357419D01*
X99747619Y-57357419D02*
X99509524Y-57357419D01*
X99509524Y-57357419D02*
X99414286Y-57309800D01*
X99414286Y-57309800D02*
X99366667Y-57262180D01*
X122483333Y-27334609D02*
X122816666Y-27334609D01*
X122959523Y-27858419D02*
X122483333Y-27858419D01*
X122483333Y-27858419D02*
X122483333Y-26858419D01*
X122483333Y-26858419D02*
X122959523Y-26858419D01*
X123911904Y-27858419D02*
X123340476Y-27858419D01*
X123626190Y-27858419D02*
X123626190Y-26858419D01*
X123626190Y-26858419D02*
X123530952Y-27001276D01*
X123530952Y-27001276D02*
X123435714Y-27096514D01*
X123435714Y-27096514D02*
X123340476Y-27144133D01*
X124769047Y-26858419D02*
X124578571Y-26858419D01*
X124578571Y-26858419D02*
X124483333Y-26906038D01*
X124483333Y-26906038D02*
X124435714Y-26953657D01*
X124435714Y-26953657D02*
X124340476Y-27096514D01*
X124340476Y-27096514D02*
X124292857Y-27286990D01*
X124292857Y-27286990D02*
X124292857Y-27667942D01*
X124292857Y-27667942D02*
X124340476Y-27763180D01*
X124340476Y-27763180D02*
X124388095Y-27810800D01*
X124388095Y-27810800D02*
X124483333Y-27858419D01*
X124483333Y-27858419D02*
X124673809Y-27858419D01*
X124673809Y-27858419D02*
X124769047Y-27810800D01*
X124769047Y-27810800D02*
X124816666Y-27763180D01*
X124816666Y-27763180D02*
X124864285Y-27667942D01*
X124864285Y-27667942D02*
X124864285Y-27429847D01*
X124864285Y-27429847D02*
X124816666Y-27334609D01*
X124816666Y-27334609D02*
X124769047Y-27286990D01*
X124769047Y-27286990D02*
X124673809Y-27239371D01*
X124673809Y-27239371D02*
X124483333Y-27239371D01*
X124483333Y-27239371D02*
X124388095Y-27286990D01*
X124388095Y-27286990D02*
X124340476Y-27334609D01*
X124340476Y-27334609D02*
X124292857Y-27429847D01*
X138033333Y-46833609D02*
X138366666Y-46833609D01*
X138509523Y-47357419D02*
X138033333Y-47357419D01*
X138033333Y-47357419D02*
X138033333Y-46357419D01*
X138033333Y-46357419D02*
X138509523Y-46357419D01*
X139461904Y-47357419D02*
X138890476Y-47357419D01*
X139176190Y-47357419D02*
X139176190Y-46357419D01*
X139176190Y-46357419D02*
X139080952Y-46500276D01*
X139080952Y-46500276D02*
X138985714Y-46595514D01*
X138985714Y-46595514D02*
X138890476Y-46643133D01*
X139795238Y-46357419D02*
X140414285Y-46357419D01*
X140414285Y-46357419D02*
X140080952Y-46738371D01*
X140080952Y-46738371D02*
X140223809Y-46738371D01*
X140223809Y-46738371D02*
X140319047Y-46785990D01*
X140319047Y-46785990D02*
X140366666Y-46833609D01*
X140366666Y-46833609D02*
X140414285Y-46928847D01*
X140414285Y-46928847D02*
X140414285Y-47166942D01*
X140414285Y-47166942D02*
X140366666Y-47262180D01*
X140366666Y-47262180D02*
X140319047Y-47309800D01*
X140319047Y-47309800D02*
X140223809Y-47357419D01*
X140223809Y-47357419D02*
X139938095Y-47357419D01*
X139938095Y-47357419D02*
X139842857Y-47309800D01*
X139842857Y-47309800D02*
X139795238Y-47262180D01*
D10*
X96866666Y-170754819D02*
X96866666Y-171469104D01*
X96866666Y-171469104D02*
X96819047Y-171611961D01*
X96819047Y-171611961D02*
X96723809Y-171707200D01*
X96723809Y-171707200D02*
X96580952Y-171754819D01*
X96580952Y-171754819D02*
X96485714Y-171754819D01*
X97866666Y-171754819D02*
X97295238Y-171754819D01*
X97580952Y-171754819D02*
X97580952Y-170754819D01*
X97580952Y-170754819D02*
X97485714Y-170897676D01*
X97485714Y-170897676D02*
X97390476Y-170992914D01*
X97390476Y-170992914D02*
X97295238Y-171040533D01*
D11*
X130453333Y-31196609D02*
X130786666Y-31196609D01*
X130929523Y-31720419D02*
X130453333Y-31720419D01*
X130453333Y-31720419D02*
X130453333Y-30720419D01*
X130453333Y-30720419D02*
X130929523Y-30720419D01*
X131881904Y-31720419D02*
X131310476Y-31720419D01*
X131596190Y-31720419D02*
X131596190Y-30720419D01*
X131596190Y-30720419D02*
X131500952Y-30863276D01*
X131500952Y-30863276D02*
X131405714Y-30958514D01*
X131405714Y-30958514D02*
X131310476Y-31006133D01*
X132786666Y-30720419D02*
X132310476Y-30720419D01*
X132310476Y-30720419D02*
X132262857Y-31196609D01*
X132262857Y-31196609D02*
X132310476Y-31148990D01*
X132310476Y-31148990D02*
X132405714Y-31101371D01*
X132405714Y-31101371D02*
X132643809Y-31101371D01*
X132643809Y-31101371D02*
X132739047Y-31148990D01*
X132739047Y-31148990D02*
X132786666Y-31196609D01*
X132786666Y-31196609D02*
X132834285Y-31291847D01*
X132834285Y-31291847D02*
X132834285Y-31529942D01*
X132834285Y-31529942D02*
X132786666Y-31625180D01*
X132786666Y-31625180D02*
X132739047Y-31672800D01*
X132739047Y-31672800D02*
X132643809Y-31720419D01*
X132643809Y-31720419D02*
X132405714Y-31720419D01*
X132405714Y-31720419D02*
X132310476Y-31672800D01*
X132310476Y-31672800D02*
X132262857Y-31625180D01*
X114059524Y-27334609D02*
X114392857Y-27334609D01*
X114535714Y-27858419D02*
X114059524Y-27858419D01*
X114059524Y-27858419D02*
X114059524Y-26858419D01*
X114059524Y-26858419D02*
X114535714Y-26858419D01*
X115488095Y-27858419D02*
X114916667Y-27858419D01*
X115202381Y-27858419D02*
X115202381Y-26858419D01*
X115202381Y-26858419D02*
X115107143Y-27001276D01*
X115107143Y-27001276D02*
X115011905Y-27096514D01*
X115011905Y-27096514D02*
X114916667Y-27144133D01*
X138033333Y-56833609D02*
X138366666Y-56833609D01*
X138509523Y-57357419D02*
X138033333Y-57357419D01*
X138033333Y-57357419D02*
X138033333Y-56357419D01*
X138033333Y-56357419D02*
X138509523Y-56357419D01*
X139461904Y-57357419D02*
X138890476Y-57357419D01*
X139176190Y-57357419D02*
X139176190Y-56357419D01*
X139176190Y-56357419D02*
X139080952Y-56500276D01*
X139080952Y-56500276D02*
X138985714Y-56595514D01*
X138985714Y-56595514D02*
X138890476Y-56643133D01*
X139842857Y-56452657D02*
X139890476Y-56405038D01*
X139890476Y-56405038D02*
X139985714Y-56357419D01*
X139985714Y-56357419D02*
X140223809Y-56357419D01*
X140223809Y-56357419D02*
X140319047Y-56405038D01*
X140319047Y-56405038D02*
X140366666Y-56452657D01*
X140366666Y-56452657D02*
X140414285Y-56547895D01*
X140414285Y-56547895D02*
X140414285Y-56643133D01*
X140414285Y-56643133D02*
X140366666Y-56785990D01*
X140366666Y-56785990D02*
X139795238Y-57357419D01*
X139795238Y-57357419D02*
X140414285Y-57357419D01*
X98509524Y-96833609D02*
X98842857Y-96833609D01*
X98985714Y-97357419D02*
X98509524Y-97357419D01*
X98509524Y-97357419D02*
X98509524Y-96357419D01*
X98509524Y-96357419D02*
X98985714Y-96357419D01*
X99557143Y-96785990D02*
X99461905Y-96738371D01*
X99461905Y-96738371D02*
X99414286Y-96690752D01*
X99414286Y-96690752D02*
X99366667Y-96595514D01*
X99366667Y-96595514D02*
X99366667Y-96547895D01*
X99366667Y-96547895D02*
X99414286Y-96452657D01*
X99414286Y-96452657D02*
X99461905Y-96405038D01*
X99461905Y-96405038D02*
X99557143Y-96357419D01*
X99557143Y-96357419D02*
X99747619Y-96357419D01*
X99747619Y-96357419D02*
X99842857Y-96405038D01*
X99842857Y-96405038D02*
X99890476Y-96452657D01*
X99890476Y-96452657D02*
X99938095Y-96547895D01*
X99938095Y-96547895D02*
X99938095Y-96595514D01*
X99938095Y-96595514D02*
X99890476Y-96690752D01*
X99890476Y-96690752D02*
X99842857Y-96738371D01*
X99842857Y-96738371D02*
X99747619Y-96785990D01*
X99747619Y-96785990D02*
X99557143Y-96785990D01*
X99557143Y-96785990D02*
X99461905Y-96833609D01*
X99461905Y-96833609D02*
X99414286Y-96881228D01*
X99414286Y-96881228D02*
X99366667Y-96976466D01*
X99366667Y-96976466D02*
X99366667Y-97166942D01*
X99366667Y-97166942D02*
X99414286Y-97262180D01*
X99414286Y-97262180D02*
X99461905Y-97309800D01*
X99461905Y-97309800D02*
X99557143Y-97357419D01*
X99557143Y-97357419D02*
X99747619Y-97357419D01*
X99747619Y-97357419D02*
X99842857Y-97309800D01*
X99842857Y-97309800D02*
X99890476Y-97262180D01*
X99890476Y-97262180D02*
X99938095Y-97166942D01*
X99938095Y-97166942D02*
X99938095Y-96976466D01*
X99938095Y-96976466D02*
X99890476Y-96881228D01*
X99890476Y-96881228D02*
X99842857Y-96833609D01*
X99842857Y-96833609D02*
X99747619Y-96785990D01*
X98509524Y-46833609D02*
X98842857Y-46833609D01*
X98985714Y-47357419D02*
X98509524Y-47357419D01*
X98509524Y-47357419D02*
X98509524Y-46357419D01*
X98509524Y-46357419D02*
X98985714Y-46357419D01*
X99842857Y-46690752D02*
X99842857Y-47357419D01*
X99604762Y-46309800D02*
X99366667Y-47024085D01*
X99366667Y-47024085D02*
X99985714Y-47024085D01*
X138033333Y-81833609D02*
X138366666Y-81833609D01*
X138509523Y-82357419D02*
X138033333Y-82357419D01*
X138033333Y-82357419D02*
X138033333Y-81357419D01*
X138033333Y-81357419D02*
X138509523Y-81357419D01*
X139461904Y-82357419D02*
X138890476Y-82357419D01*
X139176190Y-82357419D02*
X139176190Y-81357419D01*
X139176190Y-81357419D02*
X139080952Y-81500276D01*
X139080952Y-81500276D02*
X138985714Y-81595514D01*
X138985714Y-81595514D02*
X138890476Y-81643133D01*
X140080952Y-81357419D02*
X140176190Y-81357419D01*
X140176190Y-81357419D02*
X140271428Y-81405038D01*
X140271428Y-81405038D02*
X140319047Y-81452657D01*
X140319047Y-81452657D02*
X140366666Y-81547895D01*
X140366666Y-81547895D02*
X140414285Y-81738371D01*
X140414285Y-81738371D02*
X140414285Y-81976466D01*
X140414285Y-81976466D02*
X140366666Y-82166942D01*
X140366666Y-82166942D02*
X140319047Y-82262180D01*
X140319047Y-82262180D02*
X140271428Y-82309800D01*
X140271428Y-82309800D02*
X140176190Y-82357419D01*
X140176190Y-82357419D02*
X140080952Y-82357419D01*
X140080952Y-82357419D02*
X139985714Y-82309800D01*
X139985714Y-82309800D02*
X139938095Y-82262180D01*
X139938095Y-82262180D02*
X139890476Y-82166942D01*
X139890476Y-82166942D02*
X139842857Y-81976466D01*
X139842857Y-81976466D02*
X139842857Y-81738371D01*
X139842857Y-81738371D02*
X139890476Y-81547895D01*
X139890476Y-81547895D02*
X139938095Y-81452657D01*
X139938095Y-81452657D02*
X139985714Y-81405038D01*
X139985714Y-81405038D02*
X140080952Y-81357419D01*
X98509524Y-81833609D02*
X98842857Y-81833609D01*
X98985714Y-82357419D02*
X98509524Y-82357419D01*
X98509524Y-82357419D02*
X98509524Y-81357419D01*
X98509524Y-81357419D02*
X98985714Y-81357419D01*
X99319048Y-81357419D02*
X99985714Y-81357419D01*
X99985714Y-81357419D02*
X99557143Y-82357419D01*
X106039524Y-31196609D02*
X106372857Y-31196609D01*
X106515714Y-31720419D02*
X106039524Y-31720419D01*
X106039524Y-31720419D02*
X106039524Y-30720419D01*
X106039524Y-30720419D02*
X106515714Y-30720419D01*
X106896667Y-30815657D02*
X106944286Y-30768038D01*
X106944286Y-30768038D02*
X107039524Y-30720419D01*
X107039524Y-30720419D02*
X107277619Y-30720419D01*
X107277619Y-30720419D02*
X107372857Y-30768038D01*
X107372857Y-30768038D02*
X107420476Y-30815657D01*
X107420476Y-30815657D02*
X107468095Y-30910895D01*
X107468095Y-30910895D02*
X107468095Y-31006133D01*
X107468095Y-31006133D02*
X107420476Y-31148990D01*
X107420476Y-31148990D02*
X106849048Y-31720419D01*
X106849048Y-31720419D02*
X107468095Y-31720419D01*
D12*
X111776667Y-154204318D02*
X111776667Y-155111461D01*
X111776667Y-155111461D02*
X111716190Y-155292889D01*
X111716190Y-155292889D02*
X111595238Y-155413842D01*
X111595238Y-155413842D02*
X111413809Y-155474318D01*
X111413809Y-155474318D02*
X111292857Y-155474318D01*
X112320952Y-154325270D02*
X112381428Y-154264794D01*
X112381428Y-154264794D02*
X112502381Y-154204318D01*
X112502381Y-154204318D02*
X112804762Y-154204318D01*
X112804762Y-154204318D02*
X112925714Y-154264794D01*
X112925714Y-154264794D02*
X112986190Y-154325270D01*
X112986190Y-154325270D02*
X113046667Y-154446222D01*
X113046667Y-154446222D02*
X113046667Y-154567175D01*
X113046667Y-154567175D02*
X112986190Y-154748603D01*
X112986190Y-154748603D02*
X112260476Y-155474318D01*
X112260476Y-155474318D02*
X113046667Y-155474318D01*
D11*
X98509524Y-66833609D02*
X98842857Y-66833609D01*
X98985714Y-67357419D02*
X98509524Y-67357419D01*
X98509524Y-67357419D02*
X98509524Y-66357419D01*
X98509524Y-66357419D02*
X98985714Y-66357419D01*
X99842857Y-66357419D02*
X99652381Y-66357419D01*
X99652381Y-66357419D02*
X99557143Y-66405038D01*
X99557143Y-66405038D02*
X99509524Y-66452657D01*
X99509524Y-66452657D02*
X99414286Y-66595514D01*
X99414286Y-66595514D02*
X99366667Y-66785990D01*
X99366667Y-66785990D02*
X99366667Y-67166942D01*
X99366667Y-67166942D02*
X99414286Y-67262180D01*
X99414286Y-67262180D02*
X99461905Y-67309800D01*
X99461905Y-67309800D02*
X99557143Y-67357419D01*
X99557143Y-67357419D02*
X99747619Y-67357419D01*
X99747619Y-67357419D02*
X99842857Y-67309800D01*
X99842857Y-67309800D02*
X99890476Y-67262180D01*
X99890476Y-67262180D02*
X99938095Y-67166942D01*
X99938095Y-67166942D02*
X99938095Y-66928847D01*
X99938095Y-66928847D02*
X99890476Y-66833609D01*
X99890476Y-66833609D02*
X99842857Y-66785990D01*
X99842857Y-66785990D02*
X99747619Y-66738371D01*
X99747619Y-66738371D02*
X99557143Y-66738371D01*
X99557143Y-66738371D02*
X99461905Y-66785990D01*
X99461905Y-66785990D02*
X99414286Y-66833609D01*
X99414286Y-66833609D02*
X99366667Y-66928847D01*
X136052333Y-38155609D02*
X136385666Y-38155609D01*
X136528523Y-38679419D02*
X136052333Y-38679419D01*
X136052333Y-38679419D02*
X136052333Y-37679419D01*
X136052333Y-37679419D02*
X136528523Y-37679419D01*
X137480904Y-38679419D02*
X136909476Y-38679419D01*
X137195190Y-38679419D02*
X137195190Y-37679419D01*
X137195190Y-37679419D02*
X137099952Y-37822276D01*
X137099952Y-37822276D02*
X137004714Y-37917514D01*
X137004714Y-37917514D02*
X136909476Y-37965133D01*
X138338047Y-38012752D02*
X138338047Y-38679419D01*
X138099952Y-37631800D02*
X137861857Y-38346085D01*
X137861857Y-38346085D02*
X138480904Y-38346085D01*
X138509524Y-96833609D02*
X138842857Y-96833609D01*
X138985714Y-97357419D02*
X138509524Y-97357419D01*
X138509524Y-97357419D02*
X138509524Y-96357419D01*
X138509524Y-96357419D02*
X138985714Y-96357419D01*
X139461905Y-97357419D02*
X139652381Y-97357419D01*
X139652381Y-97357419D02*
X139747619Y-97309800D01*
X139747619Y-97309800D02*
X139795238Y-97262180D01*
X139795238Y-97262180D02*
X139890476Y-97119323D01*
X139890476Y-97119323D02*
X139938095Y-96928847D01*
X139938095Y-96928847D02*
X139938095Y-96547895D01*
X139938095Y-96547895D02*
X139890476Y-96452657D01*
X139890476Y-96452657D02*
X139842857Y-96405038D01*
X139842857Y-96405038D02*
X139747619Y-96357419D01*
X139747619Y-96357419D02*
X139557143Y-96357419D01*
X139557143Y-96357419D02*
X139461905Y-96405038D01*
X139461905Y-96405038D02*
X139414286Y-96452657D01*
X139414286Y-96452657D02*
X139366667Y-96547895D01*
X139366667Y-96547895D02*
X139366667Y-96785990D01*
X139366667Y-96785990D02*
X139414286Y-96881228D01*
X139414286Y-96881228D02*
X139461905Y-96928847D01*
X139461905Y-96928847D02*
X139557143Y-96976466D01*
X139557143Y-96976466D02*
X139747619Y-96976466D01*
X139747619Y-96976466D02*
X139842857Y-96928847D01*
X139842857Y-96928847D02*
X139890476Y-96881228D01*
X139890476Y-96881228D02*
X139938095Y-96785990D01*
X100490524Y-38155609D02*
X100823857Y-38155609D01*
X100966714Y-38679419D02*
X100490524Y-38679419D01*
X100490524Y-38679419D02*
X100490524Y-37679419D01*
X100490524Y-37679419D02*
X100966714Y-37679419D01*
X101300048Y-37679419D02*
X101919095Y-37679419D01*
X101919095Y-37679419D02*
X101585762Y-38060371D01*
X101585762Y-38060371D02*
X101728619Y-38060371D01*
X101728619Y-38060371D02*
X101823857Y-38107990D01*
X101823857Y-38107990D02*
X101871476Y-38155609D01*
X101871476Y-38155609D02*
X101919095Y-38250847D01*
X101919095Y-38250847D02*
X101919095Y-38488942D01*
X101919095Y-38488942D02*
X101871476Y-38584180D01*
X101871476Y-38584180D02*
X101823857Y-38631800D01*
X101823857Y-38631800D02*
X101728619Y-38679419D01*
X101728619Y-38679419D02*
X101442905Y-38679419D01*
X101442905Y-38679419D02*
X101347667Y-38631800D01*
X101347667Y-38631800D02*
X101300048Y-38584180D01*
X138033333Y-66833609D02*
X138366666Y-66833609D01*
X138509523Y-67357419D02*
X138033333Y-67357419D01*
X138033333Y-67357419D02*
X138033333Y-66357419D01*
X138033333Y-66357419D02*
X138509523Y-66357419D01*
X139461904Y-67357419D02*
X138890476Y-67357419D01*
X139176190Y-67357419D02*
X139176190Y-66357419D01*
X139176190Y-66357419D02*
X139080952Y-66500276D01*
X139080952Y-66500276D02*
X138985714Y-66595514D01*
X138985714Y-66595514D02*
X138890476Y-66643133D01*
X140414285Y-67357419D02*
X139842857Y-67357419D01*
X140128571Y-67357419D02*
X140128571Y-66357419D01*
X140128571Y-66357419D02*
X140033333Y-66500276D01*
X140033333Y-66500276D02*
X139938095Y-66595514D01*
X139938095Y-66595514D02*
X139842857Y-66643133D01*
D13*
X98592500Y-173840000D02*
X98592500Y-168760000D01*
X139232500Y-168760000D02*
X139232500Y-173840000D01*
X139982500Y-174125000D02*
G75*
G03*
X139982500Y-174125000I-100000J0D01*
G01*
D11*
X113870000Y-152400000D02*
X113870000Y-157400000D01*
X124530000Y-152400000D02*
X124530000Y-157400000D01*
D14*
X114425000Y-158400000D02*
G75*
G03*
X114425000Y-158400000I-125000J0D01*
G01*
%LPC*%
D15*
X99200000Y-59100000D03*
D16*
X109200000Y-116600000D03*
D15*
X123650000Y-29601000D03*
X139200000Y-49100000D03*
D17*
X137962500Y-174502500D03*
X137962500Y-168097500D03*
X135422500Y-174502500D03*
X135422500Y-168097500D03*
X132882500Y-174502500D03*
X132882500Y-168097500D03*
X130342500Y-174502500D03*
X130342500Y-168097500D03*
X127802500Y-174502500D03*
X127802500Y-168097500D03*
X125262500Y-174502500D03*
X125262500Y-168097500D03*
X122722500Y-174502500D03*
X122722500Y-168097500D03*
X120182500Y-174502500D03*
X120182500Y-168097500D03*
X117642500Y-174502500D03*
X117642500Y-168097500D03*
X115102500Y-174502500D03*
X115102500Y-168097500D03*
X112562500Y-174502500D03*
X112562500Y-168097500D03*
X110022500Y-174502500D03*
X110022500Y-168097500D03*
X107482500Y-174502500D03*
X107482500Y-168097500D03*
X104942500Y-174502500D03*
X104942500Y-168097500D03*
X102402500Y-174502500D03*
X102402500Y-168097500D03*
X99862500Y-174502500D03*
X99862500Y-168097500D03*
D15*
X131620000Y-33463000D03*
X114750000Y-29601000D03*
D16*
X129200000Y-116600000D03*
D15*
X139200000Y-59100000D03*
X99200000Y-99100000D03*
X99200000Y-49100000D03*
X139200000Y-84100000D03*
X99200000Y-84100000D03*
X106730000Y-33463000D03*
D18*
X115395000Y-157700000D03*
D19*
X115390000Y-152100000D03*
X117930000Y-157700000D03*
X117930000Y-152100000D03*
X120470000Y-157700000D03*
X120470000Y-152100000D03*
X123010000Y-157700000D03*
X123010000Y-152100000D03*
D15*
X99200000Y-69100000D03*
X137219000Y-40422000D03*
X139200000Y-99100000D03*
X101181000Y-40422000D03*
X139200000Y-69100000D03*
%LPD*%
M02*
