%TF.GenerationSoftware,KiCad,Pcbnew,7.0.7*%
%TF.CreationDate,2024-05-14T22:36:55+02:00*%
%TF.ProjectId,Thumb_V1,5468756d-625f-4563-912e-6b696361645f,rev?*%
%TF.SameCoordinates,Original*%
%TF.FileFunction,Drillmap*%
%TF.FilePolarity,Positive*%
%FSLAX45Y45*%
G04 Gerber Fmt 4.5, Leading zero omitted, Abs format (unit mm)*
G04 Created by KiCad (PCBNEW 7.0.7) date 2024-05-14 22:36:55*
%MOMM*%
%LPD*%
G01*
G04 APERTURE LIST*
%ADD10C,0.200000*%
%ADD11C,0.030000*%
%ADD12C,0.230000*%
G04 APERTURE END LIST*
D10*
X26347950Y-12401400D02*
G75*
G03*
X26322953Y-12426400I-25000J0D01*
G01*
X26322953Y-13436400D02*
X26322953Y-12426400D01*
X25692953Y-12426400D02*
X25692953Y-13436400D01*
X25692953Y-13436400D02*
X26322953Y-13436400D01*
X25667950Y-11821400D02*
G75*
G03*
X25692953Y-11796400I25000J0D01*
G01*
X26322953Y-11796397D02*
G75*
G03*
X26347953Y-11821400I-3J-25003D01*
G01*
X25692953Y-10786400D02*
X25692953Y-11796400D01*
X3062953Y-12311400D02*
X3942953Y-12311400D01*
X25692953Y-12426397D02*
G75*
G03*
X25667953Y-12401400I-3J24997D01*
G01*
X25667953Y-11821400D02*
X4135047Y-11821400D01*
X4038998Y-12356401D02*
G75*
G03*
X3942953Y-12311400I-96048J-79999D01*
G01*
X3942953Y-11911402D02*
G75*
G03*
X4039000Y-11866400I-3J125002D01*
G01*
X3062953Y-11911400D02*
X3062953Y-12311400D01*
X26322953Y-11796400D02*
X26322953Y-10786400D01*
X27122953Y-11821400D02*
X26347953Y-11821400D01*
X26347953Y-12401400D02*
X27122953Y-12401400D01*
X3942953Y-11911400D02*
X3062953Y-11911400D01*
X4039002Y-12356398D02*
G75*
G03*
X4135047Y-12401400I96048J79998D01*
G01*
X27122953Y-12401400D02*
X27122953Y-11821400D01*
X4135047Y-11821398D02*
G75*
G03*
X4039000Y-11866400I3J-125002D01*
G01*
X26322953Y-10786400D02*
X25692953Y-10786400D01*
X4135047Y-12401400D02*
X25667953Y-12401400D01*
D11*
X4492326Y-12098400D02*
X4522326Y-12128400D01*
X4522326Y-12098400D02*
X4492326Y-12128400D01*
X4562326Y-12098400D02*
X4592326Y-12128400D01*
X4592326Y-12098400D02*
X4562326Y-12128400D01*
X4632326Y-12098400D02*
X4662326Y-12128400D01*
X4662326Y-12098400D02*
X4632326Y-12128400D01*
X4702326Y-12098400D02*
X4732326Y-12128400D01*
X4732326Y-12098400D02*
X4702326Y-12128400D01*
X4772326Y-12098400D02*
X4802326Y-12128400D01*
X4802326Y-12098400D02*
X4772326Y-12128400D01*
X5327000Y-12232000D02*
X5357000Y-12262000D01*
X5357000Y-12232000D02*
X5327000Y-12262000D01*
X5415000Y-11898000D02*
X5445000Y-11928000D01*
X5445000Y-11898000D02*
X5415000Y-11928000D01*
X24858000Y-12042000D02*
X24888000Y-12072000D01*
X24888000Y-12042000D02*
X24858000Y-12072000D01*
X25084953Y-12094400D02*
X25114953Y-12124400D01*
X25114953Y-12094400D02*
X25084953Y-12124400D01*
X25363953Y-12020400D02*
X25393953Y-12050400D01*
X25393953Y-12020400D02*
X25363953Y-12050400D01*
X25742252Y-11178748D02*
X25772252Y-11208748D01*
X25772252Y-11178748D02*
X25742252Y-11208748D01*
X25744003Y-13253155D02*
X25774003Y-13283155D01*
X25774003Y-13253155D02*
X25744003Y-13283155D01*
X25745000Y-13096000D02*
X25775000Y-13126000D01*
X25775000Y-13096000D02*
X25745000Y-13126000D01*
X25796953Y-11524400D02*
X25826953Y-11554400D01*
X25826953Y-11524400D02*
X25796953Y-11554400D01*
X25925953Y-12398402D02*
X25955953Y-12428402D01*
X25955953Y-12398402D02*
X25925953Y-12428402D01*
X26016953Y-12003400D02*
X26046953Y-12033400D01*
X26046953Y-12003400D02*
X26016953Y-12033400D01*
X26077453Y-11871900D02*
X26107453Y-11901900D01*
X26107453Y-11871900D02*
X26077453Y-11901900D01*
X26226000Y-11153000D02*
X26256000Y-11183000D01*
X26256000Y-11153000D02*
X26226000Y-11183000D01*
X26574000Y-12060000D02*
X26604000Y-12090000D01*
X26604000Y-12060000D02*
X26574000Y-12090000D01*
X26693000Y-11883000D02*
X26723000Y-11913000D01*
X26723000Y-11883000D02*
X26693000Y-11913000D01*
X26760000Y-12329000D02*
X26790000Y-12359000D01*
X26790000Y-12329000D02*
X26760000Y-12359000D01*
D12*
X25867953Y-12111400D02*
G75*
G03*
X25867953Y-12111400I-115000J0D01*
G01*
X26352953Y-12111400D02*
G75*
G03*
X26352953Y-12111400I-115000J0D01*
G01*
D10*
X3313730Y-13757884D02*
X3313730Y-13557884D01*
X3313730Y-13557884D02*
X3361349Y-13557884D01*
X3361349Y-13557884D02*
X3389920Y-13567408D01*
X3389920Y-13567408D02*
X3408968Y-13586455D01*
X3408968Y-13586455D02*
X3418492Y-13605503D01*
X3418492Y-13605503D02*
X3428016Y-13643598D01*
X3428016Y-13643598D02*
X3428016Y-13672169D01*
X3428016Y-13672169D02*
X3418492Y-13710265D01*
X3418492Y-13710265D02*
X3408968Y-13729312D01*
X3408968Y-13729312D02*
X3389920Y-13748360D01*
X3389920Y-13748360D02*
X3361349Y-13757884D01*
X3361349Y-13757884D02*
X3313730Y-13757884D01*
X3513730Y-13757884D02*
X3513730Y-13624550D01*
X3513730Y-13662646D02*
X3523254Y-13643598D01*
X3523254Y-13643598D02*
X3532778Y-13634074D01*
X3532778Y-13634074D02*
X3551825Y-13624550D01*
X3551825Y-13624550D02*
X3570873Y-13624550D01*
X3637539Y-13757884D02*
X3637539Y-13624550D01*
X3637539Y-13557884D02*
X3628016Y-13567408D01*
X3628016Y-13567408D02*
X3637539Y-13576931D01*
X3637539Y-13576931D02*
X3647063Y-13567408D01*
X3647063Y-13567408D02*
X3637539Y-13557884D01*
X3637539Y-13557884D02*
X3637539Y-13576931D01*
X3761349Y-13757884D02*
X3742301Y-13748360D01*
X3742301Y-13748360D02*
X3732778Y-13729312D01*
X3732778Y-13729312D02*
X3732778Y-13557884D01*
X3866111Y-13757884D02*
X3847063Y-13748360D01*
X3847063Y-13748360D02*
X3837539Y-13729312D01*
X3837539Y-13729312D02*
X3837539Y-13557884D01*
X4094682Y-13757884D02*
X4094682Y-13557884D01*
X4094682Y-13557884D02*
X4161349Y-13700741D01*
X4161349Y-13700741D02*
X4228016Y-13557884D01*
X4228016Y-13557884D02*
X4228016Y-13757884D01*
X4408968Y-13757884D02*
X4408968Y-13653122D01*
X4408968Y-13653122D02*
X4399444Y-13634074D01*
X4399444Y-13634074D02*
X4380397Y-13624550D01*
X4380397Y-13624550D02*
X4342301Y-13624550D01*
X4342301Y-13624550D02*
X4323254Y-13634074D01*
X4408968Y-13748360D02*
X4389921Y-13757884D01*
X4389921Y-13757884D02*
X4342301Y-13757884D01*
X4342301Y-13757884D02*
X4323254Y-13748360D01*
X4323254Y-13748360D02*
X4313730Y-13729312D01*
X4313730Y-13729312D02*
X4313730Y-13710265D01*
X4313730Y-13710265D02*
X4323254Y-13691217D01*
X4323254Y-13691217D02*
X4342301Y-13681693D01*
X4342301Y-13681693D02*
X4389921Y-13681693D01*
X4389921Y-13681693D02*
X4408968Y-13672169D01*
X4504206Y-13624550D02*
X4504206Y-13824550D01*
X4504206Y-13634074D02*
X4523254Y-13624550D01*
X4523254Y-13624550D02*
X4561349Y-13624550D01*
X4561349Y-13624550D02*
X4580397Y-13634074D01*
X4580397Y-13634074D02*
X4589921Y-13643598D01*
X4589921Y-13643598D02*
X4599444Y-13662646D01*
X4599444Y-13662646D02*
X4599444Y-13719788D01*
X4599444Y-13719788D02*
X4589921Y-13738836D01*
X4589921Y-13738836D02*
X4580397Y-13748360D01*
X4580397Y-13748360D02*
X4561349Y-13757884D01*
X4561349Y-13757884D02*
X4523254Y-13757884D01*
X4523254Y-13757884D02*
X4504206Y-13748360D01*
X4685159Y-13738836D02*
X4694682Y-13748360D01*
X4694682Y-13748360D02*
X4685159Y-13757884D01*
X4685159Y-13757884D02*
X4675635Y-13748360D01*
X4675635Y-13748360D02*
X4685159Y-13738836D01*
X4685159Y-13738836D02*
X4685159Y-13757884D01*
X4685159Y-13634074D02*
X4694682Y-13643598D01*
X4694682Y-13643598D02*
X4685159Y-13653122D01*
X4685159Y-13653122D02*
X4675635Y-13643598D01*
X4675635Y-13643598D02*
X4685159Y-13634074D01*
X4685159Y-13634074D02*
X4685159Y-13653122D01*
D11*
X3022953Y-14071400D02*
X3052953Y-14101400D01*
X3052953Y-14071400D02*
X3022953Y-14101400D01*
D10*
X3351825Y-13977884D02*
X3370873Y-13977884D01*
X3370873Y-13977884D02*
X3389920Y-13987408D01*
X3389920Y-13987408D02*
X3399444Y-13996931D01*
X3399444Y-13996931D02*
X3408968Y-14015979D01*
X3408968Y-14015979D02*
X3418492Y-14054074D01*
X3418492Y-14054074D02*
X3418492Y-14101693D01*
X3418492Y-14101693D02*
X3408968Y-14139788D01*
X3408968Y-14139788D02*
X3399444Y-14158836D01*
X3399444Y-14158836D02*
X3389920Y-14168360D01*
X3389920Y-14168360D02*
X3370873Y-14177884D01*
X3370873Y-14177884D02*
X3351825Y-14177884D01*
X3351825Y-14177884D02*
X3332778Y-14168360D01*
X3332778Y-14168360D02*
X3323254Y-14158836D01*
X3323254Y-14158836D02*
X3313730Y-14139788D01*
X3313730Y-14139788D02*
X3304206Y-14101693D01*
X3304206Y-14101693D02*
X3304206Y-14054074D01*
X3304206Y-14054074D02*
X3313730Y-14015979D01*
X3313730Y-14015979D02*
X3323254Y-13996931D01*
X3323254Y-13996931D02*
X3332778Y-13987408D01*
X3332778Y-13987408D02*
X3351825Y-13977884D01*
X3504206Y-14158836D02*
X3513730Y-14168360D01*
X3513730Y-14168360D02*
X3504206Y-14177884D01*
X3504206Y-14177884D02*
X3494682Y-14168360D01*
X3494682Y-14168360D02*
X3504206Y-14158836D01*
X3504206Y-14158836D02*
X3504206Y-14177884D01*
X3580397Y-13977884D02*
X3704206Y-13977884D01*
X3704206Y-13977884D02*
X3637539Y-14054074D01*
X3637539Y-14054074D02*
X3666111Y-14054074D01*
X3666111Y-14054074D02*
X3685159Y-14063598D01*
X3685159Y-14063598D02*
X3694682Y-14073122D01*
X3694682Y-14073122D02*
X3704206Y-14092169D01*
X3704206Y-14092169D02*
X3704206Y-14139788D01*
X3704206Y-14139788D02*
X3694682Y-14158836D01*
X3694682Y-14158836D02*
X3685159Y-14168360D01*
X3685159Y-14168360D02*
X3666111Y-14177884D01*
X3666111Y-14177884D02*
X3608968Y-14177884D01*
X3608968Y-14177884D02*
X3589920Y-14168360D01*
X3589920Y-14168360D02*
X3580397Y-14158836D01*
X3828016Y-13977884D02*
X3847063Y-13977884D01*
X3847063Y-13977884D02*
X3866111Y-13987408D01*
X3866111Y-13987408D02*
X3875635Y-13996931D01*
X3875635Y-13996931D02*
X3885159Y-14015979D01*
X3885159Y-14015979D02*
X3894682Y-14054074D01*
X3894682Y-14054074D02*
X3894682Y-14101693D01*
X3894682Y-14101693D02*
X3885159Y-14139788D01*
X3885159Y-14139788D02*
X3875635Y-14158836D01*
X3875635Y-14158836D02*
X3866111Y-14168360D01*
X3866111Y-14168360D02*
X3847063Y-14177884D01*
X3847063Y-14177884D02*
X3828016Y-14177884D01*
X3828016Y-14177884D02*
X3808968Y-14168360D01*
X3808968Y-14168360D02*
X3799444Y-14158836D01*
X3799444Y-14158836D02*
X3789920Y-14139788D01*
X3789920Y-14139788D02*
X3780397Y-14101693D01*
X3780397Y-14101693D02*
X3780397Y-14054074D01*
X3780397Y-14054074D02*
X3789920Y-14015979D01*
X3789920Y-14015979D02*
X3799444Y-13996931D01*
X3799444Y-13996931D02*
X3808968Y-13987408D01*
X3808968Y-13987408D02*
X3828016Y-13977884D01*
X4018492Y-13977884D02*
X4037540Y-13977884D01*
X4037540Y-13977884D02*
X4056587Y-13987408D01*
X4056587Y-13987408D02*
X4066111Y-13996931D01*
X4066111Y-13996931D02*
X4075635Y-14015979D01*
X4075635Y-14015979D02*
X4085159Y-14054074D01*
X4085159Y-14054074D02*
X4085159Y-14101693D01*
X4085159Y-14101693D02*
X4075635Y-14139788D01*
X4075635Y-14139788D02*
X4066111Y-14158836D01*
X4066111Y-14158836D02*
X4056587Y-14168360D01*
X4056587Y-14168360D02*
X4037540Y-14177884D01*
X4037540Y-14177884D02*
X4018492Y-14177884D01*
X4018492Y-14177884D02*
X3999444Y-14168360D01*
X3999444Y-14168360D02*
X3989920Y-14158836D01*
X3989920Y-14158836D02*
X3980397Y-14139788D01*
X3980397Y-14139788D02*
X3970873Y-14101693D01*
X3970873Y-14101693D02*
X3970873Y-14054074D01*
X3970873Y-14054074D02*
X3980397Y-14015979D01*
X3980397Y-14015979D02*
X3989920Y-13996931D01*
X3989920Y-13996931D02*
X3999444Y-13987408D01*
X3999444Y-13987408D02*
X4018492Y-13977884D01*
X4170873Y-14177884D02*
X4170873Y-14044550D01*
X4170873Y-14063598D02*
X4180397Y-14054074D01*
X4180397Y-14054074D02*
X4199444Y-14044550D01*
X4199444Y-14044550D02*
X4228016Y-14044550D01*
X4228016Y-14044550D02*
X4247063Y-14054074D01*
X4247063Y-14054074D02*
X4256587Y-14073122D01*
X4256587Y-14073122D02*
X4256587Y-14177884D01*
X4256587Y-14073122D02*
X4266111Y-14054074D01*
X4266111Y-14054074D02*
X4285159Y-14044550D01*
X4285159Y-14044550D02*
X4313730Y-14044550D01*
X4313730Y-14044550D02*
X4332778Y-14054074D01*
X4332778Y-14054074D02*
X4342302Y-14073122D01*
X4342302Y-14073122D02*
X4342302Y-14177884D01*
X4437540Y-14177884D02*
X4437540Y-14044550D01*
X4437540Y-14063598D02*
X4447063Y-14054074D01*
X4447063Y-14054074D02*
X4466111Y-14044550D01*
X4466111Y-14044550D02*
X4494683Y-14044550D01*
X4494683Y-14044550D02*
X4513730Y-14054074D01*
X4513730Y-14054074D02*
X4523254Y-14073122D01*
X4523254Y-14073122D02*
X4523254Y-14177884D01*
X4523254Y-14073122D02*
X4532778Y-14054074D01*
X4532778Y-14054074D02*
X4551825Y-14044550D01*
X4551825Y-14044550D02*
X4580397Y-14044550D01*
X4580397Y-14044550D02*
X4599444Y-14054074D01*
X4599444Y-14054074D02*
X4608968Y-14073122D01*
X4608968Y-14073122D02*
X4608968Y-14177884D01*
X4999444Y-13968360D02*
X4828016Y-14225503D01*
X5256587Y-13977884D02*
X5275635Y-13977884D01*
X5275635Y-13977884D02*
X5294683Y-13987408D01*
X5294683Y-13987408D02*
X5304206Y-13996931D01*
X5304206Y-13996931D02*
X5313730Y-14015979D01*
X5313730Y-14015979D02*
X5323254Y-14054074D01*
X5323254Y-14054074D02*
X5323254Y-14101693D01*
X5323254Y-14101693D02*
X5313730Y-14139788D01*
X5313730Y-14139788D02*
X5304206Y-14158836D01*
X5304206Y-14158836D02*
X5294683Y-14168360D01*
X5294683Y-14168360D02*
X5275635Y-14177884D01*
X5275635Y-14177884D02*
X5256587Y-14177884D01*
X5256587Y-14177884D02*
X5237540Y-14168360D01*
X5237540Y-14168360D02*
X5228016Y-14158836D01*
X5228016Y-14158836D02*
X5218492Y-14139788D01*
X5218492Y-14139788D02*
X5208968Y-14101693D01*
X5208968Y-14101693D02*
X5208968Y-14054074D01*
X5208968Y-14054074D02*
X5218492Y-14015979D01*
X5218492Y-14015979D02*
X5228016Y-13996931D01*
X5228016Y-13996931D02*
X5237540Y-13987408D01*
X5237540Y-13987408D02*
X5256587Y-13977884D01*
X5408968Y-14158836D02*
X5418492Y-14168360D01*
X5418492Y-14168360D02*
X5408968Y-14177884D01*
X5408968Y-14177884D02*
X5399445Y-14168360D01*
X5399445Y-14168360D02*
X5408968Y-14158836D01*
X5408968Y-14158836D02*
X5408968Y-14177884D01*
X5542302Y-13977884D02*
X5561349Y-13977884D01*
X5561349Y-13977884D02*
X5580397Y-13987408D01*
X5580397Y-13987408D02*
X5589921Y-13996931D01*
X5589921Y-13996931D02*
X5599444Y-14015979D01*
X5599444Y-14015979D02*
X5608968Y-14054074D01*
X5608968Y-14054074D02*
X5608968Y-14101693D01*
X5608968Y-14101693D02*
X5599444Y-14139788D01*
X5599444Y-14139788D02*
X5589921Y-14158836D01*
X5589921Y-14158836D02*
X5580397Y-14168360D01*
X5580397Y-14168360D02*
X5561349Y-14177884D01*
X5561349Y-14177884D02*
X5542302Y-14177884D01*
X5542302Y-14177884D02*
X5523254Y-14168360D01*
X5523254Y-14168360D02*
X5513730Y-14158836D01*
X5513730Y-14158836D02*
X5504206Y-14139788D01*
X5504206Y-14139788D02*
X5494683Y-14101693D01*
X5494683Y-14101693D02*
X5494683Y-14054074D01*
X5494683Y-14054074D02*
X5504206Y-14015979D01*
X5504206Y-14015979D02*
X5513730Y-13996931D01*
X5513730Y-13996931D02*
X5523254Y-13987408D01*
X5523254Y-13987408D02*
X5542302Y-13977884D01*
X5799444Y-14177884D02*
X5685159Y-14177884D01*
X5742302Y-14177884D02*
X5742302Y-13977884D01*
X5742302Y-13977884D02*
X5723254Y-14006455D01*
X5723254Y-14006455D02*
X5704206Y-14025503D01*
X5704206Y-14025503D02*
X5685159Y-14035027D01*
X5989921Y-14177884D02*
X5875635Y-14177884D01*
X5932778Y-14177884D02*
X5932778Y-13977884D01*
X5932778Y-13977884D02*
X5913730Y-14006455D01*
X5913730Y-14006455D02*
X5894683Y-14025503D01*
X5894683Y-14025503D02*
X5875635Y-14035027D01*
X6104206Y-14063598D02*
X6085159Y-14054074D01*
X6085159Y-14054074D02*
X6075635Y-14044550D01*
X6075635Y-14044550D02*
X6066111Y-14025503D01*
X6066111Y-14025503D02*
X6066111Y-14015979D01*
X6066111Y-14015979D02*
X6075635Y-13996931D01*
X6075635Y-13996931D02*
X6085159Y-13987408D01*
X6085159Y-13987408D02*
X6104206Y-13977884D01*
X6104206Y-13977884D02*
X6142302Y-13977884D01*
X6142302Y-13977884D02*
X6161349Y-13987408D01*
X6161349Y-13987408D02*
X6170873Y-13996931D01*
X6170873Y-13996931D02*
X6180397Y-14015979D01*
X6180397Y-14015979D02*
X6180397Y-14025503D01*
X6180397Y-14025503D02*
X6170873Y-14044550D01*
X6170873Y-14044550D02*
X6161349Y-14054074D01*
X6161349Y-14054074D02*
X6142302Y-14063598D01*
X6142302Y-14063598D02*
X6104206Y-14063598D01*
X6104206Y-14063598D02*
X6085159Y-14073122D01*
X6085159Y-14073122D02*
X6075635Y-14082646D01*
X6075635Y-14082646D02*
X6066111Y-14101693D01*
X6066111Y-14101693D02*
X6066111Y-14139788D01*
X6066111Y-14139788D02*
X6075635Y-14158836D01*
X6075635Y-14158836D02*
X6085159Y-14168360D01*
X6085159Y-14168360D02*
X6104206Y-14177884D01*
X6104206Y-14177884D02*
X6142302Y-14177884D01*
X6142302Y-14177884D02*
X6161349Y-14168360D01*
X6161349Y-14168360D02*
X6170873Y-14158836D01*
X6170873Y-14158836D02*
X6180397Y-14139788D01*
X6180397Y-14139788D02*
X6180397Y-14101693D01*
X6180397Y-14101693D02*
X6170873Y-14082646D01*
X6170873Y-14082646D02*
X6161349Y-14073122D01*
X6161349Y-14073122D02*
X6142302Y-14063598D01*
X6256587Y-13977884D02*
X6256587Y-14015979D01*
X6332778Y-13977884D02*
X6332778Y-14015979D01*
X6628016Y-14254074D02*
X6618492Y-14244550D01*
X6618492Y-14244550D02*
X6599445Y-14215979D01*
X6599445Y-14215979D02*
X6589921Y-14196931D01*
X6589921Y-14196931D02*
X6580397Y-14168360D01*
X6580397Y-14168360D02*
X6570873Y-14120741D01*
X6570873Y-14120741D02*
X6570873Y-14082646D01*
X6570873Y-14082646D02*
X6580397Y-14035027D01*
X6580397Y-14035027D02*
X6589921Y-14006455D01*
X6589921Y-14006455D02*
X6599445Y-13987408D01*
X6599445Y-13987408D02*
X6618492Y-13958836D01*
X6618492Y-13958836D02*
X6628016Y-13949312D01*
X6694683Y-13996931D02*
X6704206Y-13987408D01*
X6704206Y-13987408D02*
X6723254Y-13977884D01*
X6723254Y-13977884D02*
X6770873Y-13977884D01*
X6770873Y-13977884D02*
X6789921Y-13987408D01*
X6789921Y-13987408D02*
X6799445Y-13996931D01*
X6799445Y-13996931D02*
X6808968Y-14015979D01*
X6808968Y-14015979D02*
X6808968Y-14035027D01*
X6808968Y-14035027D02*
X6799445Y-14063598D01*
X6799445Y-14063598D02*
X6685159Y-14177884D01*
X6685159Y-14177884D02*
X6808968Y-14177884D01*
X6999445Y-14177884D02*
X6885159Y-14177884D01*
X6942302Y-14177884D02*
X6942302Y-13977884D01*
X6942302Y-13977884D02*
X6923254Y-14006455D01*
X6923254Y-14006455D02*
X6904206Y-14025503D01*
X6904206Y-14025503D02*
X6885159Y-14035027D01*
X7237540Y-14177884D02*
X7237540Y-13977884D01*
X7323254Y-14177884D02*
X7323254Y-14073122D01*
X7323254Y-14073122D02*
X7313730Y-14054074D01*
X7313730Y-14054074D02*
X7294683Y-14044550D01*
X7294683Y-14044550D02*
X7266111Y-14044550D01*
X7266111Y-14044550D02*
X7247064Y-14054074D01*
X7247064Y-14054074D02*
X7237540Y-14063598D01*
X7447064Y-14177884D02*
X7428016Y-14168360D01*
X7428016Y-14168360D02*
X7418492Y-14158836D01*
X7418492Y-14158836D02*
X7408968Y-14139788D01*
X7408968Y-14139788D02*
X7408968Y-14082646D01*
X7408968Y-14082646D02*
X7418492Y-14063598D01*
X7418492Y-14063598D02*
X7428016Y-14054074D01*
X7428016Y-14054074D02*
X7447064Y-14044550D01*
X7447064Y-14044550D02*
X7475635Y-14044550D01*
X7475635Y-14044550D02*
X7494683Y-14054074D01*
X7494683Y-14054074D02*
X7504207Y-14063598D01*
X7504207Y-14063598D02*
X7513730Y-14082646D01*
X7513730Y-14082646D02*
X7513730Y-14139788D01*
X7513730Y-14139788D02*
X7504207Y-14158836D01*
X7504207Y-14158836D02*
X7494683Y-14168360D01*
X7494683Y-14168360D02*
X7475635Y-14177884D01*
X7475635Y-14177884D02*
X7447064Y-14177884D01*
X7628016Y-14177884D02*
X7608968Y-14168360D01*
X7608968Y-14168360D02*
X7599445Y-14149312D01*
X7599445Y-14149312D02*
X7599445Y-13977884D01*
X7780397Y-14168360D02*
X7761349Y-14177884D01*
X7761349Y-14177884D02*
X7723254Y-14177884D01*
X7723254Y-14177884D02*
X7704207Y-14168360D01*
X7704207Y-14168360D02*
X7694683Y-14149312D01*
X7694683Y-14149312D02*
X7694683Y-14073122D01*
X7694683Y-14073122D02*
X7704207Y-14054074D01*
X7704207Y-14054074D02*
X7723254Y-14044550D01*
X7723254Y-14044550D02*
X7761349Y-14044550D01*
X7761349Y-14044550D02*
X7780397Y-14054074D01*
X7780397Y-14054074D02*
X7789921Y-14073122D01*
X7789921Y-14073122D02*
X7789921Y-14092169D01*
X7789921Y-14092169D02*
X7694683Y-14111217D01*
X7866111Y-14168360D02*
X7885159Y-14177884D01*
X7885159Y-14177884D02*
X7923254Y-14177884D01*
X7923254Y-14177884D02*
X7942302Y-14168360D01*
X7942302Y-14168360D02*
X7951826Y-14149312D01*
X7951826Y-14149312D02*
X7951826Y-14139788D01*
X7951826Y-14139788D02*
X7942302Y-14120741D01*
X7942302Y-14120741D02*
X7923254Y-14111217D01*
X7923254Y-14111217D02*
X7894683Y-14111217D01*
X7894683Y-14111217D02*
X7875635Y-14101693D01*
X7875635Y-14101693D02*
X7866111Y-14082646D01*
X7866111Y-14082646D02*
X7866111Y-14073122D01*
X7866111Y-14073122D02*
X7875635Y-14054074D01*
X7875635Y-14054074D02*
X7894683Y-14044550D01*
X7894683Y-14044550D02*
X7923254Y-14044550D01*
X7923254Y-14044550D02*
X7942302Y-14054074D01*
X8018492Y-14254074D02*
X8028016Y-14244550D01*
X8028016Y-14244550D02*
X8047064Y-14215979D01*
X8047064Y-14215979D02*
X8056588Y-14196931D01*
X8056588Y-14196931D02*
X8066111Y-14168360D01*
X8066111Y-14168360D02*
X8075635Y-14120741D01*
X8075635Y-14120741D02*
X8075635Y-14082646D01*
X8075635Y-14082646D02*
X8066111Y-14035027D01*
X8066111Y-14035027D02*
X8056588Y-14006455D01*
X8056588Y-14006455D02*
X8047064Y-13987408D01*
X8047064Y-13987408D02*
X8028016Y-13958836D01*
X8028016Y-13958836D02*
X8018492Y-13949312D01*
X3052953Y-14350400D02*
G75*
G03*
X3052953Y-14350400I-100000J0D01*
G01*
X3304206Y-14260931D02*
X3313730Y-14251408D01*
X3313730Y-14251408D02*
X3332778Y-14241884D01*
X3332778Y-14241884D02*
X3380397Y-14241884D01*
X3380397Y-14241884D02*
X3399444Y-14251408D01*
X3399444Y-14251408D02*
X3408968Y-14260931D01*
X3408968Y-14260931D02*
X3418492Y-14279979D01*
X3418492Y-14279979D02*
X3418492Y-14299027D01*
X3418492Y-14299027D02*
X3408968Y-14327598D01*
X3408968Y-14327598D02*
X3294682Y-14441884D01*
X3294682Y-14441884D02*
X3418492Y-14441884D01*
X3504206Y-14422836D02*
X3513730Y-14432360D01*
X3513730Y-14432360D02*
X3504206Y-14441884D01*
X3504206Y-14441884D02*
X3494682Y-14432360D01*
X3494682Y-14432360D02*
X3504206Y-14422836D01*
X3504206Y-14422836D02*
X3504206Y-14441884D01*
X3580397Y-14241884D02*
X3704206Y-14241884D01*
X3704206Y-14241884D02*
X3637539Y-14318074D01*
X3637539Y-14318074D02*
X3666111Y-14318074D01*
X3666111Y-14318074D02*
X3685159Y-14327598D01*
X3685159Y-14327598D02*
X3694682Y-14337122D01*
X3694682Y-14337122D02*
X3704206Y-14356169D01*
X3704206Y-14356169D02*
X3704206Y-14403788D01*
X3704206Y-14403788D02*
X3694682Y-14422836D01*
X3694682Y-14422836D02*
X3685159Y-14432360D01*
X3685159Y-14432360D02*
X3666111Y-14441884D01*
X3666111Y-14441884D02*
X3608968Y-14441884D01*
X3608968Y-14441884D02*
X3589920Y-14432360D01*
X3589920Y-14432360D02*
X3580397Y-14422836D01*
X3828016Y-14241884D02*
X3847063Y-14241884D01*
X3847063Y-14241884D02*
X3866111Y-14251408D01*
X3866111Y-14251408D02*
X3875635Y-14260931D01*
X3875635Y-14260931D02*
X3885159Y-14279979D01*
X3885159Y-14279979D02*
X3894682Y-14318074D01*
X3894682Y-14318074D02*
X3894682Y-14365693D01*
X3894682Y-14365693D02*
X3885159Y-14403788D01*
X3885159Y-14403788D02*
X3875635Y-14422836D01*
X3875635Y-14422836D02*
X3866111Y-14432360D01*
X3866111Y-14432360D02*
X3847063Y-14441884D01*
X3847063Y-14441884D02*
X3828016Y-14441884D01*
X3828016Y-14441884D02*
X3808968Y-14432360D01*
X3808968Y-14432360D02*
X3799444Y-14422836D01*
X3799444Y-14422836D02*
X3789920Y-14403788D01*
X3789920Y-14403788D02*
X3780397Y-14365693D01*
X3780397Y-14365693D02*
X3780397Y-14318074D01*
X3780397Y-14318074D02*
X3789920Y-14279979D01*
X3789920Y-14279979D02*
X3799444Y-14260931D01*
X3799444Y-14260931D02*
X3808968Y-14251408D01*
X3808968Y-14251408D02*
X3828016Y-14241884D01*
X4018492Y-14241884D02*
X4037540Y-14241884D01*
X4037540Y-14241884D02*
X4056587Y-14251408D01*
X4056587Y-14251408D02*
X4066111Y-14260931D01*
X4066111Y-14260931D02*
X4075635Y-14279979D01*
X4075635Y-14279979D02*
X4085159Y-14318074D01*
X4085159Y-14318074D02*
X4085159Y-14365693D01*
X4085159Y-14365693D02*
X4075635Y-14403788D01*
X4075635Y-14403788D02*
X4066111Y-14422836D01*
X4066111Y-14422836D02*
X4056587Y-14432360D01*
X4056587Y-14432360D02*
X4037540Y-14441884D01*
X4037540Y-14441884D02*
X4018492Y-14441884D01*
X4018492Y-14441884D02*
X3999444Y-14432360D01*
X3999444Y-14432360D02*
X3989920Y-14422836D01*
X3989920Y-14422836D02*
X3980397Y-14403788D01*
X3980397Y-14403788D02*
X3970873Y-14365693D01*
X3970873Y-14365693D02*
X3970873Y-14318074D01*
X3970873Y-14318074D02*
X3980397Y-14279979D01*
X3980397Y-14279979D02*
X3989920Y-14260931D01*
X3989920Y-14260931D02*
X3999444Y-14251408D01*
X3999444Y-14251408D02*
X4018492Y-14241884D01*
X4170873Y-14441884D02*
X4170873Y-14308550D01*
X4170873Y-14327598D02*
X4180397Y-14318074D01*
X4180397Y-14318074D02*
X4199444Y-14308550D01*
X4199444Y-14308550D02*
X4228016Y-14308550D01*
X4228016Y-14308550D02*
X4247063Y-14318074D01*
X4247063Y-14318074D02*
X4256587Y-14337122D01*
X4256587Y-14337122D02*
X4256587Y-14441884D01*
X4256587Y-14337122D02*
X4266111Y-14318074D01*
X4266111Y-14318074D02*
X4285159Y-14308550D01*
X4285159Y-14308550D02*
X4313730Y-14308550D01*
X4313730Y-14308550D02*
X4332778Y-14318074D01*
X4332778Y-14318074D02*
X4342302Y-14337122D01*
X4342302Y-14337122D02*
X4342302Y-14441884D01*
X4437540Y-14441884D02*
X4437540Y-14308550D01*
X4437540Y-14327598D02*
X4447063Y-14318074D01*
X4447063Y-14318074D02*
X4466111Y-14308550D01*
X4466111Y-14308550D02*
X4494683Y-14308550D01*
X4494683Y-14308550D02*
X4513730Y-14318074D01*
X4513730Y-14318074D02*
X4523254Y-14337122D01*
X4523254Y-14337122D02*
X4523254Y-14441884D01*
X4523254Y-14337122D02*
X4532778Y-14318074D01*
X4532778Y-14318074D02*
X4551825Y-14308550D01*
X4551825Y-14308550D02*
X4580397Y-14308550D01*
X4580397Y-14308550D02*
X4599444Y-14318074D01*
X4599444Y-14318074D02*
X4608968Y-14337122D01*
X4608968Y-14337122D02*
X4608968Y-14441884D01*
X4999444Y-14232360D02*
X4828016Y-14489503D01*
X5256587Y-14241884D02*
X5275635Y-14241884D01*
X5275635Y-14241884D02*
X5294683Y-14251408D01*
X5294683Y-14251408D02*
X5304206Y-14260931D01*
X5304206Y-14260931D02*
X5313730Y-14279979D01*
X5313730Y-14279979D02*
X5323254Y-14318074D01*
X5323254Y-14318074D02*
X5323254Y-14365693D01*
X5323254Y-14365693D02*
X5313730Y-14403788D01*
X5313730Y-14403788D02*
X5304206Y-14422836D01*
X5304206Y-14422836D02*
X5294683Y-14432360D01*
X5294683Y-14432360D02*
X5275635Y-14441884D01*
X5275635Y-14441884D02*
X5256587Y-14441884D01*
X5256587Y-14441884D02*
X5237540Y-14432360D01*
X5237540Y-14432360D02*
X5228016Y-14422836D01*
X5228016Y-14422836D02*
X5218492Y-14403788D01*
X5218492Y-14403788D02*
X5208968Y-14365693D01*
X5208968Y-14365693D02*
X5208968Y-14318074D01*
X5208968Y-14318074D02*
X5218492Y-14279979D01*
X5218492Y-14279979D02*
X5228016Y-14260931D01*
X5228016Y-14260931D02*
X5237540Y-14251408D01*
X5237540Y-14251408D02*
X5256587Y-14241884D01*
X5408968Y-14422836D02*
X5418492Y-14432360D01*
X5418492Y-14432360D02*
X5408968Y-14441884D01*
X5408968Y-14441884D02*
X5399445Y-14432360D01*
X5399445Y-14432360D02*
X5408968Y-14422836D01*
X5408968Y-14422836D02*
X5408968Y-14441884D01*
X5542302Y-14241884D02*
X5561349Y-14241884D01*
X5561349Y-14241884D02*
X5580397Y-14251408D01*
X5580397Y-14251408D02*
X5589921Y-14260931D01*
X5589921Y-14260931D02*
X5599444Y-14279979D01*
X5599444Y-14279979D02*
X5608968Y-14318074D01*
X5608968Y-14318074D02*
X5608968Y-14365693D01*
X5608968Y-14365693D02*
X5599444Y-14403788D01*
X5599444Y-14403788D02*
X5589921Y-14422836D01*
X5589921Y-14422836D02*
X5580397Y-14432360D01*
X5580397Y-14432360D02*
X5561349Y-14441884D01*
X5561349Y-14441884D02*
X5542302Y-14441884D01*
X5542302Y-14441884D02*
X5523254Y-14432360D01*
X5523254Y-14432360D02*
X5513730Y-14422836D01*
X5513730Y-14422836D02*
X5504206Y-14403788D01*
X5504206Y-14403788D02*
X5494683Y-14365693D01*
X5494683Y-14365693D02*
X5494683Y-14318074D01*
X5494683Y-14318074D02*
X5504206Y-14279979D01*
X5504206Y-14279979D02*
X5513730Y-14260931D01*
X5513730Y-14260931D02*
X5523254Y-14251408D01*
X5523254Y-14251408D02*
X5542302Y-14241884D01*
X5704206Y-14441884D02*
X5742302Y-14441884D01*
X5742302Y-14441884D02*
X5761349Y-14432360D01*
X5761349Y-14432360D02*
X5770873Y-14422836D01*
X5770873Y-14422836D02*
X5789921Y-14394265D01*
X5789921Y-14394265D02*
X5799444Y-14356169D01*
X5799444Y-14356169D02*
X5799444Y-14279979D01*
X5799444Y-14279979D02*
X5789921Y-14260931D01*
X5789921Y-14260931D02*
X5780397Y-14251408D01*
X5780397Y-14251408D02*
X5761349Y-14241884D01*
X5761349Y-14241884D02*
X5723254Y-14241884D01*
X5723254Y-14241884D02*
X5704206Y-14251408D01*
X5704206Y-14251408D02*
X5694683Y-14260931D01*
X5694683Y-14260931D02*
X5685159Y-14279979D01*
X5685159Y-14279979D02*
X5685159Y-14327598D01*
X5685159Y-14327598D02*
X5694683Y-14346646D01*
X5694683Y-14346646D02*
X5704206Y-14356169D01*
X5704206Y-14356169D02*
X5723254Y-14365693D01*
X5723254Y-14365693D02*
X5761349Y-14365693D01*
X5761349Y-14365693D02*
X5780397Y-14356169D01*
X5780397Y-14356169D02*
X5789921Y-14346646D01*
X5789921Y-14346646D02*
X5799444Y-14327598D01*
X5923254Y-14241884D02*
X5942302Y-14241884D01*
X5942302Y-14241884D02*
X5961349Y-14251408D01*
X5961349Y-14251408D02*
X5970873Y-14260931D01*
X5970873Y-14260931D02*
X5980397Y-14279979D01*
X5980397Y-14279979D02*
X5989921Y-14318074D01*
X5989921Y-14318074D02*
X5989921Y-14365693D01*
X5989921Y-14365693D02*
X5980397Y-14403788D01*
X5980397Y-14403788D02*
X5970873Y-14422836D01*
X5970873Y-14422836D02*
X5961349Y-14432360D01*
X5961349Y-14432360D02*
X5942302Y-14441884D01*
X5942302Y-14441884D02*
X5923254Y-14441884D01*
X5923254Y-14441884D02*
X5904206Y-14432360D01*
X5904206Y-14432360D02*
X5894683Y-14422836D01*
X5894683Y-14422836D02*
X5885159Y-14403788D01*
X5885159Y-14403788D02*
X5875635Y-14365693D01*
X5875635Y-14365693D02*
X5875635Y-14318074D01*
X5875635Y-14318074D02*
X5885159Y-14279979D01*
X5885159Y-14279979D02*
X5894683Y-14260931D01*
X5894683Y-14260931D02*
X5904206Y-14251408D01*
X5904206Y-14251408D02*
X5923254Y-14241884D01*
X6161349Y-14241884D02*
X6123254Y-14241884D01*
X6123254Y-14241884D02*
X6104206Y-14251408D01*
X6104206Y-14251408D02*
X6094683Y-14260931D01*
X6094683Y-14260931D02*
X6075635Y-14289503D01*
X6075635Y-14289503D02*
X6066111Y-14327598D01*
X6066111Y-14327598D02*
X6066111Y-14403788D01*
X6066111Y-14403788D02*
X6075635Y-14422836D01*
X6075635Y-14422836D02*
X6085159Y-14432360D01*
X6085159Y-14432360D02*
X6104206Y-14441884D01*
X6104206Y-14441884D02*
X6142302Y-14441884D01*
X6142302Y-14441884D02*
X6161349Y-14432360D01*
X6161349Y-14432360D02*
X6170873Y-14422836D01*
X6170873Y-14422836D02*
X6180397Y-14403788D01*
X6180397Y-14403788D02*
X6180397Y-14356169D01*
X6180397Y-14356169D02*
X6170873Y-14337122D01*
X6170873Y-14337122D02*
X6161349Y-14327598D01*
X6161349Y-14327598D02*
X6142302Y-14318074D01*
X6142302Y-14318074D02*
X6104206Y-14318074D01*
X6104206Y-14318074D02*
X6085159Y-14327598D01*
X6085159Y-14327598D02*
X6075635Y-14337122D01*
X6075635Y-14337122D02*
X6066111Y-14356169D01*
X6256587Y-14241884D02*
X6256587Y-14279979D01*
X6332778Y-14241884D02*
X6332778Y-14279979D01*
X6628016Y-14518074D02*
X6618492Y-14508550D01*
X6618492Y-14508550D02*
X6599445Y-14479979D01*
X6599445Y-14479979D02*
X6589921Y-14460931D01*
X6589921Y-14460931D02*
X6580397Y-14432360D01*
X6580397Y-14432360D02*
X6570873Y-14384741D01*
X6570873Y-14384741D02*
X6570873Y-14346646D01*
X6570873Y-14346646D02*
X6580397Y-14299027D01*
X6580397Y-14299027D02*
X6589921Y-14270455D01*
X6589921Y-14270455D02*
X6599445Y-14251408D01*
X6599445Y-14251408D02*
X6618492Y-14222836D01*
X6618492Y-14222836D02*
X6628016Y-14213312D01*
X6694683Y-14260931D02*
X6704206Y-14251408D01*
X6704206Y-14251408D02*
X6723254Y-14241884D01*
X6723254Y-14241884D02*
X6770873Y-14241884D01*
X6770873Y-14241884D02*
X6789921Y-14251408D01*
X6789921Y-14251408D02*
X6799445Y-14260931D01*
X6799445Y-14260931D02*
X6808968Y-14279979D01*
X6808968Y-14279979D02*
X6808968Y-14299027D01*
X6808968Y-14299027D02*
X6799445Y-14327598D01*
X6799445Y-14327598D02*
X6685159Y-14441884D01*
X6685159Y-14441884D02*
X6808968Y-14441884D01*
X7047064Y-14441884D02*
X7047064Y-14241884D01*
X7132778Y-14441884D02*
X7132778Y-14337122D01*
X7132778Y-14337122D02*
X7123254Y-14318074D01*
X7123254Y-14318074D02*
X7104207Y-14308550D01*
X7104207Y-14308550D02*
X7075635Y-14308550D01*
X7075635Y-14308550D02*
X7056587Y-14318074D01*
X7056587Y-14318074D02*
X7047064Y-14327598D01*
X7256587Y-14441884D02*
X7237540Y-14432360D01*
X7237540Y-14432360D02*
X7228016Y-14422836D01*
X7228016Y-14422836D02*
X7218492Y-14403788D01*
X7218492Y-14403788D02*
X7218492Y-14346646D01*
X7218492Y-14346646D02*
X7228016Y-14327598D01*
X7228016Y-14327598D02*
X7237540Y-14318074D01*
X7237540Y-14318074D02*
X7256587Y-14308550D01*
X7256587Y-14308550D02*
X7285159Y-14308550D01*
X7285159Y-14308550D02*
X7304207Y-14318074D01*
X7304207Y-14318074D02*
X7313730Y-14327598D01*
X7313730Y-14327598D02*
X7323254Y-14346646D01*
X7323254Y-14346646D02*
X7323254Y-14403788D01*
X7323254Y-14403788D02*
X7313730Y-14422836D01*
X7313730Y-14422836D02*
X7304207Y-14432360D01*
X7304207Y-14432360D02*
X7285159Y-14441884D01*
X7285159Y-14441884D02*
X7256587Y-14441884D01*
X7437540Y-14441884D02*
X7418492Y-14432360D01*
X7418492Y-14432360D02*
X7408968Y-14413312D01*
X7408968Y-14413312D02*
X7408968Y-14241884D01*
X7589921Y-14432360D02*
X7570873Y-14441884D01*
X7570873Y-14441884D02*
X7532778Y-14441884D01*
X7532778Y-14441884D02*
X7513730Y-14432360D01*
X7513730Y-14432360D02*
X7504207Y-14413312D01*
X7504207Y-14413312D02*
X7504207Y-14337122D01*
X7504207Y-14337122D02*
X7513730Y-14318074D01*
X7513730Y-14318074D02*
X7532778Y-14308550D01*
X7532778Y-14308550D02*
X7570873Y-14308550D01*
X7570873Y-14308550D02*
X7589921Y-14318074D01*
X7589921Y-14318074D02*
X7599445Y-14337122D01*
X7599445Y-14337122D02*
X7599445Y-14356169D01*
X7599445Y-14356169D02*
X7504207Y-14375217D01*
X7675635Y-14432360D02*
X7694683Y-14441884D01*
X7694683Y-14441884D02*
X7732778Y-14441884D01*
X7732778Y-14441884D02*
X7751826Y-14432360D01*
X7751826Y-14432360D02*
X7761349Y-14413312D01*
X7761349Y-14413312D02*
X7761349Y-14403788D01*
X7761349Y-14403788D02*
X7751826Y-14384741D01*
X7751826Y-14384741D02*
X7732778Y-14375217D01*
X7732778Y-14375217D02*
X7704207Y-14375217D01*
X7704207Y-14375217D02*
X7685159Y-14365693D01*
X7685159Y-14365693D02*
X7675635Y-14346646D01*
X7675635Y-14346646D02*
X7675635Y-14337122D01*
X7675635Y-14337122D02*
X7685159Y-14318074D01*
X7685159Y-14318074D02*
X7704207Y-14308550D01*
X7704207Y-14308550D02*
X7732778Y-14308550D01*
X7732778Y-14308550D02*
X7751826Y-14318074D01*
X7828016Y-14518074D02*
X7837540Y-14508550D01*
X7837540Y-14508550D02*
X7856588Y-14479979D01*
X7856588Y-14479979D02*
X7866111Y-14460931D01*
X7866111Y-14460931D02*
X7875635Y-14432360D01*
X7875635Y-14432360D02*
X7885159Y-14384741D01*
X7885159Y-14384741D02*
X7885159Y-14346646D01*
X7885159Y-14346646D02*
X7875635Y-14299027D01*
X7875635Y-14299027D02*
X7866111Y-14270455D01*
X7866111Y-14270455D02*
X7856588Y-14251408D01*
X7856588Y-14251408D02*
X7837540Y-14222836D01*
X7837540Y-14222836D02*
X7828016Y-14213312D01*
M02*
