M48
; DRILL file {KiCad 7.0.7} date Tue May 14 22:36:54 2024
; FORMAT={-:-/ absolute / metric / decimal}
; #@! TF.CreationDate,2024-05-14T22:36:54+02:00
; #@! TF.GenerationSoftware,Kicad,Pcbnew,7.0.7
; #@! TF.FileFunction,Plated,1,2,PTH
FMAT,2
METRIC
; #@! TA.AperFunction,Plated,PTH,ViaDrill
T1C0.300
; #@! TA.AperFunction,Plated,PTH,ViaDrill
T2C2.300
%
G90
G05
T1
X45.073Y-121.134
X45.773Y-121.134
X46.473Y-121.134
X47.173Y-121.134
X47.873Y-121.134
X53.42Y-122.47
X54.3Y-119.13
X248.73Y-120.57
X251.0Y-121.094
X253.79Y-120.354
X257.573Y-111.937
X257.59Y-132.682
X257.6Y-131.11
X258.12Y-115.394
X259.41Y-124.134
X260.32Y-120.184
X260.925Y-118.869
X262.41Y-111.68
X265.89Y-120.75
X267.08Y-118.98
X267.75Y-123.44
T2
X257.53Y-121.114
X262.38Y-121.114
T0
M30
