G04 #@! TF.GenerationSoftware,KiCad,Pcbnew,7.0.7*
G04 #@! TF.CreationDate,2024-05-14T22:36:57+02:00*
G04 #@! TF.ProjectId,Thumb_V1,5468756d-625f-4563-912e-6b696361645f,rev?*
G04 #@! TF.SameCoordinates,Original*
G04 #@! TF.FileFunction,Profile,NP*
%FSLAX46Y46*%
G04 Gerber Fmt 4.6, Leading zero omitted, Abs format (unit mm)*
G04 Created by KiCad (PCBNEW 7.0.7) date 2024-05-14 22:36:57*
%MOMM*%
%LPD*%
G01*
G04 APERTURE LIST*
G04 #@! TA.AperFunction,Profile*
%ADD10C,0.200000*%
G04 #@! TD*
G04 APERTURE END LIST*
D10*
X263479500Y-124013999D02*
G75*
G03*
X263229531Y-124264000I-250000J-1D01*
G01*
X263229531Y-134363999D02*
X263229531Y-124264000D01*
X256929531Y-124264000D02*
X256929532Y-134364000D01*
X256929532Y-134364000D02*
X263229531Y-134363999D01*
X256679500Y-118213999D02*
G75*
G03*
X256929531Y-117964000I250000J-1D01*
G01*
X263229531Y-117963968D02*
G75*
G03*
X263479532Y-118214000I-31J-250032D01*
G01*
X256929532Y-107864000D02*
X256929531Y-117964000D01*
X30629532Y-123114000D02*
X39429531Y-123114000D01*
X256929531Y-124263969D02*
G75*
G03*
X256679531Y-124014000I-31J249969D01*
G01*
X256679531Y-118213999D02*
X41350468Y-118214000D01*
X40389981Y-123564015D02*
G75*
G03*
X39429531Y-123114000I-960481J-799985D01*
G01*
X39429531Y-119114023D02*
G75*
G03*
X40390000Y-118663999I-31J1250023D01*
G01*
X30629532Y-119114000D02*
X30629532Y-123114000D01*
X263229531Y-117964000D02*
X263229531Y-107864000D01*
X271229531Y-118214000D02*
X263479532Y-118214000D01*
X263479532Y-124013999D02*
X271229531Y-124013999D01*
X39429531Y-119114000D02*
X30629532Y-119114000D01*
X40390019Y-123563984D02*
G75*
G03*
X41350468Y-124013999I960481J799984D01*
G01*
X271229531Y-124013999D02*
X271229531Y-118214000D01*
X41350468Y-118213976D02*
G75*
G03*
X40390001Y-118663999I32J-1250024D01*
G01*
X263229531Y-107864000D02*
X256929532Y-107864000D01*
X41350468Y-124013999D02*
X256679531Y-124014000D01*
M02*
