G04 #@! TF.GenerationSoftware,KiCad,Pcbnew,7.0.7*
G04 #@! TF.CreationDate,2024-05-14T22:36:57+02:00*
G04 #@! TF.ProjectId,Thumb_V1,5468756d-625f-4563-912e-6b696361645f,rev?*
G04 #@! TF.SameCoordinates,Original*
G04 #@! TF.FileFunction,Legend,Top*
G04 #@! TF.FilePolarity,Positive*
%FSLAX46Y46*%
G04 Gerber Fmt 4.6, Leading zero omitted, Abs format (unit mm)*
G04 Created by KiCad (PCBNEW 7.0.7) date 2024-05-14 22:36:57*
%MOMM*%
%LPD*%
G01*
G04 APERTURE LIST*
G04 Aperture macros list*
%AMRoundRect*
0 Rectangle with rounded corners*
0 $1 Rounding radius*
0 $2 $3 $4 $5 $6 $7 $8 $9 X,Y pos of 4 corners*
0 Add a 4 corners polygon primitive as box body*
4,1,4,$2,$3,$4,$5,$6,$7,$8,$9,$2,$3,0*
0 Add four circle primitives for the rounded corners*
1,1,$1+$1,$2,$3*
1,1,$1+$1,$4,$5*
1,1,$1+$1,$6,$7*
1,1,$1+$1,$8,$9*
0 Add four rect primitives between the rounded corners*
20,1,$1+$1,$2,$3,$4,$5,0*
20,1,$1+$1,$4,$5,$6,$7,0*
20,1,$1+$1,$6,$7,$8,$9,0*
20,1,$1+$1,$8,$9,$2,$3,0*%
G04 Aperture macros list end*
%ADD10C,0.075000*%
%ADD11C,0.100000*%
%ADD12C,0.150000*%
%ADD13C,0.152400*%
%ADD14R,0.558800X0.977900*%
%ADD15RoundRect,0.155000X-0.212500X-0.155000X0.212500X-0.155000X0.212500X0.155000X-0.212500X0.155000X0*%
%ADD16RoundRect,0.155000X0.155000X-0.212500X0.155000X0.212500X-0.155000X0.212500X-0.155000X-0.212500X0*%
%ADD17R,0.977900X0.558800*%
%ADD18R,4.000000X0.300000*%
G04 APERTURE END LIST*
D10*
X41617837Y-118950515D02*
X41689265Y-118974324D01*
X41689265Y-118974324D02*
X41808313Y-118974324D01*
X41808313Y-118974324D02*
X41855932Y-118950515D01*
X41855932Y-118950515D02*
X41879741Y-118926705D01*
X41879741Y-118926705D02*
X41903551Y-118879086D01*
X41903551Y-118879086D02*
X41903551Y-118831467D01*
X41903551Y-118831467D02*
X41879741Y-118783848D01*
X41879741Y-118783848D02*
X41855932Y-118760038D01*
X41855932Y-118760038D02*
X41808313Y-118736229D01*
X41808313Y-118736229D02*
X41713075Y-118712419D01*
X41713075Y-118712419D02*
X41665456Y-118688610D01*
X41665456Y-118688610D02*
X41641646Y-118664800D01*
X41641646Y-118664800D02*
X41617837Y-118617181D01*
X41617837Y-118617181D02*
X41617837Y-118569562D01*
X41617837Y-118569562D02*
X41641646Y-118521943D01*
X41641646Y-118521943D02*
X41665456Y-118498134D01*
X41665456Y-118498134D02*
X41713075Y-118474324D01*
X41713075Y-118474324D02*
X41832122Y-118474324D01*
X41832122Y-118474324D02*
X41903551Y-118498134D01*
X42117836Y-118974324D02*
X42117836Y-118474324D01*
X42117836Y-118474324D02*
X42236884Y-118474324D01*
X42236884Y-118474324D02*
X42308312Y-118498134D01*
X42308312Y-118498134D02*
X42355931Y-118545753D01*
X42355931Y-118545753D02*
X42379741Y-118593372D01*
X42379741Y-118593372D02*
X42403550Y-118688610D01*
X42403550Y-118688610D02*
X42403550Y-118760038D01*
X42403550Y-118760038D02*
X42379741Y-118855276D01*
X42379741Y-118855276D02*
X42355931Y-118902895D01*
X42355931Y-118902895D02*
X42308312Y-118950515D01*
X42308312Y-118950515D02*
X42236884Y-118974324D01*
X42236884Y-118974324D02*
X42117836Y-118974324D01*
X42594027Y-118831467D02*
X42832122Y-118831467D01*
X42546408Y-118974324D02*
X42713074Y-118474324D01*
X42713074Y-118474324D02*
X42879741Y-118974324D01*
X43141645Y-118474324D02*
X43189264Y-118474324D01*
X43189264Y-118474324D02*
X43236883Y-118498134D01*
X43236883Y-118498134D02*
X43260693Y-118521943D01*
X43260693Y-118521943D02*
X43284502Y-118569562D01*
X43284502Y-118569562D02*
X43308312Y-118664800D01*
X43308312Y-118664800D02*
X43308312Y-118783848D01*
X43308312Y-118783848D02*
X43284502Y-118879086D01*
X43284502Y-118879086D02*
X43260693Y-118926705D01*
X43260693Y-118926705D02*
X43236883Y-118950515D01*
X43236883Y-118950515D02*
X43189264Y-118974324D01*
X43189264Y-118974324D02*
X43141645Y-118974324D01*
X43141645Y-118974324D02*
X43094026Y-118950515D01*
X43094026Y-118950515D02*
X43070217Y-118926705D01*
X43070217Y-118926705D02*
X43046407Y-118879086D01*
X43046407Y-118879086D02*
X43022598Y-118783848D01*
X43022598Y-118783848D02*
X43022598Y-118664800D01*
X43022598Y-118664800D02*
X43046407Y-118569562D01*
X43046407Y-118569562D02*
X43070217Y-118521943D01*
X43070217Y-118521943D02*
X43094026Y-118498134D01*
X43094026Y-118498134D02*
X43141645Y-118474324D01*
X41617837Y-119755515D02*
X41689265Y-119779324D01*
X41689265Y-119779324D02*
X41808313Y-119779324D01*
X41808313Y-119779324D02*
X41855932Y-119755515D01*
X41855932Y-119755515D02*
X41879741Y-119731705D01*
X41879741Y-119731705D02*
X41903551Y-119684086D01*
X41903551Y-119684086D02*
X41903551Y-119636467D01*
X41903551Y-119636467D02*
X41879741Y-119588848D01*
X41879741Y-119588848D02*
X41855932Y-119565038D01*
X41855932Y-119565038D02*
X41808313Y-119541229D01*
X41808313Y-119541229D02*
X41713075Y-119517419D01*
X41713075Y-119517419D02*
X41665456Y-119493610D01*
X41665456Y-119493610D02*
X41641646Y-119469800D01*
X41641646Y-119469800D02*
X41617837Y-119422181D01*
X41617837Y-119422181D02*
X41617837Y-119374562D01*
X41617837Y-119374562D02*
X41641646Y-119326943D01*
X41641646Y-119326943D02*
X41665456Y-119303134D01*
X41665456Y-119303134D02*
X41713075Y-119279324D01*
X41713075Y-119279324D02*
X41832122Y-119279324D01*
X41832122Y-119279324D02*
X41903551Y-119303134D01*
X42403550Y-119731705D02*
X42379741Y-119755515D01*
X42379741Y-119755515D02*
X42308312Y-119779324D01*
X42308312Y-119779324D02*
X42260693Y-119779324D01*
X42260693Y-119779324D02*
X42189265Y-119755515D01*
X42189265Y-119755515D02*
X42141646Y-119707895D01*
X42141646Y-119707895D02*
X42117836Y-119660276D01*
X42117836Y-119660276D02*
X42094027Y-119565038D01*
X42094027Y-119565038D02*
X42094027Y-119493610D01*
X42094027Y-119493610D02*
X42117836Y-119398372D01*
X42117836Y-119398372D02*
X42141646Y-119350753D01*
X42141646Y-119350753D02*
X42189265Y-119303134D01*
X42189265Y-119303134D02*
X42260693Y-119279324D01*
X42260693Y-119279324D02*
X42308312Y-119279324D01*
X42308312Y-119279324D02*
X42379741Y-119303134D01*
X42379741Y-119303134D02*
X42403550Y-119326943D01*
X42855931Y-119779324D02*
X42617836Y-119779324D01*
X42617836Y-119779324D02*
X42617836Y-119279324D01*
X43117836Y-119279324D02*
X43165455Y-119279324D01*
X43165455Y-119279324D02*
X43213074Y-119303134D01*
X43213074Y-119303134D02*
X43236884Y-119326943D01*
X43236884Y-119326943D02*
X43260693Y-119374562D01*
X43260693Y-119374562D02*
X43284503Y-119469800D01*
X43284503Y-119469800D02*
X43284503Y-119588848D01*
X43284503Y-119588848D02*
X43260693Y-119684086D01*
X43260693Y-119684086D02*
X43236884Y-119731705D01*
X43236884Y-119731705D02*
X43213074Y-119755515D01*
X43213074Y-119755515D02*
X43165455Y-119779324D01*
X43165455Y-119779324D02*
X43117836Y-119779324D01*
X43117836Y-119779324D02*
X43070217Y-119755515D01*
X43070217Y-119755515D02*
X43046408Y-119731705D01*
X43046408Y-119731705D02*
X43022598Y-119684086D01*
X43022598Y-119684086D02*
X42998789Y-119588848D01*
X42998789Y-119588848D02*
X42998789Y-119469800D01*
X42998789Y-119469800D02*
X43022598Y-119374562D01*
X43022598Y-119374562D02*
X43046408Y-119326943D01*
X43046408Y-119326943D02*
X43070217Y-119303134D01*
X43070217Y-119303134D02*
X43117836Y-119279324D01*
X41594027Y-120084324D02*
X41903551Y-120084324D01*
X41903551Y-120084324D02*
X41736884Y-120274800D01*
X41736884Y-120274800D02*
X41808313Y-120274800D01*
X41808313Y-120274800D02*
X41855932Y-120298610D01*
X41855932Y-120298610D02*
X41879741Y-120322419D01*
X41879741Y-120322419D02*
X41903551Y-120370038D01*
X41903551Y-120370038D02*
X41903551Y-120489086D01*
X41903551Y-120489086D02*
X41879741Y-120536705D01*
X41879741Y-120536705D02*
X41855932Y-120560515D01*
X41855932Y-120560515D02*
X41808313Y-120584324D01*
X41808313Y-120584324D02*
X41665456Y-120584324D01*
X41665456Y-120584324D02*
X41617837Y-120560515D01*
X41617837Y-120560515D02*
X41594027Y-120536705D01*
X42117836Y-120536705D02*
X42141646Y-120560515D01*
X42141646Y-120560515D02*
X42117836Y-120584324D01*
X42117836Y-120584324D02*
X42094027Y-120560515D01*
X42094027Y-120560515D02*
X42117836Y-120536705D01*
X42117836Y-120536705D02*
X42117836Y-120584324D01*
X42308312Y-120084324D02*
X42617836Y-120084324D01*
X42617836Y-120084324D02*
X42451169Y-120274800D01*
X42451169Y-120274800D02*
X42522598Y-120274800D01*
X42522598Y-120274800D02*
X42570217Y-120298610D01*
X42570217Y-120298610D02*
X42594026Y-120322419D01*
X42594026Y-120322419D02*
X42617836Y-120370038D01*
X42617836Y-120370038D02*
X42617836Y-120489086D01*
X42617836Y-120489086D02*
X42594026Y-120536705D01*
X42594026Y-120536705D02*
X42570217Y-120560515D01*
X42570217Y-120560515D02*
X42522598Y-120584324D01*
X42522598Y-120584324D02*
X42379741Y-120584324D01*
X42379741Y-120584324D02*
X42332122Y-120560515D01*
X42332122Y-120560515D02*
X42308312Y-120536705D01*
X42760693Y-120084324D02*
X42927359Y-120584324D01*
X42927359Y-120584324D02*
X43094026Y-120084324D01*
X41903551Y-120913134D02*
X41855932Y-120889324D01*
X41855932Y-120889324D02*
X41784503Y-120889324D01*
X41784503Y-120889324D02*
X41713075Y-120913134D01*
X41713075Y-120913134D02*
X41665456Y-120960753D01*
X41665456Y-120960753D02*
X41641646Y-121008372D01*
X41641646Y-121008372D02*
X41617837Y-121103610D01*
X41617837Y-121103610D02*
X41617837Y-121175038D01*
X41617837Y-121175038D02*
X41641646Y-121270276D01*
X41641646Y-121270276D02*
X41665456Y-121317895D01*
X41665456Y-121317895D02*
X41713075Y-121365515D01*
X41713075Y-121365515D02*
X41784503Y-121389324D01*
X41784503Y-121389324D02*
X41832122Y-121389324D01*
X41832122Y-121389324D02*
X41903551Y-121365515D01*
X41903551Y-121365515D02*
X41927360Y-121341705D01*
X41927360Y-121341705D02*
X41927360Y-121175038D01*
X41927360Y-121175038D02*
X41832122Y-121175038D01*
X42141646Y-121389324D02*
X42141646Y-120889324D01*
X42141646Y-120889324D02*
X42427360Y-121389324D01*
X42427360Y-121389324D02*
X42427360Y-120889324D01*
X42665456Y-121389324D02*
X42665456Y-120889324D01*
X42665456Y-120889324D02*
X42784504Y-120889324D01*
X42784504Y-120889324D02*
X42855932Y-120913134D01*
X42855932Y-120913134D02*
X42903551Y-120960753D01*
X42903551Y-120960753D02*
X42927361Y-121008372D01*
X42927361Y-121008372D02*
X42951170Y-121103610D01*
X42951170Y-121103610D02*
X42951170Y-121175038D01*
X42951170Y-121175038D02*
X42927361Y-121270276D01*
X42927361Y-121270276D02*
X42903551Y-121317895D01*
X42903551Y-121317895D02*
X42855932Y-121365515D01*
X42855932Y-121365515D02*
X42784504Y-121389324D01*
X42784504Y-121389324D02*
X42665456Y-121389324D01*
X41641646Y-122194324D02*
X41641646Y-121694324D01*
X41641646Y-121694324D02*
X41927360Y-122194324D01*
X41927360Y-122194324D02*
X41927360Y-121694324D01*
X42451170Y-122146705D02*
X42427361Y-122170515D01*
X42427361Y-122170515D02*
X42355932Y-122194324D01*
X42355932Y-122194324D02*
X42308313Y-122194324D01*
X42308313Y-122194324D02*
X42236885Y-122170515D01*
X42236885Y-122170515D02*
X42189266Y-122122895D01*
X42189266Y-122122895D02*
X42165456Y-122075276D01*
X42165456Y-122075276D02*
X42141647Y-121980038D01*
X42141647Y-121980038D02*
X42141647Y-121908610D01*
X42141647Y-121908610D02*
X42165456Y-121813372D01*
X42165456Y-121813372D02*
X42189266Y-121765753D01*
X42189266Y-121765753D02*
X42236885Y-121718134D01*
X42236885Y-121718134D02*
X42308313Y-121694324D01*
X42308313Y-121694324D02*
X42355932Y-121694324D01*
X42355932Y-121694324D02*
X42427361Y-121718134D01*
X42427361Y-121718134D02*
X42451170Y-121741943D01*
X41641646Y-122999324D02*
X41641646Y-122499324D01*
X41641646Y-122499324D02*
X41927360Y-122999324D01*
X41927360Y-122999324D02*
X41927360Y-122499324D01*
X42451170Y-122951705D02*
X42427361Y-122975515D01*
X42427361Y-122975515D02*
X42355932Y-122999324D01*
X42355932Y-122999324D02*
X42308313Y-122999324D01*
X42308313Y-122999324D02*
X42236885Y-122975515D01*
X42236885Y-122975515D02*
X42189266Y-122927895D01*
X42189266Y-122927895D02*
X42165456Y-122880276D01*
X42165456Y-122880276D02*
X42141647Y-122785038D01*
X42141647Y-122785038D02*
X42141647Y-122713610D01*
X42141647Y-122713610D02*
X42165456Y-122618372D01*
X42165456Y-122618372D02*
X42189266Y-122570753D01*
X42189266Y-122570753D02*
X42236885Y-122523134D01*
X42236885Y-122523134D02*
X42308313Y-122499324D01*
X42308313Y-122499324D02*
X42355932Y-122499324D01*
X42355932Y-122499324D02*
X42427361Y-122523134D01*
X42427361Y-122523134D02*
X42451170Y-122546943D01*
X41641646Y-123804324D02*
X41641646Y-123304324D01*
X41641646Y-123304324D02*
X41927360Y-123804324D01*
X41927360Y-123804324D02*
X41927360Y-123304324D01*
X42451170Y-123756705D02*
X42427361Y-123780515D01*
X42427361Y-123780515D02*
X42355932Y-123804324D01*
X42355932Y-123804324D02*
X42308313Y-123804324D01*
X42308313Y-123804324D02*
X42236885Y-123780515D01*
X42236885Y-123780515D02*
X42189266Y-123732895D01*
X42189266Y-123732895D02*
X42165456Y-123685276D01*
X42165456Y-123685276D02*
X42141647Y-123590038D01*
X42141647Y-123590038D02*
X42141647Y-123518610D01*
X42141647Y-123518610D02*
X42165456Y-123423372D01*
X42165456Y-123423372D02*
X42189266Y-123375753D01*
X42189266Y-123375753D02*
X42236885Y-123328134D01*
X42236885Y-123328134D02*
X42308313Y-123304324D01*
X42308313Y-123304324D02*
X42355932Y-123304324D01*
X42355932Y-123304324D02*
X42427361Y-123328134D01*
X42427361Y-123328134D02*
X42451170Y-123351943D01*
D11*
X262841366Y-109606666D02*
X262274700Y-109606666D01*
X262274700Y-109606666D02*
X262208033Y-109640000D01*
X262208033Y-109640000D02*
X262174700Y-109673333D01*
X262174700Y-109673333D02*
X262141366Y-109740000D01*
X262141366Y-109740000D02*
X262141366Y-109873333D01*
X262141366Y-109873333D02*
X262174700Y-109940000D01*
X262174700Y-109940000D02*
X262208033Y-109973333D01*
X262208033Y-109973333D02*
X262274700Y-110006666D01*
X262274700Y-110006666D02*
X262841366Y-110006666D01*
X262141366Y-110706666D02*
X262141366Y-110306666D01*
X262141366Y-110506666D02*
X262841366Y-110506666D01*
X262841366Y-110506666D02*
X262741366Y-110439999D01*
X262741366Y-110439999D02*
X262674700Y-110373333D01*
X262674700Y-110373333D02*
X262641366Y-110306666D01*
D12*
X262044351Y-108748750D02*
X262282446Y-108748750D01*
X262187208Y-108986845D02*
X262282446Y-108748750D01*
X262282446Y-108748750D02*
X262187208Y-108510655D01*
X262472922Y-108891607D02*
X262282446Y-108748750D01*
X262282446Y-108748750D02*
X262472922Y-108605893D01*
D11*
X262860898Y-131580666D02*
X262294232Y-131580666D01*
X262294232Y-131580666D02*
X262227565Y-131614000D01*
X262227565Y-131614000D02*
X262194232Y-131647333D01*
X262194232Y-131647333D02*
X262160898Y-131714000D01*
X262160898Y-131714000D02*
X262160898Y-131847333D01*
X262160898Y-131847333D02*
X262194232Y-131914000D01*
X262194232Y-131914000D02*
X262227565Y-131947333D01*
X262227565Y-131947333D02*
X262294232Y-131980666D01*
X262294232Y-131980666D02*
X262860898Y-131980666D01*
X262860898Y-132247333D02*
X262860898Y-132680666D01*
X262860898Y-132680666D02*
X262594232Y-132447333D01*
X262594232Y-132447333D02*
X262594232Y-132547333D01*
X262594232Y-132547333D02*
X262560898Y-132613999D01*
X262560898Y-132613999D02*
X262527565Y-132647333D01*
X262527565Y-132647333D02*
X262460898Y-132680666D01*
X262460898Y-132680666D02*
X262294232Y-132680666D01*
X262294232Y-132680666D02*
X262227565Y-132647333D01*
X262227565Y-132647333D02*
X262194232Y-132613999D01*
X262194232Y-132613999D02*
X262160898Y-132547333D01*
X262160898Y-132547333D02*
X262160898Y-132347333D01*
X262160898Y-132347333D02*
X262194232Y-132280666D01*
X262194232Y-132280666D02*
X262227565Y-132247333D01*
D12*
X261864351Y-130748750D02*
X262102446Y-130748750D01*
X262007208Y-130986845D02*
X262102446Y-130748750D01*
X262102446Y-130748750D02*
X262007208Y-130510655D01*
X262292922Y-130891607D02*
X262102446Y-130748750D01*
X262102446Y-130748750D02*
X262292922Y-130605893D01*
D11*
X267571966Y-119146666D02*
X267605300Y-119179999D01*
X267605300Y-119179999D02*
X267638633Y-119279999D01*
X267638633Y-119279999D02*
X267638633Y-119346666D01*
X267638633Y-119346666D02*
X267605300Y-119446666D01*
X267605300Y-119446666D02*
X267538633Y-119513333D01*
X267538633Y-119513333D02*
X267471966Y-119546666D01*
X267471966Y-119546666D02*
X267338633Y-119579999D01*
X267338633Y-119579999D02*
X267238633Y-119579999D01*
X267238633Y-119579999D02*
X267105300Y-119546666D01*
X267105300Y-119546666D02*
X267038633Y-119513333D01*
X267038633Y-119513333D02*
X266971966Y-119446666D01*
X266971966Y-119446666D02*
X266938633Y-119346666D01*
X266938633Y-119346666D02*
X266938633Y-119279999D01*
X266938633Y-119279999D02*
X266971966Y-119179999D01*
X266971966Y-119179999D02*
X267005300Y-119146666D01*
X267005300Y-118879999D02*
X266971966Y-118846666D01*
X266971966Y-118846666D02*
X266938633Y-118779999D01*
X266938633Y-118779999D02*
X266938633Y-118613333D01*
X266938633Y-118613333D02*
X266971966Y-118546666D01*
X266971966Y-118546666D02*
X267005300Y-118513333D01*
X267005300Y-118513333D02*
X267071966Y-118479999D01*
X267071966Y-118479999D02*
X267138633Y-118479999D01*
X267138633Y-118479999D02*
X267238633Y-118513333D01*
X267238633Y-118513333D02*
X267638633Y-118913333D01*
X267638633Y-118913333D02*
X267638633Y-118479999D01*
X257603333Y-108715966D02*
X257570000Y-108749300D01*
X257570000Y-108749300D02*
X257470000Y-108782633D01*
X257470000Y-108782633D02*
X257403333Y-108782633D01*
X257403333Y-108782633D02*
X257303333Y-108749300D01*
X257303333Y-108749300D02*
X257236667Y-108682633D01*
X257236667Y-108682633D02*
X257203333Y-108615966D01*
X257203333Y-108615966D02*
X257170000Y-108482633D01*
X257170000Y-108482633D02*
X257170000Y-108382633D01*
X257170000Y-108382633D02*
X257203333Y-108249300D01*
X257203333Y-108249300D02*
X257236667Y-108182633D01*
X257236667Y-108182633D02*
X257303333Y-108115966D01*
X257303333Y-108115966D02*
X257403333Y-108082633D01*
X257403333Y-108082633D02*
X257470000Y-108082633D01*
X257470000Y-108082633D02*
X257570000Y-108115966D01*
X257570000Y-108115966D02*
X257603333Y-108149300D01*
X258270000Y-108782633D02*
X257870000Y-108782633D01*
X258070000Y-108782633D02*
X258070000Y-108082633D01*
X258070000Y-108082633D02*
X258003333Y-108182633D01*
X258003333Y-108182633D02*
X257936667Y-108249300D01*
X257936667Y-108249300D02*
X257870000Y-108282633D01*
X269493333Y-123767628D02*
X269493333Y-123281914D01*
X269493333Y-123281914D02*
X269460000Y-123224771D01*
X269460000Y-123224771D02*
X269426666Y-123196200D01*
X269426666Y-123196200D02*
X269360000Y-123167628D01*
X269360000Y-123167628D02*
X269226666Y-123167628D01*
X269226666Y-123167628D02*
X269160000Y-123196200D01*
X269160000Y-123196200D02*
X269126666Y-123224771D01*
X269126666Y-123224771D02*
X269093333Y-123281914D01*
X269093333Y-123281914D02*
X269093333Y-123767628D01*
X268793333Y-123710485D02*
X268760000Y-123739057D01*
X268760000Y-123739057D02*
X268693333Y-123767628D01*
X268693333Y-123767628D02*
X268526667Y-123767628D01*
X268526667Y-123767628D02*
X268460000Y-123739057D01*
X268460000Y-123739057D02*
X268426667Y-123710485D01*
X268426667Y-123710485D02*
X268393333Y-123653342D01*
X268393333Y-123653342D02*
X268393333Y-123596200D01*
X268393333Y-123596200D02*
X268426667Y-123510485D01*
X268426667Y-123510485D02*
X268826667Y-123167628D01*
X268826667Y-123167628D02*
X268393333Y-123167628D01*
D12*
X270344782Y-123020819D02*
X270344782Y-123258914D01*
X270106687Y-123163676D02*
X270344782Y-123258914D01*
X270344782Y-123258914D02*
X270582877Y-123163676D01*
X270201925Y-123449390D02*
X270344782Y-123258914D01*
X270344782Y-123258914D02*
X270487639Y-123449390D01*
D11*
X40022112Y-120352095D02*
X39212589Y-120352095D01*
X39212589Y-120352095D02*
X39117351Y-120399714D01*
X39117351Y-120399714D02*
X39069732Y-120447333D01*
X39069732Y-120447333D02*
X39022112Y-120542571D01*
X39022112Y-120542571D02*
X39022112Y-120733047D01*
X39022112Y-120733047D02*
X39069732Y-120828285D01*
X39069732Y-120828285D02*
X39117351Y-120875904D01*
X39117351Y-120875904D02*
X39212589Y-120923523D01*
X39212589Y-120923523D02*
X40022112Y-120923523D01*
X39593541Y-121542571D02*
X39641160Y-121447333D01*
X39641160Y-121447333D02*
X39688779Y-121399714D01*
X39688779Y-121399714D02*
X39784017Y-121352095D01*
X39784017Y-121352095D02*
X39831636Y-121352095D01*
X39831636Y-121352095D02*
X39926874Y-121399714D01*
X39926874Y-121399714D02*
X39974493Y-121447333D01*
X39974493Y-121447333D02*
X40022112Y-121542571D01*
X40022112Y-121542571D02*
X40022112Y-121733047D01*
X40022112Y-121733047D02*
X39974493Y-121828285D01*
X39974493Y-121828285D02*
X39926874Y-121875904D01*
X39926874Y-121875904D02*
X39831636Y-121923523D01*
X39831636Y-121923523D02*
X39784017Y-121923523D01*
X39784017Y-121923523D02*
X39688779Y-121875904D01*
X39688779Y-121875904D02*
X39641160Y-121828285D01*
X39641160Y-121828285D02*
X39593541Y-121733047D01*
X39593541Y-121733047D02*
X39593541Y-121542571D01*
X39593541Y-121542571D02*
X39545922Y-121447333D01*
X39545922Y-121447333D02*
X39498303Y-121399714D01*
X39498303Y-121399714D02*
X39403065Y-121352095D01*
X39403065Y-121352095D02*
X39212589Y-121352095D01*
X39212589Y-121352095D02*
X39117351Y-121399714D01*
X39117351Y-121399714D02*
X39069732Y-121447333D01*
X39069732Y-121447333D02*
X39022112Y-121542571D01*
X39022112Y-121542571D02*
X39022112Y-121733047D01*
X39022112Y-121733047D02*
X39069732Y-121828285D01*
X39069732Y-121828285D02*
X39117351Y-121875904D01*
X39117351Y-121875904D02*
X39212589Y-121923523D01*
X39212589Y-121923523D02*
X39403065Y-121923523D01*
X39403065Y-121923523D02*
X39498303Y-121875904D01*
X39498303Y-121875904D02*
X39545922Y-121828285D01*
X39545922Y-121828285D02*
X39593541Y-121733047D01*
D12*
X38654351Y-119593999D02*
X38892446Y-119593999D01*
X38797208Y-119832094D02*
X38892446Y-119593999D01*
X38892446Y-119593999D02*
X38797208Y-119355904D01*
X39082922Y-119736856D02*
X38892446Y-119593999D01*
X38892446Y-119593999D02*
X39082922Y-119451142D01*
D11*
X257613333Y-134001966D02*
X257580000Y-134035300D01*
X257580000Y-134035300D02*
X257480000Y-134068633D01*
X257480000Y-134068633D02*
X257413333Y-134068633D01*
X257413333Y-134068633D02*
X257313333Y-134035300D01*
X257313333Y-134035300D02*
X257246667Y-133968633D01*
X257246667Y-133968633D02*
X257213333Y-133901966D01*
X257213333Y-133901966D02*
X257180000Y-133768633D01*
X257180000Y-133768633D02*
X257180000Y-133668633D01*
X257180000Y-133668633D02*
X257213333Y-133535300D01*
X257213333Y-133535300D02*
X257246667Y-133468633D01*
X257246667Y-133468633D02*
X257313333Y-133401966D01*
X257313333Y-133401966D02*
X257413333Y-133368633D01*
X257413333Y-133368633D02*
X257480000Y-133368633D01*
X257480000Y-133368633D02*
X257580000Y-133401966D01*
X257580000Y-133401966D02*
X257613333Y-133435300D01*
X257846667Y-133368633D02*
X258280000Y-133368633D01*
X258280000Y-133368633D02*
X258046667Y-133635300D01*
X258046667Y-133635300D02*
X258146667Y-133635300D01*
X258146667Y-133635300D02*
X258213333Y-133668633D01*
X258213333Y-133668633D02*
X258246667Y-133701966D01*
X258246667Y-133701966D02*
X258280000Y-133768633D01*
X258280000Y-133768633D02*
X258280000Y-133935300D01*
X258280000Y-133935300D02*
X258246667Y-134001966D01*
X258246667Y-134001966D02*
X258213333Y-134035300D01*
X258213333Y-134035300D02*
X258146667Y-134068633D01*
X258146667Y-134068633D02*
X257946667Y-134068633D01*
X257946667Y-134068633D02*
X257880000Y-134035300D01*
X257880000Y-134035300D02*
X257846667Y-134001966D01*
D13*
X258428532Y-109110700D02*
X258428532Y-111117300D01*
X261730532Y-111117300D02*
X261730532Y-109110700D01*
X258428532Y-131110700D02*
X258428532Y-133117300D01*
X261730532Y-133117300D02*
X261730532Y-131110700D01*
X269982832Y-119563000D02*
X267976232Y-119563000D01*
X267976232Y-122865000D02*
X269982832Y-122865000D01*
%LPC*%
D14*
X261029533Y-108748750D03*
X260079532Y-108748750D03*
X259129531Y-108748750D03*
X259129531Y-111479250D03*
X260079532Y-111479250D03*
X261029533Y-111479250D03*
X261029533Y-130748750D03*
X260079532Y-130748750D03*
X259129531Y-130748750D03*
X259129531Y-133479250D03*
X260079532Y-133479250D03*
X261029533Y-133479250D03*
D15*
X268412032Y-118844000D03*
X269547032Y-118844000D03*
D16*
X257590000Y-110681500D03*
X257590000Y-109546500D03*
D17*
X270344782Y-122164001D03*
X270344782Y-121214000D03*
X270344782Y-120263999D03*
X267614282Y-120263999D03*
X267614282Y-121214000D03*
X267614282Y-122164001D03*
D18*
X32929532Y-119614000D03*
X32929532Y-120114000D03*
X32929532Y-120614000D03*
X32929532Y-121114000D03*
X32929532Y-121614000D03*
X32929532Y-122114000D03*
X32929532Y-122614000D03*
D16*
X257590000Y-132681500D03*
X257590000Y-131546500D03*
%LPD*%
M02*
