M48
; DRILL file {KiCad 7.0.7} date Tue May 14 22:47:57 2024
; FORMAT={-:-/ absolute / metric / decimal}
; #@! TF.CreationDate,2024-05-14T22:47:57+02:00
; #@! TF.GenerationSoftware,Kicad,Pcbnew,7.0.7
; #@! TF.FileFunction,Plated,1,2,PTH
FMAT,2
METRIC
; #@! TA.AperFunction,Plated,PTH,ViaDrill
T1C0.300
; #@! TA.AperFunction,Plated,PTH,ViaDrill
T2C0.400
; #@! TA.AperFunction,Plated,PTH,ViaDrill
T3C2.300
%
G90
G05
T1
X76.574Y-118.254
X77.274Y-118.254
X77.974Y-118.254
X78.674Y-118.254
X79.374Y-118.254
X134.97Y-117.764
X137.71Y-129.484
X137.85Y-108.234
X141.08Y-118.414
X144.08Y-108.884
X144.33Y-128.114
X144.4Y-117.204
X145.25Y-119.104
X205.93Y-130.184
X206.47Y-110.004
X208.46Y-123.344
X215.32Y-115.993
X217.28Y-119.764
X218.41Y-116.074
T2
X206.09Y-111.944
X206.23Y-122.714
X207.53Y-125.114
T3
X139.43Y-121.064
X139.53Y-115.464
X142.73Y-121.064
X142.81Y-115.464
X206.43Y-118.264
X210.28Y-118.264
T0
M30
