M48
; DRILL file {KiCad 7.0.7} date Mon Dec  2 13:55:25 2024
; FORMAT={-:-/ absolute / metric / decimal}
; #@! TF.CreationDate,2024-12-02T13:55:25+01:00
; #@! TF.GenerationSoftware,Kicad,Pcbnew,7.0.7
; #@! TF.FileFunction,Plated,1,2,PTH
FMAT,2
METRIC
; #@! TA.AperFunction,Plated,PTH,ViaDrill
T1C0.400
; #@! TA.AperFunction,Plated,PTH,ComponentDrill
T2C2.200
%
G90
G05
T1
X103.108Y-139.94
X105.717Y-139.94
X108.325Y-139.94
X110.933Y-139.94
X113.542Y-139.94
X116.15Y-139.94
X122.43Y-71.235
X122.43Y-72.82
X122.43Y-74.29
X122.43Y-76.44
X123.25Y-77.4
X124.8Y-69.9
X126.8Y-69.9
X128.8Y-69.9
X130.8Y-69.9
X132.8Y-69.9
X134.8Y-69.9
X136.8Y-69.9
X138.8Y-69.9
X140.8Y-69.9
X142.8Y-69.9
X144.8Y-69.9
T2
X116.15Y-73.65
X116.15Y-78.65
X153.45Y-73.65
X153.45Y-78.65
T0
M30
