G04 #@! TF.GenerationSoftware,KiCad,Pcbnew,7.0.7*
G04 #@! TF.CreationDate,2024-12-02T13:55:21+01:00*
G04 #@! TF.ProjectId,Finger_FSR_V1_height,46696e67-6572-45f4-9653-525f56315f68,rev?*
G04 #@! TF.SameCoordinates,Original*
G04 #@! TF.FileFunction,Legend,Top*
G04 #@! TF.FilePolarity,Positive*
%FSLAX46Y46*%
G04 Gerber Fmt 4.6, Leading zero omitted, Abs format (unit mm)*
G04 Created by KiCad (PCBNEW 7.0.7) date 2024-12-02 13:55:21*
%MOMM*%
%LPD*%
G01*
G04 APERTURE LIST*
G04 Aperture macros list*
%AMRoundRect*
0 Rectangle with rounded corners*
0 $1 Rounding radius*
0 $2 $3 $4 $5 $6 $7 $8 $9 X,Y pos of 4 corners*
0 Add a 4 corners polygon primitive as box body*
4,1,4,$2,$3,$4,$5,$6,$7,$8,$9,$2,$3,0*
0 Add four circle primitives for the rounded corners*
1,1,$1+$1,$2,$3*
1,1,$1+$1,$4,$5*
1,1,$1+$1,$6,$7*
1,1,$1+$1,$8,$9*
0 Add four rect primitives between the rounded corners*
20,1,$1+$1,$2,$3,$4,$5,0*
20,1,$1+$1,$4,$5,$6,$7,0*
20,1,$1+$1,$6,$7,$8,$9,0*
20,1,$1+$1,$8,$9,$2,$3,0*%
G04 Aperture macros list end*
%ADD10C,0.150000*%
%ADD11RoundRect,0.250000X-0.250000X-5.250000X0.250000X-5.250000X0.250000X5.250000X-0.250000X5.250000X0*%
%ADD12C,3.000000*%
%ADD13C,3.800000*%
G04 APERTURE END LIST*
D10*
X119470112Y-69796009D02*
X119136779Y-69796009D01*
X119136779Y-70319819D02*
X119136779Y-69319819D01*
X119136779Y-69319819D02*
X119612969Y-69319819D01*
X119946303Y-70272200D02*
X120089160Y-70319819D01*
X120089160Y-70319819D02*
X120327255Y-70319819D01*
X120327255Y-70319819D02*
X120422493Y-70272200D01*
X120422493Y-70272200D02*
X120470112Y-70224580D01*
X120470112Y-70224580D02*
X120517731Y-70129342D01*
X120517731Y-70129342D02*
X120517731Y-70034104D01*
X120517731Y-70034104D02*
X120470112Y-69938866D01*
X120470112Y-69938866D02*
X120422493Y-69891247D01*
X120422493Y-69891247D02*
X120327255Y-69843628D01*
X120327255Y-69843628D02*
X120136779Y-69796009D01*
X120136779Y-69796009D02*
X120041541Y-69748390D01*
X120041541Y-69748390D02*
X119993922Y-69700771D01*
X119993922Y-69700771D02*
X119946303Y-69605533D01*
X119946303Y-69605533D02*
X119946303Y-69510295D01*
X119946303Y-69510295D02*
X119993922Y-69415057D01*
X119993922Y-69415057D02*
X120041541Y-69367438D01*
X120041541Y-69367438D02*
X120136779Y-69319819D01*
X120136779Y-69319819D02*
X120374874Y-69319819D01*
X120374874Y-69319819D02*
X120517731Y-69367438D01*
X121517731Y-70319819D02*
X121184398Y-69843628D01*
X120946303Y-70319819D02*
X120946303Y-69319819D01*
X120946303Y-69319819D02*
X121327255Y-69319819D01*
X121327255Y-69319819D02*
X121422493Y-69367438D01*
X121422493Y-69367438D02*
X121470112Y-69415057D01*
X121470112Y-69415057D02*
X121517731Y-69510295D01*
X121517731Y-69510295D02*
X121517731Y-69653152D01*
X121517731Y-69653152D02*
X121470112Y-69748390D01*
X121470112Y-69748390D02*
X121422493Y-69796009D01*
X121422493Y-69796009D02*
X121327255Y-69843628D01*
X121327255Y-69843628D02*
X120946303Y-69843628D01*
X123232017Y-70319819D02*
X122660589Y-70319819D01*
X122946303Y-70319819D02*
X122946303Y-69319819D01*
X122946303Y-69319819D02*
X122851065Y-69462676D01*
X122851065Y-69462676D02*
X122755827Y-69557914D01*
X122755827Y-69557914D02*
X122660589Y-69605533D01*
X146970112Y-69796009D02*
X146636779Y-69796009D01*
X146636779Y-70319819D02*
X146636779Y-69319819D01*
X146636779Y-69319819D02*
X147112969Y-69319819D01*
X147446303Y-70272200D02*
X147589160Y-70319819D01*
X147589160Y-70319819D02*
X147827255Y-70319819D01*
X147827255Y-70319819D02*
X147922493Y-70272200D01*
X147922493Y-70272200D02*
X147970112Y-70224580D01*
X147970112Y-70224580D02*
X148017731Y-70129342D01*
X148017731Y-70129342D02*
X148017731Y-70034104D01*
X148017731Y-70034104D02*
X147970112Y-69938866D01*
X147970112Y-69938866D02*
X147922493Y-69891247D01*
X147922493Y-69891247D02*
X147827255Y-69843628D01*
X147827255Y-69843628D02*
X147636779Y-69796009D01*
X147636779Y-69796009D02*
X147541541Y-69748390D01*
X147541541Y-69748390D02*
X147493922Y-69700771D01*
X147493922Y-69700771D02*
X147446303Y-69605533D01*
X147446303Y-69605533D02*
X147446303Y-69510295D01*
X147446303Y-69510295D02*
X147493922Y-69415057D01*
X147493922Y-69415057D02*
X147541541Y-69367438D01*
X147541541Y-69367438D02*
X147636779Y-69319819D01*
X147636779Y-69319819D02*
X147874874Y-69319819D01*
X147874874Y-69319819D02*
X148017731Y-69367438D01*
X149017731Y-70319819D02*
X148684398Y-69843628D01*
X148446303Y-70319819D02*
X148446303Y-69319819D01*
X148446303Y-69319819D02*
X148827255Y-69319819D01*
X148827255Y-69319819D02*
X148922493Y-69367438D01*
X148922493Y-69367438D02*
X148970112Y-69415057D01*
X148970112Y-69415057D02*
X149017731Y-69510295D01*
X149017731Y-69510295D02*
X149017731Y-69653152D01*
X149017731Y-69653152D02*
X148970112Y-69748390D01*
X148970112Y-69748390D02*
X148922493Y-69796009D01*
X148922493Y-69796009D02*
X148827255Y-69843628D01*
X148827255Y-69843628D02*
X148446303Y-69843628D01*
X150732017Y-70319819D02*
X150160589Y-70319819D01*
X150446303Y-70319819D02*
X150446303Y-69319819D01*
X150446303Y-69319819D02*
X150351065Y-69462676D01*
X150351065Y-69462676D02*
X150255827Y-69557914D01*
X150255827Y-69557914D02*
X150160589Y-69605533D01*
X151684398Y-70319819D02*
X151112970Y-70319819D01*
X151398684Y-70319819D02*
X151398684Y-69319819D01*
X151398684Y-69319819D02*
X151303446Y-69462676D01*
X151303446Y-69462676D02*
X151208208Y-69557914D01*
X151208208Y-69557914D02*
X151112970Y-69605533D01*
X115816569Y-132023810D02*
X114816569Y-132023810D01*
X114816569Y-132023810D02*
X114816569Y-131642858D01*
X114816569Y-131642858D02*
X114864188Y-131547620D01*
X114864188Y-131547620D02*
X114911807Y-131500001D01*
X114911807Y-131500001D02*
X115007045Y-131452382D01*
X115007045Y-131452382D02*
X115149902Y-131452382D01*
X115149902Y-131452382D02*
X115245140Y-131500001D01*
X115245140Y-131500001D02*
X115292759Y-131547620D01*
X115292759Y-131547620D02*
X115340378Y-131642858D01*
X115340378Y-131642858D02*
X115340378Y-132023810D01*
X115816569Y-130880953D02*
X115768950Y-130976191D01*
X115768950Y-130976191D02*
X115673711Y-131023810D01*
X115673711Y-131023810D02*
X114816569Y-131023810D01*
X115816569Y-130071429D02*
X115292759Y-130071429D01*
X115292759Y-130071429D02*
X115197521Y-130119048D01*
X115197521Y-130119048D02*
X115149902Y-130214286D01*
X115149902Y-130214286D02*
X115149902Y-130404762D01*
X115149902Y-130404762D02*
X115197521Y-130500000D01*
X115768950Y-130071429D02*
X115816569Y-130166667D01*
X115816569Y-130166667D02*
X115816569Y-130404762D01*
X115816569Y-130404762D02*
X115768950Y-130500000D01*
X115768950Y-130500000D02*
X115673711Y-130547619D01*
X115673711Y-130547619D02*
X115578473Y-130547619D01*
X115578473Y-130547619D02*
X115483235Y-130500000D01*
X115483235Y-130500000D02*
X115435616Y-130404762D01*
X115435616Y-130404762D02*
X115435616Y-130166667D01*
X115435616Y-130166667D02*
X115387997Y-130071429D01*
X115768950Y-129166667D02*
X115816569Y-129261905D01*
X115816569Y-129261905D02*
X115816569Y-129452381D01*
X115816569Y-129452381D02*
X115768950Y-129547619D01*
X115768950Y-129547619D02*
X115721330Y-129595238D01*
X115721330Y-129595238D02*
X115626092Y-129642857D01*
X115626092Y-129642857D02*
X115340378Y-129642857D01*
X115340378Y-129642857D02*
X115245140Y-129595238D01*
X115245140Y-129595238D02*
X115197521Y-129547619D01*
X115197521Y-129547619D02*
X115149902Y-129452381D01*
X115149902Y-129452381D02*
X115149902Y-129261905D01*
X115149902Y-129261905D02*
X115197521Y-129166667D01*
X115768950Y-128357143D02*
X115816569Y-128452381D01*
X115816569Y-128452381D02*
X115816569Y-128642857D01*
X115816569Y-128642857D02*
X115768950Y-128738095D01*
X115768950Y-128738095D02*
X115673711Y-128785714D01*
X115673711Y-128785714D02*
X115292759Y-128785714D01*
X115292759Y-128785714D02*
X115197521Y-128738095D01*
X115197521Y-128738095D02*
X115149902Y-128642857D01*
X115149902Y-128642857D02*
X115149902Y-128452381D01*
X115149902Y-128452381D02*
X115197521Y-128357143D01*
X115197521Y-128357143D02*
X115292759Y-128309524D01*
X115292759Y-128309524D02*
X115387997Y-128309524D01*
X115387997Y-128309524D02*
X115483235Y-128785714D01*
X115149902Y-127261904D02*
X115149902Y-126880952D01*
X114816569Y-127119047D02*
X115673711Y-127119047D01*
X115673711Y-127119047D02*
X115768950Y-127071428D01*
X115768950Y-127071428D02*
X115816569Y-126976190D01*
X115816569Y-126976190D02*
X115816569Y-126880952D01*
X115816569Y-126547618D02*
X114816569Y-126547618D01*
X115816569Y-126119047D02*
X115292759Y-126119047D01*
X115292759Y-126119047D02*
X115197521Y-126166666D01*
X115197521Y-126166666D02*
X115149902Y-126261904D01*
X115149902Y-126261904D02*
X115149902Y-126404761D01*
X115149902Y-126404761D02*
X115197521Y-126499999D01*
X115197521Y-126499999D02*
X115245140Y-126547618D01*
X115816569Y-125642856D02*
X115149902Y-125642856D01*
X114816569Y-125642856D02*
X114864188Y-125690475D01*
X114864188Y-125690475D02*
X114911807Y-125642856D01*
X114911807Y-125642856D02*
X114864188Y-125595237D01*
X114864188Y-125595237D02*
X114816569Y-125642856D01*
X114816569Y-125642856D02*
X114911807Y-125642856D01*
X115768950Y-125214285D02*
X115816569Y-125119047D01*
X115816569Y-125119047D02*
X115816569Y-124928571D01*
X115816569Y-124928571D02*
X115768950Y-124833333D01*
X115768950Y-124833333D02*
X115673711Y-124785714D01*
X115673711Y-124785714D02*
X115626092Y-124785714D01*
X115626092Y-124785714D02*
X115530854Y-124833333D01*
X115530854Y-124833333D02*
X115483235Y-124928571D01*
X115483235Y-124928571D02*
X115483235Y-125071428D01*
X115483235Y-125071428D02*
X115435616Y-125166666D01*
X115435616Y-125166666D02*
X115340378Y-125214285D01*
X115340378Y-125214285D02*
X115292759Y-125214285D01*
X115292759Y-125214285D02*
X115197521Y-125166666D01*
X115197521Y-125166666D02*
X115149902Y-125071428D01*
X115149902Y-125071428D02*
X115149902Y-124928571D01*
X115149902Y-124928571D02*
X115197521Y-124833333D01*
X115149902Y-123738094D02*
X115149902Y-123357142D01*
X115816569Y-123595237D02*
X114959426Y-123595237D01*
X114959426Y-123595237D02*
X114864188Y-123547618D01*
X114864188Y-123547618D02*
X114816569Y-123452380D01*
X114816569Y-123452380D02*
X114816569Y-123357142D01*
X115816569Y-122595237D02*
X115292759Y-122595237D01*
X115292759Y-122595237D02*
X115197521Y-122642856D01*
X115197521Y-122642856D02*
X115149902Y-122738094D01*
X115149902Y-122738094D02*
X115149902Y-122928570D01*
X115149902Y-122928570D02*
X115197521Y-123023808D01*
X115768950Y-122595237D02*
X115816569Y-122690475D01*
X115816569Y-122690475D02*
X115816569Y-122928570D01*
X115816569Y-122928570D02*
X115768950Y-123023808D01*
X115768950Y-123023808D02*
X115673711Y-123071427D01*
X115673711Y-123071427D02*
X115578473Y-123071427D01*
X115578473Y-123071427D02*
X115483235Y-123023808D01*
X115483235Y-123023808D02*
X115435616Y-122928570D01*
X115435616Y-122928570D02*
X115435616Y-122690475D01*
X115435616Y-122690475D02*
X115387997Y-122595237D01*
X115768950Y-121690475D02*
X115816569Y-121785713D01*
X115816569Y-121785713D02*
X115816569Y-121976189D01*
X115816569Y-121976189D02*
X115768950Y-122071427D01*
X115768950Y-122071427D02*
X115721330Y-122119046D01*
X115721330Y-122119046D02*
X115626092Y-122166665D01*
X115626092Y-122166665D02*
X115340378Y-122166665D01*
X115340378Y-122166665D02*
X115245140Y-122119046D01*
X115245140Y-122119046D02*
X115197521Y-122071427D01*
X115197521Y-122071427D02*
X115149902Y-121976189D01*
X115149902Y-121976189D02*
X115149902Y-121785713D01*
X115149902Y-121785713D02*
X115197521Y-121690475D01*
X115768950Y-120880951D02*
X115816569Y-120976189D01*
X115816569Y-120976189D02*
X115816569Y-121166665D01*
X115816569Y-121166665D02*
X115768950Y-121261903D01*
X115768950Y-121261903D02*
X115673711Y-121309522D01*
X115673711Y-121309522D02*
X115292759Y-121309522D01*
X115292759Y-121309522D02*
X115197521Y-121261903D01*
X115197521Y-121261903D02*
X115149902Y-121166665D01*
X115149902Y-121166665D02*
X115149902Y-120976189D01*
X115149902Y-120976189D02*
X115197521Y-120880951D01*
X115197521Y-120880951D02*
X115292759Y-120833332D01*
X115292759Y-120833332D02*
X115387997Y-120833332D01*
X115387997Y-120833332D02*
X115483235Y-121309522D01*
X115816569Y-119642855D02*
X115149902Y-119642855D01*
X114816569Y-119642855D02*
X114864188Y-119690474D01*
X114864188Y-119690474D02*
X114911807Y-119642855D01*
X114911807Y-119642855D02*
X114864188Y-119595236D01*
X114864188Y-119595236D02*
X114816569Y-119642855D01*
X114816569Y-119642855D02*
X114911807Y-119642855D01*
X115149902Y-119166665D02*
X115816569Y-119166665D01*
X115245140Y-119166665D02*
X115197521Y-119119046D01*
X115197521Y-119119046D02*
X115149902Y-119023808D01*
X115149902Y-119023808D02*
X115149902Y-118880951D01*
X115149902Y-118880951D02*
X115197521Y-118785713D01*
X115197521Y-118785713D02*
X115292759Y-118738094D01*
X115292759Y-118738094D02*
X115816569Y-118738094D01*
X117378950Y-132571430D02*
X117426569Y-132666668D01*
X117426569Y-132666668D02*
X117426569Y-132857144D01*
X117426569Y-132857144D02*
X117378950Y-132952382D01*
X117378950Y-132952382D02*
X117331330Y-133000001D01*
X117331330Y-133000001D02*
X117236092Y-133047620D01*
X117236092Y-133047620D02*
X116950378Y-133047620D01*
X116950378Y-133047620D02*
X116855140Y-133000001D01*
X116855140Y-133000001D02*
X116807521Y-132952382D01*
X116807521Y-132952382D02*
X116759902Y-132857144D01*
X116759902Y-132857144D02*
X116759902Y-132666668D01*
X116759902Y-132666668D02*
X116807521Y-132571430D01*
X117426569Y-132000001D02*
X117378950Y-132095239D01*
X117378950Y-132095239D02*
X117331330Y-132142858D01*
X117331330Y-132142858D02*
X117236092Y-132190477D01*
X117236092Y-132190477D02*
X116950378Y-132190477D01*
X116950378Y-132190477D02*
X116855140Y-132142858D01*
X116855140Y-132142858D02*
X116807521Y-132095239D01*
X116807521Y-132095239D02*
X116759902Y-132000001D01*
X116759902Y-132000001D02*
X116759902Y-131857144D01*
X116759902Y-131857144D02*
X116807521Y-131761906D01*
X116807521Y-131761906D02*
X116855140Y-131714287D01*
X116855140Y-131714287D02*
X116950378Y-131666668D01*
X116950378Y-131666668D02*
X117236092Y-131666668D01*
X117236092Y-131666668D02*
X117331330Y-131714287D01*
X117331330Y-131714287D02*
X117378950Y-131761906D01*
X117378950Y-131761906D02*
X117426569Y-131857144D01*
X117426569Y-131857144D02*
X117426569Y-132000001D01*
X116759902Y-131238096D02*
X117426569Y-131238096D01*
X116855140Y-131238096D02*
X116807521Y-131190477D01*
X116807521Y-131190477D02*
X116759902Y-131095239D01*
X116759902Y-131095239D02*
X116759902Y-130952382D01*
X116759902Y-130952382D02*
X116807521Y-130857144D01*
X116807521Y-130857144D02*
X116902759Y-130809525D01*
X116902759Y-130809525D02*
X117426569Y-130809525D01*
X116759902Y-130476191D02*
X116759902Y-130095239D01*
X116426569Y-130333334D02*
X117283711Y-130333334D01*
X117283711Y-130333334D02*
X117378950Y-130285715D01*
X117378950Y-130285715D02*
X117426569Y-130190477D01*
X117426569Y-130190477D02*
X117426569Y-130095239D01*
X117426569Y-129333334D02*
X116902759Y-129333334D01*
X116902759Y-129333334D02*
X116807521Y-129380953D01*
X116807521Y-129380953D02*
X116759902Y-129476191D01*
X116759902Y-129476191D02*
X116759902Y-129666667D01*
X116759902Y-129666667D02*
X116807521Y-129761905D01*
X117378950Y-129333334D02*
X117426569Y-129428572D01*
X117426569Y-129428572D02*
X117426569Y-129666667D01*
X117426569Y-129666667D02*
X117378950Y-129761905D01*
X117378950Y-129761905D02*
X117283711Y-129809524D01*
X117283711Y-129809524D02*
X117188473Y-129809524D01*
X117188473Y-129809524D02*
X117093235Y-129761905D01*
X117093235Y-129761905D02*
X117045616Y-129666667D01*
X117045616Y-129666667D02*
X117045616Y-129428572D01*
X117045616Y-129428572D02*
X116997997Y-129333334D01*
X117378950Y-128428572D02*
X117426569Y-128523810D01*
X117426569Y-128523810D02*
X117426569Y-128714286D01*
X117426569Y-128714286D02*
X117378950Y-128809524D01*
X117378950Y-128809524D02*
X117331330Y-128857143D01*
X117331330Y-128857143D02*
X117236092Y-128904762D01*
X117236092Y-128904762D02*
X116950378Y-128904762D01*
X116950378Y-128904762D02*
X116855140Y-128857143D01*
X116855140Y-128857143D02*
X116807521Y-128809524D01*
X116807521Y-128809524D02*
X116759902Y-128714286D01*
X116759902Y-128714286D02*
X116759902Y-128523810D01*
X116759902Y-128523810D02*
X116807521Y-128428572D01*
X116759902Y-128142857D02*
X116759902Y-127761905D01*
X116426569Y-128000000D02*
X117283711Y-128000000D01*
X117283711Y-128000000D02*
X117378950Y-127952381D01*
X117378950Y-127952381D02*
X117426569Y-127857143D01*
X117426569Y-127857143D02*
X117426569Y-127761905D01*
X116759902Y-126761904D02*
X117426569Y-126571428D01*
X117426569Y-126571428D02*
X116950378Y-126380952D01*
X116950378Y-126380952D02*
X117426569Y-126190476D01*
X117426569Y-126190476D02*
X116759902Y-126000000D01*
X117426569Y-125619047D02*
X116759902Y-125619047D01*
X116426569Y-125619047D02*
X116474188Y-125666666D01*
X116474188Y-125666666D02*
X116521807Y-125619047D01*
X116521807Y-125619047D02*
X116474188Y-125571428D01*
X116474188Y-125571428D02*
X116426569Y-125619047D01*
X116426569Y-125619047D02*
X116521807Y-125619047D01*
X116759902Y-125285714D02*
X116759902Y-124904762D01*
X116426569Y-125142857D02*
X117283711Y-125142857D01*
X117283711Y-125142857D02*
X117378950Y-125095238D01*
X117378950Y-125095238D02*
X117426569Y-125000000D01*
X117426569Y-125000000D02*
X117426569Y-124904762D01*
X117426569Y-124571428D02*
X116426569Y-124571428D01*
X117426569Y-124142857D02*
X116902759Y-124142857D01*
X116902759Y-124142857D02*
X116807521Y-124190476D01*
X116807521Y-124190476D02*
X116759902Y-124285714D01*
X116759902Y-124285714D02*
X116759902Y-124428571D01*
X116759902Y-124428571D02*
X116807521Y-124523809D01*
X116807521Y-124523809D02*
X116855140Y-124571428D01*
X116759902Y-122999999D02*
X117426569Y-122761904D01*
X117426569Y-122761904D02*
X116759902Y-122523809D01*
X117378950Y-121761904D02*
X117426569Y-121857142D01*
X117426569Y-121857142D02*
X117426569Y-122047618D01*
X117426569Y-122047618D02*
X117378950Y-122142856D01*
X117378950Y-122142856D02*
X117283711Y-122190475D01*
X117283711Y-122190475D02*
X116902759Y-122190475D01*
X116902759Y-122190475D02*
X116807521Y-122142856D01*
X116807521Y-122142856D02*
X116759902Y-122047618D01*
X116759902Y-122047618D02*
X116759902Y-121857142D01*
X116759902Y-121857142D02*
X116807521Y-121761904D01*
X116807521Y-121761904D02*
X116902759Y-121714285D01*
X116902759Y-121714285D02*
X116997997Y-121714285D01*
X116997997Y-121714285D02*
X117093235Y-122190475D01*
X117426569Y-121142856D02*
X117378950Y-121238094D01*
X117378950Y-121238094D02*
X117283711Y-121285713D01*
X117283711Y-121285713D02*
X116426569Y-121285713D01*
X117426569Y-120619046D02*
X117378950Y-120714284D01*
X117378950Y-120714284D02*
X117331330Y-120761903D01*
X117331330Y-120761903D02*
X117236092Y-120809522D01*
X117236092Y-120809522D02*
X116950378Y-120809522D01*
X116950378Y-120809522D02*
X116855140Y-120761903D01*
X116855140Y-120761903D02*
X116807521Y-120714284D01*
X116807521Y-120714284D02*
X116759902Y-120619046D01*
X116759902Y-120619046D02*
X116759902Y-120476189D01*
X116759902Y-120476189D02*
X116807521Y-120380951D01*
X116807521Y-120380951D02*
X116855140Y-120333332D01*
X116855140Y-120333332D02*
X116950378Y-120285713D01*
X116950378Y-120285713D02*
X117236092Y-120285713D01*
X117236092Y-120285713D02*
X117331330Y-120333332D01*
X117331330Y-120333332D02*
X117378950Y-120380951D01*
X117378950Y-120380951D02*
X117426569Y-120476189D01*
X117426569Y-120476189D02*
X117426569Y-120619046D01*
X117378950Y-119904760D02*
X117426569Y-119809522D01*
X117426569Y-119809522D02*
X117426569Y-119619046D01*
X117426569Y-119619046D02*
X117378950Y-119523808D01*
X117378950Y-119523808D02*
X117283711Y-119476189D01*
X117283711Y-119476189D02*
X117236092Y-119476189D01*
X117236092Y-119476189D02*
X117140854Y-119523808D01*
X117140854Y-119523808D02*
X117093235Y-119619046D01*
X117093235Y-119619046D02*
X117093235Y-119761903D01*
X117093235Y-119761903D02*
X117045616Y-119857141D01*
X117045616Y-119857141D02*
X116950378Y-119904760D01*
X116950378Y-119904760D02*
X116902759Y-119904760D01*
X116902759Y-119904760D02*
X116807521Y-119857141D01*
X116807521Y-119857141D02*
X116759902Y-119761903D01*
X116759902Y-119761903D02*
X116759902Y-119619046D01*
X116759902Y-119619046D02*
X116807521Y-119523808D01*
X116759902Y-119190474D02*
X116759902Y-118809522D01*
X116426569Y-119047617D02*
X117283711Y-119047617D01*
X117283711Y-119047617D02*
X117378950Y-118999998D01*
X117378950Y-118999998D02*
X117426569Y-118904760D01*
X117426569Y-118904760D02*
X117426569Y-118809522D01*
X117426569Y-118047617D02*
X116902759Y-118047617D01*
X116902759Y-118047617D02*
X116807521Y-118095236D01*
X116807521Y-118095236D02*
X116759902Y-118190474D01*
X116759902Y-118190474D02*
X116759902Y-118380950D01*
X116759902Y-118380950D02*
X116807521Y-118476188D01*
X117378950Y-118047617D02*
X117426569Y-118142855D01*
X117426569Y-118142855D02*
X117426569Y-118380950D01*
X117426569Y-118380950D02*
X117378950Y-118476188D01*
X117378950Y-118476188D02*
X117283711Y-118523807D01*
X117283711Y-118523807D02*
X117188473Y-118523807D01*
X117188473Y-118523807D02*
X117093235Y-118476188D01*
X117093235Y-118476188D02*
X117045616Y-118380950D01*
X117045616Y-118380950D02*
X117045616Y-118142855D01*
X117045616Y-118142855D02*
X116997997Y-118047617D01*
X116759902Y-117714283D02*
X116759902Y-117333331D01*
X116426569Y-117571426D02*
X117283711Y-117571426D01*
X117283711Y-117571426D02*
X117378950Y-117523807D01*
X117378950Y-117523807D02*
X117426569Y-117428569D01*
X117426569Y-117428569D02*
X117426569Y-117333331D01*
X117331330Y-116999997D02*
X117378950Y-116952378D01*
X117378950Y-116952378D02*
X117426569Y-116999997D01*
X117426569Y-116999997D02*
X117378950Y-117047616D01*
X117378950Y-117047616D02*
X117331330Y-116999997D01*
X117331330Y-116999997D02*
X117426569Y-116999997D01*
%LPC*%
D11*
X140800000Y-75000000D03*
D12*
X116150000Y-78650000D03*
D13*
X116150000Y-73650000D03*
D11*
X144800000Y-75000000D03*
X130800000Y-75000000D03*
X142800000Y-75000000D03*
X128800000Y-75000000D03*
X126800000Y-75000000D03*
X138800000Y-75000000D03*
X132800000Y-75000000D03*
D13*
X153450000Y-78650000D03*
D11*
X136800000Y-75000000D03*
X124800000Y-75000000D03*
D13*
X153450000Y-73650000D03*
D11*
X134800000Y-75000000D03*
%LPD*%
M02*
