G04 #@! TF.GenerationSoftware,KiCad,Pcbnew,7.0.7*
G04 #@! TF.CreationDate,2024-12-02T13:55:21+01:00*
G04 #@! TF.ProjectId,Finger_FSR_V1_height,46696e67-6572-45f4-9653-525f56315f68,rev?*
G04 #@! TF.SameCoordinates,Original*
G04 #@! TF.FileFunction,Other,User*
%FSLAX46Y46*%
G04 Gerber Fmt 4.6, Leading zero omitted, Abs format (unit mm)*
G04 Created by KiCad (PCBNEW 7.0.7) date 2024-12-02 13:55:21*
%MOMM*%
%LPD*%
G01*
G04 APERTURE LIST*
%ADD10C,0.200000*%
%ADD11C,0.150000*%
G04 APERTURE END LIST*
D10*
X118650000Y-68850000D02*
X114650000Y-68850000D01*
X113150000Y-70350000D02*
X113150000Y-81150000D01*
X113150000Y-81150000D02*
X117650000Y-81150000D01*
X150950000Y-68850000D02*
X154950000Y-68850000D01*
X102650000Y-151150000D02*
X129650000Y-151150000D01*
X131150000Y-137650000D02*
G75*
G03*
X129650000Y-136150000I-1500000J0D01*
G01*
X118650000Y-80150000D02*
X118650000Y-68850000D01*
X131150000Y-149650000D02*
X131150000Y-137650000D01*
X154950000Y-81150000D02*
G75*
G03*
X156450000Y-79650000I0J1500000D01*
G01*
X129650000Y-151150000D02*
G75*
G03*
X131150000Y-149650000I0J1500000D01*
G01*
X154950000Y-81150000D02*
X150950000Y-81150000D01*
X101150000Y-137650000D02*
X101150000Y-149650000D01*
X102650000Y-136150000D02*
X129650000Y-136150000D01*
X101150000Y-149650000D02*
G75*
G03*
X102650000Y-151150000I1500000J0D01*
G01*
X102650000Y-136150000D02*
G75*
G03*
X101150000Y-137650000I0J-1500000D01*
G01*
X150950000Y-81150000D02*
X150950000Y-68850000D01*
X117650000Y-81150000D02*
G75*
G03*
X118650000Y-80150000I0J1000000D01*
G01*
X156450000Y-70350000D02*
G75*
G03*
X154950000Y-68850000I-1500000J0D01*
G01*
X114650000Y-68850000D02*
G75*
G03*
X113150000Y-70350000I0J-1500000D01*
G01*
X156450000Y-79650000D02*
X156450000Y-70350000D01*
D11*
X128589160Y-115102200D02*
X128732017Y-115149819D01*
X128732017Y-115149819D02*
X128970112Y-115149819D01*
X128970112Y-115149819D02*
X129065350Y-115102200D01*
X129065350Y-115102200D02*
X129112969Y-115054580D01*
X129112969Y-115054580D02*
X129160588Y-114959342D01*
X129160588Y-114959342D02*
X129160588Y-114864104D01*
X129160588Y-114864104D02*
X129112969Y-114768866D01*
X129112969Y-114768866D02*
X129065350Y-114721247D01*
X129065350Y-114721247D02*
X128970112Y-114673628D01*
X128970112Y-114673628D02*
X128779636Y-114626009D01*
X128779636Y-114626009D02*
X128684398Y-114578390D01*
X128684398Y-114578390D02*
X128636779Y-114530771D01*
X128636779Y-114530771D02*
X128589160Y-114435533D01*
X128589160Y-114435533D02*
X128589160Y-114340295D01*
X128589160Y-114340295D02*
X128636779Y-114245057D01*
X128636779Y-114245057D02*
X128684398Y-114197438D01*
X128684398Y-114197438D02*
X128779636Y-114149819D01*
X128779636Y-114149819D02*
X129017731Y-114149819D01*
X129017731Y-114149819D02*
X129160588Y-114197438D01*
X129446303Y-114483152D02*
X129827255Y-114483152D01*
X129589160Y-114149819D02*
X129589160Y-115006961D01*
X129589160Y-115006961D02*
X129636779Y-115102200D01*
X129636779Y-115102200D02*
X129732017Y-115149819D01*
X129732017Y-115149819D02*
X129827255Y-115149819D01*
X130160589Y-115149819D02*
X130160589Y-114483152D01*
X130160589Y-114149819D02*
X130112970Y-114197438D01*
X130112970Y-114197438D02*
X130160589Y-114245057D01*
X130160589Y-114245057D02*
X130208208Y-114197438D01*
X130208208Y-114197438D02*
X130160589Y-114149819D01*
X130160589Y-114149819D02*
X130160589Y-114245057D01*
X130493922Y-114483152D02*
X130874874Y-114483152D01*
X130636779Y-115149819D02*
X130636779Y-114292676D01*
X130636779Y-114292676D02*
X130684398Y-114197438D01*
X130684398Y-114197438D02*
X130779636Y-114149819D01*
X130779636Y-114149819D02*
X130874874Y-114149819D01*
X131065351Y-114483152D02*
X131446303Y-114483152D01*
X131208208Y-115149819D02*
X131208208Y-114292676D01*
X131208208Y-114292676D02*
X131255827Y-114197438D01*
X131255827Y-114197438D02*
X131351065Y-114149819D01*
X131351065Y-114149819D02*
X131446303Y-114149819D01*
X132160589Y-115102200D02*
X132065351Y-115149819D01*
X132065351Y-115149819D02*
X131874875Y-115149819D01*
X131874875Y-115149819D02*
X131779637Y-115102200D01*
X131779637Y-115102200D02*
X131732018Y-115006961D01*
X131732018Y-115006961D02*
X131732018Y-114626009D01*
X131732018Y-114626009D02*
X131779637Y-114530771D01*
X131779637Y-114530771D02*
X131874875Y-114483152D01*
X131874875Y-114483152D02*
X132065351Y-114483152D01*
X132065351Y-114483152D02*
X132160589Y-114530771D01*
X132160589Y-114530771D02*
X132208208Y-114626009D01*
X132208208Y-114626009D02*
X132208208Y-114721247D01*
X132208208Y-114721247D02*
X131732018Y-114816485D01*
X132636780Y-114483152D02*
X132636780Y-115149819D01*
X132636780Y-114578390D02*
X132684399Y-114530771D01*
X132684399Y-114530771D02*
X132779637Y-114483152D01*
X132779637Y-114483152D02*
X132922494Y-114483152D01*
X132922494Y-114483152D02*
X133017732Y-114530771D01*
X133017732Y-114530771D02*
X133065351Y-114626009D01*
X133065351Y-114626009D02*
X133065351Y-115149819D01*
X133922494Y-115102200D02*
X133827256Y-115149819D01*
X133827256Y-115149819D02*
X133636780Y-115149819D01*
X133636780Y-115149819D02*
X133541542Y-115102200D01*
X133541542Y-115102200D02*
X133493923Y-115006961D01*
X133493923Y-115006961D02*
X133493923Y-114626009D01*
X133493923Y-114626009D02*
X133541542Y-114530771D01*
X133541542Y-114530771D02*
X133636780Y-114483152D01*
X133636780Y-114483152D02*
X133827256Y-114483152D01*
X133827256Y-114483152D02*
X133922494Y-114530771D01*
X133922494Y-114530771D02*
X133970113Y-114626009D01*
X133970113Y-114626009D02*
X133970113Y-114721247D01*
X133970113Y-114721247D02*
X133493923Y-114816485D01*
X134398685Y-115149819D02*
X134398685Y-114483152D01*
X134398685Y-114673628D02*
X134446304Y-114578390D01*
X134446304Y-114578390D02*
X134493923Y-114530771D01*
X134493923Y-114530771D02*
X134589161Y-114483152D01*
X134589161Y-114483152D02*
X134684399Y-114483152D01*
X135922495Y-115149819D02*
X135827257Y-115102200D01*
X135827257Y-115102200D02*
X135779638Y-115006961D01*
X135779638Y-115006961D02*
X135779638Y-114149819D01*
X136732019Y-115149819D02*
X136732019Y-114626009D01*
X136732019Y-114626009D02*
X136684400Y-114530771D01*
X136684400Y-114530771D02*
X136589162Y-114483152D01*
X136589162Y-114483152D02*
X136398686Y-114483152D01*
X136398686Y-114483152D02*
X136303448Y-114530771D01*
X136732019Y-115102200D02*
X136636781Y-115149819D01*
X136636781Y-115149819D02*
X136398686Y-115149819D01*
X136398686Y-115149819D02*
X136303448Y-115102200D01*
X136303448Y-115102200D02*
X136255829Y-115006961D01*
X136255829Y-115006961D02*
X136255829Y-114911723D01*
X136255829Y-114911723D02*
X136303448Y-114816485D01*
X136303448Y-114816485D02*
X136398686Y-114768866D01*
X136398686Y-114768866D02*
X136636781Y-114768866D01*
X136636781Y-114768866D02*
X136732019Y-114721247D01*
X137112972Y-114483152D02*
X137351067Y-115149819D01*
X137589162Y-114483152D02*
X137351067Y-115149819D01*
X137351067Y-115149819D02*
X137255829Y-115387914D01*
X137255829Y-115387914D02*
X137208210Y-115435533D01*
X137208210Y-115435533D02*
X137112972Y-115483152D01*
X138351067Y-115102200D02*
X138255829Y-115149819D01*
X138255829Y-115149819D02*
X138065353Y-115149819D01*
X138065353Y-115149819D02*
X137970115Y-115102200D01*
X137970115Y-115102200D02*
X137922496Y-115006961D01*
X137922496Y-115006961D02*
X137922496Y-114626009D01*
X137922496Y-114626009D02*
X137970115Y-114530771D01*
X137970115Y-114530771D02*
X138065353Y-114483152D01*
X138065353Y-114483152D02*
X138255829Y-114483152D01*
X138255829Y-114483152D02*
X138351067Y-114530771D01*
X138351067Y-114530771D02*
X138398686Y-114626009D01*
X138398686Y-114626009D02*
X138398686Y-114721247D01*
X138398686Y-114721247D02*
X137922496Y-114816485D01*
X138827258Y-115149819D02*
X138827258Y-114483152D01*
X138827258Y-114673628D02*
X138874877Y-114578390D01*
X138874877Y-114578390D02*
X138922496Y-114530771D01*
X138922496Y-114530771D02*
X139017734Y-114483152D01*
X139017734Y-114483152D02*
X139112972Y-114483152D01*
X128636779Y-118369819D02*
X128636779Y-117369819D01*
X128636779Y-117369819D02*
X129017731Y-117369819D01*
X129017731Y-117369819D02*
X129112969Y-117417438D01*
X129112969Y-117417438D02*
X129160588Y-117465057D01*
X129160588Y-117465057D02*
X129208207Y-117560295D01*
X129208207Y-117560295D02*
X129208207Y-117703152D01*
X129208207Y-117703152D02*
X129160588Y-117798390D01*
X129160588Y-117798390D02*
X129112969Y-117846009D01*
X129112969Y-117846009D02*
X129017731Y-117893628D01*
X129017731Y-117893628D02*
X128636779Y-117893628D01*
X129779636Y-118369819D02*
X129684398Y-118322200D01*
X129684398Y-118322200D02*
X129636779Y-118274580D01*
X129636779Y-118274580D02*
X129589160Y-118179342D01*
X129589160Y-118179342D02*
X129589160Y-117893628D01*
X129589160Y-117893628D02*
X129636779Y-117798390D01*
X129636779Y-117798390D02*
X129684398Y-117750771D01*
X129684398Y-117750771D02*
X129779636Y-117703152D01*
X129779636Y-117703152D02*
X129922493Y-117703152D01*
X129922493Y-117703152D02*
X130017731Y-117750771D01*
X130017731Y-117750771D02*
X130065350Y-117798390D01*
X130065350Y-117798390D02*
X130112969Y-117893628D01*
X130112969Y-117893628D02*
X130112969Y-118179342D01*
X130112969Y-118179342D02*
X130065350Y-118274580D01*
X130065350Y-118274580D02*
X130017731Y-118322200D01*
X130017731Y-118322200D02*
X129922493Y-118369819D01*
X129922493Y-118369819D02*
X129779636Y-118369819D01*
X130684398Y-118369819D02*
X130589160Y-118322200D01*
X130589160Y-118322200D02*
X130541541Y-118226961D01*
X130541541Y-118226961D02*
X130541541Y-117369819D01*
X130970113Y-117703152D02*
X131208208Y-118369819D01*
X131446303Y-117703152D02*
X131208208Y-118369819D01*
X131208208Y-118369819D02*
X131112970Y-118607914D01*
X131112970Y-118607914D02*
X131065351Y-118655533D01*
X131065351Y-118655533D02*
X130970113Y-118703152D01*
X131827256Y-118369819D02*
X131827256Y-117703152D01*
X131827256Y-117798390D02*
X131874875Y-117750771D01*
X131874875Y-117750771D02*
X131970113Y-117703152D01*
X131970113Y-117703152D02*
X132112970Y-117703152D01*
X132112970Y-117703152D02*
X132208208Y-117750771D01*
X132208208Y-117750771D02*
X132255827Y-117846009D01*
X132255827Y-117846009D02*
X132255827Y-118369819D01*
X132255827Y-117846009D02*
X132303446Y-117750771D01*
X132303446Y-117750771D02*
X132398684Y-117703152D01*
X132398684Y-117703152D02*
X132541541Y-117703152D01*
X132541541Y-117703152D02*
X132636780Y-117750771D01*
X132636780Y-117750771D02*
X132684399Y-117846009D01*
X132684399Y-117846009D02*
X132684399Y-118369819D01*
X133160589Y-118369819D02*
X133160589Y-117703152D01*
X133160589Y-117369819D02*
X133112970Y-117417438D01*
X133112970Y-117417438D02*
X133160589Y-117465057D01*
X133160589Y-117465057D02*
X133208208Y-117417438D01*
X133208208Y-117417438D02*
X133160589Y-117369819D01*
X133160589Y-117369819D02*
X133160589Y-117465057D01*
X134065350Y-118369819D02*
X134065350Y-117369819D01*
X134065350Y-118322200D02*
X133970112Y-118369819D01*
X133970112Y-118369819D02*
X133779636Y-118369819D01*
X133779636Y-118369819D02*
X133684398Y-118322200D01*
X133684398Y-118322200D02*
X133636779Y-118274580D01*
X133636779Y-118274580D02*
X133589160Y-118179342D01*
X133589160Y-118179342D02*
X133589160Y-117893628D01*
X133589160Y-117893628D02*
X133636779Y-117798390D01*
X133636779Y-117798390D02*
X133684398Y-117750771D01*
X133684398Y-117750771D02*
X133779636Y-117703152D01*
X133779636Y-117703152D02*
X133970112Y-117703152D01*
X133970112Y-117703152D02*
X134065350Y-117750771D01*
X134922493Y-118322200D02*
X134827255Y-118369819D01*
X134827255Y-118369819D02*
X134636779Y-118369819D01*
X134636779Y-118369819D02*
X134541541Y-118322200D01*
X134541541Y-118322200D02*
X134493922Y-118226961D01*
X134493922Y-118226961D02*
X134493922Y-117846009D01*
X134493922Y-117846009D02*
X134541541Y-117750771D01*
X134541541Y-117750771D02*
X134636779Y-117703152D01*
X134636779Y-117703152D02*
X134827255Y-117703152D01*
X134827255Y-117703152D02*
X134922493Y-117750771D01*
X134922493Y-117750771D02*
X134970112Y-117846009D01*
X134970112Y-117846009D02*
X134970112Y-117941247D01*
X134970112Y-117941247D02*
X134493922Y-118036485D01*
X136351065Y-117369819D02*
X136446303Y-117369819D01*
X136446303Y-117369819D02*
X136541541Y-117417438D01*
X136541541Y-117417438D02*
X136589160Y-117465057D01*
X136589160Y-117465057D02*
X136636779Y-117560295D01*
X136636779Y-117560295D02*
X136684398Y-117750771D01*
X136684398Y-117750771D02*
X136684398Y-117988866D01*
X136684398Y-117988866D02*
X136636779Y-118179342D01*
X136636779Y-118179342D02*
X136589160Y-118274580D01*
X136589160Y-118274580D02*
X136541541Y-118322200D01*
X136541541Y-118322200D02*
X136446303Y-118369819D01*
X136446303Y-118369819D02*
X136351065Y-118369819D01*
X136351065Y-118369819D02*
X136255827Y-118322200D01*
X136255827Y-118322200D02*
X136208208Y-118274580D01*
X136208208Y-118274580D02*
X136160589Y-118179342D01*
X136160589Y-118179342D02*
X136112970Y-117988866D01*
X136112970Y-117988866D02*
X136112970Y-117750771D01*
X136112970Y-117750771D02*
X136160589Y-117560295D01*
X136160589Y-117560295D02*
X136208208Y-117465057D01*
X136208208Y-117465057D02*
X136255827Y-117417438D01*
X136255827Y-117417438D02*
X136351065Y-117369819D01*
X137112970Y-118274580D02*
X137160589Y-118322200D01*
X137160589Y-118322200D02*
X137112970Y-118369819D01*
X137112970Y-118369819D02*
X137065351Y-118322200D01*
X137065351Y-118322200D02*
X137112970Y-118274580D01*
X137112970Y-118274580D02*
X137112970Y-118369819D01*
X137541541Y-117465057D02*
X137589160Y-117417438D01*
X137589160Y-117417438D02*
X137684398Y-117369819D01*
X137684398Y-117369819D02*
X137922493Y-117369819D01*
X137922493Y-117369819D02*
X138017731Y-117417438D01*
X138017731Y-117417438D02*
X138065350Y-117465057D01*
X138065350Y-117465057D02*
X138112969Y-117560295D01*
X138112969Y-117560295D02*
X138112969Y-117655533D01*
X138112969Y-117655533D02*
X138065350Y-117798390D01*
X138065350Y-117798390D02*
X137493922Y-118369819D01*
X137493922Y-118369819D02*
X138112969Y-118369819D01*
X138732017Y-117369819D02*
X138827255Y-117369819D01*
X138827255Y-117369819D02*
X138922493Y-117417438D01*
X138922493Y-117417438D02*
X138970112Y-117465057D01*
X138970112Y-117465057D02*
X139017731Y-117560295D01*
X139017731Y-117560295D02*
X139065350Y-117750771D01*
X139065350Y-117750771D02*
X139065350Y-117988866D01*
X139065350Y-117988866D02*
X139017731Y-118179342D01*
X139017731Y-118179342D02*
X138970112Y-118274580D01*
X138970112Y-118274580D02*
X138922493Y-118322200D01*
X138922493Y-118322200D02*
X138827255Y-118369819D01*
X138827255Y-118369819D02*
X138732017Y-118369819D01*
X138732017Y-118369819D02*
X138636779Y-118322200D01*
X138636779Y-118322200D02*
X138589160Y-118274580D01*
X138589160Y-118274580D02*
X138541541Y-118179342D01*
X138541541Y-118179342D02*
X138493922Y-117988866D01*
X138493922Y-117988866D02*
X138493922Y-117750771D01*
X138493922Y-117750771D02*
X138541541Y-117560295D01*
X138541541Y-117560295D02*
X138589160Y-117465057D01*
X138589160Y-117465057D02*
X138636779Y-117417438D01*
X138636779Y-117417438D02*
X138732017Y-117369819D01*
X139493922Y-118369819D02*
X139493922Y-117703152D01*
X139493922Y-117798390D02*
X139541541Y-117750771D01*
X139541541Y-117750771D02*
X139636779Y-117703152D01*
X139636779Y-117703152D02*
X139779636Y-117703152D01*
X139779636Y-117703152D02*
X139874874Y-117750771D01*
X139874874Y-117750771D02*
X139922493Y-117846009D01*
X139922493Y-117846009D02*
X139922493Y-118369819D01*
X139922493Y-117846009D02*
X139970112Y-117750771D01*
X139970112Y-117750771D02*
X140065350Y-117703152D01*
X140065350Y-117703152D02*
X140208207Y-117703152D01*
X140208207Y-117703152D02*
X140303446Y-117750771D01*
X140303446Y-117750771D02*
X140351065Y-117846009D01*
X140351065Y-117846009D02*
X140351065Y-118369819D01*
X140827255Y-118369819D02*
X140827255Y-117703152D01*
X140827255Y-117798390D02*
X140874874Y-117750771D01*
X140874874Y-117750771D02*
X140970112Y-117703152D01*
X140970112Y-117703152D02*
X141112969Y-117703152D01*
X141112969Y-117703152D02*
X141208207Y-117750771D01*
X141208207Y-117750771D02*
X141255826Y-117846009D01*
X141255826Y-117846009D02*
X141255826Y-118369819D01*
X141255826Y-117846009D02*
X141303445Y-117750771D01*
X141303445Y-117750771D02*
X141398683Y-117703152D01*
X141398683Y-117703152D02*
X141541540Y-117703152D01*
X141541540Y-117703152D02*
X141636779Y-117750771D01*
X141636779Y-117750771D02*
X141684398Y-117846009D01*
X141684398Y-117846009D02*
X141684398Y-118369819D01*
M02*
