G04 #@! TF.GenerationSoftware,KiCad,Pcbnew,7.0.7*
G04 #@! TF.CreationDate,2024-05-14T22:52:39+02:00*
G04 #@! TF.ProjectId,Index_Middle_Ring_V3,496e6465-785f-44d6-9964-646c655f5269,rev?*
G04 #@! TF.SameCoordinates,Original*
G04 #@! TF.FileFunction,Copper,L1,Top*
G04 #@! TF.FilePolarity,Positive*
%FSLAX46Y46*%
G04 Gerber Fmt 4.6, Leading zero omitted, Abs format (unit mm)*
G04 Created by KiCad (PCBNEW 7.0.7) date 2024-05-14 22:52:39*
%MOMM*%
%LPD*%
G01*
G04 APERTURE LIST*
G04 Aperture macros list*
%AMRoundRect*
0 Rectangle with rounded corners*
0 $1 Rounding radius*
0 $2 $3 $4 $5 $6 $7 $8 $9 X,Y pos of 4 corners*
0 Add a 4 corners polygon primitive as box body*
4,1,4,$2,$3,$4,$5,$6,$7,$8,$9,$2,$3,0*
0 Add four circle primitives for the rounded corners*
1,1,$1+$1,$2,$3*
1,1,$1+$1,$4,$5*
1,1,$1+$1,$6,$7*
1,1,$1+$1,$8,$9*
0 Add four rect primitives between the rounded corners*
20,1,$1+$1,$2,$3,$4,$5,0*
20,1,$1+$1,$4,$5,$6,$7,0*
20,1,$1+$1,$6,$7,$8,$9,0*
20,1,$1+$1,$8,$9,$2,$3,0*%
G04 Aperture macros list end*
G04 #@! TA.AperFunction,SMDPad,CuDef*
%ADD10RoundRect,0.155000X0.155000X-0.212500X0.155000X0.212500X-0.155000X0.212500X-0.155000X-0.212500X0*%
G04 #@! TD*
G04 #@! TA.AperFunction,SMDPad,CuDef*
%ADD11R,0.558800X0.977900*%
G04 #@! TD*
G04 #@! TA.AperFunction,SMDPad,CuDef*
%ADD12RoundRect,0.155000X-0.212500X-0.155000X0.212500X-0.155000X0.212500X0.155000X-0.212500X0.155000X0*%
G04 #@! TD*
G04 #@! TA.AperFunction,SMDPad,CuDef*
%ADD13R,4.000000X0.300000*%
G04 #@! TD*
G04 #@! TA.AperFunction,SMDPad,CuDef*
%ADD14R,0.977900X0.558800*%
G04 #@! TD*
G04 #@! TA.AperFunction,ViaPad*
%ADD15C,0.500000*%
G04 #@! TD*
G04 #@! TA.AperFunction,ViaPad*
%ADD16C,2.500000*%
G04 #@! TD*
G04 #@! TA.AperFunction,Conductor*
%ADD17C,0.250000*%
G04 #@! TD*
G04 APERTURE END LIST*
D10*
X217530000Y-107491500D03*
X217530000Y-106356500D03*
D11*
X183830001Y-105558750D03*
X182880000Y-105558750D03*
X181929999Y-105558750D03*
X181929999Y-108289250D03*
X182880000Y-108289250D03*
X183830001Y-108289250D03*
D12*
X228372500Y-115634000D03*
X229507500Y-115634000D03*
D13*
X44580000Y-116424000D03*
X44580000Y-116924000D03*
X44580000Y-117424000D03*
X44580000Y-117924000D03*
X44580000Y-118424000D03*
X44580000Y-118924000D03*
X44580000Y-119424000D03*
D11*
X183830001Y-127558750D03*
X182880000Y-127558750D03*
X181929999Y-127558750D03*
X181929999Y-130289250D03*
X182880000Y-130289250D03*
X183830001Y-130289250D03*
X220980001Y-127558750D03*
X220030000Y-127558750D03*
X219079999Y-127558750D03*
X219079999Y-130289250D03*
X220030000Y-130289250D03*
X220980001Y-130289250D03*
D10*
X179930000Y-107491500D03*
X179930000Y-106356500D03*
D11*
X139030001Y-127558750D03*
X138080000Y-127558750D03*
X137129999Y-127558750D03*
X137129999Y-130289250D03*
X138080000Y-130289250D03*
X139030001Y-130289250D03*
X139030001Y-105558750D03*
X138080000Y-105558750D03*
X137129999Y-105558750D03*
X137129999Y-108289250D03*
X138080000Y-108289250D03*
X139030001Y-108289250D03*
D10*
X134530001Y-129491499D03*
X134530001Y-128356499D03*
D14*
X230295250Y-118974001D03*
X230295250Y-118024000D03*
X230295250Y-117073999D03*
X227564750Y-117073999D03*
X227564750Y-118024000D03*
X227564750Y-118974001D03*
D10*
X217655000Y-129491500D03*
X217655000Y-128356500D03*
D11*
X220980001Y-105558750D03*
X220030000Y-105558750D03*
X219079999Y-105558750D03*
X219079999Y-108289250D03*
X220030000Y-108289250D03*
X220980001Y-108289250D03*
D10*
X134696000Y-107631500D03*
X134696000Y-106496500D03*
X179930000Y-129491500D03*
X179930000Y-128356500D03*
D15*
X129030000Y-117024000D03*
X217655000Y-129491500D03*
X179580000Y-129424000D03*
X217530000Y-107924000D03*
X177755000Y-118149000D03*
X215840000Y-117884000D03*
X179580000Y-107774000D03*
X225940000Y-116904000D03*
X133695998Y-107624000D03*
X220490000Y-120554000D03*
X179860000Y-119384000D03*
X136730000Y-119274000D03*
X144485000Y-119529000D03*
X227490000Y-120024000D03*
X187485000Y-119399000D03*
X181680000Y-117524000D03*
X185530000Y-108424000D03*
X136080000Y-116774000D03*
X138530000Y-116774000D03*
X219430000Y-106924000D03*
D16*
X218180000Y-117924000D03*
X181230000Y-120724000D03*
D15*
X218190000Y-121744000D03*
X58803726Y-117924000D03*
X205510000Y-117094000D03*
X180670000Y-125694000D03*
X219470000Y-111634000D03*
X133596000Y-106514000D03*
D16*
X184530000Y-115124000D03*
X184530000Y-120724000D03*
X222030000Y-117924000D03*
D15*
X186230000Y-110774000D03*
D16*
X141330000Y-120724000D03*
D15*
X56703725Y-117924000D03*
D16*
X181230000Y-115124000D03*
D15*
X205560000Y-118724000D03*
D16*
X141330000Y-115124000D03*
D15*
X224430001Y-118224000D03*
X133830000Y-128374000D03*
X58103723Y-117924000D03*
X59503725Y-117924000D03*
D16*
X134830000Y-115124000D03*
D15*
X57403724Y-117924000D03*
D16*
X134830000Y-120724000D03*
D15*
X133205000Y-129199000D03*
X130930000Y-118774000D03*
D17*
X219079999Y-129873999D02*
X218697500Y-129491500D01*
X219079999Y-107923999D02*
X218647500Y-107491500D01*
X215840000Y-117884000D02*
X215760000Y-117964000D01*
X129030000Y-117024000D02*
X60630000Y-117024000D01*
X215760000Y-117964000D02*
X183000000Y-117964000D01*
X217530000Y-107924000D02*
X217530000Y-107491500D01*
X177755000Y-118149000D02*
X131705000Y-118149000D01*
X133703498Y-107631500D02*
X134696000Y-107631500D01*
X228372500Y-115584000D02*
X228362500Y-115574000D01*
X228092500Y-115354000D02*
X228372500Y-115634000D01*
X133695998Y-107624000D02*
X133703498Y-107631500D01*
X219079999Y-108289250D02*
X219079999Y-107923999D01*
X225940000Y-116904000D02*
X225940000Y-116654000D01*
X137129999Y-107923999D02*
X136830000Y-107624000D01*
X53280000Y-117124000D02*
X60530000Y-117124000D01*
X228372500Y-116166249D02*
X228372500Y-115584000D01*
X218647500Y-107491500D02*
X217530000Y-107491500D01*
X53280000Y-117124000D02*
X52980000Y-117424000D01*
X179930000Y-107491500D02*
X181132249Y-107491500D01*
X137129999Y-108289250D02*
X137129999Y-107923999D01*
X60630000Y-117024000D02*
X60530000Y-117124000D01*
X182815000Y-118149000D02*
X177755000Y-118149000D01*
X227240000Y-115354000D02*
X228092500Y-115354000D01*
X181132249Y-129491500D02*
X181929999Y-130289250D01*
X130580000Y-117024000D02*
X129030000Y-117024000D01*
X136830000Y-107624000D02*
X134703500Y-107624000D01*
X183000000Y-117964000D02*
X182815000Y-118149000D01*
X225940000Y-116654000D02*
X227240000Y-115354000D01*
X227564750Y-116973999D02*
X228372500Y-116166249D01*
X179930000Y-129491500D02*
X181132249Y-129491500D01*
X219079999Y-130289250D02*
X219079999Y-129873999D01*
X218697500Y-129491500D02*
X217655000Y-129491500D01*
X52980000Y-117424000D02*
X44580000Y-117424000D01*
X134703500Y-107624000D02*
X134696000Y-107631500D01*
X181132249Y-107491500D02*
X181929999Y-108289250D01*
X131705000Y-118149000D02*
X130580000Y-117024000D01*
X220550000Y-119594000D02*
X220880000Y-119924000D01*
X220880000Y-119924000D02*
X226514751Y-119924000D01*
X52330000Y-118924000D02*
X52880000Y-119474000D01*
X52880000Y-119474000D02*
X131130000Y-119474000D01*
X222280000Y-128989251D02*
X220980001Y-130289250D01*
X186210000Y-127644000D02*
X186210000Y-119384000D01*
X136980000Y-118624000D02*
X137110000Y-118754000D01*
X131130000Y-119474000D02*
X131980000Y-118624000D01*
X140030000Y-129289251D02*
X139030001Y-130289250D01*
X186240000Y-127674000D02*
X186210000Y-127644000D01*
X186240000Y-128574000D02*
X184524750Y-130289250D01*
X187880000Y-118754000D02*
X188720000Y-119594000D01*
X220880000Y-119924000D02*
X222280000Y-121324000D01*
X222280000Y-121324000D02*
X222280000Y-128989251D01*
X140030000Y-121674000D02*
X140030000Y-129289251D01*
X185580000Y-118754000D02*
X187880000Y-118754000D01*
X186240000Y-127674000D02*
X186240000Y-128574000D01*
X188720000Y-119594000D02*
X220550000Y-119594000D01*
X184524750Y-130289250D02*
X183830001Y-130289250D01*
X137110000Y-118754000D02*
X185580000Y-118754000D01*
X136930000Y-118624000D02*
X136980000Y-118624000D01*
X185580000Y-118754000D02*
X186210000Y-119384000D01*
X226514751Y-119924000D02*
X227564750Y-118874001D01*
X131980000Y-118624000D02*
X136930000Y-118624000D01*
X136980000Y-118624000D02*
X140030000Y-121674000D01*
X44580000Y-118924000D02*
X52330000Y-118924000D01*
X44580000Y-119424000D02*
X52030000Y-119424000D01*
X139030001Y-121574001D02*
X139030001Y-127558750D01*
X178570000Y-119534000D02*
X179580000Y-120544000D01*
X220490000Y-120554000D02*
X220980001Y-121044001D01*
X52980000Y-120374000D02*
X131080000Y-120374000D01*
X220490000Y-120554000D02*
X220110000Y-120174000D01*
X132360000Y-119094000D02*
X136550000Y-119094000D01*
X179860000Y-119384000D02*
X179710000Y-119534000D01*
X183830001Y-126274001D02*
X183830001Y-127558750D01*
X52030000Y-119424000D02*
X52980000Y-120374000D01*
X188260000Y-120174000D02*
X187485000Y-119399000D01*
X136550000Y-119094000D02*
X139030001Y-121574001D01*
X229145251Y-120024000D02*
X230295250Y-118874001D01*
X220980001Y-121044001D02*
X220980001Y-127558750D01*
X220110000Y-120174000D02*
X188260000Y-120174000D01*
X144490000Y-119534000D02*
X144485000Y-119529000D01*
X179580000Y-122024000D02*
X183830001Y-126274001D01*
X179580000Y-120544000D02*
X179580000Y-122024000D01*
X227490000Y-120024000D02*
X229145251Y-120024000D01*
X179710000Y-119534000D02*
X144490000Y-119534000D01*
X131080000Y-120374000D02*
X132360000Y-119094000D01*
X221950000Y-114124000D02*
X221950000Y-106528749D01*
X52580000Y-116924000D02*
X53130000Y-116374000D01*
X185530000Y-107258749D02*
X183830001Y-105558750D01*
X136480000Y-117424000D02*
X136530000Y-117424000D01*
X132280000Y-117424000D02*
X136480000Y-117424000D01*
X136480000Y-117424000D02*
X187390000Y-117424000D01*
X53130000Y-116374000D02*
X131230000Y-116374000D01*
X219760000Y-116314000D02*
X221950000Y-114124000D01*
X139830000Y-114124000D02*
X139830000Y-106358749D01*
X44580000Y-116924000D02*
X52580000Y-116924000D01*
X185530000Y-108424000D02*
X185530000Y-107258749D01*
X221950000Y-106528749D02*
X220980001Y-105558750D01*
X188500000Y-116314000D02*
X219760000Y-116314000D01*
X187390000Y-117424000D02*
X188500000Y-116314000D01*
X131230000Y-116374000D02*
X132280000Y-117424000D01*
X139830000Y-106358749D02*
X139030001Y-105558750D01*
X136530000Y-117424000D02*
X139830000Y-114124000D01*
X182230000Y-116874000D02*
X187120000Y-116874000D01*
X52880000Y-115574000D02*
X131180000Y-115574000D01*
X44580000Y-116424000D02*
X52030000Y-116424000D01*
X131180000Y-115574000D02*
X132430000Y-116824000D01*
X182880000Y-116224000D02*
X182880000Y-111674000D01*
X187120000Y-116874000D02*
X188200000Y-115794000D01*
X219460000Y-115794000D02*
X220980001Y-114273999D01*
X188200000Y-115794000D02*
X219460000Y-115794000D01*
X138530000Y-116774000D02*
X138630000Y-116874000D01*
X136130000Y-116824000D02*
X139030001Y-113923999D01*
X183830001Y-110723999D02*
X183830001Y-108289250D01*
X182230000Y-116874000D02*
X182880000Y-116224000D01*
X132430000Y-116824000D02*
X136130000Y-116824000D01*
X182880000Y-111674000D02*
X183830001Y-110723999D01*
X220980001Y-114273999D02*
X220980001Y-108289250D01*
X52030000Y-116424000D02*
X52880000Y-115574000D01*
X138630000Y-116874000D02*
X182230000Y-116874000D01*
X139030001Y-113923999D02*
X139030001Y-108289250D01*
X228590000Y-117924000D02*
X229540001Y-116973999D01*
X229540001Y-116973999D02*
X230295250Y-116973999D01*
X230295250Y-116973999D02*
X230295250Y-117924000D01*
X44580000Y-117924000D02*
X59503725Y-117924000D01*
X227564750Y-117924000D02*
X228590000Y-117924000D01*
X229497500Y-115574000D02*
X229497500Y-116176249D01*
X229497500Y-116176249D02*
X230295250Y-116973999D01*
X133497499Y-129491499D02*
X134530001Y-129491499D01*
X53080000Y-118774000D02*
X52730000Y-118424000D01*
X130930000Y-118774000D02*
X53080000Y-118774000D01*
X52730000Y-118424000D02*
X44580000Y-118424000D01*
X136332248Y-129491499D02*
X137129999Y-130289250D01*
X133205000Y-129199000D02*
X133497499Y-129491499D01*
X134530001Y-129491499D02*
X136332248Y-129491499D01*
G04 #@! TA.AperFunction,Conductor*
G36*
X143806460Y-119298407D02*
G01*
X143842424Y-119347907D01*
X143846547Y-119390433D01*
X143829722Y-119528998D01*
X143829722Y-119529001D01*
X143848762Y-119685816D01*
X143848763Y-119685818D01*
X143874204Y-119752900D01*
X143904780Y-119833523D01*
X143994515Y-119963528D01*
X143994516Y-119963529D01*
X143994517Y-119963530D01*
X144112760Y-120068283D01*
X144252635Y-120141696D01*
X144406015Y-120179500D01*
X144406018Y-120179500D01*
X144563982Y-120179500D01*
X144563985Y-120179500D01*
X144717365Y-120141696D01*
X144852368Y-120070839D01*
X144898376Y-120059500D01*
X178311322Y-120059500D01*
X178369513Y-120078407D01*
X178381326Y-120088496D01*
X178537894Y-120245064D01*
X178565671Y-120299581D01*
X178556100Y-120360013D01*
X178537893Y-120385072D01*
X178432397Y-120490567D01*
X178431207Y-120489377D01*
X178387490Y-120519423D01*
X178359373Y-120523500D01*
X144395617Y-120523500D01*
X144337426Y-120504593D01*
X144322814Y-120490359D01*
X144322599Y-120490575D01*
X144266795Y-120434771D01*
X144215517Y-120383492D01*
X144096250Y-120314632D01*
X144089991Y-120311018D01*
X144089990Y-120311017D01*
X144089989Y-120311017D01*
X143977398Y-120280848D01*
X143949976Y-120273500D01*
X143805029Y-120273500D01*
X143665027Y-120311010D01*
X143665017Y-120311015D01*
X143539491Y-120383484D01*
X143436997Y-120485977D01*
X143364517Y-120611510D01*
X143364516Y-120611513D01*
X143327002Y-120751511D01*
X143327001Y-120751514D01*
X143326999Y-120896465D01*
X143326999Y-120896468D01*
X143364510Y-121036474D01*
X143364512Y-121036477D01*
X143436981Y-121162004D01*
X143544063Y-121269090D01*
X143542871Y-121270281D01*
X143572914Y-121313987D01*
X143576993Y-121342111D01*
X143576993Y-130774500D01*
X143558086Y-130832691D01*
X143508586Y-130868655D01*
X143477993Y-130873500D01*
X139808901Y-130873500D01*
X139750710Y-130854593D01*
X139714746Y-130805093D01*
X139709901Y-130774500D01*
X139709900Y-130393527D01*
X139728807Y-130335336D01*
X139738890Y-130323529D01*
X140395228Y-129667191D01*
X140441469Y-129624006D01*
X140463679Y-129587480D01*
X140466529Y-129583293D01*
X140492364Y-129549226D01*
X140499257Y-129531747D01*
X140506769Y-129516623D01*
X140516526Y-129500579D01*
X140528061Y-129459406D01*
X140529674Y-129454612D01*
X140545357Y-129414844D01*
X140545358Y-129414842D01*
X140545357Y-129414842D01*
X140545359Y-129414840D01*
X140547280Y-129396142D01*
X140550431Y-129379568D01*
X140555500Y-129361479D01*
X140555500Y-129318728D01*
X140555760Y-129313663D01*
X140558674Y-129285311D01*
X140560131Y-129271141D01*
X140556939Y-129252625D01*
X140555500Y-129235806D01*
X140555500Y-121682984D01*
X140555576Y-121680747D01*
X140557660Y-121619755D01*
X140547538Y-121578221D01*
X140546592Y-121573242D01*
X140545760Y-121567189D01*
X140540771Y-121530889D01*
X140533283Y-121513651D01*
X140527904Y-121497657D01*
X140523457Y-121479405D01*
X140502501Y-121442135D01*
X140500258Y-121437619D01*
X140483219Y-121398391D01*
X140471352Y-121383804D01*
X140461862Y-121369859D01*
X140452658Y-121353489D01*
X140422427Y-121323257D01*
X140419029Y-121319492D01*
X140414550Y-121313987D01*
X140392054Y-121286335D01*
X140392053Y-121286334D01*
X140392052Y-121286333D01*
X140376706Y-121275500D01*
X140363794Y-121264625D01*
X138547673Y-119448504D01*
X138519896Y-119393987D01*
X138529467Y-119333555D01*
X138572732Y-119290290D01*
X138617677Y-119279500D01*
X143748269Y-119279500D01*
X143806460Y-119298407D01*
G37*
G04 #@! TD.AperFunction*
G04 #@! TA.AperFunction,Conductor*
G36*
X136184296Y-119638407D02*
G01*
X136207579Y-119662260D01*
X136214859Y-119672807D01*
X136239515Y-119708528D01*
X136239516Y-119708529D01*
X136239517Y-119708530D01*
X136357760Y-119813283D01*
X136497635Y-119886696D01*
X136606059Y-119913418D01*
X136652367Y-119939536D01*
X138475505Y-121762674D01*
X138503282Y-121817191D01*
X138504501Y-121832678D01*
X138504501Y-126470800D01*
X138485594Y-126528991D01*
X138436094Y-126564955D01*
X138405501Y-126569800D01*
X138330001Y-126569800D01*
X138330000Y-126569801D01*
X138330000Y-128547699D01*
X138330001Y-128547700D01*
X138407224Y-128547700D01*
X138466770Y-128541298D01*
X138466781Y-128541296D01*
X138601487Y-128491054D01*
X138601488Y-128491053D01*
X138635775Y-128465385D01*
X138693689Y-128445646D01*
X138710591Y-128446855D01*
X138719082Y-128448200D01*
X139340919Y-128448199D01*
X139340921Y-128448199D01*
X139340921Y-128448198D01*
X139374905Y-128442816D01*
X139390014Y-128440424D01*
X139450446Y-128449996D01*
X139493710Y-128493261D01*
X139504500Y-128538205D01*
X139504500Y-129030574D01*
X139485593Y-129088765D01*
X139475503Y-129100578D01*
X139205276Y-129370804D01*
X139150760Y-129398581D01*
X139135273Y-129399800D01*
X138719083Y-129399800D01*
X138710586Y-129401146D01*
X138650155Y-129391568D01*
X138635779Y-129382617D01*
X138601485Y-129356944D01*
X138466781Y-129306703D01*
X138466770Y-129306701D01*
X138407224Y-129300300D01*
X138330001Y-129300300D01*
X138330000Y-129300301D01*
X138330000Y-130440250D01*
X138311093Y-130498441D01*
X138261593Y-130534405D01*
X138231000Y-130539250D01*
X137929000Y-130539250D01*
X137870809Y-130520343D01*
X137834845Y-130470843D01*
X137830000Y-130440250D01*
X137830000Y-129300301D01*
X137829999Y-129300300D01*
X137752776Y-129300300D01*
X137693229Y-129306701D01*
X137693218Y-129306703D01*
X137558510Y-129356946D01*
X137524219Y-129382616D01*
X137466304Y-129402352D01*
X137449411Y-129401144D01*
X137440922Y-129399800D01*
X137440918Y-129399800D01*
X137024726Y-129399800D01*
X136966535Y-129380893D01*
X136954723Y-129370804D01*
X136710188Y-129126270D01*
X136667005Y-129080031D01*
X136667003Y-129080030D01*
X136630480Y-129057820D01*
X136626287Y-129054966D01*
X136592221Y-129029133D01*
X136574740Y-129022239D01*
X136559629Y-129014734D01*
X136543573Y-129004971D01*
X136502414Y-128993439D01*
X136497608Y-128991823D01*
X136457837Y-128976140D01*
X136457840Y-128976140D01*
X136445876Y-128974910D01*
X136439140Y-128974217D01*
X136422562Y-128971066D01*
X136404476Y-128965999D01*
X136361726Y-128965999D01*
X136356662Y-128965739D01*
X136322309Y-128962208D01*
X136314138Y-128961368D01*
X136314137Y-128961368D01*
X136295623Y-128964560D01*
X136278804Y-128965999D01*
X135383287Y-128965999D01*
X135325096Y-128947092D01*
X135289132Y-128897592D01*
X135289132Y-128836406D01*
X135290268Y-128833399D01*
X135337077Y-128672281D01*
X135337079Y-128672274D01*
X135340001Y-128635145D01*
X135340001Y-128606500D01*
X135340000Y-128606499D01*
X133720002Y-128606499D01*
X133702856Y-128623644D01*
X133701094Y-128629068D01*
X133651594Y-128665032D01*
X133590408Y-128665032D01*
X133574993Y-128658537D01*
X133437364Y-128586303D01*
X133283987Y-128548500D01*
X133283985Y-128548500D01*
X133126015Y-128548500D01*
X133126012Y-128548500D01*
X132972635Y-128586303D01*
X132832758Y-128659718D01*
X132742642Y-128739553D01*
X132686547Y-128763988D01*
X132626803Y-128750785D01*
X132586230Y-128704986D01*
X132577993Y-128665450D01*
X132577993Y-128106498D01*
X133720001Y-128106498D01*
X133720002Y-128106499D01*
X134280000Y-128106499D01*
X134280001Y-128106498D01*
X134280001Y-127491269D01*
X134280000Y-127491268D01*
X134780001Y-127491268D01*
X134780001Y-128106498D01*
X134780002Y-128106499D01*
X135340000Y-128106499D01*
X135340001Y-128106497D01*
X135340001Y-128095524D01*
X136350598Y-128095524D01*
X136357000Y-128155070D01*
X136357002Y-128155081D01*
X136407245Y-128289788D01*
X136407246Y-128289790D01*
X136493406Y-128404884D01*
X136493414Y-128404892D01*
X136608508Y-128491052D01*
X136608510Y-128491053D01*
X136743217Y-128541296D01*
X136743228Y-128541298D01*
X136802775Y-128547700D01*
X136879998Y-128547700D01*
X136879999Y-128547699D01*
X137379999Y-128547699D01*
X137380000Y-128547700D01*
X137457223Y-128547700D01*
X137516769Y-128541298D01*
X137516773Y-128541297D01*
X137570401Y-128521295D01*
X137631530Y-128518674D01*
X137639596Y-128521295D01*
X137693222Y-128541296D01*
X137693229Y-128541298D01*
X137752776Y-128547700D01*
X137829999Y-128547700D01*
X137830000Y-128547699D01*
X137830000Y-127808750D01*
X137380000Y-127808750D01*
X137379999Y-127808751D01*
X137379999Y-128547699D01*
X136879999Y-128547699D01*
X136879999Y-128547698D01*
X136879999Y-127808750D01*
X136350599Y-127808750D01*
X136350599Y-128095524D01*
X136350598Y-128095524D01*
X135340001Y-128095524D01*
X135340001Y-128077853D01*
X135337079Y-128040723D01*
X135337077Y-128040716D01*
X135290908Y-127881801D01*
X135206666Y-127739355D01*
X135089644Y-127622333D01*
X134947199Y-127538092D01*
X134788279Y-127491920D01*
X134780001Y-127491268D01*
X134280000Y-127491268D01*
X134271722Y-127491920D01*
X134112802Y-127538092D01*
X133970357Y-127622333D01*
X133853335Y-127739355D01*
X133769093Y-127881801D01*
X133722924Y-128040716D01*
X133722922Y-128040723D01*
X133720001Y-128077853D01*
X133720001Y-128106498D01*
X132577993Y-128106498D01*
X132577993Y-127308748D01*
X136350599Y-127308748D01*
X136350600Y-127308750D01*
X136879998Y-127308750D01*
X136879999Y-127308749D01*
X137379999Y-127308749D01*
X137380000Y-127308750D01*
X137829999Y-127308750D01*
X137830000Y-127308749D01*
X137830000Y-126569801D01*
X137829999Y-126569800D01*
X137752776Y-126569800D01*
X137693223Y-126576202D01*
X137639593Y-126596204D01*
X137578464Y-126598823D01*
X137570402Y-126596203D01*
X137516780Y-126576203D01*
X137516769Y-126576201D01*
X137457223Y-126569800D01*
X137380000Y-126569800D01*
X137379999Y-126569801D01*
X137379999Y-127308749D01*
X136879999Y-127308749D01*
X136879999Y-126569801D01*
X136879998Y-126569800D01*
X136802775Y-126569800D01*
X136743228Y-126576201D01*
X136743217Y-126576203D01*
X136608510Y-126626446D01*
X136608508Y-126626447D01*
X136493414Y-126712607D01*
X136493406Y-126712615D01*
X136407246Y-126827709D01*
X136407245Y-126827711D01*
X136357002Y-126962418D01*
X136357000Y-126962429D01*
X136350599Y-127021975D01*
X136350599Y-127308748D01*
X132577993Y-127308748D01*
X132577993Y-121342130D01*
X132596900Y-121283939D01*
X132611134Y-121269326D01*
X132610919Y-121269111D01*
X132615506Y-121264524D01*
X132615508Y-121264523D01*
X132718007Y-121162029D01*
X132790486Y-121036498D01*
X132790493Y-121036474D01*
X132807816Y-120971825D01*
X132828005Y-120896486D01*
X132828008Y-120751534D01*
X132790494Y-120611521D01*
X132790494Y-120611520D01*
X132718021Y-120485989D01*
X132718020Y-120485987D01*
X132615525Y-120383489D01*
X132615522Y-120383487D01*
X132615520Y-120383485D01*
X132489991Y-120311010D01*
X132349984Y-120273494D01*
X132349980Y-120273493D01*
X132205027Y-120273493D01*
X132177577Y-120280848D01*
X132116476Y-120277645D01*
X132068927Y-120239139D01*
X132053092Y-120180038D01*
X132075020Y-120122917D01*
X132081947Y-120115222D01*
X132548673Y-119648495D01*
X132603190Y-119620719D01*
X132618677Y-119619500D01*
X136126105Y-119619500D01*
X136184296Y-119638407D01*
G37*
G04 #@! TD.AperFunction*
G04 #@! TA.AperFunction,Conductor*
G36*
X185379514Y-119298407D02*
G01*
X185391326Y-119308496D01*
X185655503Y-119572672D01*
X185683281Y-119627189D01*
X185684500Y-119642676D01*
X185684500Y-127635015D01*
X185682340Y-127698244D01*
X185682340Y-127698250D01*
X185692458Y-127739766D01*
X185693405Y-127744749D01*
X185699228Y-127787111D01*
X185706303Y-127803397D01*
X185714500Y-127842840D01*
X185714500Y-128315322D01*
X185695593Y-128373513D01*
X185685504Y-128385326D01*
X184543165Y-129527665D01*
X184488648Y-129555442D01*
X184428216Y-129545871D01*
X184403160Y-129527667D01*
X184347743Y-129472250D01*
X184234705Y-129414654D01*
X184234706Y-129414654D01*
X184140923Y-129399800D01*
X183519083Y-129399800D01*
X183510586Y-129401146D01*
X183450155Y-129391568D01*
X183435779Y-129382617D01*
X183401485Y-129356944D01*
X183266781Y-129306703D01*
X183266770Y-129306701D01*
X183207224Y-129300300D01*
X183130000Y-129300300D01*
X183130000Y-130440250D01*
X183111093Y-130498441D01*
X183061593Y-130534405D01*
X183031000Y-130539250D01*
X182729000Y-130539250D01*
X182670809Y-130520343D01*
X182634845Y-130470843D01*
X182630000Y-130440250D01*
X182630000Y-129300301D01*
X182629999Y-129300300D01*
X182552776Y-129300300D01*
X182493229Y-129306701D01*
X182493218Y-129306703D01*
X182358510Y-129356946D01*
X182324219Y-129382616D01*
X182266304Y-129402352D01*
X182249411Y-129401144D01*
X182240922Y-129399800D01*
X182240918Y-129399800D01*
X181824726Y-129399800D01*
X181766535Y-129380893D01*
X181754723Y-129370804D01*
X181510189Y-129126271D01*
X181467006Y-129080032D01*
X181467004Y-129080031D01*
X181453110Y-129071582D01*
X181430478Y-129057819D01*
X181426288Y-129054967D01*
X181392222Y-129029134D01*
X181374741Y-129022240D01*
X181359630Y-129014735D01*
X181343574Y-129004972D01*
X181302415Y-128993440D01*
X181297609Y-128991824D01*
X181257838Y-128976141D01*
X181257841Y-128976141D01*
X181245877Y-128974911D01*
X181239141Y-128974218D01*
X181222563Y-128971067D01*
X181204477Y-128966000D01*
X181161727Y-128966000D01*
X181156663Y-128965740D01*
X181122310Y-128962209D01*
X181114139Y-128961369D01*
X181114138Y-128961369D01*
X181095624Y-128964561D01*
X181078805Y-128966000D01*
X180783286Y-128966000D01*
X180725095Y-128947093D01*
X180689131Y-128897593D01*
X180689131Y-128836407D01*
X180690267Y-128833400D01*
X180737076Y-128672282D01*
X180737078Y-128672275D01*
X180740000Y-128635146D01*
X180740000Y-128606501D01*
X180739999Y-128606500D01*
X179779000Y-128606500D01*
X179720809Y-128587593D01*
X179684845Y-128538093D01*
X179680000Y-128507500D01*
X179680000Y-127491270D01*
X179679999Y-127491269D01*
X180180000Y-127491269D01*
X180180000Y-128106499D01*
X180180001Y-128106500D01*
X180739999Y-128106500D01*
X180740000Y-128106499D01*
X180740000Y-128095524D01*
X181150598Y-128095524D01*
X181157000Y-128155070D01*
X181157002Y-128155081D01*
X181207245Y-128289788D01*
X181207246Y-128289790D01*
X181293406Y-128404884D01*
X181293414Y-128404892D01*
X181408508Y-128491052D01*
X181408510Y-128491053D01*
X181543217Y-128541296D01*
X181543228Y-128541298D01*
X181602775Y-128547700D01*
X181679998Y-128547700D01*
X181679999Y-128547699D01*
X182179999Y-128547699D01*
X182180000Y-128547700D01*
X182257223Y-128547700D01*
X182316769Y-128541298D01*
X182316773Y-128541297D01*
X182370401Y-128521295D01*
X182431530Y-128518674D01*
X182439596Y-128521295D01*
X182493222Y-128541296D01*
X182493229Y-128541298D01*
X182552776Y-128547700D01*
X182629999Y-128547700D01*
X182630000Y-128547699D01*
X182630000Y-127808750D01*
X182180000Y-127808750D01*
X182179999Y-127808751D01*
X182179999Y-128547699D01*
X181679999Y-128547699D01*
X181679999Y-128547698D01*
X181679999Y-127808750D01*
X181150599Y-127808750D01*
X181150599Y-128095524D01*
X181150598Y-128095524D01*
X180740000Y-128095524D01*
X180740000Y-128077854D01*
X180737078Y-128040724D01*
X180737076Y-128040717D01*
X180690907Y-127881802D01*
X180606665Y-127739356D01*
X180489643Y-127622334D01*
X180347198Y-127538093D01*
X180188278Y-127491921D01*
X180180000Y-127491269D01*
X179679999Y-127491269D01*
X179671721Y-127491921D01*
X179512801Y-127538093D01*
X179370356Y-127622334D01*
X179346997Y-127645694D01*
X179292480Y-127673471D01*
X179232048Y-127663900D01*
X179188783Y-127620635D01*
X179177993Y-127575690D01*
X179177993Y-127308748D01*
X181150599Y-127308748D01*
X181150600Y-127308750D01*
X181679998Y-127308750D01*
X181679999Y-127308749D01*
X182179999Y-127308749D01*
X182180000Y-127308750D01*
X182629999Y-127308750D01*
X182630000Y-127308749D01*
X182630000Y-126569801D01*
X182629999Y-126569800D01*
X182552776Y-126569800D01*
X182493223Y-126576202D01*
X182439593Y-126596204D01*
X182378464Y-126598823D01*
X182370402Y-126596203D01*
X182316780Y-126576203D01*
X182316769Y-126576201D01*
X182257223Y-126569800D01*
X182180000Y-126569800D01*
X182179999Y-126569801D01*
X182179999Y-127308749D01*
X181679999Y-127308749D01*
X181679999Y-126569801D01*
X181679998Y-126569800D01*
X181602775Y-126569800D01*
X181543228Y-126576201D01*
X181543217Y-126576203D01*
X181408510Y-126626446D01*
X181408508Y-126626447D01*
X181293414Y-126712607D01*
X181293406Y-126712615D01*
X181207246Y-126827709D01*
X181207245Y-126827711D01*
X181157002Y-126962418D01*
X181157000Y-126962429D01*
X181150599Y-127021975D01*
X181150599Y-127308748D01*
X179177993Y-127308748D01*
X179177993Y-122604170D01*
X179196900Y-122545979D01*
X179246400Y-122510015D01*
X179307586Y-122510015D01*
X179346994Y-122534164D01*
X182677457Y-125864626D01*
X183213627Y-126400796D01*
X183241404Y-126455313D01*
X183231833Y-126515745D01*
X183188568Y-126559010D01*
X183143623Y-126569800D01*
X183130001Y-126569800D01*
X183130000Y-126569801D01*
X183130000Y-128547699D01*
X183130001Y-128547700D01*
X183207224Y-128547700D01*
X183266770Y-128541298D01*
X183266781Y-128541296D01*
X183401487Y-128491054D01*
X183401488Y-128491053D01*
X183435775Y-128465385D01*
X183493689Y-128445646D01*
X183510591Y-128446855D01*
X183519082Y-128448200D01*
X184140919Y-128448199D01*
X184140921Y-128448199D01*
X184140922Y-128448198D01*
X184190013Y-128440424D01*
X184234700Y-128433347D01*
X184234700Y-128433346D01*
X184234705Y-128433346D01*
X184347743Y-128375750D01*
X184437451Y-128286042D01*
X184495047Y-128173004D01*
X184509901Y-128079219D01*
X184509900Y-127038282D01*
X184509900Y-127038281D01*
X184509900Y-127038278D01*
X184509899Y-127038276D01*
X184495048Y-126944500D01*
X184495047Y-126944498D01*
X184495047Y-126944496D01*
X184437451Y-126831458D01*
X184423683Y-126817690D01*
X184384497Y-126778503D01*
X184356720Y-126723986D01*
X184355501Y-126708500D01*
X184355501Y-126282985D01*
X184355577Y-126280748D01*
X184357661Y-126219756D01*
X184347535Y-126178207D01*
X184346595Y-126173259D01*
X184340772Y-126130890D01*
X184333281Y-126113646D01*
X184327904Y-126097655D01*
X184323458Y-126079407D01*
X184302511Y-126042153D01*
X184300254Y-126037610D01*
X184283222Y-125998396D01*
X184283218Y-125998389D01*
X184271363Y-125983818D01*
X184261861Y-125969857D01*
X184252659Y-125953491D01*
X184252658Y-125953489D01*
X184237543Y-125938374D01*
X184222428Y-125923258D01*
X184219030Y-125919493D01*
X184192053Y-125886334D01*
X184176707Y-125875501D01*
X184163795Y-125864626D01*
X180134496Y-121835327D01*
X180106719Y-121780810D01*
X180105500Y-121765323D01*
X180105500Y-120552984D01*
X180105573Y-120550824D01*
X180107660Y-120489755D01*
X180098376Y-120451660D01*
X180097538Y-120448221D01*
X180096592Y-120443248D01*
X180090771Y-120400889D01*
X180083285Y-120383656D01*
X180077904Y-120367654D01*
X180073458Y-120349406D01*
X180052507Y-120312146D01*
X180050250Y-120307603D01*
X180038629Y-120280848D01*
X180033219Y-120268391D01*
X180021358Y-120253813D01*
X180011861Y-120239857D01*
X180010887Y-120238125D01*
X180002658Y-120223489D01*
X179984260Y-120205091D01*
X179972427Y-120193257D01*
X179969029Y-120189492D01*
X179968682Y-120189066D01*
X179957586Y-120175426D01*
X179935530Y-120118354D01*
X179951232Y-120059218D01*
X179998694Y-120020605D01*
X180010670Y-120016831D01*
X180092365Y-119996696D01*
X180232240Y-119923283D01*
X180350483Y-119818530D01*
X180440220Y-119688523D01*
X180496237Y-119540818D01*
X180515278Y-119384000D01*
X180515278Y-119378500D01*
X180534185Y-119320309D01*
X180583685Y-119284345D01*
X180614278Y-119279500D01*
X185321323Y-119279500D01*
X185379514Y-119298407D01*
G37*
G04 #@! TD.AperFunction*
G04 #@! TA.AperFunction,Conductor*
G36*
X219839327Y-120718407D02*
G01*
X219873701Y-120763392D01*
X219887016Y-120798498D01*
X219909780Y-120858523D01*
X219999515Y-120988528D01*
X219999516Y-120988529D01*
X219999517Y-120988530D01*
X220117760Y-121093283D01*
X220257635Y-121166696D01*
X220366059Y-121193418D01*
X220412367Y-121219536D01*
X220425505Y-121232674D01*
X220453282Y-121287191D01*
X220454501Y-121302678D01*
X220454501Y-126470800D01*
X220435594Y-126528991D01*
X220386094Y-126564955D01*
X220355501Y-126569800D01*
X220280000Y-126569800D01*
X220280000Y-128547699D01*
X220280001Y-128547700D01*
X220357224Y-128547700D01*
X220416770Y-128541298D01*
X220416781Y-128541296D01*
X220551487Y-128491054D01*
X220551488Y-128491053D01*
X220585775Y-128465385D01*
X220643689Y-128445646D01*
X220660591Y-128446855D01*
X220669082Y-128448200D01*
X221290919Y-128448199D01*
X221290921Y-128448199D01*
X221290922Y-128448198D01*
X221340013Y-128440424D01*
X221384700Y-128433347D01*
X221384700Y-128433346D01*
X221384705Y-128433346D01*
X221497743Y-128375750D01*
X221585497Y-128287995D01*
X221640011Y-128260219D01*
X221700444Y-128269790D01*
X221743708Y-128313054D01*
X221754499Y-128358000D01*
X221754499Y-128730573D01*
X221735592Y-128788764D01*
X221725503Y-128800577D01*
X221155276Y-129370804D01*
X221100759Y-129398581D01*
X221085272Y-129399800D01*
X220669083Y-129399800D01*
X220660586Y-129401146D01*
X220600155Y-129391568D01*
X220585779Y-129382617D01*
X220551485Y-129356944D01*
X220416781Y-129306703D01*
X220416770Y-129306701D01*
X220357224Y-129300300D01*
X220280001Y-129300300D01*
X220280000Y-129300301D01*
X220280000Y-130440250D01*
X220261093Y-130498441D01*
X220211593Y-130534405D01*
X220181000Y-130539250D01*
X219879000Y-130539250D01*
X219820809Y-130520343D01*
X219784845Y-130470843D01*
X219780000Y-130440250D01*
X219780000Y-129300301D01*
X219779999Y-129300300D01*
X219702776Y-129300300D01*
X219643229Y-129306701D01*
X219643218Y-129306703D01*
X219508510Y-129356946D01*
X219474219Y-129382616D01*
X219416304Y-129402352D01*
X219399411Y-129401144D01*
X219390922Y-129399800D01*
X219390918Y-129399800D01*
X219389977Y-129399800D01*
X219389674Y-129399701D01*
X219387045Y-129399495D01*
X219387094Y-129398863D01*
X219331786Y-129380893D01*
X219319974Y-129370804D01*
X219075440Y-129126271D01*
X219032257Y-129080032D01*
X219032255Y-129080031D01*
X219018361Y-129071582D01*
X218995729Y-129057819D01*
X218991539Y-129054967D01*
X218957473Y-129029134D01*
X218939992Y-129022240D01*
X218924881Y-129014735D01*
X218908825Y-129004972D01*
X218867666Y-128993440D01*
X218862860Y-128991824D01*
X218823089Y-128976141D01*
X218823092Y-128976141D01*
X218811128Y-128974911D01*
X218804392Y-128974218D01*
X218787814Y-128971067D01*
X218769728Y-128966000D01*
X218726978Y-128966000D01*
X218721914Y-128965740D01*
X218687561Y-128962209D01*
X218679390Y-128961369D01*
X218679389Y-128961369D01*
X218660875Y-128964561D01*
X218644056Y-128966000D01*
X218508286Y-128966000D01*
X218450095Y-128947093D01*
X218414131Y-128897593D01*
X218414131Y-128836407D01*
X218415267Y-128833400D01*
X218462076Y-128672282D01*
X218462078Y-128672275D01*
X218465000Y-128635146D01*
X218465000Y-128598762D01*
X218483907Y-128540571D01*
X218533407Y-128504607D01*
X218594593Y-128504607D01*
X218598597Y-128506004D01*
X218693220Y-128541296D01*
X218693228Y-128541298D01*
X218752775Y-128547700D01*
X218829998Y-128547700D01*
X218829999Y-128547699D01*
X218829999Y-127808750D01*
X219329999Y-127808750D01*
X219329999Y-128547699D01*
X219330000Y-128547700D01*
X219407223Y-128547700D01*
X219466769Y-128541298D01*
X219466773Y-128541297D01*
X219520401Y-128521295D01*
X219581530Y-128518674D01*
X219589596Y-128521295D01*
X219643222Y-128541296D01*
X219643229Y-128541298D01*
X219702776Y-128547700D01*
X219779999Y-128547700D01*
X219780000Y-128547699D01*
X219780000Y-127808751D01*
X219779999Y-127808750D01*
X219329999Y-127808750D01*
X218829999Y-127808750D01*
X218359598Y-127808750D01*
X218301407Y-127789843D01*
X218265443Y-127740343D01*
X218260598Y-127709750D01*
X218260598Y-127668289D01*
X218214643Y-127622334D01*
X218072198Y-127538093D01*
X217913278Y-127491921D01*
X217905000Y-127491269D01*
X217905000Y-128507500D01*
X217886093Y-128565691D01*
X217836593Y-128601655D01*
X217806000Y-128606500D01*
X217504000Y-128606500D01*
X217445809Y-128587593D01*
X217409845Y-128538093D01*
X217405000Y-128507500D01*
X217405000Y-127491270D01*
X217404999Y-127491269D01*
X217396720Y-127491922D01*
X217304613Y-127518682D01*
X217243458Y-127516760D01*
X217195112Y-127479260D01*
X217177993Y-127423613D01*
X217177993Y-127308748D01*
X218300599Y-127308748D01*
X218300600Y-127308750D01*
X218829998Y-127308750D01*
X218829999Y-127308749D01*
X219329999Y-127308749D01*
X219330000Y-127308750D01*
X219779999Y-127308750D01*
X219780000Y-127308749D01*
X219780000Y-126569801D01*
X219779999Y-126569800D01*
X219702776Y-126569800D01*
X219643223Y-126576202D01*
X219589593Y-126596204D01*
X219528464Y-126598823D01*
X219520402Y-126596203D01*
X219466780Y-126576203D01*
X219466769Y-126576201D01*
X219407223Y-126569800D01*
X219330000Y-126569800D01*
X219329999Y-126569801D01*
X219329999Y-127308749D01*
X218829999Y-127308749D01*
X218829999Y-126569800D01*
X218752775Y-126569800D01*
X218693228Y-126576201D01*
X218693217Y-126576203D01*
X218558510Y-126626446D01*
X218558508Y-126626447D01*
X218443414Y-126712607D01*
X218443406Y-126712615D01*
X218357246Y-126827709D01*
X218357245Y-126827711D01*
X218307002Y-126962418D01*
X218307000Y-126962429D01*
X218300599Y-127021975D01*
X218300599Y-127308748D01*
X217177993Y-127308748D01*
X217177993Y-121342130D01*
X217196900Y-121283939D01*
X217211134Y-121269326D01*
X217210919Y-121269111D01*
X217215506Y-121264524D01*
X217215508Y-121264523D01*
X217318007Y-121162029D01*
X217390486Y-121036498D01*
X217390493Y-121036474D01*
X217407816Y-120971825D01*
X217428005Y-120896486D01*
X217428007Y-120798497D01*
X217446915Y-120740308D01*
X217496416Y-120704345D01*
X217527007Y-120699500D01*
X219781136Y-120699500D01*
X219839327Y-120718407D01*
G37*
G04 #@! TD.AperFunction*
G04 #@! TA.AperFunction,Conductor*
G36*
X222836184Y-104993407D02*
G01*
X222872148Y-105042907D01*
X222876993Y-105073500D01*
X222876993Y-114505896D01*
X222858086Y-114564087D01*
X222843852Y-114578698D01*
X222844068Y-114578914D01*
X222736987Y-114685997D01*
X222664519Y-114811523D01*
X222664517Y-114811526D01*
X222627005Y-114951534D01*
X222627005Y-114951535D01*
X222627006Y-115096482D01*
X222627007Y-115096485D01*
X222664521Y-115236483D01*
X222664523Y-115236488D01*
X222664524Y-115236490D01*
X222737000Y-115362017D01*
X222839494Y-115464509D01*
X222871522Y-115483000D01*
X222965018Y-115536979D01*
X222965019Y-115536979D01*
X222965022Y-115536981D01*
X222965025Y-115536981D01*
X222965028Y-115536983D01*
X223004483Y-115547553D01*
X223105031Y-115574494D01*
X223249978Y-115574493D01*
X223389986Y-115536977D01*
X223515513Y-115464503D01*
X223618006Y-115362010D01*
X223618007Y-115362007D01*
X223622594Y-115357421D01*
X223623786Y-115358613D01*
X223667496Y-115328576D01*
X223695610Y-115324500D01*
X226287323Y-115324500D01*
X226345514Y-115343407D01*
X226381478Y-115392907D01*
X226381478Y-115454093D01*
X226357327Y-115493504D01*
X225574771Y-116276058D01*
X225528530Y-116319245D01*
X225506318Y-116355770D01*
X225503466Y-116359960D01*
X225477636Y-116394024D01*
X225470741Y-116411506D01*
X225463237Y-116426614D01*
X225453476Y-116442667D01*
X225453474Y-116442671D01*
X225447999Y-116462211D01*
X225434147Y-116491734D01*
X225359783Y-116599470D01*
X225359780Y-116599476D01*
X225303763Y-116747182D01*
X225303762Y-116747183D01*
X225284722Y-116903998D01*
X225284722Y-116904001D01*
X225303762Y-117060816D01*
X225303763Y-117060817D01*
X225359780Y-117208523D01*
X225449515Y-117338528D01*
X225449516Y-117338529D01*
X225449517Y-117338530D01*
X225567760Y-117443283D01*
X225707635Y-117516696D01*
X225861015Y-117554500D01*
X225861018Y-117554500D01*
X226018982Y-117554500D01*
X226018985Y-117554500D01*
X226172365Y-117516696D01*
X226312240Y-117443283D01*
X226430483Y-117338530D01*
X226494826Y-117245312D01*
X226543440Y-117208164D01*
X226604607Y-117206684D01*
X226654962Y-117241441D01*
X226675271Y-117299157D01*
X226675300Y-117301550D01*
X226675300Y-117384919D01*
X226676645Y-117393409D01*
X226667070Y-117453840D01*
X226658118Y-117468217D01*
X226632445Y-117502512D01*
X226582203Y-117637218D01*
X226582201Y-117637229D01*
X226575800Y-117696775D01*
X226575800Y-117773998D01*
X226575801Y-117774000D01*
X228553699Y-117774000D01*
X228553700Y-117773998D01*
X228553700Y-117696775D01*
X228547298Y-117637229D01*
X228547296Y-117637218D01*
X228497054Y-117502512D01*
X228471384Y-117468223D01*
X228451646Y-117410309D01*
X228452296Y-117401223D01*
X229306299Y-117401223D01*
X229312701Y-117460769D01*
X229312703Y-117460780D01*
X229332703Y-117514402D01*
X229335323Y-117575532D01*
X229332704Y-117583593D01*
X229312702Y-117637223D01*
X229306300Y-117696775D01*
X229306300Y-117773999D01*
X229306301Y-117774000D01*
X230045249Y-117774000D01*
X230045250Y-117773999D01*
X230045250Y-117324000D01*
X230045249Y-117323999D01*
X229306300Y-117323999D01*
X229306300Y-117401223D01*
X229306299Y-117401223D01*
X228452296Y-117401223D01*
X228452855Y-117393409D01*
X228454200Y-117384918D01*
X228454199Y-116868724D01*
X228473106Y-116810534D01*
X228483183Y-116798734D01*
X228737728Y-116544189D01*
X228783969Y-116501004D01*
X228806179Y-116464478D01*
X228809029Y-116460291D01*
X228834864Y-116426224D01*
X228839727Y-116413890D01*
X228878662Y-116366693D01*
X228937904Y-116351394D01*
X228982222Y-116364994D01*
X229032801Y-116394907D01*
X229191717Y-116441076D01*
X229191724Y-116441078D01*
X229228854Y-116444000D01*
X229260832Y-116444000D01*
X229319023Y-116462907D01*
X229354987Y-116512407D01*
X229354987Y-116573593D01*
X229353590Y-116577596D01*
X229312703Y-116687217D01*
X229312701Y-116687228D01*
X229306300Y-116746774D01*
X229306300Y-116823998D01*
X229306301Y-116823999D01*
X230045249Y-116823999D01*
X230045250Y-116823997D01*
X230045250Y-116353599D01*
X230064157Y-116295408D01*
X230113657Y-116259444D01*
X230144250Y-116254599D01*
X230180710Y-116254599D01*
X230241665Y-116193643D01*
X230325906Y-116051198D01*
X230372078Y-115892278D01*
X230372730Y-115884000D01*
X229356500Y-115884000D01*
X229298309Y-115865093D01*
X229262345Y-115815593D01*
X229257500Y-115785000D01*
X229257500Y-115483000D01*
X229276407Y-115424809D01*
X229325907Y-115388845D01*
X229356500Y-115384000D01*
X230372730Y-115384000D01*
X230398333Y-115356301D01*
X230451716Y-115326403D01*
X230471033Y-115324500D01*
X230777993Y-115324500D01*
X230836184Y-115343407D01*
X230872148Y-115392907D01*
X230876993Y-115423500D01*
X230876993Y-116195599D01*
X230858086Y-116253790D01*
X230808586Y-116289754D01*
X230777993Y-116294599D01*
X230545251Y-116294599D01*
X230545250Y-116294600D01*
X230545250Y-118175000D01*
X230526343Y-118233191D01*
X230476843Y-118269155D01*
X230446250Y-118274000D01*
X229306300Y-118274000D01*
X229306300Y-118351224D01*
X229306299Y-118351224D01*
X229312701Y-118410770D01*
X229312703Y-118410781D01*
X229362945Y-118545487D01*
X229388615Y-118579777D01*
X229408352Y-118637692D01*
X229407144Y-118654585D01*
X229405800Y-118663072D01*
X229405800Y-118979274D01*
X229386893Y-119037465D01*
X229376804Y-119049277D01*
X228956579Y-119469503D01*
X228902062Y-119497281D01*
X228886575Y-119498500D01*
X228536286Y-119498500D01*
X228478095Y-119479593D01*
X228442131Y-119430093D01*
X228438505Y-119384012D01*
X228440803Y-119369503D01*
X228454200Y-119284920D01*
X228454199Y-118663083D01*
X228454197Y-118663072D01*
X228452855Y-118654596D01*
X228462426Y-118594164D01*
X228471383Y-118579778D01*
X228497055Y-118545484D01*
X228547296Y-118410781D01*
X228547298Y-118410770D01*
X228553700Y-118351224D01*
X228553700Y-118274001D01*
X228553699Y-118274000D01*
X226575801Y-118274000D01*
X226575800Y-118274001D01*
X226575800Y-118351224D01*
X226575799Y-118351224D01*
X226582201Y-118410770D01*
X226582203Y-118410781D01*
X226632445Y-118545487D01*
X226658115Y-118579777D01*
X226677852Y-118637692D01*
X226676644Y-118654585D01*
X226675300Y-118663072D01*
X226675300Y-118979273D01*
X226656393Y-119037464D01*
X226646304Y-119049276D01*
X226563947Y-119131634D01*
X226397175Y-119298407D01*
X226326079Y-119369503D01*
X226271562Y-119397281D01*
X226256075Y-119398500D01*
X221138677Y-119398500D01*
X221080486Y-119379593D01*
X221068674Y-119369504D01*
X220927940Y-119228771D01*
X220884757Y-119182532D01*
X220884755Y-119182531D01*
X220848232Y-119160321D01*
X220844039Y-119157467D01*
X220809973Y-119131634D01*
X220792492Y-119124740D01*
X220777381Y-119117235D01*
X220761325Y-119107472D01*
X220720166Y-119095940D01*
X220715360Y-119094324D01*
X220675589Y-119078641D01*
X220675592Y-119078641D01*
X220663628Y-119077411D01*
X220656892Y-119076718D01*
X220640314Y-119073567D01*
X220622228Y-119068500D01*
X220579478Y-119068500D01*
X220574414Y-119068240D01*
X220540061Y-119064709D01*
X220531890Y-119063869D01*
X220531889Y-119063869D01*
X220513375Y-119067061D01*
X220496556Y-119068500D01*
X188978677Y-119068500D01*
X188920486Y-119049593D01*
X188908673Y-119039504D01*
X188527673Y-118658504D01*
X188499896Y-118603987D01*
X188509467Y-118543555D01*
X188552732Y-118500290D01*
X188597677Y-118489500D01*
X215570519Y-118489500D01*
X215605624Y-118495933D01*
X215607629Y-118496693D01*
X215607635Y-118496696D01*
X215761015Y-118534500D01*
X215761018Y-118534500D01*
X215918982Y-118534500D01*
X215918985Y-118534500D01*
X216072365Y-118496696D01*
X216212240Y-118423283D01*
X216330483Y-118318530D01*
X216420220Y-118188523D01*
X216476237Y-118040818D01*
X216495278Y-117884000D01*
X216494454Y-117877217D01*
X216476237Y-117727183D01*
X216476237Y-117727182D01*
X216420220Y-117579477D01*
X216338282Y-117460769D01*
X216330484Y-117449471D01*
X216267203Y-117393409D01*
X216212240Y-117344717D01*
X216125434Y-117299157D01*
X216072364Y-117271303D01*
X215918987Y-117233500D01*
X215918985Y-117233500D01*
X215761015Y-117233500D01*
X215761012Y-117233500D01*
X215607635Y-117271303D01*
X215467758Y-117344718D01*
X215390003Y-117413603D01*
X215333909Y-117438038D01*
X215324354Y-117438500D01*
X188357678Y-117438500D01*
X188299487Y-117419593D01*
X188263523Y-117370093D01*
X188263523Y-117308907D01*
X188287674Y-117269497D01*
X188688673Y-116868497D01*
X188743190Y-116840719D01*
X188758677Y-116839500D01*
X219751015Y-116839500D01*
X219753251Y-116839576D01*
X219814245Y-116841660D01*
X219855777Y-116831538D01*
X219860740Y-116830594D01*
X219903111Y-116824771D01*
X219920355Y-116817280D01*
X219936343Y-116811904D01*
X219954594Y-116807457D01*
X219991855Y-116786505D01*
X219996385Y-116784255D01*
X220035609Y-116767219D01*
X220050184Y-116755360D01*
X220064136Y-116745864D01*
X220080512Y-116736658D01*
X220110749Y-116706419D01*
X220114493Y-116703040D01*
X220147665Y-116676054D01*
X220158499Y-116660704D01*
X220169363Y-116647805D01*
X222315243Y-114501926D01*
X222361469Y-114458755D01*
X222383684Y-114422221D01*
X222386520Y-114418054D01*
X222412365Y-114383975D01*
X222419260Y-114366488D01*
X222426766Y-114351375D01*
X222436526Y-114335328D01*
X222448060Y-114294158D01*
X222449673Y-114289363D01*
X222465358Y-114249591D01*
X222465357Y-114249591D01*
X222465359Y-114249589D01*
X222467280Y-114230890D01*
X222470430Y-114214317D01*
X222475500Y-114196228D01*
X222475500Y-114153485D01*
X222475760Y-114148420D01*
X222476662Y-114139641D01*
X222480132Y-114105890D01*
X222476939Y-114087376D01*
X222475500Y-114070555D01*
X222475500Y-106537733D01*
X222475926Y-106525255D01*
X222477660Y-106474504D01*
X222467534Y-106432955D01*
X222466594Y-106428007D01*
X222460771Y-106385638D01*
X222453280Y-106368394D01*
X222447903Y-106352403D01*
X222443457Y-106334155D01*
X222422509Y-106296899D01*
X222420252Y-106292356D01*
X222403219Y-106253140D01*
X222391363Y-106238568D01*
X222381862Y-106224607D01*
X222372660Y-106208239D01*
X222342422Y-106178000D01*
X222339024Y-106174235D01*
X222330822Y-106164154D01*
X222312054Y-106141084D01*
X222312053Y-106141083D01*
X222312052Y-106141082D01*
X222296709Y-106130251D01*
X222283797Y-106119376D01*
X221688896Y-105524475D01*
X221661119Y-105469958D01*
X221659900Y-105454471D01*
X221659900Y-105073500D01*
X221678807Y-105015309D01*
X221728307Y-104979345D01*
X221758900Y-104974500D01*
X222777993Y-104974500D01*
X222836184Y-104993407D01*
G37*
G04 #@! TD.AperFunction*
G04 #@! TA.AperFunction,Conductor*
G36*
X128653106Y-117560840D02*
G01*
X128657759Y-117563282D01*
X128657760Y-117563283D01*
X128797635Y-117636696D01*
X128951015Y-117674500D01*
X128951018Y-117674500D01*
X129108982Y-117674500D01*
X129108985Y-117674500D01*
X129262365Y-117636696D01*
X129402240Y-117563283D01*
X129402241Y-117563282D01*
X129406894Y-117560840D01*
X129452902Y-117549500D01*
X130321322Y-117549500D01*
X130379513Y-117568407D01*
X130391325Y-117578496D01*
X130795339Y-117982509D01*
X130823117Y-118037026D01*
X130813546Y-118097458D01*
X130770281Y-118140723D01*
X130749029Y-118148636D01*
X130697634Y-118161304D01*
X130697635Y-118161304D01*
X130557760Y-118234717D01*
X130557759Y-118234717D01*
X130553106Y-118237160D01*
X130507098Y-118248500D01*
X53338677Y-118248500D01*
X53280486Y-118229593D01*
X53268674Y-118219504D01*
X53131877Y-118082708D01*
X53104099Y-118028191D01*
X53113670Y-117967759D01*
X53156935Y-117924495D01*
X53168412Y-117920239D01*
X53168295Y-117919941D01*
X53174587Y-117917458D01*
X53174594Y-117917457D01*
X53211855Y-117896505D01*
X53216385Y-117894255D01*
X53255609Y-117877219D01*
X53270184Y-117865360D01*
X53284136Y-117855864D01*
X53300512Y-117846658D01*
X53330748Y-117816420D01*
X53334492Y-117813041D01*
X53367665Y-117786054D01*
X53378500Y-117770702D01*
X53389372Y-117757797D01*
X53468674Y-117678496D01*
X53523191Y-117650719D01*
X53538677Y-117649500D01*
X60521015Y-117649500D01*
X60523251Y-117649576D01*
X60584245Y-117651660D01*
X60625777Y-117641538D01*
X60630740Y-117640594D01*
X60673111Y-117634771D01*
X60690355Y-117627280D01*
X60706343Y-117621904D01*
X60724594Y-117617457D01*
X60761855Y-117596505D01*
X60766385Y-117594255D01*
X60805609Y-117577219D01*
X60805614Y-117577215D01*
X60812384Y-117571707D01*
X60869454Y-117549648D01*
X60874864Y-117549500D01*
X128607098Y-117549500D01*
X128653106Y-117560840D01*
G37*
G04 #@! TD.AperFunction*
G04 #@! TA.AperFunction,Conductor*
G36*
X143536184Y-104993407D02*
G01*
X143572148Y-105042907D01*
X143576993Y-105073500D01*
X143576993Y-114505895D01*
X143558086Y-114564086D01*
X143543850Y-114578698D01*
X143544066Y-114578914D01*
X143436988Y-114685998D01*
X143364516Y-114811527D01*
X143327005Y-114951536D01*
X143327005Y-114951539D01*
X143327006Y-115096484D01*
X143327006Y-115096485D01*
X143364523Y-115236488D01*
X143437001Y-115362020D01*
X143539487Y-115464501D01*
X143539495Y-115464509D01*
X143665023Y-115536981D01*
X143665025Y-115536981D01*
X143665026Y-115536982D01*
X143683785Y-115542008D01*
X143805032Y-115574495D01*
X143949979Y-115574493D01*
X144089986Y-115536977D01*
X144215504Y-115464509D01*
X144215509Y-115464506D01*
X144215509Y-115464505D01*
X144215514Y-115464503D01*
X144318006Y-115362009D01*
X144318007Y-115362008D01*
X144322594Y-115357421D01*
X144323787Y-115358614D01*
X144367492Y-115328577D01*
X144395609Y-115324500D01*
X178359383Y-115324500D01*
X178417574Y-115343407D01*
X178432187Y-115357643D01*
X178432403Y-115357428D01*
X178529070Y-115454093D01*
X178539488Y-115464511D01*
X178665019Y-115536986D01*
X178665021Y-115536986D01*
X178665022Y-115536987D01*
X178665024Y-115536988D01*
X178720705Y-115551906D01*
X178805030Y-115574500D01*
X178949980Y-115574499D01*
X179089969Y-115536988D01*
X179089984Y-115536984D01*
X179089984Y-115536983D01*
X179089991Y-115536982D01*
X179215521Y-115464505D01*
X179318014Y-115362008D01*
X179319974Y-115358614D01*
X179372000Y-115268500D01*
X179390488Y-115236477D01*
X179428001Y-115096465D01*
X179427998Y-114951515D01*
X179390480Y-114811504D01*
X179318002Y-114685975D01*
X179215504Y-114583482D01*
X179210916Y-114578894D01*
X179212108Y-114577701D01*
X179182069Y-114533991D01*
X179177993Y-114505877D01*
X179177993Y-108461426D01*
X179196900Y-108403235D01*
X179246400Y-108367271D01*
X179307586Y-108367271D01*
X179322993Y-108373763D01*
X179347635Y-108386696D01*
X179501015Y-108424500D01*
X179501018Y-108424500D01*
X179658982Y-108424500D01*
X179658985Y-108424500D01*
X179812365Y-108386696D01*
X179952240Y-108313283D01*
X179984845Y-108284397D01*
X180040940Y-108259962D01*
X180050495Y-108259500D01*
X180128490Y-108259500D01*
X180128492Y-108259500D01*
X180217759Y-108248780D01*
X180359816Y-108192760D01*
X180481491Y-108100491D01*
X180515092Y-108056180D01*
X180565318Y-108021238D01*
X180593976Y-108017000D01*
X180873572Y-108017000D01*
X180931763Y-108035907D01*
X180943575Y-108045996D01*
X181221102Y-108323522D01*
X181248880Y-108378039D01*
X181250099Y-108393526D01*
X181250099Y-108809720D01*
X181250100Y-108809723D01*
X181264951Y-108903499D01*
X181264953Y-108903504D01*
X181322549Y-109016542D01*
X181412257Y-109106250D01*
X181525295Y-109163846D01*
X181619080Y-109178700D01*
X182240917Y-109178699D01*
X182249402Y-109177355D01*
X182309834Y-109186925D01*
X182324220Y-109195883D01*
X182358512Y-109221554D01*
X182493218Y-109271796D01*
X182493229Y-109271798D01*
X182552776Y-109278200D01*
X182629999Y-109278200D01*
X182630000Y-109278199D01*
X182630000Y-107300301D01*
X182629999Y-107300300D01*
X182552776Y-107300300D01*
X182493229Y-107306701D01*
X182493218Y-107306703D01*
X182358510Y-107356946D01*
X182324219Y-107382616D01*
X182266304Y-107402352D01*
X182249411Y-107401144D01*
X182240922Y-107399800D01*
X182240918Y-107399800D01*
X181824726Y-107399800D01*
X181766535Y-107380893D01*
X181754723Y-107370804D01*
X181510189Y-107126271D01*
X181467006Y-107080032D01*
X181467004Y-107080031D01*
X181430481Y-107057821D01*
X181426288Y-107054967D01*
X181392222Y-107029134D01*
X181374741Y-107022240D01*
X181359630Y-107014735D01*
X181343574Y-107004972D01*
X181302415Y-106993440D01*
X181297609Y-106991824D01*
X181257838Y-106976141D01*
X181257841Y-106976141D01*
X181245877Y-106974911D01*
X181239141Y-106974218D01*
X181222563Y-106971067D01*
X181204477Y-106966000D01*
X181161727Y-106966000D01*
X181156663Y-106965740D01*
X181120219Y-106961994D01*
X181114139Y-106961369D01*
X181114138Y-106961369D01*
X181095624Y-106964561D01*
X181078805Y-106966000D01*
X180783286Y-106966000D01*
X180725095Y-106947093D01*
X180689131Y-106897593D01*
X180689131Y-106836407D01*
X180690267Y-106833400D01*
X180737076Y-106672282D01*
X180737078Y-106672275D01*
X180740000Y-106635146D01*
X180740000Y-106606501D01*
X180739999Y-106606500D01*
X179779000Y-106606500D01*
X179720809Y-106587593D01*
X179684845Y-106538093D01*
X179680000Y-106507500D01*
X179680000Y-105491270D01*
X179679999Y-105491269D01*
X180180000Y-105491269D01*
X180180000Y-106106499D01*
X180180001Y-106106500D01*
X180739999Y-106106500D01*
X180740000Y-106106499D01*
X180740000Y-106095524D01*
X181150598Y-106095524D01*
X181157000Y-106155070D01*
X181157002Y-106155081D01*
X181207245Y-106289788D01*
X181207246Y-106289790D01*
X181293406Y-106404884D01*
X181293414Y-106404892D01*
X181408508Y-106491052D01*
X181408510Y-106491053D01*
X181543217Y-106541296D01*
X181543228Y-106541298D01*
X181602775Y-106547700D01*
X181679998Y-106547700D01*
X181679999Y-106547699D01*
X181679999Y-105808750D01*
X182179999Y-105808750D01*
X182179999Y-106547699D01*
X182180000Y-106547700D01*
X182257223Y-106547700D01*
X182316769Y-106541298D01*
X182316773Y-106541297D01*
X182370401Y-106521295D01*
X182431530Y-106518674D01*
X182439596Y-106521295D01*
X182493222Y-106541296D01*
X182493229Y-106541298D01*
X182552776Y-106547700D01*
X182629999Y-106547700D01*
X182630000Y-106547699D01*
X182630000Y-105808750D01*
X182179999Y-105808750D01*
X181679999Y-105808750D01*
X181150600Y-105808750D01*
X181150599Y-105808751D01*
X181150599Y-106095524D01*
X181150598Y-106095524D01*
X180740000Y-106095524D01*
X180740000Y-106077854D01*
X180737078Y-106040724D01*
X180737076Y-106040717D01*
X180690907Y-105881802D01*
X180606665Y-105739356D01*
X180489643Y-105622334D01*
X180347198Y-105538093D01*
X180188278Y-105491921D01*
X180180000Y-105491269D01*
X179679999Y-105491269D01*
X179671721Y-105491921D01*
X179512801Y-105538093D01*
X179370353Y-105622336D01*
X179346995Y-105645694D01*
X179292478Y-105673470D01*
X179232046Y-105663898D01*
X179188783Y-105620632D01*
X179177993Y-105575692D01*
X179177993Y-105073500D01*
X179196901Y-105015309D01*
X179246402Y-104979345D01*
X179276994Y-104974500D01*
X181051599Y-104974500D01*
X181109790Y-104993407D01*
X181145754Y-105042907D01*
X181150599Y-105073500D01*
X181150599Y-105308749D01*
X181150600Y-105308750D01*
X183031000Y-105308750D01*
X183089191Y-105327657D01*
X183125155Y-105377157D01*
X183130000Y-105407750D01*
X183130000Y-106547699D01*
X183130001Y-106547700D01*
X183207224Y-106547700D01*
X183266770Y-106541298D01*
X183266781Y-106541296D01*
X183401487Y-106491054D01*
X183401488Y-106491053D01*
X183435775Y-106465385D01*
X183493689Y-106445646D01*
X183510591Y-106446855D01*
X183519082Y-106448200D01*
X183935272Y-106448199D01*
X183993463Y-106467106D01*
X184005276Y-106477195D01*
X184975504Y-107447423D01*
X185003281Y-107501940D01*
X185004500Y-107517427D01*
X185004500Y-108009351D01*
X184986976Y-108065589D01*
X184949780Y-108119476D01*
X184893763Y-108267182D01*
X184893762Y-108267183D01*
X184874722Y-108423998D01*
X184874722Y-108424001D01*
X184893762Y-108580816D01*
X184893763Y-108580817D01*
X184949780Y-108728523D01*
X185039515Y-108858528D01*
X185039516Y-108858529D01*
X185039517Y-108858530D01*
X185157760Y-108963283D01*
X185297635Y-109036696D01*
X185451015Y-109074500D01*
X185451018Y-109074500D01*
X185608982Y-109074500D01*
X185608985Y-109074500D01*
X185762365Y-109036696D01*
X185902240Y-108963283D01*
X186020483Y-108858530D01*
X186110220Y-108728523D01*
X186166237Y-108580818D01*
X186185217Y-108424500D01*
X186185278Y-108424001D01*
X186185278Y-108423998D01*
X186168327Y-108284397D01*
X186166237Y-108267182D01*
X186110220Y-108119477D01*
X186073024Y-108065589D01*
X186055500Y-108009351D01*
X186055500Y-107267733D01*
X186055806Y-107258771D01*
X186057660Y-107204504D01*
X186047538Y-107162970D01*
X186046592Y-107157997D01*
X186040771Y-107115638D01*
X186033285Y-107098405D01*
X186027904Y-107082403D01*
X186023458Y-107064155D01*
X186002507Y-107026895D01*
X186000250Y-107022352D01*
X186000201Y-107022240D01*
X185983219Y-106983140D01*
X185971358Y-106968562D01*
X185961861Y-106954606D01*
X185957637Y-106947093D01*
X185952658Y-106938238D01*
X185937542Y-106923122D01*
X185922427Y-106908006D01*
X185919029Y-106904241D01*
X185913620Y-106897593D01*
X185892054Y-106871084D01*
X185892053Y-106871083D01*
X185892052Y-106871082D01*
X185876706Y-106860249D01*
X185863794Y-106849374D01*
X184538896Y-105524476D01*
X184511119Y-105469959D01*
X184509900Y-105454472D01*
X184509900Y-105073500D01*
X184528807Y-105015309D01*
X184578307Y-104979345D01*
X184608900Y-104974500D01*
X186477993Y-104974500D01*
X186536184Y-104993407D01*
X186572148Y-105042907D01*
X186576993Y-105073500D01*
X186576993Y-114505897D01*
X186558086Y-114564088D01*
X186543851Y-114578700D01*
X186544067Y-114578916D01*
X186436989Y-114685997D01*
X186364516Y-114811530D01*
X186327006Y-114951536D01*
X186327006Y-114951539D01*
X186327007Y-115096484D01*
X186327007Y-115096485D01*
X186364524Y-115236488D01*
X186435036Y-115358613D01*
X186437001Y-115362017D01*
X186539495Y-115464508D01*
X186665024Y-115536980D01*
X186805032Y-115574494D01*
X186949978Y-115574492D01*
X187089986Y-115536976D01*
X187215513Y-115464502D01*
X187318005Y-115362009D01*
X187318006Y-115362008D01*
X187322593Y-115357421D01*
X187323786Y-115358614D01*
X187367491Y-115328577D01*
X187395608Y-115324500D01*
X187687322Y-115324500D01*
X187745513Y-115343407D01*
X187781477Y-115392907D01*
X187781477Y-115454093D01*
X187757326Y-115493504D01*
X186931327Y-116319504D01*
X186876810Y-116347281D01*
X186861323Y-116348500D01*
X183505170Y-116348500D01*
X183446979Y-116329593D01*
X183411015Y-116280093D01*
X183406689Y-116239376D01*
X183407168Y-116234717D01*
X183410132Y-116205890D01*
X183406939Y-116187376D01*
X183405500Y-116170555D01*
X183405500Y-111932676D01*
X183424407Y-111874485D01*
X183434490Y-111862678D01*
X184195229Y-111101939D01*
X184241470Y-111058754D01*
X184263680Y-111022228D01*
X184266530Y-111018041D01*
X184292365Y-110983974D01*
X184299258Y-110966495D01*
X184306770Y-110951371D01*
X184316527Y-110935327D01*
X184328062Y-110894154D01*
X184329675Y-110889360D01*
X184345358Y-110849592D01*
X184345359Y-110849590D01*
X184345358Y-110849590D01*
X184345360Y-110849588D01*
X184347281Y-110830890D01*
X184350432Y-110814316D01*
X184355501Y-110796227D01*
X184355501Y-110753476D01*
X184355761Y-110748411D01*
X184356505Y-110741165D01*
X184360132Y-110705889D01*
X184356940Y-110687373D01*
X184355501Y-110670554D01*
X184355501Y-109139499D01*
X184374408Y-109081308D01*
X184384491Y-109069501D01*
X184437451Y-109016542D01*
X184495047Y-108903504D01*
X184509901Y-108809719D01*
X184509900Y-107768782D01*
X184509900Y-107768781D01*
X184509900Y-107768778D01*
X184509899Y-107768776D01*
X184495048Y-107675000D01*
X184495047Y-107674998D01*
X184495047Y-107674996D01*
X184437451Y-107561958D01*
X184347743Y-107472250D01*
X184234705Y-107414654D01*
X184234706Y-107414654D01*
X184140923Y-107399800D01*
X183519083Y-107399800D01*
X183510586Y-107401146D01*
X183450155Y-107391568D01*
X183435779Y-107382617D01*
X183401485Y-107356944D01*
X183266781Y-107306703D01*
X183266770Y-107306701D01*
X183207224Y-107300300D01*
X183130001Y-107300300D01*
X183130000Y-107300301D01*
X183130000Y-109278199D01*
X183130001Y-109278200D01*
X183205501Y-109278200D01*
X183263692Y-109297107D01*
X183299656Y-109346607D01*
X183304501Y-109377200D01*
X183304501Y-110465320D01*
X183285594Y-110523511D01*
X183275505Y-110535324D01*
X182514771Y-111296058D01*
X182468530Y-111339245D01*
X182446318Y-111375770D01*
X182443466Y-111379960D01*
X182417636Y-111414024D01*
X182417635Y-111414026D01*
X182410741Y-111431506D01*
X182403237Y-111446615D01*
X182393473Y-111462673D01*
X182381939Y-111503835D01*
X182380323Y-111508641D01*
X182364641Y-111548407D01*
X182364640Y-111548413D01*
X182362718Y-111567103D01*
X182359569Y-111583676D01*
X182354500Y-111601771D01*
X182354500Y-111644521D01*
X182354240Y-111649585D01*
X182349869Y-111692110D01*
X182353060Y-111710621D01*
X182354499Y-111727438D01*
X182354499Y-115965323D01*
X182335592Y-116023514D01*
X182325503Y-116035326D01*
X182041328Y-116319503D01*
X181986811Y-116347281D01*
X181971324Y-116348500D01*
X139068221Y-116348500D01*
X139010030Y-116329593D01*
X139002579Y-116323608D01*
X138902240Y-116234717D01*
X138762365Y-116161304D01*
X138762362Y-116161303D01*
X138762363Y-116161303D01*
X138751081Y-116158522D01*
X138699107Y-116126236D01*
X138676037Y-116069567D01*
X138690682Y-116010160D01*
X138704769Y-115992400D01*
X140195243Y-114501926D01*
X140241469Y-114458755D01*
X140263684Y-114422221D01*
X140266520Y-114418054D01*
X140292365Y-114383975D01*
X140299260Y-114366488D01*
X140306766Y-114351375D01*
X140316526Y-114335328D01*
X140328060Y-114294158D01*
X140329673Y-114289363D01*
X140345358Y-114249591D01*
X140345357Y-114249591D01*
X140345359Y-114249589D01*
X140347280Y-114230890D01*
X140350430Y-114214317D01*
X140355500Y-114196228D01*
X140355500Y-114153485D01*
X140355760Y-114148420D01*
X140356662Y-114139641D01*
X140360132Y-114105890D01*
X140356939Y-114087376D01*
X140355500Y-114070555D01*
X140355500Y-106367733D01*
X140355576Y-106365496D01*
X140357660Y-106304504D01*
X140347538Y-106262970D01*
X140346592Y-106257991D01*
X140345013Y-106246500D01*
X140340771Y-106215638D01*
X140333283Y-106198400D01*
X140327904Y-106182406D01*
X140323457Y-106164154D01*
X140302501Y-106126884D01*
X140300258Y-106122368D01*
X140283219Y-106083140D01*
X140271352Y-106068553D01*
X140261862Y-106054608D01*
X140252658Y-106038238D01*
X140222427Y-106008006D01*
X140219029Y-106004241D01*
X140192052Y-105971082D01*
X140176706Y-105960249D01*
X140163794Y-105949374D01*
X139738896Y-105524476D01*
X139711119Y-105469959D01*
X139709900Y-105454472D01*
X139709900Y-105073500D01*
X139728807Y-105015309D01*
X139778307Y-104979345D01*
X139808900Y-104974500D01*
X143477993Y-104974500D01*
X143536184Y-104993407D01*
G37*
G04 #@! TD.AperFunction*
G04 #@! TA.AperFunction,Conductor*
G36*
X136309790Y-104993407D02*
G01*
X136345754Y-105042907D01*
X136350599Y-105073500D01*
X136350599Y-105308749D01*
X136350600Y-105308750D01*
X138231000Y-105308750D01*
X138289191Y-105327657D01*
X138325155Y-105377157D01*
X138330000Y-105407750D01*
X138330000Y-106547699D01*
X138330001Y-106547700D01*
X138407224Y-106547700D01*
X138466770Y-106541298D01*
X138466781Y-106541296D01*
X138601487Y-106491054D01*
X138601488Y-106491053D01*
X138635775Y-106465385D01*
X138693689Y-106445646D01*
X138710591Y-106446855D01*
X138719082Y-106448200D01*
X139135273Y-106448199D01*
X139193464Y-106467106D01*
X139205276Y-106477195D01*
X139275503Y-106547421D01*
X139303281Y-106601937D01*
X139304500Y-106617425D01*
X139304500Y-107300800D01*
X139285593Y-107358991D01*
X139236093Y-107394955D01*
X139205500Y-107399800D01*
X138719083Y-107399800D01*
X138710586Y-107401146D01*
X138650155Y-107391568D01*
X138635779Y-107382617D01*
X138601485Y-107356944D01*
X138466781Y-107306703D01*
X138466770Y-107306701D01*
X138407224Y-107300300D01*
X138330001Y-107300300D01*
X138330000Y-107300301D01*
X138330000Y-109278199D01*
X138330001Y-109278200D01*
X138405501Y-109278200D01*
X138463692Y-109297107D01*
X138499656Y-109346607D01*
X138504501Y-109377200D01*
X138504501Y-113665321D01*
X138485594Y-113723512D01*
X138475505Y-113735325D01*
X136116327Y-116094504D01*
X136061810Y-116122281D01*
X136046323Y-116123500D01*
X136001012Y-116123500D01*
X135847635Y-116161303D01*
X135707758Y-116234718D01*
X135663866Y-116273603D01*
X135607771Y-116298038D01*
X135598217Y-116298500D01*
X132688678Y-116298500D01*
X132630487Y-116279593D01*
X132618674Y-116269504D01*
X132081942Y-115732772D01*
X132054165Y-115678255D01*
X132063736Y-115617823D01*
X132107001Y-115574558D01*
X132167433Y-115564987D01*
X132177547Y-115567136D01*
X132205030Y-115574500D01*
X132349980Y-115574499D01*
X132489969Y-115536988D01*
X132489984Y-115536984D01*
X132489984Y-115536983D01*
X132489991Y-115536982D01*
X132615521Y-115464505D01*
X132718014Y-115362008D01*
X132719974Y-115358614D01*
X132772000Y-115268500D01*
X132790488Y-115236477D01*
X132828001Y-115096465D01*
X132827998Y-114951515D01*
X132790480Y-114811504D01*
X132718002Y-114685975D01*
X132615504Y-114583482D01*
X132610916Y-114578894D01*
X132612108Y-114577701D01*
X132582069Y-114533991D01*
X132577993Y-114505877D01*
X132577994Y-107624001D01*
X133040720Y-107624001D01*
X133059760Y-107780816D01*
X133059761Y-107780817D01*
X133115778Y-107928523D01*
X133205513Y-108058528D01*
X133205514Y-108058529D01*
X133205515Y-108058530D01*
X133323758Y-108163283D01*
X133463633Y-108236696D01*
X133617013Y-108274500D01*
X133617016Y-108274500D01*
X133774980Y-108274500D01*
X133774983Y-108274500D01*
X133928363Y-108236696D01*
X134006682Y-108195590D01*
X134066991Y-108185289D01*
X134121839Y-108212405D01*
X134131566Y-108223424D01*
X134144509Y-108240491D01*
X134266184Y-108332760D01*
X134266185Y-108332760D01*
X134266186Y-108332761D01*
X134316289Y-108352519D01*
X134408241Y-108388780D01*
X134497508Y-108399500D01*
X134497510Y-108399500D01*
X134894490Y-108399500D01*
X134894492Y-108399500D01*
X134983759Y-108388780D01*
X135125816Y-108332760D01*
X135247491Y-108240491D01*
X135286780Y-108188680D01*
X135337007Y-108153738D01*
X135365664Y-108149500D01*
X136351099Y-108149500D01*
X136409290Y-108168407D01*
X136445254Y-108217907D01*
X136450099Y-108248500D01*
X136450099Y-108809720D01*
X136450100Y-108809723D01*
X136464951Y-108903499D01*
X136464953Y-108903504D01*
X136522549Y-109016542D01*
X136612257Y-109106250D01*
X136725295Y-109163846D01*
X136819080Y-109178700D01*
X137440917Y-109178699D01*
X137449402Y-109177355D01*
X137509834Y-109186925D01*
X137524220Y-109195883D01*
X137558512Y-109221554D01*
X137693218Y-109271796D01*
X137693229Y-109271798D01*
X137752776Y-109278200D01*
X137829999Y-109278200D01*
X137830000Y-109278199D01*
X137830000Y-107300301D01*
X137829999Y-107300300D01*
X137752776Y-107300300D01*
X137693229Y-107306701D01*
X137693218Y-107306703D01*
X137558510Y-107356946D01*
X137524219Y-107382616D01*
X137466304Y-107402352D01*
X137449411Y-107401144D01*
X137440922Y-107399800D01*
X137440918Y-107399800D01*
X137389977Y-107399800D01*
X137331786Y-107380893D01*
X137319974Y-107370804D01*
X137207940Y-107258771D01*
X137164757Y-107212532D01*
X137164755Y-107212531D01*
X137151555Y-107204504D01*
X137128229Y-107190319D01*
X137124039Y-107187467D01*
X137089973Y-107161634D01*
X137072492Y-107154740D01*
X137057381Y-107147235D01*
X137041325Y-107137472D01*
X137000166Y-107125940D01*
X136995360Y-107124324D01*
X136955589Y-107108641D01*
X136955592Y-107108641D01*
X136943628Y-107107411D01*
X136936892Y-107106718D01*
X136920314Y-107103567D01*
X136902228Y-107098500D01*
X136859478Y-107098500D01*
X136854414Y-107098240D01*
X136820061Y-107094709D01*
X136811890Y-107093869D01*
X136811889Y-107093869D01*
X136793375Y-107097061D01*
X136776556Y-107098500D01*
X135551778Y-107098500D01*
X135493587Y-107079593D01*
X135457623Y-107030093D01*
X135456709Y-106971880D01*
X135503076Y-106812282D01*
X135503078Y-106812275D01*
X135506000Y-106775146D01*
X135506000Y-106746501D01*
X135505999Y-106746500D01*
X133886001Y-106746500D01*
X133886000Y-106746501D01*
X133886000Y-106775146D01*
X133888921Y-106812275D01*
X133888923Y-106812282D01*
X133900278Y-106851367D01*
X133898356Y-106912522D01*
X133860855Y-106960868D01*
X133802099Y-106977938D01*
X133781520Y-106975111D01*
X133774985Y-106973500D01*
X133774983Y-106973500D01*
X133617013Y-106973500D01*
X133617010Y-106973500D01*
X133463633Y-107011303D01*
X133323756Y-107084718D01*
X133205513Y-107189471D01*
X133115778Y-107319476D01*
X133059761Y-107467182D01*
X133059760Y-107467183D01*
X133040720Y-107623998D01*
X133040720Y-107624001D01*
X132577994Y-107624001D01*
X132577994Y-106246499D01*
X133886000Y-106246499D01*
X133886001Y-106246500D01*
X134445999Y-106246500D01*
X134446000Y-106246498D01*
X134446000Y-105631270D01*
X134445999Y-105631269D01*
X134946000Y-105631269D01*
X134946000Y-106246499D01*
X134946001Y-106246500D01*
X135505999Y-106246500D01*
X135506000Y-106246499D01*
X135506000Y-106217854D01*
X135503078Y-106180724D01*
X135503076Y-106180717D01*
X135478325Y-106095524D01*
X136350598Y-106095524D01*
X136357000Y-106155070D01*
X136357002Y-106155081D01*
X136407245Y-106289788D01*
X136407246Y-106289790D01*
X136493406Y-106404884D01*
X136493414Y-106404892D01*
X136608508Y-106491052D01*
X136608510Y-106491053D01*
X136743217Y-106541296D01*
X136743228Y-106541298D01*
X136802775Y-106547700D01*
X136879998Y-106547700D01*
X136879999Y-106547699D01*
X136879999Y-105808750D01*
X137379999Y-105808750D01*
X137379999Y-106547699D01*
X137380000Y-106547700D01*
X137457223Y-106547700D01*
X137516769Y-106541298D01*
X137516773Y-106541297D01*
X137570401Y-106521295D01*
X137631530Y-106518674D01*
X137639596Y-106521295D01*
X137693222Y-106541296D01*
X137693229Y-106541298D01*
X137752776Y-106547700D01*
X137829999Y-106547700D01*
X137830000Y-106547699D01*
X137830000Y-105808750D01*
X137379999Y-105808750D01*
X136879999Y-105808750D01*
X136350600Y-105808750D01*
X136350599Y-105808751D01*
X136350599Y-106095524D01*
X136350598Y-106095524D01*
X135478325Y-106095524D01*
X135456907Y-106021802D01*
X135372665Y-105879356D01*
X135255643Y-105762334D01*
X135113198Y-105678093D01*
X134954278Y-105631921D01*
X134946000Y-105631269D01*
X134445999Y-105631269D01*
X134437721Y-105631921D01*
X134278801Y-105678093D01*
X134136356Y-105762334D01*
X134019334Y-105879356D01*
X133935092Y-106021802D01*
X133888923Y-106180717D01*
X133888921Y-106180724D01*
X133886000Y-106217854D01*
X133886000Y-106246499D01*
X132577994Y-106246499D01*
X132577994Y-105073500D01*
X132596901Y-105015309D01*
X132646401Y-104979345D01*
X132676994Y-104974500D01*
X136251599Y-104974500D01*
X136309790Y-104993407D01*
G37*
G04 #@! TD.AperFunction*
G04 #@! TA.AperFunction,Conductor*
G36*
X218259790Y-104993407D02*
G01*
X218295754Y-105042907D01*
X218300599Y-105073500D01*
X218300599Y-105308748D01*
X218300600Y-105308750D01*
X220181000Y-105308750D01*
X220239191Y-105327657D01*
X220275155Y-105377157D01*
X220280000Y-105407750D01*
X220280000Y-106547699D01*
X220280001Y-106547700D01*
X220357224Y-106547700D01*
X220416770Y-106541298D01*
X220416781Y-106541296D01*
X220551487Y-106491054D01*
X220551488Y-106491053D01*
X220585775Y-106465385D01*
X220643689Y-106445646D01*
X220660591Y-106446855D01*
X220669082Y-106448200D01*
X221085272Y-106448199D01*
X221143463Y-106467106D01*
X221155276Y-106477195D01*
X221395504Y-106717423D01*
X221423281Y-106771940D01*
X221424500Y-106787427D01*
X221424500Y-107305042D01*
X221405593Y-107363233D01*
X221356093Y-107399197D01*
X221310015Y-107402824D01*
X221297066Y-107400773D01*
X221290920Y-107399800D01*
X221290919Y-107399800D01*
X220669083Y-107399800D01*
X220660586Y-107401146D01*
X220600155Y-107391568D01*
X220585779Y-107382617D01*
X220551485Y-107356944D01*
X220416781Y-107306703D01*
X220416770Y-107306701D01*
X220357224Y-107300300D01*
X220280001Y-107300300D01*
X220280000Y-107300301D01*
X220280000Y-109278199D01*
X220280001Y-109278200D01*
X220355501Y-109278200D01*
X220413692Y-109297107D01*
X220449656Y-109346607D01*
X220454501Y-109377200D01*
X220454501Y-114015321D01*
X220435594Y-114073512D01*
X220425505Y-114085325D01*
X219271327Y-115239504D01*
X219216810Y-115267281D01*
X219201323Y-115268500D01*
X217510924Y-115268500D01*
X217452733Y-115249593D01*
X217416769Y-115200093D01*
X217415297Y-115143880D01*
X217428001Y-115096465D01*
X217427998Y-114951515D01*
X217390480Y-114811504D01*
X217318002Y-114685975D01*
X217215504Y-114583482D01*
X217210916Y-114578894D01*
X217212108Y-114577701D01*
X217182069Y-114533991D01*
X217177993Y-114505877D01*
X217177993Y-108633570D01*
X217196900Y-108575379D01*
X217246400Y-108539415D01*
X217300682Y-108537447D01*
X217451015Y-108574500D01*
X217451018Y-108574500D01*
X217608982Y-108574500D01*
X217608985Y-108574500D01*
X217762365Y-108536696D01*
X217902240Y-108463283D01*
X218020483Y-108358530D01*
X218110220Y-108228523D01*
X218166208Y-108080893D01*
X218204522Y-108033189D01*
X218258775Y-108017000D01*
X218301099Y-108017000D01*
X218359290Y-108035907D01*
X218395254Y-108085407D01*
X218400099Y-108116000D01*
X218400099Y-108809721D01*
X218400100Y-108809723D01*
X218414951Y-108903499D01*
X218414953Y-108903504D01*
X218472549Y-109016542D01*
X218562257Y-109106250D01*
X218675295Y-109163846D01*
X218769080Y-109178700D01*
X219390917Y-109178699D01*
X219399402Y-109177355D01*
X219459834Y-109186925D01*
X219474220Y-109195883D01*
X219508512Y-109221554D01*
X219643218Y-109271796D01*
X219643229Y-109271798D01*
X219702776Y-109278200D01*
X219779999Y-109278200D01*
X219780000Y-109278199D01*
X219780000Y-107300300D01*
X219702776Y-107300300D01*
X219643229Y-107306701D01*
X219643218Y-107306703D01*
X219508510Y-107356946D01*
X219474219Y-107382616D01*
X219416304Y-107402352D01*
X219399411Y-107401144D01*
X219390922Y-107399800D01*
X219390918Y-107399800D01*
X219339977Y-107399800D01*
X219281786Y-107380893D01*
X219269974Y-107370804D01*
X219025439Y-107126270D01*
X218982257Y-107080032D01*
X218982255Y-107080031D01*
X218945732Y-107057821D01*
X218941539Y-107054967D01*
X218907473Y-107029134D01*
X218889992Y-107022240D01*
X218874881Y-107014735D01*
X218858825Y-107004972D01*
X218817666Y-106993440D01*
X218812860Y-106991824D01*
X218773089Y-106976141D01*
X218773092Y-106976141D01*
X218761128Y-106974911D01*
X218754392Y-106974218D01*
X218737814Y-106971067D01*
X218719728Y-106966000D01*
X218676978Y-106966000D01*
X218671914Y-106965740D01*
X218635470Y-106961994D01*
X218629390Y-106961369D01*
X218629389Y-106961369D01*
X218610875Y-106964561D01*
X218594056Y-106966000D01*
X218383286Y-106966000D01*
X218325095Y-106947093D01*
X218289131Y-106897593D01*
X218289131Y-106836407D01*
X218290267Y-106833400D01*
X218337076Y-106672282D01*
X218337078Y-106672275D01*
X218340000Y-106635146D01*
X218339999Y-106525255D01*
X218358906Y-106467064D01*
X218408405Y-106431100D01*
X218469591Y-106431099D01*
X218498328Y-106446001D01*
X218558508Y-106491052D01*
X218558510Y-106491053D01*
X218693217Y-106541296D01*
X218693228Y-106541298D01*
X218752775Y-106547700D01*
X218829998Y-106547700D01*
X218829999Y-106547699D01*
X219329999Y-106547699D01*
X219330000Y-106547700D01*
X219407223Y-106547700D01*
X219466769Y-106541298D01*
X219466773Y-106541297D01*
X219520401Y-106521295D01*
X219581530Y-106518674D01*
X219589596Y-106521295D01*
X219643222Y-106541296D01*
X219643229Y-106541298D01*
X219702776Y-106547700D01*
X219779999Y-106547700D01*
X219780000Y-106547699D01*
X219780000Y-105808751D01*
X219779999Y-105808750D01*
X219330000Y-105808750D01*
X219329999Y-105808751D01*
X219329999Y-106547699D01*
X218829999Y-106547699D01*
X218829999Y-105808750D01*
X218304174Y-105808750D01*
X218245983Y-105789843D01*
X218218961Y-105760146D01*
X218206666Y-105739357D01*
X218089643Y-105622334D01*
X217947198Y-105538093D01*
X217788278Y-105491921D01*
X217780000Y-105491269D01*
X217780000Y-106507500D01*
X217761093Y-106565691D01*
X217711593Y-106601655D01*
X217681000Y-106606500D01*
X217379000Y-106606500D01*
X217320809Y-106587593D01*
X217284845Y-106538093D01*
X217280000Y-106507500D01*
X217280000Y-105491270D01*
X217277780Y-105489218D01*
X217225269Y-105476613D01*
X217185530Y-105430089D01*
X217177993Y-105392200D01*
X217177993Y-105073500D01*
X217196900Y-105015309D01*
X217246400Y-104979345D01*
X217276993Y-104974500D01*
X218201599Y-104974500D01*
X218259790Y-104993407D01*
G37*
G04 #@! TD.AperFunction*
M02*
