%TF.GenerationSoftware,KiCad,Pcbnew,7.0.7*%
%TF.CreationDate,2024-05-14T22:52:38+02:00*%
%TF.ProjectId,Index_Middle_Ring_V3,496e6465-785f-44d6-9964-646c655f5269,rev?*%
%TF.SameCoordinates,Original*%
%TF.FileFunction,Drillmap*%
%TF.FilePolarity,Positive*%
%FSLAX45Y45*%
G04 Gerber Fmt 4.5, Leading zero omitted, Abs format (unit mm)*
G04 Created by KiCad (PCBNEW 7.0.7) date 2024-05-14 22:52:38*
%MOMM*%
%LPD*%
G01*
G04 APERTURE LIST*
%ADD10C,0.200000*%
%ADD11C,0.030000*%
%ADD12C,0.230000*%
G04 APERTURE END LIST*
D10*
X14387749Y-11477400D02*
X14387749Y-10467400D01*
X5211767Y-12037400D02*
G75*
G03*
X5128251Y-11992400I-83517J-55000D01*
G01*
X17862750Y-11502400D02*
G75*
G03*
X17887749Y-11477400I25000J0D01*
G01*
X17887749Y-12107401D02*
G75*
G03*
X17862749Y-12082400I1J25001D01*
G01*
X18712749Y-12082400D02*
X21662749Y-12082400D01*
X17887749Y-10467400D02*
X17887749Y-11477400D01*
X13202749Y-11502400D02*
X5295284Y-11502400D01*
X13202750Y-11502400D02*
G75*
G03*
X13227749Y-11477400I25000J0D01*
G01*
X4227749Y-11992400D02*
X5128251Y-11992400D01*
X21662750Y-11502400D02*
G75*
G03*
X21687749Y-11477400I25000J0D01*
G01*
X17887749Y-12107400D02*
X17887749Y-13117400D01*
X13227749Y-12107400D02*
X13227749Y-13117400D01*
X17887749Y-13117400D02*
X18687749Y-13117400D01*
X14387749Y-10467400D02*
X13227749Y-10467400D01*
X18687749Y-13117400D02*
X18687749Y-12107400D01*
X23117749Y-12082400D02*
X23117749Y-11502400D01*
X21687749Y-12107401D02*
G75*
G03*
X21662749Y-12082400I1J25001D01*
G01*
X18687749Y-10467400D02*
X17887749Y-10467400D01*
X5128251Y-11592400D02*
G75*
G03*
X5211767Y-11547400I-1J100001D01*
G01*
X4227749Y-11592400D02*
X4227749Y-11992400D01*
X5211765Y-12037402D02*
G75*
G03*
X5295284Y-12082400I83515J55002D01*
G01*
X17862749Y-11502400D02*
X14412749Y-11502400D01*
X22317749Y-11477400D02*
X22317749Y-10467400D01*
X14412750Y-12082400D02*
G75*
G03*
X14387749Y-12107400I-25000J0D01*
G01*
X22317749Y-13117400D02*
X22317749Y-12107400D01*
X23117749Y-11502400D02*
X22342749Y-11502400D01*
X21687749Y-13117400D02*
X22317749Y-13117400D01*
X22342749Y-12082400D02*
X23117749Y-12082400D01*
X14387749Y-11477401D02*
G75*
G03*
X14412749Y-11502400I1J-24999D01*
G01*
X14387749Y-13117400D02*
X14387749Y-12107400D01*
X13227749Y-10467400D02*
X13227749Y-11477400D01*
X18687749Y-11477400D02*
X18687749Y-10467400D01*
X13227749Y-13117400D02*
X14387749Y-13117400D01*
X5295284Y-11502403D02*
G75*
G03*
X5211767Y-11547400I-4J-99997D01*
G01*
X13227749Y-12107401D02*
G75*
G03*
X13202749Y-12082400I1J25001D01*
G01*
X22317749Y-10467400D02*
X21687749Y-10467400D01*
X18712750Y-12082400D02*
G75*
G03*
X18687749Y-12107400I-25000J0D01*
G01*
X21687749Y-12107400D02*
X21687749Y-13117400D01*
X14412749Y-12082400D02*
X17862749Y-12082400D01*
X5128251Y-11592400D02*
X4227749Y-11592400D01*
X5295284Y-12082400D02*
X13202749Y-12082400D01*
X21687749Y-10467400D02*
X21687749Y-11477400D01*
X21662749Y-11502400D02*
X18712749Y-11502400D01*
X22342750Y-12082400D02*
G75*
G03*
X22317749Y-12107400I-25000J0D01*
G01*
X18687749Y-11477401D02*
G75*
G03*
X18712749Y-11502400I1J-24999D01*
G01*
X22317749Y-11477401D02*
G75*
G03*
X22342749Y-11502400I1J-24999D01*
G01*
D11*
X5655372Y-11777400D02*
X5685372Y-11807400D01*
X5685372Y-11777400D02*
X5655372Y-11807400D01*
X5725372Y-11777400D02*
X5755372Y-11807400D01*
X5755372Y-11777400D02*
X5725372Y-11807400D01*
X5795372Y-11777400D02*
X5825372Y-11807400D01*
X5825372Y-11777400D02*
X5795372Y-11807400D01*
X5865373Y-11777400D02*
X5895373Y-11807400D01*
X5895373Y-11777400D02*
X5865373Y-11807400D01*
X5935372Y-11777400D02*
X5965372Y-11807400D01*
X5965372Y-11777400D02*
X5935372Y-11807400D01*
X12888000Y-11687400D02*
X12918000Y-11717400D01*
X12918000Y-11687400D02*
X12888000Y-11717400D01*
X13078000Y-11862400D02*
X13108000Y-11892400D01*
X13108000Y-11862400D02*
X13078000Y-11892400D01*
X13305500Y-12904900D02*
X13335500Y-12934900D01*
X13335500Y-12904900D02*
X13305500Y-12934900D01*
X13344600Y-10636400D02*
X13374600Y-10666400D01*
X13374600Y-10636400D02*
X13344600Y-10666400D01*
X13354600Y-10747400D02*
X13384600Y-10777400D01*
X13384600Y-10747400D02*
X13354600Y-10777400D01*
X13368000Y-12822400D02*
X13398000Y-12852400D01*
X13398000Y-12822400D02*
X13368000Y-12852400D01*
X13593000Y-11662400D02*
X13623000Y-11692400D01*
X13623000Y-11662400D02*
X13593000Y-11692400D01*
X13658000Y-11912400D02*
X13688000Y-11942400D01*
X13688000Y-11912400D02*
X13658000Y-11942400D01*
X13838000Y-11662400D02*
X13868000Y-11692400D01*
X13868000Y-11662400D02*
X13838000Y-11692400D01*
X14433500Y-11937900D02*
X14463500Y-11967900D01*
X14463500Y-11937900D02*
X14433500Y-11967900D01*
X17760500Y-11799900D02*
X17790500Y-11829900D01*
X17790500Y-11799900D02*
X17760500Y-11829900D01*
X17943000Y-10762400D02*
X17973000Y-10792400D01*
X17973000Y-10762400D02*
X17943000Y-10792400D01*
X17943000Y-12927400D02*
X17973000Y-12957400D01*
X17973000Y-12927400D02*
X17943000Y-12957400D01*
X17971000Y-11923400D02*
X18001000Y-11953400D01*
X18001000Y-11923400D02*
X17971000Y-11953400D01*
X18052000Y-12554400D02*
X18082000Y-12584400D01*
X18082000Y-12554400D02*
X18052000Y-12584400D01*
X18153000Y-11737400D02*
X18183000Y-11767400D01*
X18183000Y-11737400D02*
X18153000Y-11767400D01*
X18538000Y-10827400D02*
X18568000Y-10857400D01*
X18568000Y-10827400D02*
X18538000Y-10857400D01*
X18608000Y-11062400D02*
X18638000Y-11092400D01*
X18638000Y-11062400D02*
X18608000Y-11092400D01*
X18733500Y-11924900D02*
X18763500Y-11954900D01*
X18763500Y-11924900D02*
X18733500Y-11954900D01*
X20536000Y-11694400D02*
X20566000Y-11724400D01*
X20566000Y-11694400D02*
X20536000Y-11724400D01*
X20541000Y-11857400D02*
X20571000Y-11887400D01*
X20571000Y-11857400D02*
X20541000Y-11887400D01*
X21569000Y-11773400D02*
X21599000Y-11803400D01*
X21599000Y-11773400D02*
X21569000Y-11803400D01*
X21738000Y-10777400D02*
X21768000Y-10807400D01*
X21768000Y-10777400D02*
X21738000Y-10807400D01*
X21750500Y-12934150D02*
X21780500Y-12964150D01*
X21780500Y-12934150D02*
X21750500Y-12964150D01*
X21804000Y-12159400D02*
X21834000Y-12189400D01*
X21834000Y-12159400D02*
X21804000Y-12189400D01*
X21928000Y-10677400D02*
X21958000Y-10707400D01*
X21958000Y-10677400D02*
X21928000Y-10707400D01*
X21932000Y-11148400D02*
X21962000Y-11178400D01*
X21962000Y-11148400D02*
X21932000Y-11178400D01*
X22034000Y-12040400D02*
X22064000Y-12070400D01*
X22064000Y-12040400D02*
X22034000Y-12070400D01*
X22428000Y-11807400D02*
X22458000Y-11837400D01*
X22458000Y-11807400D02*
X22428000Y-11837400D01*
X22579000Y-11675400D02*
X22609000Y-11705400D01*
X22609000Y-11675400D02*
X22579000Y-11705400D01*
X22734000Y-11987400D02*
X22764000Y-12017400D01*
X22764000Y-11987400D02*
X22734000Y-12017400D01*
D12*
X13598000Y-11512400D02*
G75*
G03*
X13598000Y-11512400I-115000J0D01*
G01*
X13598000Y-12072400D02*
G75*
G03*
X13598000Y-12072400I-115000J0D01*
G01*
X14248000Y-11512400D02*
G75*
G03*
X14248000Y-11512400I-115000J0D01*
G01*
X14248000Y-12072400D02*
G75*
G03*
X14248000Y-12072400I-115000J0D01*
G01*
X18238000Y-11512400D02*
G75*
G03*
X18238000Y-11512400I-115000J0D01*
G01*
X18238000Y-12072400D02*
G75*
G03*
X18238000Y-12072400I-115000J0D01*
G01*
X18568000Y-11512400D02*
G75*
G03*
X18568000Y-11512400I-115000J0D01*
G01*
X18568000Y-12072400D02*
G75*
G03*
X18568000Y-12072400I-115000J0D01*
G01*
X21933000Y-11792400D02*
G75*
G03*
X21933000Y-11792400I-115000J0D01*
G01*
X22318000Y-11792400D02*
G75*
G03*
X22318000Y-11792400I-115000J0D01*
G01*
D10*
X4478526Y-13438884D02*
X4478526Y-13238884D01*
X4478526Y-13238884D02*
X4526145Y-13238884D01*
X4526145Y-13238884D02*
X4554717Y-13248408D01*
X4554717Y-13248408D02*
X4573764Y-13267455D01*
X4573764Y-13267455D02*
X4583288Y-13286503D01*
X4583288Y-13286503D02*
X4592812Y-13324598D01*
X4592812Y-13324598D02*
X4592812Y-13353169D01*
X4592812Y-13353169D02*
X4583288Y-13391265D01*
X4583288Y-13391265D02*
X4573764Y-13410312D01*
X4573764Y-13410312D02*
X4554717Y-13429360D01*
X4554717Y-13429360D02*
X4526145Y-13438884D01*
X4526145Y-13438884D02*
X4478526Y-13438884D01*
X4678526Y-13438884D02*
X4678526Y-13305550D01*
X4678526Y-13343646D02*
X4688050Y-13324598D01*
X4688050Y-13324598D02*
X4697574Y-13315074D01*
X4697574Y-13315074D02*
X4716621Y-13305550D01*
X4716621Y-13305550D02*
X4735669Y-13305550D01*
X4802336Y-13438884D02*
X4802336Y-13305550D01*
X4802336Y-13238884D02*
X4792812Y-13248408D01*
X4792812Y-13248408D02*
X4802336Y-13257931D01*
X4802336Y-13257931D02*
X4811859Y-13248408D01*
X4811859Y-13248408D02*
X4802336Y-13238884D01*
X4802336Y-13238884D02*
X4802336Y-13257931D01*
X4926145Y-13438884D02*
X4907098Y-13429360D01*
X4907098Y-13429360D02*
X4897574Y-13410312D01*
X4897574Y-13410312D02*
X4897574Y-13238884D01*
X5030907Y-13438884D02*
X5011859Y-13429360D01*
X5011859Y-13429360D02*
X5002336Y-13410312D01*
X5002336Y-13410312D02*
X5002336Y-13238884D01*
X5259479Y-13438884D02*
X5259479Y-13238884D01*
X5259479Y-13238884D02*
X5326145Y-13381741D01*
X5326145Y-13381741D02*
X5392812Y-13238884D01*
X5392812Y-13238884D02*
X5392812Y-13438884D01*
X5573764Y-13438884D02*
X5573764Y-13334122D01*
X5573764Y-13334122D02*
X5564240Y-13315074D01*
X5564240Y-13315074D02*
X5545193Y-13305550D01*
X5545193Y-13305550D02*
X5507098Y-13305550D01*
X5507098Y-13305550D02*
X5488050Y-13315074D01*
X5573764Y-13429360D02*
X5554717Y-13438884D01*
X5554717Y-13438884D02*
X5507098Y-13438884D01*
X5507098Y-13438884D02*
X5488050Y-13429360D01*
X5488050Y-13429360D02*
X5478526Y-13410312D01*
X5478526Y-13410312D02*
X5478526Y-13391265D01*
X5478526Y-13391265D02*
X5488050Y-13372217D01*
X5488050Y-13372217D02*
X5507098Y-13362693D01*
X5507098Y-13362693D02*
X5554717Y-13362693D01*
X5554717Y-13362693D02*
X5573764Y-13353169D01*
X5669002Y-13305550D02*
X5669002Y-13505550D01*
X5669002Y-13315074D02*
X5688050Y-13305550D01*
X5688050Y-13305550D02*
X5726145Y-13305550D01*
X5726145Y-13305550D02*
X5745193Y-13315074D01*
X5745193Y-13315074D02*
X5754717Y-13324598D01*
X5754717Y-13324598D02*
X5764240Y-13343646D01*
X5764240Y-13343646D02*
X5764240Y-13400788D01*
X5764240Y-13400788D02*
X5754717Y-13419836D01*
X5754717Y-13419836D02*
X5745193Y-13429360D01*
X5745193Y-13429360D02*
X5726145Y-13438884D01*
X5726145Y-13438884D02*
X5688050Y-13438884D01*
X5688050Y-13438884D02*
X5669002Y-13429360D01*
X5849955Y-13419836D02*
X5859478Y-13429360D01*
X5859478Y-13429360D02*
X5849955Y-13438884D01*
X5849955Y-13438884D02*
X5840431Y-13429360D01*
X5840431Y-13429360D02*
X5849955Y-13419836D01*
X5849955Y-13419836D02*
X5849955Y-13438884D01*
X5849955Y-13315074D02*
X5859478Y-13324598D01*
X5859478Y-13324598D02*
X5849955Y-13334122D01*
X5849955Y-13334122D02*
X5840431Y-13324598D01*
X5840431Y-13324598D02*
X5849955Y-13315074D01*
X5849955Y-13315074D02*
X5849955Y-13334122D01*
D11*
X4187749Y-13752400D02*
X4217749Y-13782400D01*
X4217749Y-13752400D02*
X4187749Y-13782400D01*
D10*
X4516621Y-13658884D02*
X4535669Y-13658884D01*
X4535669Y-13658884D02*
X4554717Y-13668408D01*
X4554717Y-13668408D02*
X4564240Y-13677931D01*
X4564240Y-13677931D02*
X4573764Y-13696979D01*
X4573764Y-13696979D02*
X4583288Y-13735074D01*
X4583288Y-13735074D02*
X4583288Y-13782693D01*
X4583288Y-13782693D02*
X4573764Y-13820788D01*
X4573764Y-13820788D02*
X4564240Y-13839836D01*
X4564240Y-13839836D02*
X4554717Y-13849360D01*
X4554717Y-13849360D02*
X4535669Y-13858884D01*
X4535669Y-13858884D02*
X4516621Y-13858884D01*
X4516621Y-13858884D02*
X4497574Y-13849360D01*
X4497574Y-13849360D02*
X4488050Y-13839836D01*
X4488050Y-13839836D02*
X4478526Y-13820788D01*
X4478526Y-13820788D02*
X4469002Y-13782693D01*
X4469002Y-13782693D02*
X4469002Y-13735074D01*
X4469002Y-13735074D02*
X4478526Y-13696979D01*
X4478526Y-13696979D02*
X4488050Y-13677931D01*
X4488050Y-13677931D02*
X4497574Y-13668408D01*
X4497574Y-13668408D02*
X4516621Y-13658884D01*
X4669002Y-13839836D02*
X4678526Y-13849360D01*
X4678526Y-13849360D02*
X4669002Y-13858884D01*
X4669002Y-13858884D02*
X4659479Y-13849360D01*
X4659479Y-13849360D02*
X4669002Y-13839836D01*
X4669002Y-13839836D02*
X4669002Y-13858884D01*
X4745193Y-13658884D02*
X4869002Y-13658884D01*
X4869002Y-13658884D02*
X4802336Y-13735074D01*
X4802336Y-13735074D02*
X4830907Y-13735074D01*
X4830907Y-13735074D02*
X4849955Y-13744598D01*
X4849955Y-13744598D02*
X4859479Y-13754122D01*
X4859479Y-13754122D02*
X4869002Y-13773169D01*
X4869002Y-13773169D02*
X4869002Y-13820788D01*
X4869002Y-13820788D02*
X4859479Y-13839836D01*
X4859479Y-13839836D02*
X4849955Y-13849360D01*
X4849955Y-13849360D02*
X4830907Y-13858884D01*
X4830907Y-13858884D02*
X4773764Y-13858884D01*
X4773764Y-13858884D02*
X4754717Y-13849360D01*
X4754717Y-13849360D02*
X4745193Y-13839836D01*
X4992812Y-13658884D02*
X5011860Y-13658884D01*
X5011860Y-13658884D02*
X5030907Y-13668408D01*
X5030907Y-13668408D02*
X5040431Y-13677931D01*
X5040431Y-13677931D02*
X5049955Y-13696979D01*
X5049955Y-13696979D02*
X5059479Y-13735074D01*
X5059479Y-13735074D02*
X5059479Y-13782693D01*
X5059479Y-13782693D02*
X5049955Y-13820788D01*
X5049955Y-13820788D02*
X5040431Y-13839836D01*
X5040431Y-13839836D02*
X5030907Y-13849360D01*
X5030907Y-13849360D02*
X5011860Y-13858884D01*
X5011860Y-13858884D02*
X4992812Y-13858884D01*
X4992812Y-13858884D02*
X4973764Y-13849360D01*
X4973764Y-13849360D02*
X4964240Y-13839836D01*
X4964240Y-13839836D02*
X4954717Y-13820788D01*
X4954717Y-13820788D02*
X4945193Y-13782693D01*
X4945193Y-13782693D02*
X4945193Y-13735074D01*
X4945193Y-13735074D02*
X4954717Y-13696979D01*
X4954717Y-13696979D02*
X4964240Y-13677931D01*
X4964240Y-13677931D02*
X4973764Y-13668408D01*
X4973764Y-13668408D02*
X4992812Y-13658884D01*
X5183288Y-13658884D02*
X5202336Y-13658884D01*
X5202336Y-13658884D02*
X5221383Y-13668408D01*
X5221383Y-13668408D02*
X5230907Y-13677931D01*
X5230907Y-13677931D02*
X5240431Y-13696979D01*
X5240431Y-13696979D02*
X5249955Y-13735074D01*
X5249955Y-13735074D02*
X5249955Y-13782693D01*
X5249955Y-13782693D02*
X5240431Y-13820788D01*
X5240431Y-13820788D02*
X5230907Y-13839836D01*
X5230907Y-13839836D02*
X5221383Y-13849360D01*
X5221383Y-13849360D02*
X5202336Y-13858884D01*
X5202336Y-13858884D02*
X5183288Y-13858884D01*
X5183288Y-13858884D02*
X5164240Y-13849360D01*
X5164240Y-13849360D02*
X5154717Y-13839836D01*
X5154717Y-13839836D02*
X5145193Y-13820788D01*
X5145193Y-13820788D02*
X5135669Y-13782693D01*
X5135669Y-13782693D02*
X5135669Y-13735074D01*
X5135669Y-13735074D02*
X5145193Y-13696979D01*
X5145193Y-13696979D02*
X5154717Y-13677931D01*
X5154717Y-13677931D02*
X5164240Y-13668408D01*
X5164240Y-13668408D02*
X5183288Y-13658884D01*
X5335669Y-13858884D02*
X5335669Y-13725550D01*
X5335669Y-13744598D02*
X5345193Y-13735074D01*
X5345193Y-13735074D02*
X5364240Y-13725550D01*
X5364240Y-13725550D02*
X5392812Y-13725550D01*
X5392812Y-13725550D02*
X5411860Y-13735074D01*
X5411860Y-13735074D02*
X5421383Y-13754122D01*
X5421383Y-13754122D02*
X5421383Y-13858884D01*
X5421383Y-13754122D02*
X5430907Y-13735074D01*
X5430907Y-13735074D02*
X5449955Y-13725550D01*
X5449955Y-13725550D02*
X5478526Y-13725550D01*
X5478526Y-13725550D02*
X5497574Y-13735074D01*
X5497574Y-13735074D02*
X5507098Y-13754122D01*
X5507098Y-13754122D02*
X5507098Y-13858884D01*
X5602336Y-13858884D02*
X5602336Y-13725550D01*
X5602336Y-13744598D02*
X5611859Y-13735074D01*
X5611859Y-13735074D02*
X5630907Y-13725550D01*
X5630907Y-13725550D02*
X5659479Y-13725550D01*
X5659479Y-13725550D02*
X5678526Y-13735074D01*
X5678526Y-13735074D02*
X5688050Y-13754122D01*
X5688050Y-13754122D02*
X5688050Y-13858884D01*
X5688050Y-13754122D02*
X5697574Y-13735074D01*
X5697574Y-13735074D02*
X5716621Y-13725550D01*
X5716621Y-13725550D02*
X5745193Y-13725550D01*
X5745193Y-13725550D02*
X5764240Y-13735074D01*
X5764240Y-13735074D02*
X5773764Y-13754122D01*
X5773764Y-13754122D02*
X5773764Y-13858884D01*
X6164240Y-13649360D02*
X5992812Y-13906503D01*
X6421383Y-13658884D02*
X6440431Y-13658884D01*
X6440431Y-13658884D02*
X6459479Y-13668408D01*
X6459479Y-13668408D02*
X6469002Y-13677931D01*
X6469002Y-13677931D02*
X6478526Y-13696979D01*
X6478526Y-13696979D02*
X6488050Y-13735074D01*
X6488050Y-13735074D02*
X6488050Y-13782693D01*
X6488050Y-13782693D02*
X6478526Y-13820788D01*
X6478526Y-13820788D02*
X6469002Y-13839836D01*
X6469002Y-13839836D02*
X6459479Y-13849360D01*
X6459479Y-13849360D02*
X6440431Y-13858884D01*
X6440431Y-13858884D02*
X6421383Y-13858884D01*
X6421383Y-13858884D02*
X6402336Y-13849360D01*
X6402336Y-13849360D02*
X6392812Y-13839836D01*
X6392812Y-13839836D02*
X6383288Y-13820788D01*
X6383288Y-13820788D02*
X6373764Y-13782693D01*
X6373764Y-13782693D02*
X6373764Y-13735074D01*
X6373764Y-13735074D02*
X6383288Y-13696979D01*
X6383288Y-13696979D02*
X6392812Y-13677931D01*
X6392812Y-13677931D02*
X6402336Y-13668408D01*
X6402336Y-13668408D02*
X6421383Y-13658884D01*
X6573764Y-13839836D02*
X6583288Y-13849360D01*
X6583288Y-13849360D02*
X6573764Y-13858884D01*
X6573764Y-13858884D02*
X6564241Y-13849360D01*
X6564241Y-13849360D02*
X6573764Y-13839836D01*
X6573764Y-13839836D02*
X6573764Y-13858884D01*
X6707098Y-13658884D02*
X6726145Y-13658884D01*
X6726145Y-13658884D02*
X6745193Y-13668408D01*
X6745193Y-13668408D02*
X6754717Y-13677931D01*
X6754717Y-13677931D02*
X6764241Y-13696979D01*
X6764241Y-13696979D02*
X6773764Y-13735074D01*
X6773764Y-13735074D02*
X6773764Y-13782693D01*
X6773764Y-13782693D02*
X6764241Y-13820788D01*
X6764241Y-13820788D02*
X6754717Y-13839836D01*
X6754717Y-13839836D02*
X6745193Y-13849360D01*
X6745193Y-13849360D02*
X6726145Y-13858884D01*
X6726145Y-13858884D02*
X6707098Y-13858884D01*
X6707098Y-13858884D02*
X6688050Y-13849360D01*
X6688050Y-13849360D02*
X6678526Y-13839836D01*
X6678526Y-13839836D02*
X6669002Y-13820788D01*
X6669002Y-13820788D02*
X6659479Y-13782693D01*
X6659479Y-13782693D02*
X6659479Y-13735074D01*
X6659479Y-13735074D02*
X6669002Y-13696979D01*
X6669002Y-13696979D02*
X6678526Y-13677931D01*
X6678526Y-13677931D02*
X6688050Y-13668408D01*
X6688050Y-13668408D02*
X6707098Y-13658884D01*
X6964241Y-13858884D02*
X6849955Y-13858884D01*
X6907098Y-13858884D02*
X6907098Y-13658884D01*
X6907098Y-13658884D02*
X6888050Y-13687455D01*
X6888050Y-13687455D02*
X6869002Y-13706503D01*
X6869002Y-13706503D02*
X6849955Y-13716027D01*
X7154717Y-13858884D02*
X7040431Y-13858884D01*
X7097574Y-13858884D02*
X7097574Y-13658884D01*
X7097574Y-13658884D02*
X7078526Y-13687455D01*
X7078526Y-13687455D02*
X7059479Y-13706503D01*
X7059479Y-13706503D02*
X7040431Y-13716027D01*
X7269002Y-13744598D02*
X7249955Y-13735074D01*
X7249955Y-13735074D02*
X7240431Y-13725550D01*
X7240431Y-13725550D02*
X7230907Y-13706503D01*
X7230907Y-13706503D02*
X7230907Y-13696979D01*
X7230907Y-13696979D02*
X7240431Y-13677931D01*
X7240431Y-13677931D02*
X7249955Y-13668408D01*
X7249955Y-13668408D02*
X7269002Y-13658884D01*
X7269002Y-13658884D02*
X7307098Y-13658884D01*
X7307098Y-13658884D02*
X7326145Y-13668408D01*
X7326145Y-13668408D02*
X7335669Y-13677931D01*
X7335669Y-13677931D02*
X7345193Y-13696979D01*
X7345193Y-13696979D02*
X7345193Y-13706503D01*
X7345193Y-13706503D02*
X7335669Y-13725550D01*
X7335669Y-13725550D02*
X7326145Y-13735074D01*
X7326145Y-13735074D02*
X7307098Y-13744598D01*
X7307098Y-13744598D02*
X7269002Y-13744598D01*
X7269002Y-13744598D02*
X7249955Y-13754122D01*
X7249955Y-13754122D02*
X7240431Y-13763646D01*
X7240431Y-13763646D02*
X7230907Y-13782693D01*
X7230907Y-13782693D02*
X7230907Y-13820788D01*
X7230907Y-13820788D02*
X7240431Y-13839836D01*
X7240431Y-13839836D02*
X7249955Y-13849360D01*
X7249955Y-13849360D02*
X7269002Y-13858884D01*
X7269002Y-13858884D02*
X7307098Y-13858884D01*
X7307098Y-13858884D02*
X7326145Y-13849360D01*
X7326145Y-13849360D02*
X7335669Y-13839836D01*
X7335669Y-13839836D02*
X7345193Y-13820788D01*
X7345193Y-13820788D02*
X7345193Y-13782693D01*
X7345193Y-13782693D02*
X7335669Y-13763646D01*
X7335669Y-13763646D02*
X7326145Y-13754122D01*
X7326145Y-13754122D02*
X7307098Y-13744598D01*
X7421383Y-13658884D02*
X7421383Y-13696979D01*
X7497574Y-13658884D02*
X7497574Y-13696979D01*
X7792812Y-13935074D02*
X7783288Y-13925550D01*
X7783288Y-13925550D02*
X7764241Y-13896979D01*
X7764241Y-13896979D02*
X7754717Y-13877931D01*
X7754717Y-13877931D02*
X7745193Y-13849360D01*
X7745193Y-13849360D02*
X7735669Y-13801741D01*
X7735669Y-13801741D02*
X7735669Y-13763646D01*
X7735669Y-13763646D02*
X7745193Y-13716027D01*
X7745193Y-13716027D02*
X7754717Y-13687455D01*
X7754717Y-13687455D02*
X7764241Y-13668408D01*
X7764241Y-13668408D02*
X7783288Y-13639836D01*
X7783288Y-13639836D02*
X7792812Y-13630312D01*
X7849955Y-13658884D02*
X7973764Y-13658884D01*
X7973764Y-13658884D02*
X7907098Y-13735074D01*
X7907098Y-13735074D02*
X7935669Y-13735074D01*
X7935669Y-13735074D02*
X7954717Y-13744598D01*
X7954717Y-13744598D02*
X7964241Y-13754122D01*
X7964241Y-13754122D02*
X7973764Y-13773169D01*
X7973764Y-13773169D02*
X7973764Y-13820788D01*
X7973764Y-13820788D02*
X7964241Y-13839836D01*
X7964241Y-13839836D02*
X7954717Y-13849360D01*
X7954717Y-13849360D02*
X7935669Y-13858884D01*
X7935669Y-13858884D02*
X7878526Y-13858884D01*
X7878526Y-13858884D02*
X7859479Y-13849360D01*
X7859479Y-13849360D02*
X7849955Y-13839836D01*
X8145193Y-13658884D02*
X8107098Y-13658884D01*
X8107098Y-13658884D02*
X8088050Y-13668408D01*
X8088050Y-13668408D02*
X8078526Y-13677931D01*
X8078526Y-13677931D02*
X8059479Y-13706503D01*
X8059479Y-13706503D02*
X8049955Y-13744598D01*
X8049955Y-13744598D02*
X8049955Y-13820788D01*
X8049955Y-13820788D02*
X8059479Y-13839836D01*
X8059479Y-13839836D02*
X8069003Y-13849360D01*
X8069003Y-13849360D02*
X8088050Y-13858884D01*
X8088050Y-13858884D02*
X8126145Y-13858884D01*
X8126145Y-13858884D02*
X8145193Y-13849360D01*
X8145193Y-13849360D02*
X8154717Y-13839836D01*
X8154717Y-13839836D02*
X8164241Y-13820788D01*
X8164241Y-13820788D02*
X8164241Y-13773169D01*
X8164241Y-13773169D02*
X8154717Y-13754122D01*
X8154717Y-13754122D02*
X8145193Y-13744598D01*
X8145193Y-13744598D02*
X8126145Y-13735074D01*
X8126145Y-13735074D02*
X8088050Y-13735074D01*
X8088050Y-13735074D02*
X8069003Y-13744598D01*
X8069003Y-13744598D02*
X8059479Y-13754122D01*
X8059479Y-13754122D02*
X8049955Y-13773169D01*
X8402336Y-13858884D02*
X8402336Y-13658884D01*
X8488050Y-13858884D02*
X8488050Y-13754122D01*
X8488050Y-13754122D02*
X8478527Y-13735074D01*
X8478527Y-13735074D02*
X8459479Y-13725550D01*
X8459479Y-13725550D02*
X8430907Y-13725550D01*
X8430907Y-13725550D02*
X8411860Y-13735074D01*
X8411860Y-13735074D02*
X8402336Y-13744598D01*
X8611860Y-13858884D02*
X8592812Y-13849360D01*
X8592812Y-13849360D02*
X8583288Y-13839836D01*
X8583288Y-13839836D02*
X8573765Y-13820788D01*
X8573765Y-13820788D02*
X8573765Y-13763646D01*
X8573765Y-13763646D02*
X8583288Y-13744598D01*
X8583288Y-13744598D02*
X8592812Y-13735074D01*
X8592812Y-13735074D02*
X8611860Y-13725550D01*
X8611860Y-13725550D02*
X8640431Y-13725550D01*
X8640431Y-13725550D02*
X8659479Y-13735074D01*
X8659479Y-13735074D02*
X8669003Y-13744598D01*
X8669003Y-13744598D02*
X8678527Y-13763646D01*
X8678527Y-13763646D02*
X8678527Y-13820788D01*
X8678527Y-13820788D02*
X8669003Y-13839836D01*
X8669003Y-13839836D02*
X8659479Y-13849360D01*
X8659479Y-13849360D02*
X8640431Y-13858884D01*
X8640431Y-13858884D02*
X8611860Y-13858884D01*
X8792812Y-13858884D02*
X8773765Y-13849360D01*
X8773765Y-13849360D02*
X8764241Y-13830312D01*
X8764241Y-13830312D02*
X8764241Y-13658884D01*
X8945193Y-13849360D02*
X8926146Y-13858884D01*
X8926146Y-13858884D02*
X8888050Y-13858884D01*
X8888050Y-13858884D02*
X8869003Y-13849360D01*
X8869003Y-13849360D02*
X8859479Y-13830312D01*
X8859479Y-13830312D02*
X8859479Y-13754122D01*
X8859479Y-13754122D02*
X8869003Y-13735074D01*
X8869003Y-13735074D02*
X8888050Y-13725550D01*
X8888050Y-13725550D02*
X8926146Y-13725550D01*
X8926146Y-13725550D02*
X8945193Y-13735074D01*
X8945193Y-13735074D02*
X8954717Y-13754122D01*
X8954717Y-13754122D02*
X8954717Y-13773169D01*
X8954717Y-13773169D02*
X8859479Y-13792217D01*
X9030908Y-13849360D02*
X9049955Y-13858884D01*
X9049955Y-13858884D02*
X9088050Y-13858884D01*
X9088050Y-13858884D02*
X9107098Y-13849360D01*
X9107098Y-13849360D02*
X9116622Y-13830312D01*
X9116622Y-13830312D02*
X9116622Y-13820788D01*
X9116622Y-13820788D02*
X9107098Y-13801741D01*
X9107098Y-13801741D02*
X9088050Y-13792217D01*
X9088050Y-13792217D02*
X9059479Y-13792217D01*
X9059479Y-13792217D02*
X9040431Y-13782693D01*
X9040431Y-13782693D02*
X9030908Y-13763646D01*
X9030908Y-13763646D02*
X9030908Y-13754122D01*
X9030908Y-13754122D02*
X9040431Y-13735074D01*
X9040431Y-13735074D02*
X9059479Y-13725550D01*
X9059479Y-13725550D02*
X9088050Y-13725550D01*
X9088050Y-13725550D02*
X9107098Y-13735074D01*
X9183289Y-13935074D02*
X9192812Y-13925550D01*
X9192812Y-13925550D02*
X9211860Y-13896979D01*
X9211860Y-13896979D02*
X9221384Y-13877931D01*
X9221384Y-13877931D02*
X9230908Y-13849360D01*
X9230908Y-13849360D02*
X9240431Y-13801741D01*
X9240431Y-13801741D02*
X9240431Y-13763646D01*
X9240431Y-13763646D02*
X9230908Y-13716027D01*
X9230908Y-13716027D02*
X9221384Y-13687455D01*
X9221384Y-13687455D02*
X9211860Y-13668408D01*
X9211860Y-13668408D02*
X9192812Y-13639836D01*
X9192812Y-13639836D02*
X9183289Y-13630312D01*
X4217749Y-14031400D02*
G75*
G03*
X4217749Y-14031400I-100000J0D01*
G01*
X4469002Y-13941931D02*
X4478526Y-13932408D01*
X4478526Y-13932408D02*
X4497574Y-13922884D01*
X4497574Y-13922884D02*
X4545193Y-13922884D01*
X4545193Y-13922884D02*
X4564240Y-13932408D01*
X4564240Y-13932408D02*
X4573764Y-13941931D01*
X4573764Y-13941931D02*
X4583288Y-13960979D01*
X4583288Y-13960979D02*
X4583288Y-13980027D01*
X4583288Y-13980027D02*
X4573764Y-14008598D01*
X4573764Y-14008598D02*
X4459479Y-14122884D01*
X4459479Y-14122884D02*
X4583288Y-14122884D01*
X4669002Y-14103836D02*
X4678526Y-14113360D01*
X4678526Y-14113360D02*
X4669002Y-14122884D01*
X4669002Y-14122884D02*
X4659479Y-14113360D01*
X4659479Y-14113360D02*
X4669002Y-14103836D01*
X4669002Y-14103836D02*
X4669002Y-14122884D01*
X4745193Y-13922884D02*
X4869002Y-13922884D01*
X4869002Y-13922884D02*
X4802336Y-13999074D01*
X4802336Y-13999074D02*
X4830907Y-13999074D01*
X4830907Y-13999074D02*
X4849955Y-14008598D01*
X4849955Y-14008598D02*
X4859479Y-14018122D01*
X4859479Y-14018122D02*
X4869002Y-14037169D01*
X4869002Y-14037169D02*
X4869002Y-14084788D01*
X4869002Y-14084788D02*
X4859479Y-14103836D01*
X4859479Y-14103836D02*
X4849955Y-14113360D01*
X4849955Y-14113360D02*
X4830907Y-14122884D01*
X4830907Y-14122884D02*
X4773764Y-14122884D01*
X4773764Y-14122884D02*
X4754717Y-14113360D01*
X4754717Y-14113360D02*
X4745193Y-14103836D01*
X4992812Y-13922884D02*
X5011860Y-13922884D01*
X5011860Y-13922884D02*
X5030907Y-13932408D01*
X5030907Y-13932408D02*
X5040431Y-13941931D01*
X5040431Y-13941931D02*
X5049955Y-13960979D01*
X5049955Y-13960979D02*
X5059479Y-13999074D01*
X5059479Y-13999074D02*
X5059479Y-14046693D01*
X5059479Y-14046693D02*
X5049955Y-14084788D01*
X5049955Y-14084788D02*
X5040431Y-14103836D01*
X5040431Y-14103836D02*
X5030907Y-14113360D01*
X5030907Y-14113360D02*
X5011860Y-14122884D01*
X5011860Y-14122884D02*
X4992812Y-14122884D01*
X4992812Y-14122884D02*
X4973764Y-14113360D01*
X4973764Y-14113360D02*
X4964240Y-14103836D01*
X4964240Y-14103836D02*
X4954717Y-14084788D01*
X4954717Y-14084788D02*
X4945193Y-14046693D01*
X4945193Y-14046693D02*
X4945193Y-13999074D01*
X4945193Y-13999074D02*
X4954717Y-13960979D01*
X4954717Y-13960979D02*
X4964240Y-13941931D01*
X4964240Y-13941931D02*
X4973764Y-13932408D01*
X4973764Y-13932408D02*
X4992812Y-13922884D01*
X5183288Y-13922884D02*
X5202336Y-13922884D01*
X5202336Y-13922884D02*
X5221383Y-13932408D01*
X5221383Y-13932408D02*
X5230907Y-13941931D01*
X5230907Y-13941931D02*
X5240431Y-13960979D01*
X5240431Y-13960979D02*
X5249955Y-13999074D01*
X5249955Y-13999074D02*
X5249955Y-14046693D01*
X5249955Y-14046693D02*
X5240431Y-14084788D01*
X5240431Y-14084788D02*
X5230907Y-14103836D01*
X5230907Y-14103836D02*
X5221383Y-14113360D01*
X5221383Y-14113360D02*
X5202336Y-14122884D01*
X5202336Y-14122884D02*
X5183288Y-14122884D01*
X5183288Y-14122884D02*
X5164240Y-14113360D01*
X5164240Y-14113360D02*
X5154717Y-14103836D01*
X5154717Y-14103836D02*
X5145193Y-14084788D01*
X5145193Y-14084788D02*
X5135669Y-14046693D01*
X5135669Y-14046693D02*
X5135669Y-13999074D01*
X5135669Y-13999074D02*
X5145193Y-13960979D01*
X5145193Y-13960979D02*
X5154717Y-13941931D01*
X5154717Y-13941931D02*
X5164240Y-13932408D01*
X5164240Y-13932408D02*
X5183288Y-13922884D01*
X5335669Y-14122884D02*
X5335669Y-13989550D01*
X5335669Y-14008598D02*
X5345193Y-13999074D01*
X5345193Y-13999074D02*
X5364240Y-13989550D01*
X5364240Y-13989550D02*
X5392812Y-13989550D01*
X5392812Y-13989550D02*
X5411860Y-13999074D01*
X5411860Y-13999074D02*
X5421383Y-14018122D01*
X5421383Y-14018122D02*
X5421383Y-14122884D01*
X5421383Y-14018122D02*
X5430907Y-13999074D01*
X5430907Y-13999074D02*
X5449955Y-13989550D01*
X5449955Y-13989550D02*
X5478526Y-13989550D01*
X5478526Y-13989550D02*
X5497574Y-13999074D01*
X5497574Y-13999074D02*
X5507098Y-14018122D01*
X5507098Y-14018122D02*
X5507098Y-14122884D01*
X5602336Y-14122884D02*
X5602336Y-13989550D01*
X5602336Y-14008598D02*
X5611859Y-13999074D01*
X5611859Y-13999074D02*
X5630907Y-13989550D01*
X5630907Y-13989550D02*
X5659479Y-13989550D01*
X5659479Y-13989550D02*
X5678526Y-13999074D01*
X5678526Y-13999074D02*
X5688050Y-14018122D01*
X5688050Y-14018122D02*
X5688050Y-14122884D01*
X5688050Y-14018122D02*
X5697574Y-13999074D01*
X5697574Y-13999074D02*
X5716621Y-13989550D01*
X5716621Y-13989550D02*
X5745193Y-13989550D01*
X5745193Y-13989550D02*
X5764240Y-13999074D01*
X5764240Y-13999074D02*
X5773764Y-14018122D01*
X5773764Y-14018122D02*
X5773764Y-14122884D01*
X6164240Y-13913360D02*
X5992812Y-14170503D01*
X6421383Y-13922884D02*
X6440431Y-13922884D01*
X6440431Y-13922884D02*
X6459479Y-13932408D01*
X6459479Y-13932408D02*
X6469002Y-13941931D01*
X6469002Y-13941931D02*
X6478526Y-13960979D01*
X6478526Y-13960979D02*
X6488050Y-13999074D01*
X6488050Y-13999074D02*
X6488050Y-14046693D01*
X6488050Y-14046693D02*
X6478526Y-14084788D01*
X6478526Y-14084788D02*
X6469002Y-14103836D01*
X6469002Y-14103836D02*
X6459479Y-14113360D01*
X6459479Y-14113360D02*
X6440431Y-14122884D01*
X6440431Y-14122884D02*
X6421383Y-14122884D01*
X6421383Y-14122884D02*
X6402336Y-14113360D01*
X6402336Y-14113360D02*
X6392812Y-14103836D01*
X6392812Y-14103836D02*
X6383288Y-14084788D01*
X6383288Y-14084788D02*
X6373764Y-14046693D01*
X6373764Y-14046693D02*
X6373764Y-13999074D01*
X6373764Y-13999074D02*
X6383288Y-13960979D01*
X6383288Y-13960979D02*
X6392812Y-13941931D01*
X6392812Y-13941931D02*
X6402336Y-13932408D01*
X6402336Y-13932408D02*
X6421383Y-13922884D01*
X6573764Y-14103836D02*
X6583288Y-14113360D01*
X6583288Y-14113360D02*
X6573764Y-14122884D01*
X6573764Y-14122884D02*
X6564241Y-14113360D01*
X6564241Y-14113360D02*
X6573764Y-14103836D01*
X6573764Y-14103836D02*
X6573764Y-14122884D01*
X6707098Y-13922884D02*
X6726145Y-13922884D01*
X6726145Y-13922884D02*
X6745193Y-13932408D01*
X6745193Y-13932408D02*
X6754717Y-13941931D01*
X6754717Y-13941931D02*
X6764241Y-13960979D01*
X6764241Y-13960979D02*
X6773764Y-13999074D01*
X6773764Y-13999074D02*
X6773764Y-14046693D01*
X6773764Y-14046693D02*
X6764241Y-14084788D01*
X6764241Y-14084788D02*
X6754717Y-14103836D01*
X6754717Y-14103836D02*
X6745193Y-14113360D01*
X6745193Y-14113360D02*
X6726145Y-14122884D01*
X6726145Y-14122884D02*
X6707098Y-14122884D01*
X6707098Y-14122884D02*
X6688050Y-14113360D01*
X6688050Y-14113360D02*
X6678526Y-14103836D01*
X6678526Y-14103836D02*
X6669002Y-14084788D01*
X6669002Y-14084788D02*
X6659479Y-14046693D01*
X6659479Y-14046693D02*
X6659479Y-13999074D01*
X6659479Y-13999074D02*
X6669002Y-13960979D01*
X6669002Y-13960979D02*
X6678526Y-13941931D01*
X6678526Y-13941931D02*
X6688050Y-13932408D01*
X6688050Y-13932408D02*
X6707098Y-13922884D01*
X6869002Y-14122884D02*
X6907098Y-14122884D01*
X6907098Y-14122884D02*
X6926145Y-14113360D01*
X6926145Y-14113360D02*
X6935669Y-14103836D01*
X6935669Y-14103836D02*
X6954717Y-14075265D01*
X6954717Y-14075265D02*
X6964241Y-14037169D01*
X6964241Y-14037169D02*
X6964241Y-13960979D01*
X6964241Y-13960979D02*
X6954717Y-13941931D01*
X6954717Y-13941931D02*
X6945193Y-13932408D01*
X6945193Y-13932408D02*
X6926145Y-13922884D01*
X6926145Y-13922884D02*
X6888050Y-13922884D01*
X6888050Y-13922884D02*
X6869002Y-13932408D01*
X6869002Y-13932408D02*
X6859479Y-13941931D01*
X6859479Y-13941931D02*
X6849955Y-13960979D01*
X6849955Y-13960979D02*
X6849955Y-14008598D01*
X6849955Y-14008598D02*
X6859479Y-14027646D01*
X6859479Y-14027646D02*
X6869002Y-14037169D01*
X6869002Y-14037169D02*
X6888050Y-14046693D01*
X6888050Y-14046693D02*
X6926145Y-14046693D01*
X6926145Y-14046693D02*
X6945193Y-14037169D01*
X6945193Y-14037169D02*
X6954717Y-14027646D01*
X6954717Y-14027646D02*
X6964241Y-14008598D01*
X7088050Y-13922884D02*
X7107098Y-13922884D01*
X7107098Y-13922884D02*
X7126145Y-13932408D01*
X7126145Y-13932408D02*
X7135669Y-13941931D01*
X7135669Y-13941931D02*
X7145193Y-13960979D01*
X7145193Y-13960979D02*
X7154717Y-13999074D01*
X7154717Y-13999074D02*
X7154717Y-14046693D01*
X7154717Y-14046693D02*
X7145193Y-14084788D01*
X7145193Y-14084788D02*
X7135669Y-14103836D01*
X7135669Y-14103836D02*
X7126145Y-14113360D01*
X7126145Y-14113360D02*
X7107098Y-14122884D01*
X7107098Y-14122884D02*
X7088050Y-14122884D01*
X7088050Y-14122884D02*
X7069002Y-14113360D01*
X7069002Y-14113360D02*
X7059479Y-14103836D01*
X7059479Y-14103836D02*
X7049955Y-14084788D01*
X7049955Y-14084788D02*
X7040431Y-14046693D01*
X7040431Y-14046693D02*
X7040431Y-13999074D01*
X7040431Y-13999074D02*
X7049955Y-13960979D01*
X7049955Y-13960979D02*
X7059479Y-13941931D01*
X7059479Y-13941931D02*
X7069002Y-13932408D01*
X7069002Y-13932408D02*
X7088050Y-13922884D01*
X7326145Y-13922884D02*
X7288050Y-13922884D01*
X7288050Y-13922884D02*
X7269002Y-13932408D01*
X7269002Y-13932408D02*
X7259479Y-13941931D01*
X7259479Y-13941931D02*
X7240431Y-13970503D01*
X7240431Y-13970503D02*
X7230907Y-14008598D01*
X7230907Y-14008598D02*
X7230907Y-14084788D01*
X7230907Y-14084788D02*
X7240431Y-14103836D01*
X7240431Y-14103836D02*
X7249955Y-14113360D01*
X7249955Y-14113360D02*
X7269002Y-14122884D01*
X7269002Y-14122884D02*
X7307098Y-14122884D01*
X7307098Y-14122884D02*
X7326145Y-14113360D01*
X7326145Y-14113360D02*
X7335669Y-14103836D01*
X7335669Y-14103836D02*
X7345193Y-14084788D01*
X7345193Y-14084788D02*
X7345193Y-14037169D01*
X7345193Y-14037169D02*
X7335669Y-14018122D01*
X7335669Y-14018122D02*
X7326145Y-14008598D01*
X7326145Y-14008598D02*
X7307098Y-13999074D01*
X7307098Y-13999074D02*
X7269002Y-13999074D01*
X7269002Y-13999074D02*
X7249955Y-14008598D01*
X7249955Y-14008598D02*
X7240431Y-14018122D01*
X7240431Y-14018122D02*
X7230907Y-14037169D01*
X7421383Y-13922884D02*
X7421383Y-13960979D01*
X7497574Y-13922884D02*
X7497574Y-13960979D01*
X7792812Y-14199074D02*
X7783288Y-14189550D01*
X7783288Y-14189550D02*
X7764241Y-14160979D01*
X7764241Y-14160979D02*
X7754717Y-14141931D01*
X7754717Y-14141931D02*
X7745193Y-14113360D01*
X7745193Y-14113360D02*
X7735669Y-14065741D01*
X7735669Y-14065741D02*
X7735669Y-14027646D01*
X7735669Y-14027646D02*
X7745193Y-13980027D01*
X7745193Y-13980027D02*
X7754717Y-13951455D01*
X7754717Y-13951455D02*
X7764241Y-13932408D01*
X7764241Y-13932408D02*
X7783288Y-13903836D01*
X7783288Y-13903836D02*
X7792812Y-13894312D01*
X7973764Y-14122884D02*
X7859479Y-14122884D01*
X7916622Y-14122884D02*
X7916622Y-13922884D01*
X7916622Y-13922884D02*
X7897574Y-13951455D01*
X7897574Y-13951455D02*
X7878526Y-13970503D01*
X7878526Y-13970503D02*
X7859479Y-13980027D01*
X8097574Y-13922884D02*
X8116622Y-13922884D01*
X8116622Y-13922884D02*
X8135669Y-13932408D01*
X8135669Y-13932408D02*
X8145193Y-13941931D01*
X8145193Y-13941931D02*
X8154717Y-13960979D01*
X8154717Y-13960979D02*
X8164241Y-13999074D01*
X8164241Y-13999074D02*
X8164241Y-14046693D01*
X8164241Y-14046693D02*
X8154717Y-14084788D01*
X8154717Y-14084788D02*
X8145193Y-14103836D01*
X8145193Y-14103836D02*
X8135669Y-14113360D01*
X8135669Y-14113360D02*
X8116622Y-14122884D01*
X8116622Y-14122884D02*
X8097574Y-14122884D01*
X8097574Y-14122884D02*
X8078526Y-14113360D01*
X8078526Y-14113360D02*
X8069003Y-14103836D01*
X8069003Y-14103836D02*
X8059479Y-14084788D01*
X8059479Y-14084788D02*
X8049955Y-14046693D01*
X8049955Y-14046693D02*
X8049955Y-13999074D01*
X8049955Y-13999074D02*
X8059479Y-13960979D01*
X8059479Y-13960979D02*
X8069003Y-13941931D01*
X8069003Y-13941931D02*
X8078526Y-13932408D01*
X8078526Y-13932408D02*
X8097574Y-13922884D01*
X8402336Y-14122884D02*
X8402336Y-13922884D01*
X8488050Y-14122884D02*
X8488050Y-14018122D01*
X8488050Y-14018122D02*
X8478527Y-13999074D01*
X8478527Y-13999074D02*
X8459479Y-13989550D01*
X8459479Y-13989550D02*
X8430907Y-13989550D01*
X8430907Y-13989550D02*
X8411860Y-13999074D01*
X8411860Y-13999074D02*
X8402336Y-14008598D01*
X8611860Y-14122884D02*
X8592812Y-14113360D01*
X8592812Y-14113360D02*
X8583288Y-14103836D01*
X8583288Y-14103836D02*
X8573765Y-14084788D01*
X8573765Y-14084788D02*
X8573765Y-14027646D01*
X8573765Y-14027646D02*
X8583288Y-14008598D01*
X8583288Y-14008598D02*
X8592812Y-13999074D01*
X8592812Y-13999074D02*
X8611860Y-13989550D01*
X8611860Y-13989550D02*
X8640431Y-13989550D01*
X8640431Y-13989550D02*
X8659479Y-13999074D01*
X8659479Y-13999074D02*
X8669003Y-14008598D01*
X8669003Y-14008598D02*
X8678527Y-14027646D01*
X8678527Y-14027646D02*
X8678527Y-14084788D01*
X8678527Y-14084788D02*
X8669003Y-14103836D01*
X8669003Y-14103836D02*
X8659479Y-14113360D01*
X8659479Y-14113360D02*
X8640431Y-14122884D01*
X8640431Y-14122884D02*
X8611860Y-14122884D01*
X8792812Y-14122884D02*
X8773765Y-14113360D01*
X8773765Y-14113360D02*
X8764241Y-14094312D01*
X8764241Y-14094312D02*
X8764241Y-13922884D01*
X8945193Y-14113360D02*
X8926146Y-14122884D01*
X8926146Y-14122884D02*
X8888050Y-14122884D01*
X8888050Y-14122884D02*
X8869003Y-14113360D01*
X8869003Y-14113360D02*
X8859479Y-14094312D01*
X8859479Y-14094312D02*
X8859479Y-14018122D01*
X8859479Y-14018122D02*
X8869003Y-13999074D01*
X8869003Y-13999074D02*
X8888050Y-13989550D01*
X8888050Y-13989550D02*
X8926146Y-13989550D01*
X8926146Y-13989550D02*
X8945193Y-13999074D01*
X8945193Y-13999074D02*
X8954717Y-14018122D01*
X8954717Y-14018122D02*
X8954717Y-14037169D01*
X8954717Y-14037169D02*
X8859479Y-14056217D01*
X9030908Y-14113360D02*
X9049955Y-14122884D01*
X9049955Y-14122884D02*
X9088050Y-14122884D01*
X9088050Y-14122884D02*
X9107098Y-14113360D01*
X9107098Y-14113360D02*
X9116622Y-14094312D01*
X9116622Y-14094312D02*
X9116622Y-14084788D01*
X9116622Y-14084788D02*
X9107098Y-14065741D01*
X9107098Y-14065741D02*
X9088050Y-14056217D01*
X9088050Y-14056217D02*
X9059479Y-14056217D01*
X9059479Y-14056217D02*
X9040431Y-14046693D01*
X9040431Y-14046693D02*
X9030908Y-14027646D01*
X9030908Y-14027646D02*
X9030908Y-14018122D01*
X9030908Y-14018122D02*
X9040431Y-13999074D01*
X9040431Y-13999074D02*
X9059479Y-13989550D01*
X9059479Y-13989550D02*
X9088050Y-13989550D01*
X9088050Y-13989550D02*
X9107098Y-13999074D01*
X9183289Y-14199074D02*
X9192812Y-14189550D01*
X9192812Y-14189550D02*
X9211860Y-14160979D01*
X9211860Y-14160979D02*
X9221384Y-14141931D01*
X9221384Y-14141931D02*
X9230908Y-14113360D01*
X9230908Y-14113360D02*
X9240431Y-14065741D01*
X9240431Y-14065741D02*
X9240431Y-14027646D01*
X9240431Y-14027646D02*
X9230908Y-13980027D01*
X9230908Y-13980027D02*
X9221384Y-13951455D01*
X9221384Y-13951455D02*
X9211860Y-13932408D01*
X9211860Y-13932408D02*
X9192812Y-13903836D01*
X9192812Y-13903836D02*
X9183289Y-13894312D01*
M02*
