M48
; DRILL file {KiCad 7.0.7} date Tue May 14 22:52:38 2024
; FORMAT={-:-/ absolute / metric / decimal}
; #@! TF.CreationDate,2024-05-14T22:52:38+02:00
; #@! TF.GenerationSoftware,Kicad,Pcbnew,7.0.7
; #@! TF.FileFunction,Plated,1,2,PTH
FMAT,2
METRIC
; #@! TA.AperFunction,Plated,PTH,ViaDrill
T1C0.300
; #@! TA.AperFunction,Plated,PTH,ViaDrill
T2C2.300
%
G90
G05
T1
X56.704Y-117.924
X57.404Y-117.924
X58.104Y-117.924
X58.804Y-117.924
X59.504Y-117.924
X129.03Y-117.024
X130.93Y-118.774
X133.205Y-129.199
X133.596Y-106.514
X133.696Y-107.624
X133.83Y-128.374
X136.08Y-116.774
X136.73Y-119.274
X138.53Y-116.774
X144.485Y-119.529
X177.755Y-118.149
X179.58Y-107.774
X179.58Y-129.424
X179.86Y-119.384
X180.67Y-125.694
X181.68Y-117.524
X185.53Y-108.424
X186.23Y-110.774
X187.485Y-119.399
X205.51Y-117.094
X205.56Y-118.724
X215.84Y-117.884
X217.53Y-107.924
X217.655Y-129.492
X218.19Y-121.744
X219.43Y-106.924
X219.47Y-111.634
X220.49Y-120.554
X224.43Y-118.224
X225.94Y-116.904
X227.49Y-120.024
T2
X134.83Y-115.124
X134.83Y-120.724
X141.33Y-115.124
X141.33Y-120.724
X181.23Y-115.124
X181.23Y-120.724
X184.53Y-115.124
X184.53Y-120.724
X218.18Y-117.924
X222.03Y-117.924
T0
M30
