G04 #@! TF.GenerationSoftware,KiCad,Pcbnew,7.0.7*
G04 #@! TF.CreationDate,2024-05-14T22:52:39+02:00*
G04 #@! TF.ProjectId,Index_Middle_Ring_V3,496e6465-785f-44d6-9964-646c655f5269,rev?*
G04 #@! TF.SameCoordinates,Original*
G04 #@! TF.FileFunction,Legend,Bot*
G04 #@! TF.FilePolarity,Positive*
%FSLAX46Y46*%
G04 Gerber Fmt 4.6, Leading zero omitted, Abs format (unit mm)*
G04 Created by KiCad (PCBNEW 7.0.7) date 2024-05-14 22:52:39*
%MOMM*%
%LPD*%
G01*
G04 APERTURE LIST*
%ADD10C,0.100000*%
G04 APERTURE END LIST*
D10*
X55754866Y-119561544D02*
X56454866Y-119561544D01*
X56221533Y-119228211D02*
X55754866Y-119228211D01*
X56154866Y-119228211D02*
X56188200Y-119194878D01*
X56188200Y-119194878D02*
X56221533Y-119128211D01*
X56221533Y-119128211D02*
X56221533Y-119028211D01*
X56221533Y-119028211D02*
X56188200Y-118961544D01*
X56188200Y-118961544D02*
X56121533Y-118928211D01*
X56121533Y-118928211D02*
X55754866Y-118928211D01*
X55754866Y-118294878D02*
X56454866Y-118294878D01*
X55788200Y-118294878D02*
X55754866Y-118361545D01*
X55754866Y-118361545D02*
X55754866Y-118494878D01*
X55754866Y-118494878D02*
X55788200Y-118561545D01*
X55788200Y-118561545D02*
X55821533Y-118594878D01*
X55821533Y-118594878D02*
X55888200Y-118628211D01*
X55888200Y-118628211D02*
X56088200Y-118628211D01*
X56088200Y-118628211D02*
X56154866Y-118594878D01*
X56154866Y-118594878D02*
X56188200Y-118561545D01*
X56188200Y-118561545D02*
X56221533Y-118494878D01*
X56221533Y-118494878D02*
X56221533Y-118361545D01*
X56221533Y-118361545D02*
X56188200Y-118294878D01*
X55788200Y-117694878D02*
X55754866Y-117761545D01*
X55754866Y-117761545D02*
X55754866Y-117894878D01*
X55754866Y-117894878D02*
X55788200Y-117961545D01*
X55788200Y-117961545D02*
X55854866Y-117994878D01*
X55854866Y-117994878D02*
X56121533Y-117994878D01*
X56121533Y-117994878D02*
X56188200Y-117961545D01*
X56188200Y-117961545D02*
X56221533Y-117894878D01*
X56221533Y-117894878D02*
X56221533Y-117761545D01*
X56221533Y-117761545D02*
X56188200Y-117694878D01*
X56188200Y-117694878D02*
X56121533Y-117661545D01*
X56121533Y-117661545D02*
X56054866Y-117661545D01*
X56054866Y-117661545D02*
X55988200Y-117994878D01*
X55754866Y-117428212D02*
X56221533Y-117061545D01*
X56221533Y-117428212D02*
X55754866Y-117061545D01*
X55688200Y-116961545D02*
X55688200Y-116428211D01*
X54627866Y-119561544D02*
X55327866Y-119561544D01*
X55327866Y-119561544D02*
X54827866Y-119328211D01*
X54827866Y-119328211D02*
X55327866Y-119094877D01*
X55327866Y-119094877D02*
X54627866Y-119094877D01*
X54627866Y-118761544D02*
X55094533Y-118761544D01*
X55327866Y-118761544D02*
X55294533Y-118794877D01*
X55294533Y-118794877D02*
X55261200Y-118761544D01*
X55261200Y-118761544D02*
X55294533Y-118728211D01*
X55294533Y-118728211D02*
X55327866Y-118761544D01*
X55327866Y-118761544D02*
X55261200Y-118761544D01*
X54627866Y-118128211D02*
X55327866Y-118128211D01*
X54661200Y-118128211D02*
X54627866Y-118194878D01*
X54627866Y-118194878D02*
X54627866Y-118328211D01*
X54627866Y-118328211D02*
X54661200Y-118394878D01*
X54661200Y-118394878D02*
X54694533Y-118428211D01*
X54694533Y-118428211D02*
X54761200Y-118461544D01*
X54761200Y-118461544D02*
X54961200Y-118461544D01*
X54961200Y-118461544D02*
X55027866Y-118428211D01*
X55027866Y-118428211D02*
X55061200Y-118394878D01*
X55061200Y-118394878D02*
X55094533Y-118328211D01*
X55094533Y-118328211D02*
X55094533Y-118194878D01*
X55094533Y-118194878D02*
X55061200Y-118128211D01*
X54627866Y-117494878D02*
X55327866Y-117494878D01*
X54661200Y-117494878D02*
X54627866Y-117561545D01*
X54627866Y-117561545D02*
X54627866Y-117694878D01*
X54627866Y-117694878D02*
X54661200Y-117761545D01*
X54661200Y-117761545D02*
X54694533Y-117794878D01*
X54694533Y-117794878D02*
X54761200Y-117828211D01*
X54761200Y-117828211D02*
X54961200Y-117828211D01*
X54961200Y-117828211D02*
X55027866Y-117794878D01*
X55027866Y-117794878D02*
X55061200Y-117761545D01*
X55061200Y-117761545D02*
X55094533Y-117694878D01*
X55094533Y-117694878D02*
X55094533Y-117561545D01*
X55094533Y-117561545D02*
X55061200Y-117494878D01*
X54627866Y-117061545D02*
X54661200Y-117128212D01*
X54661200Y-117128212D02*
X54727866Y-117161545D01*
X54727866Y-117161545D02*
X55327866Y-117161545D01*
X54661200Y-116528211D02*
X54627866Y-116594878D01*
X54627866Y-116594878D02*
X54627866Y-116728211D01*
X54627866Y-116728211D02*
X54661200Y-116794878D01*
X54661200Y-116794878D02*
X54727866Y-116828211D01*
X54727866Y-116828211D02*
X54994533Y-116828211D01*
X54994533Y-116828211D02*
X55061200Y-116794878D01*
X55061200Y-116794878D02*
X55094533Y-116728211D01*
X55094533Y-116728211D02*
X55094533Y-116594878D01*
X55094533Y-116594878D02*
X55061200Y-116528211D01*
X55061200Y-116528211D02*
X54994533Y-116494878D01*
X54994533Y-116494878D02*
X54927866Y-116494878D01*
X54927866Y-116494878D02*
X54861200Y-116828211D01*
X54561200Y-116361545D02*
X54561200Y-115828211D01*
X53500866Y-119161544D02*
X53834200Y-119394877D01*
X53500866Y-119561544D02*
X54200866Y-119561544D01*
X54200866Y-119561544D02*
X54200866Y-119294877D01*
X54200866Y-119294877D02*
X54167533Y-119228211D01*
X54167533Y-119228211D02*
X54134200Y-119194877D01*
X54134200Y-119194877D02*
X54067533Y-119161544D01*
X54067533Y-119161544D02*
X53967533Y-119161544D01*
X53967533Y-119161544D02*
X53900866Y-119194877D01*
X53900866Y-119194877D02*
X53867533Y-119228211D01*
X53867533Y-119228211D02*
X53834200Y-119294877D01*
X53834200Y-119294877D02*
X53834200Y-119561544D01*
X53500866Y-118861544D02*
X53967533Y-118861544D01*
X54200866Y-118861544D02*
X54167533Y-118894877D01*
X54167533Y-118894877D02*
X54134200Y-118861544D01*
X54134200Y-118861544D02*
X54167533Y-118828211D01*
X54167533Y-118828211D02*
X54200866Y-118861544D01*
X54200866Y-118861544D02*
X54134200Y-118861544D01*
X53967533Y-118528211D02*
X53500866Y-118528211D01*
X53900866Y-118528211D02*
X53934200Y-118494878D01*
X53934200Y-118494878D02*
X53967533Y-118428211D01*
X53967533Y-118428211D02*
X53967533Y-118328211D01*
X53967533Y-118328211D02*
X53934200Y-118261544D01*
X53934200Y-118261544D02*
X53867533Y-118228211D01*
X53867533Y-118228211D02*
X53500866Y-118228211D01*
X53967533Y-117594878D02*
X53400866Y-117594878D01*
X53400866Y-117594878D02*
X53334200Y-117628211D01*
X53334200Y-117628211D02*
X53300866Y-117661545D01*
X53300866Y-117661545D02*
X53267533Y-117728211D01*
X53267533Y-117728211D02*
X53267533Y-117828211D01*
X53267533Y-117828211D02*
X53300866Y-117894878D01*
X53534200Y-117594878D02*
X53500866Y-117661545D01*
X53500866Y-117661545D02*
X53500866Y-117794878D01*
X53500866Y-117794878D02*
X53534200Y-117861545D01*
X53534200Y-117861545D02*
X53567533Y-117894878D01*
X53567533Y-117894878D02*
X53634200Y-117928211D01*
X53634200Y-117928211D02*
X53834200Y-117928211D01*
X53834200Y-117928211D02*
X53900866Y-117894878D01*
X53900866Y-117894878D02*
X53934200Y-117861545D01*
X53934200Y-117861545D02*
X53967533Y-117794878D01*
X53967533Y-117794878D02*
X53967533Y-117661545D01*
X53967533Y-117661545D02*
X53934200Y-117594878D01*
X53434200Y-117428212D02*
X53434200Y-116894878D01*
X54200866Y-116828212D02*
X53500866Y-116594879D01*
X53500866Y-116594879D02*
X54200866Y-116361545D01*
X54200866Y-116194879D02*
X54200866Y-115761545D01*
X54200866Y-115761545D02*
X53934200Y-115994879D01*
X53934200Y-115994879D02*
X53934200Y-115894879D01*
X53934200Y-115894879D02*
X53900866Y-115828212D01*
X53900866Y-115828212D02*
X53867533Y-115794879D01*
X53867533Y-115794879D02*
X53800866Y-115761545D01*
X53800866Y-115761545D02*
X53634200Y-115761545D01*
X53634200Y-115761545D02*
X53567533Y-115794879D01*
X53567533Y-115794879D02*
X53534200Y-115828212D01*
X53534200Y-115828212D02*
X53500866Y-115894879D01*
X53500866Y-115894879D02*
X53500866Y-116094879D01*
X53500866Y-116094879D02*
X53534200Y-116161545D01*
X53534200Y-116161545D02*
X53567533Y-116194879D01*
G36*
X63339317Y-118244077D02*
G01*
X63650118Y-118246020D01*
X63652023Y-118839704D01*
X63653929Y-119433388D01*
X63341223Y-119433388D01*
X63028517Y-119433388D01*
X63028517Y-118837761D01*
X63028517Y-118242134D01*
X63339317Y-118244077D01*
G37*
G36*
X63021073Y-117974302D02*
G01*
X63021073Y-118242298D01*
X62343640Y-118242298D01*
X61666208Y-118242298D01*
X61666208Y-117974302D01*
X61666208Y-117706307D01*
X62343640Y-117706307D01*
X63021073Y-117706307D01*
X63021073Y-117974302D01*
G37*
G36*
X69028635Y-117110762D02*
G01*
X69028635Y-117706307D01*
X68712251Y-117706307D01*
X68395868Y-117706307D01*
X68395868Y-117378757D01*
X68395868Y-117051207D01*
X67655159Y-117051207D01*
X66914449Y-117051207D01*
X66914449Y-116783212D01*
X66914449Y-116515217D01*
X67971542Y-116515217D01*
X69028635Y-116515217D01*
X69028635Y-117110762D01*
G37*
G36*
X63653840Y-117110762D02*
G01*
X63653840Y-117706307D01*
X63337456Y-117706307D01*
X63021073Y-117706307D01*
X63021073Y-117378757D01*
X63021073Y-117051207D01*
X62280364Y-117051207D01*
X61539655Y-117051207D01*
X61539655Y-116783212D01*
X61539655Y-116515217D01*
X62596747Y-116515217D01*
X63653840Y-116515217D01*
X63653840Y-117110762D01*
G37*
G36*
X61085551Y-117974302D02*
G01*
X61085551Y-119433388D01*
X60028459Y-119433388D01*
X58971366Y-119433388D01*
X58971366Y-119165393D01*
X58971366Y-118897397D01*
X59712075Y-118897397D01*
X60452785Y-118897397D01*
X60452785Y-117706307D01*
X60452785Y-116515217D01*
X60769168Y-116515217D01*
X61085551Y-116515217D01*
X61085551Y-117974302D01*
G37*
G36*
X68712251Y-118242298D02*
G01*
X69028635Y-118242298D01*
X69028635Y-118837843D01*
X69028635Y-119433388D01*
X67971542Y-119433388D01*
X66914449Y-119433388D01*
X66914449Y-119165393D01*
X66914449Y-118897397D01*
X67655159Y-118897397D01*
X68395868Y-118897397D01*
X68395868Y-118569847D01*
X68395868Y-118242298D01*
X68712251Y-118242298D01*
G37*
G36*
X68395868Y-117974302D02*
G01*
X68395868Y-118242298D01*
X67718435Y-118242298D01*
X67041003Y-118242298D01*
X67041003Y-117974302D01*
X67041003Y-117706307D01*
X67718435Y-117706307D01*
X68395868Y-117706307D01*
X68395868Y-117974302D01*
G37*
G36*
X66371014Y-117974000D02*
G01*
X66371014Y-119433388D01*
X66058353Y-119433388D01*
X65745692Y-119433388D01*
X65745692Y-118838269D01*
X65745692Y-118243151D01*
X65300894Y-118240580D01*
X65224178Y-118240125D01*
X65142422Y-118239585D01*
X65073151Y-118239019D01*
X65015040Y-118238379D01*
X64966765Y-118237615D01*
X64927002Y-118236679D01*
X64894424Y-118235523D01*
X64867709Y-118234096D01*
X64845531Y-118232350D01*
X64826566Y-118230237D01*
X64809489Y-118227707D01*
X64792975Y-118224712D01*
X64775700Y-118221202D01*
X64714696Y-118206762D01*
X64604894Y-118171642D01*
X64502785Y-118126790D01*
X64409543Y-118072930D01*
X64326346Y-118010782D01*
X64254369Y-117941070D01*
X64194788Y-117864514D01*
X64194004Y-117863332D01*
X64145591Y-117777346D01*
X64107294Y-117681611D01*
X64079655Y-117577764D01*
X64063216Y-117467441D01*
X64060064Y-117418659D01*
X64060827Y-117378280D01*
X64678147Y-117378280D01*
X64678474Y-117397219D01*
X64682233Y-117443408D01*
X64691279Y-117481321D01*
X64707023Y-117515569D01*
X64730872Y-117550763D01*
X64750227Y-117573588D01*
X64792245Y-117610168D01*
X64843933Y-117640485D01*
X64906874Y-117665387D01*
X64982650Y-117685722D01*
X64990842Y-117687484D01*
X65007923Y-117690721D01*
X65026305Y-117693433D01*
X65047500Y-117695687D01*
X65073015Y-117697550D01*
X65104362Y-117699089D01*
X65143049Y-117700370D01*
X65190586Y-117701460D01*
X65248482Y-117702427D01*
X65318248Y-117703336D01*
X65401393Y-117704255D01*
X65753136Y-117707939D01*
X65753136Y-117379573D01*
X65753136Y-117051207D01*
X65520502Y-117051246D01*
X65519938Y-117051246D01*
X65421645Y-117051751D01*
X65328617Y-117053181D01*
X65242228Y-117055471D01*
X65163851Y-117058556D01*
X65094860Y-117062373D01*
X65036629Y-117066856D01*
X64990532Y-117071943D01*
X64957942Y-117077567D01*
X64903370Y-117093537D01*
X64837726Y-117123055D01*
X64781194Y-117161039D01*
X64735411Y-117206336D01*
X64702013Y-117257795D01*
X64692666Y-117277450D01*
X64684620Y-117298253D01*
X64680194Y-117318580D01*
X64678374Y-117343550D01*
X64678147Y-117378280D01*
X64060827Y-117378280D01*
X64061951Y-117318821D01*
X64074245Y-117218681D01*
X64096268Y-117120925D01*
X64127345Y-117028240D01*
X64166798Y-116943310D01*
X64213953Y-116868822D01*
X64235692Y-116841105D01*
X64305395Y-116768103D01*
X64386863Y-116702993D01*
X64479149Y-116646308D01*
X64581304Y-116598583D01*
X64692381Y-116560351D01*
X64811431Y-116532148D01*
X64813271Y-116531807D01*
X64825829Y-116529759D01*
X64840306Y-116527937D01*
X64857630Y-116526326D01*
X64878727Y-116524906D01*
X64904523Y-116523662D01*
X64935944Y-116522576D01*
X64973917Y-116521632D01*
X65019368Y-116520811D01*
X65073224Y-116520097D01*
X65136410Y-116519473D01*
X65209853Y-116518922D01*
X65294479Y-116518426D01*
X65391215Y-116517968D01*
X65500988Y-116517531D01*
X65624722Y-116517098D01*
X66371014Y-116514612D01*
X66371014Y-117051207D01*
X66371014Y-117974000D01*
G37*
%LPC*%
%LPD*%
M02*
