G04 #@! TF.GenerationSoftware,KiCad,Pcbnew,7.0.7*
G04 #@! TF.CreationDate,2024-05-14T22:52:39+02:00*
G04 #@! TF.ProjectId,Index_Middle_Ring_V3,496e6465-785f-44d6-9964-646c655f5269,rev?*
G04 #@! TF.SameCoordinates,Original*
G04 #@! TF.FileFunction,Profile,NP*
%FSLAX46Y46*%
G04 Gerber Fmt 4.6, Leading zero omitted, Abs format (unit mm)*
G04 Created by KiCad (PCBNEW 7.0.7) date 2024-05-14 22:52:39*
%MOMM*%
%LPD*%
G01*
G04 APERTURE LIST*
G04 #@! TA.AperFunction,Profile*
%ADD10C,0.200000*%
G04 #@! TD*
G04 APERTURE END LIST*
D10*
X143877493Y-114774000D02*
X143877493Y-104674000D01*
X52117667Y-120374003D02*
G75*
G03*
X51282507Y-119924000I-835167J-549997D01*
G01*
X178627500Y-115024000D02*
G75*
G03*
X178877493Y-114774000I250000J0D01*
G01*
X178877493Y-121074007D02*
G75*
G03*
X178627493Y-120824000I7J250007D01*
G01*
X187127493Y-120824000D02*
X216627493Y-120824000D01*
X178877494Y-104674000D02*
X178877493Y-114774000D01*
X132027493Y-115024000D02*
X52952836Y-115024000D01*
X132027500Y-115024000D02*
G75*
G03*
X132277493Y-114774000I250000J0D01*
G01*
X42277493Y-119924000D02*
X51282507Y-119924000D01*
X216627500Y-115024000D02*
G75*
G03*
X216877493Y-114774000I250000J0D01*
G01*
X178877493Y-121074000D02*
X178877494Y-131174000D01*
X132277493Y-121074000D02*
X132277494Y-131174000D01*
X178877494Y-131174000D02*
X186877493Y-131174000D01*
X143877493Y-104674000D02*
X132277494Y-104674000D01*
X186877493Y-131174000D02*
X186877493Y-121073999D01*
X231177493Y-120824000D02*
X231177493Y-115024000D01*
X216877493Y-121074007D02*
G75*
G03*
X216627493Y-120824000I7J250007D01*
G01*
X186877493Y-104674000D02*
X178877494Y-104674000D01*
X51282507Y-115924005D02*
G75*
G03*
X52117671Y-115474000I-7J1000005D01*
G01*
X42277493Y-115924000D02*
X42277493Y-119924000D01*
X52117646Y-120374016D02*
G75*
G03*
X52952836Y-120824000I835154J550016D01*
G01*
X178627493Y-115024000D02*
X144127494Y-115024000D01*
X223177494Y-114774000D02*
X223177493Y-104674000D01*
X144127500Y-120824000D02*
G75*
G03*
X143877493Y-121074000I-250000J0D01*
G01*
X223177493Y-131174000D02*
X223177494Y-121074000D01*
X231177493Y-115024000D02*
X223427494Y-115024000D01*
X216877493Y-131174000D02*
X223177493Y-131174000D01*
X223427494Y-120824000D02*
X231177493Y-120824000D01*
X143877493Y-114774006D02*
G75*
G03*
X144127494Y-115024000I7J-249994D01*
G01*
X143877493Y-131174000D02*
X143877493Y-121074000D01*
X132277494Y-104674000D02*
X132277493Y-114774000D01*
X186877493Y-114774001D02*
X186877493Y-104674000D01*
X132277494Y-131174000D02*
X143877493Y-131174000D01*
X52952836Y-115024030D02*
G75*
G03*
X52117671Y-115474000I-36J-999970D01*
G01*
X132277493Y-121074007D02*
G75*
G03*
X132027493Y-120824000I7J250007D01*
G01*
X223177493Y-104674000D02*
X216877493Y-104674000D01*
X187127499Y-120824000D02*
G75*
G03*
X186877493Y-121073999I-249999J0D01*
G01*
X216877493Y-121074000D02*
X216877493Y-131174000D01*
X144127494Y-120824000D02*
X178627493Y-120824000D01*
X51282507Y-115924000D02*
X42277493Y-115924000D01*
X52952836Y-120824000D02*
X132027493Y-120824000D01*
X216877493Y-104674000D02*
X216877493Y-114774000D01*
X216627493Y-115024000D02*
X187127493Y-115024000D01*
X223427500Y-120824000D02*
G75*
G03*
X223177494Y-121074000I-250000J0D01*
G01*
X186877493Y-114774007D02*
G75*
G03*
X187127493Y-115024000I7J-249993D01*
G01*
X223177494Y-114774006D02*
G75*
G03*
X223427494Y-115024000I6J-249994D01*
G01*
M02*
