G04 #@! TF.GenerationSoftware,KiCad,Pcbnew,7.0.7*
G04 #@! TF.CreationDate,2024-05-14T22:52:39+02:00*
G04 #@! TF.ProjectId,Index_Middle_Ring_V3,496e6465-785f-44d6-9964-646c655f5269,rev?*
G04 #@! TF.SameCoordinates,Original*
G04 #@! TF.FileFunction,Copper,L2,Bot*
G04 #@! TF.FilePolarity,Positive*
%FSLAX46Y46*%
G04 Gerber Fmt 4.6, Leading zero omitted, Abs format (unit mm)*
G04 Created by KiCad (PCBNEW 7.0.7) date 2024-05-14 22:52:39*
%MOMM*%
%LPD*%
G01*
G04 APERTURE LIST*
G04 #@! TA.AperFunction,ViaPad*
%ADD10C,0.500000*%
G04 #@! TD*
G04 #@! TA.AperFunction,ViaPad*
%ADD11C,2.500000*%
G04 #@! TD*
G04 #@! TA.AperFunction,Conductor*
%ADD12C,0.250000*%
G04 #@! TD*
G04 APERTURE END LIST*
D10*
X129030000Y-117024000D03*
X217655000Y-129491500D03*
X179580000Y-129424000D03*
X217530000Y-107924000D03*
X177755000Y-118149000D03*
X215840000Y-117884000D03*
X179580000Y-107774000D03*
X225940000Y-116904000D03*
X133695998Y-107624000D03*
X220490000Y-120554000D03*
X179860000Y-119384000D03*
X136730000Y-119274000D03*
X144485000Y-119529000D03*
X227490000Y-120024000D03*
X187485000Y-119399000D03*
X181680000Y-117524000D03*
X185530000Y-108424000D03*
X136080000Y-116774000D03*
X138530000Y-116774000D03*
X219430000Y-106924000D03*
D11*
X218180000Y-117924000D03*
X181230000Y-120724000D03*
D10*
X218190000Y-121744000D03*
X58803726Y-117924000D03*
X205510000Y-117094000D03*
X180670000Y-125694000D03*
X219470000Y-111634000D03*
X133596000Y-106514000D03*
D11*
X184530000Y-115124000D03*
X184530000Y-120724000D03*
X222030000Y-117924000D03*
D10*
X186230000Y-110774000D03*
D11*
X141330000Y-120724000D03*
D10*
X56703725Y-117924000D03*
D11*
X181230000Y-115124000D03*
D10*
X205560000Y-118724000D03*
D11*
X141330000Y-115124000D03*
D10*
X224430001Y-118224000D03*
X133830000Y-128374000D03*
X58103723Y-117924000D03*
X59503725Y-117924000D03*
D11*
X134830000Y-115124000D03*
D10*
X57403724Y-117924000D03*
D11*
X134830000Y-120724000D03*
D10*
X133205000Y-129199000D03*
X130930000Y-118774000D03*
D12*
X129030000Y-117024000D02*
X132180000Y-117024000D01*
X217480000Y-125164000D02*
X219390000Y-123254000D01*
X219480000Y-115994000D02*
X220100000Y-116614000D01*
X177755000Y-118149000D02*
X179580000Y-116324000D01*
X220710000Y-113064000D02*
X220710000Y-111434000D01*
X133180000Y-116024000D02*
X133180000Y-108139998D01*
X215840000Y-117884000D02*
X215860000Y-117884000D01*
X215860000Y-117884000D02*
X217750000Y-115994000D01*
X217655000Y-129491500D02*
X217480000Y-129316500D01*
X225940000Y-116904000D02*
X225940000Y-117664000D01*
X219390000Y-120704000D02*
X220100000Y-119994000D01*
X220550000Y-119544000D02*
X220100000Y-119994000D01*
X224060000Y-119544000D02*
X220550000Y-119544000D01*
X217480000Y-129316500D02*
X217480000Y-125164000D01*
X132180000Y-117024000D02*
X133180000Y-116024000D01*
X220100000Y-119994000D02*
X220100000Y-116614000D01*
X217530000Y-108254000D02*
X217530000Y-107924000D01*
X219480000Y-115994000D02*
X217780000Y-115994000D01*
X217780000Y-115994000D02*
X217750000Y-115994000D01*
X225940000Y-117664000D02*
X224060000Y-119544000D01*
X219390000Y-123254000D02*
X219390000Y-120704000D01*
X179580000Y-116324000D02*
X179580000Y-107774000D01*
X220710000Y-111434000D02*
X217530000Y-108254000D01*
X177755000Y-118149000D02*
X179580000Y-119974000D01*
X217780000Y-115994000D02*
X220710000Y-113064000D01*
X133180000Y-108139998D02*
X133695998Y-107624000D01*
X179580000Y-119974000D02*
X179580000Y-129174000D01*
X227490000Y-120024000D02*
X222500000Y-120024000D01*
X179860000Y-119384000D02*
X180130000Y-119114000D01*
X187200000Y-119114000D02*
X187485000Y-119399000D01*
X144485000Y-119529000D02*
X143880000Y-118924000D01*
X137080000Y-118924000D02*
X136730000Y-119274000D01*
X143880000Y-118924000D02*
X137080000Y-118924000D01*
X180130000Y-119114000D02*
X187200000Y-119114000D01*
X221970000Y-120554000D02*
X220490000Y-120554000D01*
X222500000Y-120024000D02*
X221970000Y-120554000D01*
X185530000Y-108424000D02*
X185530000Y-109674000D01*
X185530000Y-109674000D02*
X182880000Y-112324000D01*
X182880000Y-116324000D02*
X181680000Y-117524000D01*
X182880000Y-112324000D02*
X182880000Y-116324000D01*
X138530000Y-116774000D02*
X136080000Y-116774000D01*
X130930000Y-118774000D02*
X132080000Y-118774000D01*
X132080000Y-118774000D02*
X133180000Y-119874000D01*
X133180000Y-119874000D02*
X133180000Y-129174000D01*
X133180000Y-129174000D02*
X133205000Y-129199000D01*
G04 #@! TA.AperFunction,Conductor*
G36*
X143536184Y-104993407D02*
G01*
X143572148Y-105042907D01*
X143576993Y-105073500D01*
X143576993Y-114505895D01*
X143558086Y-114564086D01*
X143543850Y-114578698D01*
X143544066Y-114578914D01*
X143436988Y-114685998D01*
X143364516Y-114811527D01*
X143327005Y-114951536D01*
X143327005Y-114951539D01*
X143327006Y-115096484D01*
X143327006Y-115096485D01*
X143364523Y-115236488D01*
X143437001Y-115362020D01*
X143467890Y-115392907D01*
X143539495Y-115464509D01*
X143665023Y-115536981D01*
X143665025Y-115536981D01*
X143665026Y-115536982D01*
X143675921Y-115539901D01*
X143805032Y-115574495D01*
X143949979Y-115574493D01*
X144089986Y-115536977D01*
X144208591Y-115468500D01*
X144215509Y-115464506D01*
X144215509Y-115464505D01*
X144215514Y-115464503D01*
X144318006Y-115362009D01*
X144318007Y-115362008D01*
X144322594Y-115357421D01*
X144323787Y-115358614D01*
X144367492Y-115328577D01*
X144395609Y-115324500D01*
X178359383Y-115324500D01*
X178417574Y-115343407D01*
X178432187Y-115357643D01*
X178432403Y-115357428D01*
X178514285Y-115439308D01*
X178539488Y-115464511D01*
X178665019Y-115536986D01*
X178665021Y-115536986D01*
X178665022Y-115536987D01*
X178665024Y-115536988D01*
X178720705Y-115551906D01*
X178805030Y-115574500D01*
X178949980Y-115574499D01*
X178955499Y-115574499D01*
X179013690Y-115593406D01*
X179049654Y-115642906D01*
X179054500Y-115673499D01*
X179054500Y-116065321D01*
X179035593Y-116123512D01*
X179025504Y-116135325D01*
X177677368Y-117483460D01*
X177631057Y-117509579D01*
X177522634Y-117536304D01*
X177382758Y-117609718D01*
X177264515Y-117714471D01*
X177174780Y-117844476D01*
X177118763Y-117992182D01*
X177118762Y-117992183D01*
X177099722Y-118148998D01*
X177099722Y-118149001D01*
X177118762Y-118305816D01*
X177118763Y-118305818D01*
X177166065Y-118430543D01*
X177174780Y-118453523D01*
X177264515Y-118583528D01*
X177264516Y-118583529D01*
X177264517Y-118583530D01*
X177382760Y-118688283D01*
X177522635Y-118761696D01*
X177631058Y-118788418D01*
X177677366Y-118814536D01*
X178349990Y-119487160D01*
X178967320Y-120104489D01*
X178995097Y-120159006D01*
X178985526Y-120219438D01*
X178942261Y-120262703D01*
X178897316Y-120273493D01*
X178805030Y-120273493D01*
X178805029Y-120273493D01*
X178786469Y-120278466D01*
X178665019Y-120311006D01*
X178665015Y-120311008D01*
X178539485Y-120383481D01*
X178539483Y-120383482D01*
X178432397Y-120490567D01*
X178431207Y-120489377D01*
X178387490Y-120519423D01*
X178359373Y-120523500D01*
X144395617Y-120523500D01*
X144337426Y-120504593D01*
X144322814Y-120490359D01*
X144322599Y-120490575D01*
X144276048Y-120444024D01*
X144215517Y-120383492D01*
X144089989Y-120311017D01*
X143991571Y-120284645D01*
X143949976Y-120273500D01*
X143805029Y-120273500D01*
X143665027Y-120311010D01*
X143665017Y-120311015D01*
X143539491Y-120383484D01*
X143436997Y-120485977D01*
X143364517Y-120611510D01*
X143364516Y-120611513D01*
X143327002Y-120751511D01*
X143327001Y-120751514D01*
X143326999Y-120896465D01*
X143326999Y-120896468D01*
X143364510Y-121036474D01*
X143364512Y-121036477D01*
X143436981Y-121162004D01*
X143544063Y-121269090D01*
X143542871Y-121270281D01*
X143572914Y-121313987D01*
X143576993Y-121342111D01*
X143576993Y-130774500D01*
X143558086Y-130832691D01*
X143508586Y-130868655D01*
X143477993Y-130873500D01*
X132676994Y-130873500D01*
X132618803Y-130854593D01*
X132582839Y-130805093D01*
X132577994Y-130774500D01*
X132577993Y-130545977D01*
X132577993Y-129732548D01*
X132596900Y-129674358D01*
X132646400Y-129638394D01*
X132707586Y-129638394D01*
X132742641Y-129658445D01*
X132832760Y-129738283D01*
X132972635Y-129811696D01*
X133126015Y-129849500D01*
X133126018Y-129849500D01*
X133283982Y-129849500D01*
X133283985Y-129849500D01*
X133437365Y-129811696D01*
X133577240Y-129738283D01*
X133695483Y-129633530D01*
X133785220Y-129503523D01*
X133841237Y-129355818D01*
X133860278Y-129199000D01*
X133841237Y-129042182D01*
X133785220Y-128894477D01*
X133723024Y-128804370D01*
X133705500Y-128748132D01*
X133705500Y-119882984D01*
X133707189Y-119833528D01*
X133707660Y-119819755D01*
X133697534Y-119778206D01*
X133696594Y-119773258D01*
X133690771Y-119730889D01*
X133683280Y-119713645D01*
X133677903Y-119697654D01*
X133673457Y-119679406D01*
X133652509Y-119642150D01*
X133650252Y-119637607D01*
X133646530Y-119629038D01*
X133633219Y-119598391D01*
X133621363Y-119583819D01*
X133611862Y-119569858D01*
X133602660Y-119553490D01*
X133572422Y-119523251D01*
X133569024Y-119519486D01*
X133542052Y-119486333D01*
X133526709Y-119475502D01*
X133513797Y-119464627D01*
X133323171Y-119274001D01*
X136074722Y-119274001D01*
X136093762Y-119430816D01*
X136093763Y-119430818D01*
X136140286Y-119553490D01*
X136149780Y-119578523D01*
X136239515Y-119708528D01*
X136239516Y-119708529D01*
X136239517Y-119708530D01*
X136357760Y-119813283D01*
X136497635Y-119886696D01*
X136651015Y-119924500D01*
X136651018Y-119924500D01*
X136808982Y-119924500D01*
X136808985Y-119924500D01*
X136962365Y-119886696D01*
X137102240Y-119813283D01*
X137220483Y-119708530D01*
X137310220Y-119578523D01*
X137318831Y-119555818D01*
X137334921Y-119513394D01*
X137373234Y-119465689D01*
X137427487Y-119449500D01*
X143621322Y-119449500D01*
X143679513Y-119468407D01*
X143691326Y-119478496D01*
X143817712Y-119604882D01*
X143845489Y-119659399D01*
X143845986Y-119662950D01*
X143848763Y-119685818D01*
X143899559Y-119819756D01*
X143904780Y-119833523D01*
X143994515Y-119963528D01*
X143994516Y-119963529D01*
X143994517Y-119963530D01*
X144112760Y-120068283D01*
X144252635Y-120141696D01*
X144406015Y-120179500D01*
X144406018Y-120179500D01*
X144563982Y-120179500D01*
X144563985Y-120179500D01*
X144717365Y-120141696D01*
X144857240Y-120068283D01*
X144975483Y-119963530D01*
X145065220Y-119833523D01*
X145121237Y-119685818D01*
X145140278Y-119529000D01*
X145121237Y-119372182D01*
X145065220Y-119224477D01*
X144975483Y-119094470D01*
X144857240Y-118989717D01*
X144717365Y-118916304D01*
X144717364Y-118916303D01*
X144717363Y-118916303D01*
X144608942Y-118889580D01*
X144562631Y-118863461D01*
X144257940Y-118558771D01*
X144214757Y-118512532D01*
X144214755Y-118512531D01*
X144196357Y-118501343D01*
X144178229Y-118490319D01*
X144174039Y-118487467D01*
X144139973Y-118461634D01*
X144122492Y-118454740D01*
X144107381Y-118447235D01*
X144091325Y-118437472D01*
X144050166Y-118425940D01*
X144045360Y-118424324D01*
X144005589Y-118408641D01*
X144005592Y-118408641D01*
X143993568Y-118407405D01*
X143986892Y-118406718D01*
X143970314Y-118403567D01*
X143952228Y-118398500D01*
X143909478Y-118398500D01*
X143904414Y-118398240D01*
X143870061Y-118394709D01*
X143861890Y-118393869D01*
X143861889Y-118393869D01*
X143843375Y-118397061D01*
X143826556Y-118398500D01*
X137088985Y-118398500D01*
X137025755Y-118396340D01*
X137025748Y-118396340D01*
X136996097Y-118403567D01*
X136984223Y-118406460D01*
X136979249Y-118407405D01*
X136936891Y-118413228D01*
X136919648Y-118420717D01*
X136903659Y-118426093D01*
X136885406Y-118430542D01*
X136885403Y-118430543D01*
X136848156Y-118451486D01*
X136843616Y-118453742D01*
X136804390Y-118470781D01*
X136789814Y-118482639D01*
X136775864Y-118492133D01*
X136759489Y-118501340D01*
X136759486Y-118501343D01*
X136729256Y-118531572D01*
X136725493Y-118534968D01*
X136692333Y-118561947D01*
X136681501Y-118577292D01*
X136670627Y-118590202D01*
X136652368Y-118608461D01*
X136606057Y-118634580D01*
X136497636Y-118661303D01*
X136357758Y-118734718D01*
X136239515Y-118839471D01*
X136149780Y-118969476D01*
X136093763Y-119117182D01*
X136093762Y-119117183D01*
X136074722Y-119273998D01*
X136074722Y-119274001D01*
X133323171Y-119274001D01*
X132457940Y-118408771D01*
X132414757Y-118362532D01*
X132414755Y-118362531D01*
X132378232Y-118340321D01*
X132374039Y-118337467D01*
X132339973Y-118311634D01*
X132322492Y-118304740D01*
X132307381Y-118297235D01*
X132291325Y-118287472D01*
X132250166Y-118275940D01*
X132245360Y-118274324D01*
X132205589Y-118258641D01*
X132205592Y-118258641D01*
X132193628Y-118257411D01*
X132186892Y-118256718D01*
X132170314Y-118253567D01*
X132152228Y-118248500D01*
X132109478Y-118248500D01*
X132104414Y-118248240D01*
X132070061Y-118244709D01*
X132061890Y-118243869D01*
X132061889Y-118243869D01*
X132043375Y-118247061D01*
X132026556Y-118248500D01*
X131352902Y-118248500D01*
X131306894Y-118237160D01*
X131302240Y-118234717D01*
X131187506Y-118174499D01*
X131162364Y-118161303D01*
X131008987Y-118123500D01*
X131008985Y-118123500D01*
X130851015Y-118123500D01*
X130851012Y-118123500D01*
X130697635Y-118161303D01*
X130557758Y-118234718D01*
X130439515Y-118339471D01*
X130349780Y-118469476D01*
X130293763Y-118617182D01*
X130293762Y-118617183D01*
X130274722Y-118773998D01*
X130274722Y-118774001D01*
X130293762Y-118930816D01*
X130293763Y-118930818D01*
X130316101Y-118989718D01*
X130349780Y-119078523D01*
X130439515Y-119208528D01*
X130439516Y-119208529D01*
X130439517Y-119208530D01*
X130557760Y-119313283D01*
X130697635Y-119386696D01*
X130851015Y-119424500D01*
X130851018Y-119424500D01*
X131008982Y-119424500D01*
X131008985Y-119424500D01*
X131162365Y-119386696D01*
X131302240Y-119313283D01*
X131302241Y-119313282D01*
X131306894Y-119310840D01*
X131352902Y-119299500D01*
X131821322Y-119299500D01*
X131879513Y-119318407D01*
X131891326Y-119328496D01*
X132625504Y-120062673D01*
X132653281Y-120117190D01*
X132654500Y-120132677D01*
X132654500Y-120234517D01*
X132635593Y-120292708D01*
X132586093Y-120328672D01*
X132524907Y-120328672D01*
X132506001Y-120320254D01*
X132498600Y-120315981D01*
X132489994Y-120311012D01*
X132489992Y-120311011D01*
X132489990Y-120311010D01*
X132349984Y-120273494D01*
X132349980Y-120273493D01*
X132205029Y-120273493D01*
X132065019Y-120311006D01*
X132065015Y-120311008D01*
X131939485Y-120383481D01*
X131939483Y-120383482D01*
X131832397Y-120490567D01*
X131831207Y-120489377D01*
X131787490Y-120519423D01*
X131759373Y-120523500D01*
X53008409Y-120523500D01*
X53008384Y-120523498D01*
X53000420Y-120523498D01*
X52993954Y-120523498D01*
X52955272Y-120523499D01*
X52950385Y-120523257D01*
X52825209Y-120510849D01*
X52806050Y-120507012D01*
X52692794Y-120472412D01*
X52674761Y-120464887D01*
X52662962Y-120458530D01*
X52611735Y-120430929D01*
X52570506Y-120408716D01*
X52554304Y-120397796D01*
X52463115Y-120322247D01*
X52449371Y-120308356D01*
X52370338Y-120210867D01*
X52367443Y-120206911D01*
X52363574Y-120201034D01*
X52318109Y-120131873D01*
X52196322Y-119994010D01*
X52056344Y-119874659D01*
X51900963Y-119776195D01*
X51900958Y-119776193D01*
X51900957Y-119776192D01*
X51733268Y-119700578D01*
X51556610Y-119649318D01*
X51556608Y-119649317D01*
X51556606Y-119649317D01*
X51374485Y-119623427D01*
X51374483Y-119623427D01*
X51374476Y-119623426D01*
X51282582Y-119623499D01*
X51282509Y-119623499D01*
X51282503Y-119623499D01*
X51234915Y-119623499D01*
X51234914Y-119623499D01*
X51226942Y-119623499D01*
X51226930Y-119623500D01*
X42676993Y-119623500D01*
X42618802Y-119604593D01*
X42582838Y-119555093D01*
X42577993Y-119524500D01*
X42577993Y-116323500D01*
X42596900Y-116265309D01*
X42646400Y-116229345D01*
X42676993Y-116224500D01*
X51234912Y-116224500D01*
X51234915Y-116224501D01*
X51276824Y-116224500D01*
X51282509Y-116224504D01*
X51282509Y-116224505D01*
X51372825Y-116224576D01*
X51374477Y-116224578D01*
X51374477Y-116224577D01*
X51374485Y-116224578D01*
X51556607Y-116198688D01*
X51685446Y-116161303D01*
X51733267Y-116147427D01*
X51733268Y-116147426D01*
X51733273Y-116147425D01*
X51900965Y-116071809D01*
X52056347Y-115973345D01*
X52196325Y-115853994D01*
X52254857Y-115787736D01*
X52318109Y-115716135D01*
X52318109Y-115716134D01*
X52318113Y-115716130D01*
X52367269Y-115641355D01*
X52370176Y-115637378D01*
X52449393Y-115539663D01*
X52463129Y-115525780D01*
X52554323Y-115450226D01*
X52570516Y-115439312D01*
X52674782Y-115383135D01*
X52692800Y-115375617D01*
X52806062Y-115341015D01*
X52825209Y-115337181D01*
X52950700Y-115324740D01*
X52955578Y-115324500D01*
X53000420Y-115324502D01*
X53000423Y-115324500D01*
X53008384Y-115324501D01*
X53008409Y-115324500D01*
X131759383Y-115324500D01*
X131817574Y-115343407D01*
X131832187Y-115357643D01*
X131832403Y-115357428D01*
X131914285Y-115439308D01*
X131939488Y-115464511D01*
X132065019Y-115536986D01*
X132065021Y-115536986D01*
X132065022Y-115536987D01*
X132065024Y-115536988D01*
X132120705Y-115551906D01*
X132205030Y-115574500D01*
X132349980Y-115574499D01*
X132454500Y-115546492D01*
X132489984Y-115536984D01*
X132489984Y-115536983D01*
X132489991Y-115536982D01*
X132505997Y-115527740D01*
X132565843Y-115515017D01*
X132621740Y-115539901D01*
X132652335Y-115592888D01*
X132654499Y-115613474D01*
X132654500Y-115765321D01*
X132635593Y-115823512D01*
X132625504Y-115835326D01*
X131991327Y-116469504D01*
X131936810Y-116497281D01*
X131921323Y-116498500D01*
X129452902Y-116498500D01*
X129406894Y-116487160D01*
X129402240Y-116484717D01*
X129328251Y-116445884D01*
X129262364Y-116411303D01*
X129108987Y-116373500D01*
X129108985Y-116373500D01*
X128951015Y-116373500D01*
X128951012Y-116373500D01*
X128797635Y-116411303D01*
X128657758Y-116484718D01*
X128539515Y-116589471D01*
X128449780Y-116719476D01*
X128393763Y-116867182D01*
X128393762Y-116867183D01*
X128374722Y-117023998D01*
X128374722Y-117024001D01*
X128393762Y-117180816D01*
X128393763Y-117180818D01*
X128444000Y-117313283D01*
X128449780Y-117328523D01*
X128539515Y-117458528D01*
X128539516Y-117458529D01*
X128539517Y-117458530D01*
X128657760Y-117563283D01*
X128797635Y-117636696D01*
X128951015Y-117674500D01*
X128951018Y-117674500D01*
X129108982Y-117674500D01*
X129108985Y-117674500D01*
X129262365Y-117636696D01*
X129402240Y-117563283D01*
X129402241Y-117563282D01*
X129406894Y-117560840D01*
X129452902Y-117549500D01*
X132171015Y-117549500D01*
X132173251Y-117549576D01*
X132234245Y-117551660D01*
X132275777Y-117541538D01*
X132280740Y-117540594D01*
X132323111Y-117534771D01*
X132340355Y-117527280D01*
X132356343Y-117521904D01*
X132374594Y-117517457D01*
X132411855Y-117496505D01*
X132416385Y-117494255D01*
X132455609Y-117477219D01*
X132470184Y-117465360D01*
X132484136Y-117455864D01*
X132500512Y-117446658D01*
X132530749Y-117416419D01*
X132534493Y-117413040D01*
X132567665Y-117386054D01*
X132578499Y-117370704D01*
X132589363Y-117357805D01*
X133173168Y-116774001D01*
X135424722Y-116774001D01*
X135443762Y-116930816D01*
X135443763Y-116930818D01*
X135479102Y-117024000D01*
X135499780Y-117078523D01*
X135589515Y-117208528D01*
X135589516Y-117208529D01*
X135589517Y-117208530D01*
X135707760Y-117313283D01*
X135847635Y-117386696D01*
X136001015Y-117424500D01*
X136001018Y-117424500D01*
X136158982Y-117424500D01*
X136158985Y-117424500D01*
X136312365Y-117386696D01*
X136452240Y-117313283D01*
X136452241Y-117313282D01*
X136456894Y-117310840D01*
X136502902Y-117299500D01*
X138107098Y-117299500D01*
X138153106Y-117310840D01*
X138157759Y-117313282D01*
X138157760Y-117313283D01*
X138297635Y-117386696D01*
X138451015Y-117424500D01*
X138451018Y-117424500D01*
X138608982Y-117424500D01*
X138608985Y-117424500D01*
X138762365Y-117386696D01*
X138902240Y-117313283D01*
X139020483Y-117208530D01*
X139110220Y-117078523D01*
X139166237Y-116930818D01*
X139185278Y-116774000D01*
X139166237Y-116617182D01*
X139110220Y-116469477D01*
X139043972Y-116373500D01*
X139020484Y-116339471D01*
X139019270Y-116338395D01*
X138902240Y-116234717D01*
X138815828Y-116189364D01*
X138762364Y-116161303D01*
X138608987Y-116123500D01*
X138608985Y-116123500D01*
X138451015Y-116123500D01*
X138451012Y-116123500D01*
X138297635Y-116161303D01*
X138203682Y-116210615D01*
X138157760Y-116234717D01*
X138157759Y-116234717D01*
X138153106Y-116237160D01*
X138107098Y-116248500D01*
X136502902Y-116248500D01*
X136456894Y-116237160D01*
X136452240Y-116234717D01*
X136365828Y-116189364D01*
X136312364Y-116161303D01*
X136158987Y-116123500D01*
X136158985Y-116123500D01*
X136001015Y-116123500D01*
X136001012Y-116123500D01*
X135847635Y-116161303D01*
X135707758Y-116234718D01*
X135589515Y-116339471D01*
X135499780Y-116469476D01*
X135443763Y-116617182D01*
X135443762Y-116617183D01*
X135424722Y-116773998D01*
X135424722Y-116774001D01*
X133173168Y-116774001D01*
X133545243Y-116401926D01*
X133591469Y-116358755D01*
X133613682Y-116322226D01*
X133616520Y-116318054D01*
X133642365Y-116283975D01*
X133649260Y-116266489D01*
X133656770Y-116251370D01*
X133666526Y-116235328D01*
X133678059Y-116194164D01*
X133679674Y-116189364D01*
X133695360Y-116149589D01*
X133697281Y-116130898D01*
X133700434Y-116114307D01*
X133705500Y-116096228D01*
X133705500Y-116053487D01*
X133705760Y-116048422D01*
X133706455Y-116041655D01*
X133710132Y-116005890D01*
X133706939Y-115987376D01*
X133705500Y-115970555D01*
X133705500Y-108398673D01*
X133724407Y-108340482D01*
X133734492Y-108328674D01*
X133773628Y-108289537D01*
X133819936Y-108263419D01*
X133928363Y-108236696D01*
X134068238Y-108163283D01*
X134186481Y-108058530D01*
X134276218Y-107928523D01*
X134332235Y-107780818D01*
X134351276Y-107624000D01*
X134332235Y-107467182D01*
X134276218Y-107319477D01*
X134186481Y-107189470D01*
X134068238Y-107084717D01*
X133998300Y-107048010D01*
X133928362Y-107011303D01*
X133774985Y-106973500D01*
X133774983Y-106973500D01*
X133617013Y-106973500D01*
X133617010Y-106973500D01*
X133463633Y-107011303D01*
X133323756Y-107084718D01*
X133205513Y-107189471D01*
X133115778Y-107319476D01*
X133059761Y-107467182D01*
X133056984Y-107490049D01*
X133031199Y-107545536D01*
X133028710Y-107548116D01*
X132814771Y-107762056D01*
X132768530Y-107805243D01*
X132768528Y-107805245D01*
X132761577Y-107816675D01*
X132715185Y-107856568D01*
X132654204Y-107861572D01*
X132601929Y-107829778D01*
X132578325Y-107773329D01*
X132577993Y-107765248D01*
X132577993Y-105073500D01*
X132596901Y-105015309D01*
X132646401Y-104979345D01*
X132676994Y-104974500D01*
X143477993Y-104974500D01*
X143536184Y-104993407D01*
G37*
G04 #@! TD.AperFunction*
G04 #@! TA.AperFunction,Conductor*
G36*
X186536184Y-104993407D02*
G01*
X186572148Y-105042907D01*
X186576993Y-105073500D01*
X186576993Y-114505897D01*
X186558086Y-114564088D01*
X186543851Y-114578700D01*
X186544067Y-114578916D01*
X186436989Y-114685997D01*
X186364516Y-114811530D01*
X186327006Y-114951536D01*
X186327006Y-114951539D01*
X186327007Y-115096484D01*
X186327007Y-115096485D01*
X186364524Y-115236488D01*
X186435036Y-115358613D01*
X186437001Y-115362017D01*
X186539495Y-115464508D01*
X186665024Y-115536980D01*
X186805032Y-115574494D01*
X186949978Y-115574492D01*
X187089986Y-115536976D01*
X187215513Y-115464502D01*
X187318005Y-115362009D01*
X187318006Y-115362008D01*
X187322593Y-115357421D01*
X187323786Y-115358614D01*
X187367491Y-115328577D01*
X187395608Y-115324500D01*
X216359383Y-115324500D01*
X216417574Y-115343407D01*
X216432187Y-115357643D01*
X216432403Y-115357428D01*
X216514285Y-115439308D01*
X216539488Y-115464511D01*
X216665019Y-115536986D01*
X216665021Y-115536986D01*
X216665022Y-115536987D01*
X216665024Y-115536988D01*
X216720705Y-115551906D01*
X216805030Y-115574500D01*
X216949980Y-115574499D01*
X217054500Y-115546492D01*
X217089984Y-115536984D01*
X217089984Y-115536983D01*
X217089991Y-115536982D01*
X217215521Y-115464505D01*
X217318014Y-115362008D01*
X217319974Y-115358614D01*
X217390480Y-115236490D01*
X217390488Y-115236477D01*
X217428001Y-115096465D01*
X217427998Y-114951515D01*
X217390480Y-114811504D01*
X217318002Y-114685975D01*
X217215504Y-114583482D01*
X217210916Y-114578894D01*
X217212108Y-114577701D01*
X217182069Y-114533991D01*
X217177993Y-114505877D01*
X217177993Y-108884170D01*
X217196900Y-108825979D01*
X217246400Y-108790015D01*
X217307586Y-108790015D01*
X217346994Y-108814164D01*
X219557456Y-111024625D01*
X220155504Y-111622673D01*
X220183281Y-111677190D01*
X220184500Y-111692677D01*
X220184500Y-112805322D01*
X220165593Y-112863513D01*
X220155504Y-112875326D01*
X217515376Y-115515453D01*
X217484816Y-115536252D01*
X217474394Y-115540778D01*
X217474393Y-115540779D01*
X217459814Y-115552640D01*
X217445861Y-115562136D01*
X217429488Y-115571341D01*
X217399260Y-115601569D01*
X217395497Y-115604965D01*
X217362337Y-115631943D01*
X217362330Y-115631951D01*
X217351500Y-115647293D01*
X217340627Y-115660202D01*
X215788910Y-117211920D01*
X215742598Y-117238039D01*
X215607635Y-117271303D01*
X215467758Y-117344718D01*
X215349515Y-117449471D01*
X215259780Y-117579476D01*
X215203763Y-117727182D01*
X215203762Y-117727183D01*
X215184722Y-117883998D01*
X215184722Y-117884001D01*
X215203762Y-118040816D01*
X215203763Y-118040818D01*
X215204189Y-118041940D01*
X215259780Y-118188523D01*
X215349515Y-118318528D01*
X215349516Y-118318529D01*
X215349517Y-118318530D01*
X215467760Y-118423283D01*
X215607635Y-118496696D01*
X215761015Y-118534500D01*
X215761018Y-118534500D01*
X215918982Y-118534500D01*
X215918985Y-118534500D01*
X216072365Y-118496696D01*
X216212240Y-118423283D01*
X216330483Y-118318530D01*
X216420220Y-118188523D01*
X216476237Y-118040818D01*
X216476247Y-118040729D01*
X216476270Y-118040681D01*
X216477669Y-118035005D01*
X216478779Y-118035278D01*
X216502020Y-117985241D01*
X216504494Y-117982674D01*
X217938673Y-116548496D01*
X217993191Y-116520719D01*
X218008678Y-116519500D01*
X219221323Y-116519500D01*
X219279514Y-116538407D01*
X219291326Y-116548496D01*
X219545503Y-116802672D01*
X219573281Y-116857189D01*
X219574500Y-116872676D01*
X219574500Y-119735322D01*
X219555593Y-119793513D01*
X219545504Y-119805326D01*
X219024771Y-120326058D01*
X218978530Y-120369245D01*
X218956318Y-120405770D01*
X218953466Y-120409960D01*
X218927636Y-120444024D01*
X218927635Y-120444026D01*
X218920741Y-120461506D01*
X218913237Y-120476615D01*
X218903473Y-120492673D01*
X218891939Y-120533835D01*
X218890323Y-120538641D01*
X218874641Y-120578407D01*
X218874640Y-120578413D01*
X218872718Y-120597103D01*
X218869569Y-120613676D01*
X218864500Y-120631771D01*
X218864500Y-120674521D01*
X218864240Y-120679585D01*
X218859869Y-120722110D01*
X218863061Y-120740625D01*
X218864500Y-120757444D01*
X218864500Y-122995322D01*
X218845593Y-123053513D01*
X218835504Y-123065326D01*
X217346997Y-124553832D01*
X217292480Y-124581609D01*
X217232048Y-124572038D01*
X217188783Y-124528773D01*
X217177993Y-124483828D01*
X217177993Y-121342130D01*
X217196900Y-121283939D01*
X217211134Y-121269326D01*
X217210919Y-121269111D01*
X217215506Y-121264524D01*
X217215508Y-121264523D01*
X217318007Y-121162029D01*
X217390486Y-121036498D01*
X217390493Y-121036474D01*
X217407816Y-120971825D01*
X217428005Y-120896486D01*
X217428008Y-120751534D01*
X217391735Y-120616153D01*
X217390494Y-120611520D01*
X217318021Y-120485989D01*
X217318020Y-120485987D01*
X217215525Y-120383489D01*
X217215522Y-120383487D01*
X217215520Y-120383485D01*
X217089991Y-120311010D01*
X216949984Y-120273494D01*
X216949980Y-120273493D01*
X216805029Y-120273493D01*
X216665019Y-120311006D01*
X216665015Y-120311008D01*
X216539485Y-120383481D01*
X216539483Y-120383482D01*
X216432397Y-120490567D01*
X216431207Y-120489377D01*
X216387490Y-120519423D01*
X216359373Y-120523500D01*
X187395615Y-120523500D01*
X187337424Y-120504593D01*
X187322814Y-120490359D01*
X187322598Y-120490576D01*
X187215516Y-120383492D01*
X187215512Y-120383489D01*
X187089993Y-120311020D01*
X187089990Y-120311019D01*
X187089988Y-120311018D01*
X186949979Y-120273502D01*
X186949978Y-120273501D01*
X186805032Y-120273500D01*
X186805031Y-120273500D01*
X186786497Y-120278466D01*
X186665024Y-120311012D01*
X186665020Y-120311014D01*
X186539494Y-120383484D01*
X186539491Y-120383487D01*
X186436997Y-120485976D01*
X186364520Y-120611506D01*
X186364517Y-120611513D01*
X186327003Y-120751511D01*
X186327002Y-120751515D01*
X186327000Y-120896465D01*
X186327000Y-120896468D01*
X186364511Y-121036474D01*
X186436984Y-121162004D01*
X186544063Y-121269088D01*
X186542871Y-121270279D01*
X186572914Y-121313985D01*
X186576993Y-121342109D01*
X186576993Y-130774500D01*
X186558086Y-130832691D01*
X186508586Y-130868655D01*
X186477993Y-130873500D01*
X179276994Y-130873500D01*
X179218803Y-130854593D01*
X179182839Y-130805093D01*
X179177994Y-130774500D01*
X179177993Y-130111426D01*
X179196900Y-130053235D01*
X179246400Y-130017271D01*
X179307586Y-130017271D01*
X179322993Y-130023763D01*
X179347635Y-130036696D01*
X179501015Y-130074500D01*
X179501018Y-130074500D01*
X179658982Y-130074500D01*
X179658985Y-130074500D01*
X179812365Y-130036696D01*
X179952240Y-129963283D01*
X180070483Y-129858530D01*
X180160220Y-129728523D01*
X180216237Y-129580818D01*
X180235278Y-129424000D01*
X180216237Y-129267182D01*
X180160220Y-129119477D01*
X180123024Y-129065589D01*
X180105500Y-129009351D01*
X180105500Y-120049649D01*
X180124407Y-119991458D01*
X180158490Y-119961989D01*
X180232240Y-119923283D01*
X180350483Y-119818530D01*
X180440220Y-119688523D01*
X180440220Y-119688521D01*
X180443621Y-119683595D01*
X180445743Y-119685060D01*
X180481941Y-119649744D01*
X180525797Y-119639500D01*
X186812165Y-119639500D01*
X186870356Y-119658407D01*
X186901125Y-119698677D01*
X186901997Y-119698220D01*
X186904676Y-119703324D01*
X186904733Y-119703399D01*
X186904779Y-119703521D01*
X186994515Y-119833528D01*
X186994516Y-119833529D01*
X186994517Y-119833530D01*
X187112760Y-119938283D01*
X187252635Y-120011696D01*
X187406015Y-120049500D01*
X187406018Y-120049500D01*
X187563982Y-120049500D01*
X187563985Y-120049500D01*
X187717365Y-120011696D01*
X187857240Y-119938283D01*
X187975483Y-119833530D01*
X188065220Y-119703523D01*
X188121237Y-119555818D01*
X188140278Y-119399000D01*
X188121237Y-119242182D01*
X188065220Y-119094477D01*
X187999727Y-118999593D01*
X187975484Y-118964471D01*
X187959255Y-118950093D01*
X187857240Y-118859717D01*
X187717365Y-118786304D01*
X187717364Y-118786304D01*
X187610356Y-118759928D01*
X187561696Y-118731377D01*
X187534757Y-118702532D01*
X187534755Y-118702531D01*
X187498229Y-118680319D01*
X187494039Y-118677467D01*
X187459973Y-118651634D01*
X187442492Y-118644740D01*
X187427381Y-118637235D01*
X187411325Y-118627472D01*
X187370166Y-118615940D01*
X187365360Y-118614324D01*
X187325589Y-118598641D01*
X187325592Y-118598641D01*
X187313577Y-118597406D01*
X187306892Y-118596718D01*
X187290314Y-118593567D01*
X187272228Y-118588500D01*
X187229478Y-118588500D01*
X187224414Y-118588240D01*
X187185236Y-118584213D01*
X187181890Y-118583869D01*
X187181889Y-118583869D01*
X187163375Y-118587061D01*
X187146556Y-118588500D01*
X180138985Y-118588500D01*
X180075755Y-118586340D01*
X180075748Y-118586340D01*
X180037612Y-118595634D01*
X180034224Y-118596460D01*
X180029245Y-118597406D01*
X179986893Y-118603228D01*
X179986885Y-118603230D01*
X179969653Y-118610714D01*
X179953666Y-118616090D01*
X179935414Y-118620539D01*
X179935403Y-118620543D01*
X179898140Y-118641494D01*
X179893600Y-118643749D01*
X179854388Y-118660781D01*
X179854387Y-118660782D01*
X179839813Y-118672639D01*
X179825862Y-118682135D01*
X179809488Y-118691341D01*
X179809488Y-118691342D01*
X179782366Y-118718463D01*
X179736057Y-118744580D01*
X179627636Y-118771303D01*
X179487758Y-118844718D01*
X179401690Y-118920967D01*
X179345595Y-118945402D01*
X179285851Y-118932199D01*
X179266037Y-118916868D01*
X178568172Y-118219003D01*
X178540395Y-118164486D01*
X178549966Y-118104054D01*
X178568166Y-118079002D01*
X179123167Y-117524001D01*
X181024722Y-117524001D01*
X181043762Y-117680816D01*
X181043763Y-117680818D01*
X181074730Y-117762472D01*
X181099780Y-117828523D01*
X181189515Y-117958528D01*
X181189516Y-117958529D01*
X181189517Y-117958530D01*
X181307760Y-118063283D01*
X181447635Y-118136696D01*
X181601015Y-118174500D01*
X181601018Y-118174500D01*
X181758982Y-118174500D01*
X181758985Y-118174500D01*
X181912365Y-118136696D01*
X182052240Y-118063283D01*
X182170483Y-117958530D01*
X182260220Y-117828523D01*
X182316237Y-117680818D01*
X182319013Y-117657951D01*
X182344796Y-117602465D01*
X182347260Y-117599908D01*
X183245228Y-116701940D01*
X183291469Y-116658755D01*
X183313679Y-116622229D01*
X183316529Y-116618042D01*
X183316531Y-116618040D01*
X183342364Y-116583975D01*
X183349257Y-116566495D01*
X183356769Y-116551372D01*
X183366526Y-116535328D01*
X183378061Y-116494155D01*
X183379674Y-116489361D01*
X183381505Y-116484718D01*
X183395359Y-116449589D01*
X183397280Y-116430891D01*
X183400431Y-116414317D01*
X183405500Y-116396228D01*
X183405500Y-116353476D01*
X183405760Y-116348412D01*
X183406679Y-116339470D01*
X183410131Y-116305890D01*
X183407616Y-116291303D01*
X183406939Y-116287374D01*
X183405500Y-116270555D01*
X183405500Y-112582676D01*
X183424407Y-112524485D01*
X183434490Y-112512678D01*
X185895228Y-110051940D01*
X185941469Y-110008755D01*
X185963679Y-109972229D01*
X185966529Y-109968042D01*
X185992364Y-109933975D01*
X185999257Y-109916496D01*
X186006769Y-109901372D01*
X186016526Y-109885328D01*
X186028061Y-109844155D01*
X186029674Y-109839361D01*
X186045357Y-109799593D01*
X186045358Y-109799591D01*
X186045357Y-109799591D01*
X186045359Y-109799589D01*
X186047280Y-109780891D01*
X186050431Y-109764317D01*
X186055500Y-109746228D01*
X186055500Y-109703476D01*
X186055760Y-109698412D01*
X186056504Y-109691166D01*
X186060131Y-109655890D01*
X186056939Y-109637375D01*
X186055500Y-109620556D01*
X186055500Y-108838647D01*
X186073024Y-108782409D01*
X186110220Y-108728523D01*
X186166237Y-108580818D01*
X186185278Y-108424000D01*
X186166237Y-108267182D01*
X186110220Y-108119477D01*
X186020483Y-107989470D01*
X185902240Y-107884717D01*
X185797564Y-107829778D01*
X185762364Y-107811303D01*
X185608987Y-107773500D01*
X185608985Y-107773500D01*
X185451015Y-107773500D01*
X185451012Y-107773500D01*
X185297635Y-107811303D01*
X185157758Y-107884718D01*
X185039515Y-107989471D01*
X184949780Y-108119476D01*
X184893763Y-108267182D01*
X184893762Y-108267183D01*
X184874722Y-108423998D01*
X184874722Y-108424001D01*
X184893762Y-108580816D01*
X184893763Y-108580818D01*
X184949780Y-108728523D01*
X184986975Y-108782409D01*
X185004500Y-108838647D01*
X185004499Y-109415322D01*
X184985592Y-109473513D01*
X184975503Y-109485326D01*
X182514771Y-111946058D01*
X182468530Y-111989245D01*
X182446318Y-112025770D01*
X182443466Y-112029960D01*
X182417636Y-112064024D01*
X182417635Y-112064026D01*
X182410741Y-112081506D01*
X182403237Y-112096615D01*
X182393473Y-112112673D01*
X182381939Y-112153835D01*
X182380323Y-112158641D01*
X182364641Y-112198407D01*
X182364640Y-112198413D01*
X182362718Y-112217103D01*
X182359569Y-112233676D01*
X182354500Y-112251771D01*
X182354500Y-112294521D01*
X182354240Y-112299585D01*
X182349869Y-112342110D01*
X182353061Y-112360625D01*
X182354500Y-112377444D01*
X182354500Y-116065321D01*
X182335593Y-116123512D01*
X182325504Y-116135325D01*
X181602368Y-116858461D01*
X181556057Y-116884580D01*
X181447634Y-116911304D01*
X181307758Y-116984718D01*
X181189515Y-117089471D01*
X181099780Y-117219476D01*
X181043763Y-117367182D01*
X181043762Y-117367183D01*
X181024722Y-117523998D01*
X181024722Y-117524001D01*
X179123167Y-117524001D01*
X179945243Y-116701926D01*
X179991469Y-116658755D01*
X180013684Y-116622221D01*
X180016520Y-116618054D01*
X180042365Y-116583975D01*
X180049260Y-116566488D01*
X180056769Y-116551372D01*
X180066526Y-116535328D01*
X180078060Y-116494158D01*
X180079673Y-116489363D01*
X180081506Y-116484717D01*
X180095359Y-116449589D01*
X180097280Y-116430890D01*
X180100430Y-116414317D01*
X180105500Y-116396228D01*
X180105500Y-116353477D01*
X180105760Y-116348420D01*
X180108289Y-116323816D01*
X180110132Y-116305890D01*
X180106940Y-116287374D01*
X180105500Y-116270555D01*
X180105500Y-108188647D01*
X180123024Y-108132409D01*
X180160220Y-108078523D01*
X180216237Y-107930818D01*
X180235278Y-107774000D01*
X180235217Y-107773500D01*
X180216516Y-107619477D01*
X180216237Y-107617182D01*
X180160220Y-107469477D01*
X180070483Y-107339470D01*
X179952240Y-107234717D01*
X179836999Y-107174233D01*
X179812364Y-107161303D01*
X179658987Y-107123500D01*
X179658985Y-107123500D01*
X179501015Y-107123500D01*
X179501012Y-107123500D01*
X179347634Y-107161304D01*
X179347633Y-107161304D01*
X179323000Y-107174233D01*
X179262688Y-107184534D01*
X179207840Y-107157417D01*
X179179406Y-107103240D01*
X179177993Y-107086573D01*
X179177994Y-105073500D01*
X179196901Y-105015309D01*
X179246401Y-104979345D01*
X179276994Y-104974500D01*
X186477993Y-104974500D01*
X186536184Y-104993407D01*
G37*
G04 #@! TD.AperFunction*
G04 #@! TA.AperFunction,Conductor*
G36*
X222836184Y-104993407D02*
G01*
X222872148Y-105042907D01*
X222876993Y-105073500D01*
X222876993Y-114505896D01*
X222858086Y-114564087D01*
X222843852Y-114578698D01*
X222844068Y-114578914D01*
X222736987Y-114685997D01*
X222664519Y-114811523D01*
X222664517Y-114811526D01*
X222627005Y-114951534D01*
X222627005Y-114951535D01*
X222627006Y-115096482D01*
X222627007Y-115096485D01*
X222664521Y-115236483D01*
X222664523Y-115236488D01*
X222664524Y-115236490D01*
X222737000Y-115362017D01*
X222839494Y-115464509D01*
X222846407Y-115468500D01*
X222965018Y-115536979D01*
X222965019Y-115536979D01*
X222965022Y-115536981D01*
X222965025Y-115536981D01*
X222965028Y-115536983D01*
X223000520Y-115546492D01*
X223105031Y-115574494D01*
X223249978Y-115574493D01*
X223389986Y-115536977D01*
X223515513Y-115464503D01*
X223618006Y-115362010D01*
X223618007Y-115362007D01*
X223622594Y-115357421D01*
X223623786Y-115358613D01*
X223667496Y-115328576D01*
X223695610Y-115324500D01*
X230777993Y-115324500D01*
X230836184Y-115343407D01*
X230872148Y-115392907D01*
X230876993Y-115423500D01*
X230876993Y-120424500D01*
X230858086Y-120482691D01*
X230808586Y-120518655D01*
X230777993Y-120523500D01*
X228124266Y-120523500D01*
X228066075Y-120504593D01*
X228030111Y-120455093D01*
X228030111Y-120393907D01*
X228042790Y-120368262D01*
X228070220Y-120328523D01*
X228126237Y-120180818D01*
X228145278Y-120024000D01*
X228137935Y-119963528D01*
X228128156Y-119882984D01*
X228126237Y-119867182D01*
X228070220Y-119719477D01*
X228015016Y-119639500D01*
X227980484Y-119589471D01*
X227974107Y-119583821D01*
X227862240Y-119484717D01*
X227792302Y-119448010D01*
X227722364Y-119411303D01*
X227568987Y-119373500D01*
X227568985Y-119373500D01*
X227411015Y-119373500D01*
X227411012Y-119373500D01*
X227257635Y-119411303D01*
X227156038Y-119464627D01*
X227117760Y-119484717D01*
X227117759Y-119484717D01*
X227113106Y-119487160D01*
X227067098Y-119498500D01*
X225087678Y-119498500D01*
X225029487Y-119479593D01*
X224993523Y-119430093D01*
X224993523Y-119368907D01*
X225017674Y-119329497D01*
X225815597Y-118531572D01*
X226305228Y-118041940D01*
X226351469Y-117998755D01*
X226373679Y-117962229D01*
X226376529Y-117958042D01*
X226402364Y-117923975D01*
X226409257Y-117906492D01*
X226416761Y-117891383D01*
X226426526Y-117875328D01*
X226438061Y-117834157D01*
X226439666Y-117829381D01*
X226455359Y-117789590D01*
X226457280Y-117770892D01*
X226460429Y-117754324D01*
X226465500Y-117736228D01*
X226465500Y-117693478D01*
X226465760Y-117688413D01*
X226467190Y-117674499D01*
X226470131Y-117645891D01*
X226466939Y-117627376D01*
X226465500Y-117610557D01*
X226465500Y-117318647D01*
X226483024Y-117262409D01*
X226520220Y-117208523D01*
X226576237Y-117060818D01*
X226595278Y-116904000D01*
X226586495Y-116831669D01*
X226576237Y-116747183D01*
X226576237Y-116747182D01*
X226520220Y-116599477D01*
X226475351Y-116534473D01*
X226430484Y-116469471D01*
X226412634Y-116453657D01*
X226312240Y-116364717D01*
X226221787Y-116317243D01*
X226172364Y-116291303D01*
X226018987Y-116253500D01*
X226018985Y-116253500D01*
X225861015Y-116253500D01*
X225861012Y-116253500D01*
X225707635Y-116291303D01*
X225567758Y-116364718D01*
X225449515Y-116469471D01*
X225359780Y-116599476D01*
X225303763Y-116747182D01*
X225303762Y-116747183D01*
X225284722Y-116903998D01*
X225284722Y-116904001D01*
X225303762Y-117060816D01*
X225303763Y-117060818D01*
X225359780Y-117208523D01*
X225396975Y-117262409D01*
X225414500Y-117318647D01*
X225414500Y-117405322D01*
X225395593Y-117463513D01*
X225385504Y-117475326D01*
X223871327Y-118989504D01*
X223816810Y-119017281D01*
X223801323Y-119018500D01*
X220724500Y-119018500D01*
X220666309Y-118999593D01*
X220630345Y-118950093D01*
X220625500Y-118919500D01*
X220625500Y-116622984D01*
X220626303Y-116599476D01*
X220627660Y-116559755D01*
X220617538Y-116518221D01*
X220616592Y-116513242D01*
X220613007Y-116487160D01*
X220610771Y-116470889D01*
X220603283Y-116453651D01*
X220597904Y-116437657D01*
X220593457Y-116419405D01*
X220572501Y-116382135D01*
X220570258Y-116377619D01*
X220553219Y-116338391D01*
X220541352Y-116323804D01*
X220531862Y-116309859D01*
X220522658Y-116293489D01*
X220492427Y-116263257D01*
X220489029Y-116259492D01*
X220488312Y-116258611D01*
X220462054Y-116226335D01*
X220462053Y-116226334D01*
X220462052Y-116226333D01*
X220446706Y-116215500D01*
X220433794Y-116204625D01*
X219857940Y-115628771D01*
X219814757Y-115582532D01*
X219814755Y-115582531D01*
X219801534Y-115574491D01*
X219778229Y-115560319D01*
X219774039Y-115557467D01*
X219739973Y-115531634D01*
X219722492Y-115524740D01*
X219707381Y-115517235D01*
X219691325Y-115507472D01*
X219650166Y-115495940D01*
X219645360Y-115494324D01*
X219605589Y-115478641D01*
X219605592Y-115478641D01*
X219593628Y-115477411D01*
X219586892Y-115476718D01*
X219570314Y-115473567D01*
X219552228Y-115468500D01*
X219509478Y-115468500D01*
X219504414Y-115468240D01*
X219468125Y-115464510D01*
X219461890Y-115463869D01*
X219461889Y-115463869D01*
X219443375Y-115467061D01*
X219426556Y-115468500D01*
X219287678Y-115468500D01*
X219229487Y-115449593D01*
X219193523Y-115400093D01*
X219193523Y-115338907D01*
X219217674Y-115299496D01*
X221075243Y-113441926D01*
X221075242Y-113441925D01*
X221121469Y-113398755D01*
X221143684Y-113362221D01*
X221146520Y-113358054D01*
X221172365Y-113323975D01*
X221179260Y-113306488D01*
X221186766Y-113291375D01*
X221196526Y-113275328D01*
X221208060Y-113234158D01*
X221209673Y-113229363D01*
X221225358Y-113189591D01*
X221225357Y-113189591D01*
X221225359Y-113189589D01*
X221227280Y-113170890D01*
X221230430Y-113154317D01*
X221235500Y-113136228D01*
X221235500Y-113093485D01*
X221235760Y-113088420D01*
X221236662Y-113079641D01*
X221240132Y-113045890D01*
X221236939Y-113027376D01*
X221235500Y-113010555D01*
X221235500Y-111442984D01*
X221235576Y-111440747D01*
X221237660Y-111379755D01*
X221227534Y-111338206D01*
X221226594Y-111333258D01*
X221220771Y-111290889D01*
X221213280Y-111273645D01*
X221207903Y-111257654D01*
X221203457Y-111239406D01*
X221182510Y-111202152D01*
X221180253Y-111197609D01*
X221163221Y-111158395D01*
X221163217Y-111158388D01*
X221151362Y-111143817D01*
X221141860Y-111129856D01*
X221132658Y-111113490D01*
X221132657Y-111113488D01*
X221117542Y-111098373D01*
X221102427Y-111083257D01*
X221099029Y-111079492D01*
X221072052Y-111046333D01*
X221056706Y-111035500D01*
X221043794Y-111024625D01*
X218192618Y-108173449D01*
X218164841Y-108118932D01*
X218166200Y-108086846D01*
X218165515Y-108086763D01*
X218185278Y-107924001D01*
X218185278Y-107923998D01*
X218167893Y-107780818D01*
X218166237Y-107767182D01*
X218110220Y-107619477D01*
X218020483Y-107489470D01*
X217902240Y-107384717D01*
X217816030Y-107339470D01*
X217762364Y-107311303D01*
X217608987Y-107273500D01*
X217608985Y-107273500D01*
X217451015Y-107273500D01*
X217451011Y-107273500D01*
X217300685Y-107310552D01*
X217239660Y-107306120D01*
X217192895Y-107266665D01*
X217177993Y-107214429D01*
X217177993Y-105073500D01*
X217196900Y-105015309D01*
X217246400Y-104979345D01*
X217276993Y-104974500D01*
X222777993Y-104974500D01*
X222836184Y-104993407D01*
G37*
G04 #@! TD.AperFunction*
M02*
