G04 #@! TF.GenerationSoftware,KiCad,Pcbnew,7.0.7*
G04 #@! TF.CreationDate,2024-05-14T22:52:39+02:00*
G04 #@! TF.ProjectId,Index_Middle_Ring_V3,496e6465-785f-44d6-9964-646c655f5269,rev?*
G04 #@! TF.SameCoordinates,Original*
G04 #@! TF.FileFunction,Legend,Top*
G04 #@! TF.FilePolarity,Positive*
%FSLAX46Y46*%
G04 Gerber Fmt 4.6, Leading zero omitted, Abs format (unit mm)*
G04 Created by KiCad (PCBNEW 7.0.7) date 2024-05-14 22:52:39*
%MOMM*%
%LPD*%
G01*
G04 APERTURE LIST*
G04 Aperture macros list*
%AMRoundRect*
0 Rectangle with rounded corners*
0 $1 Rounding radius*
0 $2 $3 $4 $5 $6 $7 $8 $9 X,Y pos of 4 corners*
0 Add a 4 corners polygon primitive as box body*
4,1,4,$2,$3,$4,$5,$6,$7,$8,$9,$2,$3,0*
0 Add four circle primitives for the rounded corners*
1,1,$1+$1,$2,$3*
1,1,$1+$1,$4,$5*
1,1,$1+$1,$6,$7*
1,1,$1+$1,$8,$9*
0 Add four rect primitives between the rounded corners*
20,1,$1+$1,$2,$3,$4,$5,0*
20,1,$1+$1,$4,$5,$6,$7,0*
20,1,$1+$1,$6,$7,$8,$9,0*
20,1,$1+$1,$8,$9,$2,$3,0*%
G04 Aperture macros list end*
%ADD10C,0.150000*%
%ADD11C,0.075000*%
%ADD12C,0.100000*%
%ADD13C,0.152400*%
%ADD14RoundRect,0.155000X0.155000X-0.212500X0.155000X0.212500X-0.155000X0.212500X-0.155000X-0.212500X0*%
%ADD15R,0.558800X0.977900*%
%ADD16RoundRect,0.155000X-0.212500X-0.155000X0.212500X-0.155000X0.212500X0.155000X-0.212500X0.155000X0*%
%ADD17R,4.000000X0.300000*%
%ADD18R,0.977900X0.558800*%
G04 APERTURE END LIST*
D10*
X229425180Y-117212095D02*
X228615657Y-117212095D01*
X228615657Y-117212095D02*
X228520419Y-117259714D01*
X228520419Y-117259714D02*
X228472800Y-117307333D01*
X228472800Y-117307333D02*
X228425180Y-117402571D01*
X228425180Y-117402571D02*
X228425180Y-117593047D01*
X228425180Y-117593047D02*
X228472800Y-117688285D01*
X228472800Y-117688285D02*
X228520419Y-117735904D01*
X228520419Y-117735904D02*
X228615657Y-117783523D01*
X228615657Y-117783523D02*
X229425180Y-117783523D01*
X229091847Y-118688285D02*
X228425180Y-118688285D01*
X229472800Y-118450190D02*
X228758514Y-118212095D01*
X228758514Y-118212095D02*
X228758514Y-118831142D01*
D11*
X53248305Y-115740515D02*
X53319733Y-115764324D01*
X53319733Y-115764324D02*
X53438781Y-115764324D01*
X53438781Y-115764324D02*
X53486400Y-115740515D01*
X53486400Y-115740515D02*
X53510209Y-115716705D01*
X53510209Y-115716705D02*
X53534019Y-115669086D01*
X53534019Y-115669086D02*
X53534019Y-115621467D01*
X53534019Y-115621467D02*
X53510209Y-115573848D01*
X53510209Y-115573848D02*
X53486400Y-115550038D01*
X53486400Y-115550038D02*
X53438781Y-115526229D01*
X53438781Y-115526229D02*
X53343543Y-115502419D01*
X53343543Y-115502419D02*
X53295924Y-115478610D01*
X53295924Y-115478610D02*
X53272114Y-115454800D01*
X53272114Y-115454800D02*
X53248305Y-115407181D01*
X53248305Y-115407181D02*
X53248305Y-115359562D01*
X53248305Y-115359562D02*
X53272114Y-115311943D01*
X53272114Y-115311943D02*
X53295924Y-115288134D01*
X53295924Y-115288134D02*
X53343543Y-115264324D01*
X53343543Y-115264324D02*
X53462590Y-115264324D01*
X53462590Y-115264324D02*
X53534019Y-115288134D01*
X53748304Y-115764324D02*
X53748304Y-115264324D01*
X53748304Y-115264324D02*
X53867352Y-115264324D01*
X53867352Y-115264324D02*
X53938780Y-115288134D01*
X53938780Y-115288134D02*
X53986399Y-115335753D01*
X53986399Y-115335753D02*
X54010209Y-115383372D01*
X54010209Y-115383372D02*
X54034018Y-115478610D01*
X54034018Y-115478610D02*
X54034018Y-115550038D01*
X54034018Y-115550038D02*
X54010209Y-115645276D01*
X54010209Y-115645276D02*
X53986399Y-115692895D01*
X53986399Y-115692895D02*
X53938780Y-115740515D01*
X53938780Y-115740515D02*
X53867352Y-115764324D01*
X53867352Y-115764324D02*
X53748304Y-115764324D01*
X54224495Y-115621467D02*
X54462590Y-115621467D01*
X54176876Y-115764324D02*
X54343542Y-115264324D01*
X54343542Y-115264324D02*
X54510209Y-115764324D01*
X54772113Y-115264324D02*
X54819732Y-115264324D01*
X54819732Y-115264324D02*
X54867351Y-115288134D01*
X54867351Y-115288134D02*
X54891161Y-115311943D01*
X54891161Y-115311943D02*
X54914970Y-115359562D01*
X54914970Y-115359562D02*
X54938780Y-115454800D01*
X54938780Y-115454800D02*
X54938780Y-115573848D01*
X54938780Y-115573848D02*
X54914970Y-115669086D01*
X54914970Y-115669086D02*
X54891161Y-115716705D01*
X54891161Y-115716705D02*
X54867351Y-115740515D01*
X54867351Y-115740515D02*
X54819732Y-115764324D01*
X54819732Y-115764324D02*
X54772113Y-115764324D01*
X54772113Y-115764324D02*
X54724494Y-115740515D01*
X54724494Y-115740515D02*
X54700685Y-115716705D01*
X54700685Y-115716705D02*
X54676875Y-115669086D01*
X54676875Y-115669086D02*
X54653066Y-115573848D01*
X54653066Y-115573848D02*
X54653066Y-115454800D01*
X54653066Y-115454800D02*
X54676875Y-115359562D01*
X54676875Y-115359562D02*
X54700685Y-115311943D01*
X54700685Y-115311943D02*
X54724494Y-115288134D01*
X54724494Y-115288134D02*
X54772113Y-115264324D01*
X53248305Y-116545515D02*
X53319733Y-116569324D01*
X53319733Y-116569324D02*
X53438781Y-116569324D01*
X53438781Y-116569324D02*
X53486400Y-116545515D01*
X53486400Y-116545515D02*
X53510209Y-116521705D01*
X53510209Y-116521705D02*
X53534019Y-116474086D01*
X53534019Y-116474086D02*
X53534019Y-116426467D01*
X53534019Y-116426467D02*
X53510209Y-116378848D01*
X53510209Y-116378848D02*
X53486400Y-116355038D01*
X53486400Y-116355038D02*
X53438781Y-116331229D01*
X53438781Y-116331229D02*
X53343543Y-116307419D01*
X53343543Y-116307419D02*
X53295924Y-116283610D01*
X53295924Y-116283610D02*
X53272114Y-116259800D01*
X53272114Y-116259800D02*
X53248305Y-116212181D01*
X53248305Y-116212181D02*
X53248305Y-116164562D01*
X53248305Y-116164562D02*
X53272114Y-116116943D01*
X53272114Y-116116943D02*
X53295924Y-116093134D01*
X53295924Y-116093134D02*
X53343543Y-116069324D01*
X53343543Y-116069324D02*
X53462590Y-116069324D01*
X53462590Y-116069324D02*
X53534019Y-116093134D01*
X54034018Y-116521705D02*
X54010209Y-116545515D01*
X54010209Y-116545515D02*
X53938780Y-116569324D01*
X53938780Y-116569324D02*
X53891161Y-116569324D01*
X53891161Y-116569324D02*
X53819733Y-116545515D01*
X53819733Y-116545515D02*
X53772114Y-116497895D01*
X53772114Y-116497895D02*
X53748304Y-116450276D01*
X53748304Y-116450276D02*
X53724495Y-116355038D01*
X53724495Y-116355038D02*
X53724495Y-116283610D01*
X53724495Y-116283610D02*
X53748304Y-116188372D01*
X53748304Y-116188372D02*
X53772114Y-116140753D01*
X53772114Y-116140753D02*
X53819733Y-116093134D01*
X53819733Y-116093134D02*
X53891161Y-116069324D01*
X53891161Y-116069324D02*
X53938780Y-116069324D01*
X53938780Y-116069324D02*
X54010209Y-116093134D01*
X54010209Y-116093134D02*
X54034018Y-116116943D01*
X54486399Y-116569324D02*
X54248304Y-116569324D01*
X54248304Y-116569324D02*
X54248304Y-116069324D01*
X54748304Y-116069324D02*
X54795923Y-116069324D01*
X54795923Y-116069324D02*
X54843542Y-116093134D01*
X54843542Y-116093134D02*
X54867352Y-116116943D01*
X54867352Y-116116943D02*
X54891161Y-116164562D01*
X54891161Y-116164562D02*
X54914971Y-116259800D01*
X54914971Y-116259800D02*
X54914971Y-116378848D01*
X54914971Y-116378848D02*
X54891161Y-116474086D01*
X54891161Y-116474086D02*
X54867352Y-116521705D01*
X54867352Y-116521705D02*
X54843542Y-116545515D01*
X54843542Y-116545515D02*
X54795923Y-116569324D01*
X54795923Y-116569324D02*
X54748304Y-116569324D01*
X54748304Y-116569324D02*
X54700685Y-116545515D01*
X54700685Y-116545515D02*
X54676876Y-116521705D01*
X54676876Y-116521705D02*
X54653066Y-116474086D01*
X54653066Y-116474086D02*
X54629257Y-116378848D01*
X54629257Y-116378848D02*
X54629257Y-116259800D01*
X54629257Y-116259800D02*
X54653066Y-116164562D01*
X54653066Y-116164562D02*
X54676876Y-116116943D01*
X54676876Y-116116943D02*
X54700685Y-116093134D01*
X54700685Y-116093134D02*
X54748304Y-116069324D01*
X53224495Y-116874324D02*
X53534019Y-116874324D01*
X53534019Y-116874324D02*
X53367352Y-117064800D01*
X53367352Y-117064800D02*
X53438781Y-117064800D01*
X53438781Y-117064800D02*
X53486400Y-117088610D01*
X53486400Y-117088610D02*
X53510209Y-117112419D01*
X53510209Y-117112419D02*
X53534019Y-117160038D01*
X53534019Y-117160038D02*
X53534019Y-117279086D01*
X53534019Y-117279086D02*
X53510209Y-117326705D01*
X53510209Y-117326705D02*
X53486400Y-117350515D01*
X53486400Y-117350515D02*
X53438781Y-117374324D01*
X53438781Y-117374324D02*
X53295924Y-117374324D01*
X53295924Y-117374324D02*
X53248305Y-117350515D01*
X53248305Y-117350515D02*
X53224495Y-117326705D01*
X53748304Y-117326705D02*
X53772114Y-117350515D01*
X53772114Y-117350515D02*
X53748304Y-117374324D01*
X53748304Y-117374324D02*
X53724495Y-117350515D01*
X53724495Y-117350515D02*
X53748304Y-117326705D01*
X53748304Y-117326705D02*
X53748304Y-117374324D01*
X53938780Y-116874324D02*
X54248304Y-116874324D01*
X54248304Y-116874324D02*
X54081637Y-117064800D01*
X54081637Y-117064800D02*
X54153066Y-117064800D01*
X54153066Y-117064800D02*
X54200685Y-117088610D01*
X54200685Y-117088610D02*
X54224494Y-117112419D01*
X54224494Y-117112419D02*
X54248304Y-117160038D01*
X54248304Y-117160038D02*
X54248304Y-117279086D01*
X54248304Y-117279086D02*
X54224494Y-117326705D01*
X54224494Y-117326705D02*
X54200685Y-117350515D01*
X54200685Y-117350515D02*
X54153066Y-117374324D01*
X54153066Y-117374324D02*
X54010209Y-117374324D01*
X54010209Y-117374324D02*
X53962590Y-117350515D01*
X53962590Y-117350515D02*
X53938780Y-117326705D01*
X54391161Y-116874324D02*
X54557827Y-117374324D01*
X54557827Y-117374324D02*
X54724494Y-116874324D01*
X53534019Y-117703134D02*
X53486400Y-117679324D01*
X53486400Y-117679324D02*
X53414971Y-117679324D01*
X53414971Y-117679324D02*
X53343543Y-117703134D01*
X53343543Y-117703134D02*
X53295924Y-117750753D01*
X53295924Y-117750753D02*
X53272114Y-117798372D01*
X53272114Y-117798372D02*
X53248305Y-117893610D01*
X53248305Y-117893610D02*
X53248305Y-117965038D01*
X53248305Y-117965038D02*
X53272114Y-118060276D01*
X53272114Y-118060276D02*
X53295924Y-118107895D01*
X53295924Y-118107895D02*
X53343543Y-118155515D01*
X53343543Y-118155515D02*
X53414971Y-118179324D01*
X53414971Y-118179324D02*
X53462590Y-118179324D01*
X53462590Y-118179324D02*
X53534019Y-118155515D01*
X53534019Y-118155515D02*
X53557828Y-118131705D01*
X53557828Y-118131705D02*
X53557828Y-117965038D01*
X53557828Y-117965038D02*
X53462590Y-117965038D01*
X53772114Y-118179324D02*
X53772114Y-117679324D01*
X53772114Y-117679324D02*
X54057828Y-118179324D01*
X54057828Y-118179324D02*
X54057828Y-117679324D01*
X54295924Y-118179324D02*
X54295924Y-117679324D01*
X54295924Y-117679324D02*
X54414972Y-117679324D01*
X54414972Y-117679324D02*
X54486400Y-117703134D01*
X54486400Y-117703134D02*
X54534019Y-117750753D01*
X54534019Y-117750753D02*
X54557829Y-117798372D01*
X54557829Y-117798372D02*
X54581638Y-117893610D01*
X54581638Y-117893610D02*
X54581638Y-117965038D01*
X54581638Y-117965038D02*
X54557829Y-118060276D01*
X54557829Y-118060276D02*
X54534019Y-118107895D01*
X54534019Y-118107895D02*
X54486400Y-118155515D01*
X54486400Y-118155515D02*
X54414972Y-118179324D01*
X54414972Y-118179324D02*
X54295924Y-118179324D01*
X53272114Y-118984324D02*
X53272114Y-118484324D01*
X53272114Y-118484324D02*
X53462590Y-118484324D01*
X53462590Y-118484324D02*
X53510209Y-118508134D01*
X53510209Y-118508134D02*
X53534019Y-118531943D01*
X53534019Y-118531943D02*
X53557828Y-118579562D01*
X53557828Y-118579562D02*
X53557828Y-118650991D01*
X53557828Y-118650991D02*
X53534019Y-118698610D01*
X53534019Y-118698610D02*
X53510209Y-118722419D01*
X53510209Y-118722419D02*
X53462590Y-118746229D01*
X53462590Y-118746229D02*
X53272114Y-118746229D01*
X53772114Y-118984324D02*
X53772114Y-118650991D01*
X53772114Y-118484324D02*
X53748305Y-118508134D01*
X53748305Y-118508134D02*
X53772114Y-118531943D01*
X53772114Y-118531943D02*
X53795924Y-118508134D01*
X53795924Y-118508134D02*
X53772114Y-118484324D01*
X53772114Y-118484324D02*
X53772114Y-118531943D01*
X54010209Y-118650991D02*
X54010209Y-118984324D01*
X54010209Y-118698610D02*
X54034019Y-118674800D01*
X54034019Y-118674800D02*
X54081638Y-118650991D01*
X54081638Y-118650991D02*
X54153066Y-118650991D01*
X54153066Y-118650991D02*
X54200685Y-118674800D01*
X54200685Y-118674800D02*
X54224495Y-118722419D01*
X54224495Y-118722419D02*
X54224495Y-118984324D01*
X53248305Y-119765515D02*
X53319733Y-119789324D01*
X53319733Y-119789324D02*
X53438781Y-119789324D01*
X53438781Y-119789324D02*
X53486400Y-119765515D01*
X53486400Y-119765515D02*
X53510209Y-119741705D01*
X53510209Y-119741705D02*
X53534019Y-119694086D01*
X53534019Y-119694086D02*
X53534019Y-119646467D01*
X53534019Y-119646467D02*
X53510209Y-119598848D01*
X53510209Y-119598848D02*
X53486400Y-119575038D01*
X53486400Y-119575038D02*
X53438781Y-119551229D01*
X53438781Y-119551229D02*
X53343543Y-119527419D01*
X53343543Y-119527419D02*
X53295924Y-119503610D01*
X53295924Y-119503610D02*
X53272114Y-119479800D01*
X53272114Y-119479800D02*
X53248305Y-119432181D01*
X53248305Y-119432181D02*
X53248305Y-119384562D01*
X53248305Y-119384562D02*
X53272114Y-119336943D01*
X53272114Y-119336943D02*
X53295924Y-119313134D01*
X53295924Y-119313134D02*
X53343543Y-119289324D01*
X53343543Y-119289324D02*
X53462590Y-119289324D01*
X53462590Y-119289324D02*
X53534019Y-119313134D01*
X53748304Y-119789324D02*
X53748304Y-119289324D01*
X53748304Y-119289324D02*
X53867352Y-119289324D01*
X53867352Y-119289324D02*
X53938780Y-119313134D01*
X53938780Y-119313134D02*
X53986399Y-119360753D01*
X53986399Y-119360753D02*
X54010209Y-119408372D01*
X54010209Y-119408372D02*
X54034018Y-119503610D01*
X54034018Y-119503610D02*
X54034018Y-119575038D01*
X54034018Y-119575038D02*
X54010209Y-119670276D01*
X54010209Y-119670276D02*
X53986399Y-119717895D01*
X53986399Y-119717895D02*
X53938780Y-119765515D01*
X53938780Y-119765515D02*
X53867352Y-119789324D01*
X53867352Y-119789324D02*
X53748304Y-119789324D01*
X54224495Y-119646467D02*
X54462590Y-119646467D01*
X54176876Y-119789324D02*
X54343542Y-119289324D01*
X54343542Y-119289324D02*
X54510209Y-119789324D01*
X54938780Y-119789324D02*
X54653066Y-119789324D01*
X54795923Y-119789324D02*
X54795923Y-119289324D01*
X54795923Y-119289324D02*
X54748304Y-119360753D01*
X54748304Y-119360753D02*
X54700685Y-119408372D01*
X54700685Y-119408372D02*
X54653066Y-119432181D01*
X53248305Y-120570515D02*
X53319733Y-120594324D01*
X53319733Y-120594324D02*
X53438781Y-120594324D01*
X53438781Y-120594324D02*
X53486400Y-120570515D01*
X53486400Y-120570515D02*
X53510209Y-120546705D01*
X53510209Y-120546705D02*
X53534019Y-120499086D01*
X53534019Y-120499086D02*
X53534019Y-120451467D01*
X53534019Y-120451467D02*
X53510209Y-120403848D01*
X53510209Y-120403848D02*
X53486400Y-120380038D01*
X53486400Y-120380038D02*
X53438781Y-120356229D01*
X53438781Y-120356229D02*
X53343543Y-120332419D01*
X53343543Y-120332419D02*
X53295924Y-120308610D01*
X53295924Y-120308610D02*
X53272114Y-120284800D01*
X53272114Y-120284800D02*
X53248305Y-120237181D01*
X53248305Y-120237181D02*
X53248305Y-120189562D01*
X53248305Y-120189562D02*
X53272114Y-120141943D01*
X53272114Y-120141943D02*
X53295924Y-120118134D01*
X53295924Y-120118134D02*
X53343543Y-120094324D01*
X53343543Y-120094324D02*
X53462590Y-120094324D01*
X53462590Y-120094324D02*
X53534019Y-120118134D01*
X54034018Y-120546705D02*
X54010209Y-120570515D01*
X54010209Y-120570515D02*
X53938780Y-120594324D01*
X53938780Y-120594324D02*
X53891161Y-120594324D01*
X53891161Y-120594324D02*
X53819733Y-120570515D01*
X53819733Y-120570515D02*
X53772114Y-120522895D01*
X53772114Y-120522895D02*
X53748304Y-120475276D01*
X53748304Y-120475276D02*
X53724495Y-120380038D01*
X53724495Y-120380038D02*
X53724495Y-120308610D01*
X53724495Y-120308610D02*
X53748304Y-120213372D01*
X53748304Y-120213372D02*
X53772114Y-120165753D01*
X53772114Y-120165753D02*
X53819733Y-120118134D01*
X53819733Y-120118134D02*
X53891161Y-120094324D01*
X53891161Y-120094324D02*
X53938780Y-120094324D01*
X53938780Y-120094324D02*
X54010209Y-120118134D01*
X54010209Y-120118134D02*
X54034018Y-120141943D01*
X54486399Y-120594324D02*
X54248304Y-120594324D01*
X54248304Y-120594324D02*
X54248304Y-120094324D01*
X54914971Y-120594324D02*
X54629257Y-120594324D01*
X54772114Y-120594324D02*
X54772114Y-120094324D01*
X54772114Y-120094324D02*
X54724495Y-120165753D01*
X54724495Y-120165753D02*
X54676876Y-120213372D01*
X54676876Y-120213372D02*
X54629257Y-120237181D01*
D12*
X217868704Y-109057332D02*
X217906800Y-109095428D01*
X217906800Y-109095428D02*
X217944895Y-109209713D01*
X217944895Y-109209713D02*
X217944895Y-109285904D01*
X217944895Y-109285904D02*
X217906800Y-109400190D01*
X217906800Y-109400190D02*
X217830609Y-109476380D01*
X217830609Y-109476380D02*
X217754419Y-109514475D01*
X217754419Y-109514475D02*
X217602038Y-109552571D01*
X217602038Y-109552571D02*
X217487752Y-109552571D01*
X217487752Y-109552571D02*
X217335371Y-109514475D01*
X217335371Y-109514475D02*
X217259180Y-109476380D01*
X217259180Y-109476380D02*
X217182990Y-109400190D01*
X217182990Y-109400190D02*
X217144895Y-109285904D01*
X217144895Y-109285904D02*
X217144895Y-109209713D01*
X217144895Y-109209713D02*
X217182990Y-109095428D01*
X217182990Y-109095428D02*
X217221085Y-109057332D01*
X217144895Y-108790666D02*
X217144895Y-108295428D01*
X217144895Y-108295428D02*
X217449657Y-108562094D01*
X217449657Y-108562094D02*
X217449657Y-108447809D01*
X217449657Y-108447809D02*
X217487752Y-108371618D01*
X217487752Y-108371618D02*
X217525847Y-108333523D01*
X217525847Y-108333523D02*
X217602038Y-108295428D01*
X217602038Y-108295428D02*
X217792514Y-108295428D01*
X217792514Y-108295428D02*
X217868704Y-108333523D01*
X217868704Y-108333523D02*
X217906800Y-108371618D01*
X217906800Y-108371618D02*
X217944895Y-108447809D01*
X217944895Y-108447809D02*
X217944895Y-108676380D01*
X217944895Y-108676380D02*
X217906800Y-108752571D01*
X217906800Y-108752571D02*
X217868704Y-108790666D01*
D10*
X186125180Y-106212095D02*
X185315657Y-106212095D01*
X185315657Y-106212095D02*
X185220419Y-106259714D01*
X185220419Y-106259714D02*
X185172800Y-106307333D01*
X185172800Y-106307333D02*
X185125180Y-106402571D01*
X185125180Y-106402571D02*
X185125180Y-106593047D01*
X185125180Y-106593047D02*
X185172800Y-106688285D01*
X185172800Y-106688285D02*
X185220419Y-106735904D01*
X185220419Y-106735904D02*
X185315657Y-106783523D01*
X185315657Y-106783523D02*
X186125180Y-106783523D01*
X186029942Y-107212095D02*
X186077561Y-107259714D01*
X186077561Y-107259714D02*
X186125180Y-107354952D01*
X186125180Y-107354952D02*
X186125180Y-107593047D01*
X186125180Y-107593047D02*
X186077561Y-107688285D01*
X186077561Y-107688285D02*
X186029942Y-107735904D01*
X186029942Y-107735904D02*
X185934704Y-107783523D01*
X185934704Y-107783523D02*
X185839466Y-107783523D01*
X185839466Y-107783523D02*
X185696609Y-107735904D01*
X185696609Y-107735904D02*
X185125180Y-107164476D01*
X185125180Y-107164476D02*
X185125180Y-107783523D01*
X184686819Y-105558749D02*
X184924914Y-105558749D01*
X184829676Y-105796844D02*
X184924914Y-105558749D01*
X184924914Y-105558749D02*
X184829676Y-105320654D01*
X185115390Y-105701606D02*
X184924914Y-105558749D01*
X184924914Y-105558749D02*
X185115390Y-105415892D01*
D12*
X226946667Y-116032704D02*
X226908571Y-116070800D01*
X226908571Y-116070800D02*
X226794286Y-116108895D01*
X226794286Y-116108895D02*
X226718095Y-116108895D01*
X226718095Y-116108895D02*
X226603809Y-116070800D01*
X226603809Y-116070800D02*
X226527619Y-115994609D01*
X226527619Y-115994609D02*
X226489524Y-115918419D01*
X226489524Y-115918419D02*
X226451428Y-115766038D01*
X226451428Y-115766038D02*
X226451428Y-115651752D01*
X226451428Y-115651752D02*
X226489524Y-115499371D01*
X226489524Y-115499371D02*
X226527619Y-115423180D01*
X226527619Y-115423180D02*
X226603809Y-115346990D01*
X226603809Y-115346990D02*
X226718095Y-115308895D01*
X226718095Y-115308895D02*
X226794286Y-115308895D01*
X226794286Y-115308895D02*
X226908571Y-115346990D01*
X226908571Y-115346990D02*
X226946667Y-115385085D01*
X227632381Y-115575561D02*
X227632381Y-116108895D01*
X227441905Y-115270800D02*
X227251428Y-115842228D01*
X227251428Y-115842228D02*
X227746667Y-115842228D01*
X51672580Y-117162095D02*
X50863057Y-117162095D01*
X50863057Y-117162095D02*
X50767819Y-117209714D01*
X50767819Y-117209714D02*
X50720200Y-117257333D01*
X50720200Y-117257333D02*
X50672580Y-117352571D01*
X50672580Y-117352571D02*
X50672580Y-117543047D01*
X50672580Y-117543047D02*
X50720200Y-117638285D01*
X50720200Y-117638285D02*
X50767819Y-117685904D01*
X50767819Y-117685904D02*
X50863057Y-117733523D01*
X50863057Y-117733523D02*
X51672580Y-117733523D01*
X51244009Y-118352571D02*
X51291628Y-118257333D01*
X51291628Y-118257333D02*
X51339247Y-118209714D01*
X51339247Y-118209714D02*
X51434485Y-118162095D01*
X51434485Y-118162095D02*
X51482104Y-118162095D01*
X51482104Y-118162095D02*
X51577342Y-118209714D01*
X51577342Y-118209714D02*
X51624961Y-118257333D01*
X51624961Y-118257333D02*
X51672580Y-118352571D01*
X51672580Y-118352571D02*
X51672580Y-118543047D01*
X51672580Y-118543047D02*
X51624961Y-118638285D01*
X51624961Y-118638285D02*
X51577342Y-118685904D01*
X51577342Y-118685904D02*
X51482104Y-118733523D01*
X51482104Y-118733523D02*
X51434485Y-118733523D01*
X51434485Y-118733523D02*
X51339247Y-118685904D01*
X51339247Y-118685904D02*
X51291628Y-118638285D01*
X51291628Y-118638285D02*
X51244009Y-118543047D01*
X51244009Y-118543047D02*
X51244009Y-118352571D01*
X51244009Y-118352571D02*
X51196390Y-118257333D01*
X51196390Y-118257333D02*
X51148771Y-118209714D01*
X51148771Y-118209714D02*
X51053533Y-118162095D01*
X51053533Y-118162095D02*
X50863057Y-118162095D01*
X50863057Y-118162095D02*
X50767819Y-118209714D01*
X50767819Y-118209714D02*
X50720200Y-118257333D01*
X50720200Y-118257333D02*
X50672580Y-118352571D01*
X50672580Y-118352571D02*
X50672580Y-118543047D01*
X50672580Y-118543047D02*
X50720200Y-118638285D01*
X50720200Y-118638285D02*
X50767819Y-118685904D01*
X50767819Y-118685904D02*
X50863057Y-118733523D01*
X50863057Y-118733523D02*
X51053533Y-118733523D01*
X51053533Y-118733523D02*
X51148771Y-118685904D01*
X51148771Y-118685904D02*
X51196390Y-118638285D01*
X51196390Y-118638285D02*
X51244009Y-118543047D01*
D10*
X50304819Y-116403999D02*
X50542914Y-116403999D01*
X50447676Y-116642094D02*
X50542914Y-116403999D01*
X50542914Y-116403999D02*
X50447676Y-116165904D01*
X50733390Y-116546856D02*
X50542914Y-116403999D01*
X50542914Y-116403999D02*
X50733390Y-116261142D01*
X186125180Y-128262095D02*
X185315657Y-128262095D01*
X185315657Y-128262095D02*
X185220419Y-128309714D01*
X185220419Y-128309714D02*
X185172800Y-128357333D01*
X185172800Y-128357333D02*
X185125180Y-128452571D01*
X185125180Y-128452571D02*
X185125180Y-128643047D01*
X185125180Y-128643047D02*
X185172800Y-128738285D01*
X185172800Y-128738285D02*
X185220419Y-128785904D01*
X185220419Y-128785904D02*
X185315657Y-128833523D01*
X185315657Y-128833523D02*
X186125180Y-128833523D01*
X186125180Y-129738285D02*
X186125180Y-129547809D01*
X186125180Y-129547809D02*
X186077561Y-129452571D01*
X186077561Y-129452571D02*
X186029942Y-129404952D01*
X186029942Y-129404952D02*
X185887085Y-129309714D01*
X185887085Y-129309714D02*
X185696609Y-129262095D01*
X185696609Y-129262095D02*
X185315657Y-129262095D01*
X185315657Y-129262095D02*
X185220419Y-129309714D01*
X185220419Y-129309714D02*
X185172800Y-129357333D01*
X185172800Y-129357333D02*
X185125180Y-129452571D01*
X185125180Y-129452571D02*
X185125180Y-129643047D01*
X185125180Y-129643047D02*
X185172800Y-129738285D01*
X185172800Y-129738285D02*
X185220419Y-129785904D01*
X185220419Y-129785904D02*
X185315657Y-129833523D01*
X185315657Y-129833523D02*
X185553752Y-129833523D01*
X185553752Y-129833523D02*
X185648990Y-129785904D01*
X185648990Y-129785904D02*
X185696609Y-129738285D01*
X185696609Y-129738285D02*
X185744228Y-129643047D01*
X185744228Y-129643047D02*
X185744228Y-129452571D01*
X185744228Y-129452571D02*
X185696609Y-129357333D01*
X185696609Y-129357333D02*
X185648990Y-129309714D01*
X185648990Y-129309714D02*
X185553752Y-129262095D01*
X184686819Y-127558749D02*
X184924914Y-127558749D01*
X184829676Y-127796844D02*
X184924914Y-127558749D01*
X184924914Y-127558749D02*
X184829676Y-127320654D01*
X185115390Y-127701606D02*
X184924914Y-127558749D01*
X184924914Y-127558749D02*
X185115390Y-127415892D01*
D12*
X222915104Y-128214476D02*
X222267485Y-128214476D01*
X222267485Y-128214476D02*
X222191295Y-128252571D01*
X222191295Y-128252571D02*
X222153200Y-128290666D01*
X222153200Y-128290666D02*
X222115104Y-128366857D01*
X222115104Y-128366857D02*
X222115104Y-128519238D01*
X222115104Y-128519238D02*
X222153200Y-128595428D01*
X222153200Y-128595428D02*
X222191295Y-128633523D01*
X222191295Y-128633523D02*
X222267485Y-128671619D01*
X222267485Y-128671619D02*
X222915104Y-128671619D01*
X222915104Y-129433523D02*
X222915104Y-129052571D01*
X222915104Y-129052571D02*
X222534152Y-129014475D01*
X222534152Y-129014475D02*
X222572247Y-129052571D01*
X222572247Y-129052571D02*
X222610342Y-129128761D01*
X222610342Y-129128761D02*
X222610342Y-129319237D01*
X222610342Y-129319237D02*
X222572247Y-129395428D01*
X222572247Y-129395428D02*
X222534152Y-129433523D01*
X222534152Y-129433523D02*
X222457961Y-129471618D01*
X222457961Y-129471618D02*
X222267485Y-129471618D01*
X222267485Y-129471618D02*
X222191295Y-129433523D01*
X222191295Y-129433523D02*
X222153200Y-129395428D01*
X222153200Y-129395428D02*
X222115104Y-129319237D01*
X222115104Y-129319237D02*
X222115104Y-129128761D01*
X222115104Y-129128761D02*
X222153200Y-129052571D01*
X222153200Y-129052571D02*
X222191295Y-129014475D01*
D10*
X221814819Y-127558750D02*
X222052914Y-127558750D01*
X221957676Y-127796845D02*
X222052914Y-127558750D01*
X222052914Y-127558750D02*
X221957676Y-127320655D01*
X222243390Y-127701607D02*
X222052914Y-127558750D01*
X222052914Y-127558750D02*
X222243390Y-127415893D01*
X179763333Y-109033580D02*
X179715714Y-109081200D01*
X179715714Y-109081200D02*
X179572857Y-109128819D01*
X179572857Y-109128819D02*
X179477619Y-109128819D01*
X179477619Y-109128819D02*
X179334762Y-109081200D01*
X179334762Y-109081200D02*
X179239524Y-108985961D01*
X179239524Y-108985961D02*
X179191905Y-108890723D01*
X179191905Y-108890723D02*
X179144286Y-108700247D01*
X179144286Y-108700247D02*
X179144286Y-108557390D01*
X179144286Y-108557390D02*
X179191905Y-108366914D01*
X179191905Y-108366914D02*
X179239524Y-108271676D01*
X179239524Y-108271676D02*
X179334762Y-108176438D01*
X179334762Y-108176438D02*
X179477619Y-108128819D01*
X179477619Y-108128819D02*
X179572857Y-108128819D01*
X179572857Y-108128819D02*
X179715714Y-108176438D01*
X179715714Y-108176438D02*
X179763333Y-108224057D01*
X180144286Y-108224057D02*
X180191905Y-108176438D01*
X180191905Y-108176438D02*
X180287143Y-108128819D01*
X180287143Y-108128819D02*
X180525238Y-108128819D01*
X180525238Y-108128819D02*
X180620476Y-108176438D01*
X180620476Y-108176438D02*
X180668095Y-108224057D01*
X180668095Y-108224057D02*
X180715714Y-108319295D01*
X180715714Y-108319295D02*
X180715714Y-108414533D01*
X180715714Y-108414533D02*
X180668095Y-108557390D01*
X180668095Y-108557390D02*
X180096667Y-109128819D01*
X180096667Y-109128819D02*
X180715714Y-109128819D01*
X141325180Y-128262095D02*
X140515657Y-128262095D01*
X140515657Y-128262095D02*
X140420419Y-128309714D01*
X140420419Y-128309714D02*
X140372800Y-128357333D01*
X140372800Y-128357333D02*
X140325180Y-128452571D01*
X140325180Y-128452571D02*
X140325180Y-128643047D01*
X140325180Y-128643047D02*
X140372800Y-128738285D01*
X140372800Y-128738285D02*
X140420419Y-128785904D01*
X140420419Y-128785904D02*
X140515657Y-128833523D01*
X140515657Y-128833523D02*
X141325180Y-128833523D01*
X141325180Y-129214476D02*
X141325180Y-129881142D01*
X141325180Y-129881142D02*
X140325180Y-129452571D01*
X140044819Y-127558750D02*
X140282914Y-127558750D01*
X140187676Y-127796845D02*
X140282914Y-127558750D01*
X140282914Y-127558750D02*
X140187676Y-127320655D01*
X140473390Y-127701607D02*
X140282914Y-127558750D01*
X140282914Y-127558750D02*
X140473390Y-127415893D01*
X141325180Y-106412095D02*
X140515657Y-106412095D01*
X140515657Y-106412095D02*
X140420419Y-106459714D01*
X140420419Y-106459714D02*
X140372800Y-106507333D01*
X140372800Y-106507333D02*
X140325180Y-106602571D01*
X140325180Y-106602571D02*
X140325180Y-106793047D01*
X140325180Y-106793047D02*
X140372800Y-106888285D01*
X140372800Y-106888285D02*
X140420419Y-106935904D01*
X140420419Y-106935904D02*
X140515657Y-106983523D01*
X140515657Y-106983523D02*
X141325180Y-106983523D01*
X140325180Y-107983523D02*
X140325180Y-107412095D01*
X140325180Y-107697809D02*
X141325180Y-107697809D01*
X141325180Y-107697809D02*
X141182323Y-107602571D01*
X141182323Y-107602571D02*
X141087085Y-107507333D01*
X141087085Y-107507333D02*
X141039466Y-107412095D01*
X140044819Y-105558750D02*
X140282914Y-105558750D01*
X140187676Y-105796845D02*
X140282914Y-105558750D01*
X140282914Y-105558750D02*
X140187676Y-105320655D01*
X140473390Y-105701607D02*
X140282914Y-105558750D01*
X140282914Y-105558750D02*
X140473390Y-105415893D01*
X134363333Y-127633580D02*
X134315714Y-127681200D01*
X134315714Y-127681200D02*
X134172857Y-127728819D01*
X134172857Y-127728819D02*
X134077619Y-127728819D01*
X134077619Y-127728819D02*
X133934762Y-127681200D01*
X133934762Y-127681200D02*
X133839524Y-127585961D01*
X133839524Y-127585961D02*
X133791905Y-127490723D01*
X133791905Y-127490723D02*
X133744286Y-127300247D01*
X133744286Y-127300247D02*
X133744286Y-127157390D01*
X133744286Y-127157390D02*
X133791905Y-126966914D01*
X133791905Y-126966914D02*
X133839524Y-126871676D01*
X133839524Y-126871676D02*
X133934762Y-126776438D01*
X133934762Y-126776438D02*
X134077619Y-126728819D01*
X134077619Y-126728819D02*
X134172857Y-126728819D01*
X134172857Y-126728819D02*
X134315714Y-126776438D01*
X134315714Y-126776438D02*
X134363333Y-126824057D01*
X134696667Y-126728819D02*
X135363333Y-126728819D01*
X135363333Y-126728819D02*
X134934762Y-127728819D01*
X230295250Y-119948819D02*
X230295250Y-120186914D01*
X230057155Y-120091676D02*
X230295250Y-120186914D01*
X230295250Y-120186914D02*
X230533345Y-120091676D01*
X230152393Y-120377390D02*
X230295250Y-120186914D01*
X230295250Y-120186914D02*
X230438107Y-120377390D01*
D12*
X217943704Y-126957332D02*
X217981800Y-126995428D01*
X217981800Y-126995428D02*
X218019895Y-127109713D01*
X218019895Y-127109713D02*
X218019895Y-127185904D01*
X218019895Y-127185904D02*
X217981800Y-127300190D01*
X217981800Y-127300190D02*
X217905609Y-127376380D01*
X217905609Y-127376380D02*
X217829419Y-127414475D01*
X217829419Y-127414475D02*
X217677038Y-127452571D01*
X217677038Y-127452571D02*
X217562752Y-127452571D01*
X217562752Y-127452571D02*
X217410371Y-127414475D01*
X217410371Y-127414475D02*
X217334180Y-127376380D01*
X217334180Y-127376380D02*
X217257990Y-127300190D01*
X217257990Y-127300190D02*
X217219895Y-127185904D01*
X217219895Y-127185904D02*
X217219895Y-127109713D01*
X217219895Y-127109713D02*
X217257990Y-126995428D01*
X217257990Y-126995428D02*
X217296085Y-126957332D01*
X217219895Y-126233523D02*
X217219895Y-126614475D01*
X217219895Y-126614475D02*
X217600847Y-126652571D01*
X217600847Y-126652571D02*
X217562752Y-126614475D01*
X217562752Y-126614475D02*
X217524657Y-126538285D01*
X217524657Y-126538285D02*
X217524657Y-126347809D01*
X217524657Y-126347809D02*
X217562752Y-126271618D01*
X217562752Y-126271618D02*
X217600847Y-126233523D01*
X217600847Y-126233523D02*
X217677038Y-126195428D01*
X217677038Y-126195428D02*
X217867514Y-126195428D01*
X217867514Y-126195428D02*
X217943704Y-126233523D01*
X217943704Y-126233523D02*
X217981800Y-126271618D01*
X217981800Y-126271618D02*
X218019895Y-126347809D01*
X218019895Y-126347809D02*
X218019895Y-126538285D01*
X218019895Y-126538285D02*
X217981800Y-126614475D01*
X217981800Y-126614475D02*
X217943704Y-126652571D01*
X222865104Y-106314476D02*
X222217485Y-106314476D01*
X222217485Y-106314476D02*
X222141295Y-106352571D01*
X222141295Y-106352571D02*
X222103200Y-106390666D01*
X222103200Y-106390666D02*
X222065104Y-106466857D01*
X222065104Y-106466857D02*
X222065104Y-106619238D01*
X222065104Y-106619238D02*
X222103200Y-106695428D01*
X222103200Y-106695428D02*
X222141295Y-106733523D01*
X222141295Y-106733523D02*
X222217485Y-106771619D01*
X222217485Y-106771619D02*
X222865104Y-106771619D01*
X222865104Y-107076380D02*
X222865104Y-107571618D01*
X222865104Y-107571618D02*
X222560342Y-107304952D01*
X222560342Y-107304952D02*
X222560342Y-107419237D01*
X222560342Y-107419237D02*
X222522247Y-107495428D01*
X222522247Y-107495428D02*
X222484152Y-107533523D01*
X222484152Y-107533523D02*
X222407961Y-107571618D01*
X222407961Y-107571618D02*
X222217485Y-107571618D01*
X222217485Y-107571618D02*
X222141295Y-107533523D01*
X222141295Y-107533523D02*
X222103200Y-107495428D01*
X222103200Y-107495428D02*
X222065104Y-107419237D01*
X222065104Y-107419237D02*
X222065104Y-107190666D01*
X222065104Y-107190666D02*
X222103200Y-107114475D01*
X222103200Y-107114475D02*
X222141295Y-107076380D01*
D10*
X221814819Y-105558750D02*
X222052914Y-105558750D01*
X221957676Y-105796845D02*
X222052914Y-105558750D01*
X222052914Y-105558750D02*
X221957676Y-105320655D01*
X222243390Y-105701607D02*
X222052914Y-105558750D01*
X222052914Y-105558750D02*
X222243390Y-105415893D01*
X134563333Y-109183580D02*
X134515714Y-109231200D01*
X134515714Y-109231200D02*
X134372857Y-109278819D01*
X134372857Y-109278819D02*
X134277619Y-109278819D01*
X134277619Y-109278819D02*
X134134762Y-109231200D01*
X134134762Y-109231200D02*
X134039524Y-109135961D01*
X134039524Y-109135961D02*
X133991905Y-109040723D01*
X133991905Y-109040723D02*
X133944286Y-108850247D01*
X133944286Y-108850247D02*
X133944286Y-108707390D01*
X133944286Y-108707390D02*
X133991905Y-108516914D01*
X133991905Y-108516914D02*
X134039524Y-108421676D01*
X134039524Y-108421676D02*
X134134762Y-108326438D01*
X134134762Y-108326438D02*
X134277619Y-108278819D01*
X134277619Y-108278819D02*
X134372857Y-108278819D01*
X134372857Y-108278819D02*
X134515714Y-108326438D01*
X134515714Y-108326438D02*
X134563333Y-108374057D01*
X135515714Y-109278819D02*
X134944286Y-109278819D01*
X135230000Y-109278819D02*
X135230000Y-108278819D01*
X135230000Y-108278819D02*
X135134762Y-108421676D01*
X135134762Y-108421676D02*
X135039524Y-108516914D01*
X135039524Y-108516914D02*
X134944286Y-108564533D01*
X179763333Y-127633580D02*
X179715714Y-127681200D01*
X179715714Y-127681200D02*
X179572857Y-127728819D01*
X179572857Y-127728819D02*
X179477619Y-127728819D01*
X179477619Y-127728819D02*
X179334762Y-127681200D01*
X179334762Y-127681200D02*
X179239524Y-127585961D01*
X179239524Y-127585961D02*
X179191905Y-127490723D01*
X179191905Y-127490723D02*
X179144286Y-127300247D01*
X179144286Y-127300247D02*
X179144286Y-127157390D01*
X179144286Y-127157390D02*
X179191905Y-126966914D01*
X179191905Y-126966914D02*
X179239524Y-126871676D01*
X179239524Y-126871676D02*
X179334762Y-126776438D01*
X179334762Y-126776438D02*
X179477619Y-126728819D01*
X179477619Y-126728819D02*
X179572857Y-126728819D01*
X179572857Y-126728819D02*
X179715714Y-126776438D01*
X179715714Y-126776438D02*
X179763333Y-126824057D01*
X180620476Y-126728819D02*
X180430000Y-126728819D01*
X180430000Y-126728819D02*
X180334762Y-126776438D01*
X180334762Y-126776438D02*
X180287143Y-126824057D01*
X180287143Y-126824057D02*
X180191905Y-126966914D01*
X180191905Y-126966914D02*
X180144286Y-127157390D01*
X180144286Y-127157390D02*
X180144286Y-127538342D01*
X180144286Y-127538342D02*
X180191905Y-127633580D01*
X180191905Y-127633580D02*
X180239524Y-127681200D01*
X180239524Y-127681200D02*
X180334762Y-127728819D01*
X180334762Y-127728819D02*
X180525238Y-127728819D01*
X180525238Y-127728819D02*
X180620476Y-127681200D01*
X180620476Y-127681200D02*
X180668095Y-127633580D01*
X180668095Y-127633580D02*
X180715714Y-127538342D01*
X180715714Y-127538342D02*
X180715714Y-127300247D01*
X180715714Y-127300247D02*
X180668095Y-127205009D01*
X180668095Y-127205009D02*
X180620476Y-127157390D01*
X180620476Y-127157390D02*
X180525238Y-127109771D01*
X180525238Y-127109771D02*
X180334762Y-127109771D01*
X180334762Y-127109771D02*
X180239524Y-127157390D01*
X180239524Y-127157390D02*
X180191905Y-127205009D01*
X180191905Y-127205009D02*
X180144286Y-127300247D01*
D13*
X181229000Y-105920700D02*
X181229000Y-107927300D01*
X184531000Y-107927300D02*
X184531000Y-105920700D01*
X181229000Y-127920700D02*
X181229000Y-129927300D01*
X184531000Y-129927300D02*
X184531000Y-127920700D01*
X218379000Y-127920700D02*
X218379000Y-129927300D01*
X221681000Y-129927300D02*
X221681000Y-127920700D01*
X136429000Y-127920700D02*
X136429000Y-129927300D01*
X139731000Y-129927300D02*
X139731000Y-127920700D01*
X136429000Y-105920700D02*
X136429000Y-107927300D01*
X139731000Y-107927300D02*
X139731000Y-105920700D01*
X229933300Y-116373000D02*
X227926700Y-116373000D01*
X227926700Y-119675000D02*
X229933300Y-119675000D01*
X218379000Y-105920700D02*
X218379000Y-107927300D01*
X221681000Y-107927300D02*
X221681000Y-105920700D01*
%LPC*%
D14*
X217530000Y-107491500D03*
X217530000Y-106356500D03*
D15*
X183830001Y-105558750D03*
X182880000Y-105558750D03*
X181929999Y-105558750D03*
X181929999Y-108289250D03*
X182880000Y-108289250D03*
X183830001Y-108289250D03*
D16*
X228372500Y-115634000D03*
X229507500Y-115634000D03*
D17*
X44580000Y-116424000D03*
X44580000Y-116924000D03*
X44580000Y-117424000D03*
X44580000Y-117924000D03*
X44580000Y-118424000D03*
X44580000Y-118924000D03*
X44580000Y-119424000D03*
D15*
X183830001Y-127558750D03*
X182880000Y-127558750D03*
X181929999Y-127558750D03*
X181929999Y-130289250D03*
X182880000Y-130289250D03*
X183830001Y-130289250D03*
X220980001Y-127558750D03*
X220030000Y-127558750D03*
X219079999Y-127558750D03*
X219079999Y-130289250D03*
X220030000Y-130289250D03*
X220980001Y-130289250D03*
D14*
X179930000Y-107491500D03*
X179930000Y-106356500D03*
D15*
X139030001Y-127558750D03*
X138080000Y-127558750D03*
X137129999Y-127558750D03*
X137129999Y-130289250D03*
X138080000Y-130289250D03*
X139030001Y-130289250D03*
X139030001Y-105558750D03*
X138080000Y-105558750D03*
X137129999Y-105558750D03*
X137129999Y-108289250D03*
X138080000Y-108289250D03*
X139030001Y-108289250D03*
D14*
X134530001Y-129491499D03*
X134530001Y-128356499D03*
D18*
X230295250Y-118974001D03*
X230295250Y-118024000D03*
X230295250Y-117073999D03*
X227564750Y-117073999D03*
X227564750Y-118024000D03*
X227564750Y-118974001D03*
D14*
X217655000Y-129491500D03*
X217655000Y-128356500D03*
D15*
X220980001Y-105558750D03*
X220030000Y-105558750D03*
X219079999Y-105558750D03*
X219079999Y-108289250D03*
X220030000Y-108289250D03*
X220980001Y-108289250D03*
D14*
X134696000Y-107631500D03*
X134696000Y-106496500D03*
X179930000Y-129491500D03*
X179930000Y-128356500D03*
%LPD*%
M02*
