G04 #@! TF.GenerationSoftware,KiCad,Pcbnew,7.0.7*
G04 #@! TF.CreationDate,2024-05-14T22:52:39+02:00*
G04 #@! TF.ProjectId,Index_Middle_Ring_V3,496e6465-785f-44d6-9964-646c655f5269,rev?*
G04 #@! TF.SameCoordinates,Original*
G04 #@! TF.FileFunction,Other,User*
%FSLAX46Y46*%
G04 Gerber Fmt 4.6, Leading zero omitted, Abs format (unit mm)*
G04 Created by KiCad (PCBNEW 7.0.7) date 2024-05-14 22:52:39*
%MOMM*%
%LPD*%
G01*
G04 APERTURE LIST*
%ADD10C,0.150000*%
G04 APERTURE END LIST*
D10*
X231180002Y-115024001D02*
X231180000Y-120824000D01*
X226604602Y-120824000D01*
X226604601Y-115024000D01*
X231180002Y-115024001D01*
X132280000Y-104674000D02*
X143860000Y-104674000D01*
X143860000Y-109184000D01*
X132280000Y-109184000D01*
X132280000Y-104674000D01*
X132300001Y-126614000D02*
X143880000Y-126614000D01*
X143880000Y-131144000D01*
X132300001Y-131144000D01*
X132300001Y-126614000D01*
X223130000Y-109124000D02*
X216930000Y-109124000D01*
X216930000Y-104724001D01*
X223130001Y-104724000D01*
X223130000Y-109124000D01*
X50280000Y-119919414D02*
X42279999Y-119919414D01*
X42280000Y-115919414D01*
X50279999Y-115919414D01*
X50280000Y-119919414D01*
X216890000Y-126673999D02*
X223179998Y-126673999D01*
X223179998Y-131154000D01*
X216890000Y-131154000D01*
X216890000Y-126673999D01*
X178870000Y-104654000D02*
X186890000Y-104654000D01*
X186890000Y-109254000D01*
X178870000Y-109254000D01*
X178870000Y-104654000D01*
X178870000Y-126634000D02*
X186890000Y-126634000D01*
X186890000Y-131184000D01*
X178870000Y-131184000D01*
X178870000Y-126634000D01*
X48143905Y-125353337D02*
X48143905Y-125924765D01*
X47143905Y-125639051D02*
X48143905Y-125639051D01*
X47143905Y-126258099D02*
X48143905Y-126258099D01*
X47143905Y-126686670D02*
X47667715Y-126686670D01*
X47667715Y-126686670D02*
X47762953Y-126639051D01*
X47762953Y-126639051D02*
X47810572Y-126543813D01*
X47810572Y-126543813D02*
X47810572Y-126400956D01*
X47810572Y-126400956D02*
X47762953Y-126305718D01*
X47762953Y-126305718D02*
X47715334Y-126258099D01*
X47143905Y-127162861D02*
X47810572Y-127162861D01*
X48143905Y-127162861D02*
X48096286Y-127115242D01*
X48096286Y-127115242D02*
X48048667Y-127162861D01*
X48048667Y-127162861D02*
X48096286Y-127210480D01*
X48096286Y-127210480D02*
X48143905Y-127162861D01*
X48143905Y-127162861D02*
X48048667Y-127162861D01*
X47191525Y-128067622D02*
X47143905Y-127972384D01*
X47143905Y-127972384D02*
X47143905Y-127781908D01*
X47143905Y-127781908D02*
X47191525Y-127686670D01*
X47191525Y-127686670D02*
X47239144Y-127639051D01*
X47239144Y-127639051D02*
X47334382Y-127591432D01*
X47334382Y-127591432D02*
X47620096Y-127591432D01*
X47620096Y-127591432D02*
X47715334Y-127639051D01*
X47715334Y-127639051D02*
X47762953Y-127686670D01*
X47762953Y-127686670D02*
X47810572Y-127781908D01*
X47810572Y-127781908D02*
X47810572Y-127972384D01*
X47810572Y-127972384D02*
X47762953Y-128067622D01*
X47143905Y-128496194D02*
X48143905Y-128496194D01*
X47524858Y-128591432D02*
X47143905Y-128877146D01*
X47810572Y-128877146D02*
X47429620Y-128496194D01*
X47810572Y-129305718D02*
X47143905Y-129305718D01*
X47715334Y-129305718D02*
X47762953Y-129353337D01*
X47762953Y-129353337D02*
X47810572Y-129448575D01*
X47810572Y-129448575D02*
X47810572Y-129591432D01*
X47810572Y-129591432D02*
X47762953Y-129686670D01*
X47762953Y-129686670D02*
X47667715Y-129734289D01*
X47667715Y-129734289D02*
X47143905Y-129734289D01*
X47191525Y-130591432D02*
X47143905Y-130496194D01*
X47143905Y-130496194D02*
X47143905Y-130305718D01*
X47143905Y-130305718D02*
X47191525Y-130210480D01*
X47191525Y-130210480D02*
X47286763Y-130162861D01*
X47286763Y-130162861D02*
X47667715Y-130162861D01*
X47667715Y-130162861D02*
X47762953Y-130210480D01*
X47762953Y-130210480D02*
X47810572Y-130305718D01*
X47810572Y-130305718D02*
X47810572Y-130496194D01*
X47810572Y-130496194D02*
X47762953Y-130591432D01*
X47762953Y-130591432D02*
X47667715Y-130639051D01*
X47667715Y-130639051D02*
X47572477Y-130639051D01*
X47572477Y-130639051D02*
X47477239Y-130162861D01*
X47191525Y-131020004D02*
X47143905Y-131115242D01*
X47143905Y-131115242D02*
X47143905Y-131305718D01*
X47143905Y-131305718D02*
X47191525Y-131400956D01*
X47191525Y-131400956D02*
X47286763Y-131448575D01*
X47286763Y-131448575D02*
X47334382Y-131448575D01*
X47334382Y-131448575D02*
X47429620Y-131400956D01*
X47429620Y-131400956D02*
X47477239Y-131305718D01*
X47477239Y-131305718D02*
X47477239Y-131162861D01*
X47477239Y-131162861D02*
X47524858Y-131067623D01*
X47524858Y-131067623D02*
X47620096Y-131020004D01*
X47620096Y-131020004D02*
X47667715Y-131020004D01*
X47667715Y-131020004D02*
X47762953Y-131067623D01*
X47762953Y-131067623D02*
X47810572Y-131162861D01*
X47810572Y-131162861D02*
X47810572Y-131305718D01*
X47810572Y-131305718D02*
X47762953Y-131400956D01*
X47191525Y-131829528D02*
X47143905Y-131924766D01*
X47143905Y-131924766D02*
X47143905Y-132115242D01*
X47143905Y-132115242D02*
X47191525Y-132210480D01*
X47191525Y-132210480D02*
X47286763Y-132258099D01*
X47286763Y-132258099D02*
X47334382Y-132258099D01*
X47334382Y-132258099D02*
X47429620Y-132210480D01*
X47429620Y-132210480D02*
X47477239Y-132115242D01*
X47477239Y-132115242D02*
X47477239Y-131972385D01*
X47477239Y-131972385D02*
X47524858Y-131877147D01*
X47524858Y-131877147D02*
X47620096Y-131829528D01*
X47620096Y-131829528D02*
X47667715Y-131829528D01*
X47667715Y-131829528D02*
X47762953Y-131877147D01*
X47762953Y-131877147D02*
X47810572Y-131972385D01*
X47810572Y-131972385D02*
X47810572Y-132115242D01*
X47810572Y-132115242D02*
X47762953Y-132210480D01*
X47667715Y-133448576D02*
X47667715Y-134210481D01*
X47382001Y-134210481D02*
X47382001Y-133448576D01*
X48143905Y-135639052D02*
X48143905Y-135734290D01*
X48143905Y-135734290D02*
X48096286Y-135829528D01*
X48096286Y-135829528D02*
X48048667Y-135877147D01*
X48048667Y-135877147D02*
X47953429Y-135924766D01*
X47953429Y-135924766D02*
X47762953Y-135972385D01*
X47762953Y-135972385D02*
X47524858Y-135972385D01*
X47524858Y-135972385D02*
X47334382Y-135924766D01*
X47334382Y-135924766D02*
X47239144Y-135877147D01*
X47239144Y-135877147D02*
X47191525Y-135829528D01*
X47191525Y-135829528D02*
X47143905Y-135734290D01*
X47143905Y-135734290D02*
X47143905Y-135639052D01*
X47143905Y-135639052D02*
X47191525Y-135543814D01*
X47191525Y-135543814D02*
X47239144Y-135496195D01*
X47239144Y-135496195D02*
X47334382Y-135448576D01*
X47334382Y-135448576D02*
X47524858Y-135400957D01*
X47524858Y-135400957D02*
X47762953Y-135400957D01*
X47762953Y-135400957D02*
X47953429Y-135448576D01*
X47953429Y-135448576D02*
X48048667Y-135496195D01*
X48048667Y-135496195D02*
X48096286Y-135543814D01*
X48096286Y-135543814D02*
X48143905Y-135639052D01*
X47239144Y-136400957D02*
X47191525Y-136448576D01*
X47191525Y-136448576D02*
X47143905Y-136400957D01*
X47143905Y-136400957D02*
X47191525Y-136353338D01*
X47191525Y-136353338D02*
X47239144Y-136400957D01*
X47239144Y-136400957D02*
X47143905Y-136400957D01*
X48048667Y-136829528D02*
X48096286Y-136877147D01*
X48096286Y-136877147D02*
X48143905Y-136972385D01*
X48143905Y-136972385D02*
X48143905Y-137210480D01*
X48143905Y-137210480D02*
X48096286Y-137305718D01*
X48096286Y-137305718D02*
X48048667Y-137353337D01*
X48048667Y-137353337D02*
X47953429Y-137400956D01*
X47953429Y-137400956D02*
X47858191Y-137400956D01*
X47858191Y-137400956D02*
X47715334Y-137353337D01*
X47715334Y-137353337D02*
X47143905Y-136781909D01*
X47143905Y-136781909D02*
X47143905Y-137400956D01*
X48048667Y-137781909D02*
X48096286Y-137829528D01*
X48096286Y-137829528D02*
X48143905Y-137924766D01*
X48143905Y-137924766D02*
X48143905Y-138162861D01*
X48143905Y-138162861D02*
X48096286Y-138258099D01*
X48096286Y-138258099D02*
X48048667Y-138305718D01*
X48048667Y-138305718D02*
X47953429Y-138353337D01*
X47953429Y-138353337D02*
X47858191Y-138353337D01*
X47858191Y-138353337D02*
X47715334Y-138305718D01*
X47715334Y-138305718D02*
X47143905Y-137734290D01*
X47143905Y-137734290D02*
X47143905Y-138353337D01*
X48143905Y-139258099D02*
X48143905Y-138781909D01*
X48143905Y-138781909D02*
X47667715Y-138734290D01*
X47667715Y-138734290D02*
X47715334Y-138781909D01*
X47715334Y-138781909D02*
X47762953Y-138877147D01*
X47762953Y-138877147D02*
X47762953Y-139115242D01*
X47762953Y-139115242D02*
X47715334Y-139210480D01*
X47715334Y-139210480D02*
X47667715Y-139258099D01*
X47667715Y-139258099D02*
X47572477Y-139305718D01*
X47572477Y-139305718D02*
X47334382Y-139305718D01*
X47334382Y-139305718D02*
X47239144Y-139258099D01*
X47239144Y-139258099D02*
X47191525Y-139210480D01*
X47191525Y-139210480D02*
X47143905Y-139115242D01*
X47143905Y-139115242D02*
X47143905Y-138877147D01*
X47143905Y-138877147D02*
X47191525Y-138781909D01*
X47191525Y-138781909D02*
X47239144Y-138734290D01*
X47143905Y-139734290D02*
X47810572Y-139734290D01*
X47715334Y-139734290D02*
X47762953Y-139781909D01*
X47762953Y-139781909D02*
X47810572Y-139877147D01*
X47810572Y-139877147D02*
X47810572Y-140020004D01*
X47810572Y-140020004D02*
X47762953Y-140115242D01*
X47762953Y-140115242D02*
X47667715Y-140162861D01*
X47667715Y-140162861D02*
X47143905Y-140162861D01*
X47667715Y-140162861D02*
X47762953Y-140210480D01*
X47762953Y-140210480D02*
X47810572Y-140305718D01*
X47810572Y-140305718D02*
X47810572Y-140448575D01*
X47810572Y-140448575D02*
X47762953Y-140543814D01*
X47762953Y-140543814D02*
X47667715Y-140591433D01*
X47667715Y-140591433D02*
X47143905Y-140591433D01*
X47143905Y-141067623D02*
X47810572Y-141067623D01*
X47715334Y-141067623D02*
X47762953Y-141115242D01*
X47762953Y-141115242D02*
X47810572Y-141210480D01*
X47810572Y-141210480D02*
X47810572Y-141353337D01*
X47810572Y-141353337D02*
X47762953Y-141448575D01*
X47762953Y-141448575D02*
X47667715Y-141496194D01*
X47667715Y-141496194D02*
X47143905Y-141496194D01*
X47667715Y-141496194D02*
X47762953Y-141543813D01*
X47762953Y-141543813D02*
X47810572Y-141639051D01*
X47810572Y-141639051D02*
X47810572Y-141781908D01*
X47810572Y-141781908D02*
X47762953Y-141877147D01*
X47762953Y-141877147D02*
X47667715Y-141924766D01*
X47667715Y-141924766D02*
X47143905Y-141924766D01*
X45533905Y-125496194D02*
X46533905Y-125496194D01*
X46533905Y-125496194D02*
X46533905Y-125877146D01*
X46533905Y-125877146D02*
X46486286Y-125972384D01*
X46486286Y-125972384D02*
X46438667Y-126020003D01*
X46438667Y-126020003D02*
X46343429Y-126067622D01*
X46343429Y-126067622D02*
X46200572Y-126067622D01*
X46200572Y-126067622D02*
X46105334Y-126020003D01*
X46105334Y-126020003D02*
X46057715Y-125972384D01*
X46057715Y-125972384D02*
X46010096Y-125877146D01*
X46010096Y-125877146D02*
X46010096Y-125496194D01*
X45533905Y-126639051D02*
X45581525Y-126543813D01*
X45581525Y-126543813D02*
X45629144Y-126496194D01*
X45629144Y-126496194D02*
X45724382Y-126448575D01*
X45724382Y-126448575D02*
X46010096Y-126448575D01*
X46010096Y-126448575D02*
X46105334Y-126496194D01*
X46105334Y-126496194D02*
X46152953Y-126543813D01*
X46152953Y-126543813D02*
X46200572Y-126639051D01*
X46200572Y-126639051D02*
X46200572Y-126781908D01*
X46200572Y-126781908D02*
X46152953Y-126877146D01*
X46152953Y-126877146D02*
X46105334Y-126924765D01*
X46105334Y-126924765D02*
X46010096Y-126972384D01*
X46010096Y-126972384D02*
X45724382Y-126972384D01*
X45724382Y-126972384D02*
X45629144Y-126924765D01*
X45629144Y-126924765D02*
X45581525Y-126877146D01*
X45581525Y-126877146D02*
X45533905Y-126781908D01*
X45533905Y-126781908D02*
X45533905Y-126639051D01*
X45533905Y-127543813D02*
X45581525Y-127448575D01*
X45581525Y-127448575D02*
X45676763Y-127400956D01*
X45676763Y-127400956D02*
X46533905Y-127400956D01*
X46200572Y-127829528D02*
X45533905Y-128067623D01*
X46200572Y-128305718D02*
X45533905Y-128067623D01*
X45533905Y-128067623D02*
X45295810Y-127972385D01*
X45295810Y-127972385D02*
X45248191Y-127924766D01*
X45248191Y-127924766D02*
X45200572Y-127829528D01*
X45533905Y-128686671D02*
X46200572Y-128686671D01*
X46533905Y-128686671D02*
X46486286Y-128639052D01*
X46486286Y-128639052D02*
X46438667Y-128686671D01*
X46438667Y-128686671D02*
X46486286Y-128734290D01*
X46486286Y-128734290D02*
X46533905Y-128686671D01*
X46533905Y-128686671D02*
X46438667Y-128686671D01*
X45533905Y-129162861D02*
X46200572Y-129162861D01*
X46105334Y-129162861D02*
X46152953Y-129210480D01*
X46152953Y-129210480D02*
X46200572Y-129305718D01*
X46200572Y-129305718D02*
X46200572Y-129448575D01*
X46200572Y-129448575D02*
X46152953Y-129543813D01*
X46152953Y-129543813D02*
X46057715Y-129591432D01*
X46057715Y-129591432D02*
X45533905Y-129591432D01*
X46057715Y-129591432D02*
X46152953Y-129639051D01*
X46152953Y-129639051D02*
X46200572Y-129734289D01*
X46200572Y-129734289D02*
X46200572Y-129877146D01*
X46200572Y-129877146D02*
X46152953Y-129972385D01*
X46152953Y-129972385D02*
X46057715Y-130020004D01*
X46057715Y-130020004D02*
X45533905Y-130020004D01*
X45533905Y-130496194D02*
X46200572Y-130496194D01*
X46533905Y-130496194D02*
X46486286Y-130448575D01*
X46486286Y-130448575D02*
X46438667Y-130496194D01*
X46438667Y-130496194D02*
X46486286Y-130543813D01*
X46486286Y-130543813D02*
X46533905Y-130496194D01*
X46533905Y-130496194D02*
X46438667Y-130496194D01*
X45533905Y-131400955D02*
X46533905Y-131400955D01*
X45581525Y-131400955D02*
X45533905Y-131305717D01*
X45533905Y-131305717D02*
X45533905Y-131115241D01*
X45533905Y-131115241D02*
X45581525Y-131020003D01*
X45581525Y-131020003D02*
X45629144Y-130972384D01*
X45629144Y-130972384D02*
X45724382Y-130924765D01*
X45724382Y-130924765D02*
X46010096Y-130924765D01*
X46010096Y-130924765D02*
X46105334Y-130972384D01*
X46105334Y-130972384D02*
X46152953Y-131020003D01*
X46152953Y-131020003D02*
X46200572Y-131115241D01*
X46200572Y-131115241D02*
X46200572Y-131305717D01*
X46200572Y-131305717D02*
X46152953Y-131400955D01*
X45581525Y-132258098D02*
X45533905Y-132162860D01*
X45533905Y-132162860D02*
X45533905Y-131972384D01*
X45533905Y-131972384D02*
X45581525Y-131877146D01*
X45581525Y-131877146D02*
X45676763Y-131829527D01*
X45676763Y-131829527D02*
X46057715Y-131829527D01*
X46057715Y-131829527D02*
X46152953Y-131877146D01*
X46152953Y-131877146D02*
X46200572Y-131972384D01*
X46200572Y-131972384D02*
X46200572Y-132162860D01*
X46200572Y-132162860D02*
X46152953Y-132258098D01*
X46152953Y-132258098D02*
X46057715Y-132305717D01*
X46057715Y-132305717D02*
X45962477Y-132305717D01*
X45962477Y-132305717D02*
X45867239Y-131829527D01*
X45581525Y-133448575D02*
X45533905Y-133543813D01*
X45533905Y-133543813D02*
X45533905Y-133734289D01*
X45533905Y-133734289D02*
X45581525Y-133829527D01*
X45581525Y-133829527D02*
X45676763Y-133877146D01*
X45676763Y-133877146D02*
X45724382Y-133877146D01*
X45724382Y-133877146D02*
X45819620Y-133829527D01*
X45819620Y-133829527D02*
X45867239Y-133734289D01*
X45867239Y-133734289D02*
X45867239Y-133591432D01*
X45867239Y-133591432D02*
X45914858Y-133496194D01*
X45914858Y-133496194D02*
X46010096Y-133448575D01*
X46010096Y-133448575D02*
X46057715Y-133448575D01*
X46057715Y-133448575D02*
X46152953Y-133496194D01*
X46152953Y-133496194D02*
X46200572Y-133591432D01*
X46200572Y-133591432D02*
X46200572Y-133734289D01*
X46200572Y-133734289D02*
X46152953Y-133829527D01*
X46200572Y-134162861D02*
X46200572Y-134543813D01*
X46533905Y-134305718D02*
X45676763Y-134305718D01*
X45676763Y-134305718D02*
X45581525Y-134353337D01*
X45581525Y-134353337D02*
X45533905Y-134448575D01*
X45533905Y-134448575D02*
X45533905Y-134543813D01*
X45533905Y-134877147D02*
X46200572Y-134877147D01*
X46533905Y-134877147D02*
X46486286Y-134829528D01*
X46486286Y-134829528D02*
X46438667Y-134877147D01*
X46438667Y-134877147D02*
X46486286Y-134924766D01*
X46486286Y-134924766D02*
X46533905Y-134877147D01*
X46533905Y-134877147D02*
X46438667Y-134877147D01*
X46200572Y-135210480D02*
X46200572Y-135591432D01*
X45533905Y-135353337D02*
X46391048Y-135353337D01*
X46391048Y-135353337D02*
X46486286Y-135400956D01*
X46486286Y-135400956D02*
X46533905Y-135496194D01*
X46533905Y-135496194D02*
X46533905Y-135591432D01*
X46200572Y-135781909D02*
X46200572Y-136162861D01*
X45533905Y-135924766D02*
X46391048Y-135924766D01*
X46391048Y-135924766D02*
X46486286Y-135972385D01*
X46486286Y-135972385D02*
X46533905Y-136067623D01*
X46533905Y-136067623D02*
X46533905Y-136162861D01*
X45581525Y-136877147D02*
X45533905Y-136781909D01*
X45533905Y-136781909D02*
X45533905Y-136591433D01*
X45533905Y-136591433D02*
X45581525Y-136496195D01*
X45581525Y-136496195D02*
X45676763Y-136448576D01*
X45676763Y-136448576D02*
X46057715Y-136448576D01*
X46057715Y-136448576D02*
X46152953Y-136496195D01*
X46152953Y-136496195D02*
X46200572Y-136591433D01*
X46200572Y-136591433D02*
X46200572Y-136781909D01*
X46200572Y-136781909D02*
X46152953Y-136877147D01*
X46152953Y-136877147D02*
X46057715Y-136924766D01*
X46057715Y-136924766D02*
X45962477Y-136924766D01*
X45962477Y-136924766D02*
X45867239Y-136448576D01*
X46200572Y-137353338D02*
X45533905Y-137353338D01*
X46105334Y-137353338D02*
X46152953Y-137400957D01*
X46152953Y-137400957D02*
X46200572Y-137496195D01*
X46200572Y-137496195D02*
X46200572Y-137639052D01*
X46200572Y-137639052D02*
X46152953Y-137734290D01*
X46152953Y-137734290D02*
X46057715Y-137781909D01*
X46057715Y-137781909D02*
X45533905Y-137781909D01*
X45581525Y-138639052D02*
X45533905Y-138543814D01*
X45533905Y-138543814D02*
X45533905Y-138353338D01*
X45533905Y-138353338D02*
X45581525Y-138258100D01*
X45581525Y-138258100D02*
X45676763Y-138210481D01*
X45676763Y-138210481D02*
X46057715Y-138210481D01*
X46057715Y-138210481D02*
X46152953Y-138258100D01*
X46152953Y-138258100D02*
X46200572Y-138353338D01*
X46200572Y-138353338D02*
X46200572Y-138543814D01*
X46200572Y-138543814D02*
X46152953Y-138639052D01*
X46152953Y-138639052D02*
X46057715Y-138686671D01*
X46057715Y-138686671D02*
X45962477Y-138686671D01*
X45962477Y-138686671D02*
X45867239Y-138210481D01*
X45533905Y-139115243D02*
X46200572Y-139115243D01*
X46010096Y-139115243D02*
X46105334Y-139162862D01*
X46105334Y-139162862D02*
X46152953Y-139210481D01*
X46152953Y-139210481D02*
X46200572Y-139305719D01*
X46200572Y-139305719D02*
X46200572Y-139400957D01*
M02*
