G04 #@! TF.GenerationSoftware,KiCad,Pcbnew,7.0.7*
G04 #@! TF.CreationDate,2024-12-02T13:56:48+01:00*
G04 #@! TF.ProjectId,Finger_FSR_V1_length,46696e67-6572-45f4-9653-525f56315f6c,rev?*
G04 #@! TF.SameCoordinates,Original*
G04 #@! TF.FileFunction,Copper,L2,Bot*
G04 #@! TF.FilePolarity,Positive*
%FSLAX46Y46*%
G04 Gerber Fmt 4.6, Leading zero omitted, Abs format (unit mm)*
G04 Created by KiCad (PCBNEW 7.0.7) date 2024-12-02 13:56:48*
%MOMM*%
%LPD*%
G01*
G04 APERTURE LIST*
G04 Aperture macros list*
%AMRoundRect*
0 Rectangle with rounded corners*
0 $1 Rounding radius*
0 $2 $3 $4 $5 $6 $7 $8 $9 X,Y pos of 4 corners*
0 Add a 4 corners polygon primitive as box body*
4,1,4,$2,$3,$4,$5,$6,$7,$8,$9,$2,$3,0*
0 Add four circle primitives for the rounded corners*
1,1,$1+$1,$2,$3*
1,1,$1+$1,$4,$5*
1,1,$1+$1,$6,$7*
1,1,$1+$1,$8,$9*
0 Add four rect primitives between the rounded corners*
20,1,$1+$1,$2,$3,$4,$5,0*
20,1,$1+$1,$4,$5,$6,$7,0*
20,1,$1+$1,$6,$7,$8,$9,0*
20,1,$1+$1,$8,$9,$2,$3,0*%
G04 Aperture macros list end*
G04 #@! TA.AperFunction,ComponentPad*
%ADD10C,3.000000*%
G04 #@! TD*
G04 #@! TA.AperFunction,ComponentPad*
%ADD11C,3.800000*%
G04 #@! TD*
G04 #@! TA.AperFunction,SMDPad,CuDef*
%ADD12RoundRect,0.375000X-0.375000X2.125000X-0.375000X-2.125000X0.375000X-2.125000X0.375000X2.125000X0*%
G04 #@! TD*
G04 #@! TA.AperFunction,SMDPad,CuDef*
%ADD13C,3.000000*%
G04 #@! TD*
G04 #@! TA.AperFunction,SMDPad,CuDef*
%ADD14RoundRect,0.375000X0.375000X-2.125000X0.375000X2.125000X-0.375000X2.125000X-0.375000X-2.125000X0*%
G04 #@! TD*
G04 #@! TA.AperFunction,ViaPad*
%ADD15C,0.800000*%
G04 #@! TD*
G04 #@! TA.AperFunction,Conductor*
%ADD16C,0.250000*%
G04 #@! TD*
G04 APERTURE END LIST*
D10*
X153450000Y-78650000D03*
D11*
X153450000Y-73650000D03*
X116150000Y-73650000D03*
X116150000Y-78650000D03*
D12*
X159469228Y-143500000D03*
X161876920Y-143500000D03*
D13*
X134800000Y-72000000D03*
D12*
X142615384Y-143500000D03*
X157061536Y-143500000D03*
D13*
X127800000Y-72000000D03*
D12*
X140207692Y-143500000D03*
X149838460Y-143500000D03*
X147430768Y-143500000D03*
X152246152Y-143500000D03*
X166692304Y-143570000D03*
D13*
X141800000Y-78000000D03*
X141800000Y-72000000D03*
X127800000Y-78000000D03*
D14*
X164284612Y-143500000D03*
D13*
X134800000Y-78000000D03*
D12*
X145023076Y-143500000D03*
X154653844Y-143500000D03*
D15*
X152246152Y-143500000D03*
X149838460Y-143500000D03*
X147430768Y-143500000D03*
X145023076Y-143500000D03*
X142615384Y-143500000D03*
X140207692Y-143500000D03*
D16*
X130600000Y-74800000D02*
X146000000Y-74800000D01*
X146000000Y-74800000D02*
X154130000Y-82930000D01*
X161876920Y-140536920D02*
X161876920Y-143500000D01*
X127800000Y-72000000D02*
X130600000Y-74800000D01*
X157070000Y-138480000D02*
X159820000Y-138480000D01*
X159820000Y-138480000D02*
X161876920Y-140536920D01*
X154130000Y-82930000D02*
X154130000Y-135540000D01*
X154130000Y-135540000D02*
X157070000Y-138480000D01*
X154653844Y-140403844D02*
X151230000Y-136980000D01*
X154653844Y-143500000D02*
X154653844Y-140403844D01*
X151230000Y-136980000D02*
X151230000Y-82203838D01*
X151230000Y-82203838D02*
X149726162Y-80700000D01*
X130500000Y-80700000D02*
X127800000Y-78000000D01*
X149726162Y-80700000D02*
X130500000Y-80700000D01*
X150100000Y-76390000D02*
X154860000Y-76390000D01*
X154860000Y-76390000D02*
X156025000Y-77555000D01*
X145710000Y-72000000D02*
X150100000Y-76390000D01*
X166692304Y-138502304D02*
X166692304Y-143570000D01*
X157193838Y-136620000D02*
X164810000Y-136620000D01*
X156025000Y-77555000D02*
X156025000Y-135451162D01*
X156025000Y-135451162D02*
X157193838Y-136620000D01*
X141800000Y-72000000D02*
X145710000Y-72000000D01*
X164810000Y-136620000D02*
X166692304Y-138502304D01*
X156850000Y-139660000D02*
X153090000Y-135900000D01*
X148376396Y-78000000D02*
X141800000Y-78000000D01*
X153090000Y-82713604D02*
X148376396Y-78000000D01*
X159469228Y-140849228D02*
X158280000Y-139660000D01*
X159469228Y-143500000D02*
X159469228Y-140849228D01*
X153090000Y-135900000D02*
X153090000Y-82713604D01*
X158280000Y-139660000D02*
X156850000Y-139660000D01*
X161750000Y-137650000D02*
X157300000Y-137650000D01*
X146060000Y-74070000D02*
X136870000Y-74070000D01*
X157300000Y-137650000D02*
X155100000Y-135450000D01*
X155100000Y-135450000D02*
X155100000Y-83110000D01*
X164284612Y-140184612D02*
X161750000Y-137650000D01*
X164284612Y-143500000D02*
X164284612Y-140184612D01*
X155100000Y-83110000D02*
X146060000Y-74070000D01*
X136870000Y-74070000D02*
X134800000Y-72000000D01*
X149620000Y-79880000D02*
X152080000Y-82340000D01*
X152080000Y-82340000D02*
X152080000Y-136410000D01*
X134800000Y-78000000D02*
X136680000Y-79880000D01*
X152080000Y-136410000D02*
X157061536Y-141391536D01*
X136680000Y-79880000D02*
X149620000Y-79880000D01*
X157061536Y-141391536D02*
X157061536Y-143500000D01*
M02*
