G04 #@! TF.GenerationSoftware,KiCad,Pcbnew,7.0.7*
G04 #@! TF.CreationDate,2024-12-02T13:56:48+01:00*
G04 #@! TF.ProjectId,Finger_FSR_V1_length,46696e67-6572-45f4-9653-525f56315f6c,rev?*
G04 #@! TF.SameCoordinates,Original*
G04 #@! TF.FileFunction,Copper,L1,Top*
G04 #@! TF.FilePolarity,Positive*
%FSLAX46Y46*%
G04 Gerber Fmt 4.6, Leading zero omitted, Abs format (unit mm)*
G04 Created by KiCad (PCBNEW 7.0.7) date 2024-12-02 13:56:48*
%MOMM*%
%LPD*%
G01*
G04 APERTURE LIST*
G04 Aperture macros list*
%AMRoundRect*
0 Rectangle with rounded corners*
0 $1 Rounding radius*
0 $2 $3 $4 $5 $6 $7 $8 $9 X,Y pos of 4 corners*
0 Add a 4 corners polygon primitive as box body*
4,1,4,$2,$3,$4,$5,$6,$7,$8,$9,$2,$3,0*
0 Add four circle primitives for the rounded corners*
1,1,$1+$1,$2,$3*
1,1,$1+$1,$4,$5*
1,1,$1+$1,$6,$7*
1,1,$1+$1,$8,$9*
0 Add four rect primitives between the rounded corners*
20,1,$1+$1,$2,$3,$4,$5,0*
20,1,$1+$1,$4,$5,$6,$7,0*
20,1,$1+$1,$6,$7,$8,$9,0*
20,1,$1+$1,$8,$9,$2,$3,0*%
G04 Aperture macros list end*
G04 #@! TA.AperFunction,SMDPad,CuDef*
%ADD10RoundRect,0.250000X-11.000000X-0.250000X11.000000X-0.250000X11.000000X0.250000X-11.000000X0.250000X0*%
G04 #@! TD*
G04 #@! TA.AperFunction,ComponentPad*
%ADD11C,3.000000*%
G04 #@! TD*
G04 #@! TA.AperFunction,ComponentPad*
%ADD12C,3.800000*%
G04 #@! TD*
G04 #@! TA.AperFunction,ViaPad*
%ADD13C,0.800000*%
G04 #@! TD*
G04 #@! TA.AperFunction,Conductor*
%ADD14C,0.250000*%
G04 #@! TD*
G04 APERTURE END LIST*
D10*
X134800000Y-74000000D03*
X134800000Y-76000000D03*
X134800000Y-72000000D03*
D11*
X153450000Y-78650000D03*
D12*
X153450000Y-73650000D03*
D10*
X134800000Y-80000000D03*
D12*
X116150000Y-73650000D03*
D10*
X134800000Y-70000000D03*
X134800000Y-78000000D03*
D12*
X116150000Y-78650000D03*
D13*
X152246152Y-143500000D03*
X149838460Y-143500000D03*
X147430768Y-143500000D03*
X145023076Y-143500000D03*
X142615384Y-143500000D03*
X140207692Y-143500000D03*
D14*
X153630000Y-70130000D02*
X134930000Y-70130000D01*
X156025000Y-72525000D02*
X153630000Y-70130000D01*
X156025000Y-137285000D02*
X156025000Y-72525000D01*
X152246152Y-143500000D02*
X152246152Y-141063848D01*
X134930000Y-70130000D02*
X134800000Y-70000000D01*
X152246152Y-141063848D02*
X156025000Y-137285000D01*
X150190000Y-75030000D02*
X150190000Y-78060000D01*
X150190000Y-78060000D02*
X155120000Y-82990000D01*
X155120000Y-136240000D02*
X149838460Y-141521540D01*
X149838460Y-141521540D02*
X149838460Y-143500000D01*
X155120000Y-82990000D02*
X155120000Y-136240000D01*
X147160000Y-72000000D02*
X150190000Y-75030000D01*
X134800000Y-72000000D02*
X147160000Y-72000000D01*
X149310000Y-77960000D02*
X149310000Y-76430000D01*
X154160000Y-135780000D02*
X154160000Y-82810000D01*
X147430768Y-143500000D02*
X147430768Y-142509232D01*
X146880000Y-74000000D02*
X134800000Y-74000000D01*
X149310000Y-76430000D02*
X146880000Y-74000000D01*
X154160000Y-82810000D02*
X149310000Y-77960000D01*
X147430768Y-142509232D02*
X154160000Y-135780000D01*
X145110000Y-143500000D02*
X153160000Y-135450000D01*
X153160000Y-135450000D02*
X153160000Y-82550000D01*
X145023076Y-143500000D02*
X145110000Y-143500000D01*
X153160000Y-82550000D02*
X146610000Y-76000000D01*
X146610000Y-76000000D02*
X134800000Y-76000000D01*
X152130000Y-135380000D02*
X152130000Y-82270000D01*
X147860000Y-78000000D02*
X134800000Y-78000000D01*
X149530000Y-137980000D02*
X152130000Y-135380000D01*
X142615384Y-141074616D02*
X145710000Y-137980000D01*
X145710000Y-137980000D02*
X149530000Y-137980000D01*
X152130000Y-82270000D02*
X147860000Y-78000000D01*
X142615384Y-143500000D02*
X142615384Y-141074616D01*
X140207692Y-143500000D02*
X140207692Y-138422308D01*
X141640000Y-136990000D02*
X149580000Y-136990000D01*
X151080000Y-82053838D02*
X149026162Y-80000000D01*
X149580000Y-136990000D02*
X151080000Y-135490000D01*
X151080000Y-135490000D02*
X151080000Y-82053838D01*
X140207692Y-138422308D02*
X141640000Y-136990000D01*
X149026162Y-80000000D02*
X134800000Y-80000000D01*
M02*
