G04 #@! TF.GenerationSoftware,KiCad,Pcbnew,7.0.7*
G04 #@! TF.CreationDate,2024-05-14T22:36:57+02:00*
G04 #@! TF.ProjectId,Thumb_V1,5468756d-625f-4563-912e-6b696361645f,rev?*
G04 #@! TF.SameCoordinates,Original*
G04 #@! TF.FileFunction,Legend,Bot*
G04 #@! TF.FilePolarity,Positive*
%FSLAX46Y46*%
G04 Gerber Fmt 4.6, Leading zero omitted, Abs format (unit mm)*
G04 Created by KiCad (PCBNEW 7.0.7) date 2024-05-14 22:36:57*
%MOMM*%
%LPD*%
G01*
G04 APERTURE LIST*
%ADD10C,0.100000*%
G04 APERTURE END LIST*
D10*
X44450866Y-123637544D02*
X44450866Y-123237544D01*
X43750866Y-123437544D02*
X44450866Y-123437544D01*
X43750866Y-123004211D02*
X44450866Y-123004211D01*
X43750866Y-122704211D02*
X44117533Y-122704211D01*
X44117533Y-122704211D02*
X44184200Y-122737544D01*
X44184200Y-122737544D02*
X44217533Y-122804211D01*
X44217533Y-122804211D02*
X44217533Y-122904211D01*
X44217533Y-122904211D02*
X44184200Y-122970878D01*
X44184200Y-122970878D02*
X44150866Y-123004211D01*
X44217533Y-122070878D02*
X43750866Y-122070878D01*
X44217533Y-122370878D02*
X43850866Y-122370878D01*
X43850866Y-122370878D02*
X43784200Y-122337545D01*
X43784200Y-122337545D02*
X43750866Y-122270878D01*
X43750866Y-122270878D02*
X43750866Y-122170878D01*
X43750866Y-122170878D02*
X43784200Y-122104211D01*
X43784200Y-122104211D02*
X43817533Y-122070878D01*
X43750866Y-121737545D02*
X44217533Y-121737545D01*
X44150866Y-121737545D02*
X44184200Y-121704212D01*
X44184200Y-121704212D02*
X44217533Y-121637545D01*
X44217533Y-121637545D02*
X44217533Y-121537545D01*
X44217533Y-121537545D02*
X44184200Y-121470878D01*
X44184200Y-121470878D02*
X44117533Y-121437545D01*
X44117533Y-121437545D02*
X43750866Y-121437545D01*
X44117533Y-121437545D02*
X44184200Y-121404212D01*
X44184200Y-121404212D02*
X44217533Y-121337545D01*
X44217533Y-121337545D02*
X44217533Y-121237545D01*
X44217533Y-121237545D02*
X44184200Y-121170878D01*
X44184200Y-121170878D02*
X44117533Y-121137545D01*
X44117533Y-121137545D02*
X43750866Y-121137545D01*
X43750866Y-120804212D02*
X44450866Y-120804212D01*
X44184200Y-120804212D02*
X44217533Y-120737545D01*
X44217533Y-120737545D02*
X44217533Y-120604212D01*
X44217533Y-120604212D02*
X44184200Y-120537545D01*
X44184200Y-120537545D02*
X44150866Y-120504212D01*
X44150866Y-120504212D02*
X44084200Y-120470879D01*
X44084200Y-120470879D02*
X43884200Y-120470879D01*
X43884200Y-120470879D02*
X43817533Y-120504212D01*
X43817533Y-120504212D02*
X43784200Y-120537545D01*
X43784200Y-120537545D02*
X43750866Y-120604212D01*
X43750866Y-120604212D02*
X43750866Y-120737545D01*
X43750866Y-120737545D02*
X43784200Y-120804212D01*
X43684200Y-120337546D02*
X43684200Y-119804212D01*
X44450866Y-119737546D02*
X43750866Y-119504213D01*
X43750866Y-119504213D02*
X44450866Y-119270879D01*
X43750866Y-118670879D02*
X43750866Y-119070879D01*
X43750866Y-118870879D02*
X44450866Y-118870879D01*
X44450866Y-118870879D02*
X44350866Y-118937546D01*
X44350866Y-118937546D02*
X44284200Y-119004213D01*
X44284200Y-119004213D02*
X44250866Y-119070879D01*
G36*
X51708849Y-121454077D02*
G01*
X52019650Y-121456020D01*
X52021555Y-122049704D01*
X52023461Y-122643388D01*
X51710755Y-122643388D01*
X51398049Y-122643388D01*
X51398049Y-122047761D01*
X51398049Y-121452134D01*
X51708849Y-121454077D01*
G37*
G36*
X51390605Y-121184302D02*
G01*
X51390605Y-121452298D01*
X50713172Y-121452298D01*
X50035740Y-121452298D01*
X50035740Y-121184302D01*
X50035740Y-120916307D01*
X50713172Y-120916307D01*
X51390605Y-120916307D01*
X51390605Y-121184302D01*
G37*
G36*
X57398167Y-120320762D02*
G01*
X57398167Y-120916307D01*
X57081783Y-120916307D01*
X56765400Y-120916307D01*
X56765400Y-120588757D01*
X56765400Y-120261207D01*
X56024691Y-120261207D01*
X55283981Y-120261207D01*
X55283981Y-119993212D01*
X55283981Y-119725217D01*
X56341074Y-119725217D01*
X57398167Y-119725217D01*
X57398167Y-120320762D01*
G37*
G36*
X52023372Y-120320762D02*
G01*
X52023372Y-120916307D01*
X51706988Y-120916307D01*
X51390605Y-120916307D01*
X51390605Y-120588757D01*
X51390605Y-120261207D01*
X50649896Y-120261207D01*
X49909187Y-120261207D01*
X49909187Y-119993212D01*
X49909187Y-119725217D01*
X50966279Y-119725217D01*
X52023372Y-119725217D01*
X52023372Y-120320762D01*
G37*
G36*
X49455083Y-121184302D02*
G01*
X49455083Y-122643388D01*
X48397991Y-122643388D01*
X47340898Y-122643388D01*
X47340898Y-122375393D01*
X47340898Y-122107397D01*
X48081607Y-122107397D01*
X48822317Y-122107397D01*
X48822317Y-120916307D01*
X48822317Y-119725217D01*
X49138700Y-119725217D01*
X49455083Y-119725217D01*
X49455083Y-121184302D01*
G37*
G36*
X57081783Y-121452298D02*
G01*
X57398167Y-121452298D01*
X57398167Y-122047843D01*
X57398167Y-122643388D01*
X56341074Y-122643388D01*
X55283981Y-122643388D01*
X55283981Y-122375393D01*
X55283981Y-122107397D01*
X56024691Y-122107397D01*
X56765400Y-122107397D01*
X56765400Y-121779847D01*
X56765400Y-121452298D01*
X57081783Y-121452298D01*
G37*
G36*
X56765400Y-121184302D02*
G01*
X56765400Y-121452298D01*
X56087967Y-121452298D01*
X55410535Y-121452298D01*
X55410535Y-121184302D01*
X55410535Y-120916307D01*
X56087967Y-120916307D01*
X56765400Y-120916307D01*
X56765400Y-121184302D01*
G37*
G36*
X54740546Y-121184000D02*
G01*
X54740546Y-122643388D01*
X54427885Y-122643388D01*
X54115224Y-122643388D01*
X54115224Y-122048269D01*
X54115224Y-121453151D01*
X53670426Y-121450580D01*
X53593710Y-121450125D01*
X53511954Y-121449585D01*
X53442683Y-121449019D01*
X53384572Y-121448379D01*
X53336297Y-121447615D01*
X53296534Y-121446679D01*
X53263956Y-121445523D01*
X53237241Y-121444096D01*
X53215063Y-121442350D01*
X53196098Y-121440237D01*
X53179021Y-121437707D01*
X53162507Y-121434712D01*
X53145232Y-121431202D01*
X53084228Y-121416762D01*
X52974426Y-121381642D01*
X52872317Y-121336790D01*
X52779075Y-121282930D01*
X52695878Y-121220782D01*
X52623901Y-121151070D01*
X52564320Y-121074514D01*
X52563536Y-121073332D01*
X52515123Y-120987346D01*
X52476826Y-120891611D01*
X52449187Y-120787764D01*
X52432748Y-120677441D01*
X52429596Y-120628659D01*
X52430359Y-120588280D01*
X53047679Y-120588280D01*
X53048006Y-120607219D01*
X53051765Y-120653408D01*
X53060811Y-120691321D01*
X53076555Y-120725569D01*
X53100404Y-120760763D01*
X53119759Y-120783588D01*
X53161777Y-120820168D01*
X53213465Y-120850485D01*
X53276406Y-120875387D01*
X53352182Y-120895722D01*
X53360374Y-120897484D01*
X53377455Y-120900721D01*
X53395837Y-120903433D01*
X53417032Y-120905687D01*
X53442547Y-120907550D01*
X53473894Y-120909089D01*
X53512581Y-120910370D01*
X53560118Y-120911460D01*
X53618014Y-120912427D01*
X53687780Y-120913336D01*
X53770925Y-120914255D01*
X54122668Y-120917939D01*
X54122668Y-120589573D01*
X54122668Y-120261207D01*
X53890034Y-120261246D01*
X53889470Y-120261246D01*
X53791177Y-120261751D01*
X53698149Y-120263181D01*
X53611760Y-120265471D01*
X53533383Y-120268556D01*
X53464392Y-120272373D01*
X53406161Y-120276856D01*
X53360064Y-120281943D01*
X53327474Y-120287567D01*
X53272902Y-120303537D01*
X53207258Y-120333055D01*
X53150726Y-120371039D01*
X53104943Y-120416336D01*
X53071545Y-120467795D01*
X53062198Y-120487450D01*
X53054152Y-120508253D01*
X53049726Y-120528580D01*
X53047906Y-120553550D01*
X53047679Y-120588280D01*
X52430359Y-120588280D01*
X52431483Y-120528821D01*
X52443777Y-120428681D01*
X52465800Y-120330925D01*
X52496877Y-120238240D01*
X52536330Y-120153310D01*
X52583485Y-120078822D01*
X52605224Y-120051105D01*
X52674927Y-119978103D01*
X52756395Y-119912993D01*
X52848681Y-119856308D01*
X52950836Y-119808583D01*
X53061913Y-119770351D01*
X53180963Y-119742148D01*
X53182803Y-119741807D01*
X53195361Y-119739759D01*
X53209838Y-119737937D01*
X53227162Y-119736326D01*
X53248259Y-119734906D01*
X53274055Y-119733662D01*
X53305476Y-119732576D01*
X53343449Y-119731632D01*
X53388900Y-119730811D01*
X53442756Y-119730097D01*
X53505942Y-119729473D01*
X53579385Y-119728922D01*
X53664011Y-119728426D01*
X53760747Y-119727968D01*
X53870520Y-119727531D01*
X53994254Y-119727098D01*
X54740546Y-119724612D01*
X54740546Y-120261207D01*
X54740546Y-121184000D01*
G37*
%LPC*%
%LPD*%
M02*
