G04 #@! TF.GenerationSoftware,KiCad,Pcbnew,7.0.7*
G04 #@! TF.CreationDate,2024-05-14T22:36:57+02:00*
G04 #@! TF.ProjectId,Thumb_V1,5468756d-625f-4563-912e-6b696361645f,rev?*
G04 #@! TF.SameCoordinates,Original*
G04 #@! TF.FileFunction,Copper,L1,Top*
G04 #@! TF.FilePolarity,Positive*
%FSLAX46Y46*%
G04 Gerber Fmt 4.6, Leading zero omitted, Abs format (unit mm)*
G04 Created by KiCad (PCBNEW 7.0.7) date 2024-05-14 22:36:57*
%MOMM*%
%LPD*%
G01*
G04 APERTURE LIST*
G04 Aperture macros list*
%AMRoundRect*
0 Rectangle with rounded corners*
0 $1 Rounding radius*
0 $2 $3 $4 $5 $6 $7 $8 $9 X,Y pos of 4 corners*
0 Add a 4 corners polygon primitive as box body*
4,1,4,$2,$3,$4,$5,$6,$7,$8,$9,$2,$3,0*
0 Add four circle primitives for the rounded corners*
1,1,$1+$1,$2,$3*
1,1,$1+$1,$4,$5*
1,1,$1+$1,$6,$7*
1,1,$1+$1,$8,$9*
0 Add four rect primitives between the rounded corners*
20,1,$1+$1,$2,$3,$4,$5,0*
20,1,$1+$1,$4,$5,$6,$7,0*
20,1,$1+$1,$6,$7,$8,$9,0*
20,1,$1+$1,$8,$9,$2,$3,0*%
G04 Aperture macros list end*
G04 #@! TA.AperFunction,SMDPad,CuDef*
%ADD10R,0.558800X0.977900*%
G04 #@! TD*
G04 #@! TA.AperFunction,SMDPad,CuDef*
%ADD11RoundRect,0.155000X-0.212500X-0.155000X0.212500X-0.155000X0.212500X0.155000X-0.212500X0.155000X0*%
G04 #@! TD*
G04 #@! TA.AperFunction,SMDPad,CuDef*
%ADD12RoundRect,0.155000X0.155000X-0.212500X0.155000X0.212500X-0.155000X0.212500X-0.155000X-0.212500X0*%
G04 #@! TD*
G04 #@! TA.AperFunction,SMDPad,CuDef*
%ADD13R,0.977900X0.558800*%
G04 #@! TD*
G04 #@! TA.AperFunction,SMDPad,CuDef*
%ADD14R,4.000000X0.300000*%
G04 #@! TD*
G04 #@! TA.AperFunction,ViaPad*
%ADD15C,0.500000*%
G04 #@! TD*
G04 #@! TA.AperFunction,ViaPad*
%ADD16C,2.500000*%
G04 #@! TD*
G04 #@! TA.AperFunction,Conductor*
%ADD17C,0.250000*%
G04 #@! TD*
G04 APERTURE END LIST*
D10*
X261029533Y-108748750D03*
X260079532Y-108748750D03*
X259129531Y-108748750D03*
X259129531Y-111479250D03*
X260079532Y-111479250D03*
X261029533Y-111479250D03*
X261029533Y-130748750D03*
X260079532Y-130748750D03*
X259129531Y-130748750D03*
X259129531Y-133479250D03*
X260079532Y-133479250D03*
X261029533Y-133479250D03*
D11*
X268412032Y-118844000D03*
X269547032Y-118844000D03*
D12*
X257590000Y-110681500D03*
X257590000Y-109546500D03*
D13*
X270344782Y-122164001D03*
X270344782Y-121214000D03*
X270344782Y-120263999D03*
X267614282Y-120263999D03*
X267614282Y-121214000D03*
X267614282Y-122164001D03*
D14*
X32929532Y-119614000D03*
X32929532Y-120114000D03*
X32929532Y-120614000D03*
X32929532Y-121114000D03*
X32929532Y-121614000D03*
X32929532Y-122114000D03*
X32929532Y-122614000D03*
D12*
X257590000Y-132681500D03*
X257590000Y-131546500D03*
D15*
X257590026Y-132681552D03*
X267080000Y-118980000D03*
X257572516Y-111937484D03*
X253789532Y-120354000D03*
X250999532Y-121094000D03*
X260319532Y-120184000D03*
X262410000Y-111680000D03*
X267750000Y-123440000D03*
X260924531Y-118869001D03*
X259409532Y-124134020D03*
X248730000Y-120570000D03*
X45073257Y-121134000D03*
X46473255Y-121134000D03*
X258119532Y-115394000D03*
X47873257Y-121134000D03*
X45773256Y-121134000D03*
X47173258Y-121134000D03*
X257600000Y-131110000D03*
D16*
X257529532Y-121114000D03*
D15*
X54300000Y-119130000D03*
X53420000Y-122470000D03*
X265890000Y-120750000D03*
D16*
X262379532Y-121114000D03*
D17*
X268412032Y-118844000D02*
X267216000Y-118844000D01*
X250883932Y-120354000D02*
X253789532Y-120354000D01*
X257329532Y-110931500D02*
X257329532Y-111694500D01*
X257329532Y-111694500D02*
X257572516Y-111937484D01*
X41246000Y-120634000D02*
X41540000Y-120340000D01*
X32949532Y-120634000D02*
X41246000Y-120634000D01*
X258331781Y-110681500D02*
X257579532Y-110681500D01*
X258392500Y-133484000D02*
X259124781Y-133484000D01*
X250060932Y-121177000D02*
X250883932Y-120354000D01*
X41540000Y-120340000D02*
X48560000Y-120340000D01*
X268412032Y-118844000D02*
X268412032Y-119466249D01*
X259129531Y-111479250D02*
X258331781Y-110681500D01*
X49397000Y-121177000D02*
X250060932Y-121177000D01*
X267216000Y-118844000D02*
X267080000Y-118980000D01*
X257499532Y-132681500D02*
X257590000Y-132681500D01*
X48560000Y-120340000D02*
X49397000Y-121177000D01*
X259124781Y-133484000D02*
X259129531Y-133479250D01*
X257579532Y-110681500D02*
X257329532Y-110931500D01*
X257590000Y-132681500D02*
X258392500Y-133484000D01*
X268412032Y-119466249D02*
X267614282Y-120263999D01*
X262410000Y-110129217D02*
X262410000Y-111680000D01*
X260319532Y-119474000D02*
X260319532Y-120184000D01*
X260924531Y-118869001D02*
X260319532Y-119474000D01*
X41547215Y-119470000D02*
X49400000Y-119470000D01*
X261029533Y-108748750D02*
X262410000Y-110129217D01*
X40883215Y-120134000D02*
X41547215Y-119470000D01*
X50500000Y-120570000D02*
X248730000Y-120570000D01*
X270344782Y-122164001D02*
X270344782Y-122885218D01*
X250999532Y-121094000D02*
X252624532Y-122719000D01*
X49400000Y-119470000D02*
X50500000Y-120570000D01*
X257994512Y-122719000D02*
X259409532Y-124134020D01*
X252624532Y-122719000D02*
X257994512Y-122719000D01*
X270344782Y-122885218D02*
X269790000Y-123440000D01*
X269790000Y-123440000D02*
X267750000Y-123440000D01*
X261029533Y-125754021D02*
X259409532Y-124134020D01*
X32949532Y-120134000D02*
X40883215Y-120134000D01*
X261029533Y-130748750D02*
X261029533Y-125754021D01*
X51030000Y-119820000D02*
X250060000Y-119820000D01*
X265699346Y-122164001D02*
X263044345Y-119509000D01*
X263044345Y-119509000D02*
X262690132Y-119509000D01*
X40419532Y-119614000D02*
X41249532Y-118784000D01*
X32929532Y-119614000D02*
X40419532Y-119614000D01*
X261190132Y-118009000D02*
X259724532Y-118009000D01*
X261029533Y-116703999D02*
X261029533Y-111479250D01*
X267614282Y-122164001D02*
X265699346Y-122164001D01*
X262690132Y-119509000D02*
X261190132Y-118009000D01*
X250380000Y-119500000D02*
X258233532Y-119500000D01*
X262349532Y-132159251D02*
X261029533Y-133479250D01*
X258233532Y-119500000D02*
X259724532Y-118009000D01*
X250060000Y-119820000D02*
X250380000Y-119500000D01*
X49994000Y-118784000D02*
X51030000Y-119820000D01*
X259724532Y-118009000D02*
X261029533Y-116703999D01*
X263829531Y-122164001D02*
X265699346Y-122164001D01*
X262349532Y-123644000D02*
X263829531Y-122164001D01*
X41249532Y-118784000D02*
X49994000Y-118784000D01*
X262349532Y-123644000D02*
X262349532Y-132159251D01*
X258827032Y-131546500D02*
X259129531Y-131244001D01*
X257590000Y-131546500D02*
X258827032Y-131546500D01*
X47863257Y-121124000D02*
X47873257Y-121134000D01*
X259129531Y-109104001D02*
X259129531Y-108748750D01*
X32949532Y-121134000D02*
X32959532Y-121124000D01*
X257579532Y-109546500D02*
X258687032Y-109546500D01*
X32959532Y-121124000D02*
X47863257Y-121124000D01*
X258687032Y-109546500D02*
X259129531Y-109104001D01*
X259129531Y-131244001D02*
X259129531Y-130748750D01*
G04 #@! TA.AperFunction,Conductor*
G36*
X48359513Y-120884407D02*
G01*
X48371326Y-120894496D01*
X49019073Y-121542243D01*
X49062242Y-121588467D01*
X49062245Y-121588469D01*
X49098766Y-121610678D01*
X49102957Y-121613531D01*
X49137025Y-121639365D01*
X49150696Y-121644756D01*
X49154505Y-121646258D01*
X49169624Y-121653767D01*
X49185672Y-121663526D01*
X49226840Y-121675060D01*
X49231622Y-121676667D01*
X49271411Y-121692359D01*
X49290106Y-121694280D01*
X49306686Y-121697432D01*
X49316323Y-121700132D01*
X49324771Y-121702500D01*
X49324772Y-121702500D01*
X49367515Y-121702500D01*
X49372580Y-121702760D01*
X49381995Y-121703727D01*
X49415110Y-121707132D01*
X49433623Y-121703939D01*
X49450445Y-121702500D01*
X250051947Y-121702500D01*
X250054183Y-121702576D01*
X250115177Y-121704660D01*
X250156709Y-121694538D01*
X250161672Y-121693594D01*
X250204043Y-121687771D01*
X250221287Y-121680280D01*
X250237275Y-121674904D01*
X250255526Y-121670457D01*
X250292787Y-121649505D01*
X250297317Y-121647255D01*
X250336541Y-121630219D01*
X250351116Y-121618360D01*
X250365068Y-121608864D01*
X250381444Y-121599658D01*
X250411691Y-121569410D01*
X250415425Y-121566040D01*
X250421098Y-121561424D01*
X250478167Y-121539370D01*
X250537304Y-121555071D01*
X250549222Y-121564120D01*
X250627287Y-121633280D01*
X250627290Y-121633282D01*
X250627292Y-121633283D01*
X250767167Y-121706696D01*
X250875590Y-121733418D01*
X250921898Y-121759536D01*
X252246591Y-123084228D01*
X252289773Y-123130466D01*
X252289775Y-123130467D01*
X252289777Y-123130469D01*
X252326301Y-123152679D01*
X252330489Y-123155530D01*
X252350586Y-123170770D01*
X252364557Y-123181364D01*
X252364558Y-123181364D01*
X252364559Y-123181365D01*
X252382031Y-123188255D01*
X252397150Y-123195764D01*
X252413200Y-123205524D01*
X252413202Y-123205525D01*
X252413204Y-123205526D01*
X252454369Y-123217059D01*
X252459162Y-123218671D01*
X252498943Y-123234359D01*
X252517623Y-123236279D01*
X252534214Y-123239432D01*
X252552300Y-123244499D01*
X252552302Y-123244500D01*
X252552304Y-123244500D01*
X252595054Y-123244500D01*
X252600118Y-123244760D01*
X252611591Y-123245939D01*
X252642642Y-123249131D01*
X252657848Y-123246509D01*
X252661157Y-123245939D01*
X252677976Y-123244500D01*
X257735834Y-123244500D01*
X257794025Y-123263407D01*
X257805838Y-123273496D01*
X258742244Y-124209901D01*
X258770021Y-124264418D01*
X258770518Y-124267970D01*
X258773295Y-124290838D01*
X258829125Y-124438049D01*
X258829312Y-124438543D01*
X258919047Y-124568548D01*
X258919048Y-124568549D01*
X258919049Y-124568550D01*
X259037292Y-124673303D01*
X259177167Y-124746716D01*
X259285590Y-124773438D01*
X259331898Y-124799556D01*
X260475037Y-125942694D01*
X260502814Y-125997211D01*
X260504033Y-126012698D01*
X260504033Y-129660800D01*
X260485126Y-129718991D01*
X260435626Y-129754955D01*
X260405033Y-129759800D01*
X260329533Y-129759800D01*
X260329531Y-129759801D01*
X260329531Y-131737698D01*
X260329533Y-131737700D01*
X260406756Y-131737700D01*
X260466302Y-131731298D01*
X260466313Y-131731296D01*
X260601019Y-131681054D01*
X260601020Y-131681053D01*
X260635307Y-131655385D01*
X260693221Y-131635646D01*
X260710123Y-131636855D01*
X260718614Y-131638200D01*
X261340451Y-131638199D01*
X261340453Y-131638199D01*
X261340454Y-131638198D01*
X261398934Y-131628937D01*
X261434232Y-131623347D01*
X261434232Y-131623346D01*
X261434237Y-131623346D01*
X261547275Y-131565750D01*
X261636983Y-131476042D01*
X261636985Y-131476036D01*
X261641561Y-131469740D01*
X261642648Y-131470530D01*
X261680086Y-131433092D01*
X261740517Y-131423520D01*
X261795034Y-131451296D01*
X261822813Y-131505812D01*
X261824032Y-131521301D01*
X261824032Y-131900573D01*
X261805125Y-131958764D01*
X261795036Y-131970577D01*
X261204808Y-132560804D01*
X261150291Y-132588581D01*
X261134804Y-132589800D01*
X260718615Y-132589800D01*
X260710118Y-132591146D01*
X260649687Y-132581568D01*
X260635311Y-132572617D01*
X260601017Y-132546944D01*
X260466313Y-132496703D01*
X260466302Y-132496701D01*
X260406756Y-132490300D01*
X260329533Y-132490300D01*
X260329532Y-132490301D01*
X260329532Y-133630250D01*
X260310625Y-133688441D01*
X260261125Y-133724405D01*
X260230532Y-133729250D01*
X259928532Y-133729250D01*
X259870341Y-133710343D01*
X259834377Y-133660843D01*
X259829532Y-133630250D01*
X259829532Y-132490301D01*
X259829531Y-132490300D01*
X259752308Y-132490300D01*
X259692761Y-132496701D01*
X259692750Y-132496703D01*
X259558042Y-132546946D01*
X259523751Y-132572616D01*
X259465836Y-132592352D01*
X259448943Y-132591144D01*
X259440454Y-132589800D01*
X258818610Y-132589800D01*
X258818607Y-132589801D01*
X258724831Y-132604652D01*
X258724826Y-132604654D01*
X258611789Y-132662250D01*
X258611787Y-132662251D01*
X258532857Y-132741181D01*
X258478340Y-132768958D01*
X258417908Y-132759386D01*
X258392850Y-132741181D01*
X258329495Y-132677825D01*
X258301719Y-132623310D01*
X258300500Y-132607823D01*
X258300500Y-132425509D01*
X258300499Y-132425503D01*
X258289780Y-132336241D01*
X258257460Y-132254283D01*
X258253701Y-132193213D01*
X258264344Y-132167569D01*
X258350905Y-132021202D01*
X258350906Y-132021198D01*
X258397076Y-131862282D01*
X258397078Y-131862275D01*
X258400000Y-131825146D01*
X258399999Y-131723092D01*
X258418906Y-131664901D01*
X258468405Y-131628937D01*
X258529591Y-131628936D01*
X258558328Y-131643838D01*
X258608040Y-131681052D01*
X258608042Y-131681053D01*
X258742749Y-131731296D01*
X258742760Y-131731298D01*
X258802307Y-131737700D01*
X258879530Y-131737700D01*
X258879531Y-131737699D01*
X259379531Y-131737699D01*
X259379532Y-131737700D01*
X259456755Y-131737700D01*
X259516301Y-131731298D01*
X259516305Y-131731297D01*
X259569933Y-131711295D01*
X259631062Y-131708674D01*
X259639128Y-131711295D01*
X259692754Y-131731296D01*
X259692761Y-131731298D01*
X259752308Y-131737700D01*
X259829531Y-131737700D01*
X259829532Y-131737698D01*
X259829532Y-130998751D01*
X259829531Y-130998750D01*
X259379532Y-130998750D01*
X259379531Y-130998751D01*
X259379531Y-131737699D01*
X258879531Y-131737699D01*
X258879531Y-131737698D01*
X258879531Y-130998751D01*
X258879530Y-130998750D01*
X258364174Y-130998750D01*
X258305983Y-130979843D01*
X258278961Y-130950146D01*
X258266666Y-130929357D01*
X258149643Y-130812334D01*
X258007198Y-130728093D01*
X257848278Y-130681921D01*
X257840000Y-130681269D01*
X257840000Y-131697500D01*
X257821093Y-131755691D01*
X257771593Y-131791655D01*
X257741000Y-131796500D01*
X257439000Y-131796500D01*
X257380809Y-131777593D01*
X257344845Y-131728093D01*
X257340000Y-131697500D01*
X257339999Y-130681270D01*
X257336802Y-130681522D01*
X257277307Y-130667240D01*
X257237568Y-130620716D01*
X257230031Y-130582827D01*
X257230031Y-130498749D01*
X258350131Y-130498749D01*
X258350132Y-130498750D01*
X258879530Y-130498750D01*
X258879531Y-130498749D01*
X259379531Y-130498749D01*
X259379532Y-130498750D01*
X259829531Y-130498750D01*
X259829532Y-130498748D01*
X259829532Y-129759801D01*
X259829531Y-129759800D01*
X259752308Y-129759800D01*
X259692755Y-129766202D01*
X259639125Y-129786204D01*
X259577996Y-129788823D01*
X259569934Y-129786203D01*
X259516312Y-129766203D01*
X259516301Y-129766201D01*
X259456755Y-129759800D01*
X259379532Y-129759800D01*
X259379531Y-129759801D01*
X259379531Y-130498749D01*
X258879531Y-130498749D01*
X258879531Y-130498748D01*
X258879531Y-129759801D01*
X258879530Y-129759800D01*
X258802307Y-129759800D01*
X258742760Y-129766201D01*
X258742749Y-129766203D01*
X258608042Y-129816446D01*
X258608040Y-129816447D01*
X258492946Y-129902607D01*
X258492938Y-129902615D01*
X258406778Y-130017709D01*
X258406777Y-130017711D01*
X258356534Y-130152418D01*
X258356532Y-130152429D01*
X258350131Y-130211975D01*
X258350131Y-130498749D01*
X257230031Y-130498749D01*
X257230031Y-124532054D01*
X257248938Y-124473863D01*
X257263170Y-124459251D01*
X257262956Y-124459037D01*
X257370017Y-124351954D01*
X257370016Y-124351954D01*
X257370019Y-124351952D01*
X257442475Y-124226425D01*
X257479975Y-124086423D01*
X257479963Y-123941486D01*
X257442440Y-123801490D01*
X257442439Y-123801486D01*
X257369966Y-123675979D01*
X257369963Y-123675974D01*
X257267472Y-123573496D01*
X257267468Y-123573493D01*
X257141947Y-123501034D01*
X257141946Y-123501033D01*
X257001947Y-123463528D01*
X257001946Y-123463528D01*
X257001941Y-123463528D01*
X256857012Y-123463533D01*
X256857011Y-123463533D01*
X256717008Y-123501051D01*
X256717006Y-123501052D01*
X256591497Y-123573519D01*
X256591494Y-123573522D01*
X256484421Y-123680600D01*
X256483220Y-123679399D01*
X256439546Y-123709421D01*
X256411423Y-123713499D01*
X41352649Y-123713499D01*
X41348314Y-123713309D01*
X41193582Y-123699711D01*
X41176520Y-123696689D01*
X41032833Y-123658017D01*
X41016563Y-123652068D01*
X40894204Y-123594737D01*
X40881819Y-123588934D01*
X40866832Y-123580237D01*
X40745159Y-123494575D01*
X40731918Y-123483398D01*
X40695893Y-123447136D01*
X40622239Y-123372997D01*
X40619334Y-123369803D01*
X40585529Y-123329217D01*
X40585336Y-123329020D01*
X40548293Y-123284542D01*
X40379289Y-123133217D01*
X40379285Y-123133214D01*
X40379280Y-123133210D01*
X40190067Y-123008099D01*
X40190059Y-123008095D01*
X39984650Y-122911851D01*
X39984644Y-122911849D01*
X39984641Y-122911848D01*
X39767400Y-122846518D01*
X39542964Y-122813499D01*
X39542960Y-122813499D01*
X39452211Y-122813499D01*
X39429538Y-122813499D01*
X39429532Y-122813499D01*
X39381944Y-122813499D01*
X39381943Y-122813499D01*
X39373971Y-122813499D01*
X39373959Y-122813500D01*
X35429032Y-122813500D01*
X35370841Y-122794593D01*
X35334877Y-122745093D01*
X35330032Y-122714500D01*
X35330031Y-122432478D01*
X35321638Y-122379487D01*
X35321638Y-122348511D01*
X35330032Y-122295519D01*
X35330031Y-121932482D01*
X35330031Y-121932478D01*
X35321638Y-121879487D01*
X35321638Y-121848511D01*
X35324538Y-121830203D01*
X35330032Y-121795519D01*
X35330031Y-121596281D01*
X35348938Y-121538093D01*
X35349779Y-121536952D01*
X35372887Y-121506085D01*
X35423128Y-121371381D01*
X35423130Y-121371370D01*
X35429532Y-121311824D01*
X35429532Y-121258500D01*
X35448439Y-121200309D01*
X35497939Y-121164345D01*
X35528532Y-121159500D01*
X41237015Y-121159500D01*
X41239251Y-121159576D01*
X41300245Y-121161660D01*
X41341777Y-121151538D01*
X41346740Y-121150594D01*
X41389111Y-121144771D01*
X41406355Y-121137280D01*
X41422343Y-121131904D01*
X41440594Y-121127457D01*
X41477855Y-121106505D01*
X41482385Y-121104255D01*
X41521609Y-121087219D01*
X41536184Y-121075360D01*
X41550136Y-121065864D01*
X41566512Y-121056658D01*
X41596749Y-121026419D01*
X41600493Y-121023040D01*
X41633665Y-120996054D01*
X41644501Y-120980700D01*
X41655361Y-120967808D01*
X41728675Y-120894494D01*
X41783191Y-120866719D01*
X41798677Y-120865500D01*
X48301322Y-120865500D01*
X48359513Y-120884407D01*
G37*
G04 #@! TD.AperFunction*
G04 #@! TA.AperFunction,Conductor*
G36*
X260270445Y-118553407D02*
G01*
X260306409Y-118602907D01*
X260306409Y-118664093D01*
X260304821Y-118668606D01*
X260288294Y-118712183D01*
X260285517Y-118735050D01*
X260259732Y-118790537D01*
X260257243Y-118793117D01*
X259954302Y-119096059D01*
X259908062Y-119139245D01*
X259885850Y-119175770D01*
X259882998Y-119179960D01*
X259857168Y-119214024D01*
X259857167Y-119214026D01*
X259850273Y-119231506D01*
X259842769Y-119246615D01*
X259833005Y-119262673D01*
X259821471Y-119303835D01*
X259819855Y-119308641D01*
X259804173Y-119348407D01*
X259804172Y-119348413D01*
X259802250Y-119367103D01*
X259799101Y-119383677D01*
X259794032Y-119401772D01*
X259794031Y-119401774D01*
X259794031Y-119444525D01*
X259793771Y-119449588D01*
X259789401Y-119492109D01*
X259792592Y-119510621D01*
X259794031Y-119527438D01*
X259794031Y-119769351D01*
X259776508Y-119825588D01*
X259739312Y-119879477D01*
X259683295Y-120027182D01*
X259683294Y-120027183D01*
X259664254Y-120183998D01*
X259664254Y-120184001D01*
X259683294Y-120340816D01*
X259683295Y-120340818D01*
X259710739Y-120413182D01*
X259739312Y-120488523D01*
X259829047Y-120618528D01*
X259829048Y-120618529D01*
X259829049Y-120618530D01*
X259947292Y-120723283D01*
X260087167Y-120796696D01*
X260240547Y-120834500D01*
X260240550Y-120834500D01*
X260398514Y-120834500D01*
X260398517Y-120834500D01*
X260551897Y-120796696D01*
X260691772Y-120723283D01*
X260810015Y-120618530D01*
X260899752Y-120488523D01*
X260955769Y-120340818D01*
X260973209Y-120197183D01*
X260974810Y-120184001D01*
X260974810Y-120183998D01*
X260956689Y-120034760D01*
X260955769Y-120027182D01*
X260899752Y-119879477D01*
X260862556Y-119825589D01*
X260845032Y-119769351D01*
X260845032Y-119732676D01*
X260863939Y-119674485D01*
X260874023Y-119662678D01*
X261002163Y-119534537D01*
X261048469Y-119508420D01*
X261156896Y-119481697D01*
X261296771Y-119408284D01*
X261415014Y-119303531D01*
X261480857Y-119208139D01*
X261529472Y-119170991D01*
X261590639Y-119169511D01*
X261632335Y-119194374D01*
X262312191Y-119874228D01*
X262355373Y-119920466D01*
X262355375Y-119920467D01*
X262355377Y-119920469D01*
X262391901Y-119942679D01*
X262396089Y-119945530D01*
X262406228Y-119953218D01*
X262430157Y-119971364D01*
X262430158Y-119971364D01*
X262430159Y-119971365D01*
X262447631Y-119978255D01*
X262462750Y-119985764D01*
X262478800Y-119995524D01*
X262478802Y-119995525D01*
X262478804Y-119995526D01*
X262519969Y-120007059D01*
X262524762Y-120008671D01*
X262564543Y-120024359D01*
X262583238Y-120026280D01*
X262599818Y-120029432D01*
X262609455Y-120032132D01*
X262617903Y-120034500D01*
X262617904Y-120034500D01*
X262660653Y-120034500D01*
X262665717Y-120034760D01*
X262677190Y-120035939D01*
X262708241Y-120039131D01*
X262723447Y-120036509D01*
X262726756Y-120035939D01*
X262743575Y-120034500D01*
X262785667Y-120034500D01*
X262843858Y-120053407D01*
X262855671Y-120063496D01*
X263626675Y-120834500D01*
X264261673Y-121469497D01*
X264289450Y-121524014D01*
X264279879Y-121584446D01*
X264236614Y-121627711D01*
X264191669Y-121638501D01*
X263838516Y-121638501D01*
X263775286Y-121636341D01*
X263775279Y-121636341D01*
X263737143Y-121645635D01*
X263733755Y-121646461D01*
X263728776Y-121647407D01*
X263686424Y-121653229D01*
X263686416Y-121653231D01*
X263669184Y-121660715D01*
X263653197Y-121666091D01*
X263634945Y-121670540D01*
X263634934Y-121670544D01*
X263597671Y-121691495D01*
X263593131Y-121693750D01*
X263553919Y-121710782D01*
X263553918Y-121710783D01*
X263539344Y-121722640D01*
X263525393Y-121732136D01*
X263509019Y-121741342D01*
X263478791Y-121771570D01*
X263475028Y-121774966D01*
X263441868Y-121801944D01*
X263441861Y-121801952D01*
X263431031Y-121817294D01*
X263420158Y-121830203D01*
X261984303Y-123266058D01*
X261938062Y-123309245D01*
X261915850Y-123345770D01*
X261912998Y-123349960D01*
X261887168Y-123384024D01*
X261887167Y-123384026D01*
X261880273Y-123401506D01*
X261872769Y-123416615D01*
X261863005Y-123432673D01*
X261851471Y-123473835D01*
X261849855Y-123478641D01*
X261834173Y-123518407D01*
X261834172Y-123518413D01*
X261832250Y-123537103D01*
X261829101Y-123553676D01*
X261824032Y-123571771D01*
X261824031Y-123571774D01*
X261824031Y-123614522D01*
X261823771Y-123619584D01*
X261819400Y-123662109D01*
X261822593Y-123680625D01*
X261824032Y-123697444D01*
X261824032Y-129976198D01*
X261805125Y-130034389D01*
X261755625Y-130070353D01*
X261694439Y-130070353D01*
X261644939Y-130034389D01*
X261637187Y-130021739D01*
X261636984Y-130021460D01*
X261636983Y-130021458D01*
X261584026Y-129968501D01*
X261556251Y-129913987D01*
X261555033Y-129898512D01*
X261555033Y-125763004D01*
X261557193Y-125699776D01*
X261547071Y-125658242D01*
X261546125Y-125653263D01*
X261540304Y-125610912D01*
X261540304Y-125610910D01*
X261532816Y-125593672D01*
X261527437Y-125577678D01*
X261522990Y-125559426D01*
X261502034Y-125522156D01*
X261499791Y-125517640D01*
X261482752Y-125478412D01*
X261470885Y-125463825D01*
X261461395Y-125449880D01*
X261452191Y-125433510D01*
X261421960Y-125403278D01*
X261418562Y-125399513D01*
X261391585Y-125366354D01*
X261376239Y-125355521D01*
X261363327Y-125344646D01*
X260076819Y-124058138D01*
X260049042Y-124003621D01*
X260048545Y-124000067D01*
X260045769Y-123977204D01*
X260045769Y-123977202D01*
X259989752Y-123829497D01*
X259906870Y-123709421D01*
X259900016Y-123699491D01*
X259897706Y-123697444D01*
X259781772Y-123594737D01*
X259641897Y-123521324D01*
X259641896Y-123521323D01*
X259641895Y-123521323D01*
X259533474Y-123494600D01*
X259487162Y-123468481D01*
X258372452Y-122353771D01*
X258329269Y-122307532D01*
X258329267Y-122307531D01*
X258292744Y-122285321D01*
X258288551Y-122282467D01*
X258254485Y-122256634D01*
X258237004Y-122249740D01*
X258221893Y-122242235D01*
X258205837Y-122232472D01*
X258164678Y-122220940D01*
X258159872Y-122219324D01*
X258120101Y-122203641D01*
X258120104Y-122203641D01*
X258108140Y-122202411D01*
X258101404Y-122201718D01*
X258084826Y-122198567D01*
X258066740Y-122193500D01*
X258023990Y-122193500D01*
X258018926Y-122193240D01*
X257984573Y-122189709D01*
X257976402Y-122188869D01*
X257976401Y-122188869D01*
X257957887Y-122192061D01*
X257941068Y-122193500D01*
X252883209Y-122193500D01*
X252825018Y-122174593D01*
X252813205Y-122164504D01*
X251697205Y-121048504D01*
X251669428Y-120993987D01*
X251678999Y-120933555D01*
X251722264Y-120890290D01*
X251767209Y-120879500D01*
X253366630Y-120879500D01*
X253412638Y-120890840D01*
X253417291Y-120893282D01*
X253417292Y-120893283D01*
X253557167Y-120966696D01*
X253710547Y-121004500D01*
X253710550Y-121004500D01*
X253868514Y-121004500D01*
X253868517Y-121004500D01*
X254021897Y-120966696D01*
X254161772Y-120893283D01*
X254280015Y-120788530D01*
X254369752Y-120658523D01*
X254425769Y-120510818D01*
X254444810Y-120354000D01*
X254443209Y-120340818D01*
X254425769Y-120197183D01*
X254425769Y-120197182D01*
X254411517Y-120159604D01*
X254408562Y-120098492D01*
X254442093Y-120047312D01*
X254499302Y-120025616D01*
X254504085Y-120025500D01*
X258224547Y-120025500D01*
X258226783Y-120025576D01*
X258287777Y-120027660D01*
X258329309Y-120017538D01*
X258334272Y-120016594D01*
X258376643Y-120010771D01*
X258393887Y-120003280D01*
X258409875Y-119997904D01*
X258428126Y-119993457D01*
X258465387Y-119972505D01*
X258469917Y-119970255D01*
X258509141Y-119953219D01*
X258523716Y-119941360D01*
X258537668Y-119931864D01*
X258554044Y-119922658D01*
X258584281Y-119892419D01*
X258588025Y-119889040D01*
X258621197Y-119862054D01*
X258632031Y-119846704D01*
X258642895Y-119833805D01*
X259913205Y-118563495D01*
X259967722Y-118535719D01*
X259983209Y-118534500D01*
X260212254Y-118534500D01*
X260270445Y-118553407D01*
G37*
G04 #@! TD.AperFunction*
G04 #@! TA.AperFunction,Conductor*
G36*
X261837870Y-112017198D02*
G01*
X261874403Y-112049171D01*
X261919515Y-112114528D01*
X261919516Y-112114529D01*
X261919517Y-112114530D01*
X262037760Y-112219283D01*
X262177635Y-112292696D01*
X262331015Y-112330500D01*
X262331018Y-112330500D01*
X262488982Y-112330500D01*
X262488985Y-112330500D01*
X262642365Y-112292696D01*
X262782240Y-112219283D01*
X262782243Y-112219280D01*
X262784023Y-112218346D01*
X262844334Y-112208045D01*
X262899183Y-112235161D01*
X262927618Y-112289338D01*
X262929031Y-112306006D01*
X262929031Y-117695817D01*
X262910124Y-117754008D01*
X262895884Y-117768624D01*
X262896100Y-117768841D01*
X262788998Y-117875920D01*
X262716506Y-118001451D01*
X262716503Y-118001458D01*
X262678975Y-118141469D01*
X262678974Y-118141474D01*
X262678961Y-118286433D01*
X262716469Y-118426459D01*
X262716470Y-118426460D01*
X262788942Y-118552006D01*
X262891437Y-118654514D01*
X262891436Y-118654514D01*
X262891438Y-118654515D01*
X262891439Y-118654516D01*
X263016976Y-118727004D01*
X263156996Y-118764529D01*
X263301958Y-118764535D01*
X263301962Y-118764534D01*
X263301963Y-118764534D01*
X263356275Y-118749982D01*
X263441982Y-118727021D01*
X263567524Y-118654544D01*
X263670030Y-118552042D01*
X263670030Y-118552041D01*
X263674619Y-118547453D01*
X263675803Y-118548637D01*
X263719539Y-118518577D01*
X263747658Y-118514500D01*
X266422266Y-118514500D01*
X266480457Y-118533407D01*
X266516421Y-118582907D01*
X266516421Y-118644093D01*
X266503741Y-118669739D01*
X266499780Y-118675476D01*
X266443763Y-118823182D01*
X266443762Y-118823183D01*
X266424722Y-118979998D01*
X266424722Y-118980001D01*
X266443762Y-119136816D01*
X266443763Y-119136818D01*
X266490934Y-119261198D01*
X266499780Y-119284523D01*
X266589515Y-119414528D01*
X266589516Y-119414529D01*
X266589517Y-119414530D01*
X266707760Y-119519283D01*
X266794336Y-119564722D01*
X266796186Y-119565693D01*
X266838925Y-119609478D01*
X266847765Y-119670021D01*
X266820183Y-119723355D01*
X266797284Y-119746254D01*
X266797282Y-119746257D01*
X266739686Y-119859294D01*
X266724832Y-119953076D01*
X266724832Y-120574920D01*
X266726177Y-120583409D01*
X266716602Y-120643840D01*
X266707650Y-120658217D01*
X266681977Y-120692512D01*
X266631735Y-120827218D01*
X266631733Y-120827229D01*
X266625332Y-120886775D01*
X266625332Y-120963999D01*
X266625333Y-120964000D01*
X268603231Y-120964000D01*
X268603232Y-120963999D01*
X268603232Y-120886775D01*
X268596830Y-120827229D01*
X268596828Y-120827218D01*
X268546586Y-120692512D01*
X268520916Y-120658223D01*
X268501178Y-120600309D01*
X268501828Y-120591223D01*
X269355831Y-120591223D01*
X269362233Y-120650769D01*
X269362235Y-120650780D01*
X269382235Y-120704402D01*
X269384855Y-120765532D01*
X269382236Y-120773593D01*
X269362234Y-120827223D01*
X269355832Y-120886775D01*
X269355832Y-120963998D01*
X269355833Y-120964000D01*
X270094781Y-120964000D01*
X270094782Y-120963999D01*
X270094782Y-120513999D01*
X269355833Y-120513999D01*
X269355832Y-120514000D01*
X269355832Y-120591223D01*
X269355831Y-120591223D01*
X268501828Y-120591223D01*
X268502387Y-120583409D01*
X268503732Y-120574918D01*
X268503731Y-120158724D01*
X268522638Y-120100534D01*
X268532715Y-120088733D01*
X268777260Y-119844189D01*
X268823501Y-119801004D01*
X268845711Y-119764478D01*
X268848561Y-119760291D01*
X268874396Y-119726224D01*
X268875528Y-119723355D01*
X268881289Y-119708745D01*
X268888801Y-119693621D01*
X268898558Y-119677577D01*
X268905949Y-119651193D01*
X268939852Y-119600263D01*
X268997218Y-119578985D01*
X269051674Y-119592689D01*
X269072333Y-119604907D01*
X269231249Y-119651076D01*
X269231256Y-119651078D01*
X269268386Y-119654000D01*
X269302904Y-119654000D01*
X269361095Y-119672907D01*
X269397059Y-119722407D01*
X269397059Y-119783593D01*
X269395662Y-119787596D01*
X269362235Y-119877217D01*
X269362233Y-119877228D01*
X269355832Y-119936774D01*
X269355832Y-120013997D01*
X269355833Y-120013999D01*
X270094781Y-120013999D01*
X270094782Y-120013997D01*
X270094782Y-119543599D01*
X270113689Y-119485408D01*
X270163189Y-119449444D01*
X270193782Y-119444599D01*
X270240242Y-119444599D01*
X270281197Y-119403643D01*
X270365438Y-119261198D01*
X270411610Y-119102278D01*
X270412262Y-119094000D01*
X269396032Y-119094000D01*
X269337841Y-119075093D01*
X269301877Y-119025593D01*
X269297032Y-118995000D01*
X269297032Y-118693000D01*
X269315939Y-118634809D01*
X269365439Y-118598845D01*
X269396032Y-118594000D01*
X270412262Y-118594000D01*
X270424004Y-118581295D01*
X270428690Y-118561776D01*
X270475214Y-118522038D01*
X270513104Y-118514500D01*
X270830031Y-118514500D01*
X270888222Y-118533407D01*
X270924186Y-118582907D01*
X270929031Y-118613500D01*
X270929031Y-119385599D01*
X270910124Y-119443790D01*
X270860624Y-119479754D01*
X270830031Y-119484599D01*
X270594782Y-119484599D01*
X270594782Y-121365000D01*
X270575875Y-121423191D01*
X270526375Y-121459155D01*
X270495782Y-121464000D01*
X269355833Y-121464000D01*
X269355832Y-121464001D01*
X269355832Y-121541224D01*
X269355831Y-121541224D01*
X269362233Y-121600770D01*
X269362235Y-121600781D01*
X269412477Y-121735487D01*
X269438147Y-121769777D01*
X269457884Y-121827692D01*
X269456676Y-121844585D01*
X269455332Y-121853073D01*
X269455332Y-122474921D01*
X269455333Y-122474924D01*
X269470184Y-122568700D01*
X269470186Y-122568705D01*
X269527782Y-122681743D01*
X269591537Y-122745498D01*
X269619313Y-122800013D01*
X269609742Y-122860445D01*
X269566477Y-122903710D01*
X269521532Y-122914500D01*
X268437532Y-122914500D01*
X268379341Y-122895593D01*
X268343377Y-122846093D01*
X268343377Y-122784907D01*
X268367526Y-122745498D01*
X268431282Y-122681743D01*
X268488878Y-122568705D01*
X268503732Y-122474920D01*
X268503731Y-121853083D01*
X268503729Y-121853073D01*
X268502387Y-121844596D01*
X268511958Y-121784164D01*
X268520915Y-121769778D01*
X268546587Y-121735484D01*
X268596828Y-121600781D01*
X268596830Y-121600770D01*
X268603232Y-121541224D01*
X268603232Y-121464000D01*
X266625333Y-121464000D01*
X266625332Y-121464001D01*
X266625332Y-121539501D01*
X266606425Y-121597692D01*
X266556925Y-121633656D01*
X266526332Y-121638501D01*
X265958023Y-121638501D01*
X265899832Y-121619594D01*
X265888019Y-121609505D01*
X263422285Y-119143771D01*
X263379102Y-119097532D01*
X263379100Y-119097531D01*
X263376679Y-119096059D01*
X263342574Y-119075319D01*
X263338384Y-119072467D01*
X263304318Y-119046634D01*
X263286837Y-119039740D01*
X263271726Y-119032235D01*
X263255670Y-119022472D01*
X263214511Y-119010940D01*
X263209705Y-119009324D01*
X263169934Y-118993641D01*
X263169937Y-118993641D01*
X263157973Y-118992411D01*
X263151237Y-118991718D01*
X263134659Y-118988567D01*
X263116573Y-118983500D01*
X263073823Y-118983500D01*
X263068759Y-118983240D01*
X263034406Y-118979709D01*
X263026235Y-118978869D01*
X263026234Y-118978869D01*
X263007720Y-118982061D01*
X262990901Y-118983500D01*
X262948809Y-118983500D01*
X262890618Y-118964593D01*
X262878805Y-118954504D01*
X261568072Y-117643771D01*
X261524889Y-117597532D01*
X261524887Y-117597531D01*
X261488364Y-117575321D01*
X261484171Y-117572467D01*
X261450105Y-117546634D01*
X261432624Y-117539740D01*
X261417513Y-117532235D01*
X261401457Y-117522472D01*
X261360298Y-117510940D01*
X261355492Y-117509324D01*
X261315721Y-117493641D01*
X261315724Y-117493641D01*
X261303760Y-117492411D01*
X261297024Y-117491718D01*
X261280446Y-117488567D01*
X261262360Y-117483500D01*
X261232208Y-117483500D01*
X261174017Y-117464593D01*
X261138053Y-117415093D01*
X261138053Y-117353907D01*
X261162204Y-117314497D01*
X261394761Y-117081939D01*
X261441001Y-117038755D01*
X261441002Y-117038754D01*
X261463212Y-117002228D01*
X261466062Y-116998041D01*
X261491897Y-116963974D01*
X261498790Y-116946495D01*
X261506302Y-116931371D01*
X261516059Y-116915327D01*
X261527594Y-116874154D01*
X261529207Y-116869360D01*
X261544890Y-116829592D01*
X261544891Y-116829590D01*
X261544890Y-116829590D01*
X261544892Y-116829588D01*
X261546813Y-116810890D01*
X261549964Y-116794316D01*
X261555033Y-116776227D01*
X261555033Y-116733476D01*
X261555293Y-116728411D01*
X261556037Y-116721165D01*
X261559664Y-116685889D01*
X261556472Y-116667373D01*
X261555033Y-116650554D01*
X261555033Y-112329499D01*
X261573940Y-112271308D01*
X261584023Y-112259501D01*
X261636983Y-112206542D01*
X261694579Y-112093504D01*
X261695146Y-112089923D01*
X261696791Y-112086693D01*
X261696986Y-112086096D01*
X261697080Y-112086126D01*
X261722922Y-112035407D01*
X261777438Y-112007628D01*
X261837870Y-112017198D01*
G37*
G04 #@! TD.AperFunction*
G04 #@! TA.AperFunction,Conductor*
G36*
X258309322Y-108183407D02*
G01*
X258345286Y-108232907D01*
X258350131Y-108263500D01*
X258350131Y-108498749D01*
X258350132Y-108498750D01*
X260230532Y-108498750D01*
X260288723Y-108517657D01*
X260324687Y-108567157D01*
X260329532Y-108597750D01*
X260329532Y-109737699D01*
X260329533Y-109737700D01*
X260406756Y-109737700D01*
X260466302Y-109731298D01*
X260466313Y-109731296D01*
X260601019Y-109681054D01*
X260601020Y-109681053D01*
X260635307Y-109655385D01*
X260693221Y-109635646D01*
X260710123Y-109636855D01*
X260718614Y-109638200D01*
X261134804Y-109638199D01*
X261192995Y-109657106D01*
X261204808Y-109667195D01*
X261855503Y-110317889D01*
X261883280Y-110372406D01*
X261884499Y-110387893D01*
X261884499Y-110825370D01*
X261865592Y-110883561D01*
X261816092Y-110919525D01*
X261754906Y-110919525D01*
X261705406Y-110883561D01*
X261697290Y-110870316D01*
X261674374Y-110825342D01*
X261636983Y-110751958D01*
X261547275Y-110662250D01*
X261434237Y-110604654D01*
X261434238Y-110604654D01*
X261340455Y-110589800D01*
X260718615Y-110589800D01*
X260710118Y-110591146D01*
X260649687Y-110581568D01*
X260635311Y-110572617D01*
X260601017Y-110546944D01*
X260466313Y-110496703D01*
X260466302Y-110496701D01*
X260406756Y-110490300D01*
X260329531Y-110490300D01*
X260329531Y-112468198D01*
X260329533Y-112468200D01*
X260405033Y-112468200D01*
X260463224Y-112487107D01*
X260499188Y-112536607D01*
X260504033Y-112567200D01*
X260504032Y-116445321D01*
X260485125Y-116503512D01*
X260475036Y-116515325D01*
X259373794Y-117616567D01*
X259370030Y-117619964D01*
X259336869Y-117646943D01*
X259336862Y-117646951D01*
X259326032Y-117662293D01*
X259315159Y-117675202D01*
X258044859Y-118945504D01*
X257990342Y-118973281D01*
X257974855Y-118974500D01*
X250388985Y-118974500D01*
X250325756Y-118972340D01*
X250325751Y-118972340D01*
X250284223Y-118982460D01*
X250279242Y-118983406D01*
X250236888Y-118989228D01*
X250236885Y-118989229D01*
X250219655Y-118996714D01*
X250203656Y-119002095D01*
X250185407Y-119006542D01*
X250185399Y-119006545D01*
X250148148Y-119027491D01*
X250143607Y-119029746D01*
X250104392Y-119046780D01*
X250089807Y-119058645D01*
X250075858Y-119068138D01*
X250059486Y-119077343D01*
X250029260Y-119107569D01*
X250025497Y-119110965D01*
X249992337Y-119137943D01*
X249992330Y-119137951D01*
X249981497Y-119153297D01*
X249970624Y-119166205D01*
X249871328Y-119265503D01*
X249816812Y-119293281D01*
X249801324Y-119294500D01*
X51288677Y-119294500D01*
X51230486Y-119275593D01*
X51218673Y-119265504D01*
X50636672Y-118683503D01*
X50608895Y-118628986D01*
X50618466Y-118568554D01*
X50661731Y-118525289D01*
X50706676Y-118514499D01*
X256411382Y-118514499D01*
X256469573Y-118533406D01*
X256484179Y-118547634D01*
X256484396Y-118547418D01*
X256500473Y-118563496D01*
X256591473Y-118654500D01*
X256591475Y-118654501D01*
X256591477Y-118654503D01*
X256658152Y-118693000D01*
X256716998Y-118726977D01*
X256857003Y-118764497D01*
X257001949Y-118764503D01*
X257141957Y-118726996D01*
X257267488Y-118654530D01*
X257369987Y-118552044D01*
X257442468Y-118426523D01*
X257479994Y-118286519D01*
X257480006Y-118141573D01*
X257442504Y-118001563D01*
X257442443Y-118001458D01*
X257415098Y-117954084D01*
X257370043Y-117876030D01*
X257370041Y-117876028D01*
X257370040Y-117876026D01*
X257262975Y-117768939D01*
X257264158Y-117767756D01*
X257234102Y-117724006D01*
X257230031Y-117695907D01*
X257230031Y-112649401D01*
X257248938Y-112591210D01*
X257298438Y-112555246D01*
X257352720Y-112553278D01*
X257493531Y-112587984D01*
X257493534Y-112587984D01*
X257651498Y-112587984D01*
X257651501Y-112587984D01*
X257804881Y-112550180D01*
X257944756Y-112476767D01*
X258062999Y-112372014D01*
X258152736Y-112242007D01*
X258208753Y-112094302D01*
X258227794Y-111937484D01*
X258208753Y-111780666D01*
X258152736Y-111632961D01*
X258062999Y-111502954D01*
X258062998Y-111502953D01*
X258062998Y-111502952D01*
X258060339Y-111500597D01*
X258059209Y-111498676D01*
X258059030Y-111498474D01*
X258059069Y-111498438D01*
X258029320Y-111447858D01*
X258035224Y-111386958D01*
X258066164Y-111347612D01*
X258104622Y-111318449D01*
X258162409Y-111298355D01*
X258220975Y-111316065D01*
X258234432Y-111327321D01*
X258420636Y-111513524D01*
X258448412Y-111568039D01*
X258449631Y-111583526D01*
X258449631Y-111999720D01*
X258449632Y-111999723D01*
X258464483Y-112093499D01*
X258464485Y-112093504D01*
X258522081Y-112206542D01*
X258611789Y-112296250D01*
X258724827Y-112353846D01*
X258818612Y-112368700D01*
X259440449Y-112368699D01*
X259448934Y-112367355D01*
X259509366Y-112376925D01*
X259523752Y-112385883D01*
X259558044Y-112411554D01*
X259692750Y-112461796D01*
X259692761Y-112461798D01*
X259752308Y-112468200D01*
X259829531Y-112468200D01*
X259829532Y-112468199D01*
X259829532Y-110490300D01*
X259752308Y-110490300D01*
X259692761Y-110496701D01*
X259692750Y-110496703D01*
X259558042Y-110546946D01*
X259523751Y-110572616D01*
X259465836Y-110592352D01*
X259448943Y-110591144D01*
X259440454Y-110589800D01*
X259440450Y-110589800D01*
X259024258Y-110589800D01*
X258966067Y-110570893D01*
X258954255Y-110560804D01*
X258709721Y-110316271D01*
X258666538Y-110270032D01*
X258666536Y-110270031D01*
X258630013Y-110247821D01*
X258625820Y-110244967D01*
X258591754Y-110219134D01*
X258574273Y-110212240D01*
X258559162Y-110204735D01*
X258543106Y-110194972D01*
X258501947Y-110183440D01*
X258497141Y-110181824D01*
X258457370Y-110166141D01*
X258457373Y-110166141D01*
X258445409Y-110164911D01*
X258438673Y-110164218D01*
X258422095Y-110161067D01*
X258413796Y-110158742D01*
X258362866Y-110124833D01*
X258341593Y-110067465D01*
X258349655Y-110024089D01*
X258350909Y-110021191D01*
X258397076Y-109862282D01*
X258397078Y-109862275D01*
X258400000Y-109825146D01*
X258399999Y-109723092D01*
X258418906Y-109664901D01*
X258468405Y-109628937D01*
X258529591Y-109628936D01*
X258558328Y-109643838D01*
X258608040Y-109681052D01*
X258608042Y-109681053D01*
X258742749Y-109731296D01*
X258742760Y-109731298D01*
X258802307Y-109737700D01*
X258879530Y-109737700D01*
X258879531Y-109737699D01*
X258879531Y-108998750D01*
X259379531Y-108998750D01*
X259379531Y-109737699D01*
X259379532Y-109737700D01*
X259456755Y-109737700D01*
X259516301Y-109731298D01*
X259516305Y-109731297D01*
X259569933Y-109711295D01*
X259631062Y-109708674D01*
X259639128Y-109711295D01*
X259692754Y-109731296D01*
X259692761Y-109731298D01*
X259752308Y-109737700D01*
X259829531Y-109737700D01*
X259829532Y-109737698D01*
X259829532Y-108998751D01*
X259829531Y-108998750D01*
X259379531Y-108998750D01*
X258879531Y-108998750D01*
X258364174Y-108998750D01*
X258305983Y-108979843D01*
X258278961Y-108950146D01*
X258266666Y-108929357D01*
X258149643Y-108812334D01*
X258007198Y-108728093D01*
X257848278Y-108681921D01*
X257840000Y-108681269D01*
X257840000Y-109697500D01*
X257821093Y-109755691D01*
X257771593Y-109791655D01*
X257741000Y-109796500D01*
X257439000Y-109796500D01*
X257380809Y-109777593D01*
X257344845Y-109728093D01*
X257340000Y-109697500D01*
X257339999Y-108681270D01*
X257336802Y-108681522D01*
X257277307Y-108667240D01*
X257237568Y-108620716D01*
X257230031Y-108582830D01*
X257230031Y-108263500D01*
X257248939Y-108205309D01*
X257298440Y-108169345D01*
X257329032Y-108164500D01*
X258251131Y-108164500D01*
X258309322Y-108183407D01*
G37*
G04 #@! TD.AperFunction*
M02*
